<?xml version="1.0" encoding="utf-8"?>
<!-- Generator: Adobe Illustrator 16.0.0, SVG Export Plug-In . SVG Version: 6.00 Build 0)  -->
<!DOCTYPE svg PUBLIC "-//W3C//DTD SVG 1.1//EN" "http://www.w3.org/Graphics/SVG/1.1/DTD/svg11.dtd">
<svg version="1.1" id="レイヤー_1" xmlns="http://www.w3.org/2000/svg" xmlns:xlink="http://www.w3.org/1999/xlink" x="0px"
	 y="0px" width="440px" height="975px" viewBox="0 0 440 975" style="enable-background:new 0 0 440 975;" xml:space="preserve">
<style type="text/css">
<![CDATA[
	.st0{fill:#EE2300;}
	.st1{fill:#FF4600;}
	.st2{fill:#FFFFCC;}
	.st3{fill:none;}
	.st4{fill:#CCCCCC;}
	.st5{fill:#0055FF;}
	.st6{fill:none;stroke:#000000;stroke-width:2;stroke-miterlimit:10;}
	.st7{fill:none;stroke:#EE2300;stroke-width:2;stroke-miterlimit:10;}
	.st8{fill:#DB0000;}
	.st9{fill:#DC0000;}
	.st10{fill:#EEEEEE;stroke:#000000;stroke-width:2;stroke-miterlimit:10;}
]]>
</style>
<rect class="st2" width="440" height="975"/>
<rect x="132" y="79" class="st10" width="44" height="72"/>
<rect x="176" y="79" class="st10" width="44" height="72"/>
<rect x="220" y="79" class="st10" width="44" height="72"/>
<rect x="264" y="79" class="st10" width="44" height="72"/>
<rect x="308" y="79" class="st10" width="44" height="72"/>
<rect x="352" y="79" class="st10" width="44" height="72"/>
<rect x="132" y="172" class="st10" width="44" height="72"/>
<rect x="176" y="172" class="st10" width="44" height="72"/>
<rect x="220" y="172" class="st10" width="44" height="72"/>
<rect x="264" y="172" class="st10" width="44" height="72"/>
<rect x="308" y="172" class="st10" width="44" height="72"/>
<rect x="352" y="172" class="st10" width="44" height="72"/>
<rect x="132" y="421" class="st10" width="44" height="72"/>
<rect x="176" y="421" class="st10" width="44" height="72"/>
<rect x="220" y="421" class="st10" width="44" height="72"/>
<rect x="264" y="421" class="st10" width="44" height="72"/>
<rect x="308" y="421" class="st10" width="44" height="72"/>
<rect x="352" y="421" class="st10" width="44" height="72"/>
<rect x="44" y="421" class="st10" width="44" height="72"/>
<rect x="88" y="421" class="st10" width="44" height="72"/>
<rect x="44" y="514" class="st10" width="44" height="72"/>
<rect x="88" y="514" class="st10" width="44" height="72"/>
<rect x="132" y="514" class="st10" width="44" height="72"/>
<rect x="176" y="514" class="st10" width="44" height="72"/>
<rect x="220" y="514" class="st10" width="44" height="72"/>
<rect x="264" y="514" class="st10" width="44" height="72"/>
<rect x="308" y="514" class="st10" width="44" height="72"/>
<rect x="352" y="514" class="st10" width="44" height="72"/>
<g>
	<rect x="140.1" y="13.5" class="st3" width="159.9" height="24"/>
	<path d="M146,16.8v-1.3h10.6v1.3h-5.4c-0.3,1.1-0.6,2.2-1.1,3.4h4.7l0.3-0.1l0.9,0.4c0,0.1-0.1,0.2-0.2,0.2
		c-1.1,6.7-4.1,10.9-8,13.1c-0.2-0.3-0.7-0.8-1.1-1.1c2.1-1.1,3.9-2.8,5.3-5.1c-0.9-0.8-2.5-1.8-3.7-2.5l0.7-1
		c1.2,0.7,2.7,1.6,3.6,2.3c0.7-1.4,1.2-3.1,1.6-4.9h-4.7c-0.8,1.9-1.9,3.7-3.3,5c-0.2-0.3-0.7-0.7-1-0.9c2.3-2.2,3.7-5.7,4.4-8.8
		H146z M157.5,16.7l1.8,0.1c0,0.1-0.1,0.3-0.4,0.3v11.3h-1.4V16.7z M162.8,14.7l1.8,0.1c0,0.2-0.1,0.3-0.4,0.3v16.8
		c0,1.8-0.8,1.9-4.6,1.9c-0.1-0.4-0.3-1-0.5-1.4c0.9,0,1.7,0,2.3,0c1.3,0,1.4,0,1.4-0.5V14.7z"/>
	<path d="M186.5,29.3v1.3h-8.9v3.1h-1.4v-3.1h-8.7v-1.3h8.7v-1.8h-6.5v-8.3h6.5v-1.7H168v-1.3h8.1v-2l1.8,0.1c0,0.1-0.1,0.3-0.4,0.3
		v1.6h8.3v1.3h-8.3v1.7h6.7v8.3h-6.7v1.8H186.5z M171.1,20.4v2.3h5.1v-2.3H171.1z M171.1,26.3h5.1v-2.4h-5.1V26.3z M182.9,20.4h-5.3
		v2.3h5.3V20.4z M182.9,26.3v-2.4h-5.3v2.4H182.9z"/>
	<path d="M190.9,18.6c0,1.9-0.4,4.1-1.2,5.5c-0.8-0.5-0.9-0.5-1-0.6c0.8-1.2,1.1-3.3,1.1-5.1L190.9,18.6z M191.7,14.2l1.8,0.1
		c0,0.1-0.1,0.3-0.4,0.3v19.1h-1.4V14.2z M195,21c-0.3-0.8-0.9-2.1-1.5-3.1l1-0.5c0.6,0.9,1.3,2.2,1.6,3L195,21z M202.3,21.3h5.9
		v1.2h-13v-1.2h5.7v-1.5h-4.1v-1.1h4.1v-1.4h-4.9v-1.1h4.9v-1.9l1.9,0.1c0,0.1-0.1,0.3-0.4,0.3v1.5h5.1v1.1h-5.1v1.4h4.3v1.1h-4.3
		V21.3z M206.3,23.9v8.3c0,1.4-0.5,1.5-3.5,1.5c-0.1-0.4-0.3-0.9-0.4-1.2c0.6,0,1.1,0,1.5,0c0.9,0,1,0,1-0.3v-1.9h-6.5v3.3H197v-9.8
		H206.3z M204.9,25.1h-6.5v1.6h6.5V25.1z M198.4,29.3h6.5v-1.6h-6.5V29.3z"/>
	<path d="M215.8,17.6V20h4.2v1.2h-9.7V20h4.2v-2.4h-3.4v-1.2h3.4v-2.1l1.7,0.1c0,0.1-0.1,0.3-0.4,0.3v1.7h3.3v1.2H215.8z
		 M216.2,24.6c0.4-0.8,1-2.2,1.3-3.1l1.5,0.5c-0.1,0.1-0.2,0.2-0.4,0.2c-0.3,0.7-0.9,1.8-1.3,2.6h2.5V26h-3.9v2.4h3.6v1.2h-3.6v4.1
		h-1.3v-4.1h-3.6v-1.2h3.6V26h-3.9v-1.2h6L216.2,24.6z M212.8,24.6c-0.1-0.8-0.5-2-1-2.9l1.1-0.3c0.5,0.9,0.9,2.1,1,2.8L212.8,24.6z
		 M228.2,23.2l0.9,0.3c0,0.1-0.1,0.2-0.1,0.3c-0.4,2.2-1.2,4.4-2.3,6.3c0.9,1,2,1.9,3.2,2.4c-0.3,0.3-0.8,0.8-1,1.2
		c-1.1-0.6-2.1-1.4-3-2.5c-0.7,0.9-1.5,1.7-2.5,2.3c-0.2-0.3-0.6-0.7-1-0.9c1-0.7,1.8-1.5,2.6-2.5c-1-1.4-1.8-3.2-2.4-5l1.1-0.3
		c0.5,1.4,1.2,2.9,2,4.1c0.8-1.4,1.3-2.9,1.7-4.5H222v9.3h-1.3V15.3h8.2v5.3c0,1.5-0.8,1.5-3.6,1.5c0-0.4-0.3-0.9-0.4-1.2
		c0.5,0,1.1,0,1.5,0c1.2,0,1.2,0,1.2-0.3v-3.9H222v6.7h5.9L228.2,23.2z"/>
	<path d="M239.8,17.8V19h-8v-1.2H239.8z M239,26.4v6.2H234v1h-1.3v-7.2H239z M232.7,21.8v-1.2h6.3v1.2H232.7z M232.7,24.7v-1.2h6.3
		v1.2H232.7z M239,15v1.2h-6.1V15H239z M237.8,27.6H234v3.8h3.8V27.6z M242.8,16.2v1.3c0,1.8-0.5,4.1-2.7,5.5
		c-0.2-0.3-0.7-0.8-1-0.9c2.1-1.3,2.4-3.1,2.4-4.6v-2.6h6.6v5.3c0,0.5,0.1,0.5,0.4,0.5h1.2c0.4,0,0.5-0.3,0.5-2.4
		c0.3,0.2,0.8,0.4,1.2,0.5c-0.1,2.5-0.5,3.1-1.6,3.1h-1.5c-1.2,0-1.6-0.4-1.6-1.8v-4H242.8z M249.3,23.4l0.9,0.4
		c0,0.1-0.1,0.2-0.2,0.2c-0.7,2.5-2,4.5-3.6,6.1c1.4,1.1,3.1,1.9,5,2.4c-0.3,0.3-0.7,0.9-0.9,1.2c-2-0.6-3.7-1.5-5.2-2.7
		c-1.6,1.3-3.5,2.2-5.5,2.7c-0.1-0.4-0.5-0.9-0.8-1.2c1.9-0.5,3.7-1.3,5.2-2.4c-1.3-1.4-2.4-3-3.1-4.9l1.3-0.4
		c0.7,1.7,1.6,3.1,2.9,4.4c1.3-1.2,2.3-2.7,3-4.4h-8.3v-1.3h9L249.3,23.4z"/>
	<path d="M263.7,27.2v4.6c1.1,0.2,2.3,0.3,3.7,0.3c0.7,0,4.4,0,5.4,0c-0.2,0.4-0.5,1-0.5,1.4h-4.9c-4.5,0-7.8-0.8-9.7-4.5
		c-0.8,2.1-1.8,3.8-3.3,4.9c-0.2-0.3-0.7-0.7-1.1-0.9c2.3-1.7,3.5-4.9,4-8.8l1.8,0.3c0,0.1-0.2,0.3-0.4,0.3
		c-0.1,0.8-0.3,1.7-0.5,2.5c0.9,2.4,2.3,3.6,4.2,4.3v-9.2h-5.4v-1.3h12.3v1.3h-5.5v3.7h6.4v1.3H263.7z M255.6,18.2v3.2h-1.4v-4.5h8
		v-2.6l1.9,0.1c0,0.1-0.1,0.3-0.4,0.3v2.2h8.1v4.5h-1.4v-3.2H255.6z"/>
	<path d="M294.1,24H288c1.7,1.5,4.2,2.8,6.7,3.4c-0.3,0.3-0.7,0.8-0.9,1.2c-0.5-0.1-1-0.3-1.5-0.5v5.7H291V33h-4.1v0.8h-1.3v-6.9
		h4.2c-1.4-0.8-2.7-1.8-3.6-2.9h-3.3c-1,1.1-2.2,2.1-3.7,2.9h4.3v6.8h-1.3V33h-4.1v0.8h-1.3V28c-0.5,0.2-0.9,0.4-1.4,0.5
		c-0.2-0.3-0.6-0.8-0.9-1c2.6-0.9,4.8-2,6.4-3.5h-6v-1.3h7.2c0.4-0.5,0.8-1.1,1.1-1.7h-6.8v-5.8h6.8v5.7l0.2-0.4l1.7,0.5
		c0,0.1-0.2,0.2-0.5,0.2c-0.3,0.5-0.5,1-0.9,1.5h10.2V24z M282.1,19.9v-3.5h-4.2v3.5H282.1z M282.2,31.8v-3.6h-4.1v3.6H282.2z
		 M292.7,15.2V21h-6.9v-5.8H292.7z M286.9,31.8h4.1v-3.6h-4.1V31.8z M291.3,19.9v-3.5h-4.2v3.5H291.3z"/>
</g>
<rect x="44" y="292" class="st10" width="44" height="72"/>
<rect x="88" y="292" class="st10" width="44" height="72"/>
<rect x="132" y="292" class="st10" width="44" height="72"/>
<rect x="176" y="292" class="st10" width="44" height="72"/>
<rect x="220" y="292" class="st10" width="44" height="72"/>
<rect x="264" y="292" class="st10" width="44" height="72"/>
<rect x="308" y="292" class="st10" width="44" height="72"/>
<rect x="352" y="292" class="st10" width="44" height="72"/>
<rect x="44" y="607" class="st10" width="44" height="72"/>
<rect x="88" y="607" class="st10" width="44" height="72"/>
<rect x="132" y="607" class="st10" width="44" height="72"/>
<rect x="176" y="607" class="st10" width="44" height="72"/>
<rect x="220" y="607" class="st10" width="44" height="72"/>
<rect x="264" y="607" class="st10" width="44" height="72"/>
<rect x="308" y="607" class="st10" width="44" height="72"/>
<rect x="352" y="607" class="st10" width="44" height="72"/>
<rect x="44" y="700" class="st10" width="44" height="72"/>
<rect x="88" y="700" class="st10" width="44" height="72"/>
<rect x="132" y="700" class="st10" width="44" height="72"/>
<rect x="176" y="700" class="st10" width="44" height="72"/>
<rect x="220" y="700" class="st10" width="44" height="72"/>
<rect x="264" y="700" class="st10" width="44" height="72"/>
<rect x="308" y="700" class="st10" width="44" height="72"/>
<rect x="352" y="700" class="st10" width="44" height="72"/>
<rect x="44" y="793" class="st10" width="44" height="72"/>
<rect x="88" y="793" class="st10" width="44" height="72"/>
<rect x="132" y="793" class="st10" width="44" height="72"/>
<rect x="176" y="793" class="st10" width="44" height="72"/>
<rect x="220" y="793" class="st10" width="44" height="72"/>
<rect x="264" y="793" class="st10" width="44" height="72"/>
<rect x="308" y="793" class="st10" width="44" height="72"/>
<rect x="352" y="793" class="st10" width="44" height="72"/>
<rect x="176" y="911" width="88" height="14"/>
<g>
	<rect x="176.1" y="912.5" class="st3" width="87.9" height="14"/>
	<path class="st4" d="M189.9,915.1h-4.2v7.1h-3.3v-7.1h-4.2v-1.4h11.6V915.1z"/>
	<path class="st4" d="M204.1,917.9c0,2.9-3,4.5-7.2,4.5c-4.5,0-7-1.9-7-4.3c0-2.5,2.8-4.4,7.2-4.4
		C201.8,913.6,204.1,915.6,204.1,917.9z M193.3,918c0,1.7,1.3,3,3.7,3c2.4,0,3.7-1.4,3.7-3.1c0-1.6-1.2-3-3.7-3
		C194.5,914.9,193.3,916.4,193.3,918z"/>
	<path class="st4" d="M213.7,915.3c-0.6-0.2-1.6-0.4-3-0.4c-1.7,0-2.5,0.5-2.5,0.9c0,0.6,0.8,0.9,2.9,1.4c2.7,0.6,3.9,1.4,3.9,2.5
		c0,1.5-2.2,2.6-6.2,2.6c-1.7,0-3.4-0.2-4.2-0.5l0.6-1.4c0.9,0.3,2.3,0.5,3.7,0.5c1.8,0,2.8-0.4,2.8-1.1c0-0.6-0.8-1-2.7-1.4
		c-2.6-0.5-4.1-1.3-4.1-2.4c0-1.4,2.2-2.5,5.8-2.5c1.6,0,2.8,0.2,3.6,0.4L213.7,915.3z"/>
	<path class="st4" d="M228.7,922.2h-3.3v-3.6h-5.8v3.6h-3.3v-8.5h3.3v3.4h5.8v-3.4h3.3V922.2z"/>
	<path class="st4" d="M230.9,913.7h3.3v8.5h-3.3V913.7z"/>
	<path class="st4" d="M244.3,917.7c1.9,0.2,3.3,1,3.3,2.1c0,0.7-0.5,1.3-1.5,1.7c-1.1,0.5-3,0.8-6.1,0.8c-1.6,0-2.8-0.1-3.6-0.1
		v-8.3c1-0.1,2.6-0.2,4.3-0.2c2,0,3.5,0.1,4.7,0.5c1,0.3,1.7,0.9,1.7,1.6C247,916.6,246.1,917.3,244.3,917.7L244.3,917.7z
		 M240.8,917.2c1.8,0,2.9-0.5,2.9-1.2c0-0.8-1.3-1.1-2.7-1.1c-0.7,0-1.1,0-1.4,0.1v2.2H240.8z M239.6,921c0.3,0,0.7,0,1.3,0
		c1.8,0,3.3-0.4,3.3-1.4c0-1-1.7-1.3-3.3-1.3h-1.2V921z"/>
	<path class="st4" d="M261.4,922.2H258l-1.2-2.2h-4.5l-1.2,2.2h-3.3l4.8-8.5h4.1L261.4,922.2z M256.3,918.7l-1-1.9
		c-0.3-0.5-0.6-1.2-0.8-1.7h-0.1c-0.2,0.5-0.5,1.2-0.7,1.7l-1,1.9H256.3z"/>
</g>
<g>
	<path class="st6" d="M396,291v-14.5c0-2.8-2.3-4.5-5-4.5H49.5c-2.8,0-5.5,1.8-5.5,4.5V292"/>
</g>
<rect x="202" y="262" class="st2" width="36" height="20"/>
<g>
	<rect x="191.6" y="264.3" class="st3" width="56.8" height="14.3"/>
	<path d="M209.7,270.7c0.4,0.4,1.6,1.7,1.9,2l-0.6,0.7c-0.2-0.4-0.8-1.2-1.3-1.8v6.2h-0.9v-6.3c-0.5,1.5-1.2,2.9-1.8,3.8
		c-0.1-0.3-0.3-0.6-0.5-0.8c0.8-1.1,1.7-3,2.2-4.6h-2v-0.9h2.2v-2.4c-0.6,0.2-1.3,0.4-1.9,0.5c0-0.2-0.2-0.5-0.3-0.7
		c1.5-0.4,3.3-0.9,4.2-1.5l0.8,0.7c-0.1,0.1-0.1,0.1-0.3,0.1c-0.4,0.2-1,0.5-1.6,0.7v2.7h1.8v0.9h-1.8V270.7z M215.7,276.7h3.8v0.8
		H211v-0.8h3.9v-1.2h-3.1v-0.8h3.1v-1H212v-4.5h2.8v-1h-3.5v-0.8h3.5v-1.2c-1,0.1-2,0.2-3,0.3c0-0.2-0.1-0.5-0.2-0.7
		c2.3-0.2,5.1-0.6,6.5-1l0.8,0.7c0,0-0.1,0.1-0.2,0.1c0,0-0.1,0-0.1,0c-0.8,0.2-1.8,0.4-2.9,0.6v1.3h3.6v0.8h-3.6v1h3v4.5h-3v1h3.2
		v0.8h-3.2V276.7z M212.8,270v1.2h2V270H212.8z M212.8,273h2v-1.2h-2V273z M217.8,270h-2.1v1.2h2.1V270z M217.8,273v-1.2h-2.1v1.2
		H217.8z"/>
	<path d="M226.2,271.8l0.2,0l0.5,0.1c0,0.1,0,0.2,0,0.3c-0.2,3.6-0.3,4.9-0.7,5.3c-0.3,0.4-0.5,0.4-1.6,0.4c-0.3,0-0.7,0-1.1,0
		c0-0.3-0.1-0.6-0.3-0.8c0.7,0.1,1.4,0.1,1.7,0.1c0.3,0,0.4,0,0.5-0.2c0.3-0.3,0.4-1.4,0.5-4.3h-2.5c-0.3,1.9-1,3.9-2.4,5.2
		c-0.1-0.2-0.4-0.5-0.7-0.6c1.8-1.6,2.3-4.7,2.4-7.1h-1.6v-4.6h5.6v4.6h-3c-0.1,0.5-0.1,1.1-0.2,1.7H226.2z M222.2,266.3v2.9h3.8
		v-2.9H222.2z M228.4,266.5l1.2,0.1c0,0.1-0.1,0.2-0.3,0.2v7.6h-0.9V266.5z M231.9,265.1l1.2,0.1c0,0.1-0.1,0.2-0.3,0.2v11.2
		c0,0.7-0.2,1-0.6,1.1c-0.4,0.2-1.2,0.2-2.5,0.2c-0.1-0.3-0.2-0.7-0.4-1c0.5,0,1,0,1.4,0c1.1,0,1.2,0,1.2-0.4V265.1z"/>
</g>
<g>
	<path class="st6" d="M396,421v-16.5c0-2.8-2.3-4.5-5-4.5H49.5c-2.8,0-5.5,1.8-5.5,4.5V422"/>
</g>
<rect x="202" y="389" class="st2" width="36" height="20"/>
<g>
	<rect x="191.6" y="392.3" class="st3" width="56.8" height="14.3"/>
	<path d="M210.8,393.3c0,0.1-0.1,0.1-0.3,0.1c-0.8,1-2.3,2.4-3.5,3.2c-0.1-0.2-0.4-0.6-0.5-0.8c1.2-0.8,2.6-2,3.3-3L210.8,393.3z
		 M208.7,405.8v-6.2c-0.5,0.6-1.1,1.1-1.6,1.6c-0.1-0.2-0.4-0.6-0.6-0.7c1.3-1.1,2.9-2.9,3.8-4.7l1.1,0.4c0,0.1-0.2,0.1-0.3,0.1
		c-0.4,0.7-0.9,1.4-1.4,2.1l0.3,0.1c0,0.1-0.1,0.2-0.3,0.2v7.1H208.7z M219.5,397.8v0.9h-2.2v5.9c0,1.2-0.4,1.2-3.3,1.2
		c0-0.3-0.2-0.6-0.3-0.9c0.6,0,1.2,0,1.6,0c0.9,0,1,0,1-0.3v-5.9h-4.9v-0.9H219.5z M219,393.7v0.9h-7v-0.9H219z"/>
	<path d="M225.8,400.2c0,0.1-0.1,0.2-0.3,0.2c-0.4,2.5-1.1,4.4-4.3,5.4c-0.1-0.2-0.4-0.6-0.6-0.8c3.1-0.9,3.7-2.6,4-5L225.8,400.2z
		 M229.3,404.2c0,0.4,0.1,0.5,0.7,0.5h1.9c0.5,0,0.6-0.3,0.7-2.2c0.2,0.2,0.6,0.3,0.9,0.4c-0.1,2.1-0.4,2.7-1.5,2.7h-2.1
		c-1.2,0-1.5-0.3-1.5-1.4v-4.3h-7.6V399h5.7v-3h-3c-0.4,0.8-0.8,1.6-1.3,2.2c-0.2-0.1-0.6-0.4-0.8-0.4c1-1.2,1.7-3.1,2.1-4.6
		l1.2,0.3c0,0.1-0.1,0.1-0.3,0.1c-0.1,0.4-0.3,1-0.5,1.5h2.7v-2.3l1.2,0.1c0,0.1-0.1,0.2-0.3,0.2v2h4.7v0.9h-4.7v3h5.8v0.9h-3.9
		V404.2z"/>
</g>
<g>
	<path class="st6" d="M396,78V62.5c0-2.8-2.3-4.5-5-4.5H137c-2.8,0-5,1.8-5,4.5V79"/>
</g>
<rect x="239" y="48" class="st2" width="50" height="20"/>
<g>
	<rect x="243.1" y="50.8" class="st3" width="42.1" height="14.3"/>
	<path d="M248.4,54.2l0.5,0.1l-0.1,0.2c-0.2,2.5-0.6,4.5-1.3,6c0.7,0.5,1.3,1.1,1.7,1.5l-0.6,0.8c-0.4-0.4-0.9-1-1.5-1.5
		c-0.7,1.3-1.7,2.3-2.8,2.9c-0.1-0.2-0.4-0.6-0.6-0.8c1.1-0.6,1.9-1.5,2.6-2.7c-0.5-0.4-1.1-0.8-1.6-1.1l-0.2,0.6l-0.8-0.4
		c0.4-1.2,0.8-3,1.2-4.8h-1.4v-0.9h1.6c0.2-1.1,0.4-2.1,0.6-3l1.1,0.1c0,0.1-0.1,0.2-0.3,0.2c-0.2,0.8-0.3,1.7-0.6,2.6h2.2
		L248.4,54.2z M245.9,55.2c-0.3,1.3-0.6,2.6-0.9,3.8c0.6,0.3,1.2,0.7,1.8,1.1c0.6-1.3,1-2.9,1.2-4.9H245.9z M254.5,53.6
		c0.9,1.1,1.9,2.7,2.2,3.7l-0.8,0.4c-0.1-0.3-0.2-0.6-0.4-1c-2.2,0.2-4.5,0.3-6,0.4c0,0.1-0.1,0.2-0.2,0.2l-0.4-1.1l1.1,0
		c0.6-1.4,1.2-3.5,1.6-5l1.2,0.3c0,0.1-0.2,0.2-0.3,0.2c-0.4,1.3-1,3.1-1.6,4.5l4.1-0.2c-0.4-0.7-0.9-1.4-1.4-2L254.5,53.6z
		 M250,64.3v-5.7h5.9v5.7H255v-0.6h-4.1v0.7H250z M255,59.5h-4.1v3.3h4.1V59.5z"/>
	<path d="M268.7,52.1c0,0.1-0.2,0.1-0.3,0.1c-0.5,0.5-1.3,1.2-2,1.7c0.3,0.4,0.6,0.8,1,1.2c0.7-0.5,1.6-1.3,2.1-1.9l0.9,0.6
		c-0.1,0.1-0.2,0.1-0.3,0.1c-0.5,0.5-1.4,1.2-2.1,1.7c0.8,0.7,1.8,1.3,2.7,1.7c-0.2,0.2-0.5,0.5-0.6,0.8c-0.7-0.3-1.4-0.7-2.1-1.2
		v0.5h-1.8v2.2h3.4v0.9h-3.4v2.4c0,0.4,0.1,0.5,0.6,0.5h1.7c0.5,0,0.5-0.3,0.6-1.8c0.2,0.2,0.6,0.3,0.9,0.4
		c-0.1,1.8-0.3,2.3-1.4,2.3h-1.9c-1.1,0-1.4-0.3-1.4-1.4v-2.4h-2.7c-0.2,1.6-1.1,3-3.9,4c-0.1-0.2-0.4-0.6-0.6-0.7
		c2.5-0.8,3.3-2,3.5-3.2h-3.3v-0.9h3.3v-2.2h-1.6v-0.4c-0.7,0.5-1.4,1-2.1,1.3c-0.1-0.2-0.4-0.5-0.6-0.7c1-0.4,2-1.1,2.9-1.9
		c-0.4-0.5-1.2-1.1-1.8-1.6l0.6-0.5c0.6,0.4,1.3,1,1.8,1.5c0.6-0.6,1.1-1.3,1.4-2.1h-3.7v-0.8h4.2l0.2-0.1c0.4,0.2,0.5,0.3,0.7,0.3
		c0,0.1-0.1,0.1-0.2,0.2c-0.6,1.6-1.7,3-2.9,4h6.9c-1.4-1.2-2.6-2.9-3.3-4.8l0.8-0.3c0.3,0.6,0.6,1.3,0.9,1.8
		c0.6-0.5,1.4-1.2,1.8-1.8L268.7,52.1z M265.3,59.5v-2.2h-2.6v2.2H265.3z"/>
	<path d="M272.7,60.1c-0.1,1.3-0.2,2.7-0.8,3.5l-0.5-0.3c0.5-0.7,0.7-2,0.7-3.3L272.7,60.1z M277.1,58.3l0.4,0.1l0,0.3
		c-0.2,3.6-0.4,4.9-0.7,5.3c-0.3,0.3-0.5,0.4-1.2,0.4c-0.3,0-0.6,0-0.9,0c0-0.2-0.1-0.6-0.2-0.8c0.5,0,1,0.1,1.2,0.1
		c0.4,0,0.6-0.1,0.8-2l-0.5,0.2c-0.1-0.5-0.5-1.3-0.9-1.9l0.5-0.2c0.3,0.5,0.7,1.3,0.8,1.8h0c0.1-0.6,0.1-1.4,0.2-2.3h-3.7v0.4h-0.8
		v-7.6h5.2v0.8h-2.1v1.3h1.8v0.8h-1.8v1.4h1.8V57h-1.8v1.4h1.6L277.1,58.3z M274.5,52.7h-1.5v1.3h1.5V52.7z M274.5,56.2v-1.4h-1.5
		v1.4H274.5z M273.1,57v1.4h1.5V57H273.1z M273.3,62.9c0-0.7-0.1-1.8-0.2-2.6l0.5-0.1c0.2,0.8,0.3,1.9,0.3,2.6L273.3,62.9z
		 M274.7,60c0.3,0.7,0.6,1.7,0.6,2.3l-0.5,0.1c-0.1-0.6-0.3-1.6-0.6-2.3L274.7,60z M284.1,57.6h-2.3c0.4,2.7,1.3,4.9,3,6
		c-0.2,0.2-0.5,0.5-0.6,0.8c-1.8-1.3-2.7-3.7-3.2-6.8h-1.4c0,2.1-0.3,4.9-1.6,6.7c-0.2-0.2-0.5-0.4-0.8-0.5c1.4-1.8,1.5-4.5,1.5-6.6
		v-5.4h5.5V57.6z M283.2,52.8h-3.7v4h3.7V52.8z"/>
</g>
<g>
	<rect x="147.5" y="86.2" class="st3" width="13" height="57.6"/>
	<path d="M148.4,90.3c0.8,0.3,1.9,0.9,2.4,1.3l-0.5,0.7c-0.5-0.4-1.6-1-2.4-1.4L148.4,90.3z M148.3,98c0.7-1,1.6-2.8,2.4-4.3
		l0.7,0.5c-0.6,1.4-1.5,3-2.1,4.1c0.1,0.1,0.1,0.1,0.1,0.2c0,0.1,0,0.1,0,0.1L148.3,98z M149.1,86.8c0.8,0.4,1.9,1,2.4,1.4l-0.5,0.7
		c-0.5-0.5-1.5-1.1-2.4-1.5L149.1,86.8z M156.4,91.2h3.7v0.8h-8.8v-0.8h1.6v-3.5l1.1,0.1c0,0.1-0.1,0.1-0.3,0.2v3.2h1.8v-4.6
		l1.1,0.1c0,0.1-0.1,0.2-0.2,0.2v1.7h3.2v0.8h-3.2V91.2z M151.3,97.9c0.9-0.5,2.3-1.3,3.6-2.1l0.3,0.8c-1.1,0.7-2.4,1.5-3.1,2
		c0,0.1,0,0.2-0.1,0.2L151.3,97.9z M152.7,92.5c0.8,0.6,1.7,1.5,2.1,2.1l-0.7,0.5c-0.4-0.6-1.3-1.5-2-2.1L152.7,92.5z M159.4,98.7
		c-0.7-0.7-2.1-1.8-3.2-2.5l0.6-0.6c1.1,0.7,2.6,1.7,3.3,2.4L159.4,98.7z M156.5,94.7c0.7-0.6,1.7-1.6,2.2-2.3l0.9,0.6
		c-0.1,0.1-0.2,0.1-0.3,0.1c-0.6,0.6-1.5,1.5-2.2,2.1L156.5,94.7z"/>
	<path d="M150.4,138.3c-0.6,0.4-1.2,0.9-1.9,1.2c-0.1-0.2-0.3-0.5-0.5-0.7c2.3-1.2,4.5-3.3,5.5-5.1l1.2,0.1c0,0.1-0.1,0.2-0.3,0.2
		c1.3,1.8,3.6,3.7,5.6,4.7c-0.2,0.2-0.4,0.5-0.6,0.8c-0.6-0.3-1.2-0.7-1.8-1.1v5h-0.9v-0.5h-5.6v0.6h-0.9V138.3z M152.8,132
		c0,0.1-0.2,0.1-0.3,0.1c-0.9,1.2-2.2,2.4-3.4,3.2c-0.2-0.2-0.5-0.4-0.6-0.6c1.2-0.7,2.5-1.9,3.4-3.1L152.8,132z M157.4,138.1
		c-1.4-1-2.7-2.3-3.5-3.5c-0.7,1.1-1.9,2.4-3.3,3.5H157.4z M151.2,142h5.6v-3.1h-5.6V142z M155.9,131.5c1.3,0.9,2.8,2.2,3.6,3.1
		l-0.7,0.5c-0.7-0.9-2.2-2.2-3.5-3.2L155.9,131.5z"/>
</g>
<g>
	<rect x="235.5" y="86.2" class="st3" width="13" height="57.6"/>
	<path d="M240.8,92.6c0,0.1-0.1,0.2-0.3,0.2c-0.3,2.5-0.8,4.8-3.9,6c-0.1-0.2-0.4-0.5-0.5-0.7c2.9-1,3.4-3.1,3.6-5.6L240.8,92.6z
		 M244.1,97.3c0,0.4,0.1,0.5,0.6,0.5h1.8c0.6,0,0.6-0.4,0.7-2.4c0.2,0.2,0.6,0.3,0.8,0.4c-0.1,2.2-0.3,2.8-1.4,2.8h-2
		c-1.1,0-1.4-0.3-1.4-1.4v-5h-7.1v-0.9h11.6v0.9h-3.6l-0.1,0V97.3z M246.7,87.6v0.8h-9.3v-0.8H246.7z"/>
	<path d="M237.7,113.6c-0.5,0.8-1,1.5-1.6,2.2c-0.1-0.2-0.3-0.6-0.5-0.8c1.2-1.4,2.5-3.6,3.3-5.9l1,0.4c-0.1,0.1-0.1,0.1-0.3,0.1
		c-0.3,0.9-0.7,1.8-1.2,2.7l0.4,0.1c0,0.1-0.1,0.1-0.3,0.2v8.6h-0.8V113.6z M244.3,119.7h3.8v0.8h-8.5v-0.8h3.9v-3.5h-3.1v-0.8h3.1
		v-3h-3.5v-0.8h4.7c-0.6-0.6-1.9-1.5-2.8-2.1l0.6-0.6c1,0.6,2.3,1.4,2.9,2l-0.6,0.7h3.3v0.8h-3.6v3h3.2v0.8h-3.2V119.7z"/>
	<path d="M247.9,134h-5.5v2h4.7v0.8h-10V136h4.5v-2h-5.4v-0.8h5.4v-2l1.2,0.1c0,0.1-0.1,0.2-0.3,0.2v1.7h5.5V134z M237.9,143.4v-5.1
		h8.2v5.1h-0.9v-0.6h-6.4v0.6H237.9z M245.2,139.1h-6.4v2.9h6.4V139.1z"/>
</g>
<g>
	<rect x="323.5" y="86.2" class="st3" width="13" height="57.6"/>
	<path d="M332.6,89.7h-0.9v-1.1h-3.7v1.1h-0.7c-0.1,0.2-0.2,0.5-0.4,0.8h7.5l0.5,0c0,0.1,0,0.2,0,0.3c-0.2,5.2-0.4,7-0.8,7.5
		c-0.3,0.4-0.6,0.5-1.4,0.5c-0.3,0-0.7,0-1,0c0-0.2-0.1-0.6-0.2-0.8c0.6,0,1.2,0.1,1.5,0.1c0.2,0,0.3,0,0.5-0.2
		c0.3-0.4,0.5-2,0.7-6.5h-7.5c-0.5,0.9-1.2,1.8-2.1,2.6c-0.1-0.2-0.4-0.4-0.7-0.6c1.4-1.2,2.3-2.8,2.8-4.1l0.6,0.1v-0.6h-3v-0.8h3
		v-1.1l1.1,0.1c0,0.1-0.1,0.2-0.3,0.2v0.9h3.7v-1.1l1.1,0.1c0,0.1-0.1,0.2-0.3,0.2v0.9h3.1v0.8h-3.1V89.7z M329.7,95.1
		c0.6,0.3,2.6,1.5,3,1.8l-0.5,0.7c-0.4-0.4-1.7-1.2-2.5-1.8v2.7h-0.8v-3.1c-0.9,1.2-2.3,2.3-3.5,2.9c-0.1-0.2-0.4-0.5-0.6-0.7
		c1.2-0.5,2.6-1.6,3.5-2.7h-2.9v-0.8h3.5v-2.5l1.1,0.1c0,0.1-0.1,0.2-0.2,0.2v2.2h3.5v0.8h-3.5V95.1z M327.1,94.1
		c-0.1-0.5-0.5-1.3-0.9-1.8l0.7-0.2c0.4,0.5,0.8,1.3,1,1.8L327.1,94.1z M332.7,92.3c0,0.1-0.1,0.1-0.3,0.1c-0.3,0.5-0.7,1.2-1.1,1.7
		c-0.1-0.1-0.5-0.2-0.6-0.3c0.4-0.5,0.8-1.3,1.1-1.9L332.7,92.3z"/>
	<path d="M335.1,137.8v5.6h-0.9v-0.5h-5.6v0.5h-0.9v-4.3c-1.1,0.7-2.2,1.2-3.4,1.5c-0.1-0.2-0.3-0.6-0.5-0.8c1.7-0.5,3.4-1.4,5-2.6
		c-0.5-0.6-1.4-1.3-2.1-1.8l0.6-0.5c0.7,0.5,1.6,1.2,2.1,1.8c1-0.9,1.9-2,2.5-3.3h-4.1c-0.9,1-2,2-3.3,2.8c-0.1-0.2-0.4-0.5-0.6-0.7
		c2.1-1.2,3.6-2.9,4.4-4.3l1.2,0.2c0,0.1-0.1,0.2-0.3,0.2c-0.2,0.3-0.4,0.7-0.7,1h4l0.2-0.1l0.6,0.3c0,0.1-0.1,0.1-0.2,0.1
		c-0.8,1.9-2.1,3.5-3.7,4.8H335.1z M328.6,142h5.6v-3.4h-5.6V142z"/>
</g>
<g>
	<rect x="147.5" y="179.2" class="st3" width="13" height="57.6"/>
	<path d="M152.5,186.9v3c0.9-0.2,1.8-0.3,2.7-0.5l0.1,0.8c-2.5,0.5-5.2,1-6.8,1.3c0,0.1-0.1,0.2-0.2,0.2l-0.4-1l1.2-0.2v-5.2
		l1.1,0.1c0,0.1-0.1,0.2-0.3,0.2v4.9l1.7-0.3v-6.2l1.1,0.1c0,0.1-0.1,0.1-0.3,0.2v2h2.3v0.8H152.5z M159.9,183.7h-3.5
		c0.3,4,1.1,7.2,2.4,7.2c0.4,0,0.5-0.8,0.6-2.5c0.2,0.2,0.5,0.4,0.7,0.5c-0.2,2.3-0.5,2.9-1.4,2.9c-2,0-2.9-3.6-3.2-8h-7.3v-0.8h7.3
		c-0.1-1-0.1-2.1-0.1-3.2l1.2,0.1c0,0.1-0.1,0.2-0.3,0.2c0,1,0,2,0.1,2.9h3.5V183.7z M154.3,180.5v0.8h-5v-0.8H154.3z M157.5,179.9
		c0.8,0.6,1.7,1.4,2.2,2l-0.7,0.5c-0.4-0.6-1.3-1.4-2.1-2L157.5,179.9z"/>
	<path d="M156.4,198.8c0.1,1.6,0.3,2.9,0.6,4c0.5-0.9,0.9-2,1.2-3.2l1.1,0.3c0,0.1-0.1,0.1-0.3,0.1c-0.4,1.4-0.9,2.7-1.7,3.9
		c0.5,1.3,1,1.9,1.5,1.9c0.3,0,0.4-0.3,0.5-1.7c0.2,0.2,0.5,0.4,0.7,0.4c-0.2,1.8-0.5,2.1-1.3,2.1c-0.8,0-1.5-0.7-2-2
		c-0.6,0.8-1.4,1.5-2.3,2c-0.1-0.2-0.4-0.4-0.6-0.6c0.4-0.2,0.7-0.4,1-0.7h-3.6v0.7h-0.7v-6.5h4.7v0.6h-1.8v1h1.8v2.4h-1.8v1h1.9
		v0.2c0.4-0.4,0.7-0.8,1.1-1.2c-0.4-1.3-0.7-2.9-0.8-4.9h-5.7v2.5c0,1.6-0.2,3.8-1.3,5.3c-0.1-0.1-0.5-0.4-0.7-0.5
		c1.1-1.4,1.2-3.4,1.2-4.9V198h6.5c0-0.4,0-0.8-0.1-1.2l0.3,0v-0.6h-3.6v0.9h-0.9v-0.9h-3.1v-0.8h3.1v-1l1.1,0.1
		c0,0.1-0.1,0.2-0.3,0.2v0.8h3.6v-1l1.1,0.1c0,0.1-0.1,0.2-0.3,0.2v0.8h3.2v0.8h-3.2v0.8h-0.3c0,0.3,0,0.6,0,0.9h2.4
		c-0.3-0.4-0.9-0.8-1.4-1.1l0.5-0.4c0.5,0.3,1.2,0.8,1.5,1.1l-0.5,0.4h1v0.8H156.4z M152.8,200.2h-1.5v1h1.5V200.2z M154.5,203v-1.2
		h-3.3v1.2H154.5z M151.3,203.7v1h1.5v-1H151.3z"/>
	<path d="M151.3,212.9c0,0.1-0.1,0.2-0.3,0.2c-0.4,1.7-1.2,4.1-2.4,5.5c-0.2-0.1-0.6-0.4-0.8-0.5c1.2-1.4,1.9-3.7,2.3-5.5
		L151.3,212.9z M153.6,209.6l1.2,0.1c0,0.1-0.1,0.2-0.3,0.2v10.4c0,0.7-0.2,0.9-0.6,1.1c-0.5,0.1-1.3,0.2-2.5,0.2
		c-0.1-0.3-0.2-0.7-0.4-0.9c0.6,0,1.1,0,1.6,0c0.9,0,1,0,1-0.4V209.6z M159.3,218.8c-0.3-1.6-1.4-4-2.5-5.9l0.8-0.3
		c1.2,1.9,2.3,4.3,2.6,5.9L159.3,218.8z"/>
	<path d="M151.3,229.2c0.5,0.4,1.8,1.8,2.1,2.2l-0.6,0.7c-0.3-0.4-1-1.3-1.5-1.9v6.1h-0.8v-6.7c-0.6,1.6-1.4,3.3-2.2,4.2
		c-0.1-0.2-0.3-0.6-0.5-0.8c1-1.1,2-3.2,2.5-5.1h-2.2v-0.8h2.4v-2.9l1.1,0.1c0,0.1-0.1,0.2-0.3,0.2v2.6h2.1v0.8h-2.1V229.2z
		 M160.2,231.9c-0.1,0.1-0.1,0.1-0.3,0.1c-1.3,1.8-3.6,3.4-6.2,4.3c-0.1-0.2-0.4-0.5-0.6-0.7c2.5-0.8,4.8-2.3,6-4.1L160.2,231.9z
		 M159.1,224.8c0,0.1-0.1,0.1-0.3,0.1c-1.1,1.2-2.9,2.5-4.5,3.4c-0.2-0.2-0.4-0.5-0.6-0.6c1.6-0.7,3.4-2,4.4-3.3L159.1,224.8z
		 M159.6,228.3c0,0.1-0.1,0.1-0.3,0.1c-1.1,1.4-3,2.8-4.9,3.7c-0.1-0.2-0.4-0.5-0.6-0.7c1.8-0.8,3.7-2.1,4.7-3.5L159.6,228.3z"/>
</g>
<g>
	<rect x="147.5" y="428.2" class="st3" width="13" height="57.6"/>
	<path d="M152.8,434.6c0,0.1-0.1,0.2-0.3,0.2c-0.3,2.5-0.8,4.8-3.9,6c-0.1-0.2-0.4-0.5-0.5-0.7c2.9-1,3.4-3.1,3.6-5.6L152.8,434.6z
		 M156.1,439.3c0,0.4,0.1,0.5,0.6,0.5h1.8c0.6,0,0.6-0.4,0.7-2.4c0.2,0.2,0.6,0.3,0.8,0.4c-0.1,2.2-0.3,2.8-1.4,2.8h-2
		c-1.1,0-1.4-0.3-1.4-1.4v-5h-7.1v-0.9h11.6v0.9h-3.6l-0.1,0V439.3z M158.7,429.6v0.8h-9.3v-0.8H158.7z"/>
	<path d="M149.7,455.6c-0.5,0.8-1,1.5-1.6,2.2c-0.1-0.2-0.3-0.6-0.5-0.8c1.2-1.4,2.5-3.6,3.3-5.9l1,0.4c-0.1,0.1-0.1,0.1-0.3,0.1
		c-0.3,0.9-0.7,1.8-1.2,2.7l0.4,0.1c0,0.1-0.1,0.1-0.3,0.2v8.6h-0.8V455.6z M156.3,461.7h3.8v0.8h-8.5v-0.8h3.9v-3.5h-3.1v-0.8h3.1
		v-3h-3.5v-0.8h4.7c-0.6-0.6-1.9-1.5-2.8-2.1l0.6-0.6c1,0.6,2.3,1.4,2.9,2l-0.6,0.7h3.3v0.8h-3.6v3h3.2v0.8h-3.2V461.7z"/>
	<path d="M159.9,476h-5.5v2h4.7v0.8h-10V478h4.5v-2h-5.4v-0.8h5.4v-2l1.2,0.1c0,0.1-0.1,0.2-0.3,0.2v1.7h5.5V476z M149.9,485.4v-5.1
		h8.2v5.1h-0.9v-0.6h-6.4v0.6H149.9z M157.2,481.1h-6.4v2.9h6.4V481.1z"/>
</g>
<g>
	<rect x="367.5" y="800.2" class="st3" width="13" height="57.6"/>
	<path class="st8" d="M375.6,801c0,0.1-0.1,0.1-0.3,0.1c-0.1,0.3-0.2,0.7-0.3,1h5v0.8h-5.3c-0.4,0.8-0.8,1.6-1.2,2.2
		c-0.1-0.2-0.4-0.4-0.6-0.5v3.8h-1.6v2.3h1.9v0.8h-3.9v0.8h-0.8v-10.8h4.7v0.8h-1.9v2h1.6v0.2c0.7-0.9,1.3-2.4,1.7-3.8L375.6,801z
		 M370.4,802.2h-1.2v2h1.2V802.2z M372.1,807.6v-2.5h-2.9v2.5H372.1z M370.4,810.6v-2.3h-1.2v2.3H370.4z M373.4,812.7v-4.6h2.7v4.4
		h-0.7V812h-1.3v0.7H373.4z M375.4,808.9h-1.3v2.4h1.3V808.9z M378.8,804v3.2h-4.5V804H378.8z M378,806.4v-1.7h-2.9v1.7H378z
		 M376.9,812.7v-4.6h2.8v4.4H379V812h-1.4v0.7H376.9z M379,808.9h-1.4v2.4h1.4V808.9z"/>
	<path class="st8" d="M372.1,846.1v8.6h-2.9v1.1h-0.8v-9.7H372.1z M371.3,846.9h-2v3.1h2V846.9z M369.3,853.9h2v-3.1h-2V853.9z
		 M376.6,849.5h3.4v0.8h-7.7v-0.8h3.4v-1.8h-2.8v-0.8h2.8v-1.6l1.1,0.1c0,0.1-0.1,0.2-0.3,0.2v1.4h2.9v0.8h-2.9V849.5z M378.7,850.6
		c0,0.1-0.1,0.2-0.2,0.2v1.1h1.6v0.8h-1.6v3.6c0,0.5-0.1,0.8-0.5,0.9c-0.4,0.1-1.1,0.1-2.1,0.1c0-0.2-0.2-0.6-0.3-0.8
		c0.5,0,1,0,1.3,0c0.7,0,0.8,0,0.8-0.3v-3.6h-5.2v-0.8h5.2v-1.4L378.7,850.6z M375,856c-0.3-0.6-1-1.6-1.7-2.3l0.7-0.4
		c0.7,0.7,1.4,1.6,1.8,2.3L375,856z"/>
</g>
<g>
	<rect x="235.4" y="299.2" class="st3" width="13" height="57.6"/>
	<path class="st9" d="M236.5,300.5h10.8v11.2h-0.9v-0.9h-9v0.9h-0.9V300.5z M237.4,309.9h9v-8.6h-9V309.9z M239.4,303.4h4.9v4.4
		h-4.9V303.4z M243.4,307.1v-2.9h-3.3v2.9H243.4z"/>
	<path class="st9" d="M238.6,349.5v4.3c1,1.5,2.9,1.5,5.2,1.5c1.4,0,3.1,0,4.1-0.1c-0.1,0.2-0.3,0.6-0.3,0.9c-0.9,0-2.3,0.1-3.6,0.1
		c-2.7,0-4.5,0-5.8-1.6c-0.6,0.6-1.3,1.2-1.9,1.6c0,0.1,0,0.2-0.1,0.2l-0.5-1c0.6-0.4,1.4-1,2.1-1.6v-3.5h-1.9v-0.8H238.6z
		 M236.7,344.6c0.9,0.6,1.9,1.4,2.3,2.1l-0.7,0.6c-0.4-0.6-1.4-1.5-2.3-2.1L236.7,344.6z M247.7,350.4h-3.5c0.5,1.7,1.7,2.9,3.5,3.4
		c-0.2,0.2-0.4,0.5-0.6,0.7c-1.8-0.6-2.9-1.8-3.5-3.6c-0.4,1.2-1.3,2.5-3.5,3.5c-0.1-0.2-0.4-0.5-0.6-0.7c2.4-1,3.1-2.3,3.4-3.4
		h-3.5v-0.8h3.6c0-0.2,0-0.3,0-0.5v-1.5h-3.2v-0.8h5.2l-0.7-0.3c0.4-0.6,1-1.6,1.3-2.2l1,0.4c0,0.1-0.1,0.1-0.3,0.1
		c-0.3,0.6-0.9,1.5-1.4,2h2.3v0.8h-3.4v1.5c0,0.1,0,0.3,0,0.5h3.8V350.4z M241.6,346.8c-0.2-0.6-0.7-1.5-1.2-2.2l0.7-0.3
		c0.5,0.7,1.1,1.5,1.2,2.1L241.6,346.8z"/>
</g>
<g>
	<rect x="192.2" y="299.2" class="st3" width="13" height="57.6"/>
	<path class="st9" d="M192.6,302.6v-0.7h4.6v0.7H192.6z M196.9,307.2v3.8h-3v0.6h-0.8v-4.4H196.9z M196.9,303.6v0.7h-3.7v-0.7H196.9
		z M193.2,306.1v-0.7h3.7v0.7H193.2z M196.8,300.1v0.7h-3.6v-0.7H196.8z M196.1,307.9h-2.2v2.3h2.2V307.9z M199.9,309.5l1.7-0.4
		l0.1,0.7c-1.4,0.3-2.8,0.7-3.7,0.9c0,0.1-0.1,0.2-0.2,0.2l-0.4-0.9c0.5-0.1,1.1-0.2,1.7-0.4v-3.9h-1.4V305h3.6v0.8h-1.4V309.5z
		 M204.6,303.1h-2.1c0.1,4.1,0.4,7.5,1.3,7.7h0c0.2,0,0.4-0.8,0.4-1.9c0.2,0.2,0.4,0.4,0.6,0.5c-0.2,1.6-0.5,2.3-1.1,2.3
		c-0.1,0-0.2,0-0.3-0.1c-1.4-0.4-1.7-4.1-1.8-8.6h-4.2v-0.8h4.2l0-2.6l1.2,0.1c0,0.1-0.1,0.2-0.3,0.2c0,0.8,0,1.6,0,2.4h2.1V303.1z
		 M203.3,299.7c0.5,0.5,1.1,1.2,1.4,1.7l-0.6,0.4c-0.3-0.5-0.8-1.2-1.4-1.8L203.3,299.7z"/>
	<path class="st9" d="M195.2,327.2v4.3c1,1.5,2.9,1.5,5.4,1.5c1.4,0,3.1,0,4.1-0.1c-0.1,0.2-0.2,0.6-0.3,0.9c-0.9,0-2.3,0.1-3.6,0.1
		c-2.9,0-4.7,0-5.9-1.6c-0.6,0.6-1.2,1.2-1.7,1.6c0,0.1,0,0.2-0.1,0.2l-0.5-0.9c0.6-0.4,1.2-1,1.8-1.5V328h-1.7v-0.8H195.2z
		 M193.5,322.3c0.8,0.6,1.7,1.5,2.1,2.2l-0.7,0.5c-0.4-0.7-1.3-1.6-2.1-2.2L193.5,322.3z M199.7,332.6v-1.4h-3.9v-0.7h3.9v-0.9h-2.9
		V326h2.9v-0.9h-3.4v-0.7h3.4v-1l1.1,0.1c0,0.1-0.1,0.2-0.3,0.2v0.8h3.4v0.7h-3.4v0.9h2.9v3.7h-2.9v0.9h3.9v0.7h-3.9v1.4H199.7z
		 M196.9,323.1v1h-0.8v-1.7h8.1v1.7h-0.8v-1H196.9z M197.6,326.6v0.9h2.1v-0.9H197.6z M197.6,329.1h2.1v-0.9h-2.1V329.1z
		 M202.7,326.6h-2.1v0.9h2.1V326.6z M202.7,329.1v-0.9h-2.1v0.9H202.7z"/>
	<path class="st9" d="M198.6,354H196v2.3h-0.8V354h-2.6v-0.8h2.6v-1.1h-2.1v-4.6h2.1v-1h-2.4v-0.8h2.4v-1.5l1.1,0.1
		c0,0.1-0.1,0.2-0.2,0.2v1.2h2.4v0.8H196v1h2.2v4.6H196v1.1h2.6V354z M193.8,348.2v1.3h1.4v-1.3H193.8z M193.8,350.1v1.3h1.4v-1.3
		H193.8z M197.5,349.5v-1.3H196v1.3H197.5z M197.5,351.4v-1.3H196v1.3H197.5z M203,351.9c0.8,1.3,1.5,3,1.8,4.1l-0.8,0.3
		c-0.1-0.3-0.2-0.6-0.3-0.9c-1.9,0.2-3.7,0.4-5,0.5c0,0.1-0.1,0.2-0.2,0.2l-0.3-1c0.3,0,0.7,0,1.1-0.1c0.4-1.3,0.8-3.3,1.1-4.8h-1.9
		v-0.8h6.2v0.8h-3.4c-0.3,1.4-0.7,3.3-1.2,4.7c1-0.1,2.2-0.2,3.3-0.2c-0.3-0.8-0.8-1.7-1.2-2.5L203,351.9z M204.2,345.2v0.8h-5.1
		v-0.8H204.2z"/>
</g>
<g>
	<rect x="147.5" y="299.2" class="st3" width="13" height="57.6"/>
	<path class="st1" d="M149.3,302.3c0,1.1-0.2,2.6-0.7,3.4l-0.7-0.4c0.4-0.8,0.7-2.1,0.7-3.2L149.3,302.3z M149.9,299.7l1.1,0.1
		c0,0.1-0.1,0.2-0.3,0.2v11.8h-0.9V299.7z M151.6,301.7c0.4,0.7,0.9,1.5,1.1,2.1l-0.6,0.4c-0.2-0.6-0.7-1.5-1.1-2.1L151.6,301.7z
		 M160.1,306.6h-3.7c0.7,2,2,3.7,3.9,4.4c-0.2,0.2-0.5,0.5-0.6,0.8c-1.9-0.8-3.2-2.5-4-4.7c-0.4,1.7-1.4,3.4-3.5,4.7
		c-0.1-0.2-0.4-0.5-0.6-0.6c2.2-1.3,3-2.9,3.4-4.5h-3v-0.8h3.1c0.1-0.7,0.1-1.5,0.1-2.1v-1h-2.4v-0.8h2.4v-2.2l1.1,0.1
		c0,0.1-0.1,0.2-0.3,0.2v1.9h2.9v3.9h1.2V306.6z M156,302.6v1c0,0.7,0,1.4-0.1,2.1h2.1v-3.1H156z"/>
	<path class="st1" d="M150.8,349.5v4.3c1,1.5,2.9,1.5,5.2,1.5c1.4,0,3.1,0,4.1-0.1c-0.1,0.2-0.3,0.6-0.3,0.9c-0.9,0-2.3,0.1-3.6,0.1
		c-2.7,0-4.5,0-5.8-1.6c-0.6,0.6-1.3,1.2-1.9,1.6c0,0.1,0,0.2-0.1,0.2l-0.5-1c0.6-0.4,1.4-1,2.1-1.6v-3.5H148v-0.8H150.8z
		 M148.9,344.6c0.9,0.6,1.9,1.4,2.3,2.1l-0.7,0.6c-0.4-0.6-1.4-1.5-2.3-2.1L148.9,344.6z M155.2,354.7v-3.4
		c-0.8,1.2-2.1,2.3-3.2,2.9c-0.1-0.2-0.4-0.5-0.6-0.7c1.2-0.5,2.5-1.6,3.3-2.8h-2.4v-3.2h2.9v-1.1h-3.6v-0.8h3.6v-1.5l1.1,0.1
		c0,0.1-0.1,0.2-0.2,0.2v1.3h3.9v0.8H156v1.1h3v3.2h-2.5c0.8,1.1,2.2,2.2,3.4,2.7c-0.2,0.2-0.5,0.5-0.6,0.7
		c-1.1-0.6-2.4-1.8-3.3-2.9v3.4H155.2z M153.1,348.4v1.8h2.1v-1.8H153.1z M158.2,348.4H156v1.8h2.2V348.4z"/>
</g>
<g>
	<rect x="103.5" y="299.2" class="st3" width="13" height="57.6"/>
	<path class="st9" d="M105.7,303.6v-0.2c-0.3,0.3-0.7,0.6-1.1,0.8c-0.1-0.2-0.4-0.5-0.6-0.6c1.7-1.1,3-2.6,3.6-3.9l1.1,0.2
		c0,0.1-0.1,0.2-0.3,0.2c-0.1,0.2-0.3,0.5-0.4,0.7h3.8l0.1-0.1l0.7,0.4c0,0.1-0.1,0.1-0.2,0.1c-0.3,0.5-0.7,1.1-1.1,1.6h2.9v4.6h-5
		c0.8,0.3,1.6,0.8,2.1,1.2l-0.6,0.6c-0.5-0.5-1.5-1.1-2.4-1.4l0.4-0.4h-3.3v-0.8h7.9v-1.2h-7.5v-0.7h7.5v-1.2H105.7z M106.6,308.5
		c-0.3,1.1-0.9,2.1-1.9,2.7l-0.7-0.5c0.9-0.6,1.5-1.5,1.8-2.5L106.6,308.5z M110.3,302.8c0.3-0.4,0.7-0.9,0.9-1.4h-3.8
		c-0.3,0.5-0.7,0.9-1.2,1.4H110.3z M108.3,310.4c0,0.3,0.1,0.4,0.8,0.4h2.3c0.6,0,0.7-0.2,0.7-1.5c0.2,0.1,0.5,0.3,0.8,0.3
		c-0.1,1.6-0.4,2-1.4,2H109c-1.3,0-1.6-0.2-1.6-1.1v-2l1.1,0.1c0,0.1-0.1,0.2-0.2,0.2V310.4z M115.3,311.3c-0.4-0.8-1.5-1.9-2.4-2.7
		l0.7-0.4c0.9,0.8,2,1.9,2.5,2.7L115.3,311.3z"/>
	<path class="st9" d="M107.9,344.7c0,0.1-0.1,0.1-0.3,0.1c-0.8,0.9-2.1,2.2-3.3,3c-0.1-0.2-0.4-0.5-0.5-0.7c1.1-0.7,2.4-1.9,3-2.8
		L107.9,344.7z M106,356.3v-5.7c-0.5,0.5-1,1.1-1.5,1.5c-0.1-0.2-0.4-0.5-0.6-0.7c1.2-1,2.7-2.7,3.6-4.4l1,0.4
		c0,0.1-0.1,0.1-0.3,0.1c-0.4,0.6-0.8,1.3-1.3,1.9l0.2,0.1c0,0.1-0.1,0.1-0.3,0.2v6.6H106z M116,348.9v0.8h-2.1v5.5
		c0,1.1-0.4,1.1-3,1.1c0-0.2-0.2-0.6-0.3-0.9c0.6,0,1.1,0,1.5,0c0.8,0,0.9,0,0.9-0.3v-5.5h-4.5v-0.8H116z M115.5,345.1v0.8H109v-0.8
		H115.5z"/>
</g>
<g>
	<rect x="191.5" y="428.2" class="st3" width="13" height="57.6"/>
	<path d="M193.8,429.5h8.4v10.9h-0.9v-0.8h-6.6v0.9h-0.9V429.5z M201.4,430.4h-6.6v3.7h6.6V430.4z M194.7,438.8h6.6V435h-6.6V438.8z
		"/>
	<path d="M203.9,476h-5.5v2h4.7v0.8h-10V478h4.5v-2h-5.4v-0.8h5.4v-2l1.2,0.1c0,0.1-0.1,0.2-0.3,0.2v1.7h5.5V476z M193.9,485.4v-5.1
		h8.2v5.1h-0.9v-0.6h-6.4v0.6H193.9z M201.2,481.1h-6.4v2.9h6.4V481.1z"/>
</g>
<g>
	<rect x="191.5" y="178.4" class="st3" width="13" height="57.6"/>
	<path d="M194.8,183.6c0.4,0.5,1.4,1.9,1.6,2.3l-0.5,0.7c-0.2-0.4-0.7-1.3-1.1-2v6.3H194v-6.3c-0.5,1.5-1.1,3-1.7,3.8
		c-0.1-0.2-0.3-0.6-0.5-0.8c0.8-1.1,1.7-3.3,2.1-5.1h-1.8v-0.8h1.9v-2.9l1.1,0.1c0,0.1-0.1,0.1-0.2,0.2v2.6h1.6v0.6h1.8v-1.4h-1.5
		v-0.7h1.5v-1.2l1.1,0.1c0,0.1-0.1,0.2-0.2,0.2v1h2.2v-1.2l1.1,0.1c0,0.1-0.1,0.2-0.2,0.2v1h1.7v0.7h-1.7v1.4h2v0.8h-3.5v1h3v4.4
		h-6.7V184h2.9v-1h-3.6v-0.5h-1.4V183.6z M199.5,189.3c-0.1,0-0.1,0.1-0.2,0.1c-0.6,0.5-1.7,1.2-2.6,1.6c-0.1-0.2-0.4-0.4-0.6-0.6
		c0.9-0.4,2-1,2.6-1.6L199.5,189.3z M197.7,184.7v1.2h2.1v-1.2H197.7z M197.7,186.6v1.2h2.1v-1.2H197.7z M199.1,180.8v1.4h2.2v-1.4
		H199.1z M202.8,184.7h-2.2v1.2h2.2V184.7z M202.8,187.8v-1.2h-2.2v1.2H202.8z M203.5,191c-0.5-0.5-1.7-1.2-2.5-1.7l0.6-0.5
		c0.8,0.5,2,1.1,2.5,1.6L203.5,191z"/>
	<path d="M192.4,227.1c0.9,0.3,1.9,0.9,2.4,1.4l-0.5,0.7c-0.5-0.5-1.6-1.1-2.4-1.4L192.4,227.1z M192.2,234.8c0.6-1,1.6-2.8,2.2-4.3
		l0.7,0.5c-0.6,1.4-1.4,3.1-2,4.1c0.1,0.1,0.1,0.1,0.1,0.2c0,0.1,0,0.1-0.1,0.2L192.2,234.8z M193.1,223.6c0.8,0.4,1.9,1,2.4,1.5
		l-0.5,0.7c-0.5-0.5-1.5-1.1-2.4-1.5L193.1,223.6z M198.7,233c0,0.1-0.1,0.1-0.3,0.1c-0.8,0.9-1.9,1.9-2.9,2.5
		c-0.2-0.2-0.5-0.4-0.7-0.6c1-0.6,2.1-1.5,2.8-2.5L198.7,233z M196.5,231.2v-6.6l0.8,0.2c1.8-0.3,3.9-0.8,5-1.2l0.8,0.7
		c0,0-0.1,0.1-0.1,0.1c0,0-0.1,0-0.1,0c-1.4,0.4-3.5,0.9-5.5,1.2v1.7h6.4v0.8h-1.9v3.1h2.2v0.8h-9v-0.8H196.5z M201.1,228.1h-3.7
		v3.1h3.7V228.1z M203.4,235.6c-0.6-0.7-1.8-1.8-2.8-2.6l0.7-0.4c1,0.7,2.2,1.8,2.8,2.5L203.4,235.6z"/>
</g>
<g>
	<rect x="279.5" y="86.4" class="st3" width="13" height="57.6"/>
	<path d="M281.8,87.7h8.4v10.9h-0.9v-0.8h-6.6v0.9h-0.9V87.7z M289.4,88.6h-6.6v3.7h6.6V88.6z M282.7,97h6.6v-3.8h-6.6V97z"/>
	<path d="M291.9,134.2h-5.5v2h4.7v0.8h-10v-0.8h4.5v-2h-5.4v-0.8h5.4v-2l1.2,0.1c0,0.1-0.1,0.2-0.3,0.2v1.7h5.5V134.2z M281.9,143.6
		v-5.1h8.2v5.1h-0.9V143h-6.4v0.6H281.9z M289.2,139.3h-6.4v2.9h6.4V139.3z"/>
</g>
<g>
	<rect x="235.5" y="428.2" class="st3" width="13" height="57.6"/>
	<path d="M244.6,431.7h-0.9v-1.1h-3.7v1.1h-0.7c-0.1,0.2-0.2,0.5-0.4,0.8h7.5l0.5,0c0,0.1,0,0.2,0,0.3c-0.2,5.2-0.4,7-0.8,7.5
		c-0.3,0.4-0.6,0.5-1.4,0.5c-0.3,0-0.7,0-1,0c0-0.2-0.1-0.6-0.2-0.8c0.6,0,1.2,0.1,1.5,0.1c0.2,0,0.3,0,0.5-0.2
		c0.3-0.4,0.5-2,0.7-6.5h-7.5c-0.5,0.9-1.2,1.8-2.1,2.6c-0.1-0.2-0.4-0.4-0.7-0.6c1.4-1.2,2.3-2.8,2.8-4.1l0.6,0.1v-0.6h-3v-0.8h3
		v-1.1l1.1,0.1c0,0.1-0.1,0.2-0.3,0.2v0.9h3.7v-1.1l1.1,0.1c0,0.1-0.1,0.2-0.3,0.2v0.9h3.1v0.8h-3.1V431.7z M241.7,437.1
		c0.6,0.3,2.6,1.5,3,1.8l-0.5,0.7c-0.4-0.4-1.7-1.2-2.5-1.8v2.7h-0.8v-3.1c-0.9,1.2-2.3,2.3-3.5,2.9c-0.1-0.2-0.4-0.5-0.6-0.7
		c1.2-0.5,2.6-1.6,3.5-2.7h-2.9v-0.8h3.5v-2.5l1.1,0.1c0,0.1-0.1,0.2-0.2,0.2v2.2h3.5v0.8h-3.5V437.1z M239.1,436.1
		c-0.1-0.5-0.5-1.3-0.9-1.8l0.7-0.2c0.4,0.5,0.8,1.3,1,1.8L239.1,436.1z M244.7,434.3c0,0.1-0.1,0.1-0.3,0.1
		c-0.3,0.5-0.7,1.2-1.1,1.7c-0.1-0.1-0.5-0.2-0.6-0.3c0.4-0.5,0.8-1.3,1.1-1.9L244.7,434.3z"/>
	<path d="M247.1,479.8v5.6h-0.9v-0.5h-5.6v0.5h-0.9v-4.3c-1.1,0.7-2.2,1.2-3.4,1.5c-0.1-0.2-0.3-0.6-0.5-0.8c1.7-0.5,3.4-1.4,5-2.6
		c-0.5-0.6-1.4-1.3-2.1-1.8l0.7-0.5c0.7,0.5,1.6,1.2,2.1,1.8c1-0.9,1.9-2,2.5-3.3h-4.1c-0.9,1-2,2-3.3,2.8c-0.1-0.2-0.4-0.5-0.6-0.7
		c2.1-1.2,3.6-2.9,4.4-4.3l1.2,0.2c0,0.1-0.1,0.2-0.3,0.2c-0.2,0.3-0.4,0.7-0.7,1h4l0.2-0.1l0.6,0.3c0,0.1-0.1,0.1-0.2,0.1
		c-0.8,1.9-2.1,3.5-3.7,4.8H247.1z M240.6,484h5.6v-3.4h-5.6V484z"/>
</g>
<g>
	<rect x="59.5" y="428.2" class="st3" width="13" height="57.6"/>
	<path d="M60.4,432.3c0.8,0.3,1.9,0.9,2.4,1.3l-0.5,0.7c-0.5-0.4-1.6-1-2.4-1.4L60.4,432.3z M60.3,440c0.7-1,1.6-2.8,2.4-4.3
		l0.7,0.5c-0.6,1.4-1.5,3-2.1,4.1c0.1,0.1,0.1,0.1,0.1,0.2c0,0.1,0,0.1,0,0.1L60.3,440z M61.1,428.8c0.8,0.4,1.9,1,2.4,1.4l-0.5,0.7
		c-0.5-0.5-1.5-1.1-2.4-1.5L61.1,428.8z M68.4,433.2H72v0.8h-8.8v-0.8h1.6v-3.5l1.1,0.1c0,0.1-0.1,0.1-0.3,0.2v3.2h1.8v-4.6l1.1,0.1
		c0,0.1-0.1,0.2-0.2,0.2v1.7h3.2v0.8h-3.2V433.2z M63.3,439.9c0.9-0.5,2.3-1.3,3.6-2.1l0.3,0.8c-1.1,0.7-2.4,1.5-3.1,2
		c0,0.1,0,0.2-0.1,0.2L63.3,439.9z M64.7,434.5c0.8,0.6,1.7,1.5,2.1,2.1l-0.7,0.5c-0.4-0.6-1.3-1.5-2-2.1L64.7,434.5z M71.4,440.7
		c-0.7-0.7-2.1-1.8-3.2-2.5l0.6-0.6c1.1,0.7,2.6,1.7,3.3,2.4L71.4,440.7z M68.5,436.7c0.7-0.6,1.7-1.6,2.2-2.3l0.9,0.6
		c-0.1,0.1-0.2,0.1-0.3,0.1c-0.6,0.6-1.5,1.5-2.2,2.1L68.5,436.7z"/>
	<path d="M62.4,480.3c-0.6,0.4-1.2,0.9-1.9,1.2c-0.1-0.2-0.3-0.5-0.5-0.7c2.3-1.2,4.5-3.3,5.5-5.1l1.2,0.1c0,0.1-0.1,0.2-0.3,0.2
		c1.3,1.8,3.6,3.7,5.6,4.7c-0.2,0.2-0.4,0.5-0.6,0.8c-0.6-0.3-1.2-0.7-1.8-1.1v5h-0.9v-0.5h-5.6v0.6h-0.9V480.3z M64.8,474
		c0,0.1-0.2,0.1-0.3,0.1c-0.9,1.2-2.2,2.4-3.4,3.2c-0.2-0.2-0.5-0.4-0.6-0.6c1.2-0.7,2.5-1.9,3.4-3.1L64.8,474z M69.4,480.1
		c-1.4-1-2.7-2.3-3.5-3.5c-0.7,1.1-1.9,2.4-3.3,3.5H69.4z M63.2,484h5.6v-3.1h-5.6V484z M67.9,473.5c1.3,0.9,2.8,2.2,3.6,3.1
		l-0.7,0.5c-0.7-0.9-2.2-2.2-3.5-3.2L67.9,473.5z"/>
</g>
<g>
	<rect x="59.5" y="614.6" class="st3" width="13" height="57.6"/>
	<path d="M64.5,622.3v3c0.9-0.2,1.8-0.3,2.7-0.5l0.1,0.8c-2.5,0.5-5.2,1-6.8,1.3c0,0.1-0.1,0.2-0.2,0.2l-0.4-1l1.2-0.2v-5.2l1.1,0.1
		c0,0.1-0.1,0.2-0.3,0.2v4.9l1.7-0.3v-6.2l1.1,0.1c0,0.1-0.1,0.1-0.3,0.2v2h2.3v0.8H64.5z M71.9,619.1h-3.5c0.3,4,1.1,7.2,2.4,7.2
		c0.4,0,0.5-0.8,0.6-2.5c0.2,0.2,0.5,0.4,0.7,0.5c-0.2,2.3-0.5,2.9-1.4,2.9c-2,0-2.9-3.6-3.2-8h-7.3v-0.8h7.3
		c-0.1-1-0.1-2.1-0.1-3.2l1.2,0.1c0,0.1-0.1,0.2-0.3,0.2c0,1,0,2,0.1,2.9h3.5V619.1z M66.3,615.9v0.8h-5v-0.8H66.3z M69.5,615.3
		c0.8,0.6,1.7,1.4,2.2,2l-0.7,0.5c-0.4-0.6-1.3-1.4-2.1-2L69.5,615.3z"/>
	<path d="M68.4,634.2c0.1,1.6,0.3,2.9,0.6,4c0.5-0.9,0.9-2,1.2-3.2l1.1,0.3c0,0.1-0.1,0.1-0.3,0.1c-0.4,1.4-0.9,2.7-1.7,3.9
		c0.5,1.3,1,1.9,1.5,1.9c0.3,0,0.4-0.3,0.5-1.7c0.2,0.2,0.5,0.4,0.7,0.4c-0.2,1.8-0.5,2.1-1.3,2.1c-0.8,0-1.5-0.7-2-2
		c-0.6,0.8-1.4,1.5-2.3,2c-0.1-0.2-0.4-0.4-0.6-0.6c0.4-0.2,0.7-0.4,1-0.7h-3.6v0.7h-0.7V635h4.7v0.6h-1.8v1h1.8v2.4h-1.8v1h1.9v0.2
		c0.4-0.4,0.7-0.8,1.1-1.2c-0.4-1.3-0.7-2.9-0.8-4.9h-5.7v2.5c0,1.6-0.2,3.8-1.3,5.3c-0.1-0.1-0.5-0.4-0.7-0.5
		c1.1-1.4,1.2-3.4,1.2-4.9v-3.3h6.5c0-0.4,0-0.8-0.1-1.2l0.3,0v-0.6h-3.6v0.9h-0.9v-0.9h-3.1V631h3.1v-1l1.1,0.1
		c0,0.1-0.1,0.2-0.3,0.2v0.8h3.6v-1l1.1,0.1c0,0.1-0.1,0.2-0.3,0.2v0.8h3.2v0.8h-3.2v0.8h-0.3c0,0.3,0,0.6,0,0.9h2.4
		c-0.3-0.4-0.9-0.8-1.4-1.1l0.5-0.4c0.5,0.3,1.2,0.8,1.5,1.1l-0.5,0.4h1v0.8H68.4z M64.8,635.6h-1.5v1h1.5V635.6z M66.5,638.4v-1.2
		h-3.3v1.2H66.5z M63.3,639.1v1h1.5v-1H63.3z"/>
	<path d="M63.3,648.3c0,0.1-0.1,0.2-0.3,0.2c-0.4,1.7-1.2,4.1-2.4,5.5c-0.2-0.1-0.6-0.4-0.8-0.5c1.2-1.4,1.9-3.7,2.3-5.5L63.3,648.3
		z M65.6,645l1.2,0.1c0,0.1-0.1,0.2-0.3,0.2v10.4c0,0.7-0.2,0.9-0.6,1.1c-0.5,0.1-1.3,0.2-2.5,0.2c-0.1-0.3-0.2-0.7-0.4-0.9
		c0.6,0,1.1,0,1.6,0c0.9,0,1,0,1-0.4V645z M71.3,654.2c-0.3-1.6-1.4-4-2.5-5.9l0.8-0.3c1.2,1.9,2.3,4.3,2.6,5.9L71.3,654.2z"/>
	<path d="M63.3,664.6c0.5,0.4,1.8,1.8,2.1,2.2l-0.6,0.7c-0.3-0.4-1-1.3-1.5-1.9v6.1h-0.8v-6.7c-0.6,1.6-1.4,3.3-2.2,4.2
		c-0.1-0.2-0.3-0.6-0.5-0.8c1-1.1,2-3.2,2.5-5.1h-2.2v-0.8h2.4v-2.9l1.1,0.1c0,0.1-0.1,0.2-0.3,0.2v2.6h2.1v0.8h-2.1V664.6z
		 M72.2,667.3c-0.1,0.1-0.1,0.1-0.3,0.1c-1.3,1.8-3.6,3.4-6.2,4.3c-0.1-0.2-0.4-0.5-0.6-0.7c2.5-0.8,4.8-2.3,6-4.1L72.2,667.3z
		 M71.1,660.2c0,0.1-0.1,0.1-0.3,0.1c-1.1,1.2-2.9,2.5-4.5,3.4c-0.2-0.2-0.4-0.5-0.6-0.6c1.6-0.7,3.4-2,4.4-3.3L71.1,660.2z
		 M71.6,663.7c0,0.1-0.1,0.1-0.3,0.1c-1.1,1.4-3,2.8-4.9,3.7c-0.1-0.2-0.4-0.5-0.6-0.7c1.8-0.8,3.7-2.1,4.7-3.5L71.6,663.7z"/>
</g>
<g>
	<rect x="147.5" y="613.8" class="st3" width="13" height="57.6"/>
	<path d="M150.8,619c0.4,0.5,1.4,1.9,1.6,2.3l-0.5,0.7c-0.2-0.4-0.7-1.3-1.1-2v6.3H150V620c-0.5,1.5-1.1,3-1.7,3.8
		c-0.1-0.2-0.3-0.6-0.5-0.8c0.8-1.1,1.7-3.3,2.1-5.1h-1.8v-0.8h1.9v-2.9l1.1,0.1c0,0.1-0.1,0.1-0.2,0.2v2.6h1.6v0.6h1.8v-1.4h-1.5
		v-0.7h1.5v-1.2l1.1,0.1c0,0.1-0.1,0.2-0.2,0.2v1h2.2v-1.2l1.1,0.1c0,0.1-0.1,0.2-0.2,0.2v1h1.7v0.7h-1.7v1.4h2v0.8h-3.5v1h3v4.4
		h-6.7v-4.4h2.9v-1h-3.6v-0.5h-1.4V619z M155.5,624.7c-0.1,0-0.1,0.1-0.2,0.1c-0.6,0.5-1.7,1.2-2.6,1.6c-0.1-0.2-0.4-0.4-0.6-0.6
		c0.9-0.4,2-1,2.6-1.6L155.5,624.7z M153.7,620.1v1.2h2.1v-1.2H153.7z M153.7,622v1.2h2.1V622H153.7z M155.1,616.2v1.4h2.2v-1.4
		H155.1z M158.8,620.1h-2.2v1.2h2.2V620.1z M158.8,623.2V622h-2.2v1.2H158.8z M159.5,626.4c-0.5-0.5-1.7-1.2-2.5-1.7l0.6-0.5
		c0.8,0.5,2,1.1,2.5,1.6L159.5,626.4z"/>
	<path d="M148.4,662.5c0.9,0.3,1.9,0.9,2.4,1.4l-0.5,0.7c-0.5-0.5-1.6-1.1-2.4-1.4L148.4,662.5z M148.2,670.2c0.6-1,1.6-2.8,2.2-4.3
		l0.7,0.5c-0.6,1.4-1.4,3.1-2,4.1c0.1,0.1,0.1,0.1,0.1,0.2c0,0.1,0,0.1-0.1,0.2L148.2,670.2z M149.1,659c0.8,0.4,1.9,1,2.4,1.5
		l-0.5,0.7c-0.5-0.5-1.5-1.1-2.4-1.5L149.1,659z M154.7,668.4c0,0.1-0.1,0.1-0.3,0.1c-0.8,0.9-1.9,1.9-2.9,2.5
		c-0.2-0.2-0.5-0.4-0.7-0.6c1-0.6,2.1-1.5,2.8-2.5L154.7,668.4z M152.5,666.6V660l0.8,0.2c1.8-0.3,3.9-0.8,5-1.2l0.8,0.7
		c0,0-0.1,0.1-0.1,0.1c0,0-0.1,0-0.1,0c-1.4,0.4-3.5,0.9-5.5,1.2v1.7h6.4v0.8h-1.9v3.1h2.2v0.8h-9v-0.8H152.5z M157.1,663.5h-3.7
		v3.1h3.7V663.5z M159.4,671c-0.6-0.7-1.8-1.8-2.8-2.6l0.7-0.4c1,0.7,2.2,1.8,2.8,2.5L159.4,671z"/>
</g>
<g>
	<rect x="59.5" y="299.2" class="st3" width="13" height="57.6"/>
	<path class="st5" d="M69.5,300.9l0.7,0.4c0,0.1-0.1,0.1-0.2,0.1c-0.8,1.3-1.9,2.4-3.2,3.3c1.6,1,3.5,1.7,5.4,2.1
		c-0.2,0.2-0.4,0.6-0.6,0.8c-0.6-0.1-1.1-0.3-1.6-0.5v4.5h-0.9v-0.5H63v0.6h-0.9v-4.5c-0.6,0.2-1.2,0.4-1.8,0.6
		c-0.1-0.2-0.3-0.6-0.5-0.8c1.8-0.4,3.7-1.2,5.4-2.2c-0.9-0.7-1.7-1.4-2.3-2.2c-0.7,0.7-1.5,1.2-2.3,1.7c-0.1-0.2-0.4-0.5-0.6-0.6
		c1.6-0.9,3.4-2.4,4.4-4.1l1,0.4c0,0.1-0.2,0.1-0.3,0.1c-0.2,0.3-0.4,0.6-0.7,0.9h4.9L69.5,300.9z M69.3,307c-1.2-0.5-2.3-1-3.3-1.7
		c-1,0.7-2.2,1.2-3.3,1.7H69.3z M63,310.4h6.1v-2.6H63V310.4z M63.8,301.8l-0.2,0.2c0.7,0.8,1.5,1.6,2.5,2.3c1.1-0.7,2-1.6,2.7-2.5
		H63.8z"/>
	<path class="st5" d="M61.6,348.9c-0.5,0.8-1,1.5-1.5,2.1c-0.1-0.2-0.3-0.6-0.5-0.8c1.2-1.4,2.4-3.6,3.1-5.9l1,0.3
		c0,0.1-0.1,0.1-0.3,0.1c-0.3,0.9-0.7,1.7-1.1,2.6l0.3,0.1c0,0.1-0.1,0.1-0.3,0.2v8.7h-0.8V348.9z M63.3,350.5h8.8v2.2h-0.8v-1.5
		h-7.2v1.5h-0.8V350.5z M63.5,345.6h3.8v-1.2l1.1,0.1c0,0.1-0.1,0.2-0.2,0.2v1H72v0.8h-8.5V345.6z M70.9,349.7h-6.3v-2.6h6.3V349.7z
		 M64.8,352.9v-0.7h6v0.7h-2.6v2.4c0,0.5-0.1,0.8-0.6,0.9c-0.4,0.1-0.9,0.1-2.4,0.1c0-0.2-0.2-0.6-0.3-0.8c0.5,0,0.9,0,1.3,0
		c1,0,1.1,0,1.1-0.2v-2.4H64.8z M65.4,347.8v1.3H70v-1.3H65.4z"/>
</g>
<g>
	<rect x="97" y="428.2" class="st3" width="13" height="57.6"/>
	<path d="M103.9,431h4.9v6.1h-0.9v-0.8h-4v4.3H103v-4.3h-3.9v0.8h-0.9V431h4.8v-2.4l1.2,0.1c0,0.1-0.1,0.2-0.3,0.2V431z M99.1,435.5
		h3.9v-3.6h-3.9V435.5z M103.9,435.5h4v-3.6h-4V435.5z"/>
	<path d="M109.4,457.1H107v1.4h1.8v0.8h-4.9v1.2h5.4v0.8h-5.4v1.8H103v-1.8h-5.3v-0.8h5.3v-1.2h-4.7v-0.8h1.7v-1.4h-2.4v-0.8h2.4
		v-1.4h-1.5v-0.8h10v0.8H107v1.4h2.4V457.1z M100.8,453.8V453h-3v-0.8h3V451l1.1,0.1c0,0.1-0.1,0.2-0.3,0.2v0.9h3.7V451l1.1,0.1
		c0,0.1-0.1,0.2-0.3,0.2v0.9h3.1v0.8h-3.1v0.8h-0.9V453h-3.7v0.8H100.8z M100.8,454.9v1.4h2.2v-1.4H100.8z M100.8,458.5h2.2v-1.4
		h-2.2V458.5z M106.2,456.3v-1.4h-2.3v1.4H106.2z M106.2,458.5v-1.4h-2.3v1.4H106.2z"/>
	<path d="M100.8,473.6c0,0.1-0.1,0.1-0.3,0.1c-0.6,0.9-1.7,2.1-2.6,2.9c-0.1-0.2-0.4-0.5-0.5-0.6c0.9-0.7,1.9-1.8,2.4-2.7
		L100.8,473.6z M99,479.6c-0.4,0.6-0.8,1.1-1.1,1.5c-0.1-0.2-0.3-0.5-0.5-0.7c0.9-1,2-2.7,2.6-4.3l1,0.4c0,0.1-0.1,0.1-0.3,0.1
		c-0.3,0.6-0.6,1.2-0.9,1.7l0.3,0.1c0,0.1-0.1,0.1-0.2,0.2v6.8H99V479.6z M106.1,482.8l0,0.7c-1.9,0.3-3.9,0.5-5.1,0.7
		c0,0.1-0.1,0.2-0.2,0.2l-0.3-1c0.6-0.1,1.5-0.2,2.3-0.3v-2.1h-2v-0.8h2v-1.7l1.1,0.1c0,0.1-0.1,0.1-0.2,0.2v1.4h2v0.8h-2v2
		L106.1,482.8z M102.8,477.6v-1.9H101V475h1.8v-1.7l1.1,0.1c0,0.1-0.1,0.1-0.2,0.2v1.5h1.8v0.8h-1.8v1.9h2.1v0.8h-5v-0.8H102.8z
		 M109.6,477.7v0.8h-1.3v5.8c0,1-0.4,1.1-2.4,1.1c-0.1-0.2-0.2-0.6-0.3-0.9c0.5,0,0.9,0,1.2,0c0.6,0,0.7,0,0.7-0.2v-5.8H106v-0.8
		H109.6z M109.3,474v0.8h-3.3V474H109.3z"/>
</g>
<g>
	<rect x="110" y="428.2" class="st3" width="13" height="35.3"/>
	<path d="M115.3,434.6c0,0.1-0.1,0.2-0.3,0.2c-0.3,2.5-0.8,4.8-3.9,6c-0.1-0.2-0.4-0.5-0.5-0.7c2.9-1,3.4-3.1,3.6-5.6L115.3,434.6z
		 M118.6,439.3c0,0.4,0.1,0.5,0.6,0.5h1.8c0.6,0,0.6-0.4,0.7-2.4c0.2,0.2,0.6,0.3,0.8,0.4c-0.1,2.2-0.3,2.8-1.4,2.8h-2
		c-1.1,0-1.4-0.3-1.4-1.4v-5h-7.1v-0.9h11.6v0.9h-3.6l-0.1,0V439.3z M121.2,429.6v0.8h-9.3v-0.8H121.2z"/>
	<path d="M116.6,451.7v8.9h-4.9v1h-0.8v-9.9H116.6z M113.3,452.4h-1.7v3.2h1.7V452.4z M111.6,456.4v3.4h1.7v-3.4H111.6z
		 M115.8,455.6v-3.2H114v3.2H115.8z M114,459.8h1.7v-3.4H114V459.8z M122.6,452.6v0.8h-1.9v8.4c0,1.2-0.5,1.2-3.1,1.2
		c-0.1-0.2-0.2-0.6-0.3-0.9c0.5,0,1,0,1.4,0c1.2,0,1.2,0,1.2-0.4v-8.4h-3.1v-0.8H122.6z"/>
</g>
<g>
	<rect x="110" y="476" class="st3" width="13" height="6.9"/>
	<path d="M117.8,479.3c0,0.7-0.6,1.3-1.3,1.3c-0.7,0-1.3-0.6-1.3-1.3c0-0.7,0.6-1.3,1.3-1.3C117.2,478,117.8,478.6,117.8,479.3z"/>
</g>
<g>
	<rect x="185" y="86.4" class="st3" width="13" height="57.6"/>
	<path d="M191.9,89.2h4.9v6.1h-0.9v-0.8h-4v4.3H191v-4.3h-3.9v0.8h-0.9v-6.2h4.8v-2.4l1.2,0.1c0,0.1-0.1,0.2-0.3,0.2V89.2z
		 M187.1,93.7h3.9v-3.6h-3.9V93.7z M191.9,93.7h4v-3.6h-4V93.7z"/>
	<path d="M197.4,115.3H195v1.4h1.8v0.8h-4.9v1.2h5.4v0.8h-5.4v1.8H191v-1.8h-5.3v-0.8h5.3v-1.2h-4.7v-0.8h1.7v-1.4h-2.4v-0.8h2.4
		v-1.4h-1.5v-0.8h10v0.8H195v1.4h2.4V115.3z M188.8,112v-0.8h-3v-0.8h3v-1.2l1.1,0.1c0,0.1-0.1,0.2-0.3,0.2v0.9h3.7v-1.2l1.1,0.1
		c0,0.1-0.1,0.2-0.3,0.2v0.9h3.1v0.8h-3.1v0.8h-0.9v-0.8h-3.7v0.8H188.8z M188.8,113.1v1.4h2.2v-1.4H188.8z M188.8,116.7h2.2v-1.4
		h-2.2V116.7z M194.2,114.5v-1.4h-2.3v1.4H194.2z M194.2,116.7v-1.4h-2.3v1.4H194.2z"/>
	<path d="M188.8,131.8c0,0.1-0.1,0.1-0.3,0.1c-0.6,0.9-1.7,2.1-2.6,2.9c-0.1-0.2-0.4-0.5-0.5-0.6c0.9-0.7,1.9-1.8,2.4-2.7
		L188.8,131.8z M187,137.8c-0.4,0.6-0.8,1.1-1.1,1.5c-0.1-0.2-0.3-0.5-0.5-0.7c0.9-1,2-2.7,2.6-4.3l1,0.4c0,0.1-0.1,0.1-0.3,0.1
		c-0.3,0.6-0.6,1.2-0.9,1.7l0.3,0.1c0,0.1-0.1,0.1-0.2,0.2v6.8H187V137.8z M194.1,141l0,0.7c-1.9,0.3-3.9,0.5-5.1,0.7
		c0,0.1-0.1,0.2-0.2,0.2l-0.3-1c0.6-0.1,1.5-0.2,2.3-0.3v-2.1h-2v-0.8h2v-1.7l1.1,0.1c0,0.1-0.1,0.1-0.2,0.2v1.4h2v0.8h-2v2
		L194.1,141z M190.8,135.8v-1.9H189v-0.8h1.8v-1.7l1.1,0.1c0,0.1-0.1,0.1-0.2,0.2v1.5h1.8v0.8h-1.8v1.9h2.1v0.8h-5v-0.8H190.8z
		 M197.6,135.9v0.8h-1.3v5.8c0,1-0.4,1.1-2.4,1.1c-0.1-0.2-0.2-0.6-0.3-0.9c0.5,0,0.9,0,1.2,0c0.6,0,0.7,0,0.7-0.2v-5.8H194v-0.8
		H197.6z M197.3,132.2v0.8h-3.3v-0.8H197.3z"/>
</g>
<g>
	<rect x="198" y="86.4" class="st3" width="13" height="35.3"/>
	<path d="M203.3,92.8c0,0.1-0.1,0.2-0.3,0.2c-0.3,2.5-0.8,4.8-3.9,6c-0.1-0.2-0.4-0.5-0.5-0.7c2.9-1,3.4-3.1,3.6-5.6L203.3,92.8z
		 M206.6,97.5c0,0.4,0.1,0.5,0.6,0.5h1.8c0.6,0,0.6-0.4,0.7-2.4c0.2,0.2,0.6,0.3,0.8,0.4c-0.1,2.2-0.3,2.8-1.4,2.8h-2
		c-1.1,0-1.4-0.3-1.4-1.4v-5h-7.1v-0.9h11.6v0.9h-3.6l-0.1,0V97.5z M209.2,87.8v0.8h-9.3v-0.8H209.2z"/>
	<path d="M204.6,109.9v8.9h-4.9v1h-0.8v-9.9H204.6z M201.3,110.6h-1.7v3.2h1.7V110.6z M199.6,114.6v3.4h1.7v-3.4H199.6z
		 M203.8,113.8v-3.2H202v3.2H203.8z M202,118h1.7v-3.4H202V118z M210.6,110.8v0.8h-1.9v8.4c0,1.2-0.5,1.2-3.1,1.2
		c-0.1-0.2-0.2-0.6-0.3-0.9c0.5,0,1,0,1.4,0c1.2,0,1.2,0,1.2-0.4v-8.4h-3.1v-0.8H210.6z"/>
</g>
<g>
	<rect x="198" y="134.3" class="st3" width="13" height="6.9"/>
	<path d="M205.8,137.5c0,0.7-0.6,1.3-1.3,1.3c-0.7,0-1.3-0.6-1.3-1.3c0-0.7,0.6-1.3,1.3-1.3C205.2,136.2,205.8,136.8,205.8,137.5z"
		/>
</g>
<g>
	<rect x="323.5" y="299.2" class="st3" width="13" height="57.6"/>
	<path class="st9" d="M326.8,304.9v4.3c1,1.5,2.8,1.5,5.3,1.5c1.4,0,3.1,0,4.1-0.1c-0.1,0.2-0.2,0.6-0.3,0.9c-0.9,0-2.3,0.1-3.6,0.1
		c-2.8,0-4.6,0-5.9-1.6c-0.7,0.6-1.4,1.2-2,1.6c0,0.1,0,0.2-0.1,0.2l-0.5-0.9c0.6-0.4,1.4-1,2.1-1.6v-3.5h-2v-0.8H326.8z M324.8,300
		c0.8,0.6,1.8,1.5,2.2,2.2l-0.6,0.6c-0.4-0.7-1.4-1.6-2.2-2.2L324.8,300z M332.1,303c-0.8-0.4-1.8-0.8-2.7-1.2l0.6-0.5
		c0.6,0.2,1.2,0.5,1.9,0.8c0.7-0.3,1.4-0.7,2-1.1h-5.7v-0.7h6.6l0.1,0l0.7,0.4c0,0.1-0.1,0.1-0.2,0.1c-0.7,0.6-1.7,1.2-2.7,1.7
		c0.4,0.2,0.8,0.4,1.1,0.5h1.7v5.9c0,0.9-0.3,0.9-2.2,0.9c0-0.2-0.1-0.5-0.2-0.7c0.4,0,0.7,0,1,0c0.6,0,0.6,0,0.6-0.2v-1.3h-2.4v2.2
		h-0.8v-2.2H329v2.2h-0.8V303H332.1z M331.4,303.7H329v1.2h2.4V303.7z M329,306.9h2.4v-1.3H329V306.9z M334.6,304.9v-1.2h-2.4v1.2
		H334.6z M332.2,306.9h2.4v-1.3h-2.4V306.9z"/>
	<path class="st9" d="M325.6,317.5v-1H324v-0.7h1.6v-1.2l1.1,0.1c0,0.1-0.1,0.1-0.2,0.2v1h1.9v-1.2l1.1,0.1c0,0.1-0.1,0.2-0.3,0.2v1
		h1.6v0.7h-1.6v1h-0.8v-1h-1.9v1H325.6z M335.4,317.6l0.5,0c0,0.1,0,0.2,0,0.3c-0.1,5.7-0.3,7.5-0.7,8.1c-0.3,0.4-0.6,0.5-1.4,0.5
		c-0.3,0-0.7,0-1,0c0-0.2-0.1-0.6-0.2-0.8c0.6,0.1,1.2,0.1,1.4,0.1c0.2,0,0.3,0,0.5-0.2c0.3-0.4,0.5-2.1,0.6-7.1h-2
		c-0.1,3.5-0.7,6.4-2.8,8.2c-0.1-0.2-0.4-0.5-0.6-0.6c0.2-0.2,0.5-0.4,0.7-0.6c-2.2,0.3-4.5,0.5-5.9,0.7c0,0.1-0.1,0.2-0.2,0.2
		l-0.3-0.9c0.8-0.1,1.8-0.2,2.9-0.3v-1.2h-2.4v-0.7h2.4v-1h-2.6v-0.7h2.6v-1h-2.4v-2.8h5.7v2.8h-2.5v1h2.7v0.7h-2.7v1h2.5v0.7h-2.5
		v1.1c0.9-0.1,1.8-0.2,2.7-0.3v0.5c1.3-1.6,1.6-4,1.7-6.8h-1.6v-0.8h1.6c0-1,0-2,0-3l1.1,0.1c0,0.1-0.1,0.2-0.3,0.2
		c0,0.9,0,1.9,0,2.7h2.2L335.4,317.6z M325.3,319.9h1.6v-1.5h-1.6V319.9z M329.4,319.9v-1.5h-1.7v1.5H329.4z"/>
	<path class="st1" d="M334.3,334.6c0,0.1-0.1,0.2-0.3,0.2v1.3h1.8v0.8H334v3.6c0,0.5-0.1,0.8-0.5,0.9c-0.4,0.1-1,0.1-2.1,0.1
		c0-0.2-0.2-0.6-0.3-0.8c0.5,0,0.9,0,1.2,0c0.7,0,0.8,0,0.8-0.3v-3.6h-4.6v-0.5l-1.5,0.4v4.7h-0.8V337l-1.7,0.5
		c0,0.1-0.1,0.2-0.2,0.2l-0.4-1c0.6-0.1,1.4-0.3,2.3-0.5V333H325c-0.1,0.8-0.3,1.5-0.5,2.1c-0.1-0.1-0.4-0.3-0.6-0.4
		c0.4-1,0.6-2.8,0.8-4.5l1,0.2c0,0.1-0.1,0.1-0.3,0.1c-0.1,0.5-0.1,1.1-0.2,1.7h1v-2.7l1.1,0.1c0,0.1-0.1,0.2-0.3,0.2v2.5h1.7v0.8
		h-1.7v3c0.6-0.1,1.2-0.3,1.7-0.4l0.1,0.5h4.4v-1.5L334.3,334.6z M332.5,333.5h3.5v0.8h-7.7v-0.8h3.3v-1.7h-2.6V331h2.6v-1.6
		l1.1,0.1c0,0.1-0.1,0.2-0.2,0.2v1.3h2.8v0.8h-2.8V333.5z M330.7,339.9c-0.3-0.6-0.9-1.5-1.6-2.2l0.7-0.4c0.6,0.6,1.3,1.5,1.6,2.1
		L330.7,339.9z"/>
	<path class="st1" d="M325.7,348.2v-0.2c-0.3,0.3-0.7,0.6-1.1,0.8c-0.1-0.2-0.4-0.5-0.6-0.6c1.7-1.1,3-2.6,3.6-3.9l1.1,0.2
		c0,0.1-0.1,0.2-0.3,0.2c-0.1,0.2-0.3,0.5-0.4,0.7h3.8l0.1-0.1l0.7,0.4c0,0.1-0.1,0.1-0.2,0.1c-0.3,0.5-0.7,1.1-1.1,1.6h2.9v4.6h-5
		c0.8,0.3,1.6,0.8,2.1,1.2l-0.6,0.6c-0.5-0.5-1.5-1.1-2.4-1.4l0.4-0.4h-3.3v-0.8h7.9V350h-7.5v-0.7h7.5v-1.2H325.7z M326.6,353.1
		c-0.3,1.1-0.9,2.1-1.9,2.7l-0.7-0.5c0.9-0.6,1.5-1.5,1.8-2.5L326.6,353.1z M330.3,347.4c0.3-0.4,0.7-0.9,0.9-1.4h-3.8
		c-0.3,0.5-0.7,0.9-1.2,1.4H330.3z M328.3,355c0,0.3,0.1,0.4,0.8,0.4h2.3c0.6,0,0.7-0.2,0.7-1.5c0.2,0.1,0.5,0.3,0.8,0.3
		c-0.1,1.6-0.4,2-1.4,2H329c-1.3,0-1.6-0.2-1.6-1.1v-2l1.1,0.1c0,0.1-0.1,0.2-0.2,0.2V355z M335.3,355.9c-0.4-0.8-1.5-1.9-2.4-2.7
		l0.7-0.4c0.9,0.8,2,1.9,2.5,2.7L335.3,355.9z"/>
</g>
<g>
	<rect x="367.5" y="306.6" class="st3" width="13" height="42.7"/>
	<path class="st0" d="M378.3,312.3c0,0.1-0.1,0.2-0.3,0.2v1.3h1.8v0.8H378v3.6c0,0.5-0.1,0.8-0.5,0.9c-0.4,0.1-1,0.1-2.1,0.1
		c0-0.2-0.2-0.6-0.3-0.8c0.5,0,0.9,0,1.2,0c0.7,0,0.8,0,0.8-0.3v-3.6h-4.6V314l-1.5,0.4v4.7h-0.8v-4.5l-1.7,0.5
		c0,0.1-0.1,0.2-0.2,0.2l-0.4-1c0.6-0.1,1.4-0.3,2.3-0.5v-3.2h-1.2c-0.1,0.8-0.3,1.5-0.5,2.1c-0.1-0.1-0.4-0.3-0.6-0.4
		c0.4-1,0.6-2.8,0.8-4.5l1,0.2c0,0.1-0.1,0.1-0.3,0.1c-0.1,0.5-0.1,1.1-0.2,1.7h1v-2.7l1.1,0.1c0,0.1-0.1,0.2-0.3,0.2v2.5h1.7v0.8
		h-1.7v3c0.6-0.1,1.2-0.3,1.7-0.4l0.1,0.5h4.4v-1.5L378.3,312.3z M376.5,311.2h3.5v0.8h-7.7v-0.8h3.3v-1.7h-2.6v-0.8h2.6v-1.6
		l1.1,0.1c0,0.1-0.1,0.2-0.2,0.2v1.3h2.8v0.8h-2.8V311.2z M374.7,317.6c-0.3-0.6-0.9-1.5-1.6-2.2l0.7-0.4c0.6,0.6,1.3,1.5,1.6,2.1
		L374.7,317.6z"/>
	<path class="st0" d="M369.7,340.7v-0.2c-0.3,0.3-0.7,0.6-1.1,0.8c-0.1-0.2-0.4-0.5-0.6-0.6c1.7-1.1,3-2.6,3.6-3.9l1.1,0.2
		c0,0.1-0.1,0.2-0.3,0.2c-0.1,0.2-0.3,0.5-0.4,0.7h3.8l0.1-0.1l0.7,0.4c0,0.1-0.1,0.1-0.2,0.1c-0.3,0.5-0.7,1.1-1.1,1.6h2.9v4.6h-5
		c0.8,0.3,1.6,0.8,2.1,1.2l-0.6,0.6c-0.5-0.5-1.5-1.1-2.4-1.4l0.4-0.4h-3.3v-0.8h7.9v-1.2h-7.5v-0.7h7.5v-1.2H369.7z M370.6,345.7
		c-0.3,1.1-0.9,2.1-1.9,2.7l-0.7-0.5c0.9-0.6,1.5-1.5,1.8-2.5L370.6,345.7z M374.3,340c0.3-0.4,0.7-0.9,0.9-1.4h-3.8
		c-0.3,0.5-0.7,0.9-1.2,1.4H374.3z M372.3,347.5c0,0.3,0.1,0.4,0.8,0.4h2.3c0.6,0,0.7-0.2,0.7-1.5c0.2,0.1,0.5,0.3,0.8,0.3
		c-0.1,1.6-0.4,2-1.4,2H373c-1.3,0-1.6-0.2-1.6-1.1v-2l1.1,0.1c0,0.1-0.1,0.2-0.2,0.2V347.5z M379.3,348.4c-0.4-0.8-1.5-1.9-2.4-2.7
		l0.7-0.4c0.9,0.8,2,1.9,2.5,2.7L379.3,348.4z"/>
</g>
<rect x="358" y="300" class="st7" width="31" height="58"/>
<g>
</g>
<g>
</g>
<g>
</g>
<g>
</g>
<g>
</g>
<g>
</g>
<g>
</g>
<g>
</g>
<g>
</g>
<g>
</g>
<g>
</g>
<g>
</g>
<g>
</g>
<g>
</g>
<g>
</g>
<g>
</g>
<g>
</g>
<g>
</g>
</svg>
