<?xml version="1.0" encoding="utf-8"?>
<!-- Generator: Adobe Illustrator 16.0.0, SVG Export Plug-In . SVG Version: 6.00 Build 0)  -->
<!DOCTYPE svg PUBLIC "-//W3C//DTD SVG 1.1//EN" "http://www.w3.org/Graphics/SVG/1.1/DTD/svg11.dtd">
<svg version="1.1" id="レイヤー_1" xmlns="http://www.w3.org/2000/svg" xmlns:xlink="http://www.w3.org/1999/xlink" x="0px"
	 y="0px" width="471px" height="48.8px" viewBox="0 0 471 48.8" style="enable-background:new 0 0 471 48.8;" xml:space="preserve">
<style type="text/css">
<![CDATA[
	.st0{fill:#FFFFFF;stroke:#0000FF;stroke-miterlimit:10;}
	.st1{fill:#EE0000;}
	.st2{fill:#2B95FF;}
	.st3{fill:#FF0000;}
	.st4{fill:none;stroke:#000000;stroke-miterlimit:10;}
	.st5{fill:none;}
	.st6{fill:#FFBB99;stroke:#000000;stroke-miterlimit:10;}
	.st7{fill:#0000FF;}
	.st8{fill:#0099FF;}
	.st9{fill:#99EE99;stroke:#000000;stroke-miterlimit:10;}
]]>
</style>
<rect x="0.5" y="18.3" class="st9" width="90" height="30"/>
<rect x="9" y="11.8" class="st8" width="11" height="6"/>
<rect x="95.5" y="18.3" class="st6" width="90" height="30"/>
<rect x="190.5" y="18.3" class="st6" width="90" height="30"/>
<rect x="285.5" y="18.3" class="st6" width="90" height="30"/>
<rect x="380.5" y="18.3" class="st9" width="90" height="30"/>
<g>
	<rect x="95.3" y="24.7" class="st5" width="62.1" height="17.2"/>
	<path d="M106.1,40.5V39h0.1c0.5,0.2,1.1,0.4,1.7,0.4c2.7,0,4.2-1.6,4.5-4.7c-1.2,0.7-2.3,1.1-3.2,1.1c-1.3,0-2.4-0.4-3.2-1.1
		s-1.2-1.8-1.2-3c0-1.3,0.4-2.4,1.3-3.3s1.9-1.3,3.2-1.3c1.5,0,2.6,0.5,3.5,1.5s1.3,2.5,1.3,4.6c0,2.4-0.6,4.3-1.7,5.7s-2.7,2-4.8,2
		C107.1,40.7,106.5,40.7,106.1,40.5z M112.4,33.5l0-0.8c0-1.4-0.3-2.5-0.8-3.3s-1.3-1.1-2.3-1.1c-0.9,0-1.6,0.3-2.1,0.8
		s-0.8,1.3-0.8,2.3c0,0.8,0.2,1.5,0.7,2.1s1.3,0.8,2.4,0.8C110.5,34.4,111.4,34.1,112.4,33.5z"/>
	<path d="M125.3,40.5h-8.9v-1.7c0.9-0.8,2-1.7,3.2-2.8s2-2,2.6-2.8s0.9-1.6,0.9-2.4c0-0.7-0.2-1.3-0.7-1.7s-1.1-0.6-1.9-0.6
		c-1.2,0-2.4,0.4-3.5,1.1h-0.1v-1.7c1.2-0.6,2.4-0.8,3.7-0.8c1.3,0,2.4,0.3,3.2,1s1.2,1.5,1.2,2.6c0,0.6-0.1,1.2-0.3,1.7
		s-0.5,1.1-0.9,1.6s-0.9,1.1-1.5,1.6s-1.9,1.8-4,3.5h7.3V40.5z"/>
	<path d="M131.9,40.8c-1.6,0-2.7-0.6-3.4-1.7s-1.1-2.9-1.1-5.2s0.4-4.1,1.1-5.2s1.9-1.7,3.4-1.7c1.5,0,2.7,0.6,3.4,1.7
		s1.1,2.9,1.1,5.2c0,2.4-0.4,4.1-1.1,5.2S133.5,40.8,131.9,40.8z M131.9,28.3c-1,0-1.7,0.4-2.2,1.2s-0.7,2.2-0.7,4.4
		c0,2.1,0.2,3.5,0.7,4.3s1.2,1.2,2.2,1.2s1.7-0.4,2.2-1.2s0.7-2.3,0.7-4.4c0-2.1-0.2-3.5-0.7-4.3S132.9,28.3,131.9,28.3z"/>
	<path d="M147.7,40.5h-8.9v-1.7c0.9-0.8,2-1.7,3.2-2.8s2-2,2.6-2.8s0.9-1.6,0.9-2.4c0-0.7-0.2-1.3-0.7-1.7s-1.1-0.6-1.9-0.6
		c-1.2,0-2.4,0.4-3.5,1.1h-0.1v-1.7c1.2-0.6,2.4-0.8,3.7-0.8c1.3,0,2.4,0.3,3.2,1s1.2,1.5,1.2,2.6c0,0.6-0.1,1.2-0.3,1.7
		s-0.5,1.1-0.9,1.6s-0.9,1.1-1.5,1.6s-1.9,1.8-4,3.5h7.3V40.5z"/>
</g>
<rect x="152.5" y="25.3" class="st0" width="31" height="17"/>
<g>
	<rect x="152.2" y="26.5" class="st5" width="31.1" height="14.4"/>
	<path class="st7" d="M154.7,38.1l-0.3-0.8c1.3-0.3,2.6-0.7,4-1.3l0.2,0.7C157.7,37.1,156.4,37.5,154.7,38.1z M156.7,39.6l-0.1-0.9
		h1.3c0.6,0,1-0.3,1.1-0.8c0.1-0.5,0.2-1.8,0.2-3.7v-0.9H155l0.3-3.2h3.6v-1.5h-4v-0.8h5v3.1h-3.7l-0.2,1.7h4.1v2
		c0,0.7,0,1.4-0.1,2.1c0,0.7-0.1,1.2-0.2,1.6c-0.1,0.4-0.2,0.7-0.3,0.8c-0.1,0.1-0.3,0.3-0.5,0.4c-0.2,0.1-0.5,0.2-0.8,0.2H156.7z
		 M156.7,35.8l-1.4-1.7l0.8-0.5l1.4,1.6L156.7,35.8z M160.9,38.1l-0.3-0.8c1.4-0.4,2.8-0.8,4-1.3l0.2,0.8c-0.4,0.2-1,0.4-1.9,0.7
		C162.2,37.7,161.5,37.9,160.9,38.1z M162.9,39.6l-0.1-0.9h1.3c0.6,0,1-0.3,1.1-0.8c0.1-0.5,0.2-1.8,0.2-3.7v-0.9h-4.2l0.3-3.2h3.7
		v-1.5h-4v-0.8h5.1v3.1h-3.7l-0.2,1.7h4.2V34c0,1.4,0,2.5-0.1,3.2c-0.1,0.7-0.2,1.2-0.2,1.5c-0.1,0.3-0.3,0.6-0.6,0.7
		c-0.3,0.2-0.7,0.3-1,0.3H162.9z M163,35.8l-1.4-1.7l0.8-0.5l1.4,1.6L163,35.8z"/>
	<path class="st2" d="M169.1,38.5l-1-0.6c0.3-0.5,0.7-1.2,1.2-2.1c0.4-0.9,0.8-1.7,1-2.4l0.9,0.4c-0.2,0.7-0.6,1.5-1,2.5
		S169.4,38.1,169.1,38.5z M170.3,30.9c-0.6-0.8-1.2-1.6-1.9-2.3l0.9-0.6c0.6,0.6,1.3,1.3,1.9,2.2L170.3,30.9z M176.7,27.2
		c0.5,0.9,1.3,1.7,2.2,2.4s1.8,1.3,2.6,1.7l-0.7,0.8c-0.8-0.4-1.7-1.1-2.7-1.8c-0.9-0.8-1.7-1.6-2.2-2.3c-0.5,0.8-1.2,1.6-2.1,2.4
		c-0.9,0.8-1.8,1.4-2.6,1.8l-0.5-0.7c0.8-0.4,1.6-1,2.4-1.8s1.6-1.6,2.1-2.5H176.7z M174.6,39.7v-5.3H172v-0.9h8.3v4
		c0,0.3-0.1,0.6-0.4,0.8c-0.2,0.2-0.5,0.3-0.9,0.3h-1.7l-0.1-0.9h1.4c0.2,0,0.3-0.1,0.4-0.2c0.1-0.1,0.2-0.2,0.2-0.4v-2.8h-3.5v5.3
		H174.6z M173.3,31.9v-0.8h5.8v0.8H173.3z"/>
</g>
<g>
	<rect x="380.1" y="24.7" class="st5" width="90.3" height="17.2"/>
	<path d="M405,40.5V39h0.1c0.5,0.2,1.1,0.4,1.7,0.4c2.7,0,4.2-1.6,4.5-4.7c-1.2,0.7-2.3,1.1-3.2,1.1c-1.3,0-2.4-0.4-3.2-1.1
		c-0.8-0.7-1.2-1.8-1.2-3c0-1.3,0.4-2.4,1.3-3.3s1.9-1.3,3.2-1.3c1.5,0,2.6,0.5,3.5,1.5c0.8,1,1.3,2.5,1.3,4.6
		c0,2.4-0.6,4.3-1.7,5.7s-2.7,2-4.8,2C406,40.7,405.4,40.7,405,40.5z M411.3,33.5l0-0.8c0-1.4-0.3-2.5-0.8-3.3s-1.3-1.1-2.3-1.1
		c-0.9,0-1.6,0.3-2.1,0.8s-0.8,1.3-0.8,2.3c0,0.8,0.2,1.5,0.7,2.1s1.3,0.8,2.4,0.8C409.4,34.4,410.3,34.1,411.3,33.5z"/>
	<path d="M423.4,40.5h-7v-1.2h2.8v-9.1h-2.8v-1.1c1.1,0,1.8-0.2,2.3-0.5s0.7-0.8,0.8-1.4h1.2v12.1h2.7V40.5z"/>
	<path d="M430.8,40.8c-1.6,0-2.7-0.6-3.4-1.7s-1.1-2.9-1.1-5.2s0.4-4.1,1.1-5.2c0.7-1.1,1.9-1.7,3.4-1.7c1.5,0,2.7,0.6,3.4,1.7
		s1.1,2.9,1.1,5.2c0,2.4-0.4,4.1-1.1,5.2S432.4,40.8,430.8,40.8z M430.8,28.3c-1,0-1.7,0.4-2.2,1.2s-0.7,2.2-0.7,4.4
		c0,2.1,0.2,3.5,0.7,4.3s1.2,1.2,2.2,1.2s1.7-0.4,2.2-1.2c0.4-0.8,0.7-2.3,0.7-4.4c0-2.1-0.2-3.5-0.7-4.3S431.8,28.3,430.8,28.3z"/>
	<path d="M446.6,40.5h-8.9v-1.7c0.9-0.8,2-1.7,3.2-2.8c1.2-1.1,2-2,2.6-2.8s0.9-1.6,0.9-2.4c0-0.7-0.2-1.3-0.7-1.7
		c-0.5-0.4-1.1-0.6-1.9-0.6c-1.2,0-2.4,0.4-3.5,1.1H438v-1.7c1.2-0.6,2.4-0.8,3.7-0.8c1.3,0,2.4,0.3,3.2,1s1.2,1.5,1.2,2.6
		c0,0.6-0.1,1.2-0.3,1.7c-0.2,0.5-0.5,1.1-0.9,1.6s-0.9,1.1-1.5,1.6s-1.9,1.8-4,3.5h7.3V40.5z"/>
</g>
<g>
	<rect x="285.2" y="24.7" class="st5" width="90.3" height="17.2"/>
	<path d="M310.1,40.5V39h0.1c0.5,0.2,1.1,0.4,1.7,0.4c2.7,0,4.2-1.6,4.5-4.7c-1.2,0.7-2.3,1.1-3.2,1.1c-1.3,0-2.4-0.4-3.2-1.1
		s-1.2-1.8-1.2-3c0-1.3,0.4-2.4,1.3-3.3s1.9-1.3,3.2-1.3c1.5,0,2.6,0.5,3.5,1.5s1.3,2.5,1.3,4.6c0,2.4-0.6,4.3-1.7,5.7s-2.7,2-4.8,2
		C311.1,40.7,310.5,40.7,310.1,40.5z M316.4,33.5l0-0.8c0-1.4-0.3-2.5-0.8-3.3s-1.3-1.1-2.3-1.1c-0.9,0-1.6,0.3-2.1,0.8
		s-0.8,1.3-0.8,2.3c0,0.8,0.2,1.5,0.7,2.1s1.3,0.8,2.4,0.8C314.5,34.4,315.4,34.1,316.4,33.5z"/>
	<path d="M328.2,27.2v1.6h-0.1c-0.5-0.2-1.1-0.4-1.7-0.4c-1.3,0-2.3,0.4-3.1,1.2s-1.2,2-1.4,3.4c1.1-0.7,2.2-1,3.2-1
		c1.3,0,2.3,0.4,3.1,1.1s1.2,1.7,1.2,3.1c0,1.3-0.4,2.4-1.3,3.3s-1.9,1.3-3.2,1.3c-1.5,0-2.7-0.5-3.5-1.6s-1.2-2.5-1.2-4.5
		c0-2.4,0.6-4.3,1.7-5.7s2.7-2,4.8-2C327.3,27,327.8,27.1,328.2,27.2z M321.9,34.2c0,0.5,0,0.8,0,0.9c0,1.4,0.3,2.5,0.8,3.2
		s1.3,1.1,2.3,1.1c0.9,0,1.6-0.3,2.1-0.8s0.8-1.3,0.8-2.3c0-0.8-0.2-1.5-0.7-2s-1.3-0.8-2.4-0.8C323.8,33.4,322.8,33.7,321.9,34.2z"
		/>
	<path d="M335.9,40.8c-1.6,0-2.7-0.6-3.4-1.7s-1.1-2.9-1.1-5.2s0.4-4.1,1.1-5.2s1.9-1.7,3.4-1.7c1.5,0,2.7,0.6,3.4,1.7
		s1.1,2.9,1.1,5.2c0,2.4-0.4,4.1-1.1,5.2S337.5,40.8,335.9,40.8z M335.9,28.3c-1,0-1.7,0.4-2.2,1.2s-0.7,2.2-0.7,4.4
		c0,2.1,0.2,3.5,0.7,4.3s1.2,1.2,2.2,1.2s1.7-0.4,2.2-1.2s0.7-2.3,0.7-4.4c0-2.1-0.2-3.5-0.7-4.3S336.9,28.3,335.9,28.3z"/>
	<path d="M351.7,40.5h-8.9v-1.7c0.9-0.8,2-1.7,3.2-2.8s2-2,2.6-2.8s0.9-1.6,0.9-2.4c0-0.7-0.2-1.3-0.7-1.7s-1.1-0.6-1.9-0.6
		c-1.2,0-2.4,0.4-3.5,1.1h-0.1v-1.7c1.2-0.6,2.4-0.8,3.7-0.8c1.3,0,2.4,0.3,3.2,1s1.2,1.5,1.2,2.6c0,0.6-0.1,1.2-0.3,1.7
		s-0.5,1.1-0.9,1.6s-0.9,1.1-1.5,1.6s-1.9,1.8-4,3.5h7.3V40.5z"/>
</g>
<g>
	<rect x="0.2" y="24.7" class="st5" width="90.3" height="17.2"/>
	<path d="M25.1,40.5V39h0.1c0.5,0.2,1.1,0.4,1.7,0.4c2.7,0,4.2-1.6,4.5-4.7c-1.2,0.7-2.3,1.1-3.2,1.1c-1.3,0-2.4-0.4-3.2-1.1
		s-1.2-1.8-1.2-3c0-1.3,0.4-2.4,1.3-3.3s1.9-1.3,3.2-1.3c1.5,0,2.6,0.5,3.5,1.5s1.3,2.5,1.3,4.6c0,2.4-0.6,4.3-1.7,5.7s-2.7,2-4.8,2
		C26.1,40.7,25.5,40.7,25.1,40.5z M31.4,33.5l0-0.8c0-1.4-0.3-2.5-0.8-3.3s-1.3-1.1-2.3-1.1c-0.9,0-1.6,0.3-2.1,0.8
		s-0.8,1.3-0.8,2.3c0,0.8,0.2,1.5,0.7,2.1s1.3,0.8,2.4,0.8C29.5,34.4,30.4,34.1,31.4,33.5z"/>
	<path d="M39.7,40.8c-1.6,0-2.7-0.6-3.4-1.7s-1.1-2.9-1.1-5.2s0.4-4.1,1.1-5.2s1.9-1.7,3.4-1.7c1.5,0,2.7,0.6,3.4,1.7
		s1.1,2.9,1.1,5.2c0,2.4-0.4,4.1-1.1,5.2S41.3,40.8,39.7,40.8z M39.7,28.3c-1,0-1.7,0.4-2.2,1.2s-0.7,2.2-0.7,4.4
		c0,2.1,0.2,3.5,0.7,4.3s1.2,1.2,2.2,1.2s1.7-0.4,2.2-1.2s0.7-2.3,0.7-4.4c0-2.1-0.2-3.5-0.7-4.3S40.8,28.3,39.7,28.3z"/>
	<path d="M50.9,40.8c-1.6,0-2.7-0.6-3.4-1.7s-1.1-2.9-1.1-5.2s0.4-4.1,1.1-5.2s1.9-1.7,3.4-1.7c1.5,0,2.7,0.6,3.4,1.7
		s1.1,2.9,1.1,5.2c0,2.4-0.4,4.1-1.1,5.2S52.5,40.8,50.9,40.8z M50.9,28.3c-1,0-1.7,0.4-2.2,1.2s-0.7,2.2-0.7,4.4
		c0,2.1,0.2,3.5,0.7,4.3s1.2,1.2,2.2,1.2s1.7-0.4,2.2-1.2s0.7-2.3,0.7-4.4c0-2.1-0.2-3.5-0.7-4.3S51.9,28.3,50.9,28.3z"/>
	<path d="M66.7,40.5h-8.9v-1.7c0.9-0.8,2-1.7,3.2-2.8s2-2,2.6-2.8s0.9-1.6,0.9-2.4c0-0.7-0.2-1.3-0.7-1.7s-1.1-0.6-1.9-0.6
		c-1.2,0-2.4,0.4-3.5,1.1h-0.1v-1.7c1.2-0.6,2.4-0.8,3.7-0.8c1.3,0,2.4,0.3,3.2,1s1.2,1.5,1.2,2.6c0,0.6-0.1,1.2-0.3,1.7
		s-0.5,1.1-0.9,1.6S64,35,63.4,35.5s-1.9,1.8-4,3.5h7.3V40.5z"/>
</g>
<line class="st4" x1="294.7" y1="9.9" x2="287.7" y2="13.9"/>
<line class="st4" x1="294.7" y1="9.9" x2="301.5" y2="13.9"/>
<line class="st4" x1="301.5" y1="13.9" x2="296.4" y2="16.9"/>
<line class="st4" x1="287.7" y1="13.9" x2="292.9" y2="16.9"/>
<line class="st4" x1="199.7" y1="9.9" x2="192.7" y2="13.9"/>
<line class="st4" x1="199.7" y1="9.9" x2="206.5" y2="13.9"/>
<line class="st4" x1="206.5" y1="13.9" x2="201.4" y2="16.9"/>
<line class="st4" x1="192.7" y1="13.9" x2="197.9" y2="16.9"/>
<line class="st4" x1="104.7" y1="9.9" x2="97.7" y2="13.9"/>
<line class="st4" x1="104.7" y1="9.9" x2="111.5" y2="13.9"/>
<line class="st4" x1="111.5" y1="13.9" x2="106.4" y2="16.9"/>
<line class="st4" x1="97.7" y1="13.9" x2="102.9" y2="16.9"/>
<g>
	<rect x="190" y="24.7" class="st5" width="90.3" height="17.2"/>
	<path d="M214.9,40.5V39h0.1c0.5,0.2,1.1,0.4,1.7,0.4c2.7,0,4.2-1.6,4.5-4.7c-1.2,0.7-2.3,1.1-3.2,1.1c-1.3,0-2.4-0.4-3.2-1.1
		s-1.2-1.8-1.2-3c0-1.3,0.4-2.4,1.3-3.3s1.9-1.3,3.2-1.3c1.5,0,2.6,0.5,3.5,1.5s1.3,2.5,1.3,4.6c0,2.4-0.6,4.3-1.7,5.7s-2.7,2-4.8,2
		C215.9,40.7,215.4,40.7,214.9,40.5z M221.2,33.5l0-0.8c0-1.4-0.3-2.5-0.8-3.3s-1.3-1.1-2.3-1.1c-0.9,0-1.6,0.3-2.1,0.8
		s-0.8,1.3-0.8,2.3c0,0.8,0.2,1.5,0.7,2.1s1.3,0.8,2.4,0.8C219.3,34.4,220.3,34.1,221.2,33.5z"/>
	<path d="M234.4,36.7h-1.9v3.8h-1.6v-3.8h-6.4v-1.8l6.4-7.6h1.5v8.1h1.9V36.7z M230.9,35.4v-6.2l-5.3,6.2H230.9z"/>
	<path d="M240.8,40.8c-1.6,0-2.7-0.6-3.4-1.7s-1.1-2.9-1.1-5.2s0.4-4.1,1.1-5.2s1.9-1.7,3.4-1.7c1.5,0,2.7,0.6,3.4,1.7
		s1.1,2.9,1.1,5.2c0,2.4-0.4,4.1-1.1,5.2S242.3,40.8,240.8,40.8z M240.8,28.3c-1,0-1.7,0.4-2.2,1.2s-0.7,2.2-0.7,4.4
		c0,2.1,0.2,3.5,0.7,4.3s1.2,1.2,2.2,1.2s1.7-0.4,2.2-1.2s0.7-2.3,0.7-4.4c0-2.1-0.2-3.5-0.7-4.3S241.8,28.3,240.8,28.3z"/>
	<path d="M256.5,40.5h-8.9v-1.7c0.9-0.8,2-1.7,3.2-2.8s2-2,2.6-2.8s0.9-1.6,0.9-2.4c0-0.7-0.2-1.3-0.7-1.7s-1.1-0.6-1.9-0.6
		c-1.2,0-2.4,0.4-3.5,1.1H248v-1.7c1.2-0.6,2.4-0.8,3.7-0.8c1.3,0,2.4,0.3,3.2,1s1.2,1.5,1.2,2.6c0,0.6-0.1,1.2-0.3,1.7
		s-0.5,1.1-0.9,1.6s-0.9,1.1-1.5,1.6s-1.9,1.8-4,3.5h7.3V40.5z"/>
</g>
<rect x="75" y="11.8" class="st8" width="11" height="6"/>
<rect x="53" y="11.8" width="11" height="6"/>
<rect x="31" y="11.8" width="11" height="6"/>
<rect x="126" y="11.8" width="11" height="6"/>
<rect x="148" y="11.8" width="11" height="6"/>
<rect x="170" y="11.8" class="st8" width="11" height="6"/>
<rect x="114" y="11.8" class="st8" width="11" height="6"/>
<rect x="209" y="11.8" width="11" height="6"/>
<rect x="221" y="11.8" width="11" height="6"/>
<rect x="243" y="11.8" width="11" height="6"/>
<rect x="265" y="11.8" width="11" height="6"/>
<rect x="304" y="11.8" class="st3" width="11" height="6"/>
<rect x="316" y="11.8" width="11" height="6"/>
<rect x="338" y="11.8" width="11" height="6"/>
<rect x="360" y="11.8" class="st3" width="11" height="6"/>
<rect x="385" y="11.8" class="st3" width="11" height="6"/>
<rect x="407" y="11.8" width="11" height="6"/>
<rect x="429" y="11.8" width="11" height="6"/>
<rect x="451" y="11.8" class="st3" width="11" height="6"/>
<g>
	<rect x="304" class="st5" width="10.9" height="11.8"/>
	<path d="M304.9,8.7l-0.4-0.4c0.3-0.3,0.7-0.6,1.2-1.1c0.4-0.5,0.8-0.9,1-1.3h-1.8V5.2h1.8v-1h-1.9V3.6h1l-0.4-1.5H305V1.5h1.8V0.5
		h0.7v0.9h1.8v0.6h-0.5l-0.5,1.5h1v0.6h-1.9v1h1.6v0.6h-1.6v0.2c0.4,0.4,0.9,0.8,1.5,1.2l-0.4,0.6c-0.5-0.4-0.9-0.7-1.2-1v2.7h-0.8
		V6.8C306.1,7.7,305.5,8.3,304.9,8.7z M306.2,2.1l0.4,1.5h1.1l0.4-1.5H306.2z M312.3,9.3V4.2h-1.6v0.5c0,1.9-0.5,3.5-1.5,4.6
		L308.7,9c0.4-0.5,0.7-1.1,0.9-1.8s0.3-1.5,0.3-2.3V1.4c1.6-0.2,2.8-0.5,3.7-0.8l0.4,0.6c-0.9,0.3-2,0.5-3.3,0.7v1.8h3.6v0.6H313
		v5.1H312.3z"/>
</g>
<g>
	<rect x="451" class="st5" width="10.9" height="11.8"/>
	<path d="M451.9,8.7l-0.4-0.4c0.3-0.3,0.7-0.6,1.2-1.1c0.4-0.5,0.8-0.9,1-1.3h-1.8V5.2h1.8v-1h-1.9V3.6h1.1l-0.4-1.5H452V1.5h1.8
		V0.5h0.7v0.9h1.8v0.6h-0.5l-0.5,1.5h1v0.6h-1.9v1h1.6v0.6h-1.6v0.2c0.4,0.4,0.9,0.8,1.5,1.2l-0.4,0.6c-0.5-0.4-0.9-0.7-1.2-1v2.7
		h-0.8V6.8C453.1,7.7,452.5,8.3,451.9,8.7z M453.2,2.1l0.4,1.5h1.1l0.4-1.5H453.2z M459.3,9.3V4.2h-1.6v0.5c0,1.9-0.5,3.5-1.5,4.6
		L455.7,9c0.4-0.5,0.7-1.1,0.9-1.8c0.2-0.7,0.3-1.5,0.3-2.3V1.4c1.6-0.2,2.8-0.5,3.7-0.8l0.4,0.6c-0.9,0.3-2,0.5-3.3,0.7v1.8h3.6
		v0.6H460v5.1H459.3z"/>
</g>
<g>
	<rect x="360" class="st5" width="10.9" height="11.8"/>
	<path d="M360.9,8.7l-0.4-0.4c0.3-0.3,0.7-0.6,1.2-1.1c0.4-0.5,0.8-0.9,1-1.3h-1.8V5.2h1.8v-1h-1.9V3.6h1l-0.4-1.5H361V1.5h1.8V0.5
		h0.7v0.9h1.8v0.6h-0.5l-0.5,1.5h1v0.6h-1.9v1h1.6v0.6h-1.6v0.2c0.4,0.4,0.9,0.8,1.5,1.2l-0.4,0.6c-0.5-0.4-0.9-0.7-1.2-1v2.7h-0.8
		V6.8C362.1,7.7,361.5,8.3,360.9,8.7z M362.2,2.1l0.4,1.5h1.1l0.4-1.5H362.2z M368.3,9.3V4.2h-1.6v0.5c0,1.9-0.5,3.5-1.5,4.6
		L364.7,9c0.4-0.5,0.7-1.1,0.9-1.8s0.3-1.5,0.3-2.3V1.4c1.6-0.2,2.8-0.5,3.7-0.8l0.4,0.6c-0.9,0.3-2,0.5-3.3,0.7v1.8h3.6v0.6H369
		v5.1H368.3z"/>
</g>
<g>
	<rect x="385" class="st5" width="10.9" height="11.8"/>
	<path d="M385.9,8.7l-0.4-0.4c0.3-0.3,0.7-0.6,1.2-1.1c0.4-0.5,0.8-0.9,1-1.3h-1.8V5.2h1.8v-1h-1.9V3.6h1.1l-0.4-1.5H386V1.5h1.8
		V0.5h0.7v0.9h1.8v0.6h-0.5l-0.5,1.5h1v0.6h-1.9v1h1.6v0.6h-1.6v0.2c0.4,0.4,0.9,0.8,1.5,1.2l-0.4,0.6c-0.5-0.4-0.9-0.7-1.2-1v2.7
		h-0.8V6.8C387.1,7.7,386.5,8.3,385.9,8.7z M387.2,2.1l0.4,1.5h1.1l0.4-1.5H387.2z M393.3,9.3V4.2h-1.6v0.5c0,1.9-0.5,3.5-1.5,4.6
		L389.7,9c0.4-0.5,0.7-1.1,0.9-1.8c0.2-0.7,0.3-1.5,0.3-2.3V1.4c1.6-0.2,2.8-0.5,3.7-0.8l0.4,0.6c-0.9,0.3-2,0.5-3.3,0.7v1.8h3.6
		v0.6H394v5.1H393.3z"/>
</g>
<g>
	<rect x="75" class="st5" width="10.9" height="11.8"/>
	<path class="st1" d="M80.2,8.9h-4.5V7.6h4.5V8.9z M80,2.5h-4V1.2h4V2.5z M79.8,5.6h-3.6V4.4h3.6V5.6z"/>
	<path class="st1" d="M85.3,1.8h-1v0.3h-0.6V1.8h-1.2v0.4h-0.6V1.8h-1V1h1V0.6h0.6V1h1.2V0.6h0.6V1h1V1.8z M82.6,4.5
		c-0.1,0.5-0.3,0.9-0.6,1.2s-0.6,0.5-1.1,0.7l-0.2-0.9c0.6-0.1,1-0.4,1.2-0.9h-1.2V3.6h1.9V3.2H81V2.4h1.7V2h0.7v0.4H85v0.8h-1.6
		v0.4h1.9v0.9h-1.6v0.4c0,0.2,0,0.2,0.1,0.2h0.6c0,0,0.1,0,0.1-0.1c0,0,0-0.2,0-0.5L85,4.6v0.5c0,0.2,0,0.3-0.1,0.4
		s-0.1,0.2-0.2,0.2c-0.1,0-0.2,0.1-0.3,0.1s-0.2,0-0.4,0c-0.3,0-0.5,0-0.6,0c-0.1,0-0.2-0.1-0.2-0.2s-0.1-0.3-0.1-0.5V4.5H82.6z
		 M83,5.7c-0.1,0.2-0.1,0.3-0.2,0.5h1.7l0.3,0.5c-0.2,0.6-0.5,1-0.8,1.3c0.4,0.1,0.8,0.2,1.4,0.2l-0.2,1.1c-0.5,0-0.9-0.1-1.2-0.2
		c-0.3-0.1-0.6-0.2-0.8-0.3c-0.5,0.3-1.2,0.5-2.2,0.6l-0.1-1C81.5,8.3,82,8.2,82.3,8c-0.2-0.2-0.3-0.4-0.5-0.6
		c-0.2,0.2-0.5,0.4-0.7,0.5l-0.3-0.9c0.3-0.2,0.6-0.5,0.9-0.9s0.5-0.7,0.6-0.9L83,5.7z M83.1,7.7c0.2-0.2,0.4-0.4,0.6-0.7h-1.4
		C82.5,7.3,82.8,7.5,83.1,7.7z"/>
</g>
<g>
	<rect x="114" class="st5" width="10.9" height="11.8"/>
	<path class="st1" d="M119.2,8.9h-4.5V7.6h4.5V8.9z M119,2.5h-4V1.2h4V2.5z M118.8,5.6h-3.6V4.4h3.6V5.6z"/>
	<path class="st1" d="M124.3,1.8h-1v0.3h-0.6V1.8h-1.2v0.4h-0.6V1.8h-1V1h1V0.6h0.6V1h1.2V0.6h0.6V1h1V1.8z M121.6,4.5
		c-0.1,0.5-0.3,0.9-0.6,1.2s-0.6,0.5-1.1,0.7l-0.2-0.9c0.6-0.1,1-0.4,1.2-0.9h-1.2V3.6h1.9V3.2H120V2.4h1.7V2h0.7v0.4h1.6v0.8h-1.6
		v0.4h1.9v0.9h-1.6v0.4c0,0.2,0,0.2,0.1,0.2h0.6c0,0,0.1,0,0.1-0.1c0,0,0-0.2,0-0.5l0.5,0.1v0.5c0,0.2,0,0.3-0.1,0.4
		s-0.1,0.2-0.2,0.2c-0.1,0-0.2,0.1-0.3,0.1s-0.2,0-0.4,0c-0.3,0-0.5,0-0.6,0c-0.1,0-0.2-0.1-0.2-0.2s-0.1-0.3-0.1-0.5V4.5H121.6z
		 M122,5.7c-0.1,0.2-0.1,0.3-0.2,0.5h1.7l0.3,0.5c-0.2,0.6-0.5,1-0.8,1.3c0.4,0.1,0.8,0.2,1.4,0.2l-0.2,1.1c-0.5,0-0.9-0.1-1.2-0.2
		c-0.3-0.1-0.6-0.2-0.8-0.3c-0.5,0.3-1.2,0.5-2.2,0.6l-0.1-1c0.7-0.1,1.2-0.2,1.5-0.3c-0.2-0.2-0.3-0.4-0.5-0.6
		c-0.2,0.2-0.5,0.4-0.7,0.5l-0.3-0.9c0.3-0.2,0.6-0.5,0.9-0.9s0.5-0.7,0.6-0.9L122,5.7z M122.1,7.7c0.2-0.2,0.4-0.4,0.6-0.7h-1.4
		C121.5,7.3,121.8,7.5,122.1,7.7z"/>
</g>
<g>
	<rect x="170" class="st5" width="10.9" height="11.8"/>
	<path class="st1" d="M175.2,8.9h-4.5V7.6h4.5V8.9z M175,2.5h-4V1.2h4V2.5z M174.8,5.6h-3.6V4.4h3.6V5.6z"/>
	<path class="st1" d="M180.3,1.8h-1v0.3h-0.6V1.8h-1.2v0.4h-0.6V1.8h-1V1h1V0.6h0.6V1h1.2V0.6h0.6V1h1V1.8z M177.6,4.5
		c-0.1,0.5-0.3,0.9-0.6,1.2s-0.6,0.5-1.1,0.7l-0.2-0.9c0.6-0.1,1-0.4,1.2-0.9h-1.2V3.6h1.9V3.2H176V2.4h1.7V2h0.7v0.4h1.6v0.8h-1.6
		v0.4h1.9v0.9h-1.6v0.4c0,0.2,0,0.2,0.1,0.2h0.6c0,0,0.1,0,0.1-0.1c0,0,0-0.2,0-0.5l0.5,0.1v0.5c0,0.2,0,0.3-0.1,0.4
		s-0.1,0.2-0.2,0.2c-0.1,0-0.2,0.1-0.3,0.1s-0.2,0-0.4,0c-0.3,0-0.5,0-0.6,0c-0.1,0-0.2-0.1-0.2-0.2s-0.1-0.3-0.1-0.5V4.5H177.6z
		 M178,5.7c-0.1,0.2-0.1,0.3-0.2,0.5h1.7l0.3,0.5c-0.2,0.6-0.5,1-0.8,1.3c0.4,0.1,0.8,0.2,1.4,0.2l-0.2,1.1c-0.5,0-0.9-0.1-1.2-0.2
		c-0.3-0.1-0.6-0.2-0.8-0.3c-0.5,0.3-1.2,0.5-2.2,0.6l-0.1-1c0.7-0.1,1.2-0.2,1.5-0.3c-0.2-0.2-0.3-0.4-0.5-0.6
		c-0.2,0.2-0.5,0.4-0.7,0.5l-0.3-0.9c0.3-0.2,0.6-0.5,0.9-0.9s0.5-0.7,0.6-0.9L178,5.7z M178.1,7.7c0.2-0.2,0.4-0.4,0.6-0.7h-1.4
		C177.5,7.3,177.8,7.5,178.1,7.7z"/>
</g>
<g>
	<rect x="9" class="st5" width="10.9" height="11.8"/>
	<path class="st1" d="M14.2,8.9H9.7V7.6h4.5V8.9z M14,2.5h-4V1.2h4V2.5z M13.8,5.6h-3.6V4.4h3.6V5.6z"/>
	<path class="st1" d="M19.3,1.8h-1v0.3h-0.6V1.8h-1.2v0.4h-0.6V1.8h-1V1h1V0.6h0.6V1h1.2V0.6h0.6V1h1V1.8z M16.6,4.5
		c-0.1,0.5-0.3,0.9-0.6,1.2s-0.6,0.5-1.1,0.7l-0.2-0.9c0.6-0.1,1-0.4,1.2-0.9h-1.2V3.6h1.9V3.2H15V2.4h1.7V2h0.7v0.4H19v0.8h-1.6
		v0.4h1.9v0.9h-1.6v0.4c0,0.2,0,0.2,0.1,0.2h0.6c0,0,0.1,0,0.1-0.1c0,0,0-0.2,0-0.5L19,4.6v0.5c0,0.2,0,0.3-0.1,0.4
		s-0.1,0.2-0.2,0.2c-0.1,0-0.2,0.1-0.3,0.1s-0.2,0-0.4,0c-0.3,0-0.5,0-0.6,0c-0.1,0-0.2-0.1-0.2-0.2s-0.1-0.3-0.1-0.5V4.5H16.6z
		 M17,5.7c-0.1,0.2-0.1,0.3-0.2,0.5h1.7l0.3,0.5c-0.2,0.6-0.5,1-0.8,1.3c0.4,0.1,0.8,0.2,1.4,0.2l-0.2,1.1c-0.5,0-0.9-0.1-1.2-0.2
		c-0.3-0.1-0.6-0.2-0.8-0.3c-0.5,0.3-1.2,0.5-2.2,0.6l-0.1-1C15.5,8.3,16,8.2,16.3,8c-0.2-0.2-0.3-0.4-0.5-0.6
		c-0.2,0.2-0.5,0.4-0.7,0.5l-0.3-0.9c0.3-0.2,0.6-0.5,0.9-0.9s0.5-0.7,0.6-0.9L17,5.7z M17.1,7.7c0.2-0.2,0.4-0.4,0.6-0.7h-1.4
		C16.5,7.3,16.8,7.5,17.1,7.7z"/>
</g>
<g>
</g>
<g>
</g>
<g>
</g>
<g>
</g>
<g>
</g>
<g>
</g>
<g>
</g>
<g>
</g>
<g>
</g>
<g>
</g>
<g>
</g>
<g>
</g>
<g>
</g>
<g>
</g>
<g>
</g>
<g>
</g>
<g>
</g>
<g>
</g>
</svg>
