<?xml version="1.0" encoding="utf-8"?>
<!DOCTYPE svg PUBLIC "-//W3C//DTD SVG 1.1//EN" "http://www.w3.org/Graphics/SVG/1.1/DTD/svg11.dtd">
<svg version="1.1" xmlns="http://www.w3.org/2000/svg" xmlns:xlink="http://www.w3.org/1999/xlink" x="0px" y="0px" width="33px" height="33px" viewBox="0 0 33 33" enable-background="new 0 0 33 33" xml:space="preserve">
<g>
	<g>
		<path fill="#666666" d="M16.5,0.5c8.84,0,16,7.16,16,16s-7.16,16-16,16c-4.42,0-8.42-1.79-11.32-4.68L16.5,16.5L12.04,1.13C13.45,0.72,14.95,0.5,16.5,0.5z"/>
		<path fill="#FFFFFF" d="M12.04,1.13L16.5,16.5L5.18,27.82c-2.89-2.9-4.68-6.9-4.68-11.32C0.5,9.21,5.37,3.06,12.04,1.13z"/>
	</g>
	<g>
		<path fill="none" stroke="#000000" d="M12.04,1.13c1.41-0.41,2.91-0.63,4.46-0.63c8.84,0,16,7.16,16,16s-7.16,16-16,16c-4.42,0-8.42-1.79-11.32-4.68c-2.89-2.9-4.68-6.9-4.68-11.32C0.5,9.21,5.37,3.06,12.04,1.13z"/>
		<polyline fill="none" stroke="#000000" points="16.5,16.5 12.04,1.13 12,1"/>
		<polyline fill="none" stroke="#000000" points="16.5,16.5 5.18,27.82 5,28"/>
	</g>
</g>
<circle fill="none" stroke="#000000" stroke-width="0.25" cx="10" cy="6" r="0.5"/>
<circle fill="none" stroke="#000000" stroke-width="0.25" cx="7" cy="9" r="0.5"/>
<circle fill="none" stroke="#000000" stroke-width="0.25" cx="11" cy="11" r="0.5"/>
<circle fill="none" stroke="#000000" stroke-width="0.25" cx="5" cy="14" r="0.5"/>
<circle fill="none" stroke="#000000" stroke-width="0.25" cx="12" cy="16" r="0.5"/>
<circle fill="none" stroke="#000000" stroke-width="0.25" cx="6" cy="18" r="0.5"/>
<circle fill="none" stroke="#000000" stroke-width="0.25" cx="5" cy="22" r="0.5"/>
</svg>
