<?xml version="1.0" encoding="utf-8"?>
<!-- Generator: Adobe Illustrator 16.0.0, SVG Export Plug-In . SVG Version: 6.00 Build 0)  -->
<!DOCTYPE svg PUBLIC "-//W3C//DTD SVG 1.1//EN" "http://www.w3.org/Graphics/SVG/1.1/DTD/svg11.dtd">
<svg version="1.1" id="レイヤー_1" xmlns="http://www.w3.org/2000/svg" xmlns:xlink="http://www.w3.org/1999/xlink" x="0px"
	 y="0px" width="440px" height="975px" viewBox="0 0 440 975" style="enable-background:new 0 0 440 975;" xml:space="preserve">
<style type="text/css">
<![CDATA[
	.st0{fill:#E6E6E6;}
	.st1{fill:#808080;}
	.st2{fill:#1A1A1A;stroke:#000000;stroke-width:4;stroke-miterlimit:10;}
	.st3{enable-background:new    ;}
	.st4{fill:#8B8B8B;}
	.st5{fill:#BEBEBE;}
	.st6{fill:#C0C0C0;}
	.st7{fill:#C9C9C9;}
	.st8{fill:#FF0000;}
	.st9{fill:#FFFF00;}
	.st10{fill:#FFFFCC;}
	.st11{fill:#FFFFFF;}
	.st12{fill:none;}
	.st13{fill:#CCCCCC;}
	.st14{fill:#39B54A;}
	.st15{fill:#0000FF;}
]]>
</style>
<rect class="st10" width="440" height="975"/>
<rect x="155" y="569" width="131" height="45"/>
<g>
	<rect x="155" y="570.5" class="st12" width="131" height="37"/>
	<path class="st13" d="M163.5,607.5l0.5-2c3.4,0,3.8-0.5,4.6-3.6l4.7-20.3c0.2-0.9,0.3-1.6,0.3-2.1c0-1.3-0.8-1.6-3.5-1.6l0.5-2.1
		h15.2l-0.5,2.1c-3.2,0-3.6,0.5-4.3,3.7l-2.2,9.3h0.2l12-10.6c0.6-0.5,1.1-1.1,1.1-1.5c0-0.5-0.6-0.8-2.1-0.8l0.5-2.1h11.8l-0.5,2.1
		c-2.2,0-4.6,0.6-7.4,2.9l-8.8,7.5l7.6,14.5c1.2,2.2,1.8,2.6,4.1,2.6l-0.5,2h-10l-6.9-14.5l-2,1.7l-1.6,7.2
		c-0.2,0.9-0.3,1.5-0.3,2.1c0,1.3,0.8,1.6,3.4,1.6l-0.5,2H163.5z"/>
	<path class="st13" d="M217.5,596.5c0,5.4-3.2,11.4-11.3,11.4c-4.6,0-7.4-2.7-7.4-7.3c0-4.7,3.1-11.4,11.1-11.4
		C214.8,589.2,217.5,592.3,217.5,596.5z M203.5,601.8c0,2.8,0.8,5,3.2,5c3.9,0,6-6.2,6-11.7c0-1.8-0.4-4.6-3.1-4.6
		C205.8,590.4,203.5,596.7,203.5,601.8z"/>
	<path class="st13" d="M216,607.6l0.3-1.2c2,0,2.3-0.3,2.7-2.1l2.7-11.6c0.1-0.5,0.2-0.9,0.2-1.2c0-0.8-0.5-0.9-2.1-0.9l0.3-1.2h9.1
		l-0.3,1.2c-2,0-2.3,0.3-2.7,2.1l-2.7,11.6c-0.1,0.4-0.2,0.8-0.2,1.1c0,0.8,0.6,1,2.2,1l-0.2,1.2H216z"/>
	<path class="st13" d="M230.8,607.5l0.5-2c4,0,4.5-0.5,5.3-3.6l5.7-23.6h-3.3c-2.8,0-3.5,0.5-6.4,5.9h-2.8l2.8-8.3h28.3l-1.5,8.3h-3
		c0.1-0.9,0.1-1.7,0.1-2.3c0-3.4-1.1-3.6-3.8-3.6h-3l-5.3,23.6c-0.2,0.8-0.3,1.5-0.3,2c0,1.3,0.9,1.6,4,1.6l-0.5,2H230.8z"/>
	<path class="st13" d="M275.5,596.5c0,5.4-3.2,11.4-11.3,11.4c-4.6,0-7.4-2.7-7.4-7.3c0-4.7,3.1-11.4,11.1-11.4
		C272.8,589.2,275.5,592.3,275.5,596.5z M261.5,601.8c0,2.8,0.8,5,3.2,5c3.9,0,6-6.2,6-11.7c0-1.8-0.4-4.6-3.1-4.6
		C263.8,590.4,261.5,596.7,261.5,601.8z"/>
</g>
<rect x="53" y="101" class="st2" width="334" height="278"/>
<g>
	<g>
		<g class="st3">
			<g>
				<path class="st5" d="M54,102h83H54z"/>
			</g>
			<g>
				<polygon class="st1" points="135,128 137,130 54,130 56,128 				"/>
			</g>
			<g>
				<polygon class="st6" points="56,128 54,130 54,102 56,104 				"/>
			</g>
			<g>
				<polygon class="st7" points="56,104 54,102 137,102 135,104 				"/>
			</g>
			<g>
				<polygon class="st1" points="135,104 137,102 137,130 135,128 				"/>
			</g>
			<g>
				<rect x="56" y="104" class="st4" width="79" height="24"/>
			</g>
		</g>
	</g>
</g>
<rect x="56" y="104" class="st11" width="79" height="24"/>
<g>
	<rect x="56" y="111.5" class="st12" width="79" height="9"/>
	<path d="M88.7,112.6l0.4,0.2c0,0-0.1,0.1-0.1,0.1c-1.2,2-3.9,3.3-6.2,3.9c-0.1-0.2-0.2-0.4-0.3-0.5c1.2-0.2,2.4-0.7,3.5-1.3
		c-0.3-0.3-0.9-0.6-1.3-0.8l0.4-0.4c0.5,0.2,1.1,0.6,1.4,0.8c0.7-0.4,1.2-0.9,1.6-1.5h-2.7c-0.7,0.5-1.4,1-2.4,1.4
		c-0.1-0.1-0.3-0.4-0.4-0.5c1.6-0.6,2.8-1.5,3.4-2.2l0.8,0.2c0,0.1-0.1,0.1-0.2,0.1c-0.2,0.2-0.4,0.4-0.5,0.5L88.7,112.6L88.7,112.6
		z M90,115.8l0.1,0c0.3,0.2,0.4,0.2,0.4,0.2c0,0-0.1,0.1-0.1,0.1c-1.2,2.6-4,3.7-7,4.2c0-0.2-0.2-0.4-0.3-0.6
		c1.4-0.2,2.9-0.6,4.1-1.2c-0.4-0.4-1-0.8-1.5-1l0.5-0.3c0.5,0.3,1.2,0.7,1.6,1.1c0.8-0.5,1.4-1.1,1.8-1.9h-2.8
		c-0.8,0.5-1.8,1.1-2.9,1.5c-0.1-0.1-0.3-0.4-0.4-0.5c1.9-0.6,3.3-1.6,4-2.4l0.8,0.2c0,0.1-0.1,0.1-0.2,0.1
		c-0.2,0.2-0.4,0.4-0.6,0.6H90z"/>
	<path d="M99.6,113.1h-7v2.3c0,1.4-0.1,3.4-0.9,4.8c-0.1-0.1-0.3-0.3-0.5-0.4c0.7-1.3,0.8-3.1,0.8-4.4v-2.8h3.4v-0.7l0.8,0.1
		c0,0.1-0.1,0.1-0.2,0.1v0.5h3.6V113.1z M96.5,117.7v0.7h3.2v0.4h-3.2v0.8c0,0.4-0.1,0.5-0.4,0.6c-0.3,0.1-0.8,0.1-1.6,0.1
		c0-0.1-0.1-0.3-0.2-0.5c0.4,0,0.7,0,1,0c0.5,0,0.6,0,0.6-0.2v-0.8h-3.2v-0.4h3.2v-0.7h-2.7v-0.4h2.7v-0.6c-0.8,0.1-1.6,0.1-2.4,0.1
		c0-0.1-0.1-0.3-0.1-0.4c1.7,0,3.9-0.2,5-0.4l0.4,0.4c0,0-0.1,0-0.1,0c0,0,0,0-0.1,0c-0.5,0.1-1.3,0.2-2.1,0.3v0.6h2.7v0.4H96.5z
		 M96.1,114.3h-1.3v0.1c0.3,0.2,1.1,0.6,1.2,0.8l-0.3,0.4c-0.2-0.2-0.6-0.5-0.9-0.7v1.1h-0.5v-1.2c-0.4,0.5-0.8,0.9-1.3,1.1
		c-0.1-0.1-0.2-0.3-0.3-0.4c0.5-0.2,1.1-0.7,1.4-1.2h-1.2v-0.5h1.3v-0.7l0.6,0c0,0.1-0.1,0.1-0.2,0.1v0.5h1.3V114.3z M98.1,115.9
		h-0.5v-1.2c-0.4,0.5-0.8,0.9-1.3,1.1c-0.1-0.1-0.2-0.3-0.3-0.4c0.5-0.2,1-0.7,1.4-1.2h-1.1v-0.5h1.3v-0.7l0.6,0
		c0,0.1-0.1,0.1-0.2,0.1v0.5h1.4v0.5h-1.2c0.4,0.5,0.9,0.9,1.4,1.2c-0.1,0.1-0.3,0.3-0.3,0.4c-0.4-0.3-0.9-0.7-1.3-1.2V115.9z"/>
	<path d="M101.4,112.3l0.8,0.1c0,0.1-0.1,0.1-0.2,0.1v2.9c0,1.7-0.1,3.5-1.3,4.8c-0.1-0.1-0.4-0.3-0.5-0.4c1.1-1.3,1.2-2.8,1.2-4.4
		V112.3z M104.3,112.7l0.8,0c0,0.1-0.1,0.1-0.2,0.1v6.5h-0.6V112.7z M107.5,112.3l0.8,0.1c0,0.1-0.1,0.1-0.2,0.1v7.7h-0.6V112.3z"/>
</g>
<g>
	<g>
		<g class="st3">
			<g>
				<path class="st5" d="M137,102h83H137z"/>
			</g>
			<g>
				<polygon class="st1" points="218,128 220,130 137,130 139,128 				"/>
			</g>
			<g>
				<polygon class="st6" points="139,128 137,130 137,102 139,104 				"/>
			</g>
			<g>
				<polygon class="st7" points="139,104 137,102 220,102 218,104 				"/>
			</g>
			<g>
				<polygon class="st1" points="218,104 220,102 220,130 218,128 				"/>
			</g>
			<g>
				<rect x="139" y="104" class="st4" width="79" height="24"/>
			</g>
		</g>
	</g>
</g>
<rect x="139" y="104" class="st11" width="79" height="24"/>
<g>
	<rect x="139" y="111.5" class="st12" width="79" height="9"/>
	<path d="M165.6,115.4c0.5,0.2,1.2,0.5,1.6,0.8l-0.3,0.5c-0.3-0.3-1-0.6-1.6-0.9L165.6,115.4z M173.6,115h-2.7v0.7h2.2v3.9
		c0,0.6-0.3,0.6-1.3,0.6c0-0.1-0.1-0.4-0.2-0.5c0.2,0,0.4,0,0.5,0c0.4,0,0.4,0,0.4-0.1v-0.9h-1.6v1.5h-0.6v-1.5h-1.5v1.6h-0.6v-4.5
		h2.1V115h-2.5v-0.5h2.5v-0.9l0.4,0v-0.5h-2.5v0.6h-0.6v-0.6h-2.2v-0.5h2.2v-0.7l0.8,0c0,0.1-0.1,0.1-0.2,0.1v0.6h2.5v-0.7l0.8,0
		c0,0.1-0.1,0.1-0.2,0.1v0.6h2.3v0.5h-2.3v0.6H171c0,0-0.1,0.1-0.2,0.1v0.7h2.7V115z M165.5,119.8c0.4-0.5,0.9-1.5,1.3-2.3l0.4,0.4
		c-0.4,0.7-0.8,1.6-1.1,2.1c0,0,0,0.1,0,0.1c0,0,0,0.1,0,0.1L165.5,119.8z M167.2,115c-0.3-0.3-1-0.7-1.5-0.9l0.3-0.4
		c0.5,0.2,1.2,0.6,1.5,0.8L167.2,115z M170.3,116.2h-1.5v0.7h1.5V116.2z M168.7,118.2h1.5v-0.8h-1.5V118.2z M172.4,116.2h-1.6v0.7
		h1.6V116.2z M170.9,118.2h1.6v-0.8h-1.6V118.2z M171.9,113.4c0.4,0.2,0.9,0.5,1.2,0.7l-0.3,0.4c-0.3-0.2-0.8-0.6-1.2-0.7
		L171.9,113.4z"/>
	<path d="M183.8,112.5h7.5v7.7h-0.6v-0.6h-6.2v0.6h-0.6V112.5z M187.2,113h-2.8v2.6h2.8V113z M184.4,116.3v2.7h2.8v-2.7H184.4z
		 M190.6,115.7V113h-2.9v2.6H190.6z M187.8,118.9h2.9v-2.7h-2.9V118.9z"/>
</g>
<g>
	<g>
		<g class="st3">
			<g>
				<path class="st5" d="M220,102h83H220z"/>
			</g>
			<g>
				<polygon class="st1" points="301,128 303,130 220,130 222,128 				"/>
			</g>
			<g>
				<polygon class="st6" points="222,128 220,130 220,102 222,104 				"/>
			</g>
			<g>
				<polygon class="st7" points="222,104 220,102 303,102 301,104 				"/>
			</g>
			<g>
				<polygon class="st1" points="301,104 303,102 303,130 301,128 				"/>
			</g>
			<g>
				<rect x="222" y="104" class="st4" width="79" height="24"/>
			</g>
		</g>
	</g>
</g>
<rect x="222" y="104" class="st11" width="79" height="24"/>
<g>
	<rect x="222" y="111.5" class="st12" width="79" height="9"/>
	<path d="M243.8,113.4h3.6v2h-0.6v-1.5h-3v2.4h-0.6v-2.4h-3v1.5h-0.5v-2h3.5v-0.7h-3v-0.5h6.6v0.5h-3.1V113.4z M240.5,117.2v-0.5
		h5.9v3.4h-0.6v-0.4h-5.5v-0.5h5.5v-0.8h-5.1V118h5.1v-0.8H240.5z M240.5,116v-0.5h2.2v0.5H240.5z M240.7,114.5h2v0.5h-2V114.5z
		 M244.3,114.5h2v0.5h-2V114.5z M244.3,116v-0.5h2.3v0.5H244.3z"/>
	<path d="M251.8,112.3c0,0.1-0.1,0.2-0.3,0.2c-0.1,0.5-0.3,1.4-0.4,1.9c0.4,0,0.8-0.1,1-0.1c1.4,0,1.8,0.9,1.8,2.2
		c0,0.7-0.1,1.5-0.3,2c-0.3,0.9-0.9,1.4-1.6,1.4c-0.4,0-0.9-0.2-1.6-0.8c0.1-0.2,0.2-0.4,0.2-0.5c0.7,0.6,1.1,0.7,1.4,0.7
		c0.5,0,0.8-0.3,1-0.9c0.2-0.6,0.3-1.4,0.3-1.8c0-1-0.3-1.6-1.2-1.6c-0.3,0-0.6,0-1.1,0.1c-0.5,1.8-1,3.4-1.8,4.9l-0.6-0.3
		c0.9-1.4,1.4-2.8,1.8-4.5c-0.5,0.1-1.1,0.1-1.6,0.2l-0.1-0.6c0.4-0.1,1.2-0.1,1.8-0.2c0.1-0.7,0.3-1.5,0.4-2.3L251.8,112.3z
		 M253.9,112c0.4,0.3,0.9,0.9,1.2,1.3l-0.4,0.3c-0.3-0.4-0.8-1-1.2-1.3L253.9,112z M255.9,117.2c-0.3-1.3-1-2.4-1.8-3.1l0.5-0.4
		c0.9,0.7,1.7,1.9,2,3.2L255.9,117.2z M255.2,111.6c0.4,0.3,1,0.9,1.2,1.3l-0.4,0.3c-0.3-0.4-0.8-1-1.2-1.3L255.2,111.6z"/>
	<path d="M259,116.7c-0.4,0.3-0.9,0.6-1.3,0.8c-0.1-0.1-0.2-0.3-0.4-0.5c1.6-0.8,3.1-2.3,3.8-3.5l0.9,0c0,0.1-0.1,0.1-0.2,0.1
		c0.9,1.3,2.5,2.6,3.9,3.3c-0.1,0.1-0.3,0.4-0.4,0.5c-0.4-0.2-0.8-0.5-1.3-0.8v3.5h-0.6v-0.4h-3.9v0.4H259V116.7z M260.7,112.3
		c0,0.1-0.1,0.1-0.2,0.1c-0.6,0.8-1.5,1.7-2.4,2.2c-0.1-0.1-0.3-0.3-0.5-0.4c0.8-0.5,1.8-1.3,2.3-2.2L260.7,112.3z M263.9,116.5
		c-1-0.7-1.9-1.6-2.4-2.4c-0.5,0.8-1.3,1.6-2.3,2.4H263.9z M259.6,119.3h3.9v-2.2h-3.9V119.3z M262.8,112c0.9,0.6,2,1.5,2.5,2.2
		l-0.5,0.4c-0.5-0.6-1.6-1.6-2.5-2.2L262.8,112z"/>
	<path d="M274.5,115.1H271c0.6,2.2,1.7,3.8,3.7,4.5c-0.2,0.1-0.4,0.4-0.5,0.6c-1.9-0.8-3-2.4-3.7-4.5c-0.4,1.8-1.4,3.5-3.7,4.5
		c-0.1-0.2-0.3-0.4-0.4-0.5c2.4-1,3.3-2.8,3.6-4.6h-3.5v-0.6h3.6c0.1-0.9,0.1-1.9,0.1-2.6l0.8,0c0,0.1-0.1,0.1-0.2,0.2
		c0,0.7,0,1.6-0.1,2.4h3.8V115.1z"/>
	<path d="M278.1,116.8l0.1,0.5c-0.9,0.3-1.9,0.6-2.5,0.8c0,0.1,0,0.1-0.1,0.2l-0.3-0.7c0.3-0.1,0.7-0.2,1.1-0.3v-2.6h-1V114h1v-2.2
		l0.8,0.1c0,0.1-0.1,0.1-0.2,0.1v2h1v0.6h-1v2.5L278.1,116.8z M281.3,114.5c0.1,0.6,0.3,1.2,0.5,1.7c0.5-0.3,1-0.8,1.3-1.2l0.5,0.5
		c0,0.1-0.1,0.1-0.2,0c-0.4,0.3-1,0.8-1.5,1.1c0.4,0.9,1,1.6,1.7,2c-0.1,0.1-0.3,0.4-0.4,0.5c-1.3-0.8-2-2.5-2.4-4.5
		c-0.3,0.2-0.6,0.5-1,0.7c1.2,0.9,1.6,2.1,1.6,3.1c0,0.6-0.2,1.1-0.6,1.4c-0.3,0.3-0.6,0.3-1.1,0.3c-0.2,0-0.4,0-0.6,0
		c0-0.2-0.1-0.4-0.2-0.6c0.3,0,0.6,0,0.8,0c0.9,0,1-0.8,1-1.2c0-0.3,0-0.5-0.1-0.8c-0.8,0.8-2.1,1.6-3.1,2.1
		c-0.1-0.1-0.2-0.4-0.3-0.5c1.1-0.4,2.5-1.3,3.3-2.1c-0.1-0.2-0.2-0.4-0.4-0.6c-0.6,0.5-1.6,1.2-2.3,1.5c-0.1-0.1-0.2-0.3-0.4-0.4
		c0.7-0.3,1.8-0.9,2.4-1.4c-0.1-0.2-0.3-0.3-0.5-0.5c-0.4,0.3-0.9,0.5-1.3,0.7c-0.1-0.1-0.2-0.3-0.4-0.4c0.8-0.3,1.8-0.9,2.5-1.4
		h-1.7V114h4.3v0.5H281.3z M278.8,112.7v1.2h-0.6v-1.7h5.2v1.7h-0.6v-1.2H278.8z"/>
</g>
<g>
	<g>
		<g class="st3">
			<g>
				<path class="st5" d="M303,102h83H303z"/>
			</g>
			<g>
				<polygon class="st1" points="384,128 386,130 303,130 305,128 				"/>
			</g>
			<g>
				<polygon class="st6" points="305,128 303,130 303,102 305,104 				"/>
			</g>
			<g>
				<polygon class="st7" points="305,104 303,102 386,102 384,104 				"/>
			</g>
			<g>
				<polygon class="st1" points="384,104 386,102 386,130 384,128 				"/>
			</g>
			<g>
				<rect x="305" y="104" class="st4" width="79" height="24"/>
			</g>
		</g>
	</g>
</g>
<rect x="305" y="104" class="st9" width="79" height="24"/>
<g>
	<rect x="305" y="111.5" class="st12" width="79" height="9"/>
	<path d="M338,119.1h1.5v0.6h-8.1v-0.6h2.1c0.2-0.9,0.4-2,0.7-3.1h-1.8v-0.6h1.9c0.1-0.7,0.3-1.4,0.4-2.1H332v-0.6h7.1v0.6h-3.8
		c-0.1,0.7-0.2,1.4-0.4,2.1h3.1V119.1z M337.4,116h-2.6c-0.2,1.1-0.5,2.2-0.6,3.1h3.2V116z"/>
	<path d="M347.2,114.8l0.4,0.2c0,0.1-0.1,0.1-0.1,0.1c-0.4,1.4-1.1,2.5-2,3.3c0.8,0.6,1.8,1,2.9,1.3c-0.1,0.1-0.3,0.4-0.4,0.6
		c-1.2-0.3-2.2-0.8-3-1.4c-0.8,0.6-1.8,1.1-2.8,1.4c-0.1-0.2-0.2-0.4-0.4-0.6c1-0.3,1.9-0.7,2.7-1.3c-0.8-0.7-1.3-1.6-1.7-2.7
		l0.6-0.2c0.4,1,0.9,1.8,1.6,2.5c0.7-0.7,1.3-1.5,1.7-2.6h-4.6c0,1.5-0.2,3.4-1.2,4.8c-0.1-0.1-0.4-0.3-0.5-0.4
		c1-1.4,1.1-3.4,1.1-4.9v-2.5h6.7v0.6h-6v1.8h4.9L347.2,114.8z"/>
	<path d="M349.8,112.5h7.5v7.7h-0.6v-0.6h-6.2v0.6h-0.6V112.5z M353.2,113h-2.8v2.6h2.8V113z M350.4,116.3v2.7h2.8v-2.7H350.4z
		 M356.6,115.7V113h-2.9v2.6H356.6z M353.8,118.9h2.9v-2.7h-2.9V118.9z"/>
</g>
<g>
	<g>
		<g class="st3">
			<g>
				<path class="st5" d="M54,142h83H54z"/>
			</g>
			<g>
				<polygon class="st1" points="135,168 137,170 54,170 56,168 				"/>
			</g>
			<g>
				<polygon class="st6" points="56,168 54,170 54,142 56,144 				"/>
			</g>
			<g>
				<polygon class="st7" points="56,144 54,142 137,142 135,144 				"/>
			</g>
			<g>
				<polygon class="st1" points="135,144 137,142 137,170 135,168 				"/>
			</g>
			<g>
				<rect x="56" y="144" class="st4" width="79" height="24"/>
			</g>
		</g>
	</g>
</g>
<rect x="56" y="144" class="st15" width="79" height="24"/>
<g>
	<rect x="56" y="151.5" class="st12" width="79" height="9"/>
	<path class="st11" d="M88.9,152.7l0.5,0.3c0,0-0.1,0.1-0.1,0.1c-0.5,0.9-1.3,1.7-2.2,2.3c1.1,0.7,2.4,1.2,3.7,1.5
		c-0.1,0.1-0.3,0.4-0.4,0.5c-0.4-0.1-0.8-0.2-1.1-0.3v3.1h-0.6v-0.4h-4.2v0.4h-0.6V157c-0.4,0.2-0.8,0.3-1.3,0.4
		c-0.1-0.2-0.2-0.4-0.3-0.5c1.2-0.3,2.6-0.8,3.7-1.5c-0.6-0.5-1.2-1-1.6-1.5c-0.5,0.5-1,0.9-1.6,1.2c-0.1-0.1-0.3-0.3-0.4-0.4
		c1.1-0.6,2.3-1.7,3-2.8l0.7,0.3c0,0.1-0.1,0.1-0.2,0.1c-0.1,0.2-0.3,0.4-0.5,0.6h3.4L88.9,152.7z M88.8,156.9
		c-0.8-0.3-1.6-0.7-2.3-1.2c-0.7,0.5-1.5,0.9-2.3,1.2H88.8z M84.4,159.2h4.2v-1.8h-4.2V159.2z M84.9,153.3l-0.2,0.2
		c0.5,0.6,1,1.1,1.7,1.6c0.7-0.5,1.4-1.1,1.9-1.8H84.9z"/>
	<path class="st11" d="M101.4,155c-0.3,0.5-0.7,1.1-1,1.5c-0.1-0.1-0.2-0.4-0.3-0.6c0.8-0.9,1.6-2.5,2.1-4.1l0.7,0.2
		c0,0.1-0.1,0.1-0.2,0.1c-0.2,0.6-0.5,1.2-0.8,1.8l0.2,0.1c0,0.1-0.1,0.1-0.2,0.1v6h-0.6V155z M102.6,156.2h6.1v1.5h-0.6v-1h-5v1
		h-0.5V156.2z M102.8,152.7h2.6v-0.9l0.8,0c0,0.1-0.1,0.1-0.2,0.1v0.7h2.7v0.5h-5.9V152.7z M107.9,155.6h-4.4v-1.8h4.4V155.6z
		 M103.6,157.8v-0.5h4.2v0.5H106v1.7c0,0.4-0.1,0.5-0.4,0.6c-0.3,0.1-0.6,0.1-1.6,0.1c0-0.2-0.1-0.4-0.2-0.6c0.3,0,0.7,0,0.9,0
		c0.7,0,0.7,0,0.7-0.2v-1.6H103.6z M104.1,154.2v0.9h3.2v-0.9H104.1z"/>
</g>
<g>
	<g>
		<g class="st3">
			<g>
				<path class="st5" d="M137,142h83H137z"/>
			</g>
			<g>
				<polygon class="st1" points="218,168 220,170 137,170 139,168 				"/>
			</g>
			<g>
				<polygon class="st6" points="139,168 137,170 137,142 139,144 				"/>
			</g>
			<g>
				<polygon class="st7" points="139,144 137,142 220,142 218,144 				"/>
			</g>
			<g>
				<polygon class="st1" points="218,144 220,142 220,170 218,168 				"/>
			</g>
			<g>
				<rect x="139" y="144" class="st4" width="79" height="24"/>
			</g>
		</g>
	</g>
</g>
<rect x="139" y="144" class="st11" width="79" height="24"/>
<g>
	<rect x="139" y="151.5" class="st12" width="79" height="9"/>
	<path class="st8" d="M165.3,153.8v-0.5h3.2v0.5H165.3z M168.3,157v2.6h-2.1v0.4h-0.5V157H168.3z M168.3,154.6v0.5h-2.6v-0.5H168.3z
		 M165.7,156.3v-0.5h2.6v0.5H165.7z M168.2,152.1v0.5h-2.5v-0.5H168.2z M167.7,157.5h-1.5v1.6h1.5V157.5z M170.3,158.6l1.1-0.2
		l0,0.5c-1,0.2-2,0.5-2.6,0.6c0,0.1-0.1,0.1-0.1,0.1l-0.3-0.6c0.3-0.1,0.8-0.1,1.2-0.2v-2.7h-1v-0.5h2.5v0.5h-1V158.6z M173.6,154.2
		h-1.4c0.1,2.8,0.2,5.2,0.9,5.3h0c0.1,0,0.2-0.6,0.3-1.3c0.1,0.1,0.3,0.3,0.4,0.3c-0.1,1.1-0.4,1.6-0.8,1.6c-0.1,0-0.1,0-0.2,0
		c-1-0.3-1.2-2.8-1.3-5.9h-2.9v-0.6h2.9l0-1.8l0.8,0c0,0.1-0.1,0.1-0.2,0.1c0,0.6,0,1.1,0,1.7h1.4V154.2z M172.7,151.9
		c0.4,0.4,0.8,0.8,1,1.2l-0.5,0.3c-0.2-0.3-0.6-0.9-1-1.2L172.7,151.9z"/>
	<path class="st8" d="M176.1,155.4v3c0.7,1.1,2,1.1,3.7,1.1c1,0,2.1,0,2.8-0.1c-0.1,0.1-0.2,0.4-0.2,0.6c-0.6,0-1.6,0-2.5,0
		c-2,0-3.2,0-4.1-1.1c-0.4,0.4-0.8,0.8-1.2,1.1c0,0.1,0,0.1-0.1,0.1l-0.4-0.6c0.4-0.3,0.9-0.7,1.3-1.1V156h-1.2v-0.6H176.1z
		 M174.9,152c0.6,0.4,1.2,1.1,1.5,1.5l-0.5,0.4c-0.3-0.5-0.9-1.1-1.5-1.5L174.9,152z M179.2,159.2v-0.9h-2.7v-0.5h2.7v-0.6h-2v-2.6
		h2V154h-2.3v-0.5h2.3v-0.7l0.8,0c0,0.1-0.1,0.1-0.2,0.1v0.5h2.3v0.5h-2.3v0.6h2v2.6h-2v0.6h2.7v0.5h-2.7v0.9H179.2z M177.3,152.6
		v0.7h-0.5v-1.2h5.6v1.2h-0.6v-0.7H177.3z M177.8,155v0.6h1.4V155H177.8z M177.8,156.7h1.4v-0.7h-1.4V156.7z M181.3,155h-1.5v0.6
		h1.5V155z M181.3,156.7v-0.7h-1.5v0.7H181.3z"/>
	<path class="st8" d="M187.4,158.6h-1.8v1.6h-0.6v-1.6h-1.8V158h1.8v-0.8h-1.4v-3.2h1.4v-0.7h-1.7v-0.5h1.7v-1l0.7,0
		c0,0.1-0.1,0.1-0.2,0.1v0.8h1.6v0.5h-1.6v0.7h1.5v3.2h-1.5v0.8h1.8V158.6z M184.2,154.6v0.9h1v-0.9H184.2z M184.2,155.9v0.9h1v-0.9
		H184.2z M186.7,155.4v-0.9h-1v0.9H186.7z M186.7,156.8v-0.9h-1v0.9H186.7z M190.5,157.1c0.5,0.9,1,2.1,1.2,2.9l-0.6,0.2
		c0-0.2-0.1-0.4-0.2-0.7c-1.3,0.1-2.6,0.3-3.4,0.4c0,0.1-0.1,0.1-0.1,0.1l-0.2-0.7c0.2,0,0.5,0,0.7,0c0.3-0.9,0.6-2.3,0.8-3.3h-1.3
		v-0.6h4.3v0.6h-2.4c-0.2,1-0.5,2.3-0.8,3.3c0.7,0,1.5-0.1,2.3-0.2c-0.2-0.6-0.5-1.2-0.8-1.7L190.5,157.1z M191.3,152.5v0.6h-3.5
		v-0.6H191.3z"/>
</g>
<g>
	<g>
		<g class="st3">
			<g>
				<path class="st5" d="M220,142h83H220z"/>
			</g>
			<g>
				<polygon class="st1" points="301,168 303,170 220,170 222,168 				"/>
			</g>
			<g>
				<polygon class="st6" points="222,168 220,170 220,142 222,144 				"/>
			</g>
			<g>
				<polygon class="st7" points="222,144 220,142 303,142 301,144 				"/>
			</g>
			<g>
				<polygon class="st1" points="301,144 303,142 303,170 301,168 				"/>
			</g>
			<g>
				<rect x="222" y="144" class="st4" width="79" height="24"/>
			</g>
		</g>
	</g>
</g>
<rect x="222" y="144" class="st11" width="79" height="24"/>
<g>
	<rect x="222" y="151.5" class="st12" width="79" height="9"/>
	<path class="st14" d="M248.8,152.4h7.4v7.8h-0.6v-0.6h-6.2v0.6h-0.6V152.4z M249.4,158.9h6.2V153h-6.2V158.9z M250.8,154.4h3.4v3.1
		h-3.4V154.4z M253.6,156.9v-2h-2.3v2H253.6z"/>
	<path class="st14" d="M268.3,155.4v2.9c0.7,1.1,2,1.1,3.6,1.1c1,0,2.1,0,2.8-0.1c-0.1,0.1-0.2,0.4-0.2,0.6c-0.6,0-1.6,0-2.5,0
		c-1.9,0-3.1,0-4-1.1c-0.4,0.4-0.9,0.8-1.3,1.1c0,0.1,0,0.1-0.1,0.1l-0.4-0.7c0.4-0.3,1-0.7,1.4-1.1V156h-1.3v-0.6H268.3z
		 M266.9,152c0.6,0.4,1.3,1,1.6,1.4l-0.5,0.4c-0.3-0.5-1-1.1-1.6-1.5L266.9,152z M274.6,156h-2.4c0.4,1.2,1.2,2,2.4,2.4
		c-0.1,0.1-0.3,0.3-0.4,0.5c-1.2-0.4-2-1.2-2.5-2.5c-0.3,0.8-0.9,1.7-2.4,2.4c-0.1-0.1-0.3-0.3-0.4-0.5c1.6-0.7,2.2-1.6,2.3-2.4
		h-2.4v-0.6h2.5c0-0.1,0-0.2,0-0.3v-1h-2.2v-0.6h3.6l-0.5-0.2c0.3-0.4,0.7-1.1,0.9-1.5l0.7,0.3c0,0.1-0.1,0.1-0.2,0.1
		c-0.2,0.4-0.6,1-0.9,1.4h1.6v0.6h-2.4v1c0,0.1,0,0.2,0,0.3h2.7V156z M270.3,153.6c-0.1-0.4-0.5-1.1-0.8-1.5l0.5-0.2
		c0.4,0.5,0.7,1.1,0.8,1.5L270.3,153.6z"/>
</g>
<g>
	<g>
		<g class="st3">
			<g>
				<path class="st5" d="M303,142h83H303z"/>
			</g>
			<g>
				<polygon class="st1" points="384,168 386,170 303,170 305,168 				"/>
			</g>
			<g>
				<polygon class="st6" points="305,168 303,170 303,142 305,144 				"/>
			</g>
			<g>
				<polygon class="st7" points="305,144 303,142 386,142 384,144 				"/>
			</g>
			<g>
				<polygon class="st1" points="384,144 386,142 386,170 384,168 				"/>
			</g>
			<g>
				<rect x="305" y="144" class="st4" width="79" height="24"/>
			</g>
		</g>
	</g>
</g>
<rect x="305" y="144" class="st11" width="79" height="24"/>
<g>
	<rect x="305" y="151.5" class="st12" width="79" height="9"/>
	<path class="st8" d="M336.6,152c0,0.1-0.1,0.1-0.2,0.1c-0.1,0.2-0.2,0.5-0.2,0.7h3.5v0.5H336c-0.2,0.6-0.5,1.1-0.8,1.5
		c-0.1-0.1-0.3-0.3-0.4-0.4v2.7h-1.1v1.6h1.3v0.6h-2.7v0.5h-0.5v-7.5h3.3v0.5h-1.3v1.4h1.1v0.2c0.5-0.6,0.9-1.7,1.2-2.7L336.6,152z
		 M333,152.9h-0.9v1.4h0.9V152.9z M334.2,156.6v-1.7h-2v1.7H334.2z M333,158.7v-1.6h-0.9v1.6H333z M335.1,160.2V157h1.9v3.1h-0.5
		v-0.4h-0.9v0.5H335.1z M336.4,157.5h-0.9v1.7h0.9V157.5z M338.8,154.1v2.2h-3.1v-2.2H338.8z M338.3,155.8v-1.2h-2v1.2H338.3z
		 M337.5,160.2V157h2v3.1h-0.5v-0.4h-1v0.5H337.5z M338.9,157.5h-1v1.7h1V157.5z"/>
	<path class="st8" d="M352.2,152.4v6h-2v0.7h-0.6v-6.7H352.2z M351.6,153h-1.4v2.1h1.4V153z M350.2,157.8h1.4v-2.2h-1.4V157.8z
		 M355.3,154.7h2.4v0.5h-5.3v-0.5h2.3v-1.2h-2v-0.5h2v-1.1l0.8,0c0,0.1-0.1,0.1-0.2,0.1v0.9h2v0.5h-2V154.7z M356.7,155.5
		c0,0.1-0.1,0.1-0.2,0.1v0.8h1.1v0.5h-1.1v2.5c0,0.4-0.1,0.5-0.4,0.6c-0.3,0.1-0.7,0.1-1.5,0.1c0-0.2-0.1-0.4-0.2-0.6
		c0.3,0,0.7,0,0.9,0c0.5,0,0.5,0,0.5-0.2V157h-3.6v-0.5h3.6v-0.9L356.7,155.5z M354.2,159.3c-0.2-0.5-0.7-1.1-1.2-1.6l0.5-0.3
		c0.5,0.5,1,1.1,1.2,1.6L354.2,159.3z"/>
</g>
<g>
	<g>
		<g class="st3">
			<g>
				<path class="st5" d="M54,182h83H54z"/>
			</g>
			<g>
				<polygon class="st1" points="135,208 137,210 54,210 56,208 				"/>
			</g>
			<g>
				<polygon class="st6" points="56,208 54,210 54,182 56,184 				"/>
			</g>
			<g>
				<polygon class="st7" points="56,184 54,182 137,182 135,184 				"/>
			</g>
			<g>
				<polygon class="st1" points="135,184 137,182 137,210 135,208 				"/>
			</g>
			<g>
				<rect x="56" y="184" class="st4" width="79" height="24"/>
			</g>
		</g>
	</g>
</g>
<rect x="56" y="184" class="st9" width="79" height="24"/>
<g>
	<rect x="56" y="191.5" class="st12" width="79" height="9"/>
	<path d="M82.6,195.4c0.5,0.2,1.2,0.5,1.6,0.8l-0.3,0.5c-0.3-0.3-1-0.6-1.6-0.9L82.6,195.4z M90.6,195h-2.7v0.7H90v3.9
		c0,0.6-0.3,0.6-1.3,0.6c0-0.1-0.1-0.4-0.2-0.5c0.2,0,0.4,0,0.5,0c0.4,0,0.4,0,0.4-0.1v-0.9h-1.6v1.5h-0.6v-1.5h-1.5v1.6h-0.6v-4.5
		h2.1V195h-2.5v-0.5h2.5v-0.9l0.4,0v-0.5h-2.5v0.6h-0.6v-0.6h-2.2v-0.5h2.2v-0.7l0.8,0c0,0.1-0.1,0.1-0.2,0.1v0.6h2.5v-0.7l0.8,0
		c0,0.1-0.1,0.1-0.2,0.1v0.6h2.3v0.5h-2.3v0.6H88c0,0-0.1,0.1-0.2,0.1v0.7h2.7V195z M82.5,199.8c0.4-0.5,0.9-1.5,1.3-2.3l0.4,0.4
		c-0.4,0.7-0.8,1.6-1.1,2.1c0,0,0,0.1,0,0.1c0,0,0,0.1,0,0.1L82.5,199.8z M84.2,195c-0.3-0.3-1-0.7-1.5-0.9l0.3-0.4
		c0.5,0.2,1.2,0.6,1.5,0.8L84.2,195z M87.3,196.2h-1.5v0.7h1.5V196.2z M85.7,198.2h1.5v-0.8h-1.5V198.2z M89.4,196.2h-1.6v0.7h1.6
		V196.2z M87.9,198.2h1.6v-0.8h-1.6V198.2z M88.9,193.4c0.4,0.2,0.9,0.5,1.2,0.7l-0.3,0.4c-0.3-0.2-0.8-0.6-1.2-0.7L88.9,193.4z"/>
	<path d="M100.8,192.5h7.5v7.7h-0.6v-0.6h-6.2v0.6h-0.6V192.5z M104.2,193h-2.8v2.6h2.8V193z M101.4,196.3v2.7h2.8v-2.7H101.4z
		 M107.6,195.7V193h-2.9v2.6H107.6z M104.8,198.9h2.9v-2.7h-2.9V198.9z"/>
</g>
<g>
	<g>
		<g class="st3">
			<g>
				<path class="st5" d="M137,182h83H137z"/>
			</g>
			<g>
				<polygon class="st1" points="218,208 220,210 137,210 139,208 				"/>
			</g>
			<g>
				<polygon class="st6" points="139,208 137,210 137,182 139,184 				"/>
			</g>
			<g>
				<polygon class="st7" points="139,184 137,182 220,182 218,184 				"/>
			</g>
			<g>
				<polygon class="st1" points="218,184 220,182 220,210 218,208 				"/>
			</g>
			<g>
				<rect x="139" y="184" class="st4" width="79" height="24"/>
			</g>
		</g>
	</g>
</g>
<rect x="139" y="184" class="st11" width="79" height="24"/>
<g>
	<rect x="139" y="191.5" class="st12" width="79" height="9"/>
	<path d="M172,199.1h1.5v0.6h-8.1v-0.6h2.1c0.2-0.9,0.4-2,0.7-3.1h-1.8v-0.6h1.9c0.1-0.7,0.3-1.4,0.4-2.1H166v-0.6h7.1v0.6h-3.8
		c-0.1,0.7-0.2,1.4-0.4,2.1h3.1V199.1z M171.4,196h-2.6c-0.2,1.1-0.5,2.2-0.6,3.1h3.2V196z"/>
	<path d="M181.2,194.8l0.4,0.2c0,0.1-0.1,0.1-0.1,0.1c-0.4,1.4-1.1,2.5-2,3.3c0.8,0.6,1.8,1,2.9,1.3c-0.1,0.1-0.3,0.4-0.4,0.6
		c-1.2-0.3-2.2-0.8-3-1.4c-0.8,0.6-1.8,1.1-2.8,1.4c-0.1-0.2-0.2-0.4-0.4-0.6c1-0.3,1.9-0.7,2.7-1.3c-0.8-0.7-1.3-1.6-1.7-2.7
		l0.6-0.2c0.4,1,0.9,1.8,1.6,2.5c0.7-0.7,1.3-1.5,1.7-2.6h-4.6c0,1.5-0.2,3.4-1.2,4.8c-0.1-0.1-0.4-0.3-0.5-0.4
		c1-1.4,1.1-3.4,1.1-4.9v-2.5h6.7v0.6h-6v1.8h4.9L181.2,194.8z"/>
	<path d="M183.8,192.5h7.5v7.7h-0.6v-0.6h-6.2v0.6h-0.6V192.5z M187.2,193h-2.8v2.6h2.8V193z M184.4,196.3v2.7h2.8v-2.7H184.4z
		 M190.6,195.7V193h-2.9v2.6H190.6z M187.8,198.9h2.9v-2.7h-2.9V198.9z"/>
</g>
<g>
	<g>
		<g class="st3">
			<g>
				<path class="st5" d="M220,182h83H220z"/>
			</g>
			<g>
				<polygon class="st1" points="301,208 303,210 220,210 222,208 				"/>
			</g>
			<g>
				<polygon class="st6" points="222,208 220,210 220,182 222,184 				"/>
			</g>
			<g>
				<polygon class="st7" points="222,184 220,182 303,182 301,184 				"/>
			</g>
			<g>
				<polygon class="st1" points="301,184 303,182 303,210 301,208 				"/>
			</g>
			<g>
				<rect x="222" y="184" class="st4" width="79" height="24"/>
			</g>
		</g>
	</g>
</g>
<rect x="222" y="184" class="st11" width="79" height="24"/>
<g>
	<rect x="222" y="191.5" class="st12" width="79" height="9"/>
	<path d="M254.7,192.6l0.4,0.2c0,0-0.1,0.1-0.1,0.1c-1.2,2-3.9,3.3-6.2,3.9c-0.1-0.2-0.2-0.4-0.3-0.5c1.2-0.2,2.4-0.7,3.5-1.3
		c-0.3-0.3-0.9-0.6-1.3-0.8l0.4-0.4c0.5,0.2,1.1,0.6,1.4,0.8c0.7-0.4,1.2-0.9,1.6-1.5h-2.7c-0.7,0.5-1.5,1-2.4,1.4
		c-0.1-0.1-0.3-0.4-0.4-0.5c1.6-0.6,2.8-1.5,3.4-2.2l0.8,0.2c0,0.1-0.1,0.1-0.2,0.1c-0.2,0.2-0.4,0.4-0.5,0.5L254.7,192.6
		L254.7,192.6z M256,195.8l0.1,0c0.3,0.2,0.4,0.2,0.4,0.2c0,0-0.1,0.1-0.1,0.1c-1.2,2.6-4,3.7-7,4.2c0-0.2-0.2-0.4-0.3-0.6
		c1.4-0.2,2.9-0.6,4.1-1.2c-0.4-0.4-1-0.8-1.5-1l0.4-0.3c0.5,0.3,1.2,0.7,1.6,1.1c0.8-0.5,1.4-1.1,1.8-1.9h-2.8
		c-0.8,0.5-1.8,1.1-2.9,1.5c-0.1-0.1-0.3-0.4-0.4-0.5c1.9-0.6,3.3-1.6,4-2.4l0.8,0.2c0,0.1-0.1,0.1-0.2,0.1
		c-0.2,0.2-0.4,0.4-0.6,0.6H256z"/>
	<path d="M265.6,193.1h-7v2.3c0,1.4-0.1,3.4-0.9,4.8c-0.1-0.1-0.3-0.3-0.5-0.4c0.7-1.3,0.8-3.1,0.8-4.4v-2.8h3.4v-0.7l0.8,0.1
		c0,0.1-0.1,0.1-0.2,0.1v0.5h3.6V193.1z M262.5,197.7v0.7h3.2v0.4h-3.2v0.8c0,0.4-0.1,0.5-0.4,0.6c-0.3,0.1-0.8,0.1-1.6,0.1
		c0-0.1-0.1-0.3-0.2-0.5c0.4,0,0.7,0,1,0c0.5,0,0.6,0,0.6-0.2v-0.8h-3.2v-0.4h3.2v-0.7h-2.7v-0.4h2.7v-0.6c-0.8,0.1-1.6,0.1-2.4,0.1
		c0-0.1-0.1-0.3-0.1-0.4c1.7,0,3.9-0.2,5-0.4l0.4,0.4c0,0-0.1,0-0.1,0c0,0,0,0-0.1,0c-0.5,0.1-1.3,0.2-2.1,0.3v0.6h2.7v0.4H262.5z
		 M262.1,194.3h-1.3v0.1c0.3,0.2,1.1,0.6,1.2,0.8l-0.3,0.4c-0.2-0.2-0.6-0.5-0.9-0.7v1.1h-0.5v-1.2c-0.4,0.5-0.8,0.9-1.3,1.1
		c-0.1-0.1-0.2-0.3-0.3-0.4c0.5-0.2,1.1-0.7,1.4-1.2h-1.2v-0.5h1.3v-0.7l0.6,0c0,0.1-0.1,0.1-0.2,0.1v0.5h1.3V194.3z M264.1,195.9
		h-0.5v-1.2c-0.4,0.5-0.8,0.9-1.3,1.1c-0.1-0.1-0.2-0.3-0.3-0.4c0.5-0.2,1-0.7,1.4-1.2h-1.1v-0.5h1.3v-0.7l0.6,0
		c0,0.1-0.1,0.1-0.2,0.1v0.5h1.4v0.5h-1.2c0.4,0.5,0.9,0.9,1.4,1.2c-0.1,0.1-0.3,0.3-0.3,0.4c-0.4-0.3-0.9-0.7-1.3-1.2V195.9z"/>
	<path d="M267.4,192.3l0.8,0.1c0,0.1-0.1,0.1-0.2,0.1v2.9c0,1.7-0.1,3.5-1.3,4.8c-0.1-0.1-0.4-0.3-0.5-0.4c1.1-1.3,1.2-2.8,1.2-4.4
		V192.3z M270.3,192.7l0.8,0c0,0.1-0.1,0.1-0.2,0.1v6.5h-0.6V192.7z M273.5,192.3l0.8,0.1c0,0.1-0.1,0.1-0.2,0.1v7.7h-0.6V192.3z"/>
</g>
<g>
	<g>
		<g class="st3">
			<g>
				<path class="st5" d="M303,182h83H303z"/>
			</g>
			<g>
				<polygon class="st1" points="384,208 386,210 303,210 305,208 				"/>
			</g>
			<g>
				<polygon class="st6" points="305,208 303,210 303,182 305,184 				"/>
			</g>
			<g>
				<polygon class="st7" points="305,184 303,182 386,182 384,184 				"/>
			</g>
			<g>
				<polygon class="st1" points="384,184 386,182 386,210 384,208 				"/>
			</g>
			<g>
				<rect x="305" y="184" class="st4" width="79" height="24"/>
			</g>
		</g>
	</g>
</g>
<rect x="305" y="184" class="st11" width="79" height="24"/>
<g>
	<rect x="305" y="191.5" class="st12" width="79" height="9"/>
	<path d="M326.8,193.4h3.6v2h-0.6v-1.5h-3v2.4h-0.6v-2.4h-3v1.5h-0.5v-2h3.5v-0.7h-3v-0.5h6.6v0.5h-3.1V193.4z M323.5,197.2v-0.5
		h5.9v3.4h-0.6v-0.4h-5.5v-0.5h5.5v-0.8h-5.1V198h5.1v-0.8H323.5z M323.5,196v-0.5h2.2v0.5H323.5z M323.7,194.5h2v0.5h-2V194.5z
		 M327.3,194.5h2v0.5h-2V194.5z M327.3,196v-0.5h2.3v0.5H327.3z"/>
	<path d="M334.8,192.3c0,0.1-0.1,0.2-0.3,0.2c-0.1,0.5-0.3,1.4-0.4,1.9c0.4,0,0.8-0.1,1-0.1c1.4,0,1.8,0.9,1.8,2.2
		c0,0.7-0.1,1.5-0.3,2c-0.3,0.9-0.9,1.4-1.6,1.4c-0.4,0-0.9-0.2-1.6-0.8c0.1-0.2,0.2-0.4,0.2-0.5c0.7,0.6,1.1,0.7,1.4,0.7
		c0.5,0,0.8-0.3,1-0.9c0.2-0.6,0.3-1.4,0.3-1.8c0-1-0.3-1.6-1.2-1.6c-0.3,0-0.6,0-1.1,0.1c-0.5,1.8-1,3.4-1.8,4.9l-0.6-0.3
		c0.9-1.4,1.4-2.8,1.8-4.5c-0.5,0.1-1.1,0.1-1.6,0.2l-0.1-0.6c0.4-0.1,1.2-0.1,1.8-0.2c0.1-0.7,0.3-1.5,0.4-2.3L334.8,192.3z
		 M336.9,192c0.4,0.3,0.9,0.9,1.2,1.3l-0.4,0.3c-0.3-0.4-0.8-1-1.2-1.3L336.9,192z M338.9,197.2c-0.3-1.3-1-2.4-1.8-3.1l0.5-0.4
		c0.9,0.7,1.7,1.9,2,3.2L338.9,197.2z M338.2,191.6c0.4,0.3,1,0.9,1.2,1.3l-0.4,0.3c-0.3-0.4-0.8-1-1.2-1.3L338.2,191.6z"/>
	<path d="M342,196.7c-0.4,0.3-0.9,0.6-1.3,0.8c-0.1-0.1-0.2-0.3-0.4-0.5c1.6-0.8,3.1-2.3,3.8-3.5l0.9,0c0,0.1-0.1,0.1-0.2,0.1
		c0.9,1.3,2.5,2.6,3.9,3.3c-0.1,0.1-0.3,0.4-0.4,0.5c-0.4-0.2-0.8-0.5-1.3-0.8v3.5h-0.6v-0.4h-3.9v0.4H342V196.7z M343.7,192.3
		c0,0.1-0.1,0.1-0.2,0.1c-0.6,0.8-1.5,1.7-2.4,2.2c-0.1-0.1-0.3-0.3-0.5-0.4c0.8-0.5,1.8-1.3,2.3-2.2L343.7,192.3z M346.9,196.5
		c-1-0.7-1.9-1.6-2.4-2.4c-0.5,0.8-1.3,1.6-2.3,2.4H346.9z M342.6,199.3h3.9v-2.2h-3.9V199.3z M345.8,192c0.9,0.6,2,1.5,2.5,2.2
		l-0.5,0.4c-0.5-0.6-1.6-1.6-2.5-2.2L345.8,192z"/>
	<path d="M357.5,195.1H354c0.6,2.2,1.7,3.8,3.7,4.5c-0.2,0.1-0.4,0.4-0.5,0.6c-1.9-0.8-3-2.4-3.7-4.5c-0.4,1.8-1.4,3.5-3.7,4.5
		c-0.1-0.2-0.3-0.4-0.4-0.5c2.4-1,3.3-2.8,3.6-4.6h-3.5v-0.6h3.6c0.1-0.9,0.1-1.9,0.1-2.6l0.8,0c0,0.1-0.1,0.1-0.2,0.2
		c0,0.7,0,1.6-0.1,2.4h3.8V195.1z"/>
	<path d="M361.1,196.8l0.1,0.5c-0.9,0.3-1.9,0.6-2.5,0.8c0,0.1,0,0.1-0.1,0.2l-0.3-0.7c0.3-0.1,0.7-0.2,1.1-0.3v-2.6h-1V194h1v-2.2
		l0.8,0.1c0,0.1-0.1,0.1-0.2,0.1v2h1v0.6h-1v2.5L361.1,196.8z M364.3,194.5c0.1,0.6,0.3,1.2,0.5,1.7c0.5-0.3,1-0.8,1.3-1.2l0.5,0.5
		c0,0.1-0.1,0.1-0.2,0c-0.4,0.3-1,0.8-1.5,1.1c0.4,0.9,1,1.6,1.7,2c-0.1,0.1-0.3,0.4-0.4,0.5c-1.3-0.8-2-2.5-2.4-4.5
		c-0.3,0.2-0.6,0.5-1,0.7c1.2,0.9,1.6,2.1,1.6,3.1c0,0.6-0.2,1.1-0.6,1.4c-0.3,0.3-0.6,0.3-1.1,0.3c-0.2,0-0.4,0-0.6,0
		c0-0.2-0.1-0.4-0.2-0.6c0.3,0,0.6,0,0.8,0c0.9,0,1-0.8,1-1.2c0-0.3,0-0.5-0.1-0.8c-0.8,0.8-2.1,1.6-3.1,2.1
		c-0.1-0.1-0.2-0.4-0.3-0.5c1.1-0.4,2.5-1.3,3.3-2.1c-0.1-0.2-0.2-0.4-0.4-0.6c-0.6,0.5-1.6,1.2-2.3,1.5c-0.1-0.1-0.2-0.3-0.4-0.4
		c0.7-0.3,1.8-0.9,2.4-1.4c-0.1-0.2-0.3-0.3-0.5-0.5c-0.4,0.3-0.9,0.5-1.3,0.7c-0.1-0.1-0.2-0.3-0.4-0.4c0.8-0.3,1.8-0.9,2.5-1.4
		h-1.7V194h4.3v0.5H364.3z M361.8,192.7v1.2h-0.6v-1.7h5.2v1.7h-0.6v-1.2H361.8z"/>
</g>
<g>
	<rect x="180.5" y="131.5" class="st12" width="79" height="9"/>
	<path class="st11" d="M193,132l4.2,7.3h-8.5L193,132z"/>
	<path class="st11" d="M209.9,133.7l0.3,0.1l-0.1,0.1c-0.1,1.6-0.4,2.9-0.9,3.9c0.4,0.3,0.8,0.7,1.1,1l-0.4,0.5
		c-0.2-0.3-0.6-0.6-1-0.9c-0.5,0.8-1.1,1.4-1.8,1.9c-0.1-0.2-0.3-0.4-0.4-0.5c0.7-0.4,1.2-0.9,1.7-1.8c-0.3-0.3-0.7-0.5-1-0.7
		l-0.1,0.4l-0.5-0.3c0.2-0.8,0.5-1.9,0.8-3.1h-0.9v-0.6h1c0.1-0.7,0.3-1.3,0.4-1.9l0.7,0.1c0,0.1-0.1,0.1-0.2,0.1
		c-0.1,0.5-0.2,1.1-0.4,1.7h1.4L209.9,133.7z M208.3,134.3c-0.2,0.8-0.4,1.7-0.6,2.4c0.4,0.2,0.8,0.5,1.1,0.7
		c0.4-0.8,0.6-1.9,0.7-3.1H208.3z M213.8,133.3c0.6,0.7,1.2,1.7,1.4,2.4l-0.5,0.3c-0.1-0.2-0.2-0.4-0.3-0.6
		c-1.4,0.1-2.9,0.2-3.8,0.3c0,0.1-0.1,0.1-0.1,0.1l-0.3-0.7l0.7,0c0.4-0.9,0.8-2.2,1-3.2l0.8,0.2c0,0.1-0.1,0.1-0.2,0.1
		c-0.2,0.8-0.6,2-1,2.9l2.6-0.1c-0.3-0.4-0.6-0.9-0.9-1.3L213.8,133.3z M210.9,140.2v-3.7h3.8v3.7h-0.6v-0.4h-2.6v0.4H210.9z
		 M214.2,137.1h-2.6v2.1h2.6V137.1z"/>
	<path class="st11" d="M223,132.3c0,0-0.1,0.1-0.2,0.1c-0.3,0.3-0.9,0.7-1.3,1.1c0.2,0.3,0.4,0.5,0.6,0.8c0.5-0.4,1-0.9,1.4-1.2
		l0.5,0.4c0,0-0.1,0.1-0.2,0c-0.3,0.3-0.9,0.8-1.4,1.1c0.5,0.5,1.1,0.8,1.8,1.1c-0.1,0.1-0.3,0.4-0.4,0.5c-0.5-0.2-0.9-0.5-1.3-0.8
		v0.3h-1.1v1.4h2.2v0.6h-2.2v1.6c0,0.3,0.1,0.3,0.4,0.3h1.1c0.3,0,0.3-0.2,0.4-1.2c0.1,0.1,0.4,0.2,0.5,0.3
		c-0.1,1.2-0.2,1.5-0.9,1.5h-1.2c-0.7,0-0.9-0.2-0.9-0.9v-1.6h-1.7c-0.1,1-0.7,1.9-2.5,2.6c-0.1-0.1-0.3-0.4-0.4-0.5
		c1.6-0.5,2.1-1.3,2.3-2.1h-2.1v-0.6h2.2v-1.4h-1v-0.3c-0.4,0.3-0.9,0.6-1.4,0.8c-0.1-0.1-0.3-0.3-0.4-0.5c0.6-0.3,1.3-0.7,1.9-1.3
		c-0.3-0.3-0.8-0.7-1.2-1l0.4-0.3c0.4,0.3,0.9,0.6,1.1,0.9c0.4-0.4,0.7-0.9,0.9-1.4h-2.4v-0.5h2.7l0.1,0c0.2,0.1,0.3,0.2,0.4,0.2
		c0,0-0.1,0.1-0.1,0.1c-0.4,1-1.1,1.9-1.9,2.6h4.4c-0.9-0.8-1.6-1.9-2.1-3.1l0.5-0.2c0.2,0.4,0.4,0.8,0.6,1.2
		c0.4-0.3,0.9-0.8,1.2-1.1L223,132.3z M220.8,137.1v-1.4h-1.7v1.4H220.8z"/>
	<path class="st11" d="M225.6,137.5c0,0.8-0.1,1.7-0.5,2.2l-0.4-0.2c0.3-0.5,0.4-1.3,0.5-2.1L225.6,137.5z M228.4,136.3l0.3,0l0,0.2
		c-0.1,2.3-0.2,3.1-0.5,3.4c-0.2,0.2-0.4,0.2-0.8,0.2c-0.2,0-0.4,0-0.6,0c0-0.2-0.1-0.4-0.1-0.5c0.3,0,0.6,0,0.8,0
		c0.3,0,0.4,0,0.5-1.3l-0.3,0.1c-0.1-0.3-0.3-0.8-0.5-1.2l0.3-0.1c0.2,0.4,0.4,0.8,0.5,1.1h0c0-0.4,0.1-0.9,0.1-1.5h-2.4v0.2h-0.5
		v-4.9h3.4v0.5h-1.4v0.9h1.2v0.5h-1.2v0.9h1.2v0.5h-1.2v0.9h1L228.4,136.3z M226.7,132.7h-0.9v0.9h0.9V132.7z M226.7,135v-0.9h-0.9
		v0.9H226.7z M225.8,135.4v0.9h0.9v-0.9H225.8z M226,139.3c0-0.5,0-1.1-0.1-1.7l0.3,0c0.1,0.5,0.2,1.2,0.2,1.7L226,139.3z
		 M226.8,137.4c0.2,0.5,0.4,1.1,0.4,1.5l-0.3,0.1c0-0.4-0.2-1-0.4-1.5L226.8,137.4z M232.9,135.9h-1.5c0.3,1.7,0.8,3.2,1.9,3.8
		c-0.1,0.1-0.3,0.3-0.4,0.5c-1.2-0.8-1.7-2.4-2-4.3h-0.9c0,1.4-0.2,3.1-1,4.3c-0.1-0.1-0.4-0.3-0.5-0.3c0.9-1.2,1-2.9,1-4.2v-3.5
		h3.5V135.9z M232.3,132.8h-2.4v2.5h2.4V132.8z"/>
	<path class="st11" d="M247,132l4.2,7.3h-8.5L247,132z"/>
</g>
<g>
	<rect x="178.5" y="171.5" class="st12" width="79" height="9"/>
	<path class="st11" d="M191,172l4.2,7.3h-8.5L191,172z"/>
	<path class="st11" d="M206.8,175.6c0.3,0.3,1,1.1,1.2,1.3l-0.4,0.5c-0.1-0.3-0.5-0.8-0.8-1.2v4h-0.6v-4.1c-0.3,0.9-0.8,1.9-1.2,2.4
		c-0.1-0.2-0.2-0.4-0.3-0.5c0.5-0.7,1.1-1.9,1.4-3h-1.3v-0.6h1.4v-1.5c-0.4,0.1-0.8,0.2-1.2,0.3c0-0.1-0.1-0.3-0.2-0.4
		c1-0.2,2.1-0.6,2.7-1l0.5,0.5c-0.1,0-0.1,0-0.2,0c-0.3,0.2-0.6,0.3-1.1,0.4v1.7h1.2v0.6h-1.2V175.6z M210.7,179.5h2.4v0.5h-5.5
		v-0.5h2.5v-0.8h-2v-0.5h2v-0.6h-1.8v-2.9h1.8V174h-2.2v-0.5h2.2v-0.8c-0.6,0.1-1.3,0.1-1.9,0.2c0-0.1-0.1-0.3-0.2-0.5
		c1.5-0.1,3.3-0.4,4.2-0.7l0.5,0.5c0,0-0.1,0-0.1,0c0,0,0,0-0.1,0c-0.5,0.1-1.1,0.3-1.9,0.4v0.9h2.3v0.5h-2.3v0.6h1.9v2.9h-1.9v0.6
		h2.1v0.5h-2.1V179.5z M208.9,175.1v0.7h1.3v-0.7H208.9z M208.9,177.1h1.3v-0.8h-1.3V177.1z M212.1,175.1h-1.3v0.7h1.3V175.1z
		 M212.1,177.1v-0.8h-1.3v0.8H212.1z"/>
	<path class="st11" d="M226.5,176.3l0.1,0l0.3,0c0,0.1,0,0.1,0,0.2c-0.1,2.3-0.2,3.1-0.4,3.4c-0.2,0.2-0.4,0.3-1,0.3
		c-0.2,0-0.5,0-0.7,0c0-0.2-0.1-0.4-0.2-0.5c0.5,0,0.9,0,1.1,0c0.2,0,0.2,0,0.3-0.1c0.2-0.2,0.3-0.9,0.4-2.7h-1.6
		c-0.2,1.2-0.6,2.5-1.5,3.3c-0.1-0.1-0.3-0.3-0.4-0.4c1.2-1,1.4-3,1.5-4.6h-1v-3h3.6v3h-2c0,0.3-0.1,0.7-0.1,1.1H226.5z
		 M223.9,172.8v1.9h2.4v-1.9H223.9z M227.9,172.9l0.8,0c0,0.1-0.1,0.1-0.2,0.1v4.9h-0.6V172.9z M230.1,172l0.8,0
		c0,0.1-0.1,0.1-0.2,0.1v7.2c0,0.4-0.1,0.6-0.4,0.7c-0.3,0.1-0.8,0.1-1.6,0.1c0-0.2-0.1-0.4-0.2-0.6c0.3,0,0.6,0,0.9,0
		c0.7,0,0.8,0,0.8-0.2V172z"/>
	<path class="st11" d="M245,172l4.2,7.3h-8.5L245,172z"/>
</g>
<g>
	<g>
		<g class="st3">
			<g>
				<path class="st5" d="M54,210h83H54z"/>
			</g>
			<g>
				<polygon class="st1" points="135,236 137,238 54,238 56,236 				"/>
			</g>
			<g>
				<polygon class="st6" points="56,236 54,238 54,210 56,212 				"/>
			</g>
			<g>
				<polygon class="st7" points="56,212 54,210 137,210 135,212 				"/>
			</g>
			<g>
				<polygon class="st1" points="135,212 137,210 137,238 135,236 				"/>
			</g>
			<g>
				<rect x="56" y="212" class="st4" width="79" height="24"/>
			</g>
		</g>
	</g>
</g>
<rect x="56" y="212" class="st11" width="79" height="24"/>
<g>
	<rect x="56" y="219.5" class="st12" width="79" height="9"/>
	<path d="M60.1,223.4c0.5,0.2,1.2,0.5,1.6,0.8l-0.3,0.5c-0.3-0.3-1-0.6-1.6-0.9L60.1,223.4z M68.1,223h-2.7v0.7h2.2v3.9
		c0,0.6-0.3,0.6-1.3,0.6c0-0.1-0.1-0.4-0.2-0.5c0.2,0,0.4,0,0.5,0c0.4,0,0.4,0,0.4-0.1v-0.9h-1.6v1.5h-0.6v-1.5h-1.5v1.6h-0.6v-4.5
		h2.1V223h-2.5v-0.5h2.5v-0.9l0.4,0v-0.5h-2.5v0.6h-0.6v-0.6h-2.2v-0.5h2.2v-0.7l0.8,0c0,0.1-0.1,0.1-0.2,0.1v0.6h2.5v-0.7l0.8,0
		c0,0.1-0.1,0.1-0.2,0.1v0.6h2.3v0.5h-2.3v0.6h-0.3c0,0-0.1,0.1-0.2,0.1v0.7h2.7V223z M60,227.8c0.4-0.5,0.9-1.5,1.3-2.3l0.4,0.4
		c-0.4,0.7-0.8,1.6-1.1,2.1c0,0,0,0.1,0,0.1c0,0,0,0.1,0,0.1L60,227.8z M61.7,223c-0.3-0.3-1-0.7-1.5-0.9l0.3-0.4
		c0.5,0.2,1.2,0.6,1.5,0.8L61.7,223z M64.8,224.2h-1.5v0.7h1.5V224.2z M63.2,226.2h1.5v-0.8h-1.5V226.2z M66.9,224.2h-1.6v0.7h1.6
		V224.2z M65.4,226.2h1.6v-0.8h-1.6V226.2z M66.4,221.4c0.4,0.2,0.9,0.5,1.2,0.7l-0.3,0.4c-0.3-0.2-0.8-0.6-1.2-0.7L66.4,221.4z"/>
	<path d="M69.3,220.5h7.5v7.7h-0.6v-0.6h-6.2v0.6h-0.6V220.5z M72.7,221h-2.8v2.6h2.8V221z M69.9,224.3v2.7h2.8v-2.7H69.9z
		 M76.1,223.7V221h-2.9v2.6H76.1z M73.3,226.9h2.9v-2.7h-2.9V226.9z"/>
	<path d="M77.8,224.3v-0.6h7c-0.5-0.4-1.1-0.9-1.5-1.5l0.5-0.3c0.6,0.8,1.5,1.6,2.3,2.1c-0.8,0.5-1.7,1.3-2.3,2.1l-0.5-0.3
		c0.4-0.6,1-1.2,1.5-1.5H77.8z"/>
	<path d="M91.3,221.4h3.6v2h-0.6v-1.5h-3v2.4h-0.6v-2.4h-3v1.5h-0.5v-2h3.5v-0.7h-3v-0.5h6.6v0.5h-3.1V221.4z M88,225.2v-0.5h5.9
		v3.4h-0.6v-0.4h-5.5v-0.5h5.5v-0.8h-5.1V226h5.1v-0.8H88z M88,224v-0.5h2.2v0.5H88z M88.2,222.5h2v0.5h-2V222.5z M91.8,222.5h2v0.5
		h-2V222.5z M91.8,224v-0.5H94v0.5H91.8z"/>
	<path d="M99.3,220.3c0,0.1-0.1,0.2-0.3,0.2c-0.1,0.5-0.3,1.4-0.4,1.9c0.4,0,0.8-0.1,1-0.1c1.4,0,1.8,0.9,1.8,2.2
		c0,0.7-0.1,1.5-0.3,2c-0.3,0.9-0.9,1.4-1.6,1.4c-0.4,0-0.9-0.2-1.6-0.8c0.1-0.2,0.2-0.4,0.2-0.5c0.7,0.6,1.1,0.7,1.4,0.7
		c0.5,0,0.8-0.3,1-0.9c0.2-0.6,0.3-1.4,0.3-1.8c0-1-0.3-1.6-1.2-1.6c-0.3,0-0.6,0-1.1,0.1c-0.5,1.8-1,3.4-1.8,4.9l-0.6-0.3
		c0.9-1.4,1.4-2.8,1.8-4.5c-0.5,0.1-1.1,0.1-1.6,0.2l-0.1-0.6c0.4-0.1,1.2-0.1,1.8-0.2c0.1-0.7,0.3-1.5,0.4-2.3L99.3,220.3z
		 M101.4,220c0.4,0.3,0.9,0.9,1.2,1.3l-0.4,0.3c-0.3-0.4-0.8-1-1.2-1.3L101.4,220z M103.4,225.2c-0.3-1.3-1-2.4-1.8-3.1l0.5-0.4
		c0.9,0.7,1.7,1.9,2,3.2L103.4,225.2z M102.7,219.6c0.4,0.3,1,0.9,1.2,1.3l-0.4,0.3c-0.3-0.4-0.8-1-1.2-1.3L102.7,219.6z"/>
	<path d="M106.5,224.7c-0.4,0.3-0.9,0.6-1.3,0.8c-0.1-0.1-0.2-0.3-0.4-0.5c1.6-0.8,3.1-2.3,3.8-3.5l0.9,0c0,0.1-0.1,0.1-0.2,0.1
		c0.9,1.3,2.5,2.6,3.9,3.3c-0.1,0.1-0.3,0.4-0.4,0.5c-0.4-0.2-0.8-0.5-1.3-0.8v3.5H111v-0.4h-3.9v0.4h-0.6V224.7z M108.2,220.3
		c0,0.1-0.1,0.1-0.2,0.1c-0.6,0.8-1.5,1.7-2.4,2.2c-0.1-0.1-0.3-0.3-0.5-0.4c0.8-0.5,1.8-1.3,2.3-2.2L108.2,220.3z M111.4,224.5
		c-1-0.7-1.9-1.6-2.4-2.4c-0.5,0.8-1.3,1.6-2.3,2.4H111.4z M107.1,227.3h3.9v-2.2h-3.9V227.3z M110.3,220c0.9,0.6,2,1.5,2.5,2.2
		l-0.5,0.4c-0.5-0.6-1.6-1.6-2.5-2.2L110.3,220z"/>
	<path d="M122,223.1h-3.5c0.6,2.2,1.7,3.8,3.7,4.5c-0.2,0.1-0.4,0.4-0.5,0.6c-1.9-0.8-3-2.4-3.7-4.5c-0.4,1.8-1.4,3.5-3.7,4.5
		c-0.1-0.2-0.3-0.4-0.4-0.5c2.4-1,3.3-2.8,3.6-4.6H114v-0.6h3.6c0.1-0.9,0.1-1.9,0.1-2.6l0.8,0c0,0.1-0.1,0.1-0.2,0.2
		c0,0.7,0,1.6-0.1,2.4h3.8V223.1z"/>
	<path d="M125.6,224.8l0.1,0.5c-0.9,0.3-1.9,0.6-2.5,0.8c0,0.1,0,0.1-0.1,0.2l-0.3-0.7c0.3-0.1,0.7-0.2,1.1-0.3v-2.6h-1V222h1v-2.2
		l0.8,0.1c0,0.1-0.1,0.1-0.2,0.1v2h1v0.6h-1v2.5L125.6,224.8z M128.8,222.5c0.1,0.6,0.3,1.2,0.5,1.7c0.5-0.3,1-0.8,1.3-1.2l0.5,0.5
		c0,0.1-0.1,0.1-0.2,0c-0.4,0.3-1,0.8-1.5,1.1c0.4,0.9,1,1.6,1.7,2c-0.1,0.1-0.3,0.4-0.4,0.5c-1.3-0.8-2-2.5-2.4-4.5
		c-0.3,0.2-0.6,0.5-1,0.7c1.2,0.9,1.6,2.1,1.6,3.1c0,0.6-0.2,1.1-0.6,1.4c-0.3,0.3-0.6,0.3-1.1,0.3c-0.2,0-0.4,0-0.6,0
		c0-0.2-0.1-0.4-0.2-0.6c0.3,0,0.6,0,0.8,0c0.9,0,1-0.8,1-1.2c0-0.3,0-0.5-0.1-0.8c-0.8,0.8-2.1,1.6-3.1,2.1
		c-0.1-0.1-0.2-0.4-0.3-0.5c1.1-0.4,2.5-1.3,3.3-2.1c-0.1-0.2-0.2-0.4-0.4-0.6c-0.6,0.5-1.6,1.2-2.3,1.5c-0.1-0.1-0.2-0.3-0.4-0.4
		c0.7-0.3,1.8-0.9,2.4-1.4c-0.1-0.2-0.3-0.3-0.5-0.5c-0.4,0.3-0.9,0.5-1.3,0.7c-0.1-0.1-0.2-0.3-0.4-0.4c0.8-0.3,1.8-0.9,2.5-1.4
		h-1.7V222h4.3v0.5H128.8z M126.3,220.7v1.2h-0.6v-1.7h5.2v1.7h-0.6v-1.2H126.3z"/>
</g>
<g>
	<g>
		<g class="st3">
			<g>
				<path class="st5" d="M137,210h83H137z"/>
			</g>
			<g>
				<polygon class="st1" points="218,236 220,238 137,238 139,236 				"/>
			</g>
			<g>
				<polygon class="st6" points="139,236 137,238 137,210 139,212 				"/>
			</g>
			<g>
				<polygon class="st7" points="139,212 137,210 220,210 218,212 				"/>
			</g>
			<g>
				<polygon class="st1" points="218,212 220,210 220,238 218,236 				"/>
			</g>
			<g>
				<rect x="139" y="212" class="st4" width="79" height="24"/>
			</g>
		</g>
	</g>
</g>
<rect x="139" y="212" class="st11" width="79" height="24"/>
<g>
	<rect x="139" y="219.5" class="st12" width="79" height="9"/>
	<path d="M152.1,223.4c0.5,0.2,1.2,0.5,1.6,0.8l-0.3,0.5c-0.3-0.3-1-0.6-1.6-0.9L152.1,223.4z M160.1,223h-2.7v0.7h2.2v3.9
		c0,0.6-0.3,0.6-1.3,0.6c0-0.1-0.1-0.4-0.2-0.5c0.2,0,0.4,0,0.5,0c0.4,0,0.4,0,0.4-0.1v-0.9h-1.6v1.5h-0.6v-1.5h-1.5v1.6h-0.6v-4.5
		h2.1V223h-2.5v-0.5h2.5v-0.9l0.4,0v-0.5h-2.5v0.6h-0.6v-0.6h-2.2v-0.5h2.2v-0.7l0.8,0c0,0.1-0.1,0.1-0.2,0.1v0.6h2.5v-0.7l0.8,0
		c0,0.1-0.1,0.1-0.2,0.1v0.6h2.3v0.5h-2.3v0.6h-0.3c0,0-0.1,0.1-0.2,0.1v0.7h2.7V223z M152,227.8c0.4-0.5,0.9-1.5,1.3-2.3l0.4,0.4
		c-0.4,0.7-0.8,1.6-1.1,2.1c0,0,0,0.1,0,0.1c0,0,0,0.1,0,0.1L152,227.8z M153.7,223c-0.3-0.3-1-0.7-1.5-0.9l0.3-0.4
		c0.5,0.2,1.2,0.6,1.5,0.8L153.7,223z M156.8,224.2h-1.5v0.7h1.5V224.2z M155.2,226.2h1.5v-0.8h-1.5V226.2z M158.9,224.2h-1.6v0.7
		h1.6V224.2z M157.4,226.2h1.6v-0.8h-1.6V226.2z M158.4,221.4c0.4,0.2,0.9,0.5,1.2,0.7l-0.3,0.4c-0.3-0.2-0.8-0.6-1.2-0.7
		L158.4,221.4z"/>
	<path d="M161.3,220.5h7.5v7.7h-0.6v-0.6h-6.2v0.6h-0.6V220.5z M164.7,221h-2.8v2.6h2.8V221z M161.9,224.3v2.7h2.8v-2.7H161.9z
		 M168.1,223.7V221h-2.9v2.6H168.1z M165.3,226.9h2.9v-2.7h-2.9V226.9z"/>
	<path d="M169.8,224.3v-0.6h7c-0.5-0.4-1.1-0.9-1.5-1.5l0.5-0.3c0.6,0.8,1.5,1.6,2.3,2.1c-0.8,0.5-1.7,1.3-2.3,2.1l-0.5-0.3
		c0.4-0.6,1-1.2,1.5-1.5H169.8z"/>
	<path d="M185.5,227.1h1.5v0.6h-8.1v-0.6h2.1c0.2-0.9,0.4-2,0.7-3.1h-1.8v-0.6h1.9c0.1-0.7,0.3-1.4,0.4-2.1h-2.7v-0.6h7.1v0.6h-3.8
		c-0.1,0.7-0.2,1.4-0.4,2.1h3.1V227.1z M184.9,224h-2.6c-0.2,1.1-0.5,2.2-0.6,3.1h3.2V224z"/>
	<path d="M194.7,222.8l0.4,0.2c0,0.1-0.1,0.1-0.1,0.1c-0.4,1.4-1.1,2.5-2,3.3c0.8,0.6,1.8,1,2.9,1.3c-0.1,0.1-0.3,0.4-0.4,0.6
		c-1.2-0.3-2.2-0.8-3-1.4c-0.8,0.6-1.8,1.1-2.8,1.4c-0.1-0.2-0.2-0.4-0.4-0.6c1-0.3,1.9-0.7,2.7-1.3c-0.8-0.7-1.3-1.6-1.7-2.7
		l0.6-0.2c0.4,1,0.9,1.8,1.6,2.5c0.7-0.7,1.3-1.5,1.7-2.6h-4.6c0,1.5-0.2,3.4-1.2,4.8c-0.1-0.1-0.4-0.3-0.5-0.4
		c1-1.4,1.1-3.4,1.1-4.9v-2.5h6.7v0.6h-6v1.8h4.9L194.7,222.8z"/>
	<path d="M197.3,220.5h7.5v7.7h-0.6v-0.6h-6.2v0.6h-0.6V220.5z M200.7,221h-2.8v2.6h2.8V221z M197.9,224.3v2.7h2.8v-2.7H197.9z
		 M204.1,223.7V221h-2.9v2.6H204.1z M201.3,226.9h2.9v-2.7h-2.9V226.9z"/>
</g>
<g>
	<g>
		<g class="st3">
			<g>
				<path class="st5" d="M220,210h83H220z"/>
			</g>
			<g>
				<polygon class="st1" points="301,236 303,238 220,238 222,236 				"/>
			</g>
			<g>
				<polygon class="st6" points="222,236 220,238 220,210 222,212 				"/>
			</g>
			<g>
				<polygon class="st7" points="222,212 220,210 303,210 301,212 				"/>
			</g>
			<g>
				<polygon class="st1" points="301,212 303,210 303,238 301,236 				"/>
			</g>
			<g>
				<rect x="222" y="212" class="st4" width="79" height="24"/>
			</g>
		</g>
	</g>
</g>
<rect x="222" y="212" class="st11" width="79" height="24"/>
<g>
	<rect x="222" y="219.5" class="st12" width="79" height="9"/>
	<path d="M235.1,223.4c0.5,0.2,1.2,0.5,1.6,0.8l-0.3,0.5c-0.3-0.3-1-0.6-1.6-0.9L235.1,223.4z M243.1,223h-2.7v0.7h2.2v3.9
		c0,0.6-0.3,0.6-1.3,0.6c0-0.1-0.1-0.4-0.2-0.5c0.2,0,0.4,0,0.5,0c0.4,0,0.4,0,0.4-0.1v-0.9h-1.6v1.5h-0.6v-1.5h-1.5v1.6h-0.6v-4.5
		h2.1V223h-2.5v-0.5h2.5v-0.9l0.4,0v-0.5h-2.5v0.6h-0.6v-0.6h-2.2v-0.5h2.2v-0.7l0.8,0c0,0.1-0.1,0.1-0.2,0.1v0.6h2.5v-0.7l0.8,0
		c0,0.1-0.1,0.1-0.2,0.1v0.6h2.3v0.5h-2.3v0.6h-0.3c0,0-0.1,0.1-0.2,0.1v0.7h2.7V223z M235,227.8c0.4-0.5,0.9-1.5,1.3-2.3l0.4,0.4
		c-0.4,0.7-0.8,1.6-1.1,2.1c0,0,0,0.1,0,0.1c0,0,0,0.1,0,0.1L235,227.8z M236.7,223c-0.3-0.3-1-0.7-1.5-0.9l0.3-0.4
		c0.5,0.2,1.2,0.6,1.5,0.8L236.7,223z M239.8,224.2h-1.5v0.7h1.5V224.2z M238.2,226.2h1.5v-0.8h-1.5V226.2z M241.9,224.2h-1.6v0.7
		h1.6V224.2z M240.4,226.2h1.6v-0.8h-1.6V226.2z M241.4,221.4c0.4,0.2,0.9,0.5,1.2,0.7l-0.3,0.4c-0.3-0.2-0.8-0.6-1.2-0.7
		L241.4,221.4z"/>
	<path d="M244.3,220.5h7.5v7.7h-0.6v-0.6h-6.2v0.6h-0.6V220.5z M247.7,221h-2.8v2.6h2.8V221z M244.9,224.3v2.7h2.8v-2.7H244.9z
		 M251.1,223.7V221h-2.9v2.6H251.1z M248.3,226.9h2.9v-2.7h-2.9V226.9z"/>
	<path d="M252.8,224.3v-0.6h7c-0.5-0.4-1.1-0.9-1.5-1.5l0.5-0.3c0.6,0.8,1.5,1.6,2.3,2.1c-0.8,0.5-1.7,1.3-2.3,2.1l-0.5-0.3
		c0.4-0.6,1-1.2,1.5-1.5H252.8z"/>
	<path d="M268.2,220.6l0.4,0.2c0,0-0.1,0.1-0.1,0.1c-1.2,2-3.9,3.3-6.2,3.9c-0.1-0.2-0.2-0.4-0.3-0.5c1.2-0.2,2.4-0.7,3.5-1.3
		c-0.3-0.3-0.9-0.6-1.3-0.8l0.4-0.4c0.5,0.2,1.1,0.6,1.4,0.8c0.7-0.4,1.2-0.9,1.6-1.5H265c-0.7,0.5-1.5,1-2.4,1.4
		c-0.1-0.1-0.3-0.4-0.4-0.5c1.6-0.6,2.8-1.5,3.4-2.2l0.8,0.2c0,0.1-0.1,0.1-0.2,0.1c-0.2,0.2-0.4,0.4-0.5,0.5L268.2,220.6
		L268.2,220.6z M269.5,223.8l0.1,0c0.3,0.2,0.4,0.2,0.4,0.2c0,0-0.1,0.1-0.1,0.1c-1.2,2.6-4,3.7-7,4.2c0-0.2-0.2-0.4-0.3-0.6
		c1.4-0.2,2.9-0.6,4.1-1.2c-0.4-0.4-1-0.8-1.5-1l0.4-0.3c0.5,0.3,1.2,0.7,1.6,1.1c0.8-0.5,1.4-1.1,1.8-1.9h-2.8
		c-0.8,0.5-1.8,1.1-2.9,1.5c-0.1-0.1-0.3-0.4-0.4-0.5c1.9-0.6,3.3-1.6,4-2.4l0.8,0.2c0,0.1-0.1,0.1-0.2,0.1
		c-0.2,0.2-0.4,0.4-0.6,0.6H269.5z"/>
	<path d="M279.1,221.1h-7v2.3c0,1.4-0.1,3.4-0.9,4.8c-0.1-0.1-0.3-0.3-0.5-0.4c0.7-1.3,0.8-3.1,0.8-4.4v-2.8h3.4v-0.7l0.8,0.1
		c0,0.1-0.1,0.1-0.2,0.1v0.5h3.6V221.1z M276,225.7v0.7h3.2v0.4H276v0.8c0,0.4-0.1,0.5-0.4,0.6c-0.3,0.1-0.8,0.1-1.6,0.1
		c0-0.1-0.1-0.3-0.2-0.5c0.4,0,0.7,0,1,0c0.5,0,0.6,0,0.6-0.2v-0.8h-3.2v-0.4h3.2v-0.7h-2.7v-0.4h2.7v-0.6c-0.8,0.1-1.6,0.1-2.4,0.1
		c0-0.1-0.1-0.3-0.1-0.4c1.7,0,3.9-0.2,5-0.4l0.4,0.4c0,0-0.1,0-0.1,0c0,0,0,0-0.1,0c-0.5,0.1-1.3,0.2-2.1,0.3v0.6h2.7v0.4H276z
		 M275.6,222.3h-1.3v0.1c0.3,0.2,1.1,0.6,1.2,0.8l-0.3,0.4c-0.2-0.2-0.6-0.5-0.9-0.7v1.1h-0.5v-1.2c-0.4,0.5-0.8,0.9-1.3,1.1
		c-0.1-0.1-0.2-0.3-0.3-0.4c0.5-0.2,1.1-0.7,1.4-1.2h-1.2v-0.5h1.3v-0.7l0.6,0c0,0.1-0.1,0.1-0.2,0.1v0.5h1.3V222.3z M277.6,223.9
		h-0.5v-1.2c-0.4,0.5-0.8,0.9-1.3,1.1c-0.1-0.1-0.2-0.3-0.3-0.4c0.5-0.2,1-0.7,1.4-1.2h-1.1v-0.5h1.3v-0.7l0.6,0
		c0,0.1-0.1,0.1-0.2,0.1v0.5h1.4v0.5h-1.2c0.4,0.5,0.9,0.9,1.4,1.2c-0.1,0.1-0.3,0.3-0.3,0.4c-0.4-0.3-0.9-0.7-1.3-1.2V223.9z"/>
	<path d="M280.9,220.3l0.8,0.1c0,0.1-0.1,0.1-0.2,0.1v2.9c0,1.7-0.1,3.5-1.3,4.8c-0.1-0.1-0.4-0.3-0.5-0.4c1.1-1.3,1.2-2.8,1.2-4.4
		V220.3z M283.8,220.7l0.8,0c0,0.1-0.1,0.1-0.2,0.1v6.5h-0.6V220.7z M287,220.3l0.8,0.1c0,0.1-0.1,0.1-0.2,0.1v7.7H287V220.3z"/>
</g>
<g>
	<g>
		<g class="st3">
			<g>
				<path class="st5" d="M303,210h83H303z"/>
			</g>
			<g>
				<polygon class="st1" points="384,236 386,238 303,238 305,236 				"/>
			</g>
			<g>
				<polygon class="st6" points="305,236 303,238 303,210 305,212 				"/>
			</g>
			<g>
				<polygon class="st7" points="305,212 303,210 386,210 384,212 				"/>
			</g>
			<g>
				<polygon class="st1" points="384,212 386,210 386,238 384,236 				"/>
			</g>
			<g>
				<rect x="305" y="212" class="st4" width="79" height="24"/>
			</g>
		</g>
	</g>
</g>
<rect x="305" y="212" class="st11" width="79" height="24"/>
<g>
	<g>
		<g class="st3">
			<g>
				<path class="st5" d="M54,350h83H54z"/>
			</g>
			<g>
				<polygon class="st1" points="135,376 137,378 54,378 56,376 				"/>
			</g>
			<g>
				<polygon class="st6" points="56,376 54,378 54,350 56,352 				"/>
			</g>
			<g>
				<polygon class="st7" points="56,352 54,350 137,350 135,352 				"/>
			</g>
			<g>
				<polygon class="st1" points="135,352 137,350 137,378 135,376 				"/>
			</g>
			<g>
				<rect x="56" y="352" class="st4" width="79" height="24"/>
			</g>
		</g>
	</g>
</g>
<rect x="56" y="352" class="st0" width="79" height="24"/>
<g>
	<rect x="56" y="359.5" class="st12" width="79" height="9"/>
	<path d="M77.7,365.9c0.5-0.3,1.2-0.7,2-1.1v-4.9l0.8,0c0,0.1-0.1,0.1-0.2,0.1v8.2h-0.6v-2.8c-0.6,0.4-1.1,0.7-1.5,1
		c0,0.1,0,0.1-0.1,0.2L77.7,365.9z M78.3,361c0.4,0.6,0.9,1.3,1.1,1.8c-0.3,0.2-0.4,0.2-0.5,0.3c-0.2-0.5-0.6-1.3-1-1.8L78.3,361z
		 M86.1,363.2h-2.4c0.4,2,1.2,3.7,2.5,4.5c-0.2,0.1-0.3,0.4-0.5,0.5c-1.3-0.8-2-2.3-2.4-4.1h0c-0.3,1.6-0.9,3.2-2.3,4.1
		c-0.1-0.1-0.3-0.3-0.5-0.4c1.5-1,2.1-2.8,2.3-4.6h-2.2v-0.6h2.3c0.1-0.9,0.1-1.8,0.1-2.7l0.8,0c0,0.1-0.1,0.1-0.2,0.2
		c0,0.8,0,1.6-0.1,2.5h2.6V363.2z M84.8,360.1c0.5,0.4,1,1.1,1.3,1.5l-0.5,0.3c-0.2-0.4-0.7-1.1-1.2-1.5L84.8,360.1z"/>
	<path d="M88.6,366.4c-0.2,0.7-0.6,1.3-1.3,1.6l-0.5-0.4c0.7-0.3,1.1-0.8,1.3-1.4L88.6,366.4z M90.6,362.1c-0.1-0.1-0.2-0.3-0.3-0.4
		c-1.2,0.1-2.4,0.2-3.2,0.2c0,0.1-0.1,0.1-0.1,0.1l-0.2-0.6l0.7,0c0.3-0.4,0.6-1.1,0.8-1.5l0.7,0.2c0,0.1-0.1,0.1-0.2,0.1
		c-0.2,0.3-0.5,0.8-0.7,1.2l1.9-0.1c-0.2-0.2-0.4-0.4-0.6-0.6l0.4-0.2c0.5,0.4,1,1,1.3,1.4L90.6,362.1z M90.5,362.3v2.9
		c0,0.5-0.2,0.6-1.2,0.6c0-0.1-0.1-0.3-0.2-0.5c0.8,0,0.8,0,0.8-0.1v-0.5h-2v1.2h-0.6v-3.6H90.5z M90,362.7h-2v0.5h2V362.7z
		 M87.9,364.2h2v-0.5h-2V364.2z M89.8,367.3c0,0.2,0.1,0.2,0.6,0.2h1.7c0.4,0,0.4-0.1,0.5-0.8c0.1,0.1,0.4,0.2,0.5,0.2
		c-0.1,0.9-0.3,1.1-0.9,1.1h-1.8c-0.9,0-1.1-0.1-1.1-0.8v-1.1l0.8,0c0,0.1-0.1,0.1-0.2,0.1V367.3z M91.4,366.9
		c-0.3-0.3-0.9-0.7-1.4-1l0.4-0.3c0.5,0.2,1.2,0.6,1.5,0.9L91.4,366.9z M94.1,362.1c0.3,0,0.4-0.1,0.4-0.8c0.1,0.1,0.4,0.2,0.5,0.2
		c-0.1,0.9-0.2,1.1-0.9,1.1h-1.6c-0.8,0-1-0.2-1-0.8v-1.9l0.7,0.1c0,0.1-0.1,0.1-0.2,0.1v0.9c0.8-0.2,1.6-0.5,2-0.7l0.5,0.4
		c0,0-0.1,0-0.2,0c-0.6,0.3-1.5,0.5-2.4,0.8v0.4c0,0.2,0.1,0.3,0.5,0.3H94.1z M94.1,365.2c0.3,0,0.4-0.1,0.4-0.8
		c0.1,0.1,0.4,0.2,0.5,0.2c-0.1,0.9-0.3,1.2-0.9,1.2h-1.7c-0.8,0-1-0.2-1-0.8v-2.1l0.7,0.1c0,0.1-0.1,0.1-0.2,0.1v0.9
		c0.8-0.2,1.6-0.5,2.1-0.8l0.5,0.4c0,0-0.1,0-0.1,0c0,0,0,0-0.1,0c-0.6,0.3-1.6,0.6-2.5,0.8v0.5c0,0.2,0.1,0.3,0.5,0.3H94.1z
		 M94.7,368c-0.3-0.5-1-1.1-1.6-1.5l0.5-0.3c0.6,0.4,1.4,1,1.7,1.5L94.7,368z"/>
	<path d="M96,360.4h8v0.6h-3.8v1.1h1.9v4.1h-4.4v-4.1h1.9V361H96V360.4z M103.2,367V362l0.8,0c0,0.1-0.1,0.1-0.2,0.1v6h-0.6v-0.6
		h-6.3v0.6h-0.6V362l0.8,0c0,0.1-0.1,0.1-0.2,0.1v4.9H103.2z M98.3,362.6v1.3h1.4v-1.3H98.3z M98.3,364.4v1.3h1.4v-1.3H98.3z
		 M101.6,363.9v-1.3h-1.4v1.3H101.6z M101.6,365.6v-1.3h-1.4v1.3H101.6z"/>
	<path d="M113,361h-3.7c0,0,0,0-0.1,0c-0.1,0.3-0.2,0.8-0.3,1.2h3.7v6H112v-0.5h-6v0.5h-0.6v-6h2.8c0.1-0.4,0.2-0.8,0.3-1.2H105
		v-0.6h8.1V361z M106,362.8v4.3h1.5v-4.3H106z M109.9,363.9v-1.1h-1.8v1.1H109.9z M109.9,365.5v-1.1h-1.8v1.1H109.9z M108.1,366v1.1
		h1.8V366H108.1z M112,367.1v-4.3h-1.6v4.3H112z"/>
</g>
<g>
	<g>
		<g class="st3">
			<g>
				<path class="st5" d="M303,350h83H303z"/>
			</g>
			<g>
				<polygon class="st1" points="384,376 386,378 303,378 305,376 				"/>
			</g>
			<g>
				<polygon class="st6" points="305,376 303,378 303,350 305,352 				"/>
			</g>
			<g>
				<polygon class="st7" points="305,352 303,350 386,350 384,352 				"/>
			</g>
			<g>
				<polygon class="st1" points="384,352 386,350 386,378 384,376 				"/>
			</g>
			<g>
				<rect x="305" y="352" class="st4" width="79" height="24"/>
			</g>
		</g>
	</g>
</g>
<rect x="305" y="352" class="st8" width="79" height="24"/>
<g>
	<rect x="305" y="359.5" class="st12" width="79" height="9"/>
	<path class="st11" d="M333.8,365.2v1.9c0.6,0.2,1.3,0.3,2.2,0.3c0.4,0,3.3,0,3.8,0c-0.1,0.1-0.2,0.4-0.3,0.6H336
		c-2,0-3.1-0.3-3.8-1.6c-0.1,0.8-0.3,1.5-0.6,1.9c-0.1-0.1-0.3-0.2-0.5-0.3c0.5-0.8,0.6-2.4,0.7-4l0.7,0.1c0,0.1-0.1,0.1-0.2,0.1
		c0,0.4,0,0.7-0.1,1.1c0.2,0.7,0.5,1.1,0.8,1.5v-3.4h-1.9v-0.5h1.9v-1.3h-1.6v-0.5h1.6v-1.1l0.7,0c0,0.1-0.1,0.1-0.2,0.1v1h1.5v0.5
		h-1.5v1.3h1.7v0.5h-1.7v1.3h1.5v0.5H333.8z M338.6,362.8v-2h-2.9v-0.5h3.5v3.4h-0.6v-0.3h-2.1v2.4c0,0.3,0.1,0.3,0.5,0.3h1.6
		c0.4,0,0.5-0.2,0.5-1.3c0.1,0.1,0.4,0.2,0.5,0.2c-0.1,1.3-0.3,1.6-1,1.6H337c-0.8,0-1.1-0.2-1.1-0.9v-2.9H338.6z"/>
	<path class="st11" d="M357.2,362l0.3,0c0,0.1,0,0.1,0,0.2c-0.1,4-0.2,5.2-0.5,5.6c-0.2,0.3-0.5,0.3-0.9,0.3c-0.2,0-0.5,0-0.7,0
		c0-0.2-0.1-0.4-0.2-0.6c0.5,0,0.9,0,1.1,0c0.1,0,0.2,0,0.3-0.1c0.2-0.3,0.3-1.5,0.4-4.9h-1.3c0,1.9-0.2,4.1-1.9,5.7
		c-0.1-0.1-0.3-0.3-0.5-0.4c0.2-0.2,0.3-0.3,0.5-0.5c-1.5,0.2-3,0.4-4,0.5c0,0.1-0.1,0.1-0.1,0.1l-0.2-0.6c0.5,0,1.2-0.1,2-0.2v-0.9
		h-1.7v-0.5h1.7v-0.6h-1.7v-2.7h1.7v-0.6h-2v-0.5h2v-0.6c-0.6,0.1-1.2,0.1-1.8,0.1c0-0.1-0.1-0.3-0.2-0.5c1.3-0.1,3-0.3,3.9-0.5
		l0.4,0.5c0,0,0,0-0.1,0c0,0-0.1,0-0.1,0c-0.4,0.1-0.9,0.2-1.5,0.3c0,0-0.1,0-0.1,0.1v0.7h2v0.5h-2v0.6h1.8v2.7h-1.8v0.6h1.8v0.5
		h-1.8v0.8c0.6-0.1,1.3-0.1,1.9-0.2l0,0.4c1.2-1.4,1.3-3.2,1.3-4.7h-1.1V362h1.1v-2.1l0.7,0.1c0,0.1-0.1,0.1-0.2,0.1v1.9H357.2z
		 M350.2,363v0.7h1.2V363H350.2z M350.2,364.7h1.2v-0.7h-1.2V364.7z M353.1,363h-1.2v0.7h1.2V363z M353.1,364.7v-0.7h-1.2v0.7H353.1
		z"/>
</g>
<g>
	<rect x="180.5" y="239.5" class="st12" width="79" height="9"/>
	<path class="st11" d="M193,240l4.2,7.3h-8.5L193,240z"/>
	<path class="st11" d="M209.6,240.1c0,0-0.1,0.1-0.2,0.1c-0.5,0.7-1.5,1.5-2.3,2.1c-0.1-0.1-0.2-0.4-0.4-0.5c0.8-0.5,1.6-1.3,2.1-2
		L209.6,240.1z M208.2,248.2v-4c-0.3,0.4-0.7,0.7-1,1c-0.1-0.1-0.3-0.4-0.4-0.5c0.9-0.7,1.8-1.9,2.5-3l0.7,0.3
		c0,0.1-0.1,0.1-0.2,0.1c-0.3,0.5-0.6,0.9-0.9,1.4l0.2,0.1c0,0.1-0.1,0.1-0.2,0.1v4.5H208.2z M215.2,243v0.6h-1.4v3.8
		c0,0.8-0.3,0.8-2.1,0.8c0-0.2-0.1-0.4-0.2-0.6c0.4,0,0.8,0,1,0c0.6,0,0.6,0,0.6-0.2v-3.8H210V243H215.2z M214.8,240.4v0.6h-4.5
		v-0.6H214.8z"/>
	<path class="st11" d="M228.2,244.6c0,0.1-0.1,0.1-0.2,0.1c-0.2,1.6-0.7,2.8-2.8,3.5c-0.1-0.2-0.2-0.4-0.4-0.5
		c2-0.6,2.4-1.7,2.5-3.2L228.2,244.6z M230.5,247.1c0,0.3,0.1,0.3,0.4,0.3h1.2c0.4,0,0.4-0.2,0.5-1.4c0.1,0.1,0.4,0.2,0.6,0.3
		c-0.1,1.4-0.2,1.7-1,1.7h-1.3c-0.8,0-1-0.2-1-0.9v-2.8H225v-0.6h3.7v-1.9h-2c-0.2,0.5-0.5,1-0.8,1.4c-0.1-0.1-0.4-0.2-0.5-0.3
		c0.6-0.8,1.1-2,1.3-3l0.8,0.2c0,0.1-0.1,0.1-0.2,0.1c-0.1,0.3-0.2,0.6-0.3,1h1.7v-1.5l0.8,0c0,0.1-0.1,0.1-0.2,0.1v1.3h3.1v0.6
		h-3.1v1.9h3.7v0.6h-2.5V247.1z"/>
	<path class="st11" d="M247,240l4.2,7.3h-8.5L247,240z"/>
</g>
<g>
	<g>
		<g class="st3">
			<g>
				<path class="st5" d="M137,350h83H137z"/>
			</g>
			<g>
				<polygon class="st1" points="218,376 220,378 137,378 139,376 				"/>
			</g>
			<g>
				<polygon class="st6" points="139,376 137,378 137,350 139,352 				"/>
			</g>
			<g>
				<polygon class="st7" points="139,352 137,350 220,350 218,352 				"/>
			</g>
			<g>
				<polygon class="st1" points="218,352 220,350 220,378 218,376 				"/>
			</g>
			<g>
				<rect x="139" y="352" class="st4" width="79" height="24"/>
			</g>
		</g>
	</g>
</g>
<rect x="139" y="352" class="st0" width="79" height="24"/>
<g>
	<rect x="139" y="359.5" class="st12" width="79" height="9"/>
	<path d="M165.5,360c0,0.1-0.1,0.1-0.2,0.1c-0.1,0.3-0.3,0.7-0.4,1h3.3v7.1h-0.6v-0.5h-4.9v0.5H162v-7.1h2.2
		c0.2-0.4,0.3-0.9,0.4-1.3L165.5,360z M167.5,361.7h-4.9v1.4h4.9V361.7z M167.5,363.7h-4.9v1.4h4.9V363.7z M162.6,367.1h4.9v-1.4
		h-4.9V367.1z"/>
	<path d="M177.7,362l0.3,0c0,0.1,0,0.1,0,0.2c-0.1,4-0.2,5.2-0.5,5.6c-0.2,0.3-0.5,0.3-0.9,0.3c-0.2,0-0.5,0-0.7,0
		c0-0.2-0.1-0.4-0.2-0.6c0.5,0,0.9,0,1.1,0c0.1,0,0.2,0,0.3-0.1c0.2-0.3,0.3-1.5,0.4-4.9h-1.3c0,1.9-0.2,4.1-1.9,5.7
		c-0.1-0.1-0.3-0.3-0.5-0.4c0.2-0.2,0.3-0.3,0.5-0.5c-1.5,0.2-3,0.4-4,0.5c0,0.1-0.1,0.1-0.1,0.1l-0.2-0.6c0.5,0,1.2-0.1,2-0.2v-0.9
		h-1.7v-0.5h1.7v-0.6h-1.7v-2.7h1.7v-0.6h-2v-0.5h2v-0.6c-0.6,0.1-1.2,0.1-1.8,0.1c0-0.1-0.1-0.3-0.2-0.5c1.3-0.1,3-0.3,3.9-0.5
		l0.5,0.5c0,0,0,0-0.1,0c0,0-0.1,0-0.1,0c-0.4,0.1-0.9,0.2-1.5,0.3c0,0-0.1,0-0.1,0.1v0.7h2v0.5h-2v0.6h1.8v2.7h-1.8v0.6h1.8v0.5
		h-1.8v0.8c0.6-0.1,1.3-0.1,1.9-0.2l0,0.4c1.2-1.4,1.3-3.2,1.3-4.7h-1.1V362h1.1v-2.1l0.7,0.1c0,0.1-0.1,0.1-0.2,0.1v1.9H177.7z
		 M170.7,363v0.7h1.2V363H170.7z M170.7,364.7h1.2v-0.7h-1.2V364.7z M173.6,363h-1.2v0.7h1.2V363z M173.6,364.7v-0.7h-1.2v0.7H173.6
		z"/>
	<path d="M182,363.2l0.3,0c0,0.1,0,0.1,0,0.2c-0.1,3.1-0.1,4.1-0.4,4.4c-0.2,0.3-0.4,0.3-0.9,0.3c-0.2,0-0.4,0-0.6,0
		c0-0.2-0.1-0.4-0.2-0.6c0.4,0,0.7,0,0.9,0c0.1,0,0.2,0,0.3-0.1c0.2-0.2,0.2-1.1,0.3-3.7h-1.3c-0.1,1.7-0.4,3.4-1.3,4.4
		c-0.1-0.1-0.3-0.3-0.5-0.4c1.1-1.3,1.2-3.6,1.2-5.9h-1.1v-0.6h1.7v-1.5l0.8,0c0,0.1-0.1,0.1-0.2,0.1v1.3h1.8v0.6h-2.3
		c0,0.4,0,0.9,0,1.3H182z M187.2,362.1h-0.7c-0.2,1.5-0.6,2.7-1.2,3.7c0.5,0.8,1.2,1.4,2,1.8c-0.1,0.1-0.3,0.4-0.4,0.5
		c-0.8-0.4-1.4-1-1.9-1.8c-0.6,0.8-1.3,1.4-2.3,1.8c-0.1-0.1-0.2-0.4-0.3-0.5c1-0.4,1.7-1,2.3-1.9c-0.4-0.8-0.7-1.7-1-2.7
		c-0.2,0.4-0.4,0.8-0.6,1.1c-0.1-0.1-0.3-0.3-0.5-0.4c0.7-0.9,1.2-2.5,1.4-4.1l0.8,0.2c0,0.1-0.1,0.1-0.2,0.1
		c-0.1,0.5-0.2,1-0.3,1.4h3V362.1z M184,362.1c0,0,0,0.1,0,0.1c0.2,1.1,0.5,2.1,0.9,3c0.5-0.9,0.8-1.9,1-3.2H184z"/>
	<path d="M189.8,363.4v2.9c0.7,1.1,2,1.1,3.6,1.1c1,0,2.1,0,2.8-0.1c-0.1,0.1-0.2,0.4-0.2,0.6c-0.6,0-1.6,0-2.5,0
		c-1.9,0-3.1,0-4-1.1c-0.4,0.4-0.9,0.8-1.3,1.1c0,0.1,0,0.1-0.1,0.1l-0.4-0.7c0.4-0.3,1-0.7,1.4-1.1V364h-1.3v-0.6H189.8z
		 M188.4,360c0.6,0.4,1.3,1,1.6,1.4l-0.5,0.4c-0.3-0.5-1-1.1-1.6-1.5L188.4,360z M196.1,364h-2.4c0.4,1.2,1.2,2,2.4,2.4
		c-0.1,0.1-0.3,0.3-0.4,0.5c-1.2-0.4-2-1.2-2.5-2.5c-0.3,0.8-0.9,1.7-2.4,2.4c-0.1-0.1-0.3-0.3-0.4-0.5c1.6-0.7,2.2-1.6,2.3-2.4
		h-2.4v-0.6h2.5c0-0.1,0-0.2,0-0.3v-1h-2.2v-0.6h3.6l-0.5-0.2c0.3-0.4,0.7-1.1,0.9-1.5l0.7,0.3c0,0.1-0.1,0.1-0.2,0.1
		c-0.2,0.4-0.6,1-0.9,1.4h1.6v0.6h-2.4v1c0,0.1,0,0.2,0,0.3h2.7V364z M191.8,361.6c-0.1-0.4-0.5-1.1-0.8-1.5l0.5-0.2
		c0.4,0.5,0.7,1.1,0.8,1.5L191.8,361.6z"/>
</g>
<g>
</g>
<g>
</g>
<g>
</g>
<g>
</g>
<g>
</g>
<g>
</g>
<g>
</g>
<g>
</g>
<g>
</g>
<g>
</g>
<g>
</g>
<g>
</g>
<g>
</g>
<g>
</g>
<g>
</g>
<g>
</g>
<g>
</g>
<g>
</g>
<g>
</g>
<g>
</g>
<g>
</g>
<g>
</g>
<g>
</g>
<g>
</g>
<g>
</g>
</svg>
