<?xml version="1.0" encoding="utf-8"?>
<!-- Generator: Adobe Illustrator 16.0.0, SVG Export Plug-In . SVG Version: 6.00 Build 0)  -->
<!DOCTYPE svg PUBLIC "-//W3C//DTD SVG 1.1//EN" "http://www.w3.org/Graphics/SVG/1.1/DTD/svg11.dtd">
<svg version="1.1" id="レイヤー_1" xmlns="http://www.w3.org/2000/svg" xmlns:xlink="http://www.w3.org/1999/xlink" x="0px"
	 y="0px" width="720.3px" height="740px" viewBox="0 0 720.3 740" style="enable-background:new 0 0 720.3 740;"
	 xml:space="preserve">
<style type="text/css">
<![CDATA[
	.st0{fill:#FFA500;stroke:#000000;stroke-width:2;stroke-miterlimit:10;}
	.st1{fill:#ED1C24;}
	.st2{fill:#333333;stroke:#000000;stroke-width:2;stroke-miterlimit:10;}
	.st3{fill:#FFFFCC;}
	.st4{fill:#FFFFFF;}
	.st5{fill:none;}
	.st6{fill:none;stroke:#000000;stroke-width:2;stroke-miterlimit:10;}
]]>
</style>
<rect x="0.3" class="st3" width="720" height="740"/>
<rect x="410.3" y="68" class="st0" width="44" height="72"/>
<rect x="454.3" y="68" class="st0" width="44" height="72"/>
<rect x="498.3" y="68" class="st0" width="44" height="72"/>
<rect x="542.3" y="68" class="st0" width="44" height="72"/>
<rect x="586.3" y="68" class="st0" width="44" height="72"/>
<rect x="630.3" y="68" class="st0" width="44" height="72"/>
<rect x="322.3" y="68" class="st2" width="44" height="72"/>
<rect x="366.3" y="68" class="st0" width="44" height="72"/>
<rect x="322.3" y="176" class="st0" width="44" height="72"/>
<rect x="366.3" y="176" class="st0" width="44" height="72"/>
<rect x="410.3" y="176" class="st0" width="44" height="72"/>
<rect x="454.3" y="176" class="st0" width="44" height="72"/>
<rect x="498.3" y="176" class="st0" width="44" height="72"/>
<rect x="542.3" y="176" class="st0" width="44" height="72"/>
<rect x="586.3" y="176" class="st0" width="44" height="72"/>
<rect x="630.3" y="176" class="st0" width="44" height="72"/>
<rect x="322.3" y="284" class="st0" width="44" height="72"/>
<rect x="366.3" y="284" class="st0" width="44" height="72"/>
<rect x="410.3" y="284" class="st0" width="44" height="72"/>
<rect x="454.3" y="284" class="st0" width="44" height="72"/>
<rect x="498.3" y="284" class="st0" width="44" height="72"/>
<rect x="542.3" y="284" class="st0" width="44" height="72"/>
<rect x="586.3" y="284" class="st0" width="44" height="72"/>
<rect x="630.3" y="284" class="st0" width="44" height="72"/>
<rect x="322.3" y="392" class="st0" width="44" height="72"/>
<rect x="366.3" y="392" class="st0" width="44" height="72"/>
<rect x="410.3" y="392" class="st0" width="44" height="72"/>
<rect x="454.3" y="392" class="st0" width="44" height="72"/>
<rect x="498.3" y="392" class="st0" width="44" height="72"/>
<rect x="542.3" y="392" class="st0" width="44" height="72"/>
<rect x="586.3" y="392" class="st0" width="44" height="72"/>
<rect x="630.3" y="392" class="st0" width="44" height="72"/>
<rect x="322.3" y="500" class="st0" width="44" height="72"/>
<rect x="366.3" y="500" class="st0" width="44" height="72"/>
<rect x="410.3" y="500" class="st0" width="44" height="72"/>
<rect x="454.3" y="500" class="st2" width="44" height="72"/>
<rect x="498.3" y="500" class="st2" width="44" height="72"/>
<rect x="542.3" y="500" class="st2" width="44" height="72"/>
<rect x="586.3" y="500" class="st2" width="44" height="72"/>
<rect x="630.3" y="500" class="st2" width="44" height="72"/>
<g>
	<path class="st6" d="M674.3,58V41.5c0-2.8-2.3-4.5-5-4.5H327.8c-2.8,0-5.5,1.8-5.5,4.5V59"/>
</g>
<rect x="475.3" y="27" class="st3" width="46" height="20"/>
<g>
	<rect x="477.3" y="29.3" class="st5" width="42" height="14.3"/>
	<path d="M482.1,30.3c0,0.1-0.1,0.1-0.3,0.1c-0.8,1-2.3,2.4-3.5,3.2c-0.1-0.2-0.4-0.6-0.5-0.8c1.2-0.8,2.6-2,3.3-3L482.1,30.3z
		 M480,42.8v-6.2c-0.5,0.6-1.1,1.1-1.6,1.6c-0.1-0.2-0.4-0.6-0.6-0.7c1.3-1.1,2.9-2.9,3.8-4.7l1.1,0.4c0,0.1-0.2,0.1-0.3,0.1
		c-0.4,0.7-0.9,1.4-1.4,2.1l0.3,0.1c0,0.1-0.1,0.2-0.3,0.2v7.1H480z M490.8,34.8v0.9h-2.2v5.9c0,1.2-0.4,1.2-3.3,1.2
		c0-0.3-0.2-0.6-0.3-0.9c0.6,0,1.2,0,1.6,0c0.9,0,1,0,1-0.3v-5.9h-4.9v-0.9H490.8z M490.3,30.7v0.9h-7v-0.9H490.3z"/>
	<path d="M511.2,37.2c0,0.1-0.1,0.2-0.3,0.2c-0.4,2.5-1.1,4.4-4.3,5.4c-0.1-0.2-0.4-0.6-0.6-0.8c3.1-0.9,3.7-2.6,4-5L511.2,37.2z
		 M514.7,41.2c0,0.4,0.1,0.5,0.7,0.5h1.9c0.5,0,0.6-0.3,0.7-2.2c0.2,0.2,0.6,0.3,0.9,0.4c-0.1,2.1-0.4,2.7-1.5,2.7h-2.1
		c-1.2,0-1.5-0.3-1.5-1.4v-4.3h-7.6V36h5.7v-3h-3c-0.4,0.8-0.8,1.6-1.3,2.2c-0.2-0.1-0.6-0.4-0.8-0.4c1-1.2,1.7-3.1,2.1-4.6l1.2,0.3
		c0,0.1-0.1,0.1-0.3,0.1c-0.1,0.4-0.3,1-0.5,1.5h2.7v-2.3l1.2,0.1c0,0.1-0.1,0.2-0.3,0.2v2h4.7V33h-4.7v3h5.8v0.9h-3.9V41.2z"/>
</g>
<g>
	<rect x="426.3" y="182" class="st5" width="12" height="60.1"/>
	<path d="M432.6,186.4h5.1v0.5h-10.7v-0.5h5.1v-1h-3.8v-0.5h3.8v-1h-4.3v-0.5h4.3v-1l0.8,0.1c0,0.1-0.1,0.1-0.2,0.1v0.8h4.4v0.5
		h-4.4v1h3.8v0.5h-3.8V186.4z M435.8,187.9v5c0,0.4-0.1,0.6-0.4,0.6c-0.3,0.1-0.9,0.1-1.9,0.1c0-0.1-0.1-0.4-0.2-0.5
		c0.4,0,0.8,0,1.1,0c0.8,0,0.9,0,0.9-0.2v-1.3h-5.8v2.1h-0.6v-5.7H435.8z M435.2,188.3h-5.8v1.1h5.8V188.3z M429.4,191h5.8v-1.1
		h-5.8V191z"/>
	<path d="M436.5,197.3l0.8,0.1c0,0.1-0.1,0.1-0.2,0.1v7.8h-0.6v-1h-8.3v1.1h-0.6v-8l0.8,0.1c0,0.1-0.1,0.1-0.2,0.1v6.2h3.8v-9
		l0.8,0.1c0,0.1-0.1,0.1-0.2,0.1v8.8h3.9V197.3z"/>
	<path d="M426.8,211.6h11.1v0.6h-11.1V211.6z"/>
	<path d="M437.6,219.7v0.6h-5v8.3c0,0.6-0.2,0.8-0.6,0.9c-0.4,0.1-1.2,0.1-2.5,0.1c0-0.2-0.2-0.4-0.3-0.6c0.6,0,1.1,0,1.5,0
		c1.1,0,1.2,0,1.2-0.4v-8.3h-5v-0.6H437.6z"/>
	<path d="M428.3,231.3h8v10.2h-0.6v-0.9h-6.8v0.9h-0.6V231.3z M435.7,231.9h-6.8v2.4h6.8V231.9z M435.7,234.8h-6.8v2.4h6.8V234.8z
		 M428.9,240.1h6.8v-2.4h-6.8V240.1z"/>
</g>
<g>
	<rect x="338.3" y="188" class="st5" width="12" height="48.1"/>
	<path d="M338.9,197.5h10.8v0.6h-10.8V197.5z M340,190.2h8.7v0.6H340V190.2z"/>
	<path d="M349.8,206v0.6h-5.2v4.1c0,0.5-0.1,0.7-0.5,0.8c-0.4,0.1-1.1,0.1-2.3,0.1c0-0.2-0.2-0.4-0.3-0.6c0.5,0,1,0,1.4,0
		c1.1,0,1.1,0,1.1-0.3v-4.1h-5.2V206h5.2v-2l0.4,0c1.1-0.5,2.3-1.3,3.1-2.1h-7.4v-0.6h8.1l0.1,0l0.5,0.4c0,0-0.1,0.1-0.2,0.1
		c-1,0.9-2.7,2.1-4,2.8v1.5H349.8z"/>
	<path d="M344.6,222.5h5.2v0.6h-10.8v-0.6h5v-4.2H340v-0.6h3.9v-3.7h-4.4v-0.6h9.6v0.6h-4.6v3.7h4.1v0.6h-4.1V222.5z M348.2,221.7
		c-0.5-0.7-1.5-1.7-2.4-2.4l0.5-0.3c0.9,0.7,1.9,1.6,2.4,2.3L348.2,221.7z"/>
	<path d="M340.2,225.2l0.8,0c0,0.1-0.1,0.1-0.2,0.1v3.9c0,2.3-0.2,4.6-1.8,6.4c-0.1-0.1-0.3-0.3-0.5-0.4c1.5-1.7,1.6-3.8,1.6-6
		V225.2z M344.2,225.7l0.8,0.1c0,0.1-0.1,0.1-0.2,0.1v8.7h-0.6V225.7z M348.5,225.1l0.8,0.1c0,0.1-0.1,0.1-0.2,0.1v10.2h-0.6V225.1z
		"/>
</g>
<g>
	<rect x="602.3" y="410.8" class="st5" width="12" height="36.2"/>
	<path d="M603.1,414.7c0.8,0.3,1.7,0.9,2.1,1.3l-0.3,0.5c-0.4-0.4-1.3-1-2.1-1.3L603.1,414.7z M603.1,421.8c0.6-0.9,1.4-2.6,2-3.9
		l0.5,0.4c-0.5,1.3-1.3,2.8-1.8,3.7c0,0.1,0,0.1,0,0.2c0,0,0,0.1,0,0.1L603.1,421.8z M603.7,411.4c0.8,0.4,1.6,0.9,2.1,1.4
		c-0.2,0.3-0.3,0.4-0.4,0.5c-0.4-0.4-1.3-1.1-2.1-1.4L603.7,411.4z M613.9,419.8v0.5h-1.1v1.4c0,0.7-0.3,0.7-2.2,0.7
		c0-0.1-0.1-0.3-0.2-0.5c0.4,0,0.8,0,1.1,0c0.6,0,0.7,0,0.7-0.2v-1.4h-4.9v2.1h-0.6v-2.1h-1.3v-0.5h1.3v-3h2.6v-0.9h-3.7v-0.5h2.3
		v-1h-1.5v-0.5h1.5v-0.9h-1.9v-0.5h1.9v-1.1l0.8,0.1c0,0.1-0.1,0.1-0.2,0.1v0.9h2.4v-1.1l0.8,0.1c0,0.1-0.1,0.1-0.2,0.1v0.9h2v0.5
		h-2v0.9h1.6v0.5h-1.6v1h2.3v0.5h-3.8v0.9h2.8v3H613.9z M609.4,417.2h-2.1v1h2.1V417.2z M607.3,418.7v1h2.1v-1H607.3z M608.6,412.9
		v0.9h2.4v-0.9H608.6z M608.6,414.3v1h2.4v-1H608.6z M612.2,417.2h-2.2v1h2.2V417.2z M609.9,419.8h2.2v-1h-2.2V419.8z"/>
	<path d="M608.9,425.4c0,0.1-0.1,0.2-0.3,0.2c-0.4,3.6-1.7,7.2-3.6,7.2c-0.9,0-1.8-1-1.8-2.8c0-2.8,2.2-5.3,5.4-5.3
		c3.5,0,4.9,2.3,4.9,4.5c0,2.9-1.7,4.2-4.6,4.8c-0.1-0.1-0.2-0.4-0.4-0.6c2.8-0.5,4.3-1.9,4.3-4.3c0-2-1.2-4-4.3-4
		c-0.1,0-0.2,0-0.3,0L608.9,425.4z M608,425.2c-2.6,0.3-4.2,2.4-4.2,4.7c0,1.4,0.6,2.2,1.2,2.2C606.5,432.1,607.7,428.7,608,425.2z"
		/>
	<path d="M603.7,436.5h9.3v9.9h-0.6v-1h-8.1v1.1h-0.6V436.5z M604.3,444.8h8.1v-7.7h-8.1V444.8z"/>
</g>
<g>
	<rect x="646.3" y="404.9" class="st5" width="12" height="48.1"/>
	<path d="M647.1,408.8c0.8,0.3,1.8,0.9,2.2,1.3l-0.3,0.5c-0.5-0.4-1.4-1-2.2-1.3L647.1,408.8z M647.1,415.9c0.6-1,1.5-2.6,2.2-4
		l0.4,0.4c-0.6,1.3-1.4,2.9-2,3.8c0,0,0,0.1,0,0.2c0,0,0,0.1,0,0.1L647.1,415.9z M647.7,405.5c0.8,0.4,1.7,0.9,2.2,1.4l-0.3,0.5
		c-0.5-0.5-1.4-1.1-2.2-1.4L647.7,405.5z M654.1,409.3h3.8v0.5h-8.1v-0.5h3.7v-1h-2.9v-0.5h2.9v-0.9h-3.2v-0.5h3.2v-1l0.8,0
		c0,0.1-0.1,0.1-0.2,0.1v0.8h3.4v0.5h-3.4v0.9h3v0.5h-3V409.3z M656.8,410.7v5c0,0.3-0.1,0.5-0.4,0.6c-0.3,0.1-0.8,0.1-1.7,0.1
		c0-0.1-0.1-0.3-0.2-0.5c0.3,0,0.6,0,0.8,0c0.9,0,0.9,0,0.9-0.2v-1.3h-4.5v2h-0.6v-5.7H656.8z M656.2,411.2h-4.5v1.1h4.5V411.2z
		 M651.7,414h4.5v-1.1h-4.5V414z"/>
	<path d="M647.1,420.8c0.8,0.3,1.7,0.9,2.2,1.3l-0.3,0.5c-0.5-0.4-1.4-1-2.2-1.3L647.1,420.8z M647.1,427.9c0.6-1,1.5-2.6,2.1-4
		l0.4,0.4c-0.6,1.3-1.4,2.9-2,3.8c0,0.1,0,0.1,0,0.2c0,0,0,0.1,0,0.1L647.1,427.9z M647.7,417.5c0.8,0.4,1.7,0.9,2.2,1.4l-0.3,0.5
		c-0.5-0.4-1.4-1-2.1-1.4L647.7,417.5z M652.8,417.9c0,0,0,0,0.1,0c0.1,0,0.1,0.1,0.4,0.2c0,0.1-0.1,0.1-0.1,0.1
		c-0.6,2.1-2,3.8-3.3,4.7c-0.1-0.1-0.2-0.3-0.4-0.4c0.7-0.4,1.4-1,1.9-1.8c-0.3-0.4-0.8-0.9-1.3-1.2l0.4-0.3
		c0.4,0.3,0.9,0.7,1.2,1.1c0.3-0.5,0.6-1.1,0.8-1.7h-2.2v-0.5H652.8z M649.6,428.1v-0.5h8.1v0.5H649.6z M656.3,422.5v2.7H651v-2.7
		H656.3z M655.8,424.7V423h-4.2v1.7H655.8z M652.1,425.4c0.3,0.6,0.6,1.3,0.7,1.8l-0.5,0.2c-0.1-0.5-0.4-1.3-0.7-1.9L652.1,425.4z
		 M652,421.6v-0.5h3.4v0.5H652z M657,418.1c0,0.1-0.1,0.1-0.2,0c-0.4,0.4-1.1,0.9-1.6,1.3c0.2,0.3,0.4,0.6,0.6,0.9
		c0.5-0.4,1.2-1,1.6-1.4l0.5,0.5c0,0-0.1,0.1-0.2,0c-0.4,0.4-1.1,0.9-1.6,1.2c0.6,0.7,1.2,1.2,2,1.6c-0.1,0.1-0.3,0.3-0.4,0.5
		c-1.6-1-2.8-2.3-3.7-5.2l0.5-0.1c0.2,0.6,0.4,1.1,0.6,1.6c0.5-0.4,1.2-1,1.5-1.4L657,418.1z M655.9,425.6c0,0.1-0.1,0.1-0.2,0.1
		c-0.2,0.5-0.5,1.3-0.8,1.8l-0.5-0.2c0.3-0.5,0.6-1.4,0.8-1.9L655.9,425.6z"/>
	<path d="M652.7,429.6c0,0.1-0.1,0.1-0.2,0.1c-0.2,0.5-0.5,1.2-0.8,1.8h5.1v8.9h-0.6v-0.8h-7.6v0.9h-0.6v-9h3.1
		c0.3-0.6,0.6-1.5,0.8-2.1L652.7,429.6z M656.1,432.1h-7.6v3.1h7.6V432.1z M648.5,439h7.6v-3.2h-7.6V439z"/>
	<path d="M647,444.9c0.8,0.3,1.7,0.8,2.1,1.2l-0.3,0.5c-0.5-0.4-1.4-0.9-2.1-1.2L647,444.9z M647,452c0.6-0.9,1.6-2.4,2.2-3.7
		l0.4,0.4c-0.6,1.2-1.5,2.7-2.1,3.6c0,0,0,0.1,0,0.1c0,0,0,0.1,0,0.1L647,452z M649.4,443.4c-0.4-0.4-1.3-1-2.1-1.3l0.3-0.4
		c0.7,0.3,1.6,0.9,2.1,1.3L649.4,443.4z M658,442.2v0.6h-1v8.8c0,0.5-0.1,0.7-0.5,0.8c-0.4,0.1-1.1,0.1-2.3,0.1
		c0-0.2-0.1-0.4-0.2-0.6c0.5,0,1,0,1.4,0c0.9,0,1,0,1-0.3v-8.8h-6.5v-0.6H658z M654.5,449.2h-3.2v0.9h-0.6v-5.3h3.7V449.2z
		 M653.9,445.4h-2.6v3.3h2.6V445.4z"/>
</g>
<g>
	<rect x="382.3" y="296" class="st5" width="12" height="48.1"/>
	<path d="M390.2,300.8c2.7,0.4,3,2.2,3,3.1c0,1.9-1.7,3-4.7,3.3c0-0.1-0.1-0.4-0.2-0.5c2.6-0.3,4.3-1.2,4.3-2.8
		c0-1.5-1.1-2.4-2.6-2.6c-0.5,1.4-1.4,2.7-2.4,3.7c0.1,0.3,0.2,0.5,0.3,0.7l-0.5,0.3c-0.1-0.2-0.2-0.4-0.3-0.7c-1.1,0.9-1.9,1-2.4,1
		c-0.9,0-1.4-0.7-1.4-1.6c0-1.6,1.4-3,3.2-3.7c0-0.3,0-0.7,0-1c0-0.4,0-0.7,0-1.1c-1.1,0-2.1,0-2.7,0l0-0.6c0.6,0,1.7,0,2.8,0
		c0-0.6,0-1.3,0.1-1.8l1,0.1c0,0.1-0.1,0.2-0.3,0.2c0,0.5-0.1,1.1-0.1,1.5c1.3,0,3.8-0.2,5-0.5l0.1,0.6c-1.2,0.3-3.8,0.5-5.1,0.5
		c0,0.7,0,1.4,0,2c0.6-0.2,1.3-0.3,2-0.3c0.2,0,0.3,0,0.5,0c0.1-0.2,0.1-0.4,0.1-0.6l0.6,0.2L390.2,300.8z M386.9,304.9
		c-0.2-0.8-0.3-1.8-0.4-3c-1.5,0.6-2.6,1.7-2.6,3c0,0.5,0.2,1,0.9,1C385.4,305.8,386.2,305.5,386.9,304.9z M389.4,301.3
		c-0.4,0-1.2,0-2.3,0.3c0,1.1,0.1,2,0.3,2.8C388.2,303.6,388.9,302.5,389.4,301.3z"/>
	<path d="M393.1,311.1c-1.1,0.3-2.6,0.6-4.1,0.7c0.5,1.7,1,2.8,2.3,3.4l-0.4,0.5c-0.7-0.5-1.3-0.7-2.7-0.8l-0.1-0.5
		c0.6,0.1,1.1,0.1,1.4,0.2c-0.4-0.5-0.8-1.5-1.1-2.7c-0.6,0-1.4,0.1-2.1,0.1c-0.8,0-2,0-2.8,0v-0.6c0.7,0,1.8,0,2.8,0
		c0.7,0,1.5,0,2-0.1c-0.1-0.6-0.3-1.5-0.4-2.5l1,0c0,0.1-0.1,0.2-0.3,0.3c0.1,0.7,0.2,1.5,0.3,2.2c1.5-0.1,3-0.4,4.1-0.7
		L393.1,311.1z M391,319.1c-0.6,0-1.2,0-2.2,0c-2.4,0-4.3-0.6-4.3-2.3c0-0.7,0.4-1.4,1.1-2l0.5,0.4c-0.6,0.4-0.9,1.1-0.9,1.6
		c0,1.3,1.7,1.7,3.6,1.7c1.1,0,1.7,0,2.2,0L391,319.1z M390.7,308.4c0.6,0.5,1.1,1.1,1.5,1.7l-0.4,0.3c-0.3-0.6-0.9-1.2-1.4-1.7
		L390.7,308.4z M392.3,308c0.5,0.5,1.1,1.2,1.5,1.7l-0.4,0.3c-0.3-0.5-0.9-1.2-1.4-1.7L392.3,308z"/>
	<path d="M392.6,323.9c0,0.1-0.2,0.2-0.3,0.2c-0.1,0.9-0.3,1.7-0.5,2.5c0.7,0.3,1.4,0.6,2.1,0.9l-0.3,0.6c-0.7-0.3-1.3-0.7-2-0.9
		c-0.6,1.8-1.4,3.1-2.7,3.9c-0.1-0.1-0.3-0.3-0.5-0.4c1.3-0.9,2.1-2,2.7-3.8c-1.3-0.5-2.5-0.9-3.5-1c-0.8,3-1.5,3.9-2.9,3.9
		c-1.4,0-1.7-1-1.7-1.8c0-1.8,1.9-2.7,4.1-2.7c0.3-1,0.5-2.2,0.7-3.6c-0.5,0-2.6,0.2-3.5,0.2c0,0.1-0.1,0.1-0.2,0.2l-0.1-0.8
		c0.9,0,3.2-0.2,4-0.3c0.1,0,0.2-0.1,0.2-0.1l0.6,0.4c-0.1,0.1-0.1,0.1-0.3,0.2c-0.2,1.4-0.5,2.8-0.7,3.8c1,0.1,2.2,0.4,3.5,0.9
		c0.2-0.8,0.4-1.7,0.5-2.7L392.6,323.9z M386.9,326c-1.9,0-3.4,0.8-3.4,2.1c0,0.7,0.4,1.2,1,1.2C385.5,329.4,386.1,329,386.9,326z"
		/>
	<path d="M393.6,337l0.3,0c-0.3,0.9-0.9,2.3-1.3,2.9c-0.3-0.1-0.4-0.1-0.5-0.2c0.3-0.5,0.7-1.4,1-2.1h-1.9v5.1
		c0,0.4-0.1,0.6-0.4,0.7c-0.3,0.1-0.9,0.1-1.9,0.1c0-0.2-0.1-0.4-0.2-0.6c0.5,0,0.9,0,1.2,0c0.6,0,0.7,0,0.7-0.3v-5.1h-2.3v0.4H386
		v1.5h2.4v0.6H386v1.9c0.9-0.1,1.8-0.3,2.7-0.4l0,0.5c-2.1,0.4-4.3,0.7-5.6,0.9c0,0.1-0.1,0.1-0.2,0.2l-0.2-0.7
		c0.7-0.1,1.7-0.2,2.7-0.4v-2h-2.3v-0.6h2.3V338h-2.3v-4.9h5.2v3.9h3.6c-0.6-0.7-1.7-1.5-2.7-2.1l0.4-0.4c0.5,0.3,1,0.6,1.4,0.9
		c0.6-0.5,1.2-1.2,1.7-1.8h-4.1v-0.6h4.5l0.1,0l0.5,0.3c0,0-0.1,0.1-0.1,0.1c-0.5,0.8-1.4,1.7-2.2,2.3c0.4,0.3,0.8,0.7,1,1l-0.3,0.3
		h1.2L393.6,337z M383.7,333.6v1.7h1.8v-1.7H383.7z M383.7,335.8v1.7h1.8v-1.7H383.7z M387.9,335.3v-1.7H386v1.7H387.9z
		 M387.9,337.5v-1.7H386v1.7H387.9z"/>
</g>
<g>
	<rect x="338.3" y="296" class="st5" width="12" height="48.1"/>
	<path d="M342.8,299.7l0.4,0.2c0,0-0.1,0.1-0.1,0.1c-0.7,3-2.2,5.2-4,6.4c-0.1-0.1-0.3-0.4-0.5-0.5c1.7-1,3.2-3,3.8-5.6H339v-0.6
		h3.7L342.8,299.7z M344.6,298.7c0.3,1,0.7,2,1.1,3c1.1-0.9,2.4-2.2,3.2-3.2l0.6,0.5c0,0.1-0.1,0.1-0.2,0.1c-0.8,1-2.2,2.3-3.3,3.2
		c1,1.8,2.3,3.2,4,3.9c-0.2,0.1-0.3,0.3-0.5,0.5c-2.3-1-3.9-3.4-5-6.2v6.2c0,0.5-0.2,0.7-0.5,0.8c-0.3,0.1-1,0.1-2.1,0.1
		c0-0.2-0.1-0.4-0.2-0.6c0.5,0,1,0,1.4,0c0.8,0,0.9,0,0.9-0.3v-10.1l0.8,0.1c0,0.1-0.1,0.1-0.2,0.1V298.7z"/>
	<path d="M349.3,313.9h-4.5c0.8,2.7,2.4,4.5,5.1,5.2c-0.1,0.1-0.3,0.4-0.4,0.5c-2.6-0.8-4.3-2.5-5.1-5.1c-0.4,1.9-1.6,3.8-5.2,5.1
		c-0.1-0.1-0.2-0.4-0.4-0.5c3.7-1.4,4.8-3.3,5-5.2h-4.5v-0.6h4.6c0-0.3,0-0.6,0-0.9v-2.3h-5v-0.6h10.7v0.6h-5.1v2.3
		c0,0.3,0,0.6,0,0.9h4.8V313.9z"/>
	<path d="M344.6,321.9h4.8v2.7h-0.6v-2.2h-8.9v2.2h-0.6v-2.7h4.7v-1.5l0.8,0.1c0,0.1-0.1,0.1-0.2,0.1V321.9z M347.3,326.6h-2.8
		c0,0.3-0.1,0.8-0.2,1.2h4v3.7h-0.6v-0.4H341v0.5h-0.6v-3.7h3.3c0.1-0.4,0.1-0.8,0.2-1.2h-2.7v-3h6V326.6z M347.7,330.5v-2.1H341
		v2.1H347.7z M341.8,324.1v2h4.9v-2H341.8z"/>
	<path d="M338.9,334.6h10.8v0.6h-10.8V334.6z M343.5,336.4L343.5,336.4l0.3,0v6.4c0,0.4-0.1,0.6-0.4,0.7c-0.3,0.1-0.8,0.1-1.7,0.1
		c0-0.2-0.1-0.4-0.2-0.5c0.3,0,0.6,0,0.8,0c0.9,0,0.9,0,0.9-0.2v-1.9h-2.9v2.8h-0.6v-7.3H343.5z M343.2,336.9h-2.9v1.5h2.9V336.9z
		 M340.3,340.3h2.9v-1.5h-2.9V340.3z M341.4,332.5c0.6,0.5,1.2,1.2,1.5,1.7l-0.5,0.3c-0.3-0.5-0.9-1.2-1.5-1.7L341.4,332.5z
		 M345.3,341.5v-5l0.8,0.1c0,0.1-0.1,0.1-0.2,0.1v4.8H345.3z M345.9,334.3c0.5-0.5,1.1-1.3,1.4-1.8l0.7,0.3c0,0.1-0.1,0.1-0.2,0.1
		c-0.4,0.5-0.9,1.2-1.4,1.7L345.9,334.3z M348.8,342.8c0,0.4-0.1,0.6-0.4,0.7c-0.3,0.1-0.9,0.1-1.9,0.1c0-0.2-0.1-0.4-0.2-0.6
		c0.4,0,0.8,0,1.1,0c0.8,0,0.9,0,0.9-0.3v-6.7l0.8,0c0,0.1-0.1,0.1-0.2,0.1V342.8z"/>
</g>
<g>
	<rect x="470.3" y="80" class="st5" width="12" height="48.1"/>
	<path d="M476.6,82.7h4.6v5.5h-0.6v-0.7h-4v4.1H476v-4.1H472v0.8h-0.6v-5.6h4.5v-2.2l0.8,0.1c0,0.1-0.1,0.1-0.2,0.1V82.7z M472,86.8
		h3.9v-3.6H472V86.8z M476.6,86.8h4v-3.6h-4V86.8z"/>
	<path d="M481.7,98.8h-4.8c0.8,2.2,2.5,3.7,5.1,4.2c-0.1,0.1-0.3,0.4-0.4,0.5c-2.7-0.7-4.4-2.3-5.3-4.7c-0.4,1.9-1.7,3.6-5.2,4.8
		c-0.1-0.2-0.2-0.4-0.3-0.5c3.3-1.1,4.5-2.6,4.9-4.3h-4.8v-0.6h1.4v-4h3.7v-1.8l0.8,0.1c0,0.1-0.1,0.1-0.2,0.1v1.6h3.9v4h1.3V98.8z
		 M472.9,98.2h3c0.1-0.5,0.1-1.1,0.1-1.6v-1.8h-3.1V98.2z M479.9,94.8h-3.3v1.8c0,0.6,0,1.1-0.1,1.6h3.4V94.8z"/>
	<path d="M473.8,109.1c0.4,0.4,1.7,1.7,1.9,2l-0.4,0.5c-0.3-0.4-1-1.2-1.5-1.8v5.8h-0.6v-6.6c-0.6,1.6-1.4,3.3-2.3,4.3
		c-0.1-0.2-0.2-0.4-0.3-0.5c0.9-1.1,2-3.1,2.5-5h-2.2v-0.6h2.4v-2.7l0.8,0c0,0.1-0.1,0.1-0.2,0.1v2.5h2v0.6h-2V109.1z M481.9,107.7
		h-2.4c0.6,2.1,1.6,4.3,2.6,5.3c-0.1,0.1-0.3,0.3-0.5,0.5c-0.9-1.1-1.8-3.1-2.4-5v7.1h-0.6v-6.8c-0.7,2-1.8,3.9-3,4.9
		c-0.1-0.2-0.3-0.4-0.4-0.5c1.2-1.1,2.5-3.3,3.1-5.5h-2.2v-0.6h2.4v-2.7l0.8,0c0,0.1-0.1,0.1-0.2,0.1v2.5h2.7V107.7z"/>
	<path d="M475.7,121.1H472v6.5h-0.6v-10.5h4.3V121.1z M475.1,117.5H472v1.3h3.1V117.5z M472,120.6h3.1v-1.3H472V120.6z M478.5,122.1
		v4.3h-3.9v0.6H474v-4.9H478.5z M478,122.6h-3.3v1.4h3.3V122.6z M474.6,125.9h3.3v-1.5h-3.3V125.9z M481.3,117.1v9.6
		c0,0.9-0.4,0.9-2.4,0.9c0-0.2-0.1-0.4-0.2-0.6c0.3,0,0.7,0,1,0c0.4,0,0.7,0,0.8,0c0.2,0,0.3-0.1,0.3-0.3v-5.6h-3.8v-4.1H481.3z
		 M480.7,117.5h-3.2v1.3h3.2V117.5z M477.5,120.6h3.2v-1.3h-3.2V120.6z"/>
</g>
<g>
	<rect x="426.3" y="517.9" class="st5" width="12" height="36.2"/>
	<path d="M430.7,523.7l0.1,0.5c-0.5,0.2-1,0.4-1.5,0.6v3.9c0,0.7-0.3,0.8-1.9,0.8c0-0.1-0.1-0.4-0.2-0.6c0.3,0,0.6,0,0.8,0
		c0.7,0,0.7,0,0.7-0.2V525c-0.6,0.2-1.2,0.4-1.6,0.6c0,0.1,0,0.2-0.1,0.2l-0.3-0.7c0.6-0.2,1.3-0.4,2-0.7v-3h-1.9v-0.6h1.9v-2.5
		l0.8,0.1c0,0.1-0.1,0.1-0.2,0.1v2.3h1.5v0.6h-1.5v2.8L430.7,523.7z M431.3,519h6.1v6.8h-0.6v-0.6h-2.2v4.3H434v-4.3h-2.2v0.7h-0.6
		V519z M434,519.5h-2.2v2.3h2.2V519.5z M431.8,524.6h2.2v-2.3h-2.2V524.6z M436.8,521.8v-2.3h-2.2v2.3H436.8z M434.6,524.6h2.2v-2.3
		h-2.2V524.6z"/>
	<path d="M432.2,552.5h5.5v0.6h-10.9v-0.6h4.7v-9.7l0.8,0.1c0,0.1-0.1,0.1-0.2,0.1v3.7h4.7v0.6h-4.7V552.5z"/>
</g>
<g>
	<rect x="338.3" y="517.9" class="st5" width="12" height="36.2"/>
	<path d="M340.4,522.3c-0.5,0.8-1,1.6-1.6,2.2c-0.1-0.1-0.2-0.4-0.3-0.5c1.2-1.3,2.4-3.4,3.1-5.5l0.7,0.3c0,0.1-0.1,0.1-0.3,0.1
		c-0.3,0.9-0.7,1.7-1.1,2.5l0.3,0.1c0,0.1-0.1,0.1-0.2,0.1v7.9h-0.6V522.3z M346.3,528.4h3.6v0.6H342v-0.6h3.7V525h-3v-0.6h3v-3
		h-3.4v-0.6h7.4v0.6h-3.4v3h3v0.6h-3V528.4z M344.4,518.3c0.9,0.5,2.1,1.3,2.7,1.9l-0.4,0.5c-0.6-0.6-1.7-1.4-2.7-1.9L344.4,518.3z"
		/>
	<path d="M349.7,545h-5.2v2.1h4.4v0.6h-9.3v-0.6h4.2V545h-5v-0.6h5v-1.9l0.8,0.1c0,0.1-0.1,0.1-0.2,0.1v1.7h5.2V545z M340.6,553.7
		V549h7.4v4.6h-0.6v-0.6h-6.3v0.6H340.6z M347.5,549.6h-6.3v3h6.3V549.6z"/>
</g>
<g>
	<rect x="382.3" y="517.9" class="st5" width="12" height="36.2"/>
	<path d="M385.5,518.7c0.8,0.6,1.6,1.5,2.1,2.1l-0.4,0.5c-0.4-0.5-1.2-1.4-1.9-2c-0.4,0.7-0.9,1.5-1.5,2.3h3.2v0.5h-1.5v1.6h1.9v0.5
		h-1.9v3.7c0.6-0.1,1.3-0.2,2-0.3l0,0.5c-1.6,0.3-3.3,0.6-4.4,0.8c0,0.1-0.1,0.1-0.2,0.2l-0.2-0.7c0.6-0.1,1.3-0.2,2.2-0.3V524h-2.1
		v-0.5h2.1v-1.6h-1.4v-0.3c-0.2,0.2-0.3,0.4-0.5,0.5c-0.1-0.1-0.3-0.3-0.4-0.4c1.1-1.1,1.9-2.4,2.4-3.4l0.8,0.1
		C385.8,518.6,385.7,518.6,385.5,518.7L385.5,518.7z M383.8,527.2c0-0.6-0.3-1.6-0.5-2.3l0.5-0.1c0.3,0.7,0.5,1.7,0.6,2.3
		L383.8,527.2z M387.3,524.9c0,0.1-0.1,0.1-0.2,0.1c-0.1,0.6-0.4,1.5-0.7,2.1L386,527c0.2-0.6,0.5-1.6,0.6-2.3L387.3,524.9z
		 M393.5,524.6v3.1c0,0.6-0.2,0.7-1.5,0.7c0-0.2-0.1-0.4-0.2-0.5c0.5,0,0.9,0,1,0c0.1,0,0.2,0,0.2-0.2v-2.6h-2.1v4.3h-0.6v-4.3h-1.9
		v3.3h-0.6v-3.8h2.5v-1.1h-2.2v-3.9h1.9c0.1-0.4,0.3-0.9,0.4-1.2l0.7,0.2c0,0.1-0.1,0.1-0.2,0.1c-0.1,0.3-0.2,0.6-0.3,0.9h2.7v3.9
		H391c0,0-0.1,0.1-0.2,0.1v1H393.5z M388.6,520.1v1.2h4.1v-1.2H388.6z M388.6,521.8v1.2h4.1v-1.2H388.6z"/>
	<path d="M390.7,534.2c1.1,1,2.5,2.4,3.1,3.3l-0.5,0.3c-0.2-0.3-0.5-0.7-0.8-1.1c-1.3,0-2.6,0.1-3.9,0.1v4.7H388v-4.6
		c-1.8,0-3.5,0.1-4.7,0.1c0,0.1-0.1,0.1-0.2,0.1l-0.2-0.8h2.6c0.5-0.3,1-0.7,1.5-1.2c-0.8-0.7-2.1-1.6-3.2-2.3l0.4-0.4
		c0.3,0.2,0.6,0.4,1,0.6c0.8-0.8,1.8-1.9,2.4-2.7l0.7,0.4c0,0.1-0.1,0.1-0.2,0.1c-0.6,0.8-1.6,1.8-2.4,2.6c0.7,0.5,1.4,1,1.9,1.4
		c1.2-1,2.4-2.2,3.2-3.2l0.7,0.4c0,0.1-0.1,0.1-0.3,0.1c-1.2,1.3-3.1,3-4.7,4.3c1.8,0,3.8,0,5.7-0.1c-0.6-0.6-1.2-1.2-1.8-1.8
		L390.7,534.2z M386.4,538.2c0,0.1-0.1,0.1-0.3,0.1c-0.7,1-1.8,2.1-2.8,2.8c-0.1-0.1-0.3-0.3-0.5-0.4c1-0.7,2.1-1.8,2.8-2.8
		L386.4,538.2z M393.2,541.1c-0.6-0.8-1.9-2-3-2.9l0.5-0.3c1.1,0.9,2.4,2.1,3,2.8L393.2,541.1z"/>
	<path d="M388.4,543.2v8.1h-4.7v0.9h-0.5v-9.1H388.4z M385.5,543.8h-1.8v3.2h1.8V543.8z M383.7,547.5v3.3h1.8v-3.3H383.7z
		 M387.8,546.9v-3.2H386v3.2H387.8z M386,550.8h1.8v-3.3H386V550.8z M394,544.1v0.6h-1.8v8.1c0,0.5-0.1,0.7-0.5,0.8
		c-0.4,0.1-1.1,0.1-2.3,0.1c0-0.2-0.1-0.4-0.2-0.6c0.5,0,1,0,1.3,0h0.8c0.3,0,0.3-0.1,0.3-0.3v-8.1h-3v-0.6H394z"/>
</g>
<g>
	<rect x="470.3" y="193.9" class="st5" width="12" height="36.2"/>
	<path d="M474.6,199.2l0.4,0.2c0,0-0.1,0.1-0.1,0.1c-0.7,2.4-2.1,4.1-3.7,5.1c-0.1-0.1-0.3-0.3-0.5-0.4c1.5-0.9,2.8-2.4,3.5-4.4
		h-3.3v-0.6h3.5L474.6,199.2z M476.6,197.6c0.3,1,0.7,2,1.2,2.8c1-0.8,2.4-1.9,3.1-2.8l0.6,0.5c0,0-0.1,0.1-0.3,0.1
		c-0.8,0.8-2.2,1.9-3.3,2.7c0.9,1.5,2.2,2.6,3.8,3.2c-0.1,0.1-0.3,0.3-0.4,0.5c-2.3-0.9-3.9-2.9-4.9-5.4v5.4c0,0.4-0.1,0.6-0.4,0.7
		c-0.3,0.1-0.9,0.1-1.9,0.1c0-0.2-0.1-0.4-0.2-0.6c0.5,0,1,0,1.3,0c0.6,0,0.7,0,0.7-0.3v-7.1h-3.6v-0.6h4.2V197.6z M474,194.3
		c1.5,0.4,3.5,1.1,4.5,1.6l-0.3,0.6c-1-0.6-3-1.3-4.5-1.7L474,194.3z"/>
	<path d="M471.4,207.3h9.9v10.1h-0.6v-0.8H472v0.8h-0.6V207.3z M476,207.9h-4v3.8h4V207.9z M472,212.2v3.9h4v-3.9H472z M480.7,211.7
		v-3.8h-4.1v3.8H480.7z M476.6,216.1h4.1v-3.9h-4.1V216.1z"/>
	<path d="M476.4,219.2v8.1h-4.7v0.9h-0.5v-9.1H476.4z M473.5,219.8h-1.8v3.2h1.8V219.8z M471.7,223.5v3.3h1.8v-3.3H471.7z
		 M475.8,222.9v-3.2H474v3.2H475.8z M474,226.8h1.8v-3.3H474V226.8z M482,220.1v0.6h-1.8v8.1c0,0.5-0.1,0.7-0.5,0.8
		c-0.4,0.1-1.1,0.1-2.3,0.1c0-0.2-0.1-0.4-0.2-0.6c0.5,0,1,0,1.3,0h0.8c0.3,0,0.3-0.1,0.3-0.3v-8.1h-3v-0.6H482z"/>
</g>
<g>
	<rect x="513.4" y="193.9" class="st5" width="12" height="36.2"/>
	<path d="M524.7,201.4v0.6h-5.2v3.5H519v-3.5h-5.1v-0.6h5.1v-2.5h-4.3v-0.6h4.3v-3.9l0.8,0.1c0,0.1-0.1,0.1-0.2,0.1v3.7h4.4v0.6
		h-4.4v2.5H524.7z M515.7,194.7c0.6,0.9,1.3,2,1.5,2.8l-0.5,0.3c-0.3-0.7-0.9-1.9-1.5-2.8L515.7,194.7z M521.3,197.6
		c0.6-0.7,1.3-2,1.6-2.9l0.8,0.3c0,0.1-0.1,0.1-0.2,0.1c-0.4,0.8-1.1,1.9-1.7,2.7L521.3,197.6z"/>
	<path d="M521.5,210.3c0.1,1.6,0.3,3,0.6,4c0.5-0.9,1-2,1.2-3.2l0.7,0.2c0,0.1-0.1,0.1-0.2,0.1c-0.3,1.3-0.9,2.5-1.5,3.6
		c0.5,1.4,1.1,2,1.6,2c0.3,0,0.4-0.3,0.5-1.5c0.1,0.1,0.4,0.2,0.5,0.3c-0.1,1.5-0.4,1.8-1,1.8c-0.7,0-1.4-0.7-2-2.1
		c-0.6,0.9-1.4,1.6-2.3,2.1c-0.1-0.1-0.3-0.3-0.4-0.4c0.4-0.2,0.8-0.5,1.2-0.8h-3.7v0.7h-0.5v-5.9h4.4v0.5h-1.9v1h1.8v2.2h-1.8v1.1
		h1.9v0.2c0.4-0.4,0.7-0.8,1.1-1.3c-0.4-1.2-0.6-2.7-0.8-4.6h-5.5v2.5c0,1.5-0.2,3.5-1.2,4.9c-0.1-0.1-0.3-0.3-0.5-0.3
		c1-1.3,1.1-3.1,1.1-4.5v-3h6c0-0.4,0-0.7-0.1-1.1l0.3,0V208h-3.5v0.9h-0.6V208H514v-0.5h2.9v-1l0.8,0.1c0,0.1-0.1,0.1-0.2,0.1v0.8
		h3.5v-1l0.8,0.1c0,0.1-0.1,0.1-0.2,0.1v0.8h3v0.5h-3v0.8h-0.2l0,0.9h3.3v0.5H521.5z M518.2,211.6h-1.5v1h1.5V211.6z M520,214.3
		v-1.2h-3.3v1.2H520z M516.7,214.8v1.1h1.5v-1.1H516.7z M523.8,209.7c-0.3-0.4-0.9-0.8-1.5-1.1l0.4-0.3c0.5,0.3,1.2,0.8,1.5,1.1
		L523.8,209.7z"/>
	<path d="M518.6,219.2v4.3H515v6.1h-0.6v-10.5H518.6z M518,219.7h-3v1.3h3V219.7z M515,223h3v-1.4h-3V223z M524.3,219.2v9.5
		c0,0.5-0.1,0.7-0.5,0.8c-0.3,0.1-1,0.1-2.1,0.1c0-0.2-0.1-0.4-0.2-0.6c0.4,0,0.9,0,1.2,0c1,0,1,0,1-0.3v-5.2h-3.8v-4.3H524.3z
		 M523.7,219.7h-3.2v1.3h3.2V219.7z M520.5,223h3.2v-1.5h-3.2V223z"/>
</g>
<g>
	<rect x="646.3" y="85.9" class="st5" width="12" height="36.2"/>
	<path d="M649.4,90.7c0.4,0.4,1.4,1.8,1.7,2.1l-0.4,0.5c-0.2-0.4-0.9-1.3-1.3-1.9v6.1h-0.6v-6.4c-0.5,1.5-1.1,3.1-1.8,4
		c-0.1-0.2-0.3-0.4-0.4-0.5c0.8-1.1,1.7-3.1,2.1-4.9h-1.8v-0.6h1.9v-2.7l0.8,0c0,0.1-0.1,0.1-0.2,0.1v2.5h1.6v0.6h-1.6V90.7z
		 M657.5,89.7H652v1.2c0,2-0.2,4.7-1.5,6.6c-0.1-0.1-0.3-0.3-0.4-0.4c1.2-1.8,1.4-4.4,1.4-6.2V87h6V89.7z M656.9,87.5H652v1.6h4.9
		V87.5z M654.8,96.3c0,0.3,0.1,0.4,0.5,0.4h1.6c0.4,0,0.4-0.2,0.5-1.3c0.1,0.1,0.4,0.2,0.5,0.2c-0.1,1.3-0.2,1.6-0.9,1.6h-1.7
		c-0.8,0-1-0.2-1-0.9v-1.4c-1.8,0.3-1.9,0.3-2.1,0.3c0-0.1,0-0.1-0.1-0.5l2.2-0.3V93l-1.8,0.3l-0.1-0.5l1.9-0.3v-1.3
		c-0.6,0.2-1.2,0.3-1.7,0.4c0-0.1-0.1-0.3-0.2-0.4c1.5-0.3,3.2-0.8,4-1.2l0.6,0.4c0,0,0,0-0.2,0c-0.5,0.2-1.2,0.4-2,0.7v1.4l2.5-0.4
		l0.1,0.5l-2.6,0.4v1.4l3-0.5l0.1,0.5l-3.1,0.5V96.3z"/>
	<path d="M651.3,99c0,0.2-0.2,0.2-0.4,0.2c-0.1,0.7-0.4,1.9-0.5,2.6c1.1-0.1,1.2-0.1,1.5-0.1c1.7,0,2.3,1.2,2.3,2.9
		c0,1-0.2,2.1-0.4,2.8c-0.4,1.2-1.1,1.7-2.1,1.7c-0.5,0-1.1-0.2-2.2-1.1c0.1-0.1,0.2-0.3,0.3-0.5c1,0.8,1.5,1,1.9,1
		c0.7,0,1.2-0.4,1.5-1.2c0.3-0.8,0.4-2,0.4-2.6c0-1.4-0.5-2.3-1.8-2.3c-0.4,0-0.8,0-1.6,0.1c-0.6,2.5-1.4,4.6-2.6,6.6l-0.6-0.3
		c1.2-1.9,1.9-3.8,2.5-6.2c-0.7,0.1-1.6,0.2-2.2,0.3l-0.1-0.6c0.6-0.1,1.6-0.2,2.4-0.3c0.2-0.9,0.4-2,0.5-3.1L651.3,99z M654.2,98.7
		c0.6,0.4,1.3,1.2,1.7,1.7l-0.4,0.3c-0.4-0.5-1.1-1.3-1.6-1.7L654.2,98.7z M657,105.7c-0.4-1.8-1.5-3.2-2.6-4.1l0.5-0.3
		c1.2,1,2.3,2.4,2.7,4.2L657,105.7z M656,98.2c0.6,0.4,1.3,1.2,1.7,1.7l-0.4,0.3c-0.4-0.5-1.1-1.3-1.6-1.7L656,98.2z"/>
	<path d="M649,116.9c-0.6,0.5-1.2,0.9-1.9,1.2c-0.1-0.1-0.2-0.3-0.4-0.4c2.1-1.1,4.2-3.1,5.2-4.9l0.9,0c0,0.1-0.1,0.1-0.2,0.2
		c1.2,1.8,3.4,3.6,5.3,4.5c-0.1,0.1-0.3,0.3-0.4,0.5c-0.6-0.3-1.2-0.7-1.8-1.1v4.8h-0.6v-0.5h-5.6v0.6H649V116.9z M651.1,111.2
		c0,0.1-0.1,0.1-0.3,0.1c-0.8,1.1-2.1,2.2-3.2,3c-0.1-0.1-0.3-0.3-0.5-0.4c1.1-0.7,2.4-1.8,3.2-3L651.1,111.2z M655.7,116.9
		c-1.4-1-2.6-2.2-3.5-3.4c-0.7,1.1-1.9,2.4-3.3,3.4H655.7z M649.6,120.6h5.6v-3.2h-5.6V120.6z M654.1,110.8c1.2,0.8,2.7,2,3.3,2.9
		l-0.5,0.4c-0.7-0.8-2.1-2.1-3.3-2.9L654.1,110.8z"/>
</g>
<g>
	<rect x="558.3" y="85.9" class="st5" width="12" height="36.2"/>
	<path d="M564.3,92.8c0.4,0.8,0.8,1.5,1.4,2.1c1-0.5,2.2-1.2,2.9-1.8l0.6,0.4c0,0.1-0.1,0.1-0.2,0c-0.7,0.5-1.9,1.2-2.9,1.7
		c1,0.9,2.3,1.5,3.8,1.8c-0.1,0.1-0.3,0.3-0.4,0.5c-2.8-0.6-4.8-2.2-5.9-4.7h-2v3.6c1.1-0.2,2.3-0.4,3.5-0.6l0,0.5
		c-2,0.4-4,0.8-5.3,1c0,0.1-0.1,0.1-0.1,0.2l-0.3-0.7c0.5-0.1,1-0.2,1.6-0.3v-3.7h-2.2v-0.6h2.2v-5.4h7.5v0.5h-6.9v1.3h6.5v0.5h-6.5
		v1.3h6.5V91h-6.5v1.3h8v0.6H564.3z"/>
	<path d="M559.1,101.9c0.8,0.3,1.7,0.9,2.1,1.3l-0.3,0.5c-0.4-0.4-1.4-1-2.1-1.3L559.1,101.9z M559.1,109c0.6-0.9,1.4-2.6,2-3.9
		l0.4,0.4c-0.6,1.3-1.3,2.8-1.9,3.7c0,0.1,0,0.1,0,0.2s0,0.1,0,0.1L559.1,109z M559.7,98.6c0.8,0.4,1.7,0.9,2.1,1.4
		c-0.2,0.3-0.3,0.4-0.3,0.5c-0.4-0.4-1.3-1.1-2.1-1.4L559.7,98.6z M569.9,106.9v0.5h-4.1v2.1h-0.6v-2.1h-3.8v-0.5h3.8v-1.2h-3.1
		v-0.5h3.1V104h-2.8v-0.5h2.8v-1.3h-3.5v-0.5h3.5v-1.3h-2.7v-0.5h2.7v-1.4l0.8,0.1c0,0.1-0.1,0.1-0.2,0.1v1.2h2.9v1.8h1.2v0.5h-1.2
		v1.8h-2.9v1.2h3.3v0.5h-3.3v1.2H569.9z M565.7,100.4v1.3h2.3v-1.3H565.7z M565.7,102.2v1.3h2.3v-1.3H565.7z"/>
	<path d="M559.4,111.4h9.9v10.1h-0.6v-0.8H560v0.8h-0.6V111.4z M564,112h-4v3.8h4V112z M560,116.3v3.9h4v-3.9H560z M568.7,115.8V112
		h-4.1v3.8H568.7z M564.6,120.2h4.1v-3.9h-4.1V120.2z"/>
</g>
<g>
	<rect x="602.3" y="85.9" class="st5" width="12" height="36.2"/>
	<path d="M607.8,90.5c-1.7,0.1-3.5,0.3-4.6,0.3c0,0.1-0.1,0.1-0.1,0.2l-0.2-0.6l0.8,0v-1.5l0.7,0c0,0.1-0.1,0.1-0.2,0.1v1.3l1.1-0.1
		v-1.9h-1.7v-1.6h3.9v1.6h-1.8V89h1.9v0.4h-1.9v0.8l2.1-0.1L607.8,90.5z M603.1,97.1c0.6-0.2,1-0.7,1.2-1.3l0.5,0.2
		c-0.2,0.6-0.6,1.2-1.3,1.5L603.1,97.1z M604.1,87.9h2.9v-0.8h-2.9V87.9z M605.5,94.2h8.3v0.4h-8.3v0.5h7.1l0.1,0l0.3,0.1
		c0,0.1,0,0.1,0,0.2c-0.1,1.2-0.3,1.7-0.5,1.9c-0.2,0.1-0.3,0.2-0.6,0.2c-0.3,0-0.8,0-1.4,0c0-0.1-0.1-0.3-0.1-0.5
		c0.6,0.1,1.1,0.1,1.3,0.1s0.3,0,0.4-0.1c0.1-0.1,0.2-0.5,0.3-1.4h-7.5v-4.3h2.6c0.2-0.3,0.4-0.6,0.5-0.9l0.7,0.2
		c0,0.1-0.1,0.1-0.2,0.1c-0.1,0.2-0.2,0.4-0.4,0.6h3.6v2.4h-6.2V94.2z M605.5,91.8v0.6h5.6v-0.6H605.5z M611.1,93.3v-0.6h-5.6v0.6
		H611.1z M606.4,95.9c0.2,0.4,0.3,0.9,0.4,1.2l-0.5,0.1c0-0.3-0.1-0.9-0.3-1.2L606.4,95.9z M612.9,87c0,0-0.1,0.1-0.1,0.1
		c-0.3,0.5-0.8,0.9-1.4,1.2c0.8,0.3,1.8,0.5,2.7,0.7c-0.1,0.1-0.3,0.3-0.3,0.4c-0.4-0.1-0.8-0.1-1.1-0.2v1.7h-3.6v-1.6
		c-0.3,0.1-0.7,0.2-1,0.2c-0.1-0.1-0.2-0.3-0.3-0.4c0.9-0.1,1.9-0.4,2.7-0.7c-0.4-0.2-0.8-0.5-1.1-0.8c-0.3,0.2-0.7,0.5-1.1,0.7
		c-0.1-0.1-0.3-0.3-0.4-0.3c1-0.4,1.8-1,2.2-1.6l0.7,0.1c0,0.1-0.1,0.1-0.2,0.1c-0.1,0.1-0.2,0.2-0.3,0.3h2.3l0.1,0L612.9,87z
		 M608.3,95.8c0.3,0.3,0.6,0.8,0.8,1.1l-0.5,0.2c-0.1-0.3-0.4-0.8-0.7-1.1L608.3,95.8z M609.3,89.2h3.4c-0.6-0.2-1.2-0.4-1.7-0.6
		C610.5,88.8,609.9,89,609.3,89.2z M609.6,90.4h2.6v-0.9h-2.6V90.4z M610.9,88.1c0.4-0.2,0.8-0.5,1.1-0.8h-2.4
		C610,87.6,610.5,87.9,610.9,88.1z M610.7,96.9c-0.2-0.3-0.5-0.6-0.9-0.9l0.4-0.3c0.3,0.2,0.7,0.6,0.9,0.8L610.7,96.9z"/>
	<path d="M603.1,114c0.8,0.3,1.8,0.9,2.2,1.3l-0.3,0.5c-0.5-0.4-1.4-1-2.2-1.3L603.1,114z M603.1,121.1c0.6-1,1.5-2.6,2.2-4l0.4,0.4
		c-0.6,1.3-1.4,2.9-2,3.8c0,0,0,0.1,0,0.2c0,0,0,0.1,0,0.1L603.1,121.1z M605.5,112.5c-0.5-0.5-1.4-1.1-2.2-1.4l0.3-0.4
		c0.8,0.4,1.7,0.9,2.2,1.4L605.5,112.5z M613.1,111.2l0.3,0c0,0.1,0,0.1,0,0.2c-0.1,2.8-0.3,3.8-0.6,4.1c-0.2,0.2-0.4,0.3-1.1,0.3
		c-0.3,0-0.7,0-1.2,0c0-0.2-0.1-0.4-0.2-0.6c0.7,0.1,1.3,0.1,1.5,0.1c0.2,0,0.3,0,0.4-0.1c0.2-0.2,0.3-1.1,0.4-3.5h-3
		c-0.3,1.8-1,3.7-3.5,4.7c-0.1-0.1-0.2-0.3-0.4-0.5c2.2-0.8,2.9-2.5,3.2-4.2h-2.6v-0.6h6.4L613.1,111.2z M606.9,121.7v-4.8h6v4.8
		h-0.6v-0.5h-4.9v0.6H606.9z M612.3,117.4h-4.9v3.1h4.9V117.4z"/>
</g>
<g>
	<rect x="602.3" y="193.9" class="st5" width="12" height="36.2"/>
	<path d="M606.8,196.6l0.4,0.3c0,0-0.1,0.1-0.1,0.1c-0.4,1-1,2-1.7,2.9c0.5,0.4,1.6,1.4,1.9,1.6l-0.3,0.5c-0.3-0.3-1.1-1.1-1.7-1.5
		v5.1h-0.6v-4.9c-0.6,0.7-1.2,1.3-1.9,1.7c-0.1-0.1-0.2-0.4-0.3-0.5c1.4-1,3-2.8,3.9-4.6h-3.5v-0.6h1.8v-2.3l0.8,0.1
		c0,0.1-0.1,0.1-0.2,0.1v2.1h1.4L606.8,196.6z M610.8,196.5h2.8v5.9h-0.6v-0.5h-2.3v3.5h-0.6v-3.5h-2.1v0.6h-0.6v-6h2.7v-2.1l0.8,0
		c0,0.1-0.1,0.1-0.2,0.1V196.5z M610.2,197.1h-2.1v1.9h2.1V197.1z M608.1,201.4h2.1v-1.9h-2.1V201.4z M613.1,197.1h-2.3v1.9h2.3
		V197.1z M610.8,201.4h2.3v-1.9h-2.3V201.4z"/>
	<path d="M604.4,210.4c-0.5,0.8-1,1.6-1.6,2.2c-0.1-0.1-0.2-0.4-0.3-0.5c1.2-1.3,2.4-3.4,3.1-5.5l0.7,0.3c0,0.1-0.1,0.1-0.3,0.1
		c-0.3,0.9-0.7,1.7-1.1,2.5l0.3,0.1c0,0.1-0.1,0.1-0.2,0.1v7.9h-0.6V210.4z M613.8,213.1h-3.1c0.8,1.4,2.2,2.8,3.5,3.5
		c-0.1,0.1-0.3,0.3-0.4,0.5c-1.3-0.8-2.6-2.2-3.5-3.7v4.2h-0.6v-4.2c-0.9,1.5-2.3,2.9-3.6,3.6c-0.1-0.1-0.3-0.3-0.4-0.5
		c1.3-0.6,2.8-2,3.6-3.4h-3.3v-0.6h3.8V211h-2.8v-4h6.3v4h-2.9v1.5h3.6V213.1z M607.4,207.6v2.9h5.1v-2.9H607.4z"/>
	<path d="M608.4,219.2v8.1h-4.7v0.9h-0.5v-9.1H608.4z M605.5,219.8h-1.8v3.2h1.8V219.8z M603.7,223.5v3.3h1.8v-3.3H603.7z
		 M607.8,222.9v-3.2H606v3.2H607.8z M606,226.8h1.8v-3.3H606V226.8z M614,220.1v0.6h-1.8v8.1c0,0.5-0.1,0.7-0.5,0.8
		c-0.4,0.1-1.1,0.1-2.3,0.1c0-0.2-0.1-0.4-0.2-0.6c0.5,0,1,0,1.3,0h0.8c0.3,0,0.3-0.1,0.3-0.3v-8.1h-3v-0.6H614z"/>
</g>
<g>
	<rect x="558.3" y="193.9" class="st5" width="12" height="36.2"/>
	<path d="M567,204.2c0,0.4,0.1,0.5,0.5,0.5h1.3c0.4,0,0.5-0.4,0.5-2.2c0.2,0.1,0.4,0.2,0.6,0.3c-0.1,1.9-0.2,2.5-1,2.5h-1.4
		c-0.8,0-1-0.2-1-1.1V198l-3.2,0.1c-0.3,2.9-1.1,5.8-4,7.4c-0.1-0.1-0.3-0.3-0.5-0.4c2.7-1.4,3.6-4.1,3.8-6.9l-3.4,0.1l0-0.6
		l3.5-0.1c0.1-1.1,0.1-2.1,0.1-3.1l0.9,0c0,0.1-0.1,0.2-0.3,0.2c0,0.9,0,1.9-0.1,2.9l3.2-0.1l0.1-0.1l0.4,0.1c0,0,0,0.1,0,0.2V204.2
		z"/>
	<path d="M560.3,214.8c1.1-0.2,2.3-0.4,3.5-0.7l0,0.5c-1.2,0.3-2.5,0.5-3.5,0.7v2.1h-0.6v-2l-0.6,0.1c0,0.1-0.1,0.1-0.1,0.2
		l-0.3-0.7c0.3,0,0.6-0.1,1-0.2v-7.5l0.5,0.2c1.1-0.3,2.3-0.7,3-1.2l0.6,0.5c0,0-0.1,0-0.1,0c0,0-0.1,0-0.1,0
		c-0.8,0.4-2.1,0.8-3.3,1.2v1.7h3v0.6h-3v1.8h3.1v0.6h-3.1V214.8z M568.8,211.9l0.4,0.2c0,0-0.1,0.1-0.1,0.1
		c-0.4,1.4-1.2,2.4-2.1,3.3c0.8,0.7,1.8,1.2,2.9,1.6c-0.1,0.1-0.3,0.3-0.4,0.5c-1.1-0.4-2.1-0.9-2.9-1.7c-0.9,0.8-2.1,1.4-3.2,1.7
		c-0.1-0.2-0.2-0.4-0.3-0.5c1.1-0.3,2.2-0.9,3.2-1.6c-0.7-0.8-1.3-1.7-1.7-2.8l0.5-0.1c0.4,1,0.9,1.9,1.6,2.6
		c0.8-0.7,1.4-1.6,1.8-2.6H564v-0.6h4.7L568.8,211.9z M565.3,207.6v1.3c0,1-0.2,2.1-1.3,2.9c-0.1-0.1-0.3-0.3-0.4-0.4
		c1-0.7,1.2-1.7,1.2-2.5V207h3.4v3.1c0,0.4,0,0.5,0.3,0.5h0.4c0.5,0,0.5-0.1,0.5-1.4c0.1,0.1,0.3,0.2,0.5,0.2c0,1.3,0,1.7-0.9,1.7
		h-0.6c-0.8,0-0.8-0.4-0.8-1.1v-2.4H565.3z"/>
	<path d="M569.7,220.1h-5.3v2.2l0,0c1.6,0.8,3.6,1.9,4.6,2.7l-0.4,0.5c-0.9-0.7-2.7-1.8-4.2-2.6v6.8h-0.6v-9.6h-4.9v-0.6h10.8V220.1
		z"/>
</g>
<g>
	<rect x="382.3" y="193.9" class="st5" width="12" height="36.2"/>
	<path d="M383.1,197.8c0.8,0.3,1.8,0.9,2.2,1.3l-0.3,0.5c-0.5-0.4-1.4-1-2.2-1.3L383.1,197.8z M383.1,204.9c0.6-1,1.5-2.6,2.2-4
		l0.4,0.4c-0.6,1.3-1.4,2.9-2,3.8c0,0,0,0.1,0,0.2c0,0,0,0.1,0,0.1L383.1,204.9z M383.7,194.5c0.8,0.4,1.7,0.9,2.2,1.4l-0.3,0.5
		c-0.5-0.5-1.4-1.1-2.2-1.4L383.7,194.5z M390.3,198.7h3.5v0.6h-8.2v-0.6h1.6v-3.3l0.8,0c0,0.1-0.1,0.1-0.2,0.1v3.1h1.9v-4.3
		l0.8,0.1c0,0.1-0.1,0.1-0.2,0.1v1.7h3.1v0.6h-3.1V198.7z M385.8,204.9c0.8-0.5,2.1-1.2,3.3-2l0.2,0.5c-1.1,0.7-2.3,1.4-3,1.9
		c0,0.1,0,0.2-0.1,0.2L385.8,204.9z M386.9,199.8c0.7,0.6,1.6,1.4,2,1.9l-0.5,0.4c-0.4-0.6-1.2-1.4-1.9-2L386.9,199.8z M393.4,205.5
		c-0.6-0.7-2-1.7-3-2.3l0.4-0.4c1.1,0.6,2.4,1.6,3.1,2.3L393.4,205.5z M393.4,200.1c0,0.1-0.1,0.1-0.2,0.1c-0.5,0.6-1.4,1.4-2,2
		c0,0-0.4-0.3-0.4-0.3c0.7-0.6,1.5-1.5,2.1-2.2L393.4,200.1z"/>
	<path d="M385,224.9c-0.6,0.5-1.2,0.9-1.9,1.2c-0.1-0.1-0.2-0.3-0.4-0.4c2.1-1.1,4.2-3.1,5.2-4.9l0.9,0c0,0.1-0.1,0.1-0.2,0.2
		c1.2,1.8,3.4,3.6,5.3,4.5c-0.1,0.1-0.3,0.3-0.4,0.5c-0.6-0.3-1.2-0.7-1.8-1.1v4.8h-0.6v-0.5h-5.6v0.6H385V224.9z M387.1,219.2
		c0,0.1-0.1,0.1-0.3,0.1c-0.8,1.1-2.1,2.2-3.2,3c-0.1-0.1-0.3-0.3-0.5-0.4c1.1-0.7,2.4-1.8,3.2-3L387.1,219.2z M391.7,224.9
		c-1.4-1-2.6-2.2-3.5-3.4c-0.7,1.1-1.9,2.4-3.3,3.4H391.7z M385.6,228.6h5.6v-3.2h-5.6V228.6z M390.1,218.8c1.2,0.8,2.7,2,3.3,2.9
		l-0.5,0.4c-0.7-0.8-2.1-2.1-3.3-2.9L390.1,218.8z"/>
</g>
<g>
	<rect x="646.3" y="193.9" class="st5" width="12" height="36.2"/>
	<path d="M647,203.9h10.6v0.6H647V203.9z M647.7,195.6h9.2v0.6h-9.2V195.6z M648.5,199.6h7.5v0.6h-7.5V199.6z"/>
	<path d="M650,213.5v2.7c0.8,0.4,1.8,0.5,3.2,0.5c0.4,0,4.3,0,4.8,0c-0.1,0.1-0.2,0.4-0.3,0.6h-4.5c-2.9,0-4.4-0.5-5.2-2.5
		c-0.2,1-0.4,2-1,2.8c-0.1-0.1-0.3-0.3-0.4-0.3c0.9-1.5,1.1-3.6,1.1-5.2l0.7,0c0,0.1-0.1,0.1-0.2,0.2c0,0.4,0,1,0,1.5
		c0.3,1,0.7,1.8,1.3,2.2V211h-2.6v-0.5h2.5v-1.9h-2v-0.5h2v-1.6l0.8,0.1c0,0.1-0.1,0.1-0.2,0.1v1.4h1.9v0.5h-1.9v1.9h2.2v0.5h-1.9
		c0,0-0.1,0-0.1,0v1.8h1.9v0.5H650z M651.4,214.7c0.3-0.1,0.6-0.3,1-0.5v-5.5h2.3c0-0.7-0.1-1.5-0.1-2.2l0.8,0
		c0,0.1-0.1,0.1-0.2,0.2c0,0.7,0,1.4,0,2h2.7v0.5h-2.7c0.1,1.5,0.3,2.8,0.5,3.8c0.5-0.9,0.9-1.9,1.2-2.9l0.7,0.3
		c0,0.1-0.1,0.1-0.2,0.1c-0.3,1.2-0.8,2.3-1.5,3.2c0.3,0.9,0.7,1.4,1.1,1.4c0.3,0,0.4-0.6,0.5-1.9c0.1,0.1,0.3,0.2,0.5,0.3
		c-0.1,1.7-0.3,2.2-1,2.2c-0.6,0-1.1-0.5-1.5-1.4c-0.4,0.6-0.9,1.1-1.4,1.5c-0.1-0.1-0.3-0.3-0.4-0.3c0.6-0.5,1.2-1.1,1.6-1.8
		c-0.3-1.2-0.6-2.7-0.7-4.4h-1.8v4.7c0.6-0.3,1.2-0.6,1.8-0.9l0.1,0.5c-1.1,0.6-2.2,1.2-3,1.6c0,0.1,0,0.2-0.1,0.2L651.4,214.7z
		 M656.3,206.6c0.5,0.5,1.1,1.1,1.3,1.5l-0.4,0.3c-0.3-0.4-0.8-1.1-1.3-1.5L656.3,206.6z"/>
	<path d="M646.9,220.6h10.8v0.6h-10.8V220.6z M651.5,222.4L651.5,222.4l0.3,0v6.4c0,0.4-0.1,0.6-0.4,0.7c-0.3,0.1-0.8,0.1-1.7,0.1
		c0-0.2-0.1-0.4-0.2-0.5c0.3,0,0.6,0,0.8,0c0.9,0,0.9,0,0.9-0.2v-1.9h-2.9v2.8h-0.6v-7.3H651.5z M651.2,223h-2.9v1.5h2.9V223z
		 M648.3,226.4h2.9v-1.5h-2.9V226.4z M649.4,218.6c0.6,0.5,1.2,1.2,1.5,1.7l-0.5,0.3c-0.3-0.5-0.9-1.2-1.5-1.7L649.4,218.6z
		 M653.3,227.5v-5l0.8,0.1c0,0.1-0.1,0.1-0.2,0.1v4.8H653.3z M653.9,220.3c0.5-0.5,1.1-1.3,1.4-1.8l0.7,0.3c0,0.1-0.1,0.1-0.2,0.1
		c-0.4,0.5-0.9,1.2-1.4,1.7L653.9,220.3z M656.8,228.8c0,0.4-0.1,0.6-0.4,0.7c-0.3,0.1-0.9,0.1-1.9,0.1c0-0.2-0.1-0.4-0.2-0.6
		c0.4,0,0.8,0,1.1,0c0.8,0,0.9,0,0.9-0.3v-6.7l0.8,0c0,0.1-0.1,0.1-0.2,0.1V228.8z"/>
</g>
<g>
	<rect x="426.3" y="301.9" class="st5" width="12" height="36.2"/>
	<path d="M436.9,303.3v9.2c0,0.5-0.1,0.7-0.5,0.8s-1,0.1-2.2,0.1c0-0.2-0.1-0.4-0.2-0.6c0.4,0,0.8,0,1.1,0c0.4,0,0.8,0,0.9,0
		c0.2,0,0.3-0.1,0.3-0.3v-2.9h-3.7v3.8H432v-3.8h-3.4c-0.2,1.4-0.6,2.8-1.5,3.9c-0.1-0.1-0.3-0.3-0.4-0.4c1.4-1.5,1.5-3.7,1.5-5.4
		v-4.4H436.9z M428.8,307.7c0,0.4,0,0.9,0,1.4h3.3v-2.3h-3.3V307.7z M432,303.8h-3.3v2.4h3.3V303.8z M436.3,306.2v-2.4h-3.7v2.4
		H436.3z M432.6,309h3.7v-2.3h-3.7V309z"/>
	<path d="M432.3,327.5c0,0.1,0,0.1,0,0.2c-0.1,2.5-0.3,2.5-1.4,2.5c-0.3,0-0.7,0-1,0c0-0.1-0.1-0.4-0.1-0.5c0.6,0.1,1.2,0.1,1.3,0.1
		c0.2,0,0.3,0,0.4-0.1c0.1-0.1,0.2-0.6,0.3-1.7h-2.1c-0.3,1.3-0.9,2.4-2.6,3c-0.1-0.1-0.2-0.3-0.3-0.4c1.4-0.5,2-1.4,2.3-2.6h-2
		v-0.5h2.1c0-0.3,0.1-0.6,0.1-0.9l0.8,0.1c0,0.1-0.1,0.1-0.2,0.1c0,0.2,0,0.5-0.1,0.7h2.2l0.1,0L432.3,327.5z M431.2,336.4
		c0,0.1-0.1,0.1-0.2,0.1c-1,0.5-2.4,1-3.6,1.3c-0.1-0.1-0.3-0.3-0.4-0.4c1.2-0.3,2.7-0.7,3.6-1.2L431.2,336.4z M428.5,335.8v-4.9
		h7.8v4.9H428.5z M429.1,331.3v1h6.6v-1H429.1z M429.1,332.8v1h6.6v-1H429.1z M429.1,334.2v1h6.6v-1H429.1z M437.2,327.3v2.9h-4
		v-2.9H437.2z M437.1,337.7c-0.8-0.4-2.2-0.9-3.6-1.3l0.5-0.3c1.4,0.4,2.8,0.9,3.7,1.3L437.1,337.7z M436.7,329.7v-1.9h-2.9v1.9
		H436.7z"/>
</g>
<g>
	<rect x="498.3" y="713" class="st5" width="117.9" height="16.5"/>
	<path d="M500.9,715.5v-1h8.1v1h-4.1c-0.2,0.8-0.5,1.7-0.8,2.6h3.6l0.2,0l0.7,0.3c0,0.1-0.1,0.1-0.1,0.2c-0.9,5.1-3.1,8.3-6.1,10
		c-0.2-0.2-0.6-0.6-0.8-0.8c1.6-0.8,3-2.1,4.1-3.9c-0.7-0.6-1.9-1.4-2.8-1.9l0.5-0.8c0.9,0.5,2,1.2,2.8,1.8c0.5-1.1,0.9-2.3,1.2-3.8
		h-3.6c-0.6,1.4-1.5,2.8-2.5,3.8c-0.2-0.2-0.5-0.5-0.8-0.7c1.7-1.6,2.8-4.3,3.4-6.7H500.9z M509.7,715.5l1.4,0.1
		c0,0.1-0.1,0.2-0.3,0.2v8.6h-1.1V715.5z M513.7,713.9l1.4,0.1c0,0.1-0.1,0.2-0.3,0.2V727c0,1.4-0.6,1.5-3.5,1.5
		c-0.1-0.3-0.2-0.8-0.4-1.1c0.7,0,1.3,0,1.7,0c1,0,1.1,0,1.1-0.4V713.9z"/>
	<path d="M531.8,725v1H525v2.4h-1.1V726h-6.7v-1h6.7v-1.4H519v-6.3h4.9v-1.3h-6.2v-1h6.2v-1.5l1.4,0.1c0,0.1-0.1,0.2-0.3,0.2v1.2
		h6.3v1H525v1.3h5.1v6.3H525v1.4H531.8z M520,718.3v1.8h3.9v-1.8H520z M520,722.7h3.9v-1.8H520V722.7z M529,718.3h-4v1.8h4V718.3z
		 M529,722.7v-1.8h-4v1.8H529z"/>
	<path d="M535.1,716.8c0,1.4-0.3,3.2-0.9,4.2c-0.6-0.4-0.7-0.4-0.8-0.4c0.6-0.9,0.8-2.5,0.9-3.9L535.1,716.8z M535.7,713.6l1.4,0.1
		c0,0.1-0.1,0.2-0.3,0.2v14.5h-1.1V713.6z M538.2,718.7c-0.2-0.6-0.7-1.6-1.2-2.4l0.7-0.4c0.5,0.7,1,1.7,1.2,2.3L538.2,718.7z
		 M543.8,718.9h4.5v0.9h-9.9v-0.9h4.3v-1.2h-3.1v-0.8h3.1v-1.1h-3.8V715h3.8v-1.4l1.4,0.1c0,0.1-0.1,0.2-0.3,0.2v1.1h3.9v0.9h-3.9
		v1.1h3.3v0.8h-3.3V718.9z M546.8,720.9v6.4c0,1-0.4,1.2-2.6,1.2c0-0.3-0.2-0.7-0.3-0.9c0.4,0,0.9,0,1.2,0c0.7,0,0.7,0,0.7-0.3v-1.4
		h-5v2.5h-1v-7.5H546.8z M545.8,721.8h-5v1.2h5V721.8z M540.8,725h5v-1.2h-5V725z"/>
	<path d="M554.1,716.1v1.8h3.2v0.9h-7.4v-0.9h3.2v-1.8h-2.6v-0.9h2.6v-1.6l1.3,0.1c0,0.1-0.1,0.2-0.3,0.2v1.3h2.5v0.9H554.1z
		 M554.4,721.4c0.3-0.6,0.8-1.7,1-2.4l1.1,0.4c0,0.1-0.2,0.1-0.3,0.1c-0.3,0.6-0.7,1.4-1,2h1.9v0.9h-2.9v1.9h2.7v0.9h-2.7v3.2h-1
		v-3.2h-2.8v-0.9h2.8v-1.9h-3v-0.9h4.5L554.4,721.4z M551.8,721.5c-0.1-0.6-0.4-1.5-0.7-2.2l0.8-0.2c0.4,0.7,0.7,1.6,0.8,2.2
		L551.8,721.5z M563.5,720.4l0.7,0.2c0,0.1-0.1,0.1-0.1,0.2c-0.3,1.7-0.9,3.4-1.8,4.8c0.7,0.8,1.5,1.4,2.4,1.8
		c-0.3,0.2-0.6,0.6-0.8,0.9c-0.9-0.4-1.6-1.1-2.3-1.9c-0.5,0.7-1.2,1.3-1.9,1.7c-0.2-0.2-0.5-0.5-0.7-0.7c0.8-0.5,1.4-1.1,2-1.9
		c-0.8-1.1-1.4-2.4-1.8-3.8l0.9-0.2c0.4,1.1,0.9,2.2,1.5,3.1c0.6-1,1-2.2,1.3-3.4h-4.1v7.1h-1v-14.1h6.2v4c0,1.2-0.6,1.2-2.8,1.2
		c0-0.3-0.2-0.7-0.3-0.9c0.4,0,0.8,0,1.1,0c0.9,0,0.9,0,0.9-0.3v-3h-4.2v5.1h4.5L563.5,720.4z"/>
	<path d="M572.3,716.3v0.9h-6.1v-0.9H572.3z M571.8,722.8v4.7h-3.9v0.8h-1v-5.5H571.8z M567,719.3v-0.9h4.8v0.9H567z M567,721.5
		v-0.9h4.8v0.9H567z M571.7,714.1v0.9h-4.7v-0.9H571.7z M570.8,723.7h-2.9v2.9h2.9V723.7z M574.7,715.1v1c0,1.4-0.4,3.1-2.1,4.2
		c-0.2-0.2-0.6-0.6-0.8-0.7c1.6-1,1.8-2.4,1.8-3.5v-2h5v4c0,0.4,0,0.4,0.3,0.4h0.9c0.3,0,0.4-0.2,0.4-1.8c0.2,0.2,0.6,0.3,0.9,0.4
		c-0.1,1.9-0.4,2.4-1.2,2.4h-1.2c-0.9,0-1.2-0.3-1.2-1.3v-3.1H574.7z M579.6,720.6l0.7,0.3c0,0.1-0.1,0.1-0.1,0.2
		c-0.5,1.9-1.5,3.4-2.8,4.6c1.1,0.8,2.4,1.5,3.8,1.8c-0.2,0.2-0.5,0.7-0.7,0.9c-1.5-0.4-2.8-1.1-4-2.1c-1.2,1-2.7,1.6-4.2,2.1
		c-0.1-0.3-0.4-0.7-0.6-0.9c1.4-0.4,2.8-1,4-1.9c-1-1-1.8-2.3-2.4-3.7l1-0.3c0.5,1.3,1.2,2.4,2.2,3.3c1-0.9,1.7-2,2.3-3.4h-6.3v-1
		h6.9L579.6,720.6z"/>
	<path d="M590.6,723.4v3.5c0.8,0.2,1.8,0.2,2.8,0.2c0.6,0,3.4,0,4.1,0c-0.2,0.3-0.4,0.8-0.4,1.1h-3.7c-3.4,0-5.9-0.6-7.4-3.5
		c-0.6,1.6-1.4,2.9-2.5,3.8c-0.2-0.2-0.6-0.5-0.8-0.7c1.8-1.3,2.7-3.7,3.1-6.7l1.4,0.2c0,0.1-0.1,0.2-0.3,0.2
		c-0.1,0.6-0.2,1.3-0.4,1.9c0.7,1.8,1.8,2.8,3.2,3.3v-7h-4.1v-1h9.4v1h-4.2v2.8h4.9v1H590.6z M584.4,716.5v2.4h-1.1v-3.4h6.1v-2
		l1.5,0.1c0,0.1-0.1,0.2-0.3,0.2v1.6h6.2v3.4h-1.1v-2.4H584.4z"/>
	<path d="M613.7,721h-4.7c1.3,1.2,3.2,2.1,5.1,2.6c-0.2,0.2-0.5,0.6-0.7,0.9c-0.4-0.1-0.8-0.2-1.1-0.4v4.3h-1v-0.6h-3.2v0.6h-1v-5.3
		h3.2c-1.1-0.6-2-1.4-2.8-2.2h-2.5c-0.8,0.8-1.7,1.6-2.8,2.2h3.3v5.2h-1v-0.6h-3.1v0.6h-1v-4.4c-0.4,0.1-0.7,0.3-1.1,0.4
		c-0.1-0.2-0.5-0.6-0.7-0.8c2-0.7,3.6-1.6,4.9-2.7h-4.5v-1h5.5c0.3-0.4,0.6-0.8,0.8-1.3h-5.2v-4.4h5.2v4.3l0.1-0.3l1.3,0.4
		c0,0.1-0.2,0.2-0.4,0.2c-0.2,0.4-0.4,0.8-0.7,1.2h7.7V721z M604.6,717.8v-2.6h-3.2v2.6H604.6z M604.7,726.9v-2.8h-3.1v2.8H604.7z
		 M612.7,714.3v4.4h-5.2v-4.4H612.7z M608.2,726.9h3.2v-2.8h-3.2V726.9z M611.6,717.8v-2.6h-3.2v2.6H611.6z"/>
</g>
<rect x="184.3" y="68" class="st0" width="44" height="44"/>
<rect x="228.3" y="68" class="st0" width="44" height="44"/>
<g>
	<path class="st6" d="M272.3,60V41.5c0-2.8-2.3-4.5-5-4.5h-78c-2.8,0-5,1.8-5,4.5V61"/>
</g>
<rect x="205.3" y="27" class="st3" width="46" height="20"/>
<g>
	<rect x="207.3" y="29.3" class="st5" width="42" height="14.3"/>
	<path d="M211,35.7c0.4,0.4,1.6,1.7,1.9,2l-0.6,0.7c-0.2-0.4-0.8-1.2-1.3-1.8v6.2h-0.9v-6.3c-0.5,1.5-1.2,2.9-1.8,3.8
		c-0.1-0.3-0.3-0.6-0.5-0.8c0.8-1.1,1.7-3,2.2-4.6h-2v-0.9h2.2v-2.4c-0.6,0.2-1.3,0.4-1.9,0.5c0-0.2-0.2-0.5-0.3-0.7
		c1.5-0.4,3.3-0.9,4.2-1.5l0.8,0.7c-0.1,0.1-0.1,0.1-0.3,0.1c-0.4,0.2-1,0.5-1.6,0.7v2.7h1.8v0.9H211V35.7z M217.1,41.7h3.8v0.8
		h-8.6v-0.8h3.9v-1.2H213v-0.8h3.1v-1h-2.8v-4.5h2.8v-1h-3.5v-0.8h3.5v-1.2c-1,0.1-2,0.2-3,0.3c0-0.2-0.1-0.5-0.2-0.7
		c2.3-0.2,5.1-0.6,6.5-1l0.8,0.7c0,0-0.1,0.1-0.2,0.1c0,0-0.1,0-0.1,0c-0.8,0.2-1.8,0.4-2.9,0.6v1.3h3.6v0.8h-3.6v1h3v4.5h-3v1h3.2
		v0.8h-3.2V41.7z M214.2,35v1.2h2V35H214.2z M214.2,38h2v-1.2h-2V38z M219.2,35h-2.1v1.2h2.1V35z M219.2,38v-1.2h-2.1V38H219.2z"/>
	<path d="M241.5,36.8l0.2,0l0.5,0.1c0,0.1,0,0.2,0,0.3c-0.2,3.6-0.3,4.9-0.7,5.3c-0.3,0.4-0.5,0.4-1.6,0.4c-0.3,0-0.7,0-1.1,0
		c0-0.3-0.1-0.6-0.3-0.8c0.7,0.1,1.4,0.1,1.7,0.1c0.3,0,0.4,0,0.5-0.2c0.3-0.3,0.4-1.4,0.5-4.3h-2.5c-0.3,1.9-1,3.9-2.4,5.2
		c-0.1-0.2-0.4-0.5-0.7-0.6c1.8-1.6,2.3-4.7,2.4-7.1h-1.6v-4.6h5.6v4.6h-3c-0.1,0.5-0.1,1.1-0.2,1.7H241.5z M237.5,31.3v2.9h3.8
		v-2.9H237.5z M243.7,31.5l1.2,0.1c0,0.1-0.1,0.2-0.3,0.2v7.6h-0.9V31.5z M247.2,30.1l1.2,0.1c0,0.1-0.1,0.2-0.3,0.2v11.2
		c0,0.7-0.2,1-0.6,1.1c-0.4,0.2-1.2,0.2-2.5,0.2c-0.1-0.3-0.2-0.7-0.4-1c0.5,0,1,0,1.4,0c1.1,0,1.2,0,1.2-0.4V30.1z"/>
</g>
<g>
	<rect x="245.3" y="75" class="st5" width="10" height="30.1"/>
	<path d="M246.3,76h8.2v8.5H254v-0.7h-7.2v0.7h-0.5V76z M246.8,83.4h7.2v-6.9h-7.2V83.4z M248.5,78.2h3.8v3.4h-3.8V78.2z
		 M251.7,81.2v-2.5h-2.8v2.5H251.7z"/>
	<path d="M247.8,99.5v3.3c0.8,1.2,2.4,1.2,4,1.2c1.1,0,2.4,0,3.1-0.1c-0.1,0.1-0.1,0.3-0.2,0.5c-0.7,0-1.8,0-2.8,0
		c-2,0-3.4,0-4.4-1.3c-0.5,0.5-1.1,0.9-1.5,1.3c0,0.1,0,0.1-0.1,0.2l-0.3-0.5c0.5-0.3,1.1-0.8,1.6-1.3v-2.9h-1.6v-0.5H247.8z
		 M246.3,95.7c0.7,0.4,1.5,1.1,1.8,1.6l-0.4,0.3c-0.3-0.5-1.1-1.2-1.8-1.6L246.3,95.7z M254.9,100h-2.7c0.4,1.5,1.3,2.4,2.8,2.9
		c-0.1,0.1-0.3,0.3-0.3,0.4c-1.4-0.5-2.4-1.5-2.8-3.1c-0.2,1-0.9,2.1-2.8,3c-0.1-0.1-0.2-0.3-0.3-0.4c1.9-0.8,2.5-1.9,2.7-2.9h-2.8
		v-0.4h2.8c0-0.2,0-0.3,0-0.5v-1.2h-2.5v-0.5h5.8v0.5h-2.7v1.2c0,0.2,0,0.3,0,0.5h3V100z M249.7,95.5c0.4,0.5,0.8,1.2,1,1.7
		l-0.4,0.2c-0.1-0.5-0.5-1.2-0.9-1.7L249.7,95.5z M252.4,97.2c0.3-0.5,0.8-1.2,1-1.8l0.6,0.2c0,0.1-0.1,0.1-0.2,0.1
		c-0.3,0.5-0.7,1.2-1,1.6L252.4,97.2z"/>
</g>
<rect x="184.3" y="148" class="st0" width="44" height="44"/>
<rect x="228.3" y="148" class="st0" width="44" height="44"/>
<rect x="184.3" y="228" class="st0" width="44" height="44"/>
<rect x="228.3" y="228" class="st0" width="44" height="44"/>
<g>
	<rect x="245.3" y="235" class="st5" width="10" height="30.1"/>
	<path d="M248.1,241.2v1.9h1.5v0.4h-3.1v0.6h-0.4v-8.3h3.5v0.5h-1.5v1.7h1.3v3.1H248.1z M247.6,236.4h-1.1v1.7h1.1V236.4z
		 M249,240.7v-2.1h-2.4v2.1H249z M246.5,241.2v1.9h1.1v-1.9H246.5z M251.4,235.5c0,0.1-0.1,0.1-0.2,0.1c-0.1,0.3-0.2,0.6-0.3,0.9h4
		v0.5h-4.2c-0.3,0.7-0.6,1.3-0.9,1.7c-0.1-0.1-0.2-0.2-0.4-0.3c0.5-0.7,1-1.9,1.3-3L251.4,235.5z M249.8,244.6v-3.5h2v3.4h-0.4V244
		h-1.2v0.5H249.8z M251.4,241.5h-1.2v2.1h1.2V241.5z M254,237.8v2.4h-3.4v-2.4H254z M253.5,239.8v-1.5H251v1.5H253.5z M252.6,244.5
		v-3.5h2.1v3.4h-0.4V244H253v0.5H252.6z M254.3,241.5H253v2.1h1.3V241.5z"/>
	<path d="M248.8,256.1v6.5h-2.3v0.8h-0.5v-7.3H248.8z M248.4,256.6h-1.8v2.5h1.8V256.6z M246.6,262.2h1.8v-2.6h-1.8V262.2z
		 M252.2,258.7h2.7v0.5H249v-0.5h2.7v-1.5h-2.3v-0.4h2.3v-1.3l0.6,0c0,0.1,0,0.1-0.2,0.1v1.1h2.3v0.4h-2.3V258.7z M253.8,259.5
		c0,0.1-0.1,0.1-0.2,0.1v0.9h1.3v0.4h-1.3v3c0,0.3-0.1,0.5-0.4,0.6c-0.3,0.1-0.8,0.1-1.6,0.1c0-0.1-0.1-0.3-0.2-0.5
		c0.3,0,0.6,0,0.8,0c0.9,0,0.9,0,0.9-0.2v-3h-4.1v-0.4h4.1v-1.1L253.8,259.5z M251.2,263.6c-0.2-0.5-0.8-1.3-1.4-1.8l0.4-0.2
		c0.5,0.5,1.1,1.3,1.4,1.8L251.2,263.6z"/>
</g>
<rect x="184.3" y="308" class="st0" width="44" height="44"/>
<rect x="228.3" y="308" class="st0" width="44" height="44"/>
<rect x="184.3" y="388" class="st0" width="44" height="44"/>
<rect x="228.3" y="388" class="st0" width="44" height="44"/>
<rect x="46.3" y="68" class="st0" width="44" height="44"/>
<rect x="90.3" y="68" class="st0" width="44" height="44"/>
<g>
	<path class="st6" d="M134.3,60V41.5c0-2.8-2.3-4.5-5-4.5h-78c-2.8,0-5,1.8-5,4.5V61"/>
</g>
<rect x="67.3" y="27" class="st3" width="46" height="20"/>
<g>
	<rect x="69.3" y="29.3" class="st5" width="42" height="14.3"/>
	<path d="M74.7,32.7l0.5,0.1l-0.1,0.2c-0.2,2.5-0.6,4.5-1.3,6c0.7,0.5,1.3,1.1,1.7,1.5l-0.6,0.8c-0.4-0.4-0.9-1-1.5-1.5
		c-0.7,1.3-1.7,2.3-2.8,2.9c-0.1-0.2-0.4-0.6-0.6-0.8c1.1-0.6,1.9-1.5,2.6-2.7c-0.5-0.4-1.1-0.8-1.6-1.1l-0.2,0.6l-0.8-0.4
		c0.4-1.2,0.8-3,1.2-4.8h-1.4v-0.9h1.6c0.2-1.1,0.4-2.1,0.6-3l1.1,0.1c0,0.1-0.1,0.2-0.3,0.2c-0.2,0.8-0.4,1.7-0.6,2.6h2.2
		L74.7,32.7z M72.2,33.7c-0.3,1.3-0.6,2.6-0.9,3.8c0.6,0.3,1.2,0.7,1.8,1.1c0.6-1.3,1-2.9,1.2-4.9H72.2z M80.7,32.1
		c0.9,1.1,1.9,2.7,2.2,3.7l-0.8,0.4c-0.1-0.3-0.2-0.6-0.4-1c-2.2,0.2-4.5,0.3-6,0.4c0,0.1-0.1,0.2-0.2,0.2l-0.4-1.1l1.1,0
		c0.6-1.4,1.2-3.5,1.6-5l1.2,0.3c0,0.1-0.2,0.2-0.3,0.2c-0.4,1.3-1,3.1-1.6,4.5l4.1-0.2c-0.4-0.7-0.9-1.4-1.4-2L80.7,32.1z
		 M76.2,42.8v-5.7h5.9v5.7h-0.9v-0.6h-4.1v0.7H76.2z M81.2,38h-4.1v3.3h4.1V38z"/>
	<path d="M95,30.6c0,0.1-0.2,0.1-0.3,0.1c-0.5,0.5-1.3,1.2-2,1.7c0.3,0.4,0.6,0.8,1,1.2c0.7-0.5,1.6-1.3,2.1-1.9l0.9,0.6
		c-0.1,0.1-0.2,0.1-0.3,0.1c-0.5,0.5-1.4,1.2-2.1,1.7c0.8,0.7,1.8,1.3,2.7,1.7c-0.2,0.2-0.5,0.5-0.6,0.8c-0.7-0.3-1.4-0.7-2.1-1.2
		v0.5h-1.8V38H96v0.9h-3.4v2.4c0,0.4,0.1,0.5,0.6,0.5h1.7c0.5,0,0.5-0.3,0.6-1.8c0.2,0.2,0.6,0.3,0.9,0.4c-0.1,1.8-0.4,2.3-1.4,2.3
		H93c-1.1,0-1.4-0.3-1.4-1.4v-2.4h-2.7c-0.2,1.6-1.1,3-3.9,4c-0.1-0.2-0.4-0.6-0.6-0.7c2.5-0.8,3.3-2,3.5-3.2h-3.2V38H88v-2.2h-1.6
		v-0.4c-0.7,0.5-1.4,1-2.1,1.3c-0.1-0.2-0.4-0.5-0.6-0.7c1-0.4,2-1.1,2.9-1.9c-0.4-0.5-1.2-1.1-1.8-1.6l0.6-0.5
		c0.6,0.4,1.3,1,1.8,1.5c0.6-0.6,1.1-1.3,1.4-2.1H85v-0.8h4.2l0.2-0.1c0.4,0.2,0.5,0.3,0.7,0.3c0,0.1-0.1,0.1-0.2,0.2
		c-0.6,1.6-1.7,3-2.9,4h6.9c-1.4-1.2-2.6-2.9-3.3-4.8l0.8-0.3c0.3,0.6,0.6,1.3,0.9,1.8c0.6-0.5,1.4-1.2,1.8-1.8L95,30.6z M91.6,38
		v-2.2h-2.6V38H91.6z"/>
	<path d="M99,38.6c-0.1,1.3-0.2,2.7-0.8,3.5l-0.5-0.3c0.5-0.7,0.7-2,0.7-3.3L99,38.6z M103.4,36.8l0.4,0.1l0,0.3
		c-0.2,3.6-0.4,4.9-0.7,5.3c-0.3,0.3-0.5,0.4-1.2,0.4c-0.3,0-0.6,0-0.9,0c0-0.2-0.1-0.6-0.2-0.8c0.5,0,1,0.1,1.2,0.1
		c0.4,0,0.6-0.1,0.8-2l-0.5,0.2c-0.1-0.5-0.5-1.3-0.9-1.9l0.5-0.2c0.4,0.5,0.7,1.3,0.8,1.8h0c0.1-0.6,0.1-1.4,0.2-2.3h-3.7V38h-0.8
		v-7.6h5.2v0.8h-2.1v1.3h1.8v0.8h-1.8v1.4h1.8v0.8h-1.8v1.4h1.6L103.4,36.8z M100.8,31.2h-1.5v1.3h1.5V31.2z M100.8,34.7v-1.4h-1.5
		v1.4H100.8z M99.3,35.5v1.4h1.5v-1.4H99.3z M99.6,41.4c0-0.7-0.1-1.8-0.2-2.6l0.5-0.1c0.2,0.8,0.3,1.9,0.3,2.6L99.6,41.4z
		 M101,38.5c0.3,0.7,0.6,1.7,0.6,2.3l-0.5,0.1c-0.1-0.6-0.3-1.6-0.6-2.3L101,38.5z M110.3,36.1H108c0.4,2.7,1.3,4.9,3,6
		c-0.2,0.2-0.5,0.5-0.6,0.8c-1.8-1.3-2.7-3.7-3.2-6.8h-1.4c0,2.1-0.3,4.9-1.6,6.7c-0.2-0.2-0.5-0.4-0.8-0.5c1.4-1.8,1.5-4.5,1.5-6.6
		v-5.4h5.5V36.1z M109.5,31.3h-3.7v4h3.7V31.3z"/>
</g>
<g>
	<rect x="63.3" y="69.8" class="st5" width="10" height="40.3"/>
	<path d="M68.6,72.1h3.8v4.6h-0.5V76h-3.3v3.4h-0.5V76h-3.3v0.7h-0.5v-4.6h3.8v-1.8l0.7,0.1c0,0.1-0.1,0.1-0.2,0.1V72.1z M64.8,75.6
		h3.3v-3h-3.3V75.6z M68.6,75.6h3.3v-3h-3.3V75.6z"/>
	<path d="M72.9,85.6h-4c0.7,1.8,2.1,3.1,4.2,3.5c-0.1,0.1-0.3,0.3-0.3,0.4c-2.2-0.6-3.7-1.9-4.4-3.9c-0.4,1.6-1.4,3-4.3,4
		c-0.1-0.1-0.2-0.3-0.3-0.4c2.7-0.9,3.7-2.1,4.1-3.6h-4v-0.5H65v-3.3H68v-1.5l0.7,0.1c0,0.1-0.1,0.1-0.2,0.1v1.3h3.3v3.3h1.1V85.6z
		 M65.5,85.1h2.5c0.1-0.4,0.1-0.9,0.1-1.4v-1.5h-2.6V85.1z M71.3,82.3h-2.8v1.5c0,0.5,0,0.9-0.1,1.4h2.8V82.3z"/>
	<path d="M66.3,94.3c0.4,0.4,1.4,1.4,1.6,1.7l-0.3,0.4c-0.2-0.3-0.8-1-1.3-1.5v4.8h-0.5v-5.5c-0.5,1.4-1.2,2.8-1.9,3.6
		c-0.1-0.1-0.2-0.3-0.3-0.4c0.8-0.9,1.7-2.6,2.1-4.1h-1.9v-0.5h2v-2.2l0.6,0c0,0.1,0,0.1-0.2,0.1v2.1h1.7v0.5h-1.7V94.3z M73,93.1
		h-2c0.5,1.7,1.3,3.5,2.2,4.4c-0.1,0.1-0.3,0.3-0.4,0.4c-0.8-0.9-1.5-2.6-2-4.2v5.9h-0.5V94c-0.6,1.6-1.5,3.2-2.5,4.1
		c-0.1-0.1-0.2-0.3-0.3-0.4c1-0.9,2.1-2.8,2.6-4.5h-1.9v-0.5h2v-2.2l0.7,0c0,0.1-0.1,0.1-0.2,0.1v2.1H73V93.1z"/>
	<path d="M67.8,104.4h-3.1v5.4h-0.5V101h3.6V104.4z M67.3,101.4h-2.6v1h2.6V101.4z M64.7,104h2.6v-1.1h-2.6V104z M70.2,105.2v3.6
		h-3.3v0.5h-0.5v-4.1H70.2z M69.7,105.7h-2.8v1.1h2.8V105.7z M66.9,108.4h2.8v-1.2h-2.8V108.4z M72.5,101v8c0,0.7-0.3,0.7-2,0.7
		c0-0.1-0.1-0.4-0.2-0.5c0.3,0,0.6,0,0.8,0c0.3,0,0.6,0,0.7,0c0.2,0,0.2-0.1,0.2-0.2v-4.6h-3.2V101H72.5z M72,101.4h-2.7v1H72V101.4
		z M69.3,104H72v-1.1h-2.7V104z"/>
</g>
<g>
	<rect x="107.3" y="75" class="st5" width="10" height="30.1"/>
	<path d="M112.3,80.7c0.3,0.6,0.7,1.2,1.2,1.7c0.8-0.4,1.8-1,2.4-1.5l0.5,0.3c0,0.1-0.1,0.1-0.2,0c-0.6,0.4-1.6,1-2.4,1.4
		c0.8,0.7,1.9,1.2,3.2,1.5c-0.1,0.1-0.2,0.3-0.3,0.4c-2.4-0.5-4-1.9-4.9-3.9h-1.6v3c0.9-0.1,1.9-0.3,2.9-0.5l0,0.4
		c-1.6,0.3-3.4,0.6-4.4,0.8c0,0.1-0.1,0.1-0.1,0.1l-0.2-0.6c0.4-0.1,0.8-0.1,1.3-0.2v-3.1h-1.8v-0.5h1.8v-4.5h6.2v0.4h-5.7v1h5.4
		v0.4h-5.4v1h5.4v0.4h-5.4v1.1h6.7v0.5H112.3z"/>
	<path d="M108,88.2c0.6,0.3,1.4,0.7,1.8,1.1l-0.3,0.4c-0.4-0.4-1.1-0.8-1.8-1.1L108,88.2z M108,94.2c0.5-0.8,1.2-2.1,1.7-3.3
		l0.4,0.3c-0.5,1.1-1.1,2.3-1.6,3.1c0,0,0,0.1,0,0.1s0,0.1,0,0.1L108,94.2z M108.5,85.5c0.6,0.3,1.4,0.8,1.7,1.2
		c-0.2,0.3-0.2,0.3-0.3,0.4c-0.4-0.4-1.1-0.9-1.7-1.2L108.5,85.5z M117,92.4v0.4h-3.4v1.7H113v-1.7h-3.1v-0.4h3.1v-1h-2.6V91h2.6v-1
		h-2.3v-0.4h2.3v-1.1h-2.9V88h2.9V87h-2.3v-0.4h2.3v-1.1l0.6,0c0,0.1-0.1,0.1-0.2,0.1v1h2.4V88h1v0.4h-1V90h-2.4v1h2.8v0.4h-2.8v1
		H117z M113.5,87V88h1.9V87H113.5z M113.5,88.5v1.1h1.9v-1.1H113.5z"/>
	<path d="M108.3,96.1h8.2v8.5H116V104h-7.2v0.6h-0.5V96.1z M112.1,96.6h-3.3v3.1h3.3V96.6z M108.8,100.2v3.2h3.3v-3.2H108.8z
		 M116,99.8v-3.1h-3.4v3.1H116z M112.6,103.5h3.4v-3.2h-3.4V103.5z"/>
</g>
<rect x="46.3" y="148" class="st0" width="44" height="44"/>
<rect x="90.3" y="148" class="st0" width="44" height="44"/>
<g>
	<rect x="107.3" y="149.8" class="st5" width="10" height="40.3"/>
	<path d="M107.8,157.8h9v0.5h-9V157.8z M108.7,151.7h7.2v0.5h-7.2V151.7z"/>
	<path d="M116.9,164.9v0.5h-4.3v3.4c0,0.4-0.1,0.6-0.4,0.7c-0.3,0.1-0.9,0.1-1.9,0.1c0-0.1-0.1-0.4-0.2-0.5c0.4,0,0.8,0,1.2,0
		c0.9,0,0.9,0,0.9-0.3v-3.4h-4.3v-0.5h4.3v-1.6l0.3,0c0.9-0.5,1.9-1.1,2.6-1.7h-6.2v-0.5h6.7l0.1,0l0.4,0.3c0,0-0.1,0.1-0.1,0.1
		c-0.8,0.8-2.2,1.7-3.4,2.3v1.2H116.9z"/>
	<path d="M112.5,178.8h4.3v0.5h-9v-0.5h4.2v-3.5h-3.3v-0.5h3.3v-3.1h-3.7v-0.5h8v0.5h-3.8v3.1h3.4v0.5h-3.4V178.8z M115.6,178.1
		c-0.4-0.5-1.2-1.4-2-2l0.4-0.3c0.7,0.6,1.6,1.4,2,1.9L115.6,178.1z"/>
	<path d="M108.9,181.1l0.7,0c0,0.1-0.1,0.1-0.2,0.1v3.3c0,1.9-0.2,3.8-1.5,5.3c-0.1-0.1-0.3-0.3-0.4-0.3c1.2-1.4,1.4-3.2,1.4-5
		V181.1z M112.2,181.5l0.7,0c0,0.1-0.1,0.1-0.2,0.1v7.2h-0.5V181.5z M115.9,181.1l0.7,0c0,0.1-0.1,0.1-0.2,0.1v8.5h-0.5V181.1z"/>
</g>
<g>
	<rect x="63.3" y="155" class="st5" width="10" height="30.1"/>
	<path d="M67.9,158.8c-1.4,0.1-2.9,0.2-3.9,0.3c0,0.1-0.1,0.1-0.1,0.1l-0.2-0.5l0.7,0v-1.3l0.6,0c0,0.1-0.1,0.1-0.2,0.1v1.1l0.9,0
		V157h-1.4v-1.4h3.3v1.4h-1.5v0.5h1.6v0.4h-1.6v0.6l1.8-0.1L67.9,158.8z M64,164.3c0.5-0.2,0.9-0.6,1-1l0.4,0.1
		c-0.2,0.5-0.5,1-1.1,1.2L64,164.3z M64.8,156.6h2.4V156h-2.4V156.6z M66,161.9h6.9v0.4H66v0.4h5.9l0.1,0l0.3,0.1c0,0,0,0.1,0,0.1
		c-0.1,1-0.2,1.4-0.4,1.5c-0.1,0.1-0.3,0.1-0.5,0.2c-0.2,0-0.7,0-1.1,0c0-0.1,0-0.3-0.1-0.4c0.5,0,0.9,0.1,1.1,0.1s0.2,0,0.3-0.1
		c0.1-0.1,0.2-0.4,0.3-1.1h-6.3v-3.6h2.2c0.1-0.2,0.3-0.5,0.4-0.7l0.6,0.2c0,0.1-0.1,0.1-0.2,0.1c-0.1,0.1-0.2,0.3-0.3,0.5h3v2H66
		V161.9z M66,159.8v0.5h4.7v-0.5H66z M70.7,161.1v-0.5H66v0.5H70.7z M66.7,163.3c0.1,0.3,0.3,0.7,0.3,1l-0.4,0.1
		c0-0.3-0.1-0.7-0.3-1L66.7,163.3z M72.2,155.9C72.2,155.9,72.2,156,72.2,155.9c-0.3,0.5-0.7,0.8-1.2,1.1c0.7,0.3,1.5,0.4,2.2,0.5
		c-0.1,0.1-0.2,0.3-0.3,0.4c-0.3,0-0.6-0.1-0.9-0.2v1.4h-3v-1.4c-0.3,0.1-0.6,0.1-0.8,0.2c-0.1-0.1-0.1-0.3-0.2-0.4
		c0.8-0.1,1.6-0.3,2.2-0.6c-0.4-0.2-0.7-0.4-0.9-0.6c-0.3,0.2-0.6,0.4-0.9,0.5c-0.1-0.1-0.2-0.2-0.3-0.3c0.8-0.4,1.5-0.8,1.8-1.3
		l0.6,0.1c0,0.1-0.1,0.1-0.2,0.1c-0.1,0.1-0.2,0.2-0.3,0.3h1.9l0.1,0L72.2,155.9z M68.3,163.2c0.3,0.3,0.5,0.6,0.6,0.9l-0.4,0.2
		c-0.1-0.2-0.4-0.6-0.6-0.9L68.3,163.2z M69.2,157.7H72c-0.5-0.1-1-0.3-1.4-0.5C70.1,157.4,69.7,157.5,69.2,157.7z M69.4,158.7h2.1
		V158h-2.1V158.7z M70.5,156.8c0.4-0.2,0.7-0.4,0.9-0.7h-2C69.8,156.4,70.1,156.6,70.5,156.8z M70.3,164.1c-0.1-0.2-0.4-0.5-0.7-0.7
		l0.3-0.2c0.3,0.2,0.6,0.5,0.7,0.7L70.3,164.1z"/>
	<path d="M64,178.3c0.7,0.3,1.5,0.7,1.9,1l-0.3,0.4c-0.4-0.3-1.2-0.8-1.9-1.1L64,178.3z M64,184.2c0.5-0.8,1.3-2.2,1.8-3.3l0.4,0.3
		c-0.5,1.1-1.2,2.4-1.7,3.2c0,0,0,0.1,0,0.1c0,0,0,0.1,0,0.1L64,184.2z M66,177.1c-0.4-0.4-1.2-0.9-1.8-1.2l0.3-0.4
		c0.6,0.3,1.4,0.8,1.8,1.1L66,177.1z M72.3,175.9l0.3,0c0,0.1,0,0.1,0,0.2c-0.1,2.4-0.2,3.2-0.5,3.5c-0.2,0.2-0.3,0.2-0.9,0.2
		c-0.3,0-0.6,0-1,0c0-0.1-0.1-0.3-0.1-0.5c0.6,0.1,1.1,0.1,1.3,0.1c0.2,0,0.3,0,0.4-0.1c0.2-0.2,0.3-0.9,0.4-2.9h-2.5
		c-0.3,1.5-0.8,3.1-2.9,3.9c-0.1-0.1-0.2-0.3-0.3-0.4c1.8-0.7,2.4-2.1,2.7-3.5h-2.2v-0.5h5.3L72.3,175.9z M67.2,184.7v-4h5v4h-0.5
		v-0.4h-4.1v0.5H67.2z M71.7,181.1h-4.1v2.6h4.1V181.1z"/>
</g>
<rect x="46.3" y="228" class="st0" width="44" height="44"/>
<rect x="90.3" y="228" class="st0" width="44" height="44"/>
<g>
	<rect x="107.3" y="235" class="st5" width="10" height="30.1"/>
	<path d="M116.9,241.2v0.5h-4.3v2.9h-0.5v-2.9h-4.2v-0.5h4.2v-2.1h-3.5v-0.5h3.5v-3.3l0.7,0c0,0.1-0.1,0.1-0.2,0.1v3.1h3.7v0.5h-3.7
		v2.1H116.9z M109.3,235.6c0.5,0.7,1.1,1.7,1.3,2.3l-0.4,0.2c-0.2-0.6-0.7-1.6-1.3-2.3L109.3,235.6z M114,238c0.5-0.6,1-1.7,1.4-2.4
		l0.6,0.3c0,0-0.1,0.1-0.2,0.1c-0.3,0.7-0.9,1.6-1.4,2.2L114,238z"/>
	<path d="M114.1,248.5c0.1,1.3,0.3,2.5,0.5,3.3c0.4-0.8,0.8-1.7,1-2.6l0.6,0.2c0,0.1-0.1,0.1-0.2,0.1c-0.3,1.1-0.7,2.1-1.3,3
		c0.4,1.1,0.9,1.7,1.3,1.7c0.2,0,0.3-0.3,0.4-1.3c0.1,0.1,0.3,0.2,0.4,0.2c-0.1,1.3-0.3,1.5-0.9,1.5c-0.6,0-1.2-0.6-1.6-1.7
		c-0.5,0.7-1.2,1.3-1.9,1.7c-0.1-0.1-0.2-0.2-0.4-0.3c0.4-0.2,0.7-0.4,1-0.7h-3.1v0.6h-0.4v-4.9h3.7v0.4h-1.5v0.8h1.5v1.8h-1.5v0.9
		h1.6v0.2c0.3-0.3,0.6-0.7,0.9-1c-0.3-1-0.5-2.2-0.7-3.8h-4.6v2c0,1.2-0.1,2.9-1,4c-0.1-0.1-0.3-0.2-0.4-0.3
		c0.8-1.1,0.9-2.6,0.9-3.8v-2.5h5c0-0.3,0-0.6-0.1-0.9l0.2,0v-0.5h-2.9v0.7h-0.5v-0.7h-2.4v-0.4h2.4v-0.9l0.7,0.1
		c0,0.1-0.1,0.1-0.2,0.1v0.7h2.9v-0.9l0.7,0.1c0,0.1-0.1,0.1-0.2,0.1v0.7h2.5v0.4h-2.5v0.7h-0.2l0,0.7h2.7v0.4H114.1z M111.4,249.6
		h-1.3v0.8h1.3V249.6z M112.9,251.9v-1h-2.8v1H112.9z M110.1,252.3v0.9h1.3v-0.9H110.1z M116.1,248.1c-0.3-0.3-0.8-0.7-1.2-0.9
		l0.3-0.2c0.4,0.2,1,0.6,1.2,0.9L116.1,248.1z"/>
	<path d="M111.8,255.9v3.6h-3v5.1h-0.5v-8.7H111.8z M111.3,256.4h-2.5v1.1h2.5V256.4z M108.8,259.1h2.5v-1.2h-2.5V259.1z
		 M116.5,255.9v7.9c0,0.4-0.1,0.6-0.4,0.7c-0.3,0.1-0.9,0.1-1.7,0.1c0-0.1-0.1-0.4-0.2-0.5c0.4,0,0.7,0,1,0c0.8,0,0.8,0,0.8-0.3
		v-4.3h-3.1v-3.6H116.5z M116,256.4h-2.7v1.1h2.7V256.4z M113.3,259.1h2.7v-1.2h-2.7V259.1z"/>
</g>
<rect x="46.3" y="308" class="st0" width="44" height="44"/>
<rect x="90.3" y="308" class="st0" width="44" height="44"/>
<g>
	<rect x="63.3" y="309.8" class="st5" width="10" height="40.3"/>
	<path d="M64,313.1c0.7,0.3,1.5,0.7,1.9,1l-0.3,0.4c-0.4-0.3-1.2-0.8-1.9-1.1L64,313.1z M64,319c0.5-0.8,1.3-2.2,1.8-3.3l0.4,0.3
		c-0.5,1.1-1.2,2.4-1.7,3.2c0,0,0,0.1,0,0.1c0,0,0,0.1,0,0.1L64,319z M64.5,310.3c0.6,0.3,1.4,0.8,1.8,1.1l-0.3,0.4
		c-0.4-0.4-1.2-0.9-1.8-1.2L64.5,310.3z M69.8,313.5H73v0.4h-6.8v-0.4h3.1v-0.9H67v-0.4h2.4v-0.8h-2.7V311h2.7v-0.8l0.6,0
		c0,0.1-0.1,0.1-0.2,0.1v0.6h2.8v0.4h-2.8v0.8h2.5v0.4h-2.5V313.5z M72.1,314.7v4.2c0,0.3-0.1,0.4-0.3,0.5c-0.2,0.1-0.7,0.1-1.4,0.1
		c0-0.1-0.1-0.3-0.2-0.4c0.3,0,0.5,0,0.7,0c0.7,0,0.7,0,0.7-0.2v-1.1h-3.8v1.7h-0.5v-4.8H72.1z M71.6,315.1h-3.8v0.9h3.8V315.1z
		 M67.8,317.4h3.8v-0.9h-3.8V317.4z"/>
	<path d="M64,323.2c0.7,0.3,1.4,0.7,1.8,1l-0.3,0.4c-0.4-0.3-1.2-0.8-1.8-1.1L64,323.2z M64,329.1c0.5-0.8,1.2-2.2,1.8-3.3l0.4,0.3
		c-0.5,1.1-1.2,2.4-1.6,3.2c0,0.1,0,0.1,0,0.1c0,0,0,0.1,0,0.1L64,329.1z M64.5,320.4c0.6,0.3,1.4,0.8,1.8,1.1L66,322
		c-0.4-0.4-1.1-0.9-1.8-1.2L64.5,320.4z M68.7,320.8C68.8,320.8,68.8,320.8,68.7,320.8c0.1,0,0.2,0,0.4,0.1c0,0-0.1,0.1-0.1,0.1
		c-0.5,1.8-1.6,3.2-2.8,3.9c-0.1-0.1-0.2-0.3-0.3-0.3c0.6-0.3,1.1-0.8,1.6-1.5c-0.3-0.3-0.7-0.7-1-1l0.3-0.3c0.4,0.3,0.7,0.6,1,0.9
		c0.3-0.5,0.5-0.9,0.7-1.4h-1.8v-0.4H68.7z M66.1,329.3v-0.4h6.8v0.4H66.1z M71.7,324.6v2.3h-4.5v-2.3H71.7z M71.2,326.5V325h-3.5
		v1.4H71.2z M68.2,327.1c0.3,0.5,0.5,1.1,0.6,1.5l-0.5,0.2c-0.1-0.4-0.3-1.1-0.6-1.5L68.2,327.1z M68,323.8v-0.4h2.8v0.4H68z
		 M72.2,320.9c0,0.1-0.1,0.1-0.2,0c-0.3,0.3-0.9,0.7-1.3,1.1c0.2,0.3,0.3,0.5,0.5,0.7c0.5-0.3,1-0.8,1.3-1.2l0.4,0.4
		c0,0-0.1,0-0.2,0c-0.3,0.3-0.9,0.7-1.3,1c0.5,0.6,1,1,1.6,1.3c-0.1,0.1-0.3,0.2-0.3,0.4c-1.3-0.8-2.3-1.9-3.1-4.3l0.4-0.1
		c0.2,0.5,0.3,0.9,0.5,1.3c0.4-0.3,1-0.8,1.3-1.1L72.2,320.9z M71.4,327.2c0,0-0.1,0.1-0.2,0.1c-0.2,0.4-0.4,1.1-0.7,1.5l-0.4-0.2
		c0.2-0.4,0.5-1.1,0.7-1.6L71.4,327.2z"/>
	<path d="M68.6,330.6c0,0.1-0.1,0.1-0.2,0.1c-0.2,0.4-0.4,1-0.6,1.5H72v7.4h-0.5v-0.7h-6.3v0.8h-0.5v-7.5h2.6
		c0.3-0.5,0.5-1.3,0.7-1.8L68.6,330.6z M71.5,332.7h-6.3v2.6h6.3V332.7z M65.2,338.4h6.3v-2.6h-6.3V338.4z"/>
	<path d="M63.9,343.4c0.6,0.2,1.4,0.7,1.8,1l-0.3,0.4c-0.4-0.3-1.1-0.8-1.8-1L63.9,343.4z M63.9,349.4c0.5-0.7,1.3-2,1.9-3.1
		l0.4,0.3c-0.5,1-1.2,2.2-1.7,3c0,0,0,0.1,0,0.1c0,0,0,0.1,0,0.1L63.9,349.4z M65.9,342.2c-0.4-0.3-1.1-0.8-1.7-1.1l0.3-0.3
		c0.6,0.3,1.4,0.7,1.7,1.1L65.9,342.2z M73.1,341.2v0.5h-0.9v7.3c0,0.4-0.1,0.6-0.4,0.7c-0.3,0.1-0.9,0.1-1.9,0.1
		c0-0.1-0.1-0.4-0.2-0.5c0.4,0,0.9,0,1.2,0c0.8,0,0.8,0,0.8-0.3v-7.3h-5.4v-0.5H73.1z M70.1,347.1h-2.6v0.7H67v-4.4h3.1V347.1z
		 M69.7,343.9h-2.2v2.7h2.2V343.9z"/>
</g>
<g>
	<rect x="107.3" y="315" class="st5" width="10" height="30.1"/>
	<path d="M111,319.8l0.1,0.4c-0.4,0.2-0.8,0.3-1.2,0.5v3.2c0,0.6-0.2,0.7-1.5,0.7c0-0.1-0.1-0.3-0.2-0.5c0.3,0,0.5,0,0.7,0
		c0.6,0,0.6,0,0.6-0.2v-3c-0.5,0.2-1,0.4-1.4,0.5c0,0.1,0,0.1-0.1,0.2l-0.2-0.6c0.5-0.1,1.1-0.3,1.7-0.6v-2.5h-1.6v-0.5h1.6v-2.1
		l0.6,0.1c0,0.1-0.1,0.1-0.2,0.1v1.9h1.2v0.5h-1.2v2.3L111,319.8z M111.5,315.8h5.1v5.7h-0.5V321h-1.8v3.6h-0.5V321h-1.8v0.6h-0.5
		V315.8z M113.8,316.3h-1.8v1.9h1.8V316.3z M111.9,320.5h1.8v-1.9h-1.8V320.5z M116.1,318.2v-1.9h-1.8v1.9H116.1z M114.3,320.5h1.8
		v-1.9h-1.8V320.5z"/>
	<path d="M112.3,343.7h4.6v0.5h-9v-0.5h3.9v-8.1l0.7,0.1c0,0.1,0,0.1-0.2,0.1v3.1h3.9v0.5h-3.9V343.7z"/>
</g>
<rect x="46.3" y="388" class="st2" width="44" height="44"/>
<rect x="90.3" y="388" class="st2" width="44" height="44"/>
<g>
	<rect x="63.3" y="235" class="st5" width="10" height="30.1"/>
	<path d="M64,238.2c0.7,0.3,1.5,0.7,1.9,1l-0.3,0.4c-0.4-0.3-1.2-0.8-1.9-1.1L64,238.2z M64,244.1c0.5-0.8,1.3-2.2,1.8-3.3l0.4,0.3
		c-0.5,1.1-1.2,2.4-1.7,3.2c0,0,0,0.1,0,0.1c0,0,0,0.1,0,0.1L64,244.1z M64.5,235.5c0.6,0.3,1.4,0.8,1.8,1.1L66,237
		c-0.4-0.4-1.2-0.9-1.8-1.2L64.5,235.5z M70,238.9H73v0.5h-6.8v-0.5h1.3v-2.7l0.6,0c0,0.1-0.1,0.1-0.2,0.1v2.6h1.6v-3.6l0.7,0
		c0,0.1-0.1,0.1-0.2,0.1v1.4h2.6v0.5H70V238.9z M66.2,244.1c0.7-0.4,1.8-1,2.8-1.7l0.2,0.4c-0.9,0.6-1.9,1.2-2.5,1.5
		c0,0.1,0,0.1-0.1,0.2L66.2,244.1z M67.2,239.9c0.6,0.5,1.3,1.1,1.6,1.6l-0.4,0.3c-0.3-0.5-1-1.2-1.6-1.7L67.2,239.9z M72.6,244.6
		c-0.5-0.5-1.6-1.4-2.5-1.9l0.3-0.3c0.9,0.5,2,1.3,2.5,1.9L72.6,244.6z M72.6,240.1c0,0-0.1,0.1-0.2,0.1c-0.4,0.5-1.1,1.2-1.7,1.7
		c0,0-0.4-0.3-0.4-0.3c0.5-0.5,1.3-1.3,1.7-1.8L72.6,240.1z"/>
	<path d="M65.6,260.7c-0.5,0.4-1,0.7-1.5,1c-0.1-0.1-0.2-0.3-0.3-0.4c1.8-0.9,3.5-2.6,4.3-4l0.7,0c0,0.1-0.1,0.1-0.2,0.1
		c1,1.5,2.8,3,4.4,3.7c-0.1,0.1-0.2,0.3-0.3,0.4c-0.5-0.3-1-0.6-1.5-0.9v4h-0.5v-0.4h-4.6v0.5h-0.5V260.7z M67.4,255.9
		c0,0.1-0.1,0.1-0.2,0.1c-0.7,0.9-1.7,1.9-2.6,2.5c-0.1-0.1-0.3-0.3-0.4-0.3c0.9-0.6,2-1.5,2.6-2.5L67.4,255.9z M71.2,260.7
		c-1.1-0.8-2.2-1.8-2.9-2.9c-0.6,0.9-1.6,2-2.7,2.9H71.2z M66.1,263.8h4.6v-2.7h-4.6V263.8z M69.8,255.7c1,0.7,2.2,1.7,2.8,2.4
		l-0.4,0.3c-0.5-0.7-1.7-1.7-2.8-2.4L69.8,255.7z"/>
</g>
<rect x="46.3" y="468" class="st2" width="44" height="44"/>
<rect x="90.3" y="468" class="st2" width="44" height="44"/>
<g>
	<rect x="245.3" y="395" class="st5" width="10" height="30.1"/>
	<path d="M247.7,402.1c-0.3,0.8-0.7,1.6-1.5,2.1l-0.4-0.3c0.7-0.4,1.2-1.2,1.4-2L247.7,402.1z M247.1,398.2V398
		c-0.3,0.3-0.6,0.5-0.9,0.7c-0.1-0.1-0.2-0.3-0.4-0.3c1.3-0.9,2.3-2.1,2.7-3.1l0.6,0.1c0,0.1-0.1,0.1-0.2,0.1
		c-0.1,0.2-0.2,0.4-0.3,0.6h3.1l0.1,0l0.4,0.3c0,0-0.1,0-0.1,0c-0.2,0.4-0.5,0.9-0.9,1.3h2.3v3.4h-6.7v-0.4h6.2v-1.1h-5.9v-0.4h5.9
		v-1H247.1z M250.7,397.8c0.3-0.3,0.6-0.8,0.8-1.2h-3.1c-0.3,0.4-0.6,0.8-1,1.2H250.7z M248.9,403.7c0,0.2,0.1,0.3,0.6,0.3h1.9
		c0.5,0,0.5-0.1,0.6-1.2c0.1,0.1,0.3,0.1,0.4,0.2c-0.1,1.2-0.2,1.5-1,1.5h-2c-0.9,0-1.1-0.1-1.1-0.7V402l0.6,0
		c0,0.1-0.1,0.1-0.2,0.1V403.7z M249.4,401.2c0.7,0.2,1.5,0.7,1.9,1l-0.3,0.4c-0.4-0.4-1.2-0.8-1.9-1.1L249.4,401.2z M254.5,404.2
		c-0.3-0.6-1.2-1.5-1.9-2.1l0.4-0.3c0.8,0.6,1.6,1.4,1.9,2.1L254.5,404.2z"/>
	<path d="M248.6,415.7c0,0.1-0.1,0.1-0.2,0.1c-0.6,0.7-1.6,1.6-2.5,2.2c-0.1-0.1-0.2-0.3-0.3-0.4c0.8-0.6,1.8-1.4,2.4-2.2
		L248.6,415.7z M247.3,424.7V420c-0.4,0.5-0.8,0.9-1.2,1.3c-0.1-0.1-0.2-0.3-0.3-0.4c0.9-0.8,2-2.1,2.8-3.4l0.6,0.3
		c0,0.1-0.1,0.1-0.2,0.1c-0.3,0.5-0.7,1-1.1,1.5l0.2,0.1c0,0-0.1,0.1-0.2,0.1v5.1H247.3z M254.9,419v0.5h-1.6v4.5
		c0,0.3-0.1,0.5-0.4,0.6c-0.3,0.1-0.8,0.1-1.9,0.1c0-0.1-0.1-0.3-0.2-0.5c0.4,0,0.8,0,1.1,0c0.8,0,0.9,0,0.9-0.2v-4.5h-3.7V419
		H254.9z M254.6,416.1v0.5h-5v-0.5H254.6z"/>
</g>
<g>
	<rect x="201.3" y="395" class="st5" width="10" height="30.1"/>
	<path d="M202,397.1c0.6,0.1,1.3,0.4,1.7,0.6l-0.2,0.4c-0.4-0.2-1.1-0.5-1.7-0.7L202,397.1z M210.9,402v0.5h-4.3v2.1h-0.5v-2.1h-4.2
		V402h4.2v-0.9l0.7,0c0,0.1-0.1,0.1-0.2,0.1v0.8H210.9z M202,400.9c0.5-0.5,1.3-1.3,2-2.1l0.3,0.3c-0.6,0.7-1.3,1.5-1.8,2
		c0,0,0,0,0,0.1c0,0.1,0,0.1-0.1,0.1L202,400.9z M202.7,395.4c0.6,0.2,1.3,0.5,1.7,0.8l-0.2,0.4c-0.4-0.2-1.1-0.6-1.7-0.8
		L202.7,395.4z M205.1,400.9v-3.4c-0.3,0.3-0.6,0.6-0.9,0.9c-0.1-0.1-0.2-0.2-0.4-0.3c0.8-0.6,1.6-1.7,2-2.8l0.6,0.2
		c0,0.1-0.1,0.1-0.2,0.1c-0.1,0.3-0.3,0.6-0.5,0.9h1.6c0.2-0.3,0.4-0.8,0.6-1.1l0.6,0.2c0,0.1-0.1,0.1-0.2,0.1
		c-0.1,0.3-0.3,0.6-0.5,0.9h2.5v0.4H208v0.9h2.2v0.4H208v0.9h2.2v0.4H208v0.9h2.8v0.4H205.1z M207.5,397.8v-0.9h-1.9v0.9H207.5z
		 M207.5,399.1v-0.9h-1.9v0.9H207.5z M207.5,400.5v-0.9h-1.9v0.9H207.5z"/>
	<path d="M203.7,422.2c-0.3,0.8-0.7,1.6-1.5,2.1l-0.4-0.3c0.7-0.4,1.2-1.2,1.4-2L203.7,422.2z M203.1,418.3v-0.2
		c-0.3,0.3-0.6,0.5-0.9,0.7c-0.1-0.1-0.2-0.3-0.4-0.3c1.3-0.9,2.3-2.1,2.7-3.1l0.6,0.1c0,0.1-0.1,0.1-0.2,0.1
		c-0.1,0.2-0.2,0.4-0.3,0.6h3.1l0.1,0l0.4,0.3c0,0-0.1,0-0.1,0c-0.2,0.4-0.5,0.9-0.9,1.3h2.3v3.4h-6.7v-0.4h6.2v-1.1h-5.9v-0.4h5.9
		v-1H203.1z M206.7,417.8c0.3-0.3,0.6-0.8,0.8-1.2h-3.1c-0.3,0.4-0.6,0.8-1,1.2H206.7z M204.9,423.8c0,0.2,0.1,0.3,0.6,0.3h1.9
		c0.5,0,0.5-0.1,0.6-1.2c0.1,0.1,0.3,0.1,0.4,0.2c-0.1,1.2-0.2,1.5-1,1.5h-2c-0.9,0-1.1-0.1-1.1-0.7v-1.6l0.6,0
		c0,0.1-0.1,0.1-0.2,0.1V423.8z M205.4,421.3c0.7,0.2,1.5,0.7,1.9,1l-0.3,0.4c-0.4-0.4-1.2-0.8-1.9-1.1L205.4,421.3z M210.5,424.3
		c-0.3-0.6-1.2-1.5-1.9-2.1l0.4-0.3c0.8,0.6,1.6,1.4,1.9,2.1L210.5,424.3z"/>
</g>
<g>
	<rect x="201.3" y="235" class="st5" width="10" height="30.1"/>
	<path d="M202.7,237.3c0,0.8-0.2,2-0.6,2.6l-0.4-0.2c0.3-0.6,0.5-1.6,0.5-2.4L202.7,237.3z M203.2,244.6v-9.2l0.6,0
		c0,0.1-0.1,0.1-0.2,0.1v9.1H203.2z M204.4,236.9c0.3,0.5,0.7,1.2,0.8,1.6l-0.4,0.2c-0.1-0.4-0.5-1.1-0.8-1.6L204.4,236.9z
		 M211,240.6h-3c0.5,1.7,1.6,3,3.1,3.6c-0.1,0.1-0.3,0.3-0.4,0.4c-1.5-0.6-2.6-2.1-3.2-3.9c-0.3,1.4-1,2.8-2.8,3.9
		c-0.1-0.1-0.2-0.3-0.3-0.4c1.7-1,2.4-2.4,2.7-3.7h-2.4v-0.5h2.5c0.1-0.6,0.1-1.3,0.1-1.8v-0.7h-1.9V237h1.9v-1.7l0.7,0
		c0,0.1-0.1,0.1-0.2,0.1v1.5h2.3v3.1h1V240.6z M207.8,237.5v0.7c0,0.6,0,1.2-0.1,1.8h1.9v-2.6H207.8z"/>
	<path d="M203.8,259.5v3.3c0.8,1.2,2.4,1.2,4,1.2c1.1,0,2.4,0,3.1-0.1c-0.1,0.1-0.1,0.3-0.2,0.5c-0.7,0-1.8,0-2.8,0
		c-2,0-3.4,0-4.4-1.3c-0.5,0.5-1.1,0.9-1.5,1.3c0,0.1,0,0.1-0.1,0.2l-0.3-0.5c0.5-0.3,1.1-0.8,1.6-1.3v-2.9h-1.6v-0.5H203.8z
		 M202.3,255.7c0.7,0.4,1.5,1.1,1.8,1.6l-0.4,0.3c-0.3-0.5-1.1-1.2-1.8-1.6L202.3,255.7z M207.3,263.6v-2.9c-0.6,1-1.7,2-2.7,2.5
		c-0.1-0.1-0.2-0.3-0.3-0.4c0.9-0.4,2-1.3,2.6-2.3h-1.9v-2.4h2.3v-1h-2.9v-0.4h2.9v-1.2l0.6,0c0,0.1-0.1,0.1-0.2,0.1v1h3v0.4h-3v1
		h2.4v2.4h-2c0.6,0.9,1.7,1.8,2.7,2.3c-0.1,0.1-0.3,0.3-0.4,0.4c-0.9-0.5-2-1.5-2.7-2.5v2.9H207.3z M205.5,258.5v1.5h1.8v-1.5H205.5
		z M209.7,258.5h-1.9v1.5h1.9V258.5z"/>
</g>
<g>
	<rect x="201.3" y="155" class="st5" width="10" height="30.1"/>
	<path d="M207.6,159.4h3.3v0.4h-9v-0.4h3.2v-2.2h-2.6v-0.4h2.1c-0.2-0.4-0.5-0.9-0.9-1.2l0.4-0.2c0.4,0.4,0.8,1,1,1.3l-0.2,0.1h2.8
		l-0.1-0.1c0.3-0.4,0.7-1,0.9-1.4l0.6,0.3c0,0.1-0.1,0.1-0.2,0.1c-0.2,0.3-0.5,0.8-0.8,1.1h2.3v0.4h-2.8V159.4z M203.8,159.2
		c-0.1-0.5-0.5-1.1-0.9-1.6l0.4-0.2c0.4,0.5,0.8,1.1,0.9,1.6L203.8,159.2z M203.4,164.6v-3.9h5.8v3.9h-0.5v-0.4h-4.9v0.4H203.4z
		 M208.8,161.1h-4.9v1.1h4.9V161.1z M203.9,163.8h4.9v-1.2h-4.9V163.8z M205.5,157.2v2.2h1.6v-2.2H205.5z M209.9,157.7
		c0,0-0.1,0.1-0.2,0.1c-0.3,0.4-0.7,1.1-1,1.5l-0.3-0.2c0.3-0.4,0.8-1.2,1-1.7L209.9,157.7z"/>
	<path d="M203.8,179.5v3.3c0.8,1.2,2.4,1.2,4.2,1.2c1.1,0,2.3,0,3.1-0.1c-0.1,0.1-0.1,0.3-0.2,0.5c-0.6,0-1.7,0-2.7,0
		c-2.1,0-3.6,0-4.6-1.3c-0.5,0.5-1.1,0.9-1.6,1.3c0,0.1,0,0.1-0.1,0.2l-0.3-0.5c0.5-0.3,1.1-0.8,1.7-1.3v-2.9h-1.6v-0.5H203.8z
		 M202.3,175.7c0.7,0.5,1.4,1.2,1.7,1.7l-0.4,0.3c-0.3-0.5-1-1.2-1.7-1.7L202.3,175.7z M208.3,178c-0.7-0.3-1.5-0.7-2.3-1l0.3-0.3
		c0.5,0.2,1,0.4,1.5,0.6c0.6-0.2,1.3-0.6,1.8-1h-4.7v-0.4h5.2l0.1,0l0.4,0.3c0,0-0.1,0-0.1,0.1c-0.5,0.4-1.4,1-2.2,1.3
		c0.4,0.2,0.7,0.3,0.9,0.5h1.3v4.7c0,0.3-0.1,0.4-0.3,0.5c-0.2,0.1-0.7,0.1-1.4,0.1c0-0.1-0.1-0.3-0.2-0.4c0.3,0,0.6,0,0.9,0
		c0.4,0,0.5,0,0.5-0.2v-1.2h-2.1v1.8h-0.5v-1.8h-2v1.8H205V178H208.3z M207.5,178.4h-2v1.1h2V178.4z M205.4,181h2v-1.1h-2V181z
		 M210,179.5v-1.1h-2.1v1.1H210z M207.9,181h2.1v-1.1h-2.1V181z"/>
</g>
<g>
	<rect x="201.3" y="75" class="st5" width="10" height="30.1"/>
	<path d="M201.7,77.5V77h3.5v0.4H201.7z M202.2,78.8v-0.4h2.8v0.4H202.2z M202.2,80.2v-0.4h2.8v0.4H202.2z M205,81.1V84h-2.4v0.5
		h-0.4v-3.4H205z M204.9,75.7v0.4h-2.7v-0.4H204.9z M204.5,81.5h-1.9v2h1.9V81.5z M207.2,79.9v3c0.4-0.1,0.9-0.2,1.4-0.3l0,0.4
		c-1.1,0.3-2.2,0.5-3,0.7c0,0.1,0,0.1-0.1,0.1l-0.2-0.5c0.4-0.1,0.9-0.2,1.4-0.3v-3.2h-1.2v-0.5h2.8v0.5H207.2z M210.9,77.9h-1.6
		c0.1,3.4,0.3,6,1.1,6.2h0c0.1,0,0.3-0.6,0.4-1.5c0.1,0.1,0.2,0.2,0.4,0.2c-0.1,1.2-0.4,1.7-0.8,1.7c-1.3,0-1.5-3.5-1.6-6.7h-3.4
		v-0.5h3.4l0-2.1l0.7,0c0,0.1-0.1,0.1-0.2,0.1c0,0.6,0,1.3,0,1.9h1.6V77.9z M209.8,75.4c0.4,0.4,0.9,1,1.1,1.3l-0.4,0.2
		c-0.2-0.4-0.7-1-1.1-1.4L209.8,75.4z"/>
	<path d="M203.6,89.4v3.3c0.8,1.2,2.5,1.2,4.3,1.2c1.1,0,2.3,0,3.1-0.1c-0.1,0.1-0.1,0.3-0.2,0.5c-0.7,0-1.7,0-2.7,0
		c-2.1,0-3.6,0-4.6-1.3c-0.5,0.5-1,0.9-1.4,1.3c0,0.1,0,0.1-0.1,0.2l-0.3-0.5c0.4-0.3,1-0.8,1.5-1.3v-2.9h-1.4v-0.5H203.6z
		 M202.3,85.6c0.6,0.5,1.4,1.2,1.7,1.7l-0.4,0.3c-0.3-0.5-1-1.2-1.6-1.7L202.3,85.6z M207.3,93.7v-1.2h-3.1v-0.4h3.1v-0.8H205v-2.8
		h2.3v-0.8h-2.7v-0.4h2.7v-0.9l0.6,0c0,0.1-0.1,0.1-0.2,0.1v0.7h2.7v0.4h-2.7v0.8h2.3v2.8h-2.3v0.8h3.1v0.4h-3.1v1.2H207.3z
		 M204.9,86.2V87h-0.5v-1.3h6.2V87h-0.5v-0.9H204.9z M205.4,88.9v0.8h1.8v-0.8H205.4z M205.4,90.9h1.8v-0.8h-1.8V90.9z M209.6,88.9
		h-1.8v0.8h1.8V88.9z M209.6,90.9v-0.8h-1.8v0.8H209.6z"/>
	<path d="M206.3,102.8h-2.1v1.9h-0.5v-1.9h-2.1v-0.4h2.1v-1h-1.7v-3.4h1.7v-0.9h-1.9v-0.4h1.9v-1.2l0.6,0.1c0,0.1-0.1,0.1-0.2,0.1v1
		h1.9v0.4h-1.9v0.9h1.7v3.4h-1.7v1h2.1V102.8z M202.5,98.4v1.1h1.3v-1.1H202.5z M202.5,99.9v1.1h1.3v-1.1H202.5z M205.6,99.5v-1.1
		h-1.3v1.1H205.6z M205.6,101v-1.1h-1.3v1.1H205.6z M209.6,101.3c0.6,1,1.2,2.3,1.4,3.2l-0.5,0.2c0-0.2-0.1-0.5-0.2-0.7
		c-1.5,0.1-3,0.3-4,0.4c0,0.1-0.1,0.1-0.1,0.1l-0.2-0.6l0.8-0.1c0.3-1,0.7-2.7,0.9-3.9h-1.5v-0.5h4.7v0.5h-2.5c0,0-0.1,0-0.1,0
		c-0.2,1.1-0.6,2.7-1,3.8c0.9-0.1,1.9-0.1,2.9-0.2c-0.3-0.7-0.6-1.4-1-2L209.6,101.3z M210.6,96.2v0.5h-3.9v-0.5H210.6z"/>
</g>
<rect x="230.3" y="150" class="st4" width="40" height="40"/>
<rect x="186.3" y="310" class="st4" width="40" height="40"/>
<rect x="230.3" y="310" class="st4" width="40" height="40"/>
<rect x="272.3" y="622" class="st4" width="448" height="47"/>
<g>
	<rect x="274" y="627.5" class="st5" width="444.7" height="36"/>
	<path d="M279,653.6v-25.2h12.1v2.5h-9.6v22.7H279z"/>
	<path d="M327.5,651.4h-8.7c3.2,3.2,8.1,6.1,12.6,7.6c-0.8,0.7-1.9,2.1-2.4,3c-4.5-1.8-9.4-5.2-12.9-9v9.4h-3.6v-9.3
		c-3.4,3.7-8.2,6.9-12.6,8.8c-0.5-0.9-1.6-2.2-2.3-2.8c4.4-1.5,9.2-4.4,12.3-7.6h-8.3v-13.6h10.9v-2.7h-14v-3.2h14v-3.3l4.4,0.3
		c0,0.3-0.3,0.5-0.9,0.6v2.4h14.4v3.2H316v2.7h11.4V651.4z M304.9,640.4v2.9h7.6v-2.9H304.9z M304.9,645.8v3h7.6v-3H304.9z
		 M324,640.4h-8v2.9h8V640.4z M324,648.7v-3h-8v3H324z"/>
	<path d="M351.1,656.3l6.8-1.2l0.3,3.1c-6.7,1.3-13.9,2.7-18.4,3.6c0,0.3-0.3,0.5-0.5,0.6l-1.4-3.7l3.2-0.5v-13.8l4,0.3
		c0,0.3-0.3,0.5-0.8,0.6v12.4l3.6-0.6v-16.2l4.1,0.3c0,0.3-0.3,0.5-0.8,0.6v4.8h5.8v3h-5.8V656.3z M370.9,640.5h-9.3
		c0.8,10.1,2.8,18.4,5.7,18.4c0.9,0,1.3-2.1,1.5-6.8c0.8,0.8,1.9,1.6,2.9,2c-0.5,6.6-1.7,8.3-4.7,8.3c-5.5,0-8-9.9-8.9-21.9h-19.8
		v-3.2H358c-0.1-2.8-0.2-5.7-0.2-8.5l4.5,0.3c0,0.3-0.3,0.5-0.9,0.6c0,2.6,0,5.1,0.1,7.6h9.4V640.5z M355.2,630.6v3.1h-13.9v-3.1
		H355.2z M364.9,629.1c2,1.5,4.4,3.7,5.5,5.3l-2.5,2c-1-1.5-3.3-3.9-5.4-5.5L364.9,629.1z"/>
	<path d="M383.2,650.5c-0.1,0.4-0.4,0.4-0.8,0.4c-0.4,3-1.2,6.5-2.3,8.6c-0.6-0.4-1.7-0.9-2.4-1.2c1-2,1.7-5.4,2.1-8.6L383.2,650.5z
		 M390,649.1c-0.1-0.6-0.4-1.3-0.6-2l-2.5,0.2v15.1h-3v-14.9c-1.8,0.1-3.4,0.2-4.7,0.2c-0.1,0.3-0.4,0.5-0.6,0.5l-0.7-3.5l2.5,0
		c0.7-0.8,1.4-1.8,2.1-2.8c-1.1-1.6-2.8-3.6-4.4-5.1l1.7-2.3c0.3,0.3,0.6,0.6,1,0.9c1.1-2.1,2.3-4.7,3-6.7l3.5,1.4
		c-0.1,0.2-0.4,0.3-0.9,0.3c-0.9,2-2.4,4.8-3.8,6.8c0.6,0.7,1.2,1.3,1.7,2c1.4-2.2,2.7-4.5,3.7-6.4l3.3,1.5
		c-0.2,0.2-0.5,0.3-0.9,0.3c-1.7,2.9-4.4,6.8-6.8,9.9l4.8-0.1c-0.5-1.1-1.1-2.2-1.7-3.2l2.5-1c1.5,2.4,3.1,5.5,3.7,7.6L390,649.1z
		 M390,649.6c0.9,2,1.8,4.6,2.2,6.4c-0.8,0.3-1.5,0.5-2.7,1c-0.3-1.8-1.2-4.5-2.1-6.5L390,649.6z M397.9,648.3l1.9,0.8
		c0,0.2-0.2,0.4-0.3,0.4c-1.2,5.7-3.9,9.6-7.6,11.8c-0.4-0.6-1.5-1.9-2.1-2.3c2.8-1.5,5-4.1,6.2-7.7h-4.4v-2.9h5.8L397.9,648.3z
		 M403.1,645.5c0,1.3,1.2,4.1,1.8,5.4c1.5-1.3,3.1-2.9,4.1-4.1c2.7,2.2,2.9,2.3,3.1,2.4c-0.1,0.2-0.5,0.3-0.9,0.2
		c-1.2,1.1-3.2,2.7-4.9,3.9c1.5,2.1,3.5,4,6.2,5.2c-0.6,0.6-1.6,1.9-2.1,2.7c-3.5-1.9-5.8-4.9-7.3-8.1v5.8c0,3-1.1,3.4-6.1,3.4
		c-0.1-0.9-0.5-2.1-0.9-3c0.7,0,1.4,0,2,0c1.8,0,1.8,0,1.8-0.5v-13.4H393v-13.2h5.5c0.6-1.2,1.1-2.6,1.4-3.7l4.2,1
		c-0.1,0.3-0.4,0.4-0.9,0.4c-0.3,0.7-0.8,1.5-1.3,2.3h8.3v13.2H403.1z M396.1,635v2.6h11V635H396.1z M396.1,640.2v2.7h11v-2.7H396.1
		z"/>
	<path d="M450.1,634.8v23.4c0,4-1.9,4.2-8.7,4.2c-0.1-0.9-0.7-2.5-1.2-3.4c1.4,0.1,2.9,0.1,4,0.1h1.6c0.7,0,0.9-0.2,0.9-0.9v-20.1
		h-10c-0.1,1.3-0.2,2.7-0.5,4.1c3.4,3,7.6,7.1,9.8,9.7l-2.8,2.2c-1.7-2.3-4.9-5.7-8-8.6c-1.4,3.3-4,6.7-8.6,9.3
		c-0.5-0.7-1.6-1.9-2.4-2.6c7.6-4,8.9-9.6,9.1-14.2H424v24.3h-3.4v-27.6h12.7v-6.2l4.4,0.2c0,0.3-0.3,0.5-0.9,0.6v5.3H450.1z"/>
	<path d="M490.5,652.2h-10.8c3.2,2.8,8.1,5.3,12.7,6.5c-0.8,0.8-1.9,2.2-2.4,3.1c-4.5-1.5-9.3-4.3-12.8-7.7v8.2h-3.5v-8.2
		c-3.4,3.2-8.2,6-12.6,7.5c-0.5-0.9-1.6-2.2-2.3-2.9c4.5-1.3,9.4-3.8,12.6-6.6h-10.4v-3h5v-3.5h-6.4v-3h6.4v-3.4h-4.5v-3h12.3v-2.7
		c-3.9,0.3-7.8,0.5-11.5,0.6c-0.1-0.8-0.5-2.2-0.8-2.9c8.8-0.3,19.2-1.1,25.2-2.4l2.4,2.9c-0.1,0.1-0.3,0.1-0.5,0.1
		c-0.1,0-0.3,0-0.4-0.1c-3,0.6-6.8,1.2-11,1.5v3H490v3h-4.8v3.4h6.6v3h-6.6v3.5h5.3V652.2z M469.3,639.5v3.4h4.5v-3.4H469.3z
		 M469.3,645.8v3.5h4.5v-3.5H469.3z M481.9,639.5h-4.6v3.4h4.6V639.5z M481.9,649.3v-3.5h-4.6v3.5H481.9z"/>
	<path d="M506.4,650c-0.7-2.2-1-5.3-1-7.3c0-3,0.3-6.9,1.1-11.4l4.6,0.7c-0.1,0.5-0.5,0.6-1,0.6c-0.7,2.8-1.3,7.3-1.3,10
		c0,0.5,0,0.9,0.1,1.3c0.7-1.7,2-3.9,2.8-5.2c0.4,0.6,1.3,1.8,1.7,2.3c-2.1,3.3-3.7,6-3.7,7.5c0,0.3,0,0.6,0.1,1L506.4,650z
		 M526.5,630.3c0,0.4-0.3,0.7-0.9,0.8c0.3,3,0.6,8,0.6,12.3c0,7-2.4,13.4-13.5,18c-0.5-0.8-1.8-2.2-2.6-2.9
		c9.9-3.8,12.2-9.6,12.2-15c0-4.7-0.5-9.9-0.9-13.5L526.5,630.3z"/>
	<path d="M555,630.8h3.5c0,6.7,0.9,20.3,14.8,28.5c-0.8,0.6-2.2,2.1-2.7,2.9c-8.4-5-12.3-12.6-14.1-19.3
		c-2.7,8.7-7.2,15.4-14.2,19.4c-0.6-0.7-1.9-2-2.8-2.7c7.6-3.9,12.1-11.4,14.3-21.4l1.9,0.4c-0.3-1.6-0.4-3.1-0.5-4.4h-8.7v-3.5
		L555,630.8L555,630.8z"/>
	<path d="M588.4,629.6l4.8,0.3c0,0.4-0.4,0.6-1,0.8c-0.2,1.5-0.4,3.5-0.4,4.9l1.3,0.5c-0.8,1.4-1.4,3.5-1.7,4.9
		c3.9-3.6,7.8-5.8,10.7-5.8c3.5,0,5.4,2.4,5.4,6.7c0,0.4,0,0.9-0.1,1.4c-0.3,3.6-0.6,7.4-0.6,9.7c0,2.1,0.2,3.2,1.5,3.2
		c1,0,3.2-1.2,4.6-2.4c0,1,0.3,3.2,0.4,4c-1.8,1.3-4,2.2-5.7,2.2c-3.5,0-4.6-2-4.6-6.2c0-1.8,0.6-10.9,0.6-11.1
		c0-2.7-0.9-3.9-2.5-3.9c-2.4,0-6.4,2.5-9.9,6.3c0,7.5,0,14,0,16.1h-3.5v-13.2c-1.2,2.2-3.5,5.2-6,7.6l-1.7-3.3
		c2.7-2.4,6.3-6.7,7.8-10.1c0-1,0-1.8,0.1-2.8c-1.4,0.3-3.9,0.6-6.4,0.6l-0.1-3.5c2.7,0,5.4-0.3,6.6-0.5L588.4,629.6z"/>
	<path d="M641.4,634.6c-0.1,0-0.3,0-0.4,0c-0.8,1.5-1.7,3-2.7,4.5l1.2,0.3c-0.1,0.3-0.3,0.5-0.9,0.6v22.4H635v-19
		c-3.5,4.2-7.8,8-12.7,10.8c-0.5-0.8-1.6-2.2-2.3-2.9c7.2-3.7,13.2-10.2,16.7-16.6h-15.6v-3.5h31.5v3.5H641.4z M650.9,653.7
		c-2.6-2.6-7.9-6.4-12.1-9l2.5-2.4c4,2.4,9.5,6.1,12.2,8.6L650.9,653.7z"/>
	<path d="M693.5,631.2v3.4h-4.4v23.2c0,4.2-1.8,4.5-9.9,4.5c-0.2-1-0.9-2.7-1.4-3.7c1.7,0.1,3.4,0.1,4.8,0.1c2.9,0,3.1,0,3.1-1.1
		v-23.1h-24.7v-3.4H693.5z M679.6,653.2h-12v2.9h-3.3v-16.7h15.3V653.2z M676.3,642.7h-8.6v7.3h8.6V642.7z"/>
	<path d="M712.7,637.2v25.1h-12.1v-2.5h9.6v-22.6H712.7z"/>
</g>
<circle class="st1" cx="476.4" cy="58.3" r="6"/>
<circle class="st1" cx="652.4" cy="582.3" r="6"/>
<circle class="st1" cx="432.4" cy="582.3" r="6"/>
<circle class="st1" cx="652.4" cy="382.3" r="6"/>
<circle class="st1" cx="520.4" cy="166.3" r="6"/>
<circle class="st1" cx="564.4" cy="58.3" r="6"/>
<circle class="st1" cx="344.4" cy="58.3" r="6"/>
<g>
</g>
<g>
</g>
<g>
</g>
<g>
</g>
<g>
</g>
<g>
</g>
<g>
</g>
<g>
</g>
<g>
</g>
<g>
</g>
<g>
</g>
<g>
</g>
<g>
</g>
<g>
</g>
<g>
</g>
<g>
</g>
<g>
</g>
<g>
</g>
</svg>
