<?xml version="1.0" encoding="utf-8"?>
<!-- Generator: Adobe Illustrator 16.0.0, SVG Export Plug-In . SVG Version: 6.00 Build 0)  -->
<!DOCTYPE svg PUBLIC "-//W3C//DTD SVG 1.1//EN" "http://www.w3.org/Graphics/SVG/1.1/DTD/svg11.dtd">
<svg version="1.1" id="レイヤー_1" xmlns="http://www.w3.org/2000/svg" xmlns:xlink="http://www.w3.org/1999/xlink" x="0px"
	 y="0px" width="440px" height="975px" viewBox="0 0 440 975" style="enable-background:new 0 0 440 975;" xml:space="preserve">
<style type="text/css">
<![CDATA[
	.st0{fill:#FF4600;}
	.st1{fill:#FFF800;}
	.st2{fill:#FFFFCC;}
	.st3{fill:none;}
	.st4{fill:#CCCCCC;}
	.st5{fill:none;stroke:#000000;stroke-width:2;stroke-miterlimit:10;}
	.st6{fill:#DC0000;}
	.st7{fill:#EEEEEE;stroke:#000000;stroke-width:2;stroke-miterlimit:10;}
]]>
</style>
<rect class="st2" width="440" height="975"/>
<rect x="132" y="79" class="st7" width="44" height="72"/>
<rect x="176" y="79" class="st7" width="44" height="72"/>
<rect x="220" y="79" class="st7" width="44" height="72"/>
<rect x="264" y="79" class="st7" width="44" height="72"/>
<rect x="308" y="79" class="st7" width="44" height="72"/>
<rect x="352" y="79" class="st7" width="44" height="72"/>
<g>
	<rect x="233.9" y="86.2" class="st3" width="16.2" height="57.6"/>
	<path d="M236.7,93c-0.5,0.8-1.1,1.5-1.6,2.2c-0.1-0.4-0.5-1.1-0.7-1.5c1.5-1.6,2.9-4.3,3.8-6.9l1.7,0.6c-0.1,0.1-0.2,0.2-0.4,0.2
		c-0.4,1.1-0.9,2.1-1.4,3.2l0.5,0.1c0,0.1-0.1,0.2-0.4,0.2v10.6h-1.5V93z M249.8,91.5v1.4h-1.2v4.7h-1.5v-0.9h-2.8
		c-0.4,1.9-1.5,3.8-4.1,5c-0.2-0.3-0.7-0.9-1-1.2c2.1-0.9,3.1-2.4,3.6-3.9h-2.9v-1.4h3.2c0.1-0.6,0.1-1.1,0.1-1.6v-0.7h-4.2v-1.4
		h4.2v-2.3H240v-1.4h8.6v3.7H249.8z M247.1,95.3v-2.4h-2.5v0.7c0,0.5,0,1.1-0.1,1.6H247.1z M244.6,89.2v2.3h2.5v-2.3H244.6z"/>
	<path d="M248,138.4h-3.9c1.4,1.4,3.6,2.7,5.6,3.4c-0.4,0.3-0.8,0.9-1.1,1.3c-2-0.8-4.2-2.3-5.7-4v4.2h-1.6v-4.1
		c-1.5,1.7-3.6,3.1-5.6,3.9c-0.2-0.4-0.7-1-1-1.3c2-0.7,4.1-2,5.5-3.4h-3.7v-6.1h4.9v-1.2H235v-1.4h6.2v-1.5l2,0.1
		c0,0.1-0.1,0.2-0.4,0.3v1.1h6.4v1.4h-6.4v1.2h5.1V138.4z M237.9,133.5v1.3h3.4v-1.3H237.9z M237.9,135.9v1.3h3.4v-1.3H237.9z
		 M246.4,133.5h-3.6v1.3h3.6V133.5z M246.4,137.2v-1.3h-3.6v1.3H246.4z"/>
</g>
<g>
	<rect x="145.9" y="86.2" class="st3" width="16.2" height="57.6"/>
	<path d="M160,95.7c0,0.7,0,0.8,0.2,0.8c0.4,0,0.4,0,0.5-0.1c0.2-0.2,0.2-1.5,0.2-2.3c0.2,0.2,0.7,0.4,1,0.5c0,2.3-0.1,3.1-1.3,3.1
		h-0.7c-0.3,0-0.7-0.1-0.9-0.3c-0.2-0.3-0.3-0.5-0.3-1.7v-5.4h-1.3c0,0.9-0.1,1.8-0.3,2.6c0.6,0.4,1.2,0.9,1.5,1.2l-0.7,1.3
		c-0.3-0.3-0.7-0.7-1.2-1.1c-0.4,1.5-1.1,2.7-2.3,3.6c-0.2-0.3-0.5-0.7-0.8-0.9c-2.3,0.3-4.6,0.5-6.1,0.7c0,0.1-0.1,0.2-0.2,0.2
		l-0.5-1.5l3.1-0.2V95h-2.4v-1.1h2.4v-1.1l1.4,0.1c-0.2-0.2-0.3-0.5-0.3-1V91h-1c-0.2,1.2-0.7,2-2.7,2.5c-0.1-0.3-0.4-0.7-0.6-0.9
		c1.4-0.3,1.9-0.8,2.1-1.6H147v-1.1h2.9v-1h-2.3v-1.1h2.3v-1.1l1.7,0.1c0,0.1-0.1,0.2-0.4,0.2v0.7h2.3v1.1h-2.3v1h2.8V91h-1.9v0.7
		c0,0.3,0,0.3,0.2,0.3h0.6c0.2,0,0.3,0,0.3-0.6c0.2,0.2,0.6,0.3,0.9,0.4c-0.1,0.9-0.4,1.2-1.1,1.2h-0.9c-0.3,0-0.5,0-0.7-0.1
		c0,0.1-0.1,0.1-0.3,0.1v0.8h2.5V95h-2.5v1.2c0.9-0.1,1.8-0.2,2.8-0.3l0,0.7c0.8-0.8,1.3-1.9,1.6-3.1c-0.5-0.4-1-0.7-1.4-1l0.6-1.1
		c0.3,0.2,0.7,0.4,1,0.6c0.1-0.6,0.1-1.2,0.2-1.8h-1.6v-1.4h1.6c0-0.7,0-1.4,0-2.2l1.7,0.1c0,0.2-0.1,0.3-0.4,0.3c0,0.6,0,1.2,0,1.8
		h2.6V95.7z M150.2,98.7c-0.4,1.1-1.2,2.3-2,3c-0.4-0.2-0.8-0.3-1.4-0.6c0.8-0.6,1.5-1.8,1.9-2.8L150.2,98.7z M151.8,101.6
		c0-0.7-0.1-1.9-0.3-2.8l1.4-0.1c0.2,0.9,0.4,2.1,0.4,2.8L151.8,101.6z M155.6,101.5c-0.1-0.7-0.5-1.9-0.8-2.8l1.4-0.2
		c0.4,0.9,0.8,2,0.9,2.8L155.6,101.5z M160,101.7c-0.4-0.8-1.2-2.1-1.9-3l1.4-0.5c0.7,0.9,1.6,2.1,2,3L160,101.7z"/>
	<path d="M147.4,132.8c1,0.4,2.1,1.1,2.7,1.6l-0.9,1.2c-0.5-0.5-1.7-1.3-2.7-1.7L147.4,132.8z M147,142.2c0.7-1.3,1.7-3.4,2.4-5.2
		l1.2,0.8c-0.7,1.7-1.5,3.6-2.2,4.8c0.1,0.1,0.1,0.2,0.1,0.3s0,0.1,0,0.2L147,142.2z M148.2,128.4c0.9,0.4,2.1,1.1,2.7,1.7
		c-0.4,0.5-0.7,0.9-0.9,1.2c-0.6-0.6-1.7-1.3-2.7-1.8L148.2,128.4z M161.6,137.6h-1.4c0,0.8-0.1,1.5-0.1,2.1h1.4v1.3H160
		c-0.3,2.1-0.9,2.3-2.5,2.3c-0.4,0-0.8,0-1.2,0c0-0.4-0.2-0.9-0.4-1.3c0.8,0.1,1.5,0.1,1.9,0.1c0.5,0,0.7-0.5,0.8-1.1h-5.3
		c0,0.3-0.1,0.5-0.1,0.8l-1.4-0.1c0.2-1.1,0.4-2.6,0.6-4.1h-1.6v-1.4h1.8c0.1-1.1,0.2-2.2,0.3-3.2c-0.4,0.6-0.7,1.1-1.1,1.6
		c-0.3-0.3-0.8-0.7-1.1-0.9c1.1-1.2,2.1-3.3,2.6-5.3l1.8,0.5c-0.1,0.2-0.2,0.2-0.4,0.2c-0.1,0.4-0.3,0.9-0.4,1.3h7.5v1.4h-8.1
		c-0.2,0.4-0.4,0.9-0.7,1.3h6.9l0.8,0.1c0,0.1,0,0.3,0,0.4l-0.1,2.8h1.3V137.6z M155.3,139.7c0.1-0.6,0.1-1.4,0.2-2.1h-1.9
		c-0.1,0.7-0.2,1.4-0.3,2.1H155.3z M155.6,136.2c0-0.7,0.1-1.3,0.1-2H154c0,0.6-0.1,1.3-0.2,2H155.6z M156.8,137.6
		c-0.1,0.8-0.1,1.5-0.2,2.1h2.1c0-0.6,0.1-1.3,0.1-2.1H156.8z M156.9,136.2h2c0-0.6,0-1.3,0.1-2h-1.9L156.9,136.2z"/>
</g>
<rect x="132" y="172" class="st7" width="44" height="72"/>
<rect x="176" y="172" class="st7" width="44" height="72"/>
<rect x="220" y="172" class="st7" width="44" height="72"/>
<rect x="264" y="172" class="st7" width="44" height="72"/>
<rect x="308" y="172" class="st7" width="44" height="72"/>
<rect x="352" y="172" class="st7" width="44" height="72"/>
<rect x="132" y="421" class="st7" width="44" height="72"/>
<rect x="176" y="421" class="st7" width="44" height="72"/>
<rect x="220" y="421" class="st7" width="44" height="72"/>
<rect x="264" y="421" class="st7" width="44" height="72"/>
<rect x="308" y="421" class="st7" width="44" height="72"/>
<rect x="352" y="421" class="st7" width="44" height="72"/>
<rect x="44" y="421" class="st7" width="44" height="72"/>
<rect x="88" y="421" class="st7" width="44" height="72"/>
<rect x="44" y="514" class="st7" width="44" height="72"/>
<rect x="88" y="514" class="st7" width="44" height="72"/>
<rect x="132" y="514" class="st7" width="44" height="72"/>
<rect x="176" y="514" class="st7" width="44" height="72"/>
<rect x="220" y="514" class="st7" width="44" height="72"/>
<rect x="264" y="514" class="st7" width="44" height="72"/>
<g>
	<rect x="145.3" y="428.2" class="st3" width="16.2" height="57.6"/>
	<path d="M148.1,435c-0.5,0.8-1.1,1.5-1.6,2.2c-0.1-0.4-0.5-1.1-0.7-1.5c1.5-1.6,2.9-4.3,3.8-6.9l1.7,0.6c-0.1,0.1-0.2,0.2-0.4,0.2
		c-0.4,1.1-0.9,2.1-1.4,3.2l0.5,0.1c0,0.1-0.1,0.2-0.4,0.2v10.6h-1.5V435z M161.2,433.5v1.4H160v4.7h-1.5v-0.9h-2.8
		c-0.4,1.9-1.5,3.8-4.1,5c-0.2-0.3-0.7-0.9-1-1.2c2.1-0.9,3.1-2.4,3.6-3.9h-2.9v-1.4h3.2c0.1-0.6,0.1-1.1,0.1-1.6v-0.7h-4.2v-1.4
		h4.2v-2.3h-3.1v-1.4h8.6v3.7H161.2z M158.5,437.3v-2.4h-2.5v0.7c0,0.5,0,1.1-0.1,1.6H158.5z M155.9,431.2v2.3h2.5v-2.3H155.9z"/>
	<path d="M159.3,480.4h-3.9c1.4,1.4,3.6,2.7,5.6,3.4c-0.4,0.3-0.8,0.9-1.1,1.3c-2-0.8-4.2-2.3-5.7-4v4.2h-1.6v-4.1
		c-1.5,1.7-3.6,3.1-5.6,3.9c-0.2-0.4-0.7-1-1-1.3c2-0.7,4.1-2,5.5-3.4h-3.7v-6.1h4.9v-1.2h-6.2v-1.4h6.2v-1.5l2,0.1
		c0,0.1-0.1,0.2-0.4,0.3v1.1h6.4v1.4h-6.4v1.2h5.1V480.4z M149.3,475.5v1.3h3.4v-1.3H149.3z M149.3,477.9v1.3h3.4v-1.3H149.3z
		 M157.8,475.5h-3.6v1.3h3.6V475.5z M157.8,479.2v-1.3h-3.6v1.3H157.8z"/>
</g>
<g>
	<rect x="57.3" y="428.2" class="st3" width="16.2" height="57.6"/>
	<path d="M71.4,437.7c0,0.7,0,0.8,0.2,0.8c0.4,0,0.4,0,0.5-0.1c0.2-0.2,0.2-1.5,0.2-2.3c0.2,0.2,0.7,0.4,1,0.5
		c0,2.3-0.1,3.1-1.3,3.1h-0.7c-0.3,0-0.7-0.1-0.9-0.3c-0.2-0.3-0.3-0.5-0.3-1.7v-5.4h-1.3c0,0.9-0.1,1.8-0.3,2.6
		c0.6,0.4,1.2,0.9,1.5,1.2l-0.7,1.3c-0.3-0.3-0.7-0.7-1.2-1.1c-0.4,1.5-1.1,2.7-2.3,3.6c-0.2-0.3-0.5-0.7-0.8-0.9
		c-2.3,0.3-4.6,0.5-6.1,0.7c0,0.1-0.1,0.2-0.2,0.2l-0.5-1.5l3.1-0.2V437h-2.4v-1.1h2.4v-1.1l1.4,0.1c-0.2-0.2-0.3-0.5-0.3-1V433h-1
		c-0.2,1.2-0.7,2-2.7,2.5c-0.1-0.3-0.4-0.7-0.6-0.9c1.4-0.3,1.9-0.8,2.1-1.6h-1.8v-1.1h2.9v-1H59v-1.1h2.3v-1.1l1.7,0.1
		c0,0.1-0.1,0.2-0.4,0.2v0.7h2.3v1.1h-2.3v1h2.8v1.1h-1.9v0.7c0,0.3,0,0.3,0.2,0.3h0.6c0.2,0,0.3,0,0.3-0.6c0.2,0.2,0.6,0.3,0.9,0.4
		c-0.1,0.9-0.4,1.2-1.1,1.2h-0.9c-0.3,0-0.5,0-0.7-0.1c0,0.1-0.1,0.1-0.3,0.1v0.8h2.5v1.1h-2.5v1.2c0.9-0.1,1.8-0.2,2.8-0.3l0,0.7
		c0.8-0.8,1.3-1.9,1.6-3.1c-0.5-0.4-1-0.7-1.4-1l0.6-1.1c0.3,0.2,0.7,0.4,1,0.6c0.1-0.6,0.1-1.2,0.2-1.8h-1.6v-1.4h1.6
		c0-0.7,0-1.4,0-2.2l1.7,0.1c0,0.2-0.1,0.3-0.4,0.3c0,0.6,0,1.2,0,1.8h2.6V437.7z M61.5,440.7c-0.4,1.1-1.2,2.3-2,3
		c-0.4-0.2-0.8-0.3-1.4-0.6c0.8-0.6,1.5-1.8,1.9-2.8L61.5,440.7z M63.1,443.6c0-0.7-0.1-1.9-0.3-2.8l1.4-0.1
		c0.2,0.9,0.4,2.1,0.4,2.8L63.1,443.6z M67,443.5c-0.1-0.7-0.5-1.9-0.8-2.8l1.4-0.2c0.4,0.9,0.8,2,0.9,2.8L67,443.5z M71.4,443.7
		c-0.4-0.8-1.2-2.1-1.9-3l1.4-0.5c0.7,0.9,1.6,2.1,2,3L71.4,443.7z"/>
	<path d="M58.8,474.8c1,0.4,2.1,1.1,2.7,1.6l-0.9,1.2c-0.5-0.5-1.7-1.3-2.7-1.7L58.8,474.8z M58.3,484.2c0.7-1.3,1.7-3.4,2.4-5.2
		l1.2,0.8c-0.7,1.7-1.5,3.6-2.2,4.8c0.1,0.1,0.1,0.2,0.1,0.3s0,0.1,0,0.2L58.3,484.2z M59.6,470.4c0.9,0.4,2.1,1.1,2.7,1.7
		c-0.4,0.5-0.7,0.9-0.9,1.2c-0.6-0.6-1.7-1.3-2.7-1.8L59.6,470.4z M73,479.6h-1.4c0,0.8-0.1,1.5-0.1,2.1h1.4v1.3h-1.6
		c-0.3,2.1-0.9,2.3-2.5,2.3c-0.4,0-0.8,0-1.2,0c0-0.4-0.2-0.9-0.4-1.3c0.8,0.1,1.5,0.1,1.9,0.1c0.5,0,0.7-0.5,0.8-1.1h-5.3
		c0,0.3-0.1,0.5-0.1,0.8l-1.4-0.1c0.2-1.1,0.4-2.6,0.6-4.1H62v-1.4h1.8c0.1-1.1,0.2-2.2,0.3-3.2c-0.4,0.6-0.7,1.1-1.1,1.6
		c-0.3-0.3-0.8-0.7-1.1-0.9c1.1-1.2,2.1-3.3,2.6-5.3l1.8,0.5c-0.1,0.2-0.2,0.2-0.4,0.2c-0.1,0.4-0.3,0.9-0.4,1.3h7.5v1.4h-8.1
		c-0.2,0.4-0.4,0.9-0.7,1.3H71l0.8,0.1c0,0.1,0,0.3,0,0.4l-0.1,2.8H73V479.6z M66.7,481.7c0.1-0.6,0.1-1.4,0.2-2.1H65
		c-0.1,0.7-0.2,1.4-0.3,2.1H66.7z M67,478.2c0-0.7,0.1-1.3,0.1-2h-1.8c0,0.6-0.1,1.3-0.2,2H67z M68.2,479.6
		c-0.1,0.8-0.1,1.5-0.2,2.1h2.1c0-0.6,0.1-1.3,0.1-2.1H68.2z M68.3,478.2h2c0-0.6,0-1.3,0.1-2h-1.9L68.3,478.2z"/>
</g>
<rect x="308" y="514" class="st7" width="44" height="72"/>
<rect x="352" y="514" class="st7" width="44" height="72"/>
<g>
	<rect x="321.9" y="428.2" class="st3" width="16.2" height="57.6"/>
	<path d="M323.4,433.3c1,0.4,2.2,1.1,2.8,1.6l-0.9,1.2c-0.6-0.5-1.8-1.3-2.8-1.7L323.4,433.3z M322.9,442.6c0.8-1.2,2-3.2,3-4.9
		l1.1,1c-0.8,1.6-1.8,3.4-2.6,4.6c0.1,0.1,0.1,0.2,0.1,0.3c0,0.1,0,0.2-0.1,0.2L322.9,442.6z M326.1,431.9c-0.6-0.5-1.8-1.3-2.7-1.8
		l0.8-1.1c1,0.4,2.2,1.1,2.8,1.6L326.1,431.9z M337.8,429.7v1.5h-1.2v10.6c0,1.9-0.9,2-4.1,2c-0.1-0.4-0.3-1.2-0.5-1.6
		c0.6,0,1.3,0,1.8,0c1.2,0,1.3,0,1.3-0.4v-10.6h-8v-1.5H337.8z M333.1,439.3h-3.8v1.1H328v-7h5.2V439.3z M331.7,434.7h-2.4v3.2h2.4
		V434.7z"/>
	<path d="M323.4,474.8c1,0.4,2.3,1.1,2.9,1.6l-0.9,1.3c-0.6-0.6-1.9-1.3-2.9-1.7L323.4,474.8z M323,484.1c0.8-1.2,1.9-3.3,2.8-5.2
		l1.2,0.9c-0.8,1.7-1.7,3.6-2.5,4.8c0.1,0.1,0.1,0.2,0.1,0.3c0,0.1,0,0.1-0.1,0.2L323,484.1z M324.3,470.4c1,0.4,2.2,1.1,2.9,1.7
		c-0.4,0.5-0.6,0.9-0.9,1.2c-0.6-0.6-1.8-1.4-2.8-1.8L324.3,470.4z M337.6,481.5v1.3h-5v2.4h-1.5v-2.4h-4.5v-1.3h4.5v-1.1h-3.7v-1.3
		h3.7v-1.1h-3.3v-1.2h3.3v-1.2h-4.2v-1.3h4.2v-1.2H328V472h3.2v-1.6l1.8,0.1c0,0.1-0.1,0.2-0.4,0.3v1.3h3.7v2.4h1.3v1.3h-1.3v2.4
		h-3.7v1.1h4.1v1.3h-4.1v1.1H337.6z M332.6,473.2v1.2h2.2v-1.2H332.6z M332.6,475.6v1.2h2.2v-1.2H332.6z"/>
</g>
<rect x="44" y="292" class="st7" width="44" height="72"/>
<rect x="88" y="292" class="st7" width="44" height="72"/>
<rect x="132" y="292" class="st7" width="44" height="72"/>
<rect x="176" y="292" class="st7" width="44" height="72"/>
<rect x="220" y="292" class="st7" width="44" height="72"/>
<rect x="264" y="292" class="st7" width="44" height="72"/>
<rect x="308" y="292" class="st7" width="44" height="72"/>
<rect x="352" y="292" class="st7" width="44" height="72"/>
<rect x="44" y="607" class="st7" width="44" height="72"/>
<rect x="88" y="607" class="st7" width="44" height="72"/>
<rect x="132" y="607" class="st7" width="44" height="72"/>
<rect x="176" y="607" class="st7" width="44" height="72"/>
<rect x="220" y="607" class="st7" width="44" height="72"/>
<rect x="264" y="607" class="st7" width="44" height="72"/>
<rect x="308" y="607" class="st7" width="44" height="72"/>
<rect x="352" y="607" class="st7" width="44" height="72"/>
<rect x="44" y="700" class="st7" width="44" height="72"/>
<rect x="88" y="700" class="st7" width="44" height="72"/>
<rect x="132" y="700" class="st7" width="44" height="72"/>
<rect x="176" y="700" class="st7" width="44" height="72"/>
<rect x="220" y="700" class="st7" width="44" height="72"/>
<rect x="264" y="700" class="st7" width="44" height="72"/>
<rect x="308" y="700" class="st7" width="44" height="72"/>
<rect x="352" y="700" class="st7" width="44" height="72"/>
<rect x="44" y="793" class="st7" width="44" height="72"/>
<rect x="88" y="793" class="st7" width="44" height="72"/>
<rect x="132" y="793" class="st7" width="44" height="72"/>
<rect x="176" y="793" class="st7" width="44" height="72"/>
<rect x="220" y="793" class="st7" width="44" height="72"/>
<rect x="264" y="793" class="st7" width="44" height="72"/>
<rect x="308" y="793" class="st7" width="44" height="72"/>
<rect x="352" y="793" class="st7" width="44" height="72"/>
<rect x="155" y="909" width="131" height="45"/>
<g>
	<rect x="101.9" y="614.7" class="st3" width="16.2" height="57.6"/>
	<path class="st6" d="M103.5,616.1h13.4V630h-1.6V629H105v1.1h-1.5V616.1z M105,627.5h10.3v-9.9H105V627.5z M107,619.8h6.1v5.5H107
		V619.8z M111.7,624v-3h-3.3v3H111.7z"/>
	<path class="st6" d="M106.4,663.1v5.2c1.1,1.8,3.3,1.8,5.8,1.8c1.8,0,4.1-0.1,5.5-0.2c-0.2,0.4-0.4,1.1-0.5,1.6
		c-1.1,0-2.7,0.1-4.2,0.1c-3.6,0-5.7,0-7.3-1.9c-0.8,0.7-1.5,1.3-2.2,1.8c0,0.2,0,0.2-0.2,0.3l-0.8-1.7c0.7-0.5,1.6-1.1,2.4-1.7
		v-3.8h-2.1v-1.4H106.4z M104,657.1c1,0.7,2.2,1.7,2.8,2.5l-1.2,1c-0.5-0.8-1.7-1.9-2.7-2.6L104,657.1z M117.4,664.5h-4.1
		c0.7,1.8,2,3,4.1,3.6c-0.3,0.3-0.8,0.9-1,1.3c-2-0.7-3.3-1.9-4.1-3.8c-0.6,1.3-1.8,2.7-4.1,3.7c-0.2-0.3-0.7-0.8-1-1.1
		c2.6-1,3.6-2.4,3.9-3.7h-4v-1.4h4.2v-2h-3.6v-1.4h1.9c-0.2-0.7-0.8-1.7-1.3-2.4l1.3-0.5c0.6,0.8,1.2,1.8,1.5,2.5l-0.9,0.4h3.7
		l-0.7-0.3c0.5-0.7,1.2-1.9,1.6-2.7l1.8,0.7c-0.1,0.1-0.2,0.2-0.4,0.2c-0.4,0.6-1,1.5-1.5,2.2h2.4v1.4h-4v2h4.5V664.5z"/>
</g>
<g>
	<rect x="145.9" y="614.2" class="st3" width="16.2" height="57.6"/>
	<path class="st6" d="M156.5,615.1c-0.1,0.2-0.2,0.2-0.4,0.2c-0.1,0.4-0.2,0.7-0.4,1.1h5.8v1.4h-6.4c-0.2,0.4-0.3,0.7-0.5,1.1h5.5
		v4.1h-5.6v-3.8c-0.3,0.4-0.5,0.8-0.8,1.2c-0.2-0.2-0.6-0.6-0.9-0.9v5H151v2.3h2.1v1.4h-4.7v0.9h-1.3v-13.4h6v1.4H151v2.1h1.8
		c0.8-1.1,1.5-2.8,1.9-4.4L156.5,615.1z M149.7,617h-1.2v2.1h1.2V617z M151.5,623v-2.6h-3v2.6H151.5z M149.7,626.7v-2.3h-1.2v2.3
		H149.7z M153.5,629.7v-5.8h3.4v5.6h-1.1v-0.7h-1.2v0.9H153.5z M155.8,625.1h-1.2v2.4h1.2V625.1z M155.8,620v1.6h3V620H155.8z
		 M157.7,629.6v-5.7h3.6v5.6h-1.2v-0.7h-1.3v0.8H157.7z M160.1,625.1h-1.3v2.4h1.3V625.1z"/>
	<path class="st6" d="M152,657.3v10.8h-3.4v1.4h-1.4v-12.2H152z M150.6,658.6h-2v3.3h2V658.6z M148.6,666.7h2v-3.4h-2V666.7z
		 M157.7,661.3h3.9v1.4h-9.3v-1.4h3.9v-1.8h-3.3v-1.3h3.3v-1.9l1.9,0.1c0,0.1-0.1,0.2-0.4,0.3v1.5h3.4v1.3h-3.4V661.3z M160.2,662.9
		c0,0.1-0.1,0.2-0.4,0.3v1.1h1.8v1.3h-1.8v4c0,1.5-0.6,1.7-3.4,1.7c-0.1-0.4-0.3-1-0.5-1.4c0.5,0,0.9,0,1.3,0c1.1,0,1.1,0,1.1-0.3
		v-4h-6v-1.3h6v-1.5L160.2,662.9z M155.1,669.6c-0.3-0.8-1.2-2-2-2.8l1.2-0.7c0.8,0.8,1.7,1.9,2.1,2.7L155.1,669.6z"/>
</g>
<g>
	<rect x="57.9" y="614.7" class="st3" width="16.2" height="57.6"/>
	<path class="st6" d="M58.6,619.1v-1.2h5.8v1.2H58.6z M64,624.5v4.8h-3.4v0.7h-1.3v-5.5H64z M64,620.1v1.2h-4.6v-1.2H64z
		 M59.3,623.4v-1.2H64v1.2H59.3z M63.9,615.7v1.2h-4.5v-1.2H63.9z M62.7,625.7h-2.1v2.4h2.1V625.7z M67.8,627.1l1.8-0.3l0.1,1.3
		c-1.6,0.4-3.3,0.8-4.4,1c0,0.1-0.1,0.2-0.2,0.2l-0.6-1.5c0.6-0.1,1.2-0.2,2-0.4v-4.3h-1.5v-1.3h4.4v1.3h-1.5V627.1z M73.5,619.7
		h-2.4c0.1,4.6,0.4,8.6,1.4,8.8h0c0.2,0,0.4-1,0.5-2.2c0.2,0.3,0.7,0.7,0.9,0.8c-0.2,2-0.8,3-1.6,3c-2.1,0-2.5-4.6-2.7-10.4h-4.9
		v-1.4h4.9c0-1.1,0-2.1,0-3.2l1.9,0.1c0,0.1-0.1,0.2-0.4,0.3v2.8h2.4V619.7z M72.1,615.3c0.6,0.6,1.3,1.4,1.6,2l-1.1,0.6
		c-0.3-0.6-0.9-1.5-1.5-2.1L72.1,615.3z"/>
	<path class="st6" d="M62.2,642.3v5.2c1.1,1.8,3.2,1.8,6.1,1.8c1.8,0,4,0,5.5-0.2c-0.2,0.4-0.4,1.1-0.5,1.5c-1.2,0-3,0.1-4.7,0.1
		c-3.5,0-5.5,0-7-1.9c-0.7,0.7-1.4,1.3-2,1.8c0,0.2,0,0.2-0.2,0.3l-0.8-1.6c0.6-0.4,1.4-1.1,2.1-1.7v-3.9h-2v-1.4H62.2z M60,636.4
		c1,0.7,2.1,1.8,2.6,2.6l-1.2,0.9c-0.5-0.8-1.6-1.9-2.5-2.7L60,636.4z M67.2,648.9v-1.4h-4.4v-1.1h4.4v-0.8h-3.3v-4.7h3.3V640h-3.8
		v-1.1h3.8v-1.1l1.8,0.1c0,0.1-0.1,0.2-0.4,0.3v0.7h3.9v1.1h-3.9v0.8h3.4v4.7h-3.4v0.8h4.6v1.1h-4.6v1.4H67.2z M64.4,637.5v1h-1.3
		v-2.2h10v2.2h-1.4v-1H64.4z M65.2,641.8v0.9h2v-0.9H65.2z M65.2,644.5h2v-0.9h-2V644.5z M70.8,641.8h-2v0.9h2V641.8z M70.8,644.5
		v-0.9h-2v0.9H70.8z"/>
	<path class="st6" d="M66,669h-2.9v2.7h-1.4V669h-3v-1.3h3v-1.1h-2.4v-5.7h2.4v-1.1h-2.8v-1.3h2.8v-1.6l1.8,0.1
		c0,0.1-0.1,0.2-0.4,0.3v1.3h2.7v1.3h-2.7v1.1h2.5v5.7h-2.5v1.1H66V669z M60.4,661.9v1.2h1.4v-1.2H60.4z M60.4,664.2v1.2h1.4v-1.2
		H60.4z M64.4,663.2v-1.2h-1.4v1.2H64.4z M64.4,665.5v-1.2h-1.4v1.2H64.4z M71.7,666.1c0.9,1.6,1.7,3.7,2.1,5.1l-1.4,0.6
		c-0.1-0.3-0.2-0.7-0.3-1.1c-2.1,0.2-4.3,0.5-5.7,0.6c0,0.1-0.1,0.2-0.3,0.2l-0.5-1.7c0.4,0,0.8,0,1.3-0.1c0.4-1.5,0.9-3.7,1.2-5.5
		h-2.2v-1.4h7.7v1.4h-4c-0.3,1.6-0.8,3.8-1.3,5.4c1-0.1,2.2-0.2,3.3-0.3c-0.4-0.9-0.8-1.9-1.2-2.7L71.7,666.1z M73,657.8v1.4h-6.3
		v-1.4H73z"/>
</g>
<g>
	<rect x="101.4" y="299.2" class="st3" width="16.2" height="57.6"/>
	<path class="st0" d="M104.1,303.1c0,1.5-0.3,3.2-0.8,4.3l-1.2-0.6c0.5-0.9,0.8-2.5,0.8-3.9L104.1,303.1z M106.9,302.2
		c0.5,0.8,1.2,1.8,1.5,2.5l-1.1,0.7c-0.2-0.6-0.8-1.6-1.3-2.4v11.7h-1.5v-15l1.8,0.1c0,0.1-0.1,0.2-0.4,0.3v2.7L106.9,302.2z
		 M117.2,308.5h-4.3c0.8,2.2,2.3,4,4.5,4.8c-0.4,0.3-0.9,1-1.1,1.4c-2.1-1-3.6-2.8-4.5-5.2c-0.6,1.9-1.8,3.7-4.1,5.2
		c-0.2-0.3-0.7-0.9-1.1-1.1c2.4-1.4,3.5-3.2,3.9-5.1h-3.3V307h3.6c0.1-0.7,0.1-1.4,0.1-2.1v-1.3h-2.7v-1.4h2.7v-2.5l1.9,0.1
		c0,0.1-0.1,0.2-0.4,0.3v2.2h3.5v4.8h1.3V308.5z M112.4,303.7v1.3c0,0.7,0,1.4-0.1,2.1h2.1v-3.4H112.4z"/>
	<path class="st0" d="M105.9,347.6v5.2c1.1,1.8,3.3,1.8,5.8,1.8c1.8,0,4.1-0.1,5.5-0.2c-0.2,0.4-0.4,1.1-0.5,1.6
		c-1.1,0-2.7,0.1-4.2,0.1c-3.6,0-5.7,0-7.3-1.9c-0.8,0.7-1.5,1.3-2.2,1.8c0,0.2,0,0.2-0.2,0.3l-0.8-1.7c0.7-0.5,1.6-1.1,2.4-1.7
		v-3.8h-2.1v-1.4H105.9z M103.5,341.7c1,0.7,2.2,1.7,2.8,2.5l-1.2,1c-0.5-0.8-1.7-1.9-2.7-2.6L103.5,341.7z M110.9,354.1v-3.5
		c-1,1.3-2.3,2.4-3.5,3.1c-0.2-0.4-0.7-0.9-1-1.2c1.4-0.6,2.9-1.7,3.8-2.9h-2.7v-4.1h3.4v-1.1h-4.2V343h4.2v-1.7l1.8,0.1
		c0,0.1-0.1,0.2-0.4,0.3v1.3h4.6v1.3h-4.6v1.1h3.6v4.1H113c1,1.2,2.6,2.3,4,2.9c-0.3,0.3-0.8,0.8-1,1.2c-1.2-0.7-2.6-1.8-3.6-3.1
		v3.6H110.9z M108.8,346.6v1.8h2v-1.8H108.8z M114.5,346.6h-2.1v1.8h2.1V346.6z"/>
</g>
<g>
	<rect x="155" y="910.5" class="st3" width="131" height="37"/>
	<path class="st4" d="M163.5,947.5l0.5-2c3.4,0,3.8-0.5,4.6-3.6l4.7-20.3c0.2-0.9,0.3-1.6,0.3-2.1c0-1.3-0.8-1.6-3.5-1.6l0.5-2.1
		h15.2l-0.5,2.1c-3.2,0-3.6,0.5-4.3,3.7l-2.2,9.3h0.2l12-10.6c0.6-0.5,1.1-1.1,1.1-1.5c0-0.5-0.6-0.8-2.1-0.8l0.5-2.1h11.8l-0.5,2.1
		c-2.2,0-4.6,0.6-7.4,2.9l-8.8,7.5l7.6,14.5c1.2,2.2,1.8,2.6,4.1,2.6l-0.5,2h-10l-6.9-14.5l-2,1.7l-1.6,7.2
		c-0.2,0.9-0.3,1.5-0.3,2.1c0,1.3,0.8,1.6,3.4,1.6l-0.5,2H163.5z"/>
	<path class="st4" d="M217.5,936.5c0,5.4-3.2,11.4-11.3,11.4c-4.6,0-7.4-2.7-7.4-7.3c0-4.7,3.1-11.4,11.1-11.4
		C214.8,929.2,217.5,932.3,217.5,936.5z M203.5,941.8c0,2.8,0.8,5,3.2,5c3.9,0,6-6.2,6-11.7c0-1.8-0.4-4.6-3.1-4.6
		C205.8,930.4,203.5,936.7,203.5,941.8z"/>
	<path class="st4" d="M216,947.6l0.3-1.2c2,0,2.3-0.3,2.7-2.1l2.7-11.6c0.1-0.5,0.2-0.9,0.2-1.2c0-0.8-0.5-0.9-2.1-0.9l0.3-1.2h9.1
		l-0.3,1.2c-2,0-2.3,0.3-2.7,2.1l-2.7,11.6c-0.1,0.4-0.2,0.8-0.2,1.1c0,0.8,0.6,1,2.2,1l-0.2,1.2H216z"/>
	<path class="st4" d="M230.8,947.5l0.5-2c4,0,4.5-0.5,5.3-3.6l5.7-23.6h-3.3c-2.8,0-3.5,0.5-6.4,5.9h-2.8l2.8-8.3h28.3l-1.5,8.3h-3
		c0.1-0.9,0.1-1.7,0.1-2.3c0-3.4-1.1-3.6-3.8-3.6h-3l-5.3,23.6c-0.2,0.8-0.3,1.5-0.3,2c0,1.3,0.9,1.6,4,1.6l-0.5,2H230.8z"/>
	<path class="st4" d="M275.5,936.5c0,5.4-3.2,11.4-11.3,11.4c-4.6,0-7.4-2.7-7.4-7.3c0-4.7,3.1-11.4,11.1-11.4
		C272.8,929.2,275.5,932.3,275.5,936.5z M261.5,941.8c0,2.8,0.8,5,3.2,5c3.9,0,6-6.2,6-11.7c0-1.8-0.4-4.6-3.1-4.6
		C263.8,930.4,261.5,936.7,261.5,941.8z"/>
</g>
<g>
	<rect x="365.9" y="179.2" class="st3" width="16.2" height="57.6"/>
	<path d="M367.4,184.3c1,0.4,2.2,1.1,2.8,1.6l-0.9,1.2c-0.6-0.5-1.8-1.3-2.8-1.7L367.4,184.3z M366.9,193.6c0.8-1.2,2-3.2,3-4.9
		l1.1,1c-0.8,1.6-1.8,3.4-2.6,4.6c0.1,0.1,0.1,0.2,0.1,0.3c0,0.1,0,0.2-0.1,0.2L366.9,193.6z M370.1,182.9c-0.6-0.5-1.8-1.3-2.7-1.8
		l0.8-1.1c1,0.4,2.2,1.1,2.8,1.6L370.1,182.9z M381.8,180.7v1.5h-1.2v10.6c0,1.9-0.9,2-4.1,2c-0.1-0.4-0.3-1.2-0.5-1.6
		c0.6,0,1.3,0,1.8,0c1.2,0,1.3,0,1.3-0.4v-10.6h-8v-1.5H381.8z M377.1,190.3h-3.8v1.1H372v-7h5.2V190.3z M375.7,185.7h-2.4v3.2h2.4
		V185.7z"/>
	<path d="M367.4,225.8c1,0.4,2.3,1.1,2.9,1.6l-0.9,1.3c-0.6-0.6-1.9-1.3-2.9-1.7L367.4,225.8z M367,235.1c0.8-1.2,1.9-3.3,2.8-5.2
		l1.2,0.9c-0.8,1.7-1.7,3.6-2.5,4.8c0.1,0.1,0.1,0.2,0.1,0.3c0,0.1,0,0.1-0.1,0.2L367,235.1z M368.3,221.4c1,0.4,2.2,1.1,2.9,1.7
		c-0.4,0.5-0.6,0.9-0.9,1.2c-0.6-0.6-1.8-1.4-2.8-1.8L368.3,221.4z M381.6,232.5v1.3h-5v2.4h-1.5v-2.4h-4.5v-1.3h4.5v-1.1h-3.7v-1.3
		h3.7v-1.1h-3.3v-1.2h3.3v-1.2h-4.2v-1.3h4.2v-1.2H372V223h3.2v-1.6l1.8,0.1c0,0.1-0.1,0.2-0.4,0.3v1.3h3.7v2.4h1.3v1.3h-1.3v2.4
		h-3.7v1.1h4.1v1.3h-4.1v1.1H381.6z M376.6,224.2v1.2h2.2v-1.2H376.6z M376.6,226.6v1.2h2.2v-1.2H376.6z"/>
</g>
<g>
	<rect x="365.9" y="613.7" class="st3" width="16.2" height="57.6"/>
	<path d="M375.2,614.7c0,0.1-0.2,0.2-0.4,0.2c-0.2,0.6-0.6,1.4-0.9,2.1h6.4v12.2h-1.6v-1h-9v1h-1.5v-12.3h4c0.4-0.8,0.7-1.9,0.9-2.8
		L375.2,614.7z M378.6,618.4h-9v3.3h9V618.4z M369.6,626.7h9v-3.4h-9V626.7z"/>
	<path d="M381.4,665.5h-3.3c1,0.8,2.3,1.4,3.6,1.7c-0.3,0.3-0.7,0.8-0.9,1.1c-0.6-0.2-1.2-0.5-1.8-0.8v1.6c0,1.2-0.6,1.3-2.6,1.3
		c-0.1-0.4-0.2-0.8-0.4-1.2c0.3,0,0.7,0,0.9,0c0.5,0,0.6,0,0.6-0.2v-1.4h-2.8v3.2h-1.5v-3.2h-2.4v2.8h-1.5v-3
		c-0.6,0.4-1.3,0.7-2.1,1c-0.2-0.3-0.6-0.9-0.9-1.1c1.4-0.5,2.5-1.2,3.4-1.9h-3v-1.2h4.2c0.2-0.3,0.4-0.5,0.5-0.8H369V659h10.5v4.5
		h-6.1c0,0.1-0.2,0.2-0.4,0.2c-0.1,0.2-0.2,0.4-0.4,0.6h8.7V665.5z M370.7,658.9v-0.7h-3.7v-1.2h3.7v-1.1l1.9,0.1
		c0,0.1-0.1,0.2-0.4,0.3v0.7h3.8v-1.1l1.9,0.1c0,0.1-0.1,0.2-0.4,0.3v0.7h3.9v1.2h-3.9v0.7H376v-0.7h-3.8v0.7H370.7z M370.4,659.9
		v0.9h7.6v-0.9H370.4z M370.4,661.7v0.9h7.6v-0.9H370.4z M371.8,665.5c-0.3,0.4-0.7,0.7-1.1,1h2.6v-1H371.8z M374.8,666.5h2.8
		c-0.4-0.3-0.7-0.7-1-1h-1.4c0,0.1-0.1,0.2-0.4,0.3V666.5z"/>
</g>
<g>
	<path class="st5" d="M396,288v-6.5c0-2.8-2.3-4.5-5-4.5H49.5c-2.8,0-5.5,1.8-5.5,4.5v6.5"/>
</g>
<rect x="198" y="267" class="st2" width="44" height="20"/>
<g>
	<rect x="191.6" y="269.3" class="st3" width="56.8" height="14.3"/>
	<path d="M202.7,275.7c0.4,0.4,1.6,1.7,1.9,2l-0.6,0.7c-0.2-0.4-0.8-1.2-1.3-1.8v6.2h-0.9v-6.3c-0.5,1.5-1.2,2.9-1.8,3.8
		c-0.1-0.3-0.3-0.6-0.5-0.8c0.8-1.1,1.7-3,2.2-4.6h-2v-0.9h2.2v-2.4c-0.6,0.2-1.3,0.4-1.9,0.5c0-0.2-0.2-0.5-0.3-0.7
		c1.5-0.4,3.3-0.9,4.2-1.5l0.8,0.7c-0.1,0.1-0.1,0.1-0.3,0.1c-0.4,0.2-1,0.5-1.6,0.7v2.7h1.8v0.9h-1.8V275.7z M208.7,281.7h3.8v0.8
		H204v-0.8h3.9v-1.2h-3.1v-0.8h3.1v-1H205v-4.5h2.8v-1h-3.5v-0.8h3.5v-1.2c-1,0.1-2,0.2-3,0.3c0-0.2-0.1-0.5-0.2-0.7
		c2.3-0.2,5.1-0.6,6.5-1l0.8,0.7c0,0-0.1,0.1-0.2,0.1c0,0-0.1,0-0.1,0c-0.8,0.2-1.8,0.4-2.9,0.6v1.3h3.6v0.8h-3.6v1h3v4.5h-3v1h3.2
		v0.8h-3.2V281.7z M205.8,275v1.2h2V275H205.8z M205.8,278h2v-1.2h-2V278z M210.8,275h-2.1v1.2h2.1V275z M210.8,278v-1.2h-2.1v1.2
		H210.8z"/>
	<path d="M233.2,276.8l0.2,0l0.5,0.1c0,0.1,0,0.2,0,0.3c-0.2,3.6-0.3,4.9-0.7,5.3c-0.3,0.4-0.5,0.4-1.6,0.4c-0.3,0-0.7,0-1.1,0
		c0-0.3-0.1-0.6-0.3-0.8c0.7,0.1,1.4,0.1,1.7,0.1c0.3,0,0.4,0,0.5-0.2c0.3-0.3,0.4-1.4,0.5-4.3h-2.5c-0.3,1.9-1,3.9-2.4,5.2
		c-0.1-0.2-0.4-0.5-0.7-0.6c1.8-1.6,2.3-4.7,2.4-7.1h-1.6v-4.6h5.6v4.6h-3c-0.1,0.5-0.1,1.1-0.2,1.7H233.2z M229.2,271.3v2.9h3.8
		v-2.9H229.2z M235.4,271.5l1.2,0.1c0,0.1-0.1,0.2-0.3,0.2v7.6h-0.9V271.5z M238.9,270.1l1.2,0.1c0,0.1-0.1,0.2-0.3,0.2v11.2
		c0,0.7-0.2,1-0.6,1.1c-0.4,0.2-1.2,0.2-2.5,0.2c-0.1-0.3-0.2-0.7-0.4-1c0.5,0,1,0,1.4,0c1.1,0,1.2,0,1.2-0.4V270.1z"/>
</g>
<g>
	<path class="st5" d="M396,416v-6.5c0-2.8-2.3-4.5-5-4.5H49.5c-2.8,0-5.5,1.8-5.5,4.5v6.5"/>
</g>
<rect x="198" y="395" class="st2" width="44" height="20"/>
<g>
	<rect x="191.6" y="397.3" class="st3" width="56.8" height="14.3"/>
	<path d="M203.8,398.3c0,0.1-0.1,0.1-0.3,0.1c-0.8,1-2.3,2.4-3.5,3.2c-0.1-0.2-0.4-0.6-0.5-0.8c1.2-0.8,2.6-2,3.3-3L203.8,398.3z
		 M201.7,410.8v-6.2c-0.5,0.6-1.1,1.1-1.6,1.6c-0.1-0.2-0.4-0.6-0.6-0.7c1.3-1.1,2.9-2.9,3.8-4.7l1.1,0.4c0,0.1-0.2,0.1-0.3,0.1
		c-0.4,0.7-0.9,1.4-1.4,2.1l0.3,0.1c0,0.1-0.1,0.2-0.3,0.2v7.1H201.7z M212.5,402.8v0.9h-2.2v5.9c0,1.2-0.4,1.2-3.3,1.2
		c0-0.3-0.2-0.6-0.3-0.9c0.6,0,1.2,0,1.6,0c0.9,0,1,0,1-0.3v-5.9h-4.9v-0.9H212.5z M212,398.7v0.9h-7v-0.9H212z"/>
	<path d="M232.8,405.2c0,0.1-0.1,0.2-0.3,0.2c-0.4,2.5-1.1,4.4-4.3,5.4c-0.1-0.2-0.4-0.6-0.6-0.8c3.1-0.9,3.7-2.6,4-5L232.8,405.2z
		 M236.3,409.2c0,0.4,0.1,0.5,0.7,0.5h1.9c0.5,0,0.6-0.3,0.7-2.2c0.2,0.2,0.6,0.3,0.9,0.4c-0.1,2.1-0.4,2.7-1.5,2.7h-2.1
		c-1.2,0-1.5-0.3-1.5-1.4v-4.3h-7.6V404h5.7v-3h-3c-0.4,0.8-0.8,1.6-1.3,2.2c-0.2-0.1-0.6-0.4-0.8-0.4c1-1.2,1.7-3.1,2.1-4.6
		l1.2,0.3c0,0.1-0.1,0.1-0.3,0.1c-0.1,0.4-0.3,1-0.5,1.5h2.7v-2.3l1.2,0.1c0,0.1-0.1,0.2-0.3,0.2v2h4.7v0.9h-4.7v3h5.8v0.9h-3.9
		V409.2z"/>
</g>
<g>
	<path class="st5" d="M396,74v-6.5c0-2.8-2.3-4.5-5-4.5H137c-2.8,0-5,1.8-5,4.5V74"/>
</g>
<rect x="228" y="53" class="st2" width="72" height="20"/>
<g>
	<rect x="222" y="55.8" class="st3" width="84" height="14.3"/>
	<path d="M234.4,59.2l0.5,0.1l-0.1,0.2c-0.2,2.5-0.6,4.5-1.3,6c0.7,0.5,1.3,1.1,1.7,1.5l-0.6,0.8c-0.4-0.4-0.9-1-1.5-1.5
		c-0.7,1.3-1.7,2.3-2.8,2.9c-0.1-0.2-0.4-0.6-0.6-0.8c1.1-0.6,1.9-1.5,2.6-2.7c-0.5-0.4-1.1-0.8-1.6-1.1l-0.2,0.6l-0.8-0.4
		c0.4-1.2,0.8-3,1.2-4.8h-1.4v-0.9h1.6c0.2-1.1,0.4-2.1,0.6-3l1.1,0.1c0,0.1-0.1,0.2-0.3,0.2c-0.2,0.8-0.4,1.7-0.6,2.6h2.2
		L234.4,59.2z M231.8,60.2c-0.3,1.3-0.6,2.6-0.9,3.8c0.6,0.3,1.2,0.7,1.8,1.1c0.6-1.3,1-2.9,1.2-4.9H231.8z M240.4,58.6
		c0.9,1.1,1.9,2.7,2.2,3.7l-0.8,0.4c-0.1-0.3-0.2-0.6-0.4-1c-2.2,0.2-4.5,0.3-6,0.4c0,0.1-0.1,0.2-0.2,0.2l-0.4-1.1l1.1,0
		c0.6-1.4,1.2-3.5,1.6-5l1.2,0.3c0,0.1-0.2,0.2-0.3,0.2c-0.4,1.3-1,3.1-1.6,4.5l4.1-0.2c-0.4-0.7-0.9-1.4-1.4-2L240.4,58.6z
		 M235.9,69.3v-5.7h5.9v5.7h-0.9v-0.6h-4.1v0.7H235.9z M240.9,64.5h-4.1v3.3h4.1V64.5z"/>
	<path d="M268.7,57.1c0,0.1-0.2,0.1-0.3,0.1c-0.5,0.5-1.3,1.2-2,1.7c0.3,0.4,0.6,0.8,1,1.2c0.7-0.5,1.6-1.3,2.1-1.9l0.9,0.6
		c-0.1,0.1-0.2,0.1-0.3,0.1c-0.5,0.5-1.4,1.2-2.1,1.7c0.8,0.7,1.8,1.3,2.7,1.7c-0.2,0.2-0.5,0.5-0.6,0.8c-0.7-0.3-1.4-0.7-2.1-1.2
		v0.5h-1.8v2.2h3.4v0.9h-3.4v2.4c0,0.4,0.1,0.5,0.6,0.5h1.7c0.5,0,0.5-0.3,0.6-1.8c0.2,0.2,0.6,0.3,0.9,0.4
		c-0.1,1.8-0.3,2.3-1.4,2.3h-1.9c-1.1,0-1.4-0.3-1.4-1.4v-2.4h-2.7c-0.2,1.6-1.1,3-3.9,4c-0.1-0.2-0.4-0.6-0.6-0.7
		c2.5-0.8,3.3-2,3.5-3.2h-3.3v-0.9h3.3v-2.2h-1.6v-0.4c-0.7,0.5-1.4,1-2.1,1.3c-0.1-0.2-0.4-0.5-0.6-0.7c1-0.4,2-1.1,2.9-1.9
		c-0.4-0.5-1.2-1.1-1.8-1.6l0.6-0.5c0.6,0.4,1.3,1,1.8,1.5c0.6-0.6,1.1-1.3,1.4-2.1h-3.7v-0.8h4.2l0.2-0.1c0.4,0.2,0.5,0.3,0.7,0.3
		c0,0.1-0.1,0.1-0.2,0.2c-0.6,1.6-1.7,3-2.9,4h6.9c-1.4-1.2-2.6-2.9-3.3-4.8l0.8-0.3c0.3,0.6,0.6,1.3,0.9,1.8
		c0.6-0.5,1.4-1.2,1.8-1.8L268.7,57.1z M265.2,64.5v-2.2h-2.6v2.2H265.2z"/>
	<path d="M286.7,65.1c-0.1,1.3-0.2,2.7-0.8,3.5l-0.5-0.3c0.5-0.7,0.7-2,0.7-3.3L286.7,65.1z M291.1,63.3l0.4,0.1l0,0.3
		c-0.2,3.6-0.4,4.9-0.7,5.3c-0.3,0.3-0.5,0.4-1.2,0.4c-0.3,0-0.6,0-0.9,0c0-0.2-0.1-0.6-0.2-0.8c0.5,0,1,0.1,1.2,0.1
		c0.4,0,0.6-0.1,0.8-2l-0.5,0.2c-0.1-0.5-0.5-1.3-0.9-1.9l0.5-0.2c0.3,0.5,0.7,1.3,0.8,1.8h0c0.1-0.6,0.1-1.4,0.2-2.3H287v0.4h-0.8
		v-7.6h5.2v0.8h-2.1v1.3h1.8v0.8h-1.8v1.4h1.8V62h-1.8v1.4h1.6L291.1,63.3z M288.5,57.7H287v1.3h1.5V57.7z M288.5,61.2v-1.4H287v1.4
		H288.5z M287,62v1.4h1.5V62H287z M287.3,67.9c0-0.7-0.1-1.8-0.2-2.6l0.5-0.1c0.2,0.8,0.3,1.9,0.3,2.6L287.3,67.9z M288.6,65
		c0.3,0.7,0.6,1.7,0.6,2.3l-0.5,0.1c-0.1-0.6-0.3-1.6-0.6-2.3L288.6,65z M298,62.6h-2.3c0.4,2.7,1.3,4.9,3,6
		c-0.2,0.2-0.5,0.5-0.6,0.8c-1.8-1.3-2.7-3.7-3.2-6.8h-1.4c0,2.1-0.3,4.9-1.6,6.7c-0.2-0.2-0.5-0.4-0.8-0.5c1.4-1.8,1.5-4.5,1.5-6.6
		v-5.4h5.5V62.6z M297.1,57.8h-3.7v4h3.7V57.8z"/>
</g>
<g>
	<rect x="57.9" y="299.2" class="st3" width="16.2" height="57.6"/>
	<path d="M72.1,303.8c-0.1,0.1-0.2,0.1-0.4,0.1c-0.4,0.7-0.9,1.6-1.4,2.2h3.2v1.2H58.8v-1.2h2.8c-0.2-0.7-0.7-1.7-1.2-2.4l1.2-0.5
		c0.6,0.7,1.1,1.8,1.3,2.5l-1,0.4h1.8v-2.9h-4v-1.3h3.1c-0.3-0.5-0.7-1.2-1.2-1.7l1.3-0.6c0.6,0.6,1.2,1.5,1.5,2.1l-0.3,0.1H68
		c-0.1,0-0.2-0.1-0.3-0.1c0.5-0.6,1.1-1.5,1.4-2.2l1.8,0.7c-0.1,0.1-0.2,0.2-0.4,0.2c-0.3,0.4-0.7,1-1.2,1.5h3.3v1.3h-4.3v2.9h1.6
		l-0.9-0.4c0.5-0.7,1.1-1.8,1.4-2.6L72.1,303.8z M61.4,314.7v-6.4h9.6v6.3h-1.6v-0.5h-6.5v0.5H61.4z M69.4,309.5h-6.5v1.2h6.5V309.5
		z M62.8,313h6.5v-1.2h-6.5V313z M65.2,303.2v2.9h1.7v-2.9H65.2z"/>
	<path d="M62.3,347.6v5.2c1.1,1.8,3.2,1.8,6,1.8c1.8,0,4,0,5.5-0.2c-0.2,0.4-0.4,1.1-0.5,1.5c-1.2,0-3,0.1-4.7,0.1
		c-3.5,0-5.5,0-7-1.9c-0.8,0.7-1.6,1.3-2.3,1.8c0,0.2,0,0.2-0.2,0.3l-0.8-1.6c0.7-0.4,1.6-1.1,2.4-1.7v-3.9h-2.2v-1.4H62.3z
		 M60,341.7c1,0.7,2.2,1.8,2.8,2.6l-1.1,1.1c-0.5-0.8-1.7-1.9-2.7-2.7L60,341.7z M65.3,351.1v2.6h-1.4v-8.4h4.2
		c-0.9-0.4-1.9-0.8-2.7-1.2l1-0.8c0.6,0.2,1.4,0.5,2.1,0.8c0.6-0.3,1.3-0.7,1.8-1.1H64v-1.2h7.8l0.2-0.1l1.1,0.7
		c-0.1,0.1-0.2,0.1-0.3,0.2c-0.8,0.7-1.9,1.5-3,2.1c0.4,0.2,0.8,0.4,1.1,0.6h2v7c0,1.3-0.5,1.5-2.8,1.5c0-0.4-0.2-0.9-0.4-1.2
		c0.4,0,0.8,0,1.1,0c0.6,0,0.7,0,0.7-0.3v-1.2h-2.4v2.5h-1.4v-2.5H65.3z M67.7,346.5h-2.4v1.2h2.4V346.5z M65.3,350h2.4v-1.2h-2.4
		V350z M71.5,347.7v-1.2h-2.4v1.2H71.5z M69.1,350h2.4v-1.2h-2.4V350z"/>
</g>
<g>
	<rect x="189.9" y="614.7" class="st3" width="16.2" height="57.6"/>
	<path class="st6" d="M191.3,615.9H205v14.3h-1.6v-0.7h-10.6v0.7h-1.5V615.9z M192.8,628h10.6v-10.6h-10.6V628z M202.8,619.9v1.3
		h-2.2v4.7c0,1.4-0.6,1.6-3.2,1.5c-0.1-0.4-0.2-0.9-0.4-1.3c0.5,0,1,0,1.3,0c0.8,0,0.9,0,0.9-0.3v-4.6h-5.7v-1.3h5.7v-2l1.8,0.1
		c0,0.1-0.1,0.2-0.4,0.3v1.7H202.8z M196.4,625.3c-0.3-0.8-1.1-2-1.8-2.9l1.1-0.6c0.8,0.8,1.6,2,1.9,2.8L196.4,625.3z"/>
	<path class="st6" d="M195.9,657.4c-0.1,0.1-0.2,0.2-0.4,0.2c-0.4,1.1-0.9,2.1-1.4,3.2l0.5,0.1c0,0.1-0.1,0.2-0.4,0.2v10.6h-1.5
		v-8.7c-0.5,0.8-1.1,1.5-1.6,2.2c-0.1-0.4-0.5-1.1-0.7-1.5c1.5-1.6,2.9-4.3,3.8-6.9L195.9,657.4z M205.5,661.8h-3.8
		c0.9,2.4,2.5,4.9,4.2,6.2c-0.4,0.3-0.9,0.8-1.1,1.2c-1.5-1.4-2.9-3.8-3.9-6.3v4.6h2.4v1.4h-2.4v3h-1.5v-3H197v-1.4h2.3v-4.5
		c-1,2.5-2.4,4.9-4,6.3c-0.3-0.4-0.8-0.9-1.1-1.2c1.7-1.3,3.3-3.8,4.3-6.3H195v-1.5h4.4v-3.4l1.9,0.1c0,0.1-0.1,0.2-0.4,0.3v3h4.7
		V661.8z"/>
</g>
<g>
	<rect x="67" y="707.2" class="st3" width="14.3" height="57.6"/>
	<path d="M80.7,717.6v1.2h-5.8v2h-1.4v-2h-5.6v-1.2h5.6v-1h-4.2V711h4.2v-0.9h-5.3v-1.2h5.3v-1.2l1.7,0.1c0,0.1-0.1,0.2-0.3,0.2v0.9
		h5.4v1.2h-5.4v0.9h4.3v5.6h-4.3v1H80.7z M70.7,712.1v1.2h2.9v-1.2H70.7z M70.7,715.5h2.9v-1.2h-2.9V715.5z M77.9,712.1h-3v1.2h3
		V712.1z M77.9,715.5v-1.2h-3v1.2H77.9z"/>
	<path d="M80.6,753.5h-5.8v1.6H80v7.8c0,1.4-0.7,1.4-3,1.4c-0.1-0.3-0.3-0.9-0.4-1.2c0.5,0,1,0,1.4,0c0.7,0,0.8,0,0.8-0.3v-6.5h-3.8
		v4h1.4v-3l1.5,0.1c0,0.1-0.1,0.2-0.3,0.2v4.7h-1.2v-0.8h-4.1v1h-1.1v-5.2l1.4,0.1c0,0.1-0.1,0.2-0.3,0.2v2.7h1.4v-4h-3.6v8h-1.3
		v-9.2h4.9v-1.6H68v-1.3h12.6V753.5z"/>
</g>
<g>
	<rect x="50.7" y="707.2" class="st3" width="14.3" height="57.6"/>
	<path d="M56.2,713.5c0.4,1.1,1.1,2.1,1.9,2.9c0.8-0.8,1.4-1.8,1.9-3l1.6,0.5c-0.1,0.1-0.2,0.2-0.4,0.2c-0.5,1.2-1.2,2.3-2.1,3.2
		c1.4,1.1,3.3,1.8,5.6,2.2c-0.3,0.3-0.7,0.9-0.9,1.3c-2.4-0.4-4.3-1.3-5.7-2.5c-1.5,1.2-3.4,2-5.7,2.5c-0.2-0.3-0.5-0.9-0.8-1.2
		c2.2-0.4,4.1-1.2,5.5-2.3c-0.9-1-1.6-2.1-2.1-3.4L56.2,713.5z M56.9,711.7c-0.1,0.1-0.2,0.1-0.4,0.1c-1,1.2-2.5,2.4-3.8,3.3
		c-0.2-0.3-0.7-0.8-1-1c1.3-0.7,2.8-1.9,3.6-3L56.9,711.7z M64.3,709.4v1.3H51.8v-1.3h5.5v-1.8l1.7,0.1c0,0.1-0.1,0.2-0.3,0.2v1.4
		H64.3z M63.3,714.9c-0.7-0.9-2.4-2.3-3.7-3.2l1.1-0.8c1.3,0.9,3,2.1,3.8,3.1L63.3,714.9z"/>
	<path d="M55.8,757.5l0.2,1.1c-0.5,0.2-1,0.3-1.5,0.5v3.8c0,1.1-0.4,1.5-2.4,1.5c0-0.3-0.2-0.9-0.4-1.2c0.3,0,0.6,0,0.8,0
		c0.7,0,0.7,0,0.7-0.3v-3.4c-0.5,0.1-0.9,0.3-1.2,0.4c0,0.1-0.1,0.2-0.2,0.3l-0.4-1.5c0.5-0.1,1.1-0.3,1.8-0.4v-2.9h-1.7v-1.2h1.7
		v-2.8l1.5,0.1c0,0.1-0.1,0.2-0.3,0.2v2.5h1.3v0.7c1.2-1.1,1.9-2.4,2.3-3.6l1.5,0.2c0,0.1-0.1,0.2-0.3,0.2c-0.1,0.2-0.2,0.4-0.3,0.7
		h2.2l0.2-0.1l0.9,0.6c-0.1,0.1-0.1,0.1-0.2,0.1c-0.2,0.5-0.6,1.1-0.9,1.6h2.6v4.8h-1.1V758c-0.1,0-0.2,0-0.4,0h-0.8
		c-0.9,0-1.1-0.2-1.1-1.1v-1.3h-0.8c-0.1,1.2-0.4,2.2-1.6,2.8c-0.1-0.2-0.3-0.4-0.4-0.6v1.5h-1.1v-3.7c-0.1,0.1-0.2,0.2-0.3,0.2
		c-0.1-0.2-0.4-0.4-0.6-0.6h-1.1v2.5L55.8,757.5z M64.4,760.9h-3.4c0.6,1.2,1.8,2,3.6,2.4c-0.3,0.3-0.6,0.8-0.8,1.1
		c-1.9-0.4-3.1-1.4-3.9-2.9c-0.6,1.4-1.7,2.3-4,2.9c-0.1-0.3-0.4-0.8-0.7-1c2.1-0.5,3.1-1.3,3.6-2.5h-3.3v-1.1h3.6
		c0.1-0.4,0.1-0.8,0.1-1.2l1.5,0.1c0,0.1-0.1,0.2-0.3,0.2c0,0.3-0.1,0.6-0.1,0.9h3.9V760.9z M59.9,754.6c0.2-0.4,0.4-0.8,0.6-1.2
		h-2.1c-0.3,0.4-0.5,0.8-0.9,1.2H59.9z M57.6,755.6v2c0.7-0.4,0.9-1.1,1-2H57.6z M62.1,757.2c0.2,0,0.2,0,0.3-0.4
		c0.1,0.1,0.2,0.1,0.3,0.2v-1.3h-1.2v1.3c0,0.2,0,0.3,0.2,0.3H62.1z"/>
</g>
<g>
	<rect x="199" y="707.2" class="st3" width="14.3" height="57.6"/>
	<path d="M212.1,716.8h-4.2c1.2,1.1,3.2,2,5,2.5c-0.3,0.3-0.7,0.9-1,1.2c-1.8-0.6-3.6-1.7-5-3v3.2h-1.3v-3.2
		c-1.3,1.3-3.2,2.3-4.9,2.9c-0.2-0.3-0.6-0.9-0.9-1.1c1.8-0.5,3.7-1.5,4.9-2.6h-4.1v-1.1h1.9v-1.3H200v-1.2h2.5v-1.3h-1.7v-1.1h4.8
		v-1.1c-1.5,0.1-3,0.2-4.5,0.2c0-0.3-0.2-0.8-0.3-1.1c3.4-0.1,7.5-0.4,9.8-1l0.9,1.1c0,0-0.1,0-0.2,0c0,0-0.1,0-0.2,0
		c-1.2,0.3-2.6,0.4-4.3,0.6v1.2h5v1.1H210v1.3h2.6v1.2H210v1.3h2.1V716.8z M203.8,711.8v1.3h1.8v-1.3H203.8z M203.8,714.3v1.3h1.8
		v-1.3H203.8z M208.7,711.8h-1.8v1.3h1.8V711.8z M208.7,715.7v-1.3h-1.8v1.3H208.7z"/>
	<path d="M212.6,732.1h-1c-0.4,1-0.9,1.8-1.6,2.5c0.8,0.6,1.8,1,2.9,1.3c-0.3,0.3-0.7,0.8-0.8,1.1c-1.1-0.3-2.1-0.9-3-1.5
		c-0.9,0.7-1.9,1.2-3.1,1.6c-0.1-0.2-0.3-0.4-0.5-0.7c-0.2,0.7-0.4,1.3-0.6,1.8l-0.9-0.4c0.2-0.6,0.4-1.4,0.6-2.2h-1.1v5.5
		c0,1.2-0.5,1.4-2.4,1.4c0-0.4-0.2-0.9-0.4-1.3c0.3,0,0.7,0,0.9,0c0.5,0,0.6,0,0.6-0.2v-3.9c-0.5,1.2-1.2,2.4-1.9,3.1
		c-0.1-0.4-0.4-0.9-0.6-1.3c0.9-0.8,1.7-2.1,2.2-3.4h-2v-1.2h3.6c-0.8-0.6-2-1.2-3-1.7l0.9-0.9c0.4,0.2,0.8,0.3,1.2,0.5
		c0.4-0.3,0.9-0.8,1.2-1.2H200v-1.1h4.7l0.2-0.1l1,0.6c-0.1,0.1-0.2,0.1-0.2,0.2c-0.5,0.7-1.3,1.5-2.2,2.2c0.4,0.3,0.8,0.5,1.1,0.7
		l-0.6,0.7h1.3l0.7,0c0,0.2-0.2,1.1-0.3,1.5c1-0.3,1.8-0.8,2.6-1.3c-0.4-0.5-0.8-1-1.2-1.5c-0.3,0.4-0.6,0.7-0.9,1
		c-0.3-0.2-0.7-0.6-1.1-0.8c1-0.9,2-2.4,2.5-3.9l1.5,0.5c0,0.1-0.2,0.2-0.3,0.2c-0.1,0.3-0.2,0.6-0.4,0.9h4.2V732.1z M211.1,737.7
		l0.3,0l0.8,0.2c0,0.1,0,0.3-0.1,0.4c-0.4,4.2-0.7,4.4-2.6,4.4c-0.2,0-0.5,0-0.8,0c0-0.4-0.2-0.9-0.4-1.2c0.6,0,1.1,0.1,1.3,0.1
		c0.2,0,0.3,0,0.5-0.1c0.2-0.2,0.4-0.9,0.6-2.4h-1.9c-0.5,1.5-1.4,2.9-3.4,3.8c-0.2-0.3-0.5-0.8-0.8-1c1.6-0.6,2.4-1.7,2.9-2.8h-1.8
		v-1.1h2.1c0.1-0.5,0.2-0.9,0.2-1.4l1.6,0.1c0,0.1-0.1,0.2-0.3,0.2c0,0.3-0.1,0.7-0.2,1.1H211.1z M207.7,732.1c0,0,0.4,0.8,1.3,1.7
		c0.5-0.5,0.9-1.1,1.2-1.7H207.7z"/>
	<path d="M211.4,762h-2.7c1.4,0.4,3.2,1,4.2,1.5l-1.2,0.9c-1.1-0.5-3-1.2-4.5-1.7l1.1-0.8h-4.1l1.1,0.7c-0.1,0-0.1,0.1-0.3,0.1
		c-0.9,0.6-2.7,1.3-4.1,1.6c-0.2-0.3-0.7-0.7-1-1c1.3-0.3,3-0.9,3.9-1.4h-2.5v-6.2h10.1V762z M210.6,751.7v3.3H202v-3.3H210.6z
		 M202.6,756.7v0.8h7.5v-0.8H202.6z M202.6,758.4v0.8h7.5v-0.8H202.6z M202.6,760.2v0.8h7.5v-0.8H202.6z M209.2,754v-1.2h-5.8v1.2
		H209.2z"/>
</g>
<g>
	<rect x="182.7" y="707.2" class="st3" width="14.3" height="57.6"/>
	<path d="M196.4,717.4h-4.7c1.3,0.9,3.2,1.7,4.9,2.1c-0.3,0.3-0.6,0.8-0.8,1.1c-1.8-0.5-3.8-1.5-5.2-2.6v2.8h-1.3V718
		c-1.4,1.1-3.4,2.1-5.1,2.6c-0.2-0.3-0.6-0.8-0.9-1.1c1.7-0.4,3.6-1.2,5-2.1h-4.6v-1.1h5.7v-0.8h-4v-3.8c-0.4,0.4-0.8,0.8-1.2,1.1
		c-0.2-0.3-0.6-0.7-0.9-0.9c1.6-1.3,2.8-2.9,3.4-4.3l1.6,0.3c0,0.1-0.1,0.2-0.3,0.2c-0.2,0.4-0.4,0.8-0.7,1.2h2.4
		c0.3-0.5,0.6-1.1,0.7-1.6l1.6,0.3c0,0.1-0.1,0.2-0.4,0.2c-0.2,0.3-0.4,0.7-0.6,1.1h4.4v1.1H191v0.8h3.9v0.9H191v0.8h3.9v0.9H191
		v0.8h5v1h-5.1c-0.1,0-0.1,0.1-0.3,0.1v0.7h5.7V717.4z M189.7,711.1v-0.8h-3.1v0.8H189.7z M189.7,712.8V712h-3.1v0.8H189.7z
		 M186.6,713.7v0.8h3.1v-0.8H186.6z"/>
	<path d="M187.9,751.3c0,0.1-0.1,0.2-0.3,0.2v2.7h2.3v1.3h-2.3v1c0.5,0.5,1.9,2.2,2.3,2.6l-0.8,1.1c-0.3-0.5-0.9-1.4-1.4-2.1v6.2
		h-1.3V758c-0.6,1.6-1.4,3-2.2,4c-0.1-0.4-0.5-1-0.7-1.3c1.1-1.2,2.2-3.2,2.8-5.2h-2.4v-1.3h2.6v-3L187.9,751.3z M192.1,761.9
		c0,0.8,0.1,0.9,0.7,0.9h1.8c0.6,0,0.7-0.6,0.8-2.9c0.3,0.3,0.9,0.5,1.3,0.6c-0.2,2.6-0.5,3.6-1.9,3.6h-2.1c-1.4,0-1.8-0.5-1.8-2.2
		v-10.6l1.7,0.1c0,0.1-0.1,0.2-0.3,0.2V761.9z"/>
</g>
<g>
	<rect x="375" y="428.2" class="st3" width="14.3" height="57.6"/>
	<path d="M377.6,434.2c-0.5,0.7-1,1.3-1.4,1.9c-0.1-0.3-0.5-1-0.6-1.3c1.3-1.4,2.6-3.7,3.3-6.1l1.5,0.5c-0.1,0.1-0.2,0.2-0.4,0.2
		c-0.4,0.9-0.8,1.9-1.2,2.8l0.4,0.1c0,0.1-0.1,0.2-0.3,0.2v9.3h-1.3V434.2z M389,432.9v1.2H388v4.1h-1.3v-0.8h-2.5
		c-0.4,1.7-1.3,3.3-3.6,4.4c-0.2-0.3-0.6-0.8-0.9-1c1.9-0.8,2.7-2.1,3.1-3.4h-2.6v-1.2h2.8c0.1-0.5,0.1-1,0.1-1.4v-0.6h-3.7v-1.2
		h3.7v-2h-2.7v-1.2h7.5v3.3H389z M386.7,436.2v-2.1h-2.2v0.6c0,0.5,0,1-0.1,1.4H386.7z M384.4,430.8v2h2.2v-2H384.4z"/>
	<path d="M376,461.8h12.7v1.2H376V461.8z M376.2,451.3h12.2v1.2h-12.2V451.3z M377.8,453.8h9.2v4.7h-9.2V453.8z M379.8,461.7
		c-0.1-0.7-0.5-1.7-0.9-2.5l1.2-0.3c0.4,0.8,0.9,1.8,1,2.5L379.8,461.7z M379.1,455v2.4h6.5V455H379.1z M386.2,459.2
		c0,0.1-0.2,0.1-0.4,0.1c-0.3,0.7-0.9,1.7-1.3,2.4c-0.4-0.1-0.8-0.3-1.2-0.4c0.4-0.7,0.9-1.8,1.1-2.6L386.2,459.2z"/>
	<path d="M377.7,476.7v-0.3c-0.3,0.2-0.6,0.5-1,0.7c-0.2-0.3-0.6-0.8-1-1c1.9-1.1,3.2-2.7,3.8-4l1.6,0.3c0,0.1-0.1,0.2-0.3,0.2
		c-0.1,0.2-0.2,0.4-0.4,0.6h3.6l0.2-0.1l1,0.6c0,0.1-0.2,0.1-0.3,0.1c-0.3,0.5-0.7,1.1-1.1,1.6h3v5.1h-4.8c0.6,0.3,1.3,0.7,1.7,1.1
		l-0.9,0.9c-0.5-0.5-1.6-1.2-2.5-1.6l0.4-0.4h-3.5v-1.1h8.3v-0.9h-7.8v-1h7.8v-0.9H377.7z M378.9,481.9c-0.4,1.1-1,2.3-2,3l-1.1-0.8
		c1-0.6,1.6-1.6,2-2.6L378.9,481.9z M382.4,475.6c0.3-0.4,0.6-0.8,0.9-1.3h-3.6c-0.3,0.4-0.7,0.9-1.1,1.3H382.4z M380.8,483.6
		c0,0.4,0.1,0.4,0.8,0.4h2.1c0.5,0,0.6-0.2,0.7-1.5c0.3,0.2,0.8,0.4,1.2,0.5c-0.2,1.7-0.5,2.2-1.7,2.2h-2.3c-1.5,0-1.9-0.4-1.9-1.6
		v-1.9l1.6,0.1c0,0.1-0.1,0.2-0.3,0.2V483.6z M387.7,484.9c-0.4-0.8-1.5-2.1-2.5-2.9l1.1-0.6c1,0.8,2.1,2,2.6,2.9L387.7,484.9z"/>
</g>
<g>
	<rect x="358.7" y="428.2" class="st3" width="14.3" height="57.6"/>
	<path d="M372.4,431h-5.6c-0.1,0.1-0.2,0.1-0.3,0.1v2.2l0.2-0.2c1.7,0.8,3.9,2.1,5,3l-1,1.2c-0.9-0.8-2.7-1.9-4.3-2.8v7.2h-1.4V431
		h-5.3v-1.3h12.6V431z"/>
	<path d="M360.2,473.2H372v12h-1.4v-0.9h-9v0.9h-1.3V473.2z M365.3,474.5h-3.8v3.6h3.8V474.5z M361.6,479.4v3.6h3.8v-3.6H361.6z
		 M370.6,478.1v-3.6h-3.9v3.6H370.6z M366.7,483h3.9v-3.6h-3.9V483z"/>
</g>
<g>
	<rect x="287" y="428.2" class="st3" width="14.3" height="57.6"/>
	<path d="M289.6,434.2c-0.5,0.7-1,1.3-1.4,1.9c-0.1-0.3-0.5-1-0.6-1.3c1.3-1.4,2.6-3.7,3.3-6.1l1.5,0.5c-0.1,0.1-0.2,0.2-0.4,0.2
		c-0.4,0.9-0.8,1.9-1.2,2.8l0.4,0.1c0,0.1-0.1,0.2-0.3,0.2v9.3h-1.3V434.2z M301,432.9v1.2H300v4.1h-1.3v-0.8h-2.5
		c-0.4,1.7-1.3,3.3-3.6,4.4c-0.2-0.3-0.6-0.8-0.9-1c1.9-0.8,2.7-2.1,3.1-3.4h-2.6v-1.2h2.8c0.1-0.5,0.1-1,0.1-1.4v-0.6h-3.7v-1.2
		h3.7v-2h-2.7v-1.2h7.5v3.3H301z M298.7,436.2v-2.1h-2.2v0.6c0,0.5,0,1-0.1,1.4H298.7z M296.4,430.8v2h2.2v-2H296.4z"/>
	<path d="M288,483.6h12.7v1.2H288V483.6z M288.2,473.1h12.2v1.2h-12.2V473.1z M289.8,475.6h9.2v4.7h-9.2V475.6z M291.8,483.5
		c-0.1-0.7-0.5-1.7-0.9-2.5l1.2-0.3c0.4,0.8,0.9,1.8,1,2.5L291.8,483.5z M291.1,476.8v2.4h6.5v-2.4H291.1z M298.2,481
		c0,0.1-0.2,0.1-0.4,0.1c-0.3,0.7-0.9,1.7-1.3,2.4c-0.4-0.1-0.8-0.3-1.2-0.4c0.4-0.7,0.9-1.8,1.1-2.6L298.2,481z"/>
</g>
<g>
	<rect x="270.7" y="428.2" class="st3" width="14.3" height="57.6"/>
	<path d="M274.9,434v0.6c0.4,0.4,1.6,1.7,1.8,2l-0.8,1c-0.2-0.4-0.6-1.1-1-1.7v5.8h-1.3v-5.6c-0.5,1.2-1,2.5-1.6,3.2
		c-0.1-0.4-0.4-0.9-0.6-1.3c0.8-1,1.6-2.7,2-4.2h-1.8v-1.2h2.1v-2c-0.6,0.2-1.2,0.3-1.7,0.4c-0.1-0.3-0.3-0.7-0.4-1
		c1.5-0.4,3.3-1,4.2-1.6l1.1,1c-0.1,0.1-0.2,0.1-0.3,0.1c-0.4,0.2-1,0.4-1.6,0.6v2.4h1.6v1.2H274.9z M284,429.7c0,0-0.1,0.1-0.2,0.1
		c0,0-0.1,0-0.1,0c-1.7,0.6-4.5,1-6.9,1.3c0-0.3-0.2-0.8-0.3-1c2.3-0.3,5-0.7,6.5-1.3L284,429.7z M277.6,434.1
		c-0.1-0.7-0.5-1.7-0.9-2.4l1.1-0.3c0.5,0.7,0.9,1.7,1,2.4L277.6,434.1z M276.8,441.8v-7.1l1.5,0.1c0,0.1-0.1,0.2-0.3,0.2v6.8H276.8
		z M279,441.8v-6.8h5v6.8h-1.2v-0.4h-2.5v0.5H279z M280.3,431c0.4,0.8,0.7,1.8,0.8,2.5c-0.1,0-0.1,0-1.2,0.4
		c-0.1-0.7-0.4-1.7-0.7-2.5L280.3,431z M282.8,436.1h-2.5v1.5h2.5V436.1z M280.2,440.1h2.5v-1.5h-2.5V440.1z M284.6,431.2
		c0,0.1-0.2,0.1-0.3,0.1c-0.4,1-1.1,2.4-1.7,3.3c0,0-1-0.4-1-0.4c0.6-1,1.2-2.5,1.6-3.6L284.6,431.2z"/>
	<path d="M278.8,474.1h-1.2v11.2h-1.3v-2.7c-1.6,0.3-3.1,0.6-4.1,0.7c0,0.1-0.1,0.2-0.2,0.2l-0.5-1.5l1.2-0.2v-7.9h-1.1v-1.2h7.3
		V474.1z M276.3,475.8v-1.7h-2.4v1.7H276.3z M276.3,478.7V477h-2.4v1.7H276.3z M273.9,479.9v1.9c0.8-0.1,1.6-0.2,2.4-0.3v-1.6H273.9
		z M283.4,474.1l0.8,0.3c0,0.1-0.1,0.2-0.1,0.2c-0.3,2.8-1,5.1-2.1,7c0.7,1.1,1.6,2,2.7,2.7c-0.3,0.3-0.7,0.7-0.9,1.1
		c-1-0.6-1.9-1.5-2.6-2.5c-0.8,1-1.7,1.9-2.7,2.5c-0.2-0.3-0.6-0.8-0.9-1.1c1.1-0.6,2-1.5,2.8-2.8c-0.8-1.6-1.4-3.6-1.8-5.7l1.2-0.2
		c0.3,1.7,0.8,3.2,1.4,4.6c0.7-1.3,1.1-2.9,1.4-4.7h-4.3v-1.3h4.9L283.4,474.1z"/>
</g>
<g>
	<rect x="243" y="428.2" class="st3" width="14.3" height="57.6"/>
	<path d="M245.6,434.2c-0.5,0.7-1,1.3-1.4,1.9c-0.1-0.3-0.5-1-0.6-1.3c1.3-1.4,2.6-3.7,3.3-6.1l1.5,0.5c-0.1,0.1-0.2,0.2-0.4,0.2
		c-0.4,0.9-0.8,1.9-1.2,2.8l0.4,0.1c0,0.1-0.1,0.2-0.3,0.2v9.3h-1.3V434.2z M257,432.9v1.2H256v4.1h-1.3v-0.8h-2.5
		c-0.4,1.7-1.3,3.3-3.6,4.4c-0.2-0.3-0.6-0.8-0.9-1c1.9-0.8,2.7-2.1,3.1-3.4h-2.6v-1.2h2.8c0.1-0.5,0.1-1,0.1-1.4v-0.6h-3.7v-1.2
		h3.7v-2h-2.7v-1.2h7.5v3.3H257z M254.7,436.2v-2.1h-2.2v0.6c0,0.5,0,1-0.1,1.4H254.7z M252.4,430.8v2h2.2v-2H252.4z"/>
	<path d="M244,483.6h12.7v1.2H244V483.6z M244.2,473.1h12.2v1.2h-12.2V473.1z M245.8,475.6h9.2v4.7h-9.2V475.6z M247.8,483.5
		c-0.1-0.7-0.5-1.7-0.9-2.5l1.2-0.3c0.4,0.8,0.9,1.8,1,2.5L247.8,483.5z M247.1,476.8v2.4h6.5v-2.4H247.1z M254.2,481
		c0,0.1-0.2,0.1-0.4,0.1c-0.3,0.7-0.9,1.7-1.3,2.4c-0.4-0.1-0.8-0.3-1.2-0.4c0.4-0.7,0.9-1.8,1.1-2.6L254.2,481z"/>
</g>
<g>
	<rect x="226.7" y="428.2" class="st3" width="14.3" height="57.6"/>
	<path d="M239.2,436.5c0,0.6,0,0.7,0.2,0.7c0.3,0,0.4,0,0.4-0.1c0.1-0.2,0.1-1.3,0.1-2c0.2,0.2,0.6,0.4,0.9,0.5c0,2-0.1,2.7-1.2,2.7
		H239c-0.3,0-0.6-0.1-0.8-0.3c-0.2-0.2-0.3-0.5-0.3-1.5v-4.7h-1.1c0,0.8-0.1,1.6-0.2,2.3c0.5,0.4,1,0.8,1.3,1.1l-0.6,1.1
		c-0.3-0.3-0.6-0.6-1-0.9c-0.4,1.3-1,2.4-2,3.2c-0.1-0.2-0.4-0.6-0.7-0.8c-2,0.2-4,0.4-5.3,0.6c0,0.1-0.1,0.2-0.2,0.2l-0.5-1.3
		l2.7-0.2v-1.2h-2.1v-1h2.1v-1l1.3,0.1c-0.2-0.2-0.2-0.4-0.2-0.9v-0.6h-0.9c-0.2,1-0.6,1.8-2.3,2.2c-0.1-0.2-0.4-0.6-0.5-0.8
		c1.2-0.2,1.7-0.7,1.8-1.4h-1.6v-1h2.5v-0.9h-2v-0.9h2v-0.9l1.5,0.1c0,0.1-0.1,0.2-0.3,0.2v0.6h2v0.9h-2v0.9h2.5v1h-1.6v0.6
		c0,0.2,0,0.3,0.2,0.3h0.5c0.2,0,0.2,0,0.3-0.5c0.2,0.1,0.6,0.3,0.8,0.3c-0.1,0.8-0.4,1-0.9,1h-0.8c-0.3,0-0.5,0-0.6-0.1
		c0,0.1-0.1,0.1-0.3,0.1v0.7h2.2v1h-2.2v1.1c0.8-0.1,1.6-0.1,2.4-0.2l0,0.6c0.7-0.7,1.1-1.6,1.4-2.7c-0.4-0.3-0.9-0.6-1.2-0.8l0.5-1
		c0.3,0.2,0.6,0.4,0.9,0.6c0.1-0.5,0.1-1,0.1-1.6h-1.4v-1.2h1.4c0-0.6,0-1.3,0-1.9l1.5,0.1c0,0.1-0.1,0.2-0.3,0.3c0,0.6,0,1.1,0,1.6
		h2.3V436.5z M230.6,439.1c-0.4,1-1,2-1.7,2.7c-0.4-0.1-0.7-0.3-1.2-0.5c0.7-0.5,1.3-1.5,1.7-2.5L230.6,439.1z M232,441.6
		c0-0.6-0.1-1.7-0.3-2.5l1.2-0.1c0.2,0.8,0.3,1.8,0.3,2.4L232,441.6z M235.3,441.6c-0.1-0.6-0.4-1.7-0.7-2.5l1.2-0.2
		c0.3,0.8,0.7,1.8,0.8,2.4L235.3,441.6z M239.2,441.8c-0.3-0.7-1.1-1.8-1.7-2.6l1.3-0.4c0.6,0.8,1.4,1.9,1.8,2.6L239.2,441.8z"/>
	<path d="M229.1,473l1.7,0.1c0,0.1-0.1,0.2-0.3,0.2v4.5c0,2.7-0.2,5.5-2.1,7.6c-0.3-0.3-0.8-0.7-1.1-0.9c1.7-1.9,1.8-4.3,1.8-6.7
		V473z M233.6,473.6l1.7,0.1c0,0.1-0.1,0.2-0.3,0.2V484h-1.3V473.6z M238.4,472.9l1.7,0.1c0,0.1-0.1,0.2-0.3,0.2v12h-1.4V472.9z"/>
</g>
<g>
	<rect x="199" y="428.2" class="st3" width="14.3" height="57.6"/>
	<path d="M201.6,434.2c-0.5,0.7-1,1.3-1.4,1.9c-0.1-0.3-0.5-1-0.6-1.3c1.3-1.4,2.6-3.7,3.3-6.1l1.5,0.5c-0.1,0.1-0.2,0.2-0.4,0.2
		c-0.4,0.9-0.8,1.9-1.2,2.8l0.4,0.1c0,0.1-0.1,0.2-0.3,0.2v9.3h-1.3V434.2z M213,432.9v1.2H212v4.1h-1.3v-0.8h-2.5
		c-0.4,1.7-1.3,3.3-3.6,4.4c-0.2-0.3-0.6-0.8-0.9-1c1.9-0.8,2.7-2.1,3.1-3.4h-2.6v-1.2h2.8c0.1-0.5,0.1-1,0.1-1.4v-0.6h-3.7v-1.2
		h3.7v-2h-2.7v-1.2h7.5v3.3H213z M210.7,436.2v-2.1h-2.2v0.6c0,0.5,0,1-0.1,1.4H210.7z M208.4,430.8v2h2.2v-2H208.4z"/>
	<path d="M200,483.6h12.7v1.2H200V483.6z M200.2,473.1h12.2v1.2h-12.2V473.1z M201.8,475.6h9.2v4.7h-9.2V475.6z M203.8,483.5
		c-0.1-0.7-0.5-1.7-0.9-2.5l1.2-0.3c0.4,0.8,0.9,1.8,1,2.5L203.8,483.5z M203.1,476.8v2.4h6.5v-2.4H203.1z M210.2,481
		c0,0.1-0.2,0.1-0.4,0.1c-0.3,0.7-0.9,1.7-1.3,2.4c-0.4-0.1-0.8-0.3-1.2-0.4c0.4-0.7,0.9-1.8,1.1-2.6L210.2,481z"/>
</g>
<g>
	<rect x="182.7" y="428.2" class="st3" width="14.3" height="57.6"/>
	<path d="M190.6,429.9h5.6v1.1h-12.4v-1.1h5.4v-1.3l1.7,0.1c0,0.1-0.1,0.2-0.3,0.2V429.9z M195.7,435.5v4.7c0,1.3-0.6,1.5-3,1.5
		c-0.1-0.4-0.3-0.9-0.4-1.2h-3.8v0.7h-1.2v-3.8h5.4v3.1c0.3,0,0.6,0,0.8,0c0.7,0,0.8,0,0.8-0.3v-3.6h-8.6v5.1h-1.3v-6.2H195.7z
		 M186.2,431.8h7.7v3h-7.7V431.8z M192.6,433.8v-1.1h-5.1v1.1H192.6z M191.6,439.6v-1.2h-3.1v1.2H191.6z"/>
	<path d="M195,480.6h-3.2v3.4c0,1.3-0.6,1.4-2.8,1.4c-0.1-0.4-0.2-0.8-0.4-1.2c0.5,0,1,0,1.4,0c0.5,0,0.6,0,0.6-0.2v-3.4h-3.2v-5.1
		h2.7c0.1-0.4,0.2-0.9,0.3-1.3H186v2.9c0,2.4-0.2,5.9-1.5,8.2c-0.3-0.2-0.8-0.5-1.2-0.7c1.2-2.2,1.3-5.3,1.3-7.6V473h11.7v1.2h-4.6
		c-0.1,0.4-0.3,0.9-0.4,1.3h3.7V480.6z M189.6,481.7c-0.1,0.1-0.2,0.1-0.3,0.1c-0.7,1.1-1.7,2.2-2.7,2.9c-0.2-0.2-0.7-0.6-1-0.7
		c1-0.6,2-1.7,2.6-2.8L189.6,481.7z M188.6,476.5v1h5.2v-1H188.6z M188.6,478.5v1.1h5.2v-1.1H188.6z M195.5,484.7
		c-0.5-0.8-1.7-2-2.7-2.9l1-0.6c1,0.8,2.2,2,2.8,2.8L195.5,484.7z"/>
</g>
<g>
	<rect x="375" y="86.2" class="st3" width="14.3" height="57.6"/>
	<path d="M377.6,92.2c-0.5,0.7-1,1.3-1.4,1.9c-0.1-0.3-0.5-1-0.6-1.3c1.3-1.4,2.6-3.7,3.3-6.1l1.5,0.5c-0.1,0.1-0.2,0.2-0.4,0.2
		c-0.4,0.9-0.8,1.9-1.2,2.8l0.4,0.1c0,0.1-0.1,0.2-0.3,0.2v9.3h-1.3V92.2z M389,90.9v1.2H388v4.1h-1.3v-0.8h-2.5
		c-0.4,1.7-1.3,3.3-3.6,4.4c-0.2-0.3-0.6-0.8-0.9-1c1.9-0.8,2.7-2.1,3.1-3.4h-2.6v-1.2h2.8c0.1-0.5,0.1-1,0.1-1.4v-0.6h-3.7v-1.2
		h3.7v-2h-2.7v-1.2h7.5v3.3H389z M386.7,94.2v-2.1h-2.2v0.6c0,0.5,0,1-0.1,1.4H386.7z M384.4,88.8v2h2.2v-2H384.4z"/>
	<path d="M376,119.8h12.7v1.2H376V119.8z M376.2,109.3h12.2v1.2h-12.2V109.3z M377.8,111.8h9.2v4.7h-9.2V111.8z M379.8,119.7
		c-0.1-0.7-0.5-1.7-0.9-2.5l1.2-0.3c0.4,0.8,0.9,1.8,1,2.5L379.8,119.7z M379.1,113v2.4h6.5V113H379.1z M386.2,117.2
		c0,0.1-0.2,0.1-0.4,0.1c-0.3,0.7-0.9,1.7-1.3,2.4c-0.4-0.1-0.8-0.3-1.2-0.4c0.4-0.7,0.9-1.8,1.1-2.6L386.2,117.2z"/>
	<path d="M377.7,134.7v-0.3c-0.3,0.2-0.6,0.5-1,0.7c-0.2-0.3-0.6-0.8-1-1c1.9-1.1,3.2-2.7,3.8-4l1.6,0.3c0,0.1-0.1,0.2-0.3,0.2
		c-0.1,0.2-0.2,0.4-0.4,0.6h3.6l0.2-0.1l1,0.6c0,0.1-0.2,0.1-0.3,0.1c-0.3,0.5-0.7,1.1-1.1,1.6h3v5.1h-4.8c0.6,0.3,1.3,0.7,1.7,1.1
		l-0.9,0.9c-0.5-0.5-1.6-1.2-2.5-1.6l0.4-0.4h-3.5v-1.1h8.3v-0.9h-7.8v-1h7.8v-0.9H377.7z M378.9,139.9c-0.4,1.1-1,2.3-2,3l-1.1-0.8
		c1-0.6,1.6-1.6,2-2.6L378.9,139.9z M382.4,133.6c0.3-0.4,0.6-0.8,0.9-1.3h-3.6c-0.3,0.4-0.7,0.9-1.1,1.3H382.4z M380.8,141.6
		c0,0.4,0.1,0.4,0.8,0.4h2.1c0.5,0,0.6-0.2,0.7-1.5c0.3,0.2,0.8,0.4,1.2,0.5c-0.2,1.7-0.5,2.2-1.7,2.2h-2.3c-1.5,0-1.9-0.4-1.9-1.6
		v-1.9l1.6,0.1c0,0.1-0.1,0.2-0.3,0.2V141.6z M387.7,142.9c-0.4-0.8-1.5-2.1-2.5-2.9l1.1-0.6c1,0.8,2.1,2,2.6,2.9L387.7,142.9z"/>
</g>
<g>
	<rect x="358.7" y="86.2" class="st3" width="14.3" height="57.6"/>
	<path d="M372.4,89h-5.6c-0.1,0.1-0.2,0.1-0.3,0.1v2.2l0.2-0.2c1.7,0.8,3.9,2.1,5,3l-1,1.2c-0.9-0.8-2.7-1.9-4.3-2.8v7.2h-1.4V89
		h-5.3v-1.3h12.6V89z"/>
	<path d="M360.2,131.2H372v12h-1.4v-0.9h-9v0.9h-1.3V131.2z M365.3,132.5h-3.8v3.6h3.8V132.5z M361.6,137.4v3.6h3.8v-3.6H361.6z
		 M370.6,136.1v-3.6h-3.9v3.6H370.6z M366.7,141h3.9v-3.6h-3.9V141z"/>
</g>
<g>
	<rect x="286" y="86.2" class="st3" width="14.3" height="57.6"/>
	<path d="M288.6,92.2c-0.5,0.7-1,1.3-1.4,1.9c-0.1-0.3-0.5-1-0.6-1.3c1.3-1.4,2.6-3.7,3.3-6.1l1.5,0.5c-0.1,0.1-0.2,0.2-0.4,0.2
		c-0.4,0.9-0.8,1.9-1.2,2.8l0.4,0.1c0,0.1-0.1,0.2-0.3,0.2v9.3h-1.3V92.2z M300.1,90.9v1.2H299v4.1h-1.3v-0.8h-2.5
		c-0.4,1.7-1.3,3.3-3.6,4.4c-0.2-0.3-0.6-0.8-0.9-1c1.9-0.8,2.7-2.1,3.1-3.4h-2.6v-1.2h2.8c0.1-0.5,0.1-1,0.1-1.4v-0.6h-3.7v-1.2
		h3.7v-2h-2.7v-1.2h7.5v3.3H300.1z M297.7,94.2v-2.1h-2.2v0.6c0,0.5,0,1-0.1,1.4H297.7z M295.5,88.8v2h2.2v-2H295.5z"/>
	<path d="M287,141.6h12.7v1.2H287V141.6z M287.3,131.1h12.2v1.2h-12.2V131.1z M288.8,133.6h9.2v4.7h-9.2V133.6z M290.8,141.5
		c-0.1-0.7-0.5-1.7-0.9-2.5l1.2-0.3c0.4,0.8,0.9,1.8,1,2.5L290.8,141.5z M290.1,134.8v2.4h6.5v-2.4H290.1z M297.2,139
		c0,0.1-0.2,0.1-0.4,0.1c-0.3,0.7-0.9,1.7-1.3,2.4c-0.4-0.1-0.8-0.3-1.2-0.4c0.4-0.7,0.9-1.8,1.1-2.6L297.2,139z"/>
</g>
<g>
	<rect x="269.8" y="86.2" class="st3" width="14.3" height="57.6"/>
	<path d="M277.7,87.9h5.6v1.1h-12.4v-1.1h5.4v-1.3l1.7,0.1c0,0.1-0.1,0.2-0.3,0.2V87.9z M282.8,93.5v4.7c0,1.3-0.6,1.5-3,1.5
		c-0.1-0.4-0.3-0.9-0.4-1.2h-3.8v0.7h-1.2v-3.8h5.4v3.1c0.3,0,0.6,0,0.8,0c0.7,0,0.8,0,0.8-0.3v-3.6h-8.6v5.1h-1.3v-6.2H282.8z
		 M273.2,89.8h7.7v3h-7.7V89.8z M279.6,91.8v-1.1h-5.1v1.1H279.6z M278.6,97.6v-1.2h-3.1v1.2H278.6z"/>
	<path d="M282.1,138.6h-3.2v3.4c0,1.3-0.6,1.4-2.8,1.4c-0.1-0.4-0.2-0.8-0.4-1.2c0.5,0,1,0,1.4,0c0.5,0,0.6,0,0.6-0.2v-3.4h-3.2
		v-5.1h2.7c0.1-0.4,0.2-0.9,0.3-1.3h-4.3v2.9c0,2.4-0.2,5.9-1.5,8.2c-0.3-0.2-0.8-0.5-1.2-0.7c1.2-2.2,1.3-5.3,1.3-7.6V131h11.7v1.2
		h-4.6c-0.1,0.4-0.3,0.9-0.4,1.3h3.7V138.6z M276.7,139.7c-0.1,0.1-0.2,0.1-0.3,0.1c-0.7,1.1-1.7,2.2-2.7,2.9
		c-0.2-0.2-0.7-0.6-1-0.7c1-0.6,2-1.7,2.6-2.8L276.7,139.7z M275.6,134.5v1h5.2v-1H275.6z M275.6,136.5v1.1h5.2v-1.1H275.6z
		 M282.6,142.7c-0.5-0.8-1.7-2-2.7-2.9l1-0.6c1,0.8,2.2,2,2.8,2.8L282.6,142.7z"/>
</g>
<g>
	<rect x="287" y="179.2" class="st3" width="14.3" height="57.6"/>
	<path d="M289.6,185.2c-0.5,0.7-1,1.3-1.4,1.9c-0.1-0.3-0.5-1-0.6-1.3c1.3-1.4,2.6-3.7,3.3-6.1l1.5,0.5c-0.1,0.1-0.2,0.2-0.4,0.2
		c-0.4,0.9-0.8,1.9-1.2,2.8l0.4,0.1c0,0.1-0.1,0.2-0.3,0.2v9.3h-1.3V185.2z M301,183.9v1.2H300v4.1h-1.3v-0.8h-2.5
		c-0.4,1.7-1.3,3.3-3.6,4.4c-0.2-0.3-0.6-0.8-0.9-1c1.9-0.8,2.7-2.1,3.1-3.4h-2.6v-1.2h2.8c0.1-0.5,0.1-1,0.1-1.4v-0.6h-3.7v-1.2
		h3.7v-2h-2.7v-1.2h7.5v3.3H301z M298.7,187.2v-2.1h-2.2v0.6c0,0.5,0,1-0.1,1.4H298.7z M296.4,181.8v2h2.2v-2H296.4z"/>
	<path d="M288,234.6h12.7v1.2H288V234.6z M288.2,224.1h12.2v1.2h-12.2V224.1z M289.8,226.6h9.2v4.7h-9.2V226.6z M291.8,234.5
		c-0.1-0.7-0.5-1.7-0.9-2.5l1.2-0.3c0.4,0.8,0.9,1.8,1,2.5L291.8,234.5z M291.1,227.8v2.4h6.5v-2.4H291.1z M298.2,232
		c0,0.1-0.2,0.1-0.4,0.1c-0.3,0.7-0.9,1.7-1.3,2.4c-0.4-0.1-0.8-0.3-1.2-0.4c0.4-0.7,0.9-1.8,1.1-2.6L298.2,232z"/>
</g>
<g>
	<rect x="270.7" y="179.2" class="st3" width="14.3" height="57.6"/>
	<path d="M283.2,187.5c0,0.6,0,0.7,0.2,0.7c0.3,0,0.4,0,0.4-0.1c0.1-0.2,0.1-1.3,0.1-2c0.2,0.2,0.6,0.4,0.9,0.5c0,2-0.1,2.7-1.2,2.7
		H283c-0.3,0-0.6-0.1-0.8-0.3c-0.2-0.2-0.3-0.5-0.3-1.5v-4.7h-1.1c0,0.8-0.1,1.6-0.2,2.3c0.5,0.4,1,0.8,1.3,1.1l-0.6,1.1
		c-0.3-0.3-0.6-0.6-1-0.9c-0.4,1.3-1,2.4-2,3.2c-0.1-0.2-0.4-0.6-0.7-0.8c-2,0.2-4,0.4-5.3,0.6c0,0.1-0.1,0.2-0.2,0.2l-0.5-1.3
		l2.7-0.2v-1.2h-2.1v-1h2.1v-1l1.3,0.1c-0.2-0.2-0.2-0.4-0.2-0.9v-0.6h-0.9c-0.2,1-0.6,1.8-2.3,2.2c-0.1-0.2-0.3-0.6-0.5-0.8
		c1.2-0.2,1.7-0.7,1.8-1.4h-1.6v-1h2.5v-0.9h-2v-0.9h2v-0.9l1.5,0.1c0,0.1-0.1,0.2-0.3,0.2v0.6h2v0.9h-2v0.9h2.5v1h-1.6v0.6
		c0,0.2,0,0.3,0.2,0.3h0.5c0.2,0,0.2,0,0.3-0.5c0.2,0.1,0.6,0.3,0.8,0.3c-0.1,0.8-0.4,1-0.9,1h-0.8c-0.3,0-0.5,0-0.6-0.1
		c0,0.1-0.1,0.1-0.3,0.1v0.7h2.2v1h-2.2v1.1c0.8-0.1,1.6-0.1,2.4-0.2l0,0.6c0.7-0.7,1.1-1.6,1.4-2.7c-0.4-0.3-0.9-0.6-1.2-0.8l0.5-1
		c0.3,0.2,0.6,0.4,0.9,0.6c0.1-0.5,0.1-1,0.1-1.6h-1.4v-1.2h1.4c0-0.6,0-1.3,0-1.9l1.5,0.1c0,0.1-0.1,0.2-0.3,0.3c0,0.6,0,1.1,0,1.6
		h2.3V187.5z M274.6,190.1c-0.4,1-1,2-1.7,2.7c-0.4-0.1-0.7-0.3-1.2-0.5c0.7-0.5,1.3-1.5,1.7-2.5L274.6,190.1z M276,192.6
		c0-0.6-0.1-1.7-0.3-2.5l1.2-0.1c0.2,0.8,0.3,1.8,0.3,2.4L276,192.6z M279.3,192.6c-0.1-0.6-0.4-1.7-0.7-2.5l1.2-0.2
		c0.3,0.8,0.7,1.8,0.8,2.4L279.3,192.6z M283.2,192.8c-0.3-0.7-1.1-1.8-1.7-2.6l1.3-0.4c0.6,0.8,1.4,1.9,1.8,2.6L283.2,192.8z"/>
	<path d="M273.1,224l1.7,0.1c0,0.1-0.1,0.2-0.3,0.2v4.5c0,2.7-0.2,5.5-2.1,7.6c-0.3-0.3-0.8-0.7-1.1-0.9c1.7-1.9,1.8-4.3,1.8-6.7
		V224z M277.6,224.6l1.7,0.1c0,0.1-0.1,0.2-0.3,0.2V235h-1.3V224.6z M282.4,223.9l1.7,0.1c0,0.1-0.1,0.2-0.3,0.2v12h-1.4V223.9z"/>
</g>
<g>
	<rect x="331" y="179.2" class="st3" width="14.3" height="57.6"/>
	<path d="M333.6,185.2c-0.5,0.7-1,1.3-1.4,1.9c-0.1-0.3-0.5-1-0.6-1.3c1.3-1.4,2.6-3.7,3.3-6.1l1.5,0.5c-0.1,0.1-0.2,0.2-0.4,0.2
		c-0.4,0.9-0.8,1.9-1.2,2.8l0.4,0.1c0,0.1-0.1,0.2-0.3,0.2v9.3h-1.3V185.2z M345,183.9v1.2H344v4.1h-1.3v-0.8h-2.5
		c-0.4,1.7-1.3,3.3-3.6,4.4c-0.2-0.3-0.6-0.8-0.9-1c1.9-0.8,2.7-2.1,3.1-3.4h-2.6v-1.2h2.8c0.1-0.5,0.1-1,0.1-1.4v-0.6h-3.7v-1.2
		h3.7v-2h-2.7v-1.2h7.5v3.3H345z M342.7,187.2v-2.1h-2.2v0.6c0,0.5,0,1-0.1,1.4H342.7z M340.4,181.8v2h2.2v-2H340.4z"/>
	<path d="M332,234.6h12.7v1.2H332V234.6z M332.2,224.1h12.2v1.2h-12.2V224.1z M333.8,226.6h9.2v4.7h-9.2V226.6z M335.8,234.5
		c-0.1-0.7-0.5-1.7-0.9-2.5l1.2-0.3c0.4,0.8,0.9,1.8,1,2.5L335.8,234.5z M335.1,227.8v2.4h6.5v-2.4H335.1z M342.2,232
		c0,0.1-0.2,0.1-0.4,0.1c-0.3,0.7-0.9,1.7-1.3,2.4c-0.4-0.1-0.8-0.3-1.2-0.4c0.4-0.7,0.9-1.8,1.1-2.6L342.2,232z"/>
</g>
<g>
	<rect x="314.7" y="179.2" class="st3" width="14.3" height="57.6"/>
	<path d="M318.9,185v0.6c0.4,0.4,1.6,1.7,1.8,2l-0.8,1c-0.2-0.4-0.6-1.1-1-1.7v5.8h-1.3v-5.6c-0.5,1.2-1,2.5-1.6,3.2
		c-0.1-0.4-0.4-0.9-0.6-1.3c0.8-1,1.6-2.7,2-4.2h-1.8v-1.2h2.1v-2c-0.6,0.2-1.2,0.3-1.7,0.4c-0.1-0.3-0.3-0.7-0.4-1
		c1.5-0.4,3.3-1,4.2-1.6l1.1,1c-0.1,0.1-0.2,0.1-0.3,0.1c-0.4,0.2-1,0.4-1.6,0.6v2.4h1.6v1.2H318.9z M328,180.7c0,0-0.1,0.1-0.2,0.1
		c0,0-0.1,0-0.1,0c-1.7,0.6-4.5,1-6.9,1.3c0-0.3-0.2-0.8-0.3-1c2.3-0.3,5-0.7,6.5-1.3L328,180.7z M321.6,185.1
		c-0.1-0.7-0.5-1.7-0.9-2.4l1.1-0.3c0.5,0.7,0.9,1.7,1,2.4L321.6,185.1z M320.8,192.8v-7.1l1.5,0.1c0,0.1-0.1,0.2-0.3,0.2v6.8H320.8
		z M323,192.8v-6.8h5v6.8h-1.2v-0.4h-2.5v0.5H323z M324.3,182c0.4,0.8,0.7,1.8,0.8,2.5c-0.1,0-0.1,0-1.2,0.4
		c-0.1-0.7-0.4-1.7-0.7-2.5L324.3,182z M326.8,187.1h-2.5v1.5h2.5V187.1z M324.2,191.1h2.5v-1.5h-2.5V191.1z M328.6,182.2
		c0,0.1-0.2,0.1-0.3,0.1c-0.4,1-1.1,2.4-1.7,3.3c0,0-1-0.4-1-0.4c0.6-1,1.2-2.5,1.6-3.6L328.6,182.2z"/>
	<path d="M322.8,225.1h-1.2v11.2h-1.3v-2.7c-1.6,0.3-3.1,0.6-4.1,0.7c0,0.1-0.1,0.2-0.2,0.2l-0.5-1.5l1.2-0.2v-7.9h-1.1v-1.2h7.3
		V225.1z M320.3,226.8v-1.7h-2.4v1.7H320.3z M320.3,229.7V228h-2.4v1.7H320.3z M317.9,230.9v1.9c0.8-0.1,1.6-0.2,2.4-0.3v-1.6H317.9
		z M327.4,225.1l0.8,0.3c0,0.1-0.1,0.2-0.1,0.2c-0.3,2.8-1,5.1-2.1,7c0.7,1.1,1.6,2,2.7,2.7c-0.3,0.3-0.7,0.7-0.9,1.1
		c-1-0.6-1.9-1.5-2.6-2.5c-0.8,1-1.7,1.9-2.7,2.5c-0.2-0.3-0.6-0.8-0.9-1.1c1.1-0.6,2-1.5,2.8-2.8c-0.8-1.6-1.4-3.6-1.8-5.7l1.2-0.2
		c0.3,1.7,0.8,3.2,1.4,4.6c0.7-1.3,1.1-2.9,1.4-4.7h-4.3v-1.3h4.9L327.4,225.1z"/>
</g>
<rect x="18" y="14" class="st1" width="405" height="34"/>
<g>
	<rect x="18.8" y="20.5" class="st3" width="403.2" height="24"/>
	<path d="M47.5,24l1.3,1.4c-0.1,0.2-0.3,0.2-0.6,0.2c-0.3,0.6-0.9,1.4-1.4,1.8l-0.3-0.2c0.2-0.4,0.3-1.3,0.5-2h-5.9v4.8
		c0,0.1-0.4,0.4-0.9,0.4H40v-5.2h-5.4c0.1,1.2-0.5,2.3-1.3,2.3c-0.4,0-0.7-0.2-0.7-0.6c0-0.3,0.2-0.6,0.5-0.8c0.6-0.3,1-1.2,0.9-2.1
		l0.3,0c0.1,0.3,0.1,0.5,0.2,0.8H40V23h-5.6l-0.1-0.5h10.5l0.8-1.2l1.5,1.2c-0.1,0.3-0.3,0.4-0.8,0.4h-5.2v1.8h5.8L47.5,24z
		 M38.1,28.2l1.1,0.8c-0.1,0.3-0.3,0.4-0.8,0.4h-3.9L34.4,29h3.1L38.1,28.2z M38,26.2l1.1,0.8c-0.1,0.3-0.3,0.4-0.8,0.4h-3.5
		L34.7,27h2.7L38,26.2z M48,36.2V38c0.5,0.2,0.6,0.3,0.6,0.5c0,0.5-0.5,0.8-2.1,0.8H42c-1.6,0-2-0.2-2-1.8v-1.2h-4.1V37
		c0,0-0.2,0.5-1.1,0.5v-6.9l1.2,0.6h9.2l0.5-0.8l1.4,1.2c-0.1,0.1-0.4,0.3-0.7,0.4v4.6c0,0-0.3,0.4-1.1,0.4v-0.8h-4.2v1.3
		c0,0.6,0.1,0.7,0.9,0.7h4.6c0.8,0,0.8,0,1.2-2.1H48z M40,31.6h-4.1v1.8H40V31.6z M35.9,35.7H40v-1.9h-4.1V35.7z M45.3,31.6h-4.2
		v1.8h4.2V31.6z M41.1,35.7h4.2v-1.9h-4.2V35.7z M42,29.5L41.9,29h3.2l0.6-0.8l1.2,0.9c-0.1,0.3-0.3,0.4-0.8,0.4H42z M45.3,26.2
		l1.2,0.9c-0.1,0.3-0.3,0.4-0.8,0.4H42L41.9,27h2.8L45.3,26.2z"/>
	<path d="M51.4,39.5c3-2.9,3.2-7.2,3.2-13.8c0-1.4,0-2.9,0-4.4l1.8,0.2c0,0.3-0.1,0.4-0.7,0.5c0,2.4,0,4.6-0.1,6.6
		c0.7-1.1,1.5-2.6,1.9-3.4l1.4,1.1c-0.1,0.1-0.1,0.1-0.3,0.1c-0.1,0-0.1,0-0.2,0c-0.6,0.7-1.8,1.9-2.8,2.7c-0.1,1.6-0.2,3.1-0.4,4.4
		c2.6,1.2,3.4,2.7,3.4,3.6c0,0.5-0.2,0.8-0.5,0.8c-0.1,0-0.3-0.1-0.4-0.2c-0.3-1.2-1.5-2.8-2.5-3.9c-0.5,2.6-1.5,4.6-3.5,6.1
		L51.4,39.5z M53.3,25.7c0.1,0.7,0.2,1.3,0.2,1.9c0,2.5-1.1,3.1-1.5,3.1c-0.3,0-0.5-0.2-0.5-0.6c0-0.2,0.1-0.6,0.4-0.8
		c0.4-0.4,1.2-1.7,1.2-3.6H53.3z M66.2,21.9l1.5,1.2c-0.1,0.3-0.3,0.4-0.8,0.4h-2.6c-0.1,0.2-0.2,0.3-0.7,0.4v13.6
		c0,1.1-0.2,1.9-1.7,2.1c0-1.2-0.5-1.3-1.7-1.4V38h1.9c0.2,0,0.3-0.1,0.3-0.4v-14h-4.8l-0.1-0.5h8L66.2,21.9z"/>
	<path d="M78.3,28.1L79,27l1.5,1.2c-0.1,0.3-0.3,0.4-0.8,0.4h-3.8v2.6h2.1l0.5-0.8l1.5,1.2c-0.1,0.1-0.4,0.3-0.7,0.4v4.4
		c0,0.9-0.1,1.6-1.3,1.8c0-0.9-0.3-1.2-1-1.3v-0.3h1c0.2,0,0.2,0,0.2-0.3v-4.7h-2.3v7.6c0,0-0.2,0.5-1.1,0.5v-8.1h-2.3v6.1
		c0,0-0.2,0.4-1.1,0.4v-7.6l1.2,0.6h2.2v-2.6h-4.2l-0.1-0.5h4.4v-2.9h-2.3c-0.4,0.9-0.8,1.8-1.3,2.4L71,27.5c0.5-1.3,1-3.5,1.2-5.6
		l1.7,0.5c-0.1,0.2-0.2,0.3-0.6,0.4c-0.2,0.7-0.4,1.3-0.6,2h2.1v-3.5l1.8,0.2c0,0.3-0.2,0.4-0.7,0.5v2.8h1.8l0.8-1.2l1.5,1.2
		c-0.1,0.3-0.3,0.4-0.8,0.4h-3.3v2.9H78.3z M82.8,23.9c0,0.3-0.2,0.4-0.7,0.5v10.4c0,0-0.2,0.4-1,0.4V23.7L82.8,23.9z M84.5,21.6
		l1.9,0.2c0,0.3-0.1,0.5-0.8,0.6v15.4c0,1-0.2,1.8-1.7,2c0-1.1-0.7-1.1-1.8-1.3v-0.3h2.1c0.3,0,0.4-0.1,0.4-0.4V21.6z"/>
	<path d="M89.3,26.2c1.1-1.4,2.3-3.5,2.9-4.9l1.5,1c-0.1,0.1-0.2,0.2-0.4,0.2c-0.1,0-0.2,0-0.3-0.1c-0.8,1.2-2.2,2.9-3.6,4
		L89.3,26.2z M98.2,28.3l0.7-1.1l1.4,1.2c-0.1,0.3-0.3,0.4-0.8,0.4h-2.3v3.1h0.9l0.7-1.1l1.4,1.2c-0.1,0.3-0.3,0.4-0.8,0.4h-2.1v3.8
		l2.9-0.6l0.1,0.3c-1.5,0.6-3.5,1.4-6.3,2.4c-0.1,0.3-0.2,0.4-0.4,0.5L92.8,37c0.3,0,0.6-0.1,1-0.2v-6.4l1.7,0.2
		c0,0.3-0.2,0.4-0.8,0.5v5.5c0.4-0.1,0.9-0.2,1.4-0.3v-7.5h-2.8l-0.1-0.5h2.9v-3.6h-1.4c-0.3,0.5-0.6,0.9-0.9,1.3l0.2,0.1
		c-0.1,0.2-0.2,0.3-0.4,0.3c-0.1,0-0.1,0-0.2,0c-0.3,0.7-0.8,1.5-1.3,2.4l0.6,0.2c-0.1,0.2-0.2,0.3-0.5,0.4v9.9
		c0,0.1-0.5,0.4-0.9,0.4h-0.2v-9.4c-0.5,0.8-1.1,1.5-1.7,2.2l-0.2-0.3c1.3-2.1,2.6-5.1,3.2-7l1,0.6c0.5-1.2,1-2.9,1.4-4.6l1.7,0.6
		c-0.1,0.2-0.2,0.3-0.6,0.3c-0.3,0.7-0.6,1.4-0.9,2.1H98l0.7-1.1l1.4,1.1c-0.1,0.3-0.3,0.4-0.8,0.4h-2v3.6H98.2z M103.9,22.4
		l1.4,1.2c-0.1,0.2-0.4,0.3-0.8,0.4v10.7c0,1-0.2,1.7-1.4,1.8c0-1-0.3-1.2-1.3-1.3v-0.3h1.4c0.2,0,0.3-0.1,0.3-0.3v-11h-2.1v15.5
		c0,0-0.1,0.5-1,0.5V22.6l1.1,0.6h1.8L103.9,22.4z"/>
	<path d="M120.7,27.4c0.1-0.3,0.6-0.4,0.9-0.4c1,0,1.9,1.1,1.9,1.6c0,0.5-0.3,0.7-1.1,0.9c-0.8,0.2-2.8,1.2-4.4,2c0,0.2,0,0.5,0,0.7
		c0,2.4-0.3,3.3-0.8,3.3c-0.3,0-0.5-0.3-0.5-0.9c0-0.1,0-0.2,0-0.4c0.1-0.9,0.2-1.5,0.2-2.2c-1.5,0.9-3,2.1-3,3.8
		c0,1.3,1.1,1.8,3.1,1.8c1.7,0,3.1-0.1,3.4-0.5c1.1,0.1,1.7,0.4,1.7,0.8c0,0.4-0.2,0.5-0.7,0.7c-0.8,0.2-2.6,0.2-3.6,0.2
		c-3.8,0-4.7-1.2-4.7-2.8c0-2,2-3.7,3.8-4.8c0-0.1,0-0.3,0-0.4c-0.1-1.5-0.7-2-1.3-2c-1.6,0-3.5,2.4-5,4.8c-0.4,0.7-0.6,1-0.9,1
		c-0.2,0-0.5-0.3-0.5-0.8c0-0.5,0.3-0.8,0.9-1.4c1.4-1.5,3-4.3,3.5-6.3c-0.5,0-1.1,0.1-1.4,0.1c-1.4,0-2.1-0.7-2.4-1.8l0.2-0.2
		c0.5,0.8,1.1,1.2,2.3,1.2c0.4,0,1.2,0,1.6-0.1c0.3-0.9,0.4-1.5,0.4-2s-0.5-0.7-0.9-0.7c-0.1,0-0.3,0-0.4,0.1l0,0
		c0.1-0.4,0.4-0.8,1-0.8c0.9,0,1.8,0.5,1.8,1c0,0.4-0.2,0.5-0.4,0.9c-0.1,0.4-0.3,0.9-0.4,1.3c0.9-0.1,2.2-0.5,2.9-0.8
		c0.4-0.2,0.8-0.4,0.9-0.8c1,0,1.7,0.1,1.7,0.7c0,0.3-0.5,0.5-0.9,0.7c-1.1,0.4-3.5,1-4.9,1.1c-0.5,1.5-1.2,2.9-1.7,3.8l0.1,0
		c1.2-1.3,2.2-1.7,2.9-1.7c1,0,1.9,0.6,2.1,2.5c1.8-1.1,3.9-2,3.9-2.5c0-0.3-0.3-0.5-0.7-0.5c-0.1,0-0.2,0-0.2,0L120.7,27.4z"/>
	<path d="M134.2,23l0.7-1.3l1.9,1.6c-0.3,0.4-1,0.6-1.8,0.7l0,1c0.6,6.4,3.3,11.1,8.2,13.4l-0.1,0.2c-0.6,0-0.9,0.4-1.2,1.1
		c-2.9-1.8-6-5.8-6.8-11h0c-1.1,5.2-3.8,8.9-7.8,11l-0.2-0.3c3.9-2.4,6.8-7.3,7.4-14.4v-1.7h-4l-0.1-0.5H134.2z"/>
	<path d="M159.2,29.1c0,0-0.1,1.2-0.2,2.4c-0.1,1.3-0.2,2.6-0.2,3.1c0,1.4,0.3,2,0.9,2c0.6,0,1.3-0.3,2.1-1.3l0.3,0.2
		c-0.7,1.5-1.5,2.4-2.7,2.4c-1.3,0-1.8-1.3-1.8-3.1c0-2,0.2-4.4,0.3-5.7c0-0.4,0-0.7,0-1.1c0-1.2-0.2-2.1-1.3-2.1
		c-1.6,0-3.6,1.6-5.6,4c0,0.5-0.1,1.4-0.1,1.9c0,1.3,0,3.1,0.1,4.7c0,0.5,0.1,1.1,0.1,1.5c0,0.5-0.4,1.1-0.8,1.1
		c-0.3,0-0.5-0.7-0.5-1.5c0-0.8-0.2-1.5-1.1-3.1l0.2-0.2c0.4,0.5,1,1.2,1.1,1.2s0.2-0.1,0.2-0.8c0-1.3,0-2.8,0.1-3.7
		c-0.9,1.1-1.7,2.3-2.3,3.3c-0.3,0.5-0.4,1-0.9,1c-0.4,0-0.6-0.4-0.6-1c0-0.3,0-0.4,0.4-0.8c1.4-1.6,3-3.5,3.4-4.8
		c0.1-0.7,0.1-1.5,0.1-2.1c-0.2,0-0.4,0.1-0.6,0.1c-1.5,0.5-1.9,0.9-1.9,1.6c0,0.2,0,0.4,0.1,0.6l-0.3,0.2c-0.2-0.7-0.5-0.9-0.5-1.5
		c0-0.7,0.3-1.2,1.1-1.5c0.7-0.2,1.4-0.4,1.9-0.5c0.1,0,0.2-0.1,0.3-0.1c0-0.5,0.1-1.3,0.1-1.8c0-1.1-0.3-1.2-1-1.2l0-0.2
		c0.2-0.3,0.6-0.5,0.9-0.5c0.6,0,1.5,0.6,1.5,1.4c0,0.5-0.3,0.6-0.4,1.3c0,0.2-0.1,0.6-0.1,0.8c0.3,0.3,0.6,0.5,0.6,0.8
		c0,0.4-0.4,0.5-0.7,1.2c-0.2,0.5-0.2,0.9-0.3,1.5c1.9-2.3,4.3-3.9,5.7-3.9c2.1,0,2.3,1.6,2.3,3.2V29.1z"/>
	<path d="M166.4,25.8c0.3,0.6,0.7,0.9,1.3,0.9c0.6,0,1.5-0.1,2-0.3c0-0.1,0.3-1.5,0.3-2.5c0-0.8-0.2-1-0.6-1c-0.2,0-0.4,0-0.7,0.1
		l-0.1-0.1c0.1-0.4,0.4-0.8,1.2-0.8c0.7,0,1.8,0.4,1.8,1.1c0,0.4-0.2,0.5-0.3,0.8c-0.1,0.3-0.2,0.8-0.5,2.1c1.6-0.5,2.6-1,2.9-1.8
		l0.2,0c0.6,0,1.6,0,1.6,0.6c0,0.5-0.6,0.8-1.6,1.2c-1,0.4-2.4,0.8-3.3,1.1c-0.6,2.5-1.9,7.1-2.3,8.6c-0.7,2.3-0.8,2.9-1.5,2.9
		c-0.3,0-0.4-0.2-0.4-0.8c0-0.3,0-0.6,0.1-1.1c0.7-1.1,1.2-2.3,1.5-3.2c0.5-1.4,1.4-4.5,1.7-6.2c-0.7,0.2-1.3,0.2-1.7,0.2
		c-1.3,0-1.7-1-1.7-1.7L166.4,25.8z M173.8,32.7c-0.3,0.7-0.6,1.4-0.6,2.1c0,2.2,2.2,2.2,3.6,2.2c0.5,0,0.9,0,1.3-0.1
		c0.3,0,0.6-0.1,0.8-0.1c0.6,0,1.2,0.4,1.2,0.8c0,0.6-0.9,0.7-2.3,0.7c-3,0-5.1-0.5-5.1-3.1c0-0.9,0.3-1.8,0.9-2.7L173.8,32.7z
		 M175.1,30.7c0.7-0.6,1.5-1.4,2.1-1.8c-1.3-0.1-2.5,0.2-3.9,1l-0.2-0.3c1.4-1.4,3-1.8,4.7-1.8c1,0,1.8,0.5,1.8,1
		c0,0.3-0.2,0.4-0.4,0.4c-0.2,0-0.3,0-0.5,0c-1,0-2.2,0.9-3.4,1.8L175.1,30.7z"/>
	<path d="M187.7,21.3l1.8,0.2c0,0.3-0.2,0.4-0.7,0.5v17.2c0,0.1-0.2,0.5-1.1,0.5v-6.6c-0.7,0.6-1.7,1.3-2.8,2.2
		c-0.1,0.2-0.2,0.4-0.3,0.5l-0.7-1.7c0.7-0.2,2.2-0.8,3.8-1.5V21.3z M184.5,24.1c1.8,1,2.4,2.3,2.4,3.1c0,0.6-0.3,1-0.6,1
		c-0.2,0-0.3-0.1-0.5-0.3c0-1.2-0.7-2.8-1.4-3.7L184.5,24.1z M200,28c-0.1,0.3-0.3,0.4-0.8,0.4h-4.3c0.5,3.3,1.7,7.3,5.1,10
		l-0.1,0.2c-0.6,0.1-0.9,0.3-1.1,1.1c-3-2.9-4-7.8-4.4-11.3h-0.1c-0.4,4.9-1.4,8.5-5,11.4l-0.3-0.3c2.9-2.9,3.9-6.4,4.2-11h-3.9
		l-0.1-0.5h4.1c0.1-2,0.1-4.2,0.1-6.6l1.9,0.1c0,0.3-0.1,0.4-0.7,0.5c0,2.2-0.1,4.2-0.2,6h3.2l0.8-1.2L200,28z M196.3,22.3
		c2.3,0.3,3,1.4,3,2.2c0,0.5-0.2,0.8-0.6,0.8c-0.1,0-0.3-0.1-0.4-0.2c-0.3-1-1.2-2-2.1-2.6L196.3,22.3z"/>
	<path d="M208,22.8c2.2,0.7,2.9,1.9,2.9,2.7c0,0.4-0.2,0.7-0.5,0.7c-0.1,0-0.3,0-0.4-0.2c-0.1-0.3-0.3-0.7-0.5-1.1
		c-1.4,0.3-3.2,0.6-5.7,1c-0.1,0.3-0.3,0.4-0.4,0.4l-0.7-1.5c0.4,0,1.1,0,1.8,0c0.4-1.1,0.8-2.5,1.1-3.6l1.8,0.7
		c-0.1,0.2-0.3,0.3-0.7,0.3c-0.4,0.8-1,1.8-1.7,2.6c1.2-0.1,2.6-0.1,4.1-0.2c-0.4-0.6-0.9-1.1-1.4-1.5L208,22.8z M205.7,35.5
		c0,0.2,0,0.4,0,0.6c0,2-1.3,2.9-2.2,2.9c-0.4,0-0.6-0.2-0.6-0.5c0-0.3,0.2-0.6,0.5-0.7c0.8-0.2,1.9-1,2-2.3H205.7z M207.1,33.1h1.5
		c0.2,0,0.3,0,0.3-0.3v-1.3H205v2.7c0,0-0.1,0.4-1,0.4v-8.4l1.1,0.6h3.6l0.5-0.8l1.4,1.2c-0.1,0.1-0.4,0.3-0.7,0.4v5.1
		c0,0.9-0.1,1.4-1.5,1.6c0-0.8-0.5-1.1-1.3-1.1V33.1z M208.9,27.4H205V29h3.9V27.4z M205,31h3.9v-1.6H205V31z M214.4,36.3v2
		c0.5,0.2,0.6,0.2,0.6,0.4c0,0.5-0.5,0.8-2,0.8h-3.8c-1.5,0-1.8-0.2-1.8-1.5v-2.7l1.6,0.2c0,0.2-0.1,0.3-0.5,0.4V38
		c0,0.4,0,0.4,0.7,0.4h3.8c0.4,0,0.5,0,0.7-0.3c0.1-0.3,0.3-0.9,0.5-1.9H214.4z M209.3,34.4c2.2,0.2,2.9,1.2,2.9,1.8
		c0,0.3-0.2,0.6-0.5,0.6c-0.1,0-0.2,0-0.3-0.1c-0.4-0.7-1.4-1.6-2.2-2.1L209.3,34.4z M218,26.1c0.5,0.2,0.6,0.2,0.6,0.4
		c0,0.5-0.5,0.8-1.9,0.8h-3.2c-1.4,0-1.7-0.3-1.7-1.6v-4.4l1.6,0.2c0,0.2-0.1,0.3-0.6,0.4V24c1.3-0.6,2.9-1.5,3.6-2.1l1,1.3
		c-0.1,0.1-0.1,0.1-0.2,0.1c-0.1,0-0.2,0-0.3-0.1c-0.9,0.4-2.6,0.9-4.1,1.2v1.3c0,0.5,0,0.5,0.7,0.5h3.2c0.3,0,0.4,0,0.6-0.2
		c0.1-0.2,0.3-0.9,0.6-1.7h0.2V26.1z M218.3,33.1c0.5,0.2,0.6,0.2,0.6,0.4c0,0.5-0.5,0.8-1.9,0.8h-3.4c-1.4,0-1.7-0.3-1.7-1.6v-4.8
		l1.6,0.2c0,0.2-0.1,0.3-0.6,0.4v2.2c1.4-0.6,3.2-1.6,4-2.2l1,1.3c-0.1,0.1-0.1,0.1-0.2,0.1c-0.1,0-0.2,0-0.3-0.1
		c-0.9,0.4-2.8,0.9-4.5,1.2v1.7c0,0.5,0,0.5,0.7,0.5h3.4c0.3,0,0.5,0,0.6-0.2c0.1-0.2,0.3-0.9,0.6-1.8h0.2L218.3,33.1z M215,35.3
		c2.9,0.5,3.8,2,3.8,2.9c0,0.5-0.2,0.8-0.5,0.8c-0.1,0-0.3,0-0.4-0.2c-0.4-1.2-1.8-2.6-2.9-3.3L215,35.3z"/>
	<path d="M223.2,24.3c0.1,0.6,0.6,1.1,1.2,1.1c0.3,0,0.9-0.1,1.4-0.2c1.4-0.3,5.5-1.2,7.8-1.5c0.5-0.1,1-0.3,1.2-0.5
		c1.4,0.3,2,0.7,2,1.3c0,0.3-0.3,0.4-0.8,0.4c-0.4,0-0.8-0.1-1.3-0.1c-1.8,0-4.2,2.1-5.1,3.8c-0.6,1-1,2.7-1,4.4
		c0,2.8,1.5,3.6,3.4,3.9c0.5,0.1,1.1,0,1.3,0.1c0.6,0.3,0.8,0.7,0.8,1.1c0,0.3-0.3,0.5-0.8,0.5c-0.2,0-0.3,0-0.5,0
		c-4.2-0.6-5.3-2.2-5.3-5.5c0-3.8,2.5-6.9,4.9-8.5l0-0.1c-2,0.2-6.4,1.3-7.3,2.1c-0.2,0.2-0.4,0.4-0.8,0.4c-0.7,0-1.7-1.1-1.7-1.9
		c0-0.4,0.1-0.7,0.3-0.9L223.2,24.3z M232.9,28.2c2,0.8,2.6,1.8,2.6,2.4c0,0.3-0.2,0.6-0.4,0.6c-0.3,0-0.4-0.2-0.6-0.5
		c-0.2-0.6-0.9-1.6-1.8-2.2L232.9,28.2z M234.7,26.5c2,0.8,2.5,1.9,2.5,2.4c0,0.3-0.2,0.6-0.4,0.6c-0.3,0-0.4-0.2-0.6-0.5
		c-0.2-0.6-0.9-1.6-1.8-2.2L234.7,26.5z"/>
	<path d="M240.6,32.5c1.8-2.1,3.7-5.1,4.6-7.3l1.6,1c-0.1,0.2-0.2,0.2-0.4,0.2c-0.1,0-0.2,0-0.3,0c-0.4,0.7-1,1.6-1.7,2.5l0.5,0.2
		c-0.1,0.2-0.2,0.3-0.5,0.4v9.8c0,0-0.2,0.4-1.1,0.4v-9.5c-0.8,0.9-1.6,1.7-2.5,2.5L240.6,32.5z M240.6,26.4
		c1.5-1.5,3.3-3.6,4.1-5.2l1.5,1.1c-0.1,0.1-0.2,0.2-0.4,0.2c-0.1,0-0.2,0-0.3,0c-1.1,1.3-3,3.1-4.8,4.2L240.6,26.4z M255.4,27.3
		l1.5,1.3c-0.1,0.3-0.3,0.4-0.8,0.4h-2.7v8.8c0,1.1-0.3,1.8-2,2c0-1.1-0.7-1.3-2.2-1.4v-0.3h2.6c0.3,0,0.4-0.1,0.4-0.3v-8.8h-5.6
		l-0.1-0.5h8L255.4,27.3z M256.1,23c-0.1,0.3-0.3,0.4-0.8,0.4h-8l-0.1-0.5h6.6l0.8-1.2L256.1,23z"/>
	<path d="M275.1,34.9l0,3.1c0.5,0.2,0.6,0.3,0.6,0.5c0,0.5-0.5,0.8-1.9,0.8h-3c-1.4,0-1.7-0.3-1.7-1.8v-7.1h-2.8
		c-0.1,0.1-0.3,0.1-0.6,0.2c-0.3,3.9-1.5,7.6-5.8,9.2l-0.2-0.3c3.5-1.6,4.6-5.1,4.8-9h-4.7l-0.1-0.5h7.3v-4.3h-3.8
		c-0.6,1.4-1.4,2.7-2.2,3.6l-0.3-0.2c1-1.6,1.8-4.4,2.3-7.2l1.8,0.6c-0.1,0.2-0.2,0.4-0.6,0.4c-0.2,0.8-0.5,1.7-0.8,2.4h3.6v-4
		l1.9,0.2c0,0.3-0.2,0.5-0.8,0.6v3.2h3.4l0.8-1.2l1.6,1.3c-0.1,0.3-0.3,0.4-0.8,0.4h-5V30h4.9l0.9-1.3l1.6,1.4
		c-0.1,0.3-0.3,0.4-0.8,0.4h-4.1c-0.1,0.1-0.2,0.1-0.5,0.2v6.9c0,0.6,0,0.6,0.6,0.6h2.9c0.3,0,0.4,0,0.6-0.4c0.1-0.3,0.3-1.6,0.6-3
		H275.1z"/>
	<path d="M284.4,23.9l1.4,1.1c-0.1,0.3-0.3,0.4-0.8,0.4h-6.4l-0.1-0.5h5.2L284.4,23.9z M279.3,27.6h3.6l0.7-1l1.3,1
		c-0.1,0.3-0.3,0.4-0.8,0.4h-4.6L279.3,27.6z M284.8,30.2c-0.1,0.3-0.3,0.4-0.8,0.4h-4.6l-0.1-0.5h3.5l0.7-1L284.8,30.2z M285,22.6
		c-0.1,0.3-0.3,0.4-0.8,0.4h-4.7l-0.1-0.5h3.5l0.7-1.1L285,22.6z M285.2,33.1c-0.1,0.2-0.4,0.3-0.7,0.4v4.9c0,0-0.3,0.4-1.1,0.4
		v-1.2h-3v1.5c0,0-0.2,0.4-1,0.4v-7.4l1.1,0.6h2.8l0.5-0.8L285.2,33.1z M280.4,37.1h3v-4h-3V37.1z M292.3,29.5l1.3,1.3
		c-0.1,0.2-0.3,0.2-0.7,0.3c-0.6,1.9-1.6,3.5-2.8,5c1.3,1.1,2.8,1.9,4.6,2.4l0,0.2c-0.5,0.1-0.9,0.5-1.1,1.1c-1.7-0.7-3.1-1.7-4.3-3
		c-1.3,1.2-2.9,2.2-5,3l-0.1-0.4c1.8-0.8,3.3-1.9,4.5-3.3c-1-1.4-1.8-3.2-2.2-5.3h-0.9l-0.1-0.5h6.1L292.3,29.5z M287.8,23.7
		c0,1.7-0.3,4.2-2.7,5.9l-0.2-0.3c1.6-1.7,1.8-3.8,1.8-5.6v-2.1l1.3,0.6h2.9l0.5-0.7l1.3,1.2c-0.1,0.1-0.3,0.2-0.6,0.3v4.2
		c0,0.3,0,0.4,0.2,0.4h0.9c0.1,0,0.2,0,0.3-0.2c0.1-0.3,0.3-1.2,0.5-1.8h0.2l0,1.9c0.3,0.2,0.4,0.2,0.4,0.5c0,0.4-0.3,0.8-1.3,0.8
		h-1.2c-1.1,0-1.2-0.3-1.2-1.6v-4.4h-3.2V23.7z M286.8,30.8c0.5,1.9,1.4,3.4,2.5,4.6c1-1.3,1.8-2.9,2.3-4.6H286.8z"/>
	<path d="M306,32.8v4.9c1,0.2,2.1,0.2,3.5,0.2c0.9,0,2.9,0,3.9,0v0.3c-0.4,0.1-0.7,0.5-0.7,1.1h-3.3c-4.3,0-6.7-0.9-8.3-4.8
		c-0.7,2.1-1.7,4-3.4,5.3l-0.2-0.3c2-2,2.9-5.7,3.2-9l1.9,0.4c-0.1,0.3-0.3,0.4-0.7,0.4c-0.1,0.9-0.3,1.8-0.6,2.7
		c0.8,1.9,2,3,3.6,3.5v-9.2h-5.2l-0.1-0.5h10l0.8-1.1l0.4,0.3c0.2-0.6,0.5-1.5,0.7-2.3H300c-0.1,1.6-0.9,2.6-1.8,2.6
		c-0.4,0-0.6-0.3-0.6-0.6c0-0.3,0.2-0.6,0.5-0.8c0.8-0.4,1.5-1.5,1.5-2.8l0.3,0c0.1,0.4,0.1,0.7,0.2,1.1h4.9v-3l1.9,0.2
		c0,0.3-0.2,0.4-0.8,0.5v2.2h5.3l0.7-0.9l1.3,1.5c-0.1,0.1-0.3,0.2-0.7,0.2c-0.4,0.7-1.2,1.6-1.8,2.1l0.9,0.7
		c-0.1,0.3-0.3,0.4-0.8,0.4H306v4.2h3.2l0.8-1.2l1.5,1.3c-0.1,0.3-0.3,0.4-0.8,0.4H306z"/>
	<path d="M319.3,23c0.2-0.5,0.7-0.8,1.1-0.8c0.8,0,1.9,0.6,1.9,1.4c0,0.5-0.3,0.5-0.6,1.8c-0.2,1.6-0.5,5.6-0.6,8.1
		c0,3,1.3,3.7,3.3,3.7c2.6,0,4.8-1.6,6.3-4.9l0.4,0.2c-1.4,4.2-3.9,5.9-6.7,5.9c-2.3,0-4.3-1-4.3-4.9c0-2.7,0.3-6.9,0.4-9.6v-0.1
		c0-0.2-0.1-0.8-0.8-0.8C319.7,23.1,319.5,23.1,319.3,23L319.3,23z"/>
	<path d="M336.7,24.3c0.1,0.6,0.6,1.1,1.2,1.1c0.3,0,0.9-0.1,1.4-0.2c1.4-0.3,5.5-1.2,7.8-1.5c0.5-0.1,1-0.3,1.2-0.5
		c1.4,0.3,2,0.7,2,1.3c0,0.3-0.3,0.4-0.7,0.4c-0.4,0-0.9-0.1-1.3-0.1c-1.8,0-4.2,2.1-5.1,3.8c-0.6,1-1,2.7-1,4.4
		c0,2.8,1.5,3.6,3.4,3.9c0.5,0.1,1.1,0,1.3,0.1c0.6,0.3,0.8,0.7,0.8,1.1c0,0.3-0.3,0.5-0.8,0.5c-0.2,0-0.3,0-0.5,0
		c-4.2-0.6-5.3-2.2-5.3-5.5c0-3.8,2.5-6.9,4.9-8.5l0-0.1c-2,0.2-6.4,1.3-7.3,2.1c-0.2,0.2-0.4,0.4-0.8,0.4c-0.7,0-1.7-1.1-1.7-1.9
		c0-0.4,0.1-0.7,0.3-0.9L336.7,24.3z"/>
	<path d="M368.5,21.6l1.7,1.4c-0.1,0.3-0.3,0.4-0.8,0.4h-6.9v4.2c4.6,1.1,6,3.1,6,4.1c0,0.4-0.2,0.6-0.5,0.6c-0.1,0-0.2,0-0.4-0.1
		c-1-1.5-3.3-3.3-5.1-4.2v11.3c0,0-0.1,0.5-1.2,0.5V23.4h-7l-0.1-0.5h13.4L368.5,21.6z"/>
	<path d="M385.4,23.9c0.7,0,1.7-0.1,1.7,0.5c0,1.1-3.7,2-5,2.3c0.4,1.8,1.4,3.7,2.7,4.5c0.5,0.3,0.6,0.8,0.6,1.3
		c0,0.4-0.3,0.6-0.6,0.6c-0.3,0-0.7-0.6-1.4-1c-0.8-0.3-1.6-0.4-2.5-0.4c-2.4,0-3.9,1.5-3.9,3.1c0,2.2,2.3,2.9,4.7,2.9
		c0.9,0,2.5-0.1,2.8-0.4c0.7,0.1,1.2,0.5,1.2,0.9c0,0.6-1.2,0.7-3.8,0.7c-3.1,0-5.8-1-5.8-3.9c0-1.8,1.4-3.9,5.1-3.9
		c0.6,0,1.4,0,2.1,0.2v-0.1c-0.7-0.7-1.4-2.1-2-4.2c-1.2,0.2-2.9,0.4-3.6,0.4c-1,0-1.7-0.1-2-0.4c-0.4-0.3-0.9-0.9-1.2-1.5l0.3-0.2
		c0.7,0.9,1.5,1.1,2.4,1.1c1,0,2.8-0.2,3.7-0.4c-0.2-0.7-0.4-1.7-0.5-2.3c-0.1-0.7-0.6-0.7-0.8-0.7c-0.2,0-0.4,0-0.7,0.2l-0.1-0.2
		c0.1-0.6,0.6-0.9,1.2-0.9c0.6,0,1.6,0.3,1.6,0.8c0,0.3-0.2,0.3-0.2,0.8v0.1c0,0.4,0.1,1.4,0.3,2.1c0.2,0,3.2-0.8,3.4-1.7
		L385.4,23.9z"/>
	<path d="M392.6,24.4c0.1-0.2,0.4-0.3,0.6-0.3c1,0,1.9,1,1.9,2c0,0.3-0.2,0.5-0.3,0.8c-0.5,1.7-0.5,4-0.5,4.6c0,2.6,1.2,4.3,1.7,4.3
		c0.2,0,0.4-0.2,0.8-0.9c0.4-0.7,1.5-2.6,2.3-4.3l0.4,0.2c-0.7,1.7-1.9,4.3-2.2,5.4c0,0.1-0.1,0.2-0.1,0.3c0,0.1,0,0.3,0.1,0.3
		c0.2,0.2,0.3,0.6,0.3,0.8c0,0.3-0.3,0.4-0.7,0.4c-0.3,0-1.1-0.4-1.7-1c-1.3-1.6-1.8-3.7-1.8-5.7c0-1.5,0.1-3.6,0.2-4.8v-0.2
		C393.7,25.3,393.5,24.5,392.6,24.4L392.6,24.4z M402.8,25.5c3.1,0.8,4.6,3.9,4.6,6.3c0,0.8-0.2,1.5-0.7,1.5c-0.3,0-0.5-0.3-0.5-0.9
		c-0.1-2.9-1.3-5.6-3.5-6.5L402.8,25.5z"/>
</g>
<g>
	<rect x="111.8" y="711.5" class="st3" width="11.4" height="49"/>
	<path d="M115,713.5c0.5-0.4,1.5-0.8,2.6-0.8c1.7,0,2.6,0.9,2.6,2c0,0.9-0.5,1.7-1.7,2v0c1.1,0.1,2,0.8,2,2.1c0,1.3-1.1,2.5-3.3,2.5
		c-1.1,0-2-0.3-2.6-0.8l0.4-1c0.4,0.3,1.2,0.7,2.1,0.7c1.3,0,1.9-0.7,1.9-1.4c0-1.1-1.1-1.4-2.1-1.4h-0.8v-1h0.8
		c0.9,0,1.9-0.5,1.9-1.4c0-0.6-0.5-1.2-1.5-1.2c-0.8,0-1.6,0.4-2,0.7L115,713.5z"/>
	<path d="M122.6,751.6h-4.5v1.3h4v6.1c0,1.1-0.6,1.1-2.4,1.1c-0.1-0.3-0.2-0.7-0.4-0.9c0.4,0,0.8,0,1.1,0c0.5,0,0.6,0,0.6-0.2v-5.1
		h-3v3.1h1.1v-2.4l1.2,0.1c0,0.1-0.1,0.1-0.3,0.2v3.7h-0.9V758H116v0.8h-0.9v-4.1l1.1,0.1c0,0.1-0.1,0.1-0.2,0.2v2.1h1.1v-3.1h-2.8
		v6.3h-1v-7.2h3.9v-1.3h-4.4v-1h9.9V751.6z"/>
</g>
<g>
	<rect x="96.8" y="711.5" class="st3" width="11.4" height="49"/>
	<path d="M99.9,718.6l1.2-0.4c0,0.3,0.1,0.5,0.2,0.9c-1.1,0.5-2.3,0.9-3.1,1.2c0,0.1-0.1,0.2-0.1,0.2l-0.5-1.2
		c0.4-0.1,0.9-0.3,1.4-0.4v-3.4h-1.2v-1h1.2V712l1.2,0.1c0,0.1-0.1,0.2-0.2,0.2v2.3h1.1v1h-1.1V718.6z M107.1,712.2
		c0,0.1-0.1,0.1-0.3,0.1c-0.2,0.3-0.5,0.8-0.7,1.1h1.4v3.9h-6.2v-3.9h1.2c-0.2-0.4-0.4-0.9-0.7-1.3l0.9-0.3c0.3,0.4,0.7,1.1,0.8,1.5
		l-0.3,0.1h2.2l-0.3-0.1c0.3-0.4,0.6-1.1,0.8-1.5L107.1,712.2z M101.8,722.1v-4.3h5.3v4.3h-1v-0.4h-3.3v0.4H101.8z M102.3,714.2v0.8
		h1.6v-0.8H102.3z M102.3,715.7v0.8h1.6v-0.8H102.3z M106.1,718.7h-3.3v0.7h3.3V718.7z M102.8,720.9h3.3v-0.7h-3.3V720.9z
		 M106.5,715v-0.8h-1.7v0.8H106.5z M106.5,716.5v-0.8h-1.7v0.8H106.5z"/>
	<path d="M99.1,756.5c0,0.1-0.1,0.1-0.2,0.1c-0.1,0.9-0.4,2-0.7,2.6c-0.2-0.1-0.5-0.3-0.7-0.4c0.3-0.6,0.5-1.7,0.6-2.6L99.1,756.5z
		 M100.9,754.7c-0.2-0.3-0.4-0.7-0.6-1l0.8-0.3c0.5,0.7,1,1.7,1.2,2.3l-0.8,0.4c0-0.2-0.1-0.4-0.2-0.6l-0.9,0.1v4.6h-0.9v-4.6
		c-0.6,0-1.1,0.1-1.5,0.1c0,0.1-0.1,0.1-0.2,0.2l-0.2-1.1l0.8,0c0.2-0.2,0.4-0.5,0.6-0.8c-0.3-0.5-0.9-1.1-1.4-1.6l0.5-0.7l0.3,0.3
		c0.4-0.6,0.7-1.4,1-2.1l1.1,0.4c0,0.1-0.1,0.1-0.3,0.1c-0.3,0.6-0.8,1.5-1.2,2.1c0.2,0.2,0.4,0.4,0.5,0.6c0.5-0.7,0.9-1.4,1.2-2
		l1,0.5c0,0.1-0.1,0.1-0.3,0.1c-0.5,0.9-1.4,2.1-2.1,3L100.9,754.7z M101.3,756.2c0.3,0.7,0.6,1.6,0.7,2.1c-0.2,0.1-0.5,0.2-0.8,0.3
		c-0.1-0.6-0.4-1.5-0.7-2.2L101.3,756.2z M107.9,752.3h-2.6v1.6h2.3v0.9h-5.5v-0.9h2.2v-1.6h-2.4v-1h2.4v-1.5l1.3,0.1
		c0,0.1-0.1,0.2-0.3,0.2v1.2h2.6V752.3z M102.4,760.1v-4.3h4.9v4.3h-1v-0.4h-2.9v0.5H102.4z M106.3,756.8h-2.9v1.9h2.9V756.8z"/>
</g>
<g>
	<rect x="155.8" y="711.5" class="st3" width="11.4" height="49"/>
	<path d="M159.8,717.1c-0.5,1.3-1.2,2.4-2,3.2l-0.9-0.6c0.8-0.7,1.5-1.7,1.9-3L159.8,717.1z M162.2,715.5v4.9c0,1.4-1.1,1.4-2.8,1.4
		c-0.1-0.3-0.2-0.7-0.3-1c0.3,0,0.7,0,1.1,0c0.7,0,0.9,0,0.9-0.4v-4.9h-3.6v-1h3.6v-2.2l1.4,0.1c0,0.1-0.1,0.2-0.3,0.2v1.9h3.6v1
		H162.2z M164.2,716.7c0.8,0.9,1.7,2.2,2.2,3.1l-1,0.6c-0.5-1-1.4-2.4-2.1-3.2L164.2,716.7z"/>
	<path d="M161,731.3l1.5,0.1c0,0.1-0.1,0.2-0.3,0.3v9H161V731.3z"/>
	<path d="M165.5,759.6c-0.2-0.4-0.4-0.8-0.6-1.2c-2.3,0.3-5.7,0.5-7.4,0.6c0,0.1-0.1,0.2-0.2,0.2l-0.4-1.3c0.3,0,0.7,0,1.1,0
		c0.7-2.1,1.7-5.3,2.2-7.4l1.4,0.4c0,0.1-0.2,0.2-0.3,0.2c-0.6,1.9-1.5,4.7-2.2,6.8c1.5-0.1,3.9-0.2,5.2-0.4
		c-0.5-0.9-1.2-1.7-1.7-2.4l0.9-0.5c1.1,1.3,2.4,3.3,3,4.6L165.5,759.6z"/>
</g>
<g>
	<rect x="140.8" y="711.5" class="st3" width="11.4" height="49"/>
	<path d="M151.9,714.9H151c-0.3,1.7-0.8,3.2-1.5,4.3c0.6,0.9,1.5,1.6,2.5,2c-0.2,0.2-0.6,0.6-0.7,0.9c-1-0.5-1.8-1.2-2.5-2
		c-0.7,0.9-1.7,1.5-2.9,2.1c-0.1-0.2-0.4-0.7-0.6-0.9c1.2-0.5,2.2-1.2,2.9-2.1c-0.5-0.8-0.8-1.8-1.1-2.8c-0.2,0.4-0.5,0.8-0.7,1.1
		c-0.2-0.1-0.5-0.4-0.7-0.5v0.2h-1v-0.3h-1.7v2.6c0,0.4,0.1,0.4,0.5,0.4h1.3c0.4,0,0.4-0.2,0.5-1.3c0.2,0.2,0.6,0.3,0.9,0.4
		c-0.1,1.5-0.4,1.9-1.3,1.9h-1.5c-1.1,0-1.4-0.3-1.4-1.4v-3.5h2.7v-2.1h-3v-1h4v3.9c0.9-1.1,1.5-2.9,1.8-4.8l1.3,0.3
		c0,0.1-0.1,0.1-0.3,0.1c-0.1,0.5-0.3,1.1-0.4,1.6h3.7V714.9z M147.8,714.9L147.8,714.9c0.2,1.3,0.6,2.4,1.1,3.3
		c0.5-0.9,0.8-2,1-3.3H147.8z"/>
	<path d="M142.8,754.4c-0.3,0.5-0.6,1-0.9,1.4c-0.1-0.3-0.3-0.8-0.5-1.1c0.9-1.1,1.8-2.9,2.3-4.8l1.2,0.4c0,0.1-0.1,0.1-0.3,0.1
		c-0.2,0.7-0.5,1.4-0.8,2.1l0.3,0.1c0,0.1-0.1,0.1-0.3,0.2v7.4h-1V754.4z M151.8,751.9h-0.9c-0.3,0.7-0.8,1.3-1.4,1.8
		c0.7,0.4,1.6,0.7,2.7,0.9c-0.2,0.2-0.5,0.6-0.6,0.8c-1.1-0.3-2-0.7-2.8-1.2c-0.8,0.5-1.7,0.9-2.7,1.2c-0.1-0.2-0.4-0.6-0.6-0.8
		c0.9-0.2,1.8-0.6,2.5-1c-0.4-0.4-0.8-0.7-1.1-1.1c-0.3,0.4-0.6,0.7-0.8,0.9c-0.2-0.1-0.4-0.4-0.6-0.5v5.3h-0.9v-7.1l1.2,0.1
		c0,0.1-0.1,0.1-0.2,0.2v1.4c0.8-0.7,1.5-1.9,2-3l1.1,0.3c0,0.1-0.1,0.1-0.3,0.1c-0.1,0.2-0.2,0.5-0.3,0.7h3.8V751.9z M152,757.6
		c0,0.1-0.1,0.1-0.3,0.1c-1.1,1.2-3.1,2-5.4,2.4c-0.1-0.3-0.3-0.6-0.5-0.8c2.2-0.3,4.1-1,5.1-2.1L152,757.6z M149.8,755.3
		c0,0.1-0.1,0.1-0.2,0.1c-0.6,0.6-1.7,1.1-2.8,1.5c-0.1-0.2-0.4-0.5-0.6-0.6c1-0.3,2.1-0.8,2.6-1.3L149.8,755.3z M150.9,756.3
		c0,0.1-0.1,0.1-0.2,0.1c-0.8,0.8-2.3,1.5-3.8,1.9c-0.1-0.2-0.3-0.5-0.5-0.7c1.4-0.3,2.9-0.9,3.6-1.7L150.9,756.3z M147.5,751.9
		L147.5,751.9c0.3,0.5,0.7,0.9,1.3,1.3c0.4-0.4,0.8-0.8,1.1-1.3H147.5z"/>
</g>
<g>
	<rect x="243.8" y="711.5" class="st3" width="11.4" height="49"/>
	<path d="M253.9,713.4c0,0.1-0.1,0.1-0.2,0.2c-0.5,4.2-1.8,6.6-5.6,8.1c-0.2-0.3-0.5-0.6-0.8-0.8c3.5-1.4,4.8-3.5,5.1-6.7h-5.8v2.9
		h-1.1v-4h7.2l0.1-0.1L253.9,713.4z"/>
	<path d="M246,751c1.1,0.3,2.4,0.9,3.2,1.5l-0.6,1c-0.8-0.6-2.1-1.1-3.2-1.5L246,751z M245.8,758.5c3.8-1.2,6.4-3.3,7.7-6.4
		c0.3,0.3,0.7,0.5,1,0.6c-1.4,3-4,5.4-7.7,6.6c0,0.1-0.1,0.2-0.2,0.3L245.8,758.5z"/>
</g>
<g>
	<rect x="228.8" y="711.5" class="st3" width="11.4" height="49"/>
	<path d="M239.5,714.1c0,0.1-0.1,0.1-0.2,0.2c-1,1.5-2.7,3.1-4.2,4.3c0.7,0.6,1.6,1.4,2.1,1.9l-1,0.8c-1.2-1.4-3.2-3.1-5-4.1
		l0.8-0.8c0.7,0.4,1.5,0.9,2.2,1.5c1.3-1,2.6-2.2,3.4-3.3H230v-1h8.4l0.2-0.1L239.5,714.1z"/>
	<path d="M231,751c1.1,0.3,2.4,0.9,3.2,1.5l-0.6,1c-0.8-0.5-2.1-1.1-3.2-1.5L231,751z M230.8,758.5c3.8-1.2,6.4-3.3,7.7-6.4
		c0.3,0.3,0.7,0.5,1,0.6c-1.4,3-4,5.4-7.7,6.6c0,0.1-0.1,0.2-0.2,0.3L230.8,758.5z"/>
</g>
<g>
	<rect x="287.8" y="711.5" class="st3" width="11.4" height="49"/>
	<path d="M298.8,716.7h-3.3c0,0.1-0.1,0.1-0.3,0.1c-0.1,0.3-0.3,0.6-0.4,0.9h3.8v0.9h-1.3c-0.2,0.7-0.5,1.3-1,1.8
		c0.8,0.3,1.5,0.7,2,1l-0.7,0.8c-0.5-0.4-1.3-0.8-2.1-1.2c-0.8,0.6-2,0.9-3.6,1.1c-0.1-0.3-0.2-0.7-0.4-0.9c1.2-0.1,2.2-0.3,2.9-0.7
		c-0.4-0.1-0.7-0.3-1-0.4l-0.1,0.2l-0.9-0.3c0.2-0.4,0.5-1,0.8-1.6H292v-0.8l-1,0.3v2.9c0,1-0.4,1.2-2,1.2c0-0.3-0.2-0.7-0.3-1
		c0.3,0,0.5,0,0.7,0h0.4c0.2,0,0.2-0.1,0.2-0.2v-2.6l-1.1,0.3c0,0.1-0.1,0.2-0.2,0.2l-0.3-1.2c0.4-0.1,1-0.2,1.6-0.3V715h-1.4v-1
		h1.4v-2.2l1.2,0.1c0,0.1-0.1,0.2-0.3,0.2v2h1.2v1H291v2l1.2-0.3l0.1,0.9l0,0h1.5l0.4-1h-2.4v-0.9h1.8c0-0.4-0.2-1.1-0.4-1.7
		l0.9-0.2c0.2,0.5,0.4,1.2,0.4,1.6l-0.9,0.2h2.8l-0.6-0.2c0.2-0.5,0.4-1.2,0.6-1.8h-4.1V713h2.4v-1.2l1.3,0.1c0,0.1-0.1,0.2-0.3,0.2
		v0.9h2.6v0.9h-1.8l1,0.2c0,0.1-0.1,0.1-0.3,0.1c-0.2,0.5-0.4,1.1-0.6,1.6h2V716.7z M294.4,718.6c-0.1,0.3-0.3,0.6-0.5,0.9
		c0.5,0.1,1,0.3,1.5,0.5c0.4-0.4,0.7-0.8,0.8-1.4H294.4z"/>
	<path d="M290,737.5c0,0.1-0.1,0.1-0.2,0.1c-0.1,0.9-0.3,2-0.6,2.6c-0.2-0.1-0.5-0.3-0.7-0.4c0.3-0.6,0.5-1.7,0.6-2.6L290,737.5z
		 M292,737.1c0-0.2-0.1-0.4-0.2-0.6l-0.7,0v4.6h-0.9v-4.6c-0.5,0-1,0.1-1.4,0.1c0,0.1-0.1,0.1-0.2,0.2l-0.2-1.1l0.7,0
		c0.2-0.3,0.4-0.5,0.6-0.9c-0.3-0.5-0.8-1.1-1.3-1.6c0.2-0.3,0.4-0.5,0.5-0.7c0.1,0.1,0.2,0.2,0.3,0.3c0.3-0.6,0.7-1.4,0.9-2l1,0.4
		c0,0.1-0.1,0.1-0.3,0.1c-0.3,0.6-0.7,1.5-1.1,2.1c0.2,0.2,0.4,0.4,0.5,0.6c0.4-0.7,0.8-1.3,1.1-1.9l1,0.5c0,0.1-0.1,0.1-0.3,0.1
		c-0.5,0.9-1.3,2.1-2.1,3l1.4,0c-0.2-0.3-0.3-0.7-0.5-1l0.7-0.3c0.4,0.7,0.8,1.6,1,2.2v-1.5h6v2.1h-1v-1.3h-4.1v1.3h-0.9v-0.4
		L292,737.1z M292.1,737.3c0.3,0.7,0.5,1.5,0.6,2.1l-0.8,0.3c-0.1-0.6-0.3-1.4-0.6-2.1L292.1,737.3z M295.3,736.7
		c0,0.1-0.1,0.1-0.2,0.2c-0.1,2.2-0.8,3.6-2.5,4.3c-0.1-0.2-0.4-0.6-0.6-0.7c1.5-0.6,2-1.9,2.1-3.8L295.3,736.7z M295.2,733.5v-0.8
		h-2.5v-0.9h2.5v-1l1.3,0.1c0,0.1-0.1,0.2-0.3,0.2v0.7h2.6v0.9h-2.6v0.8h2.1v0.9h-5.2v-0.9H295.2z M297,739.8c0,0.3,0,0.3,0.2,0.3
		h0.5c0.2,0,0.2-0.2,0.3-1.4c0.2,0.2,0.6,0.3,0.8,0.4c-0.1,1.5-0.3,1.9-1,1.9H297c-0.8,0-1-0.3-1-1.2v-3.3l1.2,0.1
		c0,0.1-0.1,0.1-0.2,0.2V739.8z"/>
	<path d="M288.7,751.4v-1h5.5v1h-2.6c-0.1,0.5-0.3,1-0.5,1.5h2.1l0.2,0l0.6,0.3c0,0.1-0.1,0.1-0.1,0.2c-0.6,3.4-2,5.7-4.1,6.9
		c-0.2-0.2-0.6-0.6-0.8-0.8c1-0.5,1.9-1.4,2.6-2.5c-0.5-0.4-1.2-0.9-1.7-1.2l0.5-0.8c0.5,0.3,1.2,0.7,1.7,1.1
		c0.3-0.6,0.5-1.4,0.7-2.2h-2.1c-0.4,1-1,1.9-1.7,2.6c-0.2-0.2-0.5-0.5-0.7-0.7c1.1-1.1,1.8-2.8,2.2-4.4H288.7z M295.9,751.2
		c0,0.1-0.1,0.2-0.3,0.2v5.9h-1v-6.1L295.9,751.2z M297.3,750.1l1.3,0.1c0,0.1-0.1,0.2-0.3,0.2v8.5c0,1.2-0.5,1.3-2.6,1.3
		c-0.1-0.3-0.2-0.7-0.4-1c0.4,0,0.7,0,1,0h0.6c0.2,0,0.3-0.1,0.3-0.3V750.1z"/>
</g>
<g>
	<rect x="272.8" y="711.5" class="st3" width="11.4" height="49"/>
	<path d="M283.8,719.6v0.9h-4.5v1.6h-1.1v-1.6h-4.4v-0.9h4.4v-0.8h-3.3v-4.4h3.3v-0.7H274v-1h4.1v-1l1.3,0.1c0,0.1-0.1,0.2-0.3,0.2
		v0.7h4.2v1h-4.2v0.7h3.4v4.4h-3.4v0.8H283.8z M275.9,715.3v0.9h2.3v-0.9H275.9z M275.9,718h2.3v-0.9h-2.3V718z M281.6,715.3h-2.3
		v0.9h2.3V715.3z M281.6,718v-0.9h-2.3v0.9H281.6z"/>
	<path d="M276.1,735.2v3.6c0.7,1.2,2.2,1.2,4.1,1.2c1.3,0,2.8,0,3.7-0.1c-0.1,0.2-0.3,0.7-0.3,1c-0.8,0-2.1,0.1-3.2,0.1
		c-2.4,0-3.7,0-4.8-1.3c-0.5,0.5-1,0.9-1.5,1.3c0,0.1,0,0.2-0.1,0.2l-0.5-1.1c0.5-0.3,1.1-0.7,1.6-1.2v-2.7h-1.4v-1H276.1z
		 M274.6,731.1c0.7,0.5,1.5,1.3,1.8,1.8l-0.9,0.7c-0.3-0.6-1.1-1.4-1.8-1.9L274.6,731.1z M278,733.6v0.5c0,1.5-0.1,3.7-1,5.2
		c-0.2-0.2-0.6-0.4-0.8-0.5c0.8-1.4,0.9-3.3,0.9-4.7v-2.8h6.4v2.3h-1.4l0.9,0.3c0,0.1-0.1,0.1-0.3,0.1c-0.1,0.2-0.4,0.5-0.5,0.8h1.3
		v0.8h-2.2v0.6h1.9v0.7h-1.9v0.6h2.4v0.8h-2.4v1.3h-1v-1.3h-2.4v-0.8h2.4v-0.6h-1.9v-0.7h1.9v-0.6h-2.1v-0.8h1.2
		c-0.1-0.3-0.3-0.6-0.5-0.9l0.8-0.3c0.3,0.3,0.6,0.8,0.7,1.1l-0.2,0.1h1.3l-0.1,0c0.2-0.3,0.5-0.8,0.6-1.2H278z M282.4,732H278v0.8
		h4.4V732z"/>
	<path d="M276.7,753.7l0.6,0.2c0,0.1,0,0.1-0.1,0.2c-0.2,1.5-0.5,2.7-1,3.7c1.1,0.9,2.6,1.1,4.3,1.1c0.5,0,2.8,0,3.4,0
		c-0.2,0.2-0.3,0.7-0.4,1h-3.1c-1.9,0-3.5-0.2-4.7-1.2c-0.4,0.7-0.9,1.2-1.5,1.6c-0.2-0.2-0.6-0.6-0.8-0.7c0.6-0.4,1.1-0.9,1.6-1.6
		c-0.5-0.6-0.8-1.3-1.1-2.3l0.8-0.3c0.2,0.7,0.5,1.2,0.8,1.6c0.3-0.7,0.5-1.5,0.6-2.4h-1.3l-0.2,0.4l-1-0.3c0.6-1,1.3-2.4,1.8-3.3
		h-1.9v-0.9h2.5c0.1,0,0.1,0,0.2,0c0.2,0.1,0.4,0.1,0.6,0.3c0,0.1-0.1,0.1-0.1,0.2c-0.3,0.7-0.9,1.7-1.4,2.8h1.1L276.7,753.7z
		 M280.3,756.8v-5.4c-0.8,0.1-1.7,0.2-2.5,0.3c0-0.3-0.2-0.6-0.3-0.9c1.9-0.2,4.1-0.6,5.3-1l0.8,0.9c-0.1,0-0.1,0-0.3,0
		c-0.5,0.2-1.1,0.3-1.8,0.4c0,0.1-0.1,0.1-0.3,0.2v2.1h2.3v0.9h-2.3v2.4h2.5v0.9h-6.5v-0.9h0.9v-4l1.2,0.1c0,0.1-0.1,0.2-0.3,0.2
		v3.8H280.3z"/>
</g>
<g>
	<rect x="331.8" y="711.5" class="st3" width="11.4" height="49"/>
	<path d="M342.8,718.2v0.8h-1.2v2h-1.1v-0.5h-2.4v0.5c0,1-0.5,1.1-2.4,1.1c-0.1-0.3-0.2-0.6-0.4-0.8c0.3,0,0.6,0,0.9,0
		c0.7,0,0.8,0,0.8-0.3v-0.5h-3.5v-0.8h3.5v-0.7h-4.5v-0.8h4.5v-0.6h-3.4v-0.7h3.4v-0.6H334V714h3.1v-0.5h-4.3v-0.8h4.3v-0.8l1.3,0.1
		c0,0.1-0.1,0.2-0.3,0.2v0.6h4.4v0.8h-4.4v0.5h3.3v2.2h-3.3v0.6h3.4v1.4H342.8z M335,715.6h2.1v-0.8H335V715.6z M340.4,714.7h-2.2
		v0.8h2.2V714.7z M338.2,717.6v0.6h2.4v-0.6H338.2z M340.5,719.8v-0.7h-2.4v0.7H340.5z"/>
	<path d="M342.8,752.9H342c-0.3,1.7-0.7,3.2-1.5,4.4c0.6,0.9,1.4,1.6,2.4,2c-0.3,0.2-0.6,0.6-0.7,0.9c-0.9-0.5-1.7-1.2-2.3-2
		c-0.7,0.8-1.6,1.5-2.8,2c-0.1-0.3-0.4-0.7-0.6-0.9c1.2-0.5,2.1-1.1,2.8-2c-0.4-0.8-0.8-1.8-1-2.8c-0.2,0.3-0.4,0.6-0.6,0.9
		c-0.1-0.1-0.3-0.3-0.5-0.5v4.1H334v0.7h-1v-4.8h1.5v-1.9h-2v-1h2v-2.1l1.3,0.1c0,0.1-0.1,0.2-0.3,0.2v1.9h2v1h-2v1.9h1.5l-0.2-0.1
		c0.9-1.1,1.5-2.9,1.8-4.9l1.3,0.3c0,0.1-0.1,0.1-0.3,0.1c-0.1,0.5-0.2,1.1-0.4,1.6h3.6V752.9z M336.1,758v-2.2H334v2.2H336.1z
		 M338.9,752.9L338.9,752.9c0.2,1.3,0.5,2.4,1,3.3c0.5-0.9,0.8-2,1-3.3H338.9z"/>
</g>
<g>
	<rect x="316.8" y="711.5" class="st3" width="11.4" height="49"/>
	<path d="M325.8,716.7h-1.2v1.5h2.5v1h-2.5v1.5c0,0.4,0.1,0.4,0.4,0.4h1.1c0.3,0,0.4-0.2,0.4-1.3c0.2,0.2,0.6,0.4,0.9,0.4
		c-0.1,1.5-0.4,1.9-1.3,1.9h-1.4c-1.1,0-1.3-0.3-1.3-1.4v-1.5h-1.8c-0.2,1.2-0.9,2.3-3,3c-0.1-0.2-0.5-0.6-0.7-0.8
		c1.7-0.6,2.4-1.4,2.6-2.2h-2.4v-1h2.5v-1.5h-1.1v-0.4c-0.5,0.4-1,0.7-1.6,0.9c-0.1-0.2-0.4-0.6-0.6-0.8c0.7-0.3,1.4-0.8,2-1.3
		c-0.3-0.3-0.8-0.8-1.2-1.1l0.7-0.5c0.4,0.3,0.9,0.7,1.2,1c0.4-0.4,0.7-0.9,0.9-1.3h-2.6v-0.9h3.2l0.2,0c0.3,0.2,0.5,0.3,0.7,0.4
		c0,0.1-0.1,0.1-0.1,0.1c-0.4,1.2-1.1,2.2-2,3h4.7c-1-1-1.8-2.2-2.3-3.6l0.9-0.3c0.2,0.5,0.4,0.9,0.6,1.3c0.4-0.4,0.9-0.8,1.2-1.2
		l0.9,0.7c0,0-0.1,0.1-0.2,0.1c0,0-0.1,0-0.1,0c-0.4,0.3-0.9,0.8-1.4,1.1c0.2,0.3,0.4,0.5,0.6,0.7c0.5-0.4,1.1-0.9,1.5-1.3l0.9,0.6
		c0,0.1-0.1,0.1-0.3,0.1c-0.4,0.3-1,0.8-1.5,1.2c0.6,0.5,1.2,0.9,1.9,1.2c-0.2,0.2-0.6,0.6-0.7,0.9c-0.5-0.2-1-0.6-1.5-0.9V716.7z
		 M323.5,718.2v-1.5h-1.7v1.5H323.5z"/>
	<path d="M323.3,758.8h4.5v1h-10v-1h4.4v-2.6H319v-1h3.2V753h-2.5c-0.4,0.7-0.8,1.4-1.2,1.9c-0.2-0.2-0.6-0.5-0.9-0.6
		c0.9-1,1.6-2.6,2-4.3l1.3,0.4c0,0.1-0.1,0.1-0.3,0.1c-0.1,0.5-0.3,1-0.5,1.5h2.1v-2.1l1.3,0.1c0,0.1-0.1,0.2-0.3,0.2v1.9h3.9v1
		h-3.9v2.2h3.5v1h-3.5V758.8z"/>
</g>
<g>
</g>
<g>
</g>
<g>
</g>
<g>
</g>
<g>
</g>
<g>
</g>
<g>
</g>
<g>
</g>
<g>
</g>
<g>
</g>
<g>
</g>
<g>
</g>
<g>
</g>
<g>
</g>
<g>
</g>
<g>
</g>
<g>
</g>
<g>
</g>
</svg>
