<?xml version="1.0" encoding="utf-8"?>
<!-- Generator: Adobe Illustrator 16.0.0, SVG Export Plug-In . SVG Version: 6.00 Build 0)  -->
<!DOCTYPE svg PUBLIC "-//W3C//DTD SVG 1.1//EN" "http://www.w3.org/Graphics/SVG/1.1/DTD/svg11.dtd">
<svg version="1.1" id="レイヤー_1" xmlns="http://www.w3.org/2000/svg" xmlns:xlink="http://www.w3.org/1999/xlink" x="0px"
	 y="0px" width="471px" height="39.3px" viewBox="0 0 471 39.3" style="enable-background:new 0 0 471 39.3;" xml:space="preserve">
<style type="text/css">
<![CDATA[
	.st0{fill:#FFFFFF;stroke:#0000FF;stroke-miterlimit:10;}
	.st1{fill:#2B95FF;}
	.st2{fill:none;}
	.st3{fill:#FFBB99;stroke:#000000;stroke-miterlimit:10;}
	.st4{fill:#0000FF;}
	.st5{stroke:#000000;stroke-miterlimit:10;}
	.st6{fill:#99EE99;stroke:#000000;stroke-miterlimit:10;}
]]>
</style>
<rect x="0.5" y="8.8" class="st6" width="90" height="30"/>
<rect x="9" y="2.3" width="11" height="6"/>
<rect x="95.5" y="8.8" class="st3" width="90" height="30"/>
<rect x="190.5" y="8.8" class="st3" width="90" height="30"/>
<rect x="285.5" y="8.8" class="st3" width="90" height="30"/>
<rect x="380.5" y="8.8" class="st6" width="90" height="30"/>
<g>
	<rect x="95.3" y="15.2" class="st2" width="62.1" height="17.2"/>
	<path d="M106.1,31.1v-1.6h0.1c0.5,0.2,1.1,0.4,1.7,0.4c2.7,0,4.2-1.6,4.5-4.7c-1.2,0.7-2.3,1.1-3.2,1.1c-1.3,0-2.4-0.4-3.2-1.1
		c-0.8-0.7-1.2-1.8-1.2-3c0-1.3,0.4-2.4,1.3-3.3s1.9-1.3,3.2-1.3c1.5,0,2.6,0.5,3.5,1.5c0.8,1,1.3,2.5,1.3,4.6
		c0,2.4-0.6,4.3-1.7,5.7s-2.7,2-4.8,2C107.1,31.3,106.5,31.2,106.1,31.1z M112.4,24.1l0-0.8c0-1.4-0.3-2.5-0.8-3.3
		c-0.5-0.8-1.3-1.1-2.3-1.1c-0.9,0-1.6,0.3-2.1,0.8c-0.5,0.6-0.8,1.3-0.8,2.3c0,0.8,0.2,1.5,0.7,2.1c0.5,0.5,1.3,0.8,2.4,0.8
		C110.5,24.9,111.4,24.6,112.4,24.1z"/>
	<path d="M125.3,31h-8.9v-1.7c0.9-0.8,2-1.7,3.2-2.8s2-2,2.6-2.8s0.9-1.6,0.9-2.4c0-0.7-0.2-1.3-0.7-1.7s-1.1-0.6-1.9-0.6
		c-1.2,0-2.4,0.4-3.5,1.1h-0.1v-1.7c1.2-0.6,2.4-0.8,3.7-0.8c1.3,0,2.4,0.3,3.2,1c0.8,0.6,1.2,1.5,1.2,2.6c0,0.6-0.1,1.2-0.3,1.7
		s-0.5,1.1-0.9,1.6s-0.9,1.1-1.5,1.6s-1.9,1.8-4,3.5h7.3V31z"/>
	<path d="M135.7,31h-7v-1.2h2.8v-9.1h-2.8v-1.1c1.1,0,1.8-0.2,2.3-0.5c0.5-0.3,0.7-0.8,0.8-1.4h1.2v12.1h2.7V31z"/>
	<path d="M143.1,31.3c-1.6,0-2.7-0.6-3.4-1.7s-1.1-2.9-1.1-5.2s0.4-4.1,1.1-5.2s1.9-1.7,3.4-1.7c1.5,0,2.7,0.6,3.4,1.7
		c0.7,1.1,1.1,2.9,1.1,5.2c0,2.4-0.4,4.1-1.1,5.2C145.8,30.8,144.7,31.3,143.1,31.3z M143.1,18.9c-1,0-1.7,0.4-2.2,1.2
		c-0.5,0.8-0.7,2.2-0.7,4.4c0,2.1,0.2,3.5,0.7,4.3s1.2,1.2,2.2,1.2s1.7-0.4,2.2-1.2s0.7-2.3,0.7-4.4c0-2.1-0.2-3.5-0.7-4.3
		C144.8,19.3,144.1,18.9,143.1,18.9z"/>
</g>
<rect x="152.5" y="15.8" class="st0" width="31" height="17"/>
<g>
	<rect x="152.2" y="17.1" class="st2" width="31.1" height="14.4"/>
	<path class="st4" d="M154.7,28.6l-0.3-0.8c1.3-0.3,2.6-0.7,4-1.3l0.2,0.7C157.7,27.6,156.4,28.1,154.7,28.6z M156.7,30.2l-0.1-0.9
		h1.3c0.6,0,1-0.3,1.1-0.8c0.1-0.5,0.2-1.8,0.2-3.7v-0.9H155l0.3-3.2h3.6v-1.5h-4v-0.8h5v3.1h-3.7l-0.2,1.7h4.1v2
		c0,0.7,0,1.4-0.1,2.1c0,0.7-0.1,1.2-0.2,1.6c-0.1,0.4-0.2,0.7-0.3,0.8c-0.1,0.1-0.3,0.3-0.5,0.4c-0.2,0.1-0.5,0.2-0.8,0.2H156.7z
		 M156.7,26.3l-1.4-1.7l0.8-0.5l1.4,1.6L156.7,26.3z M160.9,28.6l-0.3-0.8c1.4-0.4,2.8-0.8,4-1.3l0.2,0.8c-0.4,0.2-1,0.4-1.9,0.7
		C162.2,28.3,161.5,28.5,160.9,28.6z M162.9,30.2l-0.1-0.9h1.3c0.6,0,1-0.3,1.1-0.8c0.1-0.5,0.2-1.8,0.2-3.7v-0.9h-4.2l0.3-3.2h3.7
		v-1.5h-4v-0.8h5.1v3.1h-3.7l-0.2,1.7h4.2v1.4c0,1.4,0,2.5-0.1,3.2c-0.1,0.7-0.2,1.2-0.2,1.5c-0.1,0.3-0.3,0.6-0.6,0.7
		c-0.3,0.2-0.7,0.3-1,0.3H162.9z M163,26.3l-1.4-1.7l0.8-0.5l1.4,1.6L163,26.3z"/>
	<path class="st1" d="M169.1,29.1l-1-0.6c0.3-0.5,0.7-1.2,1.2-2.1c0.4-0.9,0.8-1.7,1-2.4l0.9,0.4c-0.2,0.7-0.6,1.5-1,2.5
		S169.4,28.6,169.1,29.1z M170.3,21.5c-0.6-0.8-1.2-1.6-1.9-2.3l0.9-0.6c0.6,0.6,1.3,1.3,1.9,2.2L170.3,21.5z M176.7,17.8
		c0.5,0.9,1.3,1.7,2.2,2.4s1.8,1.3,2.6,1.7l-0.7,0.8c-0.8-0.4-1.7-1.1-2.7-1.8c-0.9-0.8-1.7-1.6-2.2-2.3c-0.5,0.8-1.2,1.6-2.1,2.4
		c-0.9,0.8-1.8,1.4-2.6,1.8l-0.5-0.7c0.8-0.4,1.6-1,2.4-1.8s1.6-1.6,2.1-2.5H176.7z M174.6,30.2v-5.3H172v-0.9h8.3v4
		c0,0.3-0.1,0.6-0.4,0.8c-0.2,0.2-0.5,0.3-0.9,0.3h-1.7l-0.1-0.9h1.4c0.2,0,0.3-0.1,0.4-0.2c0.1-0.1,0.2-0.2,0.2-0.4v-2.8h-3.5v5.3
		H174.6z M173.3,22.5v-0.8h5.8v0.8H173.3z"/>
</g>
<g>
	<rect x="380.1" y="15.2" class="st2" width="90.3" height="17.2"/>
	<path d="M405,31.1v-1.6h0.1c0.5,0.2,1.1,0.4,1.7,0.4c2.7,0,4.2-1.6,4.5-4.7c-1.2,0.7-2.3,1.1-3.2,1.1c-1.3,0-2.4-0.4-3.2-1.1
		c-0.8-0.7-1.2-1.8-1.2-3c0-1.3,0.4-2.4,1.3-3.3s1.9-1.3,3.2-1.3c1.5,0,2.6,0.5,3.5,1.5c0.8,1,1.3,2.5,1.3,4.6
		c0,2.4-0.6,4.3-1.7,5.7s-2.7,2-4.8,2C406,31.3,405.4,31.2,405,31.1z M411.3,24.1l0-0.8c0-1.4-0.3-2.5-0.8-3.3
		c-0.5-0.8-1.3-1.1-2.3-1.1c-0.9,0-1.6,0.3-2.1,0.8c-0.5,0.6-0.8,1.3-0.8,2.3c0,0.8,0.2,1.5,0.7,2.1c0.5,0.5,1.3,0.8,2.4,0.8
		C409.4,24.9,410.3,24.6,411.3,24.1z"/>
	<path d="M423.4,31h-7v-1.2h2.8v-9.1h-2.8v-1.1c1.1,0,1.8-0.2,2.3-0.5c0.5-0.3,0.7-0.8,0.8-1.4h1.2v12.1h2.7V31z"/>
	<path d="M434.6,31h-7v-1.2h2.8v-9.1h-2.8v-1.1c1.1,0,1.8-0.2,2.3-0.5c0.5-0.3,0.7-0.8,0.8-1.4h1.2v12.1h2.7V31z"/>
	<path d="M442,31.3c-1.6,0-2.7-0.6-3.4-1.7s-1.1-2.9-1.1-5.2s0.4-4.1,1.1-5.2c0.7-1.1,1.9-1.7,3.4-1.7c1.5,0,2.7,0.6,3.4,1.7
		c0.7,1.1,1.1,2.9,1.1,5.2c0,2.4-0.4,4.1-1.1,5.2C444.7,30.8,443.6,31.3,442,31.3z M442,18.9c-1,0-1.7,0.4-2.2,1.2
		c-0.5,0.8-0.7,2.2-0.7,4.4c0,2.1,0.2,3.5,0.7,4.3S441,30,442,30s1.7-0.4,2.2-1.2c0.4-0.8,0.7-2.3,0.7-4.4c0-2.1-0.2-3.5-0.7-4.3
		C443.7,19.3,443,18.9,442,18.9z"/>
</g>
<g>
	<rect x="285.2" y="15.2" class="st2" width="90.3" height="17.2"/>
	<path d="M310.1,31.1v-1.6h0.1c0.5,0.2,1.1,0.4,1.7,0.4c2.7,0,4.2-1.6,4.5-4.7c-1.2,0.7-2.3,1.1-3.2,1.1c-1.3,0-2.4-0.4-3.2-1.1
		c-0.8-0.7-1.2-1.8-1.2-3c0-1.3,0.4-2.4,1.3-3.3s1.9-1.3,3.2-1.3c1.5,0,2.6,0.5,3.5,1.5c0.8,1,1.3,2.5,1.3,4.6
		c0,2.4-0.6,4.3-1.7,5.7s-2.7,2-4.8,2C311.1,31.3,310.5,31.2,310.1,31.1z M316.4,24.1l0-0.8c0-1.4-0.3-2.5-0.8-3.3
		c-0.5-0.8-1.3-1.1-2.3-1.1c-0.9,0-1.6,0.3-2.1,0.8c-0.5,0.6-0.8,1.3-0.8,2.3c0,0.8,0.2,1.5,0.7,2.1c0.5,0.5,1.3,0.8,2.4,0.8
		C314.5,24.9,315.4,24.6,316.4,24.1z"/>
	<path d="M328.2,17.8v1.6h-0.1c-0.5-0.2-1.1-0.4-1.7-0.4c-1.3,0-2.3,0.4-3.1,1.2c-0.8,0.8-1.2,2-1.4,3.4c1.1-0.7,2.2-1,3.2-1
		c1.3,0,2.3,0.4,3.1,1.1c0.8,0.7,1.2,1.7,1.2,3.1c0,1.3-0.4,2.4-1.3,3.3s-1.9,1.3-3.2,1.3c-1.5,0-2.7-0.5-3.5-1.6
		c-0.8-1-1.2-2.5-1.2-4.5c0-2.4,0.6-4.3,1.7-5.7c1.1-1.3,2.7-2,4.8-2C327.3,17.5,327.8,17.6,328.2,17.8z M321.9,24.7
		c0,0.5,0,0.8,0,0.9c0,1.4,0.3,2.5,0.8,3.2c0.5,0.8,1.3,1.1,2.3,1.1c0.9,0,1.6-0.3,2.1-0.8c0.5-0.6,0.8-1.3,0.8-2.3
		c0-0.8-0.2-1.5-0.7-2s-1.3-0.8-2.4-0.8C323.8,24,322.8,24.2,321.9,24.7z"/>
	<path d="M339.7,31h-7v-1.2h2.8v-9.1h-2.8v-1.1c1.1,0,1.8-0.2,2.3-0.5c0.5-0.3,0.7-0.8,0.8-1.4h1.2v12.1h2.7V31z"/>
	<path d="M347.1,31.3c-1.6,0-2.7-0.6-3.4-1.7s-1.1-2.9-1.1-5.2s0.4-4.1,1.1-5.2s1.9-1.7,3.4-1.7c1.5,0,2.7,0.6,3.4,1.7
		c0.7,1.1,1.1,2.9,1.1,5.2c0,2.4-0.4,4.1-1.1,5.2C349.8,30.8,348.7,31.3,347.1,31.3z M347.1,18.9c-1,0-1.7,0.4-2.2,1.2
		c-0.5,0.8-0.7,2.2-0.7,4.4c0,2.1,0.2,3.5,0.7,4.3s1.2,1.2,2.2,1.2s1.7-0.4,2.2-1.2s0.7-2.3,0.7-4.4c0-2.1-0.2-3.5-0.7-4.3
		C348.8,19.3,348.1,18.9,347.1,18.9z"/>
</g>
<g>
	<rect x="0.2" y="15.2" class="st2" width="90.3" height="17.2"/>
	<path d="M25.1,31.1v-1.6h0.1c0.5,0.2,1.1,0.4,1.7,0.4c2.7,0,4.2-1.6,4.5-4.7c-1.2,0.7-2.3,1.1-3.2,1.1c-1.3,0-2.4-0.4-3.2-1.1
		c-0.8-0.7-1.2-1.8-1.2-3c0-1.3,0.4-2.4,1.3-3.3s1.9-1.3,3.2-1.3c1.5,0,2.6,0.5,3.5,1.5c0.8,1,1.3,2.5,1.3,4.6
		c0,2.4-0.6,4.3-1.7,5.7s-2.7,2-4.8,2C26.1,31.3,25.5,31.2,25.1,31.1z M31.4,24.1l0-0.8c0-1.4-0.3-2.5-0.8-3.3
		c-0.5-0.8-1.3-1.1-2.3-1.1c-0.9,0-1.6,0.3-2.1,0.8c-0.5,0.6-0.8,1.3-0.8,2.3c0,0.8,0.2,1.5,0.7,2.1c0.5,0.5,1.3,0.8,2.4,0.8
		C29.5,24.9,30.4,24.6,31.4,24.1z"/>
	<path d="M39.7,31.3c-1.6,0-2.7-0.6-3.4-1.7s-1.1-2.9-1.1-5.2s0.4-4.1,1.1-5.2s1.9-1.7,3.4-1.7c1.5,0,2.7,0.6,3.4,1.7
		c0.7,1.1,1.1,2.9,1.1,5.2c0,2.4-0.4,4.1-1.1,5.2C42.4,30.8,41.3,31.3,39.7,31.3z M39.7,18.9c-1,0-1.7,0.4-2.2,1.2
		c-0.5,0.8-0.7,2.2-0.7,4.4c0,2.1,0.2,3.5,0.7,4.3s1.2,1.2,2.2,1.2s1.7-0.4,2.2-1.2s0.7-2.3,0.7-4.4c0-2.1-0.2-3.5-0.7-4.3
		C41.5,19.3,40.8,18.9,39.7,18.9z"/>
	<path d="M54.7,31h-7v-1.2h2.8v-9.1h-2.8v-1.1c1.1,0,1.8-0.2,2.3-0.5c0.5-0.3,0.7-0.8,0.8-1.4H52v12.1h2.7V31z"/>
	<path d="M62.1,31.3c-1.6,0-2.7-0.6-3.4-1.7s-1.1-2.9-1.1-5.2s0.4-4.1,1.1-5.2s1.9-1.7,3.4-1.7c1.5,0,2.7,0.6,3.4,1.7
		c0.7,1.1,1.1,2.9,1.1,5.2c0,2.4-0.4,4.1-1.1,5.2C64.8,30.8,63.7,31.3,62.1,31.3z M62.1,18.9c-1,0-1.7,0.4-2.2,1.2
		c-0.5,0.8-0.7,2.2-0.7,4.4c0,2.1,0.2,3.5,0.7,4.3s1.2,1.2,2.2,1.2s1.7-0.4,2.2-1.2s0.7-2.3,0.7-4.4c0-2.1-0.2-3.5-0.7-4.3
		C63.8,19.3,63.1,18.9,62.1,18.9z"/>
</g>
<g>
	<rect x="190" y="15.2" class="st2" width="90.3" height="17.2"/>
	<path d="M214.9,31.1v-1.6h0.1c0.5,0.2,1.1,0.4,1.7,0.4c2.7,0,4.2-1.6,4.5-4.7c-1.2,0.7-2.3,1.1-3.2,1.1c-1.3,0-2.4-0.4-3.2-1.1
		c-0.8-0.7-1.2-1.8-1.2-3c0-1.3,0.4-2.4,1.3-3.3s1.9-1.3,3.2-1.3c1.5,0,2.6,0.5,3.5,1.5c0.8,1,1.3,2.5,1.3,4.6
		c0,2.4-0.6,4.3-1.7,5.7s-2.7,2-4.8,2C215.9,31.3,215.4,31.2,214.9,31.1z M221.2,24.1l0-0.8c0-1.4-0.3-2.5-0.8-3.3
		c-0.5-0.8-1.3-1.1-2.3-1.1c-0.9,0-1.6,0.3-2.1,0.8c-0.5,0.6-0.8,1.3-0.8,2.3c0,0.8,0.2,1.5,0.7,2.1c0.5,0.5,1.3,0.8,2.4,0.8
		C219.3,24.9,220.3,24.6,221.2,24.1z"/>
	<path d="M234.4,27.2h-1.9V31h-1.6v-3.8h-6.4v-1.8l6.4-7.6h1.5v8.1h1.9V27.2z M230.9,25.9v-6.2l-5.3,6.2H230.9z"/>
	<path d="M244.6,31h-7v-1.2h2.8v-9.1h-2.8v-1.1c1.1,0,1.8-0.2,2.3-0.5c0.5-0.3,0.7-0.8,0.8-1.4h1.2v12.1h2.7V31z"/>
	<path d="M252,31.3c-1.6,0-2.7-0.6-3.4-1.7s-1.1-2.9-1.1-5.2s0.4-4.1,1.1-5.2s1.9-1.7,3.4-1.7c1.5,0,2.7,0.6,3.4,1.7
		c0.7,1.1,1.1,2.9,1.1,5.2c0,2.4-0.4,4.1-1.1,5.2C254.6,30.8,253.5,31.3,252,31.3z M252,18.9c-1,0-1.7,0.4-2.2,1.2
		c-0.5,0.8-0.7,2.2-0.7,4.4c0,2.1,0.2,3.5,0.7,4.3s1.2,1.2,2.2,1.2s1.7-0.4,2.2-1.2s0.7-2.3,0.7-4.4c0-2.1-0.2-3.5-0.7-4.3
		C253.7,19.3,253,18.9,252,18.9z"/>
</g>
<rect x="75" y="2.3" width="11" height="6"/>
<rect x="53" y="2.3" width="11" height="6"/>
<rect x="31" y="2.3" width="11" height="6"/>
<rect x="304" y="2.3" width="11" height="6"/>
<rect x="316" y="2.3" width="11" height="6"/>
<rect x="338" y="2.3" width="11" height="6"/>
<rect x="360" y="2.3" width="11" height="6"/>
<rect x="385" y="2.3" width="11" height="6"/>
<rect x="407" y="2.3" width="11" height="6"/>
<rect x="429" y="2.3" width="11" height="6"/>
<rect x="451" y="2.3" width="11" height="6"/>
<line class="st5" x1="294.7" y1="0.4" x2="287.7" y2="4.5"/>
<line class="st5" x1="287.7" y1="4.5" x2="293.7" y2="7.5"/>
<line class="st5" x1="199.7" y1="0.4" x2="192.7" y2="4.5"/>
<line class="st5" x1="192.7" y1="4.5" x2="198.7" y2="7.5"/>
<line class="st5" x1="104.7" y1="0.4" x2="97.7" y2="4.5"/>
<line class="st5" x1="97.7" y1="4.5" x2="103.7" y2="7.5"/>
<rect x="126" y="2.3" width="11" height="6"/>
<rect x="148" y="2.3" width="11" height="6"/>
<rect x="170" y="2.3" width="11" height="6"/>
<rect x="114" y="2.3" width="11" height="6"/>
<rect x="209" y="2.3" width="11" height="6"/>
<rect x="221" y="2.3" width="11" height="6"/>
<rect x="243" y="2.3" width="11" height="6"/>
<rect x="265" y="2.3" width="11" height="6"/>
<g>
</g>
<g>
</g>
<g>
</g>
<g>
</g>
<g>
</g>
<g>
</g>
<g>
</g>
<g>
</g>
<g>
</g>
<g>
</g>
<g>
</g>
<g>
</g>
<g>
</g>
<g>
</g>
<g>
</g>
<g>
</g>
<g>
</g>
<g>
</g>
</svg>
