<?xml version="1.0" encoding="utf-8"?>
<!-- Generator: Adobe Illustrator 16.0.0, SVG Export Plug-In . SVG Version: 6.00 Build 0)  -->
<!DOCTYPE svg PUBLIC "-//W3C//DTD SVG 1.1//EN" "http://www.w3.org/Graphics/SVG/1.1/DTD/svg11.dtd">
<svg version="1.1" id="レイヤー_1" xmlns="http://www.w3.org/2000/svg" xmlns:xlink="http://www.w3.org/1999/xlink" x="0px"
	 y="0px" width="440px" height="975px" viewBox="0 0 440 975" style="enable-background:new 0 0 440 975;" xml:space="preserve">
<style type="text/css">
<![CDATA[
	.st0{fill:#FF4600;}
	.st1{fill:#FFFFCC;}
	.st2{fill:#FFFFFF;}
	.st3{fill:none;}
	.st4{fill:#CCCCCC;}
	.st5{fill:none;stroke:#000000;stroke-width:2;stroke-miterlimit:10;}
	.st6{fill:#DC0000;}
	.st7{fill:#EEEEEE;stroke:#000000;stroke-width:2;stroke-miterlimit:10;}
]]>
</style>
<rect class="st1" width="440" height="975"/>
<rect x="132" y="79" class="st7" width="44" height="72"/>
<rect x="176" y="79" class="st7" width="44" height="72"/>
<rect x="220" y="79" class="st7" width="44" height="72"/>
<rect x="264" y="79" class="st7" width="44" height="72"/>
<rect x="308" y="79" class="st7" width="44" height="72"/>
<rect x="352" y="79" class="st7" width="44" height="72"/>
<g>
	<rect x="191.5" y="86.2" class="st3" width="13" height="57.6"/>
	<path d="M198.2,93.8c0.4,0.8,0.8,1.4,1.4,2c1-0.5,2.2-1.3,2.9-1.8l0.8,0.6c-0.1,0.1-0.2,0.1-0.3,0.1c-0.8,0.5-1.9,1.2-2.9,1.7
		c1,0.8,2.3,1.4,3.9,1.7c-0.2,0.2-0.4,0.5-0.5,0.8c-3-0.7-5.1-2.4-6.2-5h-2v3.6c1.1-0.2,2.4-0.4,3.5-0.6l0,0.7
		c-2.1,0.4-4.3,0.8-5.6,1c0,0.1-0.1,0.2-0.2,0.2l-0.4-0.9c0.5-0.1,1.1-0.2,1.7-0.3v-3.8h-2.3V93h2.3v-5.8h8.2V88h-7.3v1.2h6.9v0.7
		h-6.9v1.2h6.9v0.7h-6.9V93h8.5v0.8H198.2z"/>
	<path d="M192.4,112.6c0.8,0.3,1.8,0.9,2.3,1.4l-0.5,0.7c-0.5-0.5-1.5-1.1-2.3-1.4L192.4,112.6z M192.3,120.3c0.6-1,1.6-2.8,2.2-4.2
		l0.7,0.5c-0.6,1.4-1.4,3-2,4c0.1,0.1,0.1,0.1,0.1,0.2c0,0.1,0,0.1-0.1,0.1L192.3,120.3z M193.1,109.1c0.8,0.4,1.8,1,2.3,1.5
		c-0.3,0.4-0.4,0.5-0.5,0.7c-0.5-0.5-1.5-1.1-2.3-1.5L193.1,109.1z M204,118.1v0.8h-4.3v2.1h-0.8v-2.1h-3.9v-0.8h3.9V117h-3.2v-0.8
		h3.2v-1.1H196v-0.8h2.9v-1.2h-3.7v-0.8h3.7v-1.2h-2.8v-0.7h2.8V109l1.1,0.1c0,0.1-0.1,0.1-0.2,0.2v1.2h3.1v2h1.2v0.8h-1.2v2h-3.1
		v1.1h3.5v0.8h-3.5v1.1H204z M199.7,111.1v1.2h2.2v-1.2H199.7z M199.7,113.1v1.2h2.2v-1.2H199.7z"/>
	<path d="M192.7,132.2h10.8v11.1h-0.9v-0.8h-9v0.8h-0.9V132.2z M197.5,133h-4v3.8h4V133z M193.5,137.7v3.9h4v-3.9H193.5z
		 M202.5,136.8V133h-4.1v3.8H202.5z M198.4,141.5h4.1v-3.9h-4.1V141.5z"/>
</g>
<rect x="132" y="172" class="st7" width="44" height="72"/>
<rect x="176" y="172" class="st7" width="44" height="72"/>
<rect x="220" y="172" class="st7" width="44" height="72"/>
<rect x="264" y="172" class="st7" width="44" height="72"/>
<rect x="308" y="172" class="st7" width="44" height="72"/>
<rect x="352" y="172" class="st7" width="44" height="72"/>
<rect x="132" y="421" class="st7" width="44" height="72"/>
<rect x="176" y="421" class="st7" width="44" height="72"/>
<rect x="220" y="421" class="st7" width="44" height="72"/>
<rect x="264" y="421" class="st7" width="44" height="72"/>
<rect x="308" y="421" class="st7" width="44" height="72"/>
<rect x="352" y="421" class="st7" width="44" height="72"/>
<rect x="44" y="421" class="st7" width="44" height="72"/>
<rect x="88" y="421" class="st7" width="44" height="72"/>
<rect x="44" y="514" class="st7" width="44" height="72"/>
<rect x="88" y="514" class="st7" width="44" height="72"/>
<rect x="132" y="514" class="st7" width="44" height="72"/>
<rect x="176" y="514" class="st7" width="44" height="72"/>
<rect x="220" y="514" class="st7" width="44" height="72"/>
<rect x="264" y="514" class="st7" width="44" height="72"/>
<rect x="308" y="514" class="st7" width="44" height="72"/>
<rect x="352" y="514" class="st7" width="44" height="72"/>
<g>
	<rect x="140.1" y="13.5" class="st3" width="159.9" height="24"/>
	<path d="M146,16.8v-1.3h10.6v1.3h-5.4c-0.3,1.1-0.6,2.2-1.1,3.4h4.7l0.3-0.1l0.9,0.4c0,0.1-0.1,0.2-0.2,0.2
		c-1.1,6.7-4.1,10.9-8,13.1c-0.2-0.3-0.7-0.8-1.1-1.1c2.1-1.1,3.9-2.8,5.3-5.1c-0.9-0.8-2.5-1.8-3.7-2.5l0.7-1
		c1.2,0.7,2.7,1.6,3.6,2.3c0.7-1.4,1.2-3.1,1.6-4.9h-4.7c-0.8,1.9-1.9,3.7-3.3,5c-0.2-0.3-0.7-0.7-1-0.9c2.3-2.2,3.7-5.7,4.4-8.8
		H146z M157.5,16.7l1.8,0.1c0,0.1-0.1,0.3-0.4,0.3v11.3h-1.4V16.7z M162.8,14.7l1.8,0.1c0,0.2-0.1,0.3-0.4,0.3v16.8
		c0,1.8-0.8,1.9-4.6,1.9c-0.1-0.4-0.3-1-0.5-1.4c0.9,0,1.7,0,2.3,0c1.3,0,1.4,0,1.4-0.5V14.7z"/>
	<path d="M186.5,29.3v1.3h-8.9v3.1h-1.4v-3.1h-8.7v-1.3h8.7v-1.8h-6.5v-8.3h6.5v-1.7H168v-1.3h8.1v-2l1.8,0.1c0,0.1-0.1,0.3-0.4,0.3
		v1.6h8.3v1.3h-8.3v1.7h6.7v8.3h-6.7v1.8H186.5z M171.1,20.4v2.3h5.1v-2.3H171.1z M171.1,26.3h5.1v-2.4h-5.1V26.3z M182.9,20.4h-5.3
		v2.3h5.3V20.4z M182.9,26.3v-2.4h-5.3v2.4H182.9z"/>
	<path d="M190.9,18.6c0,1.9-0.4,4.1-1.2,5.5c-0.8-0.5-0.9-0.5-1-0.6c0.8-1.2,1.1-3.3,1.1-5.1L190.9,18.6z M191.7,14.2l1.8,0.1
		c0,0.1-0.1,0.3-0.4,0.3v19.1h-1.4V14.2z M195,21c-0.3-0.8-0.9-2.1-1.5-3.1l1-0.5c0.6,0.9,1.3,2.2,1.6,3L195,21z M202.3,21.3h5.9
		v1.2h-13v-1.2h5.7v-1.5h-4.1v-1.1h4.1v-1.4h-4.9v-1.1h4.9v-1.9l1.9,0.1c0,0.1-0.1,0.3-0.4,0.3v1.5h5.1v1.1h-5.1v1.4h4.3v1.1h-4.3
		V21.3z M206.3,23.9v8.3c0,1.4-0.5,1.5-3.5,1.5c-0.1-0.4-0.3-0.9-0.4-1.2c0.6,0,1.1,0,1.5,0c0.9,0,1,0,1-0.3v-1.9h-6.5v3.3H197v-9.8
		H206.3z M204.9,25.1h-6.5v1.6h6.5V25.1z M198.4,29.3h6.5v-1.6h-6.5V29.3z"/>
	<path d="M215.8,17.6V20h4.2v1.2h-9.7V20h4.2v-2.4h-3.4v-1.2h3.4v-2.1l1.7,0.1c0,0.1-0.1,0.3-0.4,0.3v1.7h3.3v1.2H215.8z
		 M216.2,24.6c0.4-0.8,1-2.2,1.3-3.1l1.5,0.5c-0.1,0.1-0.2,0.2-0.4,0.2c-0.3,0.7-0.9,1.8-1.3,2.6h2.5V26h-3.9v2.4h3.6v1.2h-3.6v4.1
		h-1.3v-4.1h-3.6v-1.2h3.6V26h-3.9v-1.2h6L216.2,24.6z M212.8,24.6c-0.1-0.8-0.5-2-1-2.9l1.1-0.3c0.5,0.9,0.9,2.1,1,2.8L212.8,24.6z
		 M228.2,23.2l0.9,0.3c0,0.1-0.1,0.2-0.1,0.3c-0.4,2.2-1.2,4.4-2.3,6.3c0.9,1,2,1.9,3.2,2.4c-0.3,0.3-0.8,0.8-1,1.2
		c-1.1-0.6-2.1-1.4-3-2.5c-0.7,0.9-1.5,1.7-2.5,2.3c-0.2-0.3-0.6-0.7-1-0.9c1-0.7,1.8-1.5,2.6-2.5c-1-1.4-1.8-3.2-2.4-5l1.1-0.3
		c0.5,1.4,1.2,2.9,2,4.1c0.8-1.4,1.3-2.9,1.7-4.5H222v9.3h-1.3V15.3h8.2v5.3c0,1.5-0.8,1.5-3.6,1.5c0-0.4-0.3-0.9-0.4-1.2
		c0.5,0,1.1,0,1.5,0c1.2,0,1.2,0,1.2-0.3v-3.9H222v6.7h5.9L228.2,23.2z"/>
	<path d="M239.8,17.8V19h-8v-1.2H239.8z M239,26.4v6.2H234v1h-1.3v-7.2H239z M232.7,21.8v-1.2h6.3v1.2H232.7z M232.7,24.7v-1.2h6.3
		v1.2H232.7z M239,15v1.2h-6.1V15H239z M237.8,27.6H234v3.8h3.8V27.6z M242.8,16.2v1.3c0,1.8-0.5,4.1-2.7,5.5
		c-0.2-0.3-0.7-0.8-1-0.9c2.1-1.3,2.4-3.1,2.4-4.6v-2.6h6.6v5.3c0,0.5,0.1,0.5,0.4,0.5h1.2c0.4,0,0.5-0.3,0.5-2.4
		c0.3,0.2,0.8,0.4,1.2,0.5c-0.1,2.5-0.5,3.1-1.6,3.1h-1.5c-1.2,0-1.6-0.4-1.6-1.8v-4H242.8z M249.3,23.4l0.9,0.4
		c0,0.1-0.1,0.2-0.2,0.2c-0.7,2.5-2,4.5-3.6,6.1c1.4,1.1,3.1,1.9,5,2.4c-0.3,0.3-0.7,0.9-0.9,1.2c-2-0.6-3.7-1.5-5.2-2.7
		c-1.6,1.3-3.5,2.2-5.5,2.7c-0.1-0.4-0.5-0.9-0.8-1.2c1.9-0.5,3.7-1.3,5.2-2.4c-1.3-1.4-2.4-3-3.1-4.9l1.3-0.4
		c0.7,1.7,1.6,3.1,2.9,4.4c1.3-1.2,2.3-2.7,3-4.4h-8.3v-1.3h9L249.3,23.4z"/>
	<path d="M263.7,27.2v4.6c1.1,0.2,2.3,0.3,3.7,0.3c0.7,0,4.4,0,5.4,0c-0.2,0.4-0.5,1-0.5,1.4h-4.9c-4.5,0-7.8-0.8-9.7-4.5
		c-0.8,2.1-1.8,3.8-3.3,4.9c-0.2-0.3-0.7-0.7-1.1-0.9c2.3-1.7,3.5-4.9,4-8.8l1.8,0.3c0,0.1-0.2,0.3-0.4,0.3
		c-0.1,0.8-0.3,1.7-0.5,2.5c0.9,2.4,2.3,3.6,4.2,4.3v-9.2h-5.4v-1.3h12.3v1.3h-5.5v3.7h6.4v1.3H263.7z M255.6,18.2v3.2h-1.4v-4.5h8
		v-2.6l1.9,0.1c0,0.1-0.1,0.3-0.4,0.3v2.2h8.1v4.5h-1.4v-3.2H255.6z"/>
	<path d="M294.1,24H288c1.7,1.5,4.2,2.8,6.7,3.4c-0.3,0.3-0.7,0.8-0.9,1.2c-0.5-0.1-1-0.3-1.5-0.5v5.7H291V33h-4.1v0.8h-1.3v-6.9
		h4.2c-1.4-0.8-2.7-1.8-3.6-2.9h-3.3c-1,1.1-2.2,2.1-3.7,2.9h4.3v6.8h-1.3V33h-4.1v0.8h-1.3V28c-0.5,0.2-0.9,0.4-1.4,0.5
		c-0.2-0.3-0.6-0.8-0.9-1c2.6-0.9,4.8-2,6.4-3.5h-6v-1.3h7.2c0.4-0.5,0.8-1.1,1.1-1.7h-6.8v-5.8h6.8v5.7l0.2-0.4l1.7,0.5
		c0,0.1-0.2,0.2-0.5,0.2c-0.3,0.5-0.5,1-0.9,1.5h10.2V24z M282.1,19.9v-3.5h-4.2v3.5H282.1z M282.2,31.8v-3.6h-4.1v3.6H282.2z
		 M292.7,15.2V21h-6.9v-5.8H292.7z M286.9,31.8h4.1v-3.6h-4.1V31.8z M291.3,19.9v-3.5h-4.2v3.5H291.3z"/>
</g>
<rect x="44" y="292" class="st7" width="44" height="72"/>
<rect x="88" y="292" class="st7" width="44" height="72"/>
<rect x="132" y="292" class="st7" width="44" height="72"/>
<rect x="176" y="292" class="st7" width="44" height="72"/>
<rect x="220" y="292" class="st7" width="44" height="72"/>
<rect x="264" y="292" class="st7" width="44" height="72"/>
<rect x="308" y="292" class="st7" width="44" height="72"/>
<rect x="352" y="292" class="st7" width="44" height="72"/>
<rect x="44" y="607" class="st7" width="44" height="72"/>
<rect x="88" y="607" class="st7" width="44" height="72"/>
<rect x="132" y="607" class="st7" width="44" height="72"/>
<rect x="176" y="607" class="st7" width="44" height="72"/>
<rect x="220" y="607" class="st7" width="44" height="72"/>
<rect x="264" y="607" class="st7" width="44" height="72"/>
<rect x="308" y="607" class="st7" width="44" height="72"/>
<rect x="352" y="607" class="st7" width="44" height="72"/>
<rect x="44" y="700" class="st7" width="44" height="72"/>
<rect x="88" y="700" class="st7" width="44" height="72"/>
<rect x="132" y="700" class="st7" width="44" height="72"/>
<rect x="176" y="700" class="st7" width="44" height="72"/>
<rect x="220" y="700" class="st7" width="44" height="72"/>
<rect x="264" y="700" class="st7" width="44" height="72"/>
<rect x="308" y="700" class="st7" width="44" height="72"/>
<rect x="352" y="700" class="st7" width="44" height="72"/>
<rect x="44" y="793" class="st7" width="44" height="72"/>
<rect x="88" y="793" class="st7" width="44" height="72"/>
<rect x="132" y="793" class="st7" width="44" height="72"/>
<rect x="176" y="793" class="st7" width="44" height="72"/>
<rect x="220" y="793" class="st7" width="44" height="72"/>
<rect x="264" y="793" class="st7" width="44" height="72"/>
<rect x="308" y="793" class="st7" width="44" height="72"/>
<rect x="352" y="793" class="st7" width="44" height="72"/>
<rect x="176" y="911" width="88" height="14"/>
<g>
	<rect x="176.1" y="912.5" class="st3" width="87.9" height="14"/>
	<path class="st4" d="M189.9,915.1h-4.2v7.1h-3.3v-7.1h-4.2v-1.4h11.6V915.1z"/>
	<path class="st4" d="M204.1,917.9c0,2.9-3,4.5-7.2,4.5c-4.5,0-7-1.9-7-4.3c0-2.5,2.8-4.4,7.2-4.4
		C201.8,913.6,204.1,915.6,204.1,917.9z M193.3,918c0,1.7,1.3,3,3.7,3c2.4,0,3.7-1.4,3.7-3.1c0-1.6-1.2-3-3.7-3
		C194.5,914.9,193.3,916.4,193.3,918z"/>
	<path class="st4" d="M213.7,915.3c-0.6-0.2-1.6-0.4-3-0.4c-1.7,0-2.5,0.5-2.5,0.9c0,0.6,0.8,0.9,2.9,1.4c2.7,0.6,3.9,1.4,3.9,2.5
		c0,1.5-2.2,2.6-6.2,2.6c-1.7,0-3.4-0.2-4.2-0.5l0.6-1.4c0.9,0.3,2.3,0.5,3.7,0.5c1.8,0,2.8-0.4,2.8-1.1c0-0.6-0.8-1-2.7-1.4
		c-2.6-0.5-4.1-1.3-4.1-2.4c0-1.4,2.2-2.5,5.8-2.5c1.6,0,2.8,0.2,3.6,0.4L213.7,915.3z"/>
	<path class="st4" d="M228.7,922.2h-3.3v-3.6h-5.8v3.6h-3.3v-8.5h3.3v3.4h5.8v-3.4h3.3V922.2z"/>
	<path class="st4" d="M230.9,913.7h3.3v8.5h-3.3V913.7z"/>
	<path class="st4" d="M244.3,917.7c1.9,0.2,3.3,1,3.3,2.1c0,0.7-0.5,1.3-1.5,1.7c-1.1,0.5-3,0.8-6.1,0.8c-1.6,0-2.8-0.1-3.6-0.1
		v-8.3c1-0.1,2.6-0.2,4.3-0.2c2,0,3.5,0.1,4.7,0.5c1,0.3,1.7,0.9,1.7,1.6C247,916.6,246.1,917.3,244.3,917.7L244.3,917.7z
		 M240.8,917.2c1.8,0,2.9-0.5,2.9-1.2c0-0.8-1.3-1.1-2.7-1.1c-0.7,0-1.1,0-1.4,0.1v2.2H240.8z M239.6,921c0.3,0,0.7,0,1.3,0
		c1.8,0,3.3-0.4,3.3-1.4c0-1-1.7-1.3-3.3-1.3h-1.2V921z"/>
	<path class="st4" d="M261.4,922.2H258l-1.2-2.2h-4.5l-1.2,2.2h-3.3l4.8-8.5h4.1L261.4,922.2z M256.3,918.7l-1-1.9
		c-0.3-0.5-0.6-1.2-0.8-1.7h-0.1c-0.2,0.5-0.5,1.2-0.7,1.7l-1,1.9H256.3z"/>
</g>
<g>
	<path class="st5" d="M396,291v-14.5c0-2.8-2.3-4.5-5-4.5H49.5c-2.8,0-5.5,1.8-5.5,4.5V292"/>
</g>
<rect x="202" y="262" class="st1" width="36" height="20"/>
<g>
	<rect x="191.6" y="264.3" class="st3" width="56.8" height="14.3"/>
	<path d="M209.7,270.7c0.4,0.4,1.6,1.7,1.9,2l-0.6,0.7c-0.2-0.4-0.8-1.2-1.3-1.8v6.2h-0.9v-6.3c-0.5,1.5-1.2,2.9-1.8,3.8
		c-0.1-0.3-0.3-0.6-0.5-0.8c0.8-1.1,1.7-3,2.2-4.6h-2v-0.9h2.2v-2.4c-0.6,0.2-1.3,0.4-1.9,0.5c0-0.2-0.2-0.5-0.3-0.7
		c1.5-0.4,3.3-0.9,4.2-1.5l0.8,0.7c-0.1,0.1-0.1,0.1-0.3,0.1c-0.4,0.2-1,0.5-1.6,0.7v2.7h1.8v0.9h-1.8V270.7z M215.7,276.7h3.8v0.8
		H211v-0.8h3.9v-1.2h-3.1v-0.8h3.1v-1H212v-4.5h2.8v-1h-3.5v-0.8h3.5v-1.2c-1,0.1-2,0.2-3,0.3c0-0.2-0.1-0.5-0.2-0.7
		c2.3-0.2,5.1-0.6,6.5-1l0.8,0.7c0,0-0.1,0.1-0.2,0.1c0,0-0.1,0-0.1,0c-0.8,0.2-1.8,0.4-2.9,0.6v1.3h3.6v0.8h-3.6v1h3v4.5h-3v1h3.2
		v0.8h-3.2V276.7z M212.8,270v1.2h2V270H212.8z M212.8,273h2v-1.2h-2V273z M217.8,270h-2.1v1.2h2.1V270z M217.8,273v-1.2h-2.1v1.2
		H217.8z"/>
	<path d="M226.2,271.8l0.2,0l0.5,0.1c0,0.1,0,0.2,0,0.3c-0.2,3.6-0.3,4.9-0.7,5.3c-0.3,0.4-0.5,0.4-1.6,0.4c-0.3,0-0.7,0-1.1,0
		c0-0.3-0.1-0.6-0.3-0.8c0.7,0.1,1.4,0.1,1.7,0.1c0.3,0,0.4,0,0.5-0.2c0.3-0.3,0.4-1.4,0.5-4.3h-2.5c-0.3,1.9-1,3.9-2.4,5.2
		c-0.1-0.2-0.4-0.5-0.7-0.6c1.8-1.6,2.3-4.7,2.4-7.1h-1.6v-4.6h5.6v4.6h-3c-0.1,0.5-0.1,1.1-0.2,1.7H226.2z M222.2,266.3v2.9h3.8
		v-2.9H222.2z M228.4,266.5l1.2,0.1c0,0.1-0.1,0.2-0.3,0.2v7.6h-0.9V266.5z M231.9,265.1l1.2,0.1c0,0.1-0.1,0.2-0.3,0.2v11.2
		c0,0.7-0.2,1-0.6,1.1c-0.4,0.2-1.2,0.2-2.5,0.2c-0.1-0.3-0.2-0.7-0.4-1c0.5,0,1,0,1.4,0c1.1,0,1.2,0,1.2-0.4V265.1z"/>
</g>
<g>
	<path class="st5" d="M396,421v-16.5c0-2.8-2.3-4.5-5-4.5H49.5c-2.8,0-5.5,1.8-5.5,4.5V422"/>
</g>
<rect x="202" y="389" class="st1" width="36" height="20"/>
<g>
	<rect x="191.6" y="392.3" class="st3" width="56.8" height="14.3"/>
	<path d="M210.8,393.3c0,0.1-0.1,0.1-0.3,0.1c-0.8,1-2.3,2.4-3.5,3.2c-0.1-0.2-0.4-0.6-0.5-0.8c1.2-0.8,2.6-2,3.3-3L210.8,393.3z
		 M208.7,405.8v-6.2c-0.5,0.6-1.1,1.1-1.6,1.6c-0.1-0.2-0.4-0.6-0.6-0.7c1.3-1.1,2.9-2.9,3.8-4.7l1.1,0.4c0,0.1-0.2,0.1-0.3,0.1
		c-0.4,0.7-0.9,1.4-1.4,2.1l0.3,0.1c0,0.1-0.1,0.2-0.3,0.2v7.1H208.7z M219.5,397.8v0.9h-2.2v5.9c0,1.2-0.4,1.2-3.3,1.2
		c0-0.3-0.2-0.6-0.3-0.9c0.6,0,1.2,0,1.6,0c0.9,0,1,0,1-0.3v-5.9h-4.9v-0.9H219.5z M219,393.7v0.9h-7v-0.9H219z"/>
	<path d="M225.8,400.2c0,0.1-0.1,0.2-0.3,0.2c-0.4,2.5-1.1,4.4-4.3,5.4c-0.1-0.2-0.4-0.6-0.6-0.8c3.1-0.9,3.7-2.6,4-5L225.8,400.2z
		 M229.3,404.2c0,0.4,0.1,0.5,0.7,0.5h1.9c0.5,0,0.6-0.3,0.7-2.2c0.2,0.2,0.6,0.3,0.9,0.4c-0.1,2.1-0.4,2.7-1.5,2.7h-2.1
		c-1.2,0-1.5-0.3-1.5-1.4v-4.3h-7.6V399h5.7v-3h-3c-0.4,0.8-0.8,1.6-1.3,2.2c-0.2-0.1-0.6-0.4-0.8-0.4c1-1.2,1.7-3.1,2.1-4.6
		l1.2,0.3c0,0.1-0.1,0.1-0.3,0.1c-0.1,0.4-0.3,1-0.5,1.5h2.7v-2.3l1.2,0.1c0,0.1-0.1,0.2-0.3,0.2v2h4.7v0.9h-4.7v3h5.8v0.9h-3.9
		V404.2z"/>
</g>
<g>
	<path class="st5" d="M396,78V62.5c0-2.8-2.3-4.5-5-4.5H137c-2.8,0-5,1.8-5,4.5V79"/>
</g>
<rect x="239" y="48" class="st1" width="50" height="20"/>
<g>
	<rect x="243.1" y="50.8" class="st3" width="42.1" height="14.3"/>
	<path d="M248.4,54.2l0.5,0.1l-0.1,0.2c-0.2,2.5-0.6,4.5-1.3,6c0.7,0.5,1.3,1.1,1.7,1.5l-0.6,0.8c-0.4-0.4-0.9-1-1.5-1.5
		c-0.7,1.3-1.7,2.3-2.8,2.9c-0.1-0.2-0.4-0.6-0.6-0.8c1.1-0.6,1.9-1.5,2.6-2.7c-0.5-0.4-1.1-0.8-1.6-1.1l-0.2,0.6l-0.8-0.4
		c0.4-1.2,0.8-3,1.2-4.8h-1.4v-0.9h1.6c0.2-1.1,0.4-2.1,0.6-3l1.1,0.1c0,0.1-0.1,0.2-0.3,0.2c-0.2,0.8-0.3,1.7-0.6,2.6h2.2
		L248.4,54.2z M245.9,55.2c-0.3,1.3-0.6,2.6-0.9,3.8c0.6,0.3,1.2,0.7,1.8,1.1c0.6-1.3,1-2.9,1.2-4.9H245.9z M254.5,53.6
		c0.9,1.1,1.9,2.7,2.2,3.7l-0.8,0.4c-0.1-0.3-0.2-0.6-0.4-1c-2.2,0.2-4.5,0.3-6,0.4c0,0.1-0.1,0.2-0.2,0.2l-0.4-1.1l1.1,0
		c0.6-1.4,1.2-3.5,1.6-5l1.2,0.3c0,0.1-0.2,0.2-0.3,0.2c-0.4,1.3-1,3.1-1.6,4.5l4.1-0.2c-0.4-0.7-0.9-1.4-1.4-2L254.5,53.6z
		 M250,64.3v-5.7h5.9v5.7H255v-0.6h-4.1v0.7H250z M255,59.5h-4.1v3.3h4.1V59.5z"/>
	<path d="M268.7,52.1c0,0.1-0.2,0.1-0.3,0.1c-0.5,0.5-1.3,1.2-2,1.7c0.3,0.4,0.6,0.8,1,1.2c0.7-0.5,1.6-1.3,2.1-1.9l0.9,0.6
		c-0.1,0.1-0.2,0.1-0.3,0.1c-0.5,0.5-1.4,1.2-2.1,1.7c0.8,0.7,1.8,1.3,2.7,1.7c-0.2,0.2-0.5,0.5-0.6,0.8c-0.7-0.3-1.4-0.7-2.1-1.2
		v0.5h-1.8v2.2h3.4v0.9h-3.4v2.4c0,0.4,0.1,0.5,0.6,0.5h1.7c0.5,0,0.5-0.3,0.6-1.8c0.2,0.2,0.6,0.3,0.9,0.4
		c-0.1,1.8-0.3,2.3-1.4,2.3h-1.9c-1.1,0-1.4-0.3-1.4-1.4v-2.4h-2.7c-0.2,1.6-1.1,3-3.9,4c-0.1-0.2-0.4-0.6-0.6-0.7
		c2.5-0.8,3.3-2,3.5-3.2h-3.3v-0.9h3.3v-2.2h-1.6v-0.4c-0.7,0.5-1.4,1-2.1,1.3c-0.1-0.2-0.4-0.5-0.6-0.7c1-0.4,2-1.1,2.9-1.9
		c-0.4-0.5-1.2-1.1-1.8-1.6l0.6-0.5c0.6,0.4,1.3,1,1.8,1.5c0.6-0.6,1.1-1.3,1.4-2.1h-3.7v-0.8h4.2l0.2-0.1c0.4,0.2,0.5,0.3,0.7,0.3
		c0,0.1-0.1,0.1-0.2,0.2c-0.6,1.6-1.7,3-2.9,4h6.9c-1.4-1.2-2.6-2.9-3.3-4.8l0.8-0.3c0.3,0.6,0.6,1.3,0.9,1.8
		c0.6-0.5,1.4-1.2,1.8-1.8L268.7,52.1z M265.3,59.5v-2.2h-2.6v2.2H265.3z"/>
	<path d="M272.7,60.1c-0.1,1.3-0.2,2.7-0.8,3.5l-0.5-0.3c0.5-0.7,0.7-2,0.7-3.3L272.7,60.1z M277.1,58.3l0.4,0.1l0,0.3
		c-0.2,3.6-0.4,4.9-0.7,5.3c-0.3,0.3-0.5,0.4-1.2,0.4c-0.3,0-0.6,0-0.9,0c0-0.2-0.1-0.6-0.2-0.8c0.5,0,1,0.1,1.2,0.1
		c0.4,0,0.6-0.1,0.8-2l-0.5,0.2c-0.1-0.5-0.5-1.3-0.9-1.9l0.5-0.2c0.3,0.5,0.7,1.3,0.8,1.8h0c0.1-0.6,0.1-1.4,0.2-2.3h-3.7v0.4h-0.8
		v-7.6h5.2v0.8h-2.1v1.3h1.8v0.8h-1.8v1.4h1.8V57h-1.8v1.4h1.6L277.1,58.3z M274.5,52.7h-1.5v1.3h1.5V52.7z M274.5,56.2v-1.4h-1.5
		v1.4H274.5z M273.1,57v1.4h1.5V57H273.1z M273.3,62.9c0-0.7-0.1-1.8-0.2-2.6l0.5-0.1c0.2,0.8,0.3,1.9,0.3,2.6L273.3,62.9z
		 M274.7,60c0.3,0.7,0.6,1.7,0.6,2.3l-0.5,0.1c-0.1-0.6-0.3-1.6-0.6-2.3L274.7,60z M284.1,57.6h-2.3c0.4,2.7,1.3,4.9,3,6
		c-0.2,0.2-0.5,0.5-0.6,0.8c-1.8-1.3-2.7-3.7-3.2-6.8h-1.4c0,2.1-0.3,4.9-1.6,6.7c-0.2-0.2-0.5-0.4-0.8-0.5c1.4-1.8,1.5-4.5,1.5-6.6
		v-5.4h5.5V57.6z M283.2,52.8h-3.7v4h3.7V52.8z"/>
</g>
<g>
	<rect x="147.5" y="86.2" class="st3" width="13" height="57.6"/>
	<path d="M154.4,89h4.9v6.1h-0.9v-0.8h-4v4.3h-0.9v-4.3h-3.9v0.8h-0.9V89h4.8v-2.4l1.2,0.1c0,0.1-0.1,0.2-0.3,0.2V89z M149.6,93.5
		h3.9v-3.6h-3.9V93.5z M154.4,93.5h4v-3.6h-4V93.5z"/>
	<path d="M159.9,108.5h-5.1c0.9,2.2,2.7,3.7,5.4,4.3c-0.2,0.2-0.5,0.6-0.6,0.8c-2.8-0.7-4.6-2.3-5.6-4.7c-0.6,1.9-2,3.7-5.6,4.8
		c-0.1-0.2-0.3-0.6-0.5-0.8c3.4-1.1,4.7-2.6,5.2-4.4h-5.1v-0.9h1.5v-4.3h3.9v-1.9l1.2,0.1c0,0.1-0.1,0.2-0.3,0.2v1.6h4.1v4.3h1.4
		V108.5z M150.4,107.7h2.9c0.1-0.5,0.1-1.1,0.1-1.7v-1.8h-3V107.7z M157.6,104.2h-3.2v1.8c0,0.6,0,1.1-0.1,1.7h3.3V104.2z"/>
	<path d="M151.4,121.3c0.5,0.4,1.7,1.8,2.1,2.1l-0.6,0.7c-0.3-0.4-0.9-1.2-1.5-1.9v6.1h-0.9v-6.7c-0.6,1.7-1.4,3.3-2.2,4.3
		c-0.1-0.3-0.3-0.6-0.5-0.8c1-1.1,2.1-3.2,2.6-5.1h-2.3v-0.8h2.4v-2.9l1.1,0.1c0,0.1-0.1,0.2-0.2,0.2v2.6h2.1v0.8h-2.1V121.3z
		 M160,120.1h-2.5c0.6,2.2,1.7,4.4,2.7,5.5c-0.2,0.2-0.5,0.5-0.7,0.7c-0.9-1.1-1.8-3-2.4-4.9v7.1h-0.9v-6.8c-0.8,1.9-1.8,3.8-3,4.8
		c-0.1-0.2-0.4-0.6-0.5-0.8c1.3-1.2,2.7-3.5,3.3-5.7h-2.3v-0.8h2.5v-2.9l1.1,0.1c0,0.1-0.1,0.2-0.3,0.2v2.6h2.8V120.1z"/>
	<path d="M153.4,136.3h-3.9v7h-0.9v-11.5h4.7V136.3z M152.5,132.5h-3v1.2h3V132.5z M149.5,135.6h3v-1.2h-3V135.6z M156.4,142.1h-4.1
		v0.7h-0.8v-5.4h4.9V142.1z M155.6,138.1h-3.3v1.3h3.3V138.1z M152.3,141.4h3.3V140h-3.3V141.4z M159.4,131.8v10.3
		c0,1.2-0.5,1.2-2.8,1.2c0-0.2-0.2-0.7-0.3-0.9c0.4,0,0.8,0,1.2,0c0.9,0,1,0,1-0.3v-5.8h-4v-4.5H159.4z M158.6,132.5h-3.1v1.2h3.1
		V132.5z M155.4,135.6h3.1v-1.3h-3.1V135.6z"/>
</g>
<g>
	<rect x="235.5" y="86.2" class="st3" width="13" height="57.6"/>
	<path d="M241.5,90.6l0,0.5c-1.9,0.1-3.8,0.3-5,0.4c0,0.1-0.1,0.1-0.2,0.2l-0.3-0.8l0.9,0v-1.6l0.9,0.1c0,0.1-0.1,0.1-0.2,0.2v1.4
		l1-0.1v-2h-1.8V87h4.3v1.8h-1.8v0.6h2V90h-2v0.7L241.5,90.6z M238.3,97.1c-0.2,0.7-0.6,1.2-1.4,1.6l-0.6-0.5
		c0.7-0.2,1.1-0.8,1.3-1.3L238.3,97.1z M237.6,87.6v0.8h2.8v-0.8H237.6z M239.1,94.7v0.5h8.9v0.5h-8.9v0.5h7.3l0.2,0l0.5,0.1
		l-0.1,0.2c-0.2,1.7-0.4,2.2-1.2,2.2c-0.3,0-0.8,0-1.4,0c0-0.2-0.1-0.4-0.2-0.6l0.1,0c-0.2-0.3-0.5-0.7-0.9-0.9l0.6-0.3
		c0.4,0.3,0.7,0.6,0.9,0.9l-0.6,0.3c0.5,0.1,0.9,0.1,1.1,0.1c0.5,0,0.6-0.3,0.7-1.5h-8v-4.7h2.8c0.2-0.3,0.4-0.6,0.5-0.9l1,0.2
		c0,0.1-0.1,0.1-0.2,0.1c-0.1,0.2-0.2,0.3-0.4,0.5h3.8v2.6H239.1z M244.8,92.6h-5.7v0.5h5.7V92.6z M239.1,94.1h5.7v-0.6h-5.7V94.1z
		 M239.7,98.6c0-0.4-0.2-0.9-0.4-1.4L240,97c0.2,0.4,0.4,1,0.4,1.3L239.7,98.6z M242.1,98.4c-0.1-0.3-0.5-0.9-0.8-1.2L242,97
		c0.3,0.4,0.7,0.9,0.8,1.2L242.1,98.4z M246.6,87.2l0.5,0.2c0,0.1-0.1,0.1-0.1,0.1c-0.4,0.5-0.8,0.9-1.4,1.3
		c0.9,0.3,1.8,0.5,2.8,0.7c-0.2,0.1-0.3,0.4-0.4,0.6c-0.4-0.1-0.8-0.1-1.1-0.2v1.8h-4v-1.7c-0.3,0.1-0.7,0.2-1,0.2
		c-0.1-0.2-0.2-0.4-0.4-0.6c0.9-0.1,1.9-0.4,2.8-0.7c-0.4-0.2-0.8-0.5-1.1-0.7c-0.3,0.2-0.7,0.4-1.2,0.6c-0.1-0.2-0.3-0.4-0.5-0.4
		c1.1-0.5,1.9-1.1,2.4-1.6l0.8,0.1c0,0.1-0.1,0.1-0.2,0.1c-0.1,0.1-0.2,0.2-0.3,0.3h2.2L246.6,87.2z M246.5,89.7
		c-0.6-0.2-1.1-0.3-1.6-0.6c-0.5,0.2-1,0.4-1.6,0.6H246.5z M246,91.1v-0.8h-2.5v0.8H246z M243.6,87.7c0.3,0.3,0.7,0.5,1.2,0.8
		c0.4-0.2,0.8-0.5,1.1-0.8H243.6z"/>
	<path d="M236.4,134.9c0.8,0.3,1.9,0.9,2.4,1.3l-0.5,0.7c-0.5-0.4-1.6-1-2.4-1.4L236.4,134.9z M236.3,142.6c0.7-1,1.6-2.8,2.4-4.3
		l0.7,0.5c-0.6,1.4-1.5,3-2.1,4.1c0.1,0.1,0.1,0.1,0.1,0.2c0,0.1,0,0.1,0,0.1L236.3,142.6z M237.1,131.4c0.8,0.4,1.9,1,2.4,1.4
		l-0.5,0.7c-0.5-0.5-1.5-1.1-2.4-1.5L237.1,131.4z M247.1,131.9l0.5,0.1c0,0.1,0,0.2,0,0.3c-0.1,3-0.3,4.1-0.6,4.5
		c-0.3,0.3-0.6,0.4-1.5,0.4c-0.3,0-0.7,0-1.1,0c0-0.2-0.1-0.6-0.3-0.8c0.7,0.1,1.4,0.1,1.6,0.1c0.2,0,0.4,0,0.5-0.1
		c0.2-0.2,0.3-1.1,0.5-3.5h-3c-0.4,2-1,3.9-3.7,5c-0.1-0.2-0.4-0.5-0.5-0.7c2.3-0.9,3-2.5,3.3-4.3h-2.6v-0.8h6.7L247.1,131.9z
		 M240.5,143.3v-5.3h6.6v5.2h-0.9v-0.6h-4.8v0.6H240.5z M246.2,138.9h-4.8v3.1h4.8V138.9z"/>
</g>
<g>
	<rect x="367.5" y="86.4" class="st3" width="13" height="57.6"/>
	<path d="M379.9,94.4v0.9h-5.5v3.7h-0.9v-3.7h-5.4v-0.9h5.4V92H369v-0.9h4.5v-4.2l1.2,0.1c0,0.1-0.1,0.2-0.3,0.2v4h4.7V92h-4.7v2.4
		H379.9z M370.2,87.2c0.7,0.9,1.3,2.2,1.6,3l-0.8,0.4c-0.3-0.8-0.9-2.1-1.6-3L370.2,87.2z M378.8,87.6c0,0.1-0.1,0.1-0.3,0.1
		c-0.4,0.9-1.2,2.1-1.8,2.9c0,0-0.7-0.3-0.7-0.3c0.6-0.8,1.3-2.1,1.7-3.1L378.8,87.6z"/>
	<path d="M376.4,113.4c0.1,1.6,0.3,2.9,0.6,4c0.5-0.9,0.9-2,1.2-3.2l1.1,0.3c0,0.1-0.1,0.1-0.3,0.1c-0.4,1.4-0.9,2.7-1.7,3.9
		c0.5,1.3,1,1.9,1.5,1.9c0.3,0,0.4-0.3,0.5-1.7c0.2,0.2,0.5,0.4,0.7,0.4c-0.2,1.8-0.5,2.1-1.3,2.1c-0.8,0-1.5-0.7-2-2
		c-0.6,0.8-1.4,1.5-2.3,2c-0.1-0.2-0.4-0.4-0.6-0.6c0.4-0.2,0.7-0.4,1-0.7h-3.6v0.7h-0.7v-6.5h4.7v0.6h-1.8v1h1.8v2.4h-1.8v1h1.9
		v0.2c0.4-0.4,0.7-0.8,1.1-1.2c-0.4-1.3-0.7-2.9-0.8-4.9h-5.7v2.5c0,1.6-0.2,3.8-1.3,5.3c-0.1-0.1-0.5-0.4-0.7-0.5
		c1.1-1.4,1.2-3.4,1.2-4.9v-3.3h6.5c0-0.4,0-0.8-0.1-1.2l0.3,0V111h-3.6v0.9h-0.9V111h-3.1v-0.8h3.1v-1l1.1,0.1
		c0,0.1-0.1,0.2-0.3,0.2v0.8h3.6v-1l1.1,0.1c0,0.1-0.1,0.2-0.3,0.2v0.8h3.2v0.8h-3.2v0.8h-0.3c0,0.3,0,0.6,0,0.9h2.4
		c-0.3-0.4-0.9-0.8-1.4-1.1l0.5-0.4c0.5,0.3,1.2,0.8,1.5,1.1l-0.5,0.4h1v0.8H376.4z M372.8,114.9h-1.5v1h1.5V114.9z M374.5,117.7
		v-1.2h-3.3v1.2H374.5z M371.3,118.3v1h1.5v-1H371.3z"/>
	<path d="M373.3,132.1v4.8h-3.8v6.7h-0.9v-11.4H373.3z M372.5,132.8h-3v1.2h3V132.8z M369.5,136.1h3v-1.4h-3V136.1z M379.4,132.1
		v10.2c0,1.2-0.5,1.2-3,1.2c0-0.2-0.2-0.6-0.3-0.9c0.6,0,1.1,0,1.5,0c0.8,0,0.9,0,0.9-0.3v-5.4h-4v-4.8H379.4z M378.5,132.8h-3.1
		v1.2h3.1V132.8z M375.4,136.2h3.1v-1.4h-3.1V136.2z"/>
</g>
<g>
	<rect x="323.5" y="86.2" class="st3" width="13" height="57.6"/>
	<path d="M324.4,90.3c0.8,0.3,1.9,0.9,2.4,1.3l-0.5,0.7c-0.5-0.4-1.6-1-2.4-1.4L324.4,90.3z M324.3,98c0.7-1,1.6-2.8,2.4-4.3
		l0.7,0.5c-0.6,1.4-1.5,3-2.1,4.1c0.1,0.1,0.1,0.1,0.1,0.2c0,0.1,0,0.1,0,0.1L324.3,98z M325.1,86.8c0.8,0.4,1.9,1,2.4,1.4l-0.5,0.7
		c-0.5-0.5-1.5-1.1-2.4-1.5L325.1,86.8z M332.4,91.2h3.7v0.8h-8.8v-0.8h1.6v-3.5l1.1,0.1c0,0.1-0.1,0.1-0.3,0.2v3.2h1.8v-4.6
		l1.1,0.1c0,0.1-0.1,0.2-0.2,0.2v1.7h3.2v0.8h-3.2V91.2z M327.3,97.9c0.9-0.5,2.3-1.3,3.6-2.1l0.3,0.8c-1.1,0.7-2.4,1.5-3.1,2
		c0,0.1,0,0.2-0.1,0.2L327.3,97.9z M328.7,92.5c0.8,0.6,1.7,1.5,2.1,2.1l-0.7,0.5c-0.4-0.6-1.3-1.5-2-2.1L328.7,92.5z M335.4,98.7
		c-0.7-0.7-2.1-1.8-3.2-2.5l0.6-0.6c1.1,0.7,2.6,1.7,3.3,2.4L335.4,98.7z M332.5,94.7c0.7-0.6,1.7-1.6,2.2-2.3l0.9,0.6
		c-0.1,0.1-0.2,0.1-0.3,0.1c-0.6,0.6-1.5,1.5-2.2,2.1L332.5,94.7z"/>
	<path d="M326.4,138.3c-0.6,0.4-1.2,0.9-1.9,1.2c-0.1-0.2-0.3-0.5-0.5-0.7c2.3-1.2,4.5-3.3,5.5-5.1l1.2,0.1c0,0.1-0.1,0.2-0.3,0.2
		c1.3,1.8,3.6,3.7,5.6,4.7c-0.2,0.2-0.4,0.5-0.6,0.8c-0.6-0.3-1.2-0.7-1.8-1.1v5h-0.9v-0.5h-5.6v0.6h-0.9V138.3z M328.8,132
		c0,0.1-0.2,0.1-0.3,0.1c-0.9,1.2-2.2,2.4-3.4,3.2c-0.2-0.2-0.5-0.4-0.6-0.6c1.2-0.7,2.5-1.9,3.4-3.1L328.8,132z M333.4,138.1
		c-1.4-1-2.7-2.3-3.5-3.5c-0.7,1.1-1.9,2.4-3.3,3.5H333.4z M327.2,142h5.6v-3.1h-5.6V142z M331.9,131.5c1.3,0.9,2.8,2.2,3.6,3.1
		l-0.7,0.5c-0.7-0.9-2.2-2.2-3.5-3.2L331.9,131.5z"/>
</g>
<g>
	<rect x="147.5" y="179.2" class="st3" width="13" height="57.6"/>
	<path d="M152.2,183.1l0.6,0.3c0,0.1-0.1,0.1-0.1,0.2c-0.7,3.3-2.3,5.7-4.2,7c-0.2-0.2-0.5-0.6-0.7-0.7c1.8-1.1,3.2-3.1,3.9-5.8
		h-3.5v-0.9h3.9L152.2,183.1z M154.5,182.1c0.3,1.1,0.7,2.1,1.1,3.1c1.1-0.9,2.4-2.3,3.2-3.3l0.9,0.7c-0.1,0.1-0.2,0.1-0.3,0.1
		c-0.9,1-2.4,2.4-3.5,3.3c1,1.8,2.4,3.3,4.2,4c-0.2,0.2-0.5,0.5-0.7,0.8c-2.4-1.1-4-3.4-5.1-6.3v6c0,1.2-0.5,1.3-3,1.3
		c-0.1-0.3-0.2-0.7-0.4-0.9c0.5,0,0.9,0,1.3,0c1.1,0,1.1,0,1.1-0.4v-10.8l1.2,0.1c0,0.1-0.1,0.2-0.3,0.2V182.1z"/>
	<path d="M159.4,200.6h-4.8c0.9,2.7,2.6,4.5,5.4,5.2c-0.2,0.2-0.5,0.6-0.6,0.8c-2.7-0.8-4.4-2.5-5.4-5.1c-0.5,1.9-1.9,3.8-5.6,5.1
		c-0.1-0.2-0.4-0.6-0.5-0.8c3.8-1.4,5-3.3,5.4-5.3h-4.7v-0.9h4.8c0-0.3,0-0.5,0-0.8v-2.4h-5.2v-0.9h11.6v0.9h-5.4v2.4
		c0,0.3,0,0.5,0,0.8h5.1V200.6z"/>
	<path d="M154.4,210.9h5.1v3h-0.9v-2.2h-9.2v2.2h-0.9v-3h5v-1.5l1.2,0.1c0,0.1-0.1,0.2-0.3,0.2V210.9z M157.3,216.2h-2.9
		c0,0.3-0.1,0.8-0.2,1.2h4.2v4.1h-0.9V221h-6.9v0.5h-0.9v-4.1h3.5c0.1-0.4,0.1-0.8,0.2-1.2h-2.8v-3.4h6.6V216.2z M157.5,220.2v-2
		h-6.9v2H157.5z M151.5,213.6v1.9h4.9v-1.9H151.5z"/>
	<path d="M158.1,224.6c-0.1,0.1-0.1,0.1-0.3,0.1c-0.4,0.5-1,1.2-1.5,1.7h3.5v0.8h-11.8v-0.8h3.6c-0.3-0.5-0.9-1.3-1.5-1.8l0.8-0.4
		c0.6,0.5,1.3,1.3,1.6,1.8l-0.8,0.4h4.5l-0.7-0.3c0.5-0.5,1.1-1.3,1.5-1.9L158.1,224.6z M153.1,228.5L153.1,228.5l0.4,0v6.8
		c0,0.9-0.4,1-2.3,1c-0.1-0.2-0.2-0.6-0.3-0.8c0.3,0,0.6,0,0.8,0c0.9,0,0.9,0,0.9-0.2v-1.8h-2.8v2.9H149v-7.9H153.1z M152.7,229.2
		h-2.8v1.4h2.8V229.2z M149.8,232.8h2.8v-1.4h-2.8V232.8z M155,228.6l1.1,0.1c0,0.1-0.1,0.1-0.3,0.2v5.2H155V228.6z M158.9,235.3
		c0,1-0.4,1.1-2.6,1.1c0-0.2-0.2-0.6-0.3-0.8c0.5,0,0.9,0,1.3,0c0.7,0,0.8,0,0.8-0.3v-7.1l1.1,0.1c0,0.1-0.1,0.2-0.3,0.2V235.3z"/>
</g>
<g>
	<rect x="278.7" y="84.3" class="st3" width="13" height="61.8"/>
	<path d="M279.3,94H291v0.9h-11.7V94z M280.5,86.6h9.5v0.9h-9.5V86.6z"/>
	<path d="M291.2,102.7v0.8h-5.5v3.9c0,0.6-0.2,0.8-0.6,1c-0.5,0.1-1.3,0.1-2.6,0.1c-0.1-0.2-0.2-0.6-0.4-0.9c0.7,0,1.3,0,1.8,0
		c0.8,0,0.9,0,0.9-0.3v-3.9h-5.5v-0.8h5.5v-2l0.5,0c1-0.5,2.1-1.2,3-1.9h-7.7V98h8.6l0.2-0.1l0.8,0.5c0,0.1-0.1,0.1-0.2,0.1
		c-1.1,1-2.8,2.1-4.3,2.9v1.3H291.2z"/>
	<path d="M285.6,119.6h5.5v0.8h-11.8v-0.8h5.4v-4.1h-4.1v-0.8h4.1v-3.6H280v-0.8h10.5v0.8h-4.9v3.6h4.4v0.8h-4.4V119.6z M289.3,119
		c-0.5-0.7-1.6-1.7-2.5-2.4l0.7-0.5c0.9,0.7,2,1.6,2.5,2.3L289.3,119z"/>
	<path d="M280.7,122.5l1.1,0.1c0,0.1-0.1,0.1-0.3,0.2v4c0,2.4-0.2,4.8-1.9,6.6c-0.2-0.2-0.5-0.4-0.7-0.6c1.6-1.7,1.7-3.9,1.7-6
		V122.5z M284.9,123l1.1,0.1c0,0.1-0.1,0.1-0.3,0.2v8.9h-0.9V123z M289.5,122.5l1.2,0.1c0,0.1-0.1,0.1-0.3,0.2v10.6h-0.9V122.5z"/>
	<path d="M279.7,134.7h11v10.9h-0.9v-0.5h-9.3v0.5h-0.8V134.7z M280.5,144.3h9.3v-8.8h-9.3V144.3z M285.6,141.2
		c0.3,0.3,0.7,0.6,1.1,0.9c0.6-0.3,1.2-0.8,1.6-1.1l0.7,0.4c0,0-0.1,0.1-0.3,0.1c-0.4,0.3-1,0.6-1.6,0.9c0.7,0.4,1.4,0.7,2.2,0.9
		c-0.2,0.1-0.4,0.4-0.5,0.6c-1.3-0.4-2.7-1.2-3.6-2.1v2.2h-0.8V142c-0.9,0.6-2,1.1-3.1,1.5c-0.1-0.1-0.3-0.4-0.5-0.5
		c1.2-0.4,2.6-1,3.6-1.8h-2.3v-2.1h5.7v2.1H285.6z M289.1,137.9v0.6h-7.9v-0.6h3.5v-0.8H282v-0.6h2.7v-0.8l1.1,0.1
		c0,0.1-0.1,0.1-0.2,0.2v0.5h2.8v0.6h-2.8v0.8H289.1z M283,139.6v1.1h4.2v-1.1H283z"/>
</g>
<rect x="279" y="134" class="st2" width="13" height="13"/>
<g>
	<rect x="279.5" y="428.2" class="st3" width="13" height="57.6"/>
	<path d="M286.2,435.8c0.4,0.8,0.8,1.4,1.4,2c1-0.5,2.2-1.3,2.9-1.8l0.8,0.6c-0.1,0.1-0.2,0.1-0.3,0.1c-0.8,0.5-1.9,1.2-2.9,1.7
		c1,0.8,2.3,1.4,3.9,1.7c-0.2,0.2-0.4,0.5-0.5,0.8c-3-0.7-5.1-2.4-6.2-5h-2v3.6c1.1-0.2,2.4-0.4,3.5-0.6l0,0.7
		c-2.1,0.4-4.3,0.8-5.6,1c0,0.1-0.1,0.2-0.2,0.2l-0.4-0.9c0.5-0.1,1.1-0.2,1.7-0.3v-3.8h-2.3V435h2.3v-5.8h8.2v0.8h-7.3v1.2h6.9v0.7
		h-6.9v1.2h6.9v0.7h-6.9v1.2h8.5v0.8H286.2z"/>
	<path d="M280.4,454.6c0.8,0.3,1.8,0.9,2.3,1.4l-0.5,0.7c-0.5-0.5-1.5-1.1-2.3-1.4L280.4,454.6z M280.3,462.3c0.6-1,1.6-2.8,2.2-4.2
		l0.7,0.5c-0.6,1.4-1.4,3-2,4c0.1,0.1,0.1,0.1,0.1,0.2c0,0.1,0,0.1-0.1,0.1L280.3,462.3z M281.1,451.1c0.8,0.4,1.8,1,2.3,1.5
		c-0.3,0.4-0.4,0.5-0.5,0.7c-0.5-0.5-1.5-1.1-2.3-1.5L281.1,451.1z M292,460.1v0.8h-4.3v2.1h-0.8v-2.1h-3.9v-0.8h3.9V459h-3.2v-0.8
		h3.2v-1.1H284v-0.8h2.9v-1.2h-3.7v-0.8h3.7v-1.2h-2.8v-0.7h2.8V451l1.1,0.1c0,0.1-0.1,0.1-0.2,0.2v1.2h3.1v2h1.2v0.8h-1.2v2h-3.1
		v1.1h3.5v0.8h-3.5v1.1H292z M287.7,453.1v1.2h2.2v-1.2H287.7z M287.7,455.1v1.2h2.2v-1.2H287.7z"/>
	<path d="M280.7,474.2h10.8v11.1h-0.9v-0.8h-9v0.8h-0.9V474.2z M285.5,475h-4v3.8h4V475z M281.5,479.7v3.9h4v-3.9H281.5z
		 M290.5,478.8V475h-4.1v3.8H290.5z M286.4,483.5h4.1v-3.9h-4.1V483.5z"/>
</g>
<g>
	<rect x="367.5" y="428.2" class="st3" width="13" height="57.6"/>
	<path d="M370.9,433.4c0.4,0.5,1.5,2,1.8,2.3l-0.5,0.7c-0.2-0.4-0.8-1.3-1.3-2v6.3h-0.8v-6.4c-0.5,1.5-1.1,3-1.8,3.9
		c-0.1-0.2-0.3-0.6-0.5-0.8c0.9-1.1,1.7-3.2,2.1-5.1h-1.9v-0.8h2v-2.9l1.1,0.1c0,0.1-0.1,0.1-0.3,0.2v2.7h1.7v0.8h-1.7V433.4z
		 M373.8,432.4v1.1c0,2.1-0.2,5.2-1.6,7.3c-0.1-0.2-0.5-0.4-0.7-0.5c1.3-2,1.5-4.7,1.5-6.7v-4.2h6.6v3.1H373.8z M376.8,439.4
		c0,0.4,0.1,0.5,0.5,0.5h1.5c0.4,0,0.4-0.2,0.5-1.4c0.2,0.1,0.5,0.3,0.7,0.3c-0.1,1.4-0.3,1.8-1.1,1.8h-1.7c-1,0-1.2-0.2-1.2-1.2
		v-1.3c-1.4,0.2-1.8,0.3-2.1,0.4c0-0.2-0.1-0.3-0.1-0.7l2.3-0.4v-1.3l-1.8,0.3l-0.1-0.7l1.9-0.3v-1.2c-0.6,0.1-1.2,0.3-1.7,0.4
		c0-0.2-0.2-0.4-0.3-0.6c1.5-0.3,3.3-0.8,4.2-1.3l0.8,0.6c0,0.1-0.1,0.1-0.2,0.1c-0.5,0.2-1.2,0.5-2,0.7v1.3l2.6-0.4l0.1,0.7
		l-2.7,0.5v1.3l3.1-0.5l0.1,0.7l-3.2,0.5V439.4z M378.8,430h-4.9v1.6h4.9V430z"/>
	<path d="M373,451.6c0,0.2-0.2,0.2-0.4,0.2c-0.1,0.7-0.4,2-0.5,2.8c0.6-0.1,1.1-0.1,1.4-0.1c2,0,2.7,1.3,2.7,3.2
		c0,1-0.2,2.1-0.4,2.9c-0.4,1.3-1.2,2-2.3,2c-0.5,0-1.2-0.2-2.4-1.1c0.1-0.2,0.2-0.5,0.4-0.8c1,0.8,1.6,1,2,1c0.7,0,1.2-0.5,1.4-1.3
		c0.3-0.8,0.4-2,0.4-2.7c0-1.5-0.5-2.4-1.8-2.4c-0.4,0-0.9,0.1-1.6,0.1c-0.7,2.7-1.4,4.9-2.7,7l-0.9-0.4c1.3-2,2-4,2.6-6.5
		c-0.7,0.1-1.6,0.2-2.3,0.3l-0.1-0.9c0.6-0.1,1.7-0.2,2.6-0.3c0.2-0.9,0.4-2.1,0.6-3.3L373,451.6z M376,451.2
		c0.6,0.5,1.4,1.3,1.7,1.8l-0.5,0.4c-0.4-0.6-1.1-1.4-1.7-1.8L376,451.2z M378.9,458.8c-0.4-1.9-1.5-3.4-2.7-4.4l0.8-0.5
		c1.3,1.1,2.4,2.7,2.8,4.6L378.9,458.8z M378,450.7c0.6,0.5,1.4,1.2,1.8,1.8l-0.5,0.4c-0.4-0.6-1.1-1.4-1.7-1.8L378,450.7z"/>
	<path d="M370.4,480.3c-0.6,0.4-1.2,0.9-1.9,1.2c-0.1-0.2-0.3-0.5-0.5-0.7c2.3-1.2,4.5-3.3,5.5-5.1l1.2,0.1c0,0.1-0.1,0.2-0.3,0.2
		c1.3,1.8,3.6,3.7,5.6,4.7c-0.2,0.2-0.4,0.5-0.6,0.8c-0.6-0.3-1.2-0.7-1.8-1.1v5h-0.9v-0.5h-5.6v0.6h-0.9V480.3z M372.8,474
		c0,0.1-0.2,0.1-0.3,0.1c-0.9,1.2-2.2,2.4-3.4,3.2c-0.2-0.2-0.5-0.4-0.6-0.6c1.2-0.7,2.5-1.9,3.4-3.1L372.8,474z M377.4,480.1
		c-1.4-1-2.7-2.3-3.5-3.5c-0.7,1.1-1.9,2.4-3.3,3.5H377.4z M371.2,484h5.6v-3.1h-5.6V484z M375.9,473.5c1.3,0.9,2.8,2.2,3.6,3.1
		l-0.7,0.5c-0.7-0.9-2.2-2.2-3.5-3.2L375.9,473.5z"/>
</g>
<g>
	<rect x="323.5" y="428.2" class="st3" width="13" height="57.6"/>
	<path d="M329.5,432.6l0,0.5c-1.9,0.1-3.8,0.3-5,0.4c0,0.1-0.1,0.1-0.2,0.2l-0.3-0.8l0.9,0v-1.6l0.9,0.1c0,0.1-0.1,0.1-0.2,0.2v1.4
		l1-0.1v-2h-1.8V429h4.3v1.8h-1.8v0.6h2v0.6h-2v0.7L329.5,432.6z M326.3,439.1c-0.2,0.7-0.6,1.2-1.4,1.6l-0.6-0.5
		c0.7-0.2,1.1-0.8,1.3-1.3L326.3,439.1z M325.6,429.6v0.8h2.8v-0.8H325.6z M327.1,436.7v0.5h8.9v0.5h-8.9v0.5h7.3l0.2,0l0.5,0.1
		l-0.1,0.2c-0.2,1.7-0.4,2.2-1.2,2.2c-0.3,0-0.8,0-1.4,0c0-0.2-0.1-0.4-0.2-0.6l0.1,0c-0.2-0.3-0.5-0.7-0.9-0.9l0.6-0.3
		c0.4,0.3,0.7,0.6,0.9,0.9l-0.6,0.3c0.5,0.1,0.9,0.1,1.1,0.1c0.5,0,0.6-0.3,0.7-1.5h-8v-4.7h2.8c0.2-0.3,0.4-0.6,0.5-0.9l1,0.2
		c0,0.1-0.1,0.1-0.2,0.1c-0.1,0.2-0.2,0.3-0.4,0.5h3.8v2.6H327.1z M332.8,434.6h-5.7v0.5h5.7V434.6z M327.1,436.1h5.7v-0.6h-5.7
		V436.1z M327.7,440.6c0-0.4-0.2-0.9-0.4-1.4l0.7-0.2c0.2,0.4,0.4,1,0.4,1.3L327.7,440.6z M330.1,440.4c-0.1-0.3-0.5-0.9-0.8-1.2
		l0.7-0.2c0.3,0.4,0.6,0.9,0.8,1.2L330.1,440.4z M334.6,429.2l0.5,0.2c0,0.1-0.1,0.1-0.1,0.1c-0.4,0.5-0.8,0.9-1.4,1.3
		c0.9,0.3,1.8,0.5,2.8,0.7c-0.2,0.1-0.3,0.4-0.4,0.6c-0.4-0.1-0.8-0.1-1.1-0.2v1.8h-4v-1.7c-0.3,0.1-0.7,0.2-1,0.2
		c-0.1-0.2-0.2-0.4-0.4-0.6c0.9-0.1,1.9-0.4,2.8-0.7c-0.4-0.2-0.8-0.5-1.1-0.7c-0.3,0.2-0.7,0.4-1.2,0.6c-0.1-0.2-0.3-0.4-0.5-0.4
		c1.1-0.5,1.9-1.1,2.4-1.6l0.8,0.1c0,0.1-0.1,0.1-0.2,0.1c-0.1,0.1-0.2,0.2-0.3,0.3h2.2L334.6,429.2z M334.5,431.7
		c-0.6-0.2-1.1-0.3-1.6-0.6c-0.5,0.2-1,0.4-1.6,0.6H334.5z M334,433.1v-0.8h-2.5v0.8H334z M331.6,429.7c0.3,0.3,0.7,0.5,1.2,0.8
		c0.4-0.2,0.8-0.5,1.1-0.8H331.6z"/>
	<path d="M324.4,476.9c0.8,0.3,1.9,0.9,2.4,1.3l-0.5,0.7c-0.5-0.4-1.6-1-2.4-1.4L324.4,476.9z M324.3,484.6c0.7-1,1.6-2.8,2.4-4.3
		l0.7,0.5c-0.7,1.4-1.5,3-2.1,4.1c0.1,0.1,0.1,0.1,0.1,0.2c0,0.1,0,0.1,0,0.1L324.3,484.6z M325.1,473.4c0.8,0.4,1.9,1,2.4,1.4
		l-0.5,0.7c-0.5-0.5-1.5-1.1-2.4-1.5L325.1,473.4z M335.1,473.9l0.5,0.1c0,0.1,0,0.2,0,0.3c-0.1,3-0.3,4.1-0.6,4.5
		c-0.3,0.3-0.6,0.4-1.5,0.4c-0.3,0-0.7,0-1.1,0c0-0.2-0.1-0.6-0.3-0.8c0.7,0.1,1.4,0.1,1.6,0.1c0.2,0,0.4,0,0.5-0.1
		c0.2-0.2,0.3-1.1,0.5-3.5h-3c-0.4,2-1,3.9-3.7,5c-0.1-0.2-0.4-0.5-0.5-0.7c2.3-0.9,3-2.5,3.3-4.3h-2.6v-0.8h6.7L335.1,473.9z
		 M328.5,485.3v-5.3h6.6v5.2h-0.9v-0.6h-4.8v0.6H328.5z M334.2,480.9h-4.8v3.1h4.8V480.9z"/>
</g>
<g>
	<rect x="323.5" y="299.2" class="st3" width="13" height="57.6"/>
	<path class="st6" d="M331.6,300c0,0.1-0.1,0.1-0.3,0.1c-0.1,0.3-0.2,0.7-0.3,1h5v0.8h-5.3c-0.4,0.8-0.8,1.6-1.2,2.2
		c-0.1-0.2-0.4-0.4-0.6-0.5v3.8h-1.6v2.3h1.9v0.8h-3.9v0.8h-0.8v-10.8h4.7v0.8h-1.9v2h1.6v0.2c0.7-0.9,1.3-2.4,1.7-3.8L331.6,300z
		 M326.4,301.2h-1.2v2h1.2V301.2z M328.1,306.6v-2.5h-2.9v2.5H328.1z M326.4,309.6v-2.3h-1.2v2.3H326.4z M329.4,311.7v-4.6h2.7v4.4
		h-0.7V311h-1.3v0.7H329.4z M331.4,307.9h-1.3v2.4h1.3V307.9z M334.8,303v3.2h-4.5V303H334.8z M334,305.4v-1.7h-2.9v1.7H334z
		 M332.9,311.7v-4.6h2.8v4.4H335V311h-1.4v0.7H332.9z M335,307.9h-1.4v2.4h1.4V307.9z"/>
	<path class="st6" d="M328.1,345.1v8.6h-2.9v1.1h-0.8v-9.7H328.1z M327.3,345.9h-2v3.1h2V345.9z M325.3,352.9h2v-3.1h-2V352.9z
		 M332.6,348.5h3.4v0.8h-7.7v-0.8h3.4v-1.8h-2.8v-0.8h2.8v-1.6l1.1,0.1c0,0.1-0.1,0.2-0.3,0.2v1.4h2.9v0.8h-2.9V348.5z M334.7,349.6
		c0,0.1-0.1,0.2-0.2,0.2v1.1h1.6v0.8h-1.6v3.6c0,0.5-0.1,0.8-0.5,0.9c-0.4,0.1-1.1,0.1-2.1,0.1c0-0.2-0.2-0.6-0.3-0.8
		c0.5,0,1,0,1.3,0c0.7,0,0.8,0,0.8-0.3v-3.6h-5.2v-0.8h5.2v-1.4L334.7,349.6z M331,355c-0.3-0.6-1-1.6-1.7-2.3l0.7-0.4
		c0.7,0.7,1.4,1.6,1.8,2.3L331,355z"/>
</g>
<g>
	<rect x="278.7" y="299.2" class="st3" width="13" height="57.6"/>
	<path class="st6" d="M279.8,300.5h10.8v11.2h-0.9v-0.9h-9v0.9h-0.9V300.5z M280.7,309.9h9v-8.6h-9V309.9z M282.7,303.4h4.9v4.4
		h-4.9V303.4z M286.8,307.1v-2.9h-3.3v2.9H286.8z"/>
	<path class="st6" d="M282,349.5v4.3c1,1.5,2.9,1.5,5.2,1.5c1.4,0,3.1,0,4.1-0.1c-0.1,0.2-0.3,0.6-0.3,0.9c-0.9,0-2.3,0.1-3.6,0.1
		c-2.7,0-4.5,0-5.8-1.6c-0.6,0.6-1.3,1.2-1.9,1.6c0,0.1,0,0.2-0.1,0.2l-0.5-1c0.6-0.4,1.4-1,2.1-1.6v-3.5h-1.9v-0.8H282z
		 M280.1,344.6c0.9,0.6,1.9,1.4,2.3,2.1l-0.7,0.6c-0.4-0.6-1.4-1.5-2.3-2.1L280.1,344.6z M291.1,350.4h-3.5c0.5,1.7,1.7,2.9,3.5,3.4
		c-0.2,0.2-0.4,0.5-0.6,0.7c-1.8-0.6-2.9-1.8-3.5-3.6c-0.4,1.2-1.3,2.5-3.5,3.5c-0.1-0.2-0.4-0.5-0.6-0.7c2.4-1,3.1-2.3,3.4-3.4
		h-3.5v-0.8h3.6c0-0.2,0-0.3,0-0.5v-1.5h-3.2v-0.8h5.2l-0.7-0.3c0.4-0.6,1-1.6,1.3-2.2l1,0.4c0,0.1-0.1,0.1-0.3,0.1
		c-0.3,0.6-0.9,1.5-1.4,2h2.3v0.8h-3.4v1.5c0,0.1,0,0.3,0,0.5h3.8V350.4z M284.9,346.8c-0.2-0.6-0.7-1.5-1.2-2.2l0.7-0.3
		c0.5,0.7,1.1,1.5,1.2,2.1L284.9,346.8z"/>
</g>
<g>
	<rect x="235.5" y="299.2" class="st3" width="13" height="57.6"/>
	<path class="st6" d="M235.9,302.6v-0.7h4.6v0.7H235.9z M240.2,307.2v3.8h-3v0.6h-0.8v-4.4H240.2z M240.2,303.6v0.7h-3.7v-0.7H240.2
		z M236.5,306.1v-0.7h3.7v0.7H236.5z M240.2,300.1v0.7h-3.6v-0.7H240.2z M239.5,307.9h-2.2v2.3h2.2V307.9z M243.2,309.5l1.7-0.4
		l0.1,0.7c-1.4,0.3-2.8,0.7-3.7,0.9c0,0.1-0.1,0.2-0.2,0.2l-0.4-0.9c0.5-0.1,1.1-0.2,1.7-0.4v-3.9H241V305h3.6v0.8h-1.4V309.5z
		 M247.9,303.1h-2.1c0.1,4.1,0.4,7.5,1.3,7.7h0c0.2,0,0.4-0.8,0.4-1.9c0.2,0.2,0.4,0.4,0.6,0.5c-0.2,1.6-0.5,2.3-1.1,2.3
		c-0.1,0-0.2,0-0.3-0.1c-1.4-0.4-1.7-4.1-1.8-8.6h-4.2v-0.8h4.2l0-2.6l1.2,0.1c0,0.1-0.1,0.2-0.3,0.2c0,0.8,0,1.6,0,2.4h2.1V303.1z
		 M246.7,299.7c0.5,0.5,1.1,1.2,1.4,1.7l-0.6,0.4c-0.3-0.5-0.8-1.2-1.4-1.8L246.7,299.7z"/>
	<path class="st6" d="M238.6,327.2v4.3c1,1.5,2.9,1.5,5.4,1.5c1.4,0,3.1,0,4.1-0.1c-0.1,0.2-0.2,0.6-0.3,0.9c-0.9,0-2.3,0.1-3.6,0.1
		c-2.9,0-4.7,0-5.9-1.6c-0.6,0.6-1.2,1.2-1.7,1.6c0,0.1,0,0.2-0.1,0.2l-0.5-0.9c0.6-0.4,1.2-1,1.8-1.5V328H236v-0.8H238.6z
		 M236.8,322.3c0.8,0.6,1.7,1.5,2.1,2.2l-0.7,0.5c-0.4-0.7-1.3-1.6-2.1-2.2L236.8,322.3z M243.1,332.6v-1.4h-3.9v-0.7h3.9v-0.9h-2.9
		V326h2.9v-0.9h-3.4v-0.7h3.4v-1l1.1,0.1c0,0.1-0.1,0.2-0.3,0.2v0.8h3.4v0.7h-3.4v0.9h2.9v3.7h-2.9v0.9h3.9v0.7h-3.9v1.4H243.1z
		 M240.3,323.1v1h-0.8v-1.7h8.1v1.7h-0.8v-1H240.3z M241,326.6v0.9h2.1v-0.9H241z M241,329.1h2.1v-0.9H241V329.1z M246,326.6h-2.1
		v0.9h2.1V326.6z M246,329.1v-0.9h-2.1v0.9H246z"/>
	<path class="st6" d="M241.9,354h-2.6v2.3h-0.8V354H236v-0.8h2.6v-1.1h-2.1v-4.6h2.1v-1h-2.4v-0.8h2.4v-1.5l1.1,0.1
		c0,0.1-0.1,0.2-0.2,0.2v1.2h2.4v0.8h-2.4v1h2.2v4.6h-2.2v1.1h2.6V354z M237.2,348.2v1.3h1.4v-1.3H237.2z M237.2,350.1v1.3h1.4v-1.3
		H237.2z M240.8,349.5v-1.3h-1.5v1.3H240.8z M240.8,351.4v-1.3h-1.5v1.3H240.8z M246.4,351.9c0.8,1.3,1.5,3,1.8,4.1l-0.8,0.3
		c-0.1-0.3-0.2-0.6-0.3-0.9c-1.9,0.2-3.7,0.4-5,0.5c0,0.1-0.1,0.2-0.2,0.2l-0.3-1c0.3,0,0.7,0,1.1-0.1c0.4-1.3,0.8-3.3,1.1-4.8h-1.9
		v-0.8h6.2v0.8h-3.4c-0.3,1.4-0.7,3.3-1.2,4.7c1-0.1,2.2-0.2,3.3-0.2c-0.3-0.8-0.8-1.7-1.2-2.5L246.4,351.9z M247.5,345.2v0.8h-5.1
		v-0.8H247.5z"/>
</g>
<g>
	<rect x="147.5" y="299.2" class="st3" width="13" height="57.6"/>
	<path class="st0" d="M149.3,302.3c0,1.1-0.2,2.6-0.7,3.4l-0.7-0.4c0.4-0.8,0.7-2.1,0.7-3.2L149.3,302.3z M149.9,299.7l1.1,0.1
		c0,0.1-0.1,0.2-0.3,0.2v11.8h-0.9V299.7z M151.6,301.7c0.4,0.7,0.9,1.5,1.1,2.1l-0.6,0.4c-0.2-0.6-0.7-1.5-1.1-2.1L151.6,301.7z
		 M160.1,306.6h-3.7c0.7,2,2,3.7,3.9,4.4c-0.2,0.2-0.5,0.5-0.6,0.8c-1.9-0.8-3.2-2.5-4-4.7c-0.4,1.7-1.4,3.4-3.5,4.7
		c-0.1-0.2-0.4-0.5-0.6-0.6c2.2-1.3,3-2.9,3.4-4.5h-3v-0.8h3.1c0.1-0.7,0.1-1.5,0.1-2.1v-1h-2.4v-0.8h2.4v-2.2l1.1,0.1
		c0,0.1-0.1,0.2-0.3,0.2v1.9h2.9v3.9h1.2V306.6z M156,302.6v1c0,0.7,0,1.4-0.1,2.1h2.1v-3.1H156z"/>
	<path class="st0" d="M150.8,349.5v4.3c1,1.5,2.9,1.5,5.2,1.5c1.4,0,3.1,0,4.1-0.1c-0.1,0.2-0.3,0.6-0.3,0.9c-0.9,0-2.3,0.1-3.6,0.1
		c-2.7,0-4.5,0-5.8-1.6c-0.6,0.6-1.3,1.2-1.9,1.6c0,0.1,0,0.2-0.1,0.2l-0.5-1c0.6-0.4,1.4-1,2.1-1.6v-3.5H148v-0.8H150.8z
		 M148.9,344.6c0.9,0.6,1.9,1.4,2.3,2.1l-0.7,0.6c-0.4-0.6-1.4-1.5-2.3-2.1L148.9,344.6z M155.2,354.7v-3.4
		c-0.8,1.2-2.1,2.3-3.2,2.9c-0.1-0.2-0.4-0.5-0.6-0.7c1.2-0.5,2.5-1.6,3.3-2.8h-2.4v-3.2h2.9v-1.1h-3.6v-0.8h3.6v-1.5l1.1,0.1
		c0,0.1-0.1,0.2-0.2,0.2v1.3h3.9v0.8H156v1.1h3v3.2h-2.5c0.8,1.1,2.2,2.2,3.4,2.7c-0.2,0.2-0.5,0.5-0.6,0.7
		c-1.1-0.6-2.4-1.8-3.3-2.9v3.4H155.2z M153.1,348.4v1.8h2.1v-1.8H153.1z M158.2,348.4H156v1.8h2.2V348.4z"/>
</g>
<g>
	<rect x="103.5" y="299.2" class="st3" width="13" height="57.6"/>
	<path class="st6" d="M105.7,303.6v-0.2c-0.3,0.3-0.7,0.6-1.1,0.8c-0.1-0.2-0.4-0.5-0.6-0.6c1.7-1.1,3-2.6,3.6-3.9l1.1,0.2
		c0,0.1-0.1,0.2-0.3,0.2c-0.1,0.2-0.3,0.5-0.4,0.7h3.8l0.1-0.1l0.7,0.4c0,0.1-0.1,0.1-0.2,0.1c-0.3,0.5-0.7,1.1-1.1,1.6h2.9v4.6h-5
		c0.8,0.3,1.6,0.8,2.1,1.2l-0.6,0.6c-0.5-0.5-1.5-1.1-2.4-1.4l0.4-0.4h-3.3v-0.8h7.9v-1.2h-7.5v-0.7h7.5v-1.2H105.7z M106.6,308.5
		c-0.3,1.1-0.9,2.1-1.9,2.7l-0.7-0.5c0.9-0.6,1.5-1.5,1.8-2.5L106.6,308.5z M110.3,302.8c0.3-0.4,0.7-0.9,0.9-1.4h-3.8
		c-0.3,0.5-0.7,0.9-1.2,1.4H110.3z M108.3,310.4c0,0.3,0.1,0.4,0.8,0.4h2.3c0.6,0,0.7-0.2,0.7-1.5c0.2,0.1,0.5,0.3,0.8,0.3
		c-0.1,1.6-0.4,2-1.4,2H109c-1.3,0-1.6-0.2-1.6-1.1v-2l1.1,0.1c0,0.1-0.1,0.2-0.2,0.2V310.4z M115.3,311.3c-0.4-0.8-1.5-1.9-2.4-2.7
		l0.7-0.4c0.9,0.8,2,1.9,2.5,2.7L115.3,311.3z"/>
	<path class="st6" d="M107.9,344.7c0,0.1-0.1,0.1-0.3,0.1c-0.8,0.9-2.1,2.2-3.3,3c-0.1-0.2-0.4-0.5-0.5-0.7c1.1-0.7,2.4-1.9,3-2.8
		L107.9,344.7z M106,356.3v-5.7c-0.5,0.5-1,1.1-1.5,1.5c-0.1-0.2-0.4-0.5-0.6-0.7c1.2-1,2.7-2.7,3.6-4.4l1,0.4
		c0,0.1-0.1,0.1-0.3,0.1c-0.4,0.6-0.8,1.3-1.3,1.9l0.2,0.1c0,0.1-0.1,0.1-0.3,0.2v6.6H106z M116,348.9v0.8h-2.1v5.5
		c0,1.1-0.4,1.1-3,1.1c0-0.2-0.2-0.6-0.3-0.9c0.6,0,1.1,0,1.5,0c0.8,0,0.9,0,0.9-0.3v-5.5h-4.5v-0.8H116z M115.5,345.1v0.8H109v-0.8
		H115.5z"/>
</g>
<g>
	<rect x="59.5" y="299.2" class="st3" width="13" height="57.6"/>
	<path d="M67.7,304.9h4.2v0.7H60.1v-0.7h4.1v-2.7h-3.4v-0.7h2.6c-0.2-0.5-0.7-1.1-1.1-1.5l0.7-0.4c0.5,0.5,1,1.2,1.2,1.8l-0.2,0.1
		h3.5l-0.2-0.1c0.4-0.5,0.9-1.3,1.1-1.8l1,0.4c0,0.1-0.1,0.1-0.3,0.1c-0.2,0.4-0.6,0.9-1,1.4h2.9v0.7h-3.6V304.9z M62.6,304.8
		c-0.2-0.6-0.6-1.5-1.1-2.1l0.7-0.3c0.5,0.6,0.9,1.5,1.1,2L62.6,304.8z M62.2,311.7v-5.2h7.7v5.1H69v-0.4H63v0.5H62.2z M69,307.3H63
		v1.3H69V307.3z M63,310.5H69v-1.3H63V310.5z M65,302.3v2.7h1.8v-2.7H65z M70.7,302.8c-0.1,0.1-0.1,0.1-0.3,0.1
		c-0.3,0.6-0.9,1.4-1.3,2l-0.6-0.3c0.4-0.6,0.9-1.5,1.2-2.2L70.7,302.8z"/>
	<path d="M62.8,349.5v4.3c1,1.5,2.8,1.5,5.3,1.5c1.4,0,3.1,0,4.1-0.1c-0.1,0.2-0.2,0.6-0.3,0.9c-0.9,0-2.3,0.1-3.6,0.1
		c-2.8,0-4.6,0-5.9-1.6c-0.7,0.6-1.4,1.2-2,1.6c0,0.1,0,0.2-0.1,0.2l-0.5-0.9c0.6-0.4,1.4-1,2.1-1.6v-3.5h-2v-0.8H62.8z M60.8,344.6
		c0.8,0.6,1.8,1.5,2.2,2.2l-0.6,0.6c-0.4-0.7-1.4-1.6-2.2-2.2L60.8,344.6z M68.1,347.6c-0.8-0.4-1.8-0.8-2.7-1.2l0.6-0.5
		c0.6,0.2,1.2,0.5,1.9,0.8c0.7-0.3,1.4-0.7,2-1.1h-5.7v-0.7h6.6l0.1,0l0.7,0.4c0,0.1-0.1,0.1-0.2,0.1c-0.7,0.6-1.7,1.2-2.7,1.7
		c0.4,0.2,0.8,0.4,1.1,0.5h1.7v5.9c0,0.9-0.3,0.9-2.2,0.9c0-0.2-0.1-0.5-0.2-0.7c0.4,0,0.7,0,1,0c0.6,0,0.6,0,0.6-0.2v-1.3h-2.4v2.2
		h-0.8v-2.2H65v2.2h-0.8v-6.8H68.1z M67.4,348.3H65v1.2h2.4V348.3z M65,351.5h2.4v-1.3H65V351.5z M70.6,349.5v-1.2h-2.4v1.2H70.6z
		 M68.2,351.5h2.4v-1.3h-2.4V351.5z"/>
</g>
<g>
	<rect x="191.5" y="428.2" class="st3" width="13" height="57.6"/>
	<path d="M198.4,431h4.9v6.1h-0.9v-0.8h-4v4.3h-0.9v-4.3h-3.9v0.8h-0.9V431h4.8v-2.4l1.2,0.1c0,0.1-0.1,0.2-0.3,0.2V431z
		 M193.6,435.5h3.9v-3.6h-3.9V435.5z M198.4,435.5h4v-3.6h-4V435.5z"/>
	<path d="M203.9,450.5h-5.1c0.9,2.2,2.7,3.7,5.4,4.3c-0.2,0.2-0.5,0.6-0.6,0.8c-2.8-0.7-4.6-2.3-5.6-4.7c-0.6,1.9-2,3.7-5.6,4.8
		c-0.1-0.2-0.3-0.6-0.5-0.8c3.4-1.1,4.7-2.6,5.2-4.4h-5.1v-0.9h1.5v-4.3h3.9v-1.9l1.2,0.1c0,0.1-0.1,0.2-0.3,0.2v1.6h4.1v4.3h1.4
		V450.5z M194.4,449.7h2.9c0.1-0.5,0.1-1.1,0.1-1.7v-1.8h-3V449.7z M201.6,446.2h-3.2v1.8c0,0.6,0,1.1-0.1,1.7h3.3V446.2z"/>
	<path d="M195.4,463.3c0.5,0.4,1.7,1.8,2.1,2.1l-0.6,0.7c-0.3-0.4-0.9-1.2-1.5-1.9v6.1h-0.9v-6.7c-0.6,1.7-1.4,3.3-2.2,4.3
		c-0.1-0.3-0.3-0.6-0.5-0.8c1-1.1,2.1-3.2,2.6-5.1h-2.3v-0.8h2.4v-2.9l1.1,0.1c0,0.1-0.1,0.2-0.2,0.2v2.6h2.1v0.8h-2.1V463.3z
		 M204,462.1h-2.5c0.6,2.2,1.7,4.4,2.7,5.5c-0.2,0.2-0.5,0.5-0.7,0.7c-0.9-1.1-1.8-3-2.4-4.9v7.1h-0.9v-6.8c-0.8,1.9-1.8,3.8-3,4.8
		c-0.1-0.2-0.4-0.6-0.5-0.8c1.3-1.2,2.7-3.5,3.3-5.7h-2.3v-0.8h2.5v-2.9l1.1,0.1c0,0.1-0.1,0.2-0.3,0.2v2.6h2.8V462.1z"/>
	<path d="M197.4,478.3h-3.9v7h-0.9v-11.5h4.7V478.3z M196.5,474.5h-3v1.2h3V474.5z M193.5,477.6h3v-1.2h-3V477.6z M200.4,484.1h-4.1
		v0.7h-0.8v-5.4h4.9V484.1z M199.6,480.1h-3.3v1.3h3.3V480.1z M196.3,483.4h3.3V482h-3.3V483.4z M203.4,473.8v10.3
		c0,1.2-0.5,1.2-2.8,1.2c0-0.2-0.2-0.7-0.3-0.9c0.4,0,0.8,0,1.2,0c0.9,0,1,0,1-0.3v-5.8h-4v-4.5H203.4z M202.6,474.5h-3.1v1.2h3.1
		V474.5z M199.4,477.6h3.1v-1.3h-3.1V477.6z"/>
</g>
<g>
	<rect x="235.5" y="426.1" class="st3" width="13" height="61.8"/>
	<path d="M246.3,436.8c-1.1,0.2-2.7,0.3-4,0.3c-1.1,0-2-0.1-2.5-0.2c-1.6-0.3-2.2-1.3-2.2-2.4c0-1,0.6-1.9,1.3-2.6l0.8,0.4
		c-0.7,0.7-1.1,1.5-1.1,2.2c0,0.7,0.5,1.4,1.6,1.6c0.5,0.1,1.2,0.1,2.1,0.1c1.3,0,2.8-0.1,4-0.3L246.3,436.8z M240.5,430.5
		c0.7-0.5,1.6-1.1,2.3-1.4v0c-1,0.1-3.3,0.2-4.7,0.1c0-0.2,0-0.6,0-0.9c0.3,0,5.3,0.1,7.4-0.4l0.1,0.9c-1.5,0.2-3.5,1.5-4.4,2.1
		L240.5,430.5z"/>
	<path d="M246.1,443.3c0,0-0.1,0-0.1,0c-0.1,0-0.2,0-0.3-0.1c-3.9,1.1-7.4,2.7-7.3,4.3c0,1.2,1.4,1.6,3.5,1.6c2.1,0,3.7-0.1,4.6-0.3
		l0.1,0.9c-1.2,0.1-3.1,0.2-4.7,0.2c-2.6,0-4.4-0.6-4.5-2.4c0-1.3,1.4-2.5,3.4-3.5c-0.4-0.8-0.6-2.2-0.6-5l1.4,0.1
		c0,0.2-0.1,0.3-0.4,0.3c0,2.2,0.1,3.5,0.4,4.2c1.2-0.5,2.6-1,4.1-1.5L246.1,443.3z M244.4,439.4c0.7,0.6,1.3,1.3,1.7,1.8l-0.6,0.4
		c-0.3-0.6-0.9-1.3-1.6-1.8L244.4,439.4z M246.2,438.7c0.7,0.6,1.3,1.2,1.6,1.8l-0.5,0.3c-0.4-0.6-0.9-1.3-1.6-1.8L246.2,438.7z"/>
	<path d="M243.6,458c-0.8,0.1-2,0.1-3.1,0.1c0,0.4-0.1,0.9-0.1,1.1c0,2,1.4,2.1,2.6,2.1c2,0,3.1-0.6,3.1-1.7c0-0.6-0.4-1.4-1.1-2.3
		c0.2-0.1,0.6-0.2,0.8-0.3c0.8,1,1.2,1.9,1.2,2.7c0,2.1-2.4,2.4-4,2.4c-1.2,0-3.5-0.1-3.5-3c0-0.6,0.1-1,0.1-1.2
		c-1.1,0-2.8-0.1-2.8-1.4c0-0.6,0.3-1.1,1.1-1.6l0.7,0.4c-0.6,0.3-0.9,0.7-0.9,1.1c0,0.7,1,0.7,2,0.7c0.1-0.8,0.2-1.8,0.3-2.8
		c-0.9-0.1-2-0.3-2.7-0.7l0.2-0.8c0.7,0.3,1.6,0.6,2.6,0.7c0.1-0.8,0.2-1.6,0.3-2.2l1.4,0.2c0,0.1-0.2,0.2-0.4,0.2
		c-0.1,0.5-0.2,1.2-0.3,1.9c0.4,0,0.8,0,1.2,0c0.5,0,1,0,1.5,0l0,0.8c-0.4,0-0.8,0-1.3,0c-0.5,0-1,0-1.5,0c-0.1,0.9-0.2,1.9-0.3,2.7
		c1,0,2.2-0.1,3-0.2L243.6,458z"/>
	<path d="M242.7,465.9c-0.1,0.1-0.2,0.2-0.3,0.2c-0.5,3.8-1.8,7.2-4,7.2c-1.1,0-2.1-1-2.1-3c0-3,2.4-5.4,5.8-5.4
		c3.8,0,5.4,2.3,5.4,4.7c0,2.9-1.8,4.4-4.9,5c-0.1-0.2-0.3-0.5-0.5-0.8c3-0.5,4.5-1.9,4.5-4.3c0-2-1.4-3.9-4.4-3.9
		c-0.1,0-0.3,0-0.4,0L242.7,465.9z M241.5,465.7c-2.6,0.3-4.3,2.4-4.3,4.5c0,1.3,0.6,2.1,1.2,2.1C240,472.4,241.2,469.1,241.5,465.7
		z"/>
	<path d="M236.5,476.6h10.9v10.9h-0.9v-0.6h-9.2v0.6h-0.9V476.6z M237.4,486.1h9.2v-8.7h-9.2V486.1z M242.3,484.1h3.4v0.7h-7.3v-0.7
		h3.1v-2.3H239v-0.7h2.5v-1.9h-2.9v-0.7h6.8v0.7h-3.1v1.9h2.8v0.7h-2.8V484.1z M244.6,483.9c-0.3-0.4-0.8-1-1.3-1.4l0.6-0.3
		c0.5,0.4,1.1,1,1.4,1.4L244.6,483.9z"/>
</g>
<g>
	<rect x="103.5" y="521.2" class="st3" width="13" height="57.6"/>
	<path d="M104.4,525.3c0.8,0.3,1.9,0.9,2.4,1.3l-0.5,0.7c-0.5-0.4-1.6-1-2.4-1.4L104.4,525.3z M104.3,533c0.7-1,1.6-2.8,2.4-4.3
		l0.7,0.5c-0.6,1.4-1.5,3-2.1,4.1c0.1,0.1,0.1,0.1,0.1,0.2c0,0.1,0,0.1,0,0.1L104.3,533z M105.1,521.8c0.8,0.4,1.9,1,2.4,1.4
		l-0.5,0.7c-0.5-0.5-1.5-1.1-2.4-1.5L105.1,521.8z M112.4,526.2h3.7v0.8h-8.8v-0.8h1.6v-3.5l1.1,0.1c0,0.1-0.1,0.1-0.3,0.2v3.2h1.8
		v-4.6l1.1,0.1c0,0.1-0.1,0.2-0.2,0.2v1.7h3.2v0.8h-3.2V526.2z M107.3,532.9c0.9-0.5,2.3-1.3,3.6-2.1l0.3,0.8
		c-1.1,0.7-2.4,1.5-3.1,2c0,0.1,0,0.2-0.1,0.2L107.3,532.9z M108.7,527.5c0.8,0.6,1.7,1.5,2.1,2.1l-0.7,0.5c-0.4-0.6-1.3-1.5-2-2.1
		L108.7,527.5z M115.4,533.7c-0.7-0.7-2.1-1.8-3.2-2.5l0.6-0.6c1.1,0.7,2.6,1.7,3.3,2.4L115.4,533.7z M112.5,529.7
		c0.7-0.6,1.7-1.6,2.2-2.3l0.9,0.6c-0.1,0.1-0.2,0.1-0.3,0.1c-0.6,0.6-1.5,1.5-2.2,2.1L112.5,529.7z"/>
	<path d="M106.4,573.3c-0.6,0.4-1.2,0.9-1.9,1.2c-0.1-0.2-0.3-0.5-0.5-0.7c2.3-1.2,4.5-3.3,5.5-5.1l1.2,0.1c0,0.1-0.1,0.2-0.3,0.2
		c1.3,1.8,3.6,3.7,5.6,4.7c-0.2,0.2-0.4,0.5-0.6,0.8c-0.6-0.3-1.2-0.7-1.8-1.1v5h-0.9v-0.5h-5.6v0.6h-0.9V573.3z M108.8,567
		c0,0.1-0.2,0.1-0.3,0.1c-0.9,1.2-2.2,2.4-3.4,3.2c-0.2-0.2-0.5-0.4-0.6-0.6c1.2-0.7,2.5-1.9,3.4-3.1L108.8,567z M113.4,573.1
		c-1.4-1-2.7-2.3-3.5-3.5c-0.7,1.1-1.9,2.4-3.3,3.5H113.4z M107.2,577h5.6v-3.1h-5.6V577z M111.9,566.5c1.3,0.9,2.8,2.2,3.6,3.1
		l-0.7,0.5c-0.7-0.9-2.2-2.3-3.5-3.2L111.9,566.5z"/>
</g>
<g>
	<rect x="147.5" y="519.1" class="st3" width="13" height="61.8"/>
	<path d="M154.4,523.7h5.4v0.7h-11.7v-0.7h5.4v-0.9h-4v-0.7h4v-0.9h-4.6v-0.7h4.6v-1l1.1,0.1c0,0.1-0.1,0.1-0.3,0.2v0.8h4.7v0.7
		h-4.7v0.9h4v0.7h-4V523.7z M157.8,525.2v5c0,0.9-0.5,0.9-2.6,0.9c-0.1-0.2-0.2-0.5-0.3-0.7c0.5,0,0.9,0,1.3,0c0.7,0,0.8,0,0.8-0.2
		V529H151v2.1h-0.9v-5.9H157.8z M156.9,525.8H151v1h5.9V525.8z M151,528.4h5.9v-1H151V528.4z"/>
	<path d="M158.3,534.9l1.2,0.1c0,0.1-0.1,0.1-0.3,0.2v8h-0.9v-1h-8.6v1h-0.9v-8.3l1.1,0.1c0,0.1-0.1,0.1-0.3,0.2v6.2h3.8v-9.2
		l1.2,0.1c0,0.1-0.1,0.1-0.3,0.2v8.9h3.9V534.9z"/>
	<path d="M148,549.4h12v0.9h-12V549.4z"/>
	<path d="M159.8,557.8v0.9h-5.3v8.2c0,0.7-0.2,0.9-0.7,1.1c-0.5,0.1-1.4,0.2-2.8,0.1c-0.1-0.2-0.2-0.6-0.4-0.9c0.7,0,1.3,0,1.8,0
		c1,0,1.1,0,1.1-0.4v-8.2h-5.4v-0.9H159.8z"/>
	<path d="M149.6,569.8h8.8v10.6h-0.9v-0.9h-7v0.9h-0.9V569.8z M157.5,570.6h-7v2.2h7V570.6z M157.5,573.6h-7v2.2h7V573.6z
		 M150.4,578.7h7v-2.2h-7V578.7z"/>
</g>
<g>
	<rect x="59.5" y="614.2" class="st3" width="13" height="57.6"/>
	<path d="M64.2,618.1l0.6,0.3c0,0.1-0.1,0.1-0.1,0.2c-0.7,3.3-2.3,5.7-4.2,7c-0.2-0.2-0.5-0.6-0.7-0.7c1.8-1.1,3.2-3.1,3.9-5.8h-3.5
		v-0.9h3.9L64.2,618.1z M66.5,617.1c0.3,1.1,0.7,2.1,1.1,3.1c1.1-0.9,2.4-2.3,3.2-3.3l0.9,0.7c-0.1,0.1-0.2,0.1-0.3,0.1
		c-0.9,1-2.4,2.4-3.5,3.3c1,1.8,2.4,3.3,4.2,4c-0.2,0.2-0.5,0.5-0.7,0.8c-2.4-1.1-4-3.4-5.1-6.3v6c0,1.2-0.5,1.3-3,1.3
		c-0.1-0.3-0.2-0.7-0.4-0.9c0.5,0,0.9,0,1.3,0c1.1,0,1.1,0,1.1-0.4v-10.8l1.2,0.1c0,0.1-0.1,0.2-0.3,0.2V617.1z"/>
	<path d="M71.4,635.6h-4.8c0.9,2.7,2.6,4.5,5.4,5.2c-0.2,0.2-0.5,0.6-0.6,0.8c-2.7-0.8-4.4-2.5-5.4-5.1c-0.5,2-1.9,3.8-5.6,5.1
		c-0.1-0.2-0.4-0.6-0.5-0.8c3.8-1.4,5-3.3,5.4-5.3h-4.7v-0.9h4.8c0-0.3,0-0.5,0-0.8v-2.4h-5.2v-0.9h11.6v0.9h-5.4v2.4
		c0,0.3,0,0.5,0,0.8h5.1V635.6z"/>
	<path d="M66.4,645.9h5.1v3h-0.9v-2.2h-9.2v2.2h-0.9v-3h5v-1.5l1.2,0.1c0,0.1-0.1,0.2-0.3,0.2V645.9z M69.3,651.2h-2.9
		c0,0.3-0.1,0.8-0.2,1.2h4.2v4.1h-0.9V656h-6.9v0.5h-0.9v-4.1h3.5c0.1-0.4,0.1-0.8,0.2-1.2h-2.8v-3.4h6.6V651.2z M69.5,655.2v-2
		h-6.9v2H69.5z M63.5,648.6v1.9h4.9v-1.9H63.5z"/>
	<path d="M70.1,659.6c-0.1,0.1-0.1,0.1-0.3,0.1c-0.4,0.5-1,1.2-1.5,1.7h3.5v0.8H60.1v-0.8h3.6c-0.3-0.5-0.9-1.3-1.5-1.8l0.8-0.3
		c0.6,0.5,1.3,1.3,1.6,1.8l-0.8,0.4h4.5l-0.7-0.3c0.5-0.5,1.1-1.3,1.5-1.9L70.1,659.6z M65.1,663.5L65.1,663.5l0.4,0v6.8
		c0,0.9-0.4,1-2.3,1c-0.1-0.2-0.2-0.6-0.3-0.8c0.3,0,0.6,0,0.8,0c0.9,0,0.9,0,0.9-0.2v-1.8h-2.8v2.9H61v-7.9H65.1z M64.7,664.2h-2.8
		v1.4h2.8V664.2z M61.8,667.8h2.8v-1.4h-2.8V667.8z M67,663.6l1.1,0.1c0,0.1-0.1,0.1-0.3,0.2v5.2H67V663.6z M70.9,670.3
		c0,1-0.4,1.1-2.6,1.1c0-0.2-0.2-0.6-0.3-0.8c0.5,0,0.9,0,1.3,0c0.7,0,0.8,0,0.8-0.3v-7.1l1.1,0.1c0,0.1-0.1,0.2-0.3,0.2V670.3z"/>
</g>
<g>
	<rect x="367.5" y="521.2" class="st3" width="13" height="57.6"/>
	<path d="M368.3,531.9h11.4v0.9h-11.4V531.9z M369,522.9h9.9v0.9H369V522.9z M369.9,527.3h8.1v0.9h-8.1V527.3z"/>
	<path d="M371.6,551.7v2.7c0.8,0.4,1.9,0.5,3.3,0.5c0.5,0,4.5,0,5.2,0c-0.1,0.2-0.3,0.6-0.4,0.9h-4.9c-3,0-4.6-0.5-5.6-2.5
		c-0.2,1-0.5,2-1,2.8c-0.1-0.2-0.4-0.4-0.6-0.5c1-1.6,1.1-3.8,1.1-5.6l1,0.1c0,0.1-0.1,0.2-0.2,0.2c0,0.5,0,1,0,1.5
		c0.3,1,0.7,1.7,1.3,2.2V549H368v-0.8h2.6v-1.8h-2.1v-0.8h2.1V544l1.1,0.1c0,0.1-0.1,0.2-0.2,0.2v1.4h2v0.8h-2v1.8h2.3v0.8h-2.1v1.9
		h2v0.8H371.6z M373,552.7c0.3-0.1,0.6-0.3,1-0.4v-5.9h2.4c0-0.8-0.1-1.5-0.1-2.3l1.1,0.1c0,0.1-0.1,0.2-0.3,0.2
		c0,0.7,0,1.4,0.1,2.1h2.8v0.8h-2.8c0.1,1.4,0.3,2.7,0.5,3.7c0.5-0.9,0.9-1.9,1.1-2.9l0.9,0.4c0,0.1-0.1,0.1-0.2,0.1
		c-0.4,1.2-0.9,2.4-1.5,3.4c0.3,0.8,0.6,1.3,1,1.3c0.3,0,0.4-0.6,0.5-2c0.2,0.2,0.4,0.4,0.6,0.4c-0.1,1.8-0.4,2.4-1.2,2.4
		c-0.6,0-1.1-0.5-1.5-1.4c-0.4,0.6-0.9,1.1-1.4,1.5c-0.1-0.1-0.4-0.4-0.6-0.5c0.6-0.5,1.2-1.1,1.7-1.8c-0.4-1.2-0.6-2.9-0.7-4.7
		h-1.7v4.8c0.5-0.3,1.1-0.5,1.7-0.8l0.2,0.7c-1.1,0.6-2.3,1.2-3.1,1.6c0,0.1-0.1,0.2-0.1,0.2L373,552.7z M378.4,544.1
		c0.5,0.5,1.1,1.1,1.4,1.6l-0.6,0.4c-0.2-0.5-0.8-1.1-1.3-1.6L378.4,544.1z"/>
	<path d="M378.1,566.6c-0.1,0.1-0.1,0.1-0.3,0.1c-0.4,0.5-1,1.2-1.5,1.7h3.5v0.8h-11.8v-0.8h3.6c-0.3-0.5-0.9-1.3-1.5-1.8l0.8-0.4
		c0.6,0.5,1.3,1.3,1.6,1.8l-0.8,0.4h4.5l-0.7-0.3c0.5-0.5,1.1-1.3,1.5-1.9L378.1,566.6z M373.1,570.5L373.1,570.5l0.4,0v6.8
		c0,0.9-0.4,1-2.3,1c-0.1-0.2-0.2-0.6-0.3-0.8c0.3,0,0.6,0,0.8,0c0.9,0,0.9,0,0.9-0.2v-1.8h-2.8v2.9H369v-7.9H373.1z M372.7,571.2
		h-2.8v1.4h2.8V571.2z M369.8,574.8h2.8v-1.4h-2.8V574.8z M375,570.6l1.1,0.1c0,0.1-0.1,0.1-0.3,0.2v5.2H375V570.6z M378.9,577.3
		c0,1-0.4,1.1-2.6,1.1c0-0.2-0.2-0.6-0.3-0.8c0.5,0,0.9,0,1.3,0c0.7,0,0.8,0,0.8-0.3v-7.1l1.1,0.1c0,0.1-0.1,0.2-0.3,0.2V577.3z"/>
</g>
<g>
	<rect x="323.5" y="521.2" class="st3" width="13" height="57.6"/>
	<path d="M328.3,524l0.6,0.4c0,0.1-0.1,0.1-0.2,0.1c-0.4,1.1-1,2.1-1.8,3c0.6,0.4,1.7,1.4,2,1.7l-0.5,0.7c-0.3-0.4-1-1-1.6-1.5v5.4
		H326v-5.1c-0.6,0.6-1.2,1.2-1.8,1.7c-0.1-0.2-0.3-0.6-0.5-0.8c1.5-1,3.1-2.8,4-4.6h-3.5v-0.8h1.9v-2.4l1.1,0.1
		c0,0.1-0.1,0.2-0.2,0.2v2.2h1.3L328.3,524z M332.8,524h3v6.6H335V530h-2.2v3.8h-0.8V530h-2.1v0.6h-0.8V524h2.9v-2.3l1.1,0.1
		c0,0.1-0.1,0.1-0.2,0.2V524z M331.9,524.8h-2.1v1.8h2.1V524.8z M329.9,529.2h2.1v-1.9h-2.1V529.2z M335,524.8h-2.2v1.8h2.2V524.8z
		 M332.8,529.2h2.2v-1.9h-2.2V529.2z"/>
	<path d="M325.7,548.6c-0.5,0.8-1,1.5-1.6,2.2c-0.1-0.2-0.3-0.6-0.5-0.8c1.2-1.4,2.5-3.6,3.3-5.8l1,0.4c-0.1,0.1-0.1,0.1-0.3,0.1
		c-0.3,0.9-0.7,1.8-1.2,2.7l0.4,0.1c0,0.1-0.1,0.1-0.3,0.2v8.6h-0.8V548.6z M335.9,551.3h-3.2c0.9,1.4,2.3,2.8,3.6,3.5
		c-0.2,0.2-0.5,0.5-0.6,0.7c-1.3-0.8-2.6-2.2-3.5-3.7v4.3h-0.9v-4.2c-0.9,1.5-2.3,2.9-3.7,3.7c-0.1-0.2-0.4-0.5-0.6-0.7
		c1.4-0.7,2.8-2.1,3.7-3.5h-3.4v-0.8h3.9V549h-2.9v-4.4h6.8v4.4h-3v1.5h3.8V551.3z M329.2,545.4v2.8h5.1v-2.8H329.2z"/>
	<path d="M330.1,566.9v8.9h-4.9v1h-0.8v-9.9H330.1z M326.8,567.7h-1.7v3.2h1.7V567.7z M325.2,571.7v3.4h1.7v-3.4H325.2z
		 M329.3,570.9v-3.2h-1.7v3.2H329.3z M327.6,575.1h1.7v-3.4h-1.7V575.1z M336.1,567.9v0.8h-1.9v8.4c0,1.2-0.5,1.2-3.1,1.2
		c-0.1-0.2-0.2-0.6-0.3-0.9c0.5,0,1,0,1.4,0c1.2,0,1.2,0,1.2-0.4v-8.4h-3.1v-0.8H336.1z"/>
</g>
<g>
	<rect x="279.5" y="521.2" class="st3" width="13" height="57.6"/>
	<path d="M289,532.2c0,0.5,0.1,0.6,0.5,0.6h1.2c0.4,0,0.5-0.4,0.5-2.4c0.2,0.2,0.6,0.4,0.8,0.4c-0.1,2.2-0.3,2.8-1.3,2.8h-1.4
		c-0.9,0-1.2-0.3-1.2-1.4v-6.4l-3.1,0.1c-0.3,3.1-1.2,6.1-4.3,7.9c-0.1-0.2-0.4-0.5-0.7-0.7c2.8-1.5,3.7-4.3,4-7.2l-3.6,0.1l0-0.9
		l3.7-0.1c0.1-1.1,0.1-2.2,0.1-3.3l1.2,0.1c0,0.1-0.1,0.2-0.3,0.2c0,1,0,2-0.1,3l3.3-0.1l0.1-0.1l0.6,0.1l-0.1,0.2V532.2z"/>
	<path d="M281.8,552.9c1.1-0.2,2.4-0.4,3.6-0.7l0.1,0.8c-1.2,0.3-2.5,0.5-3.6,0.7v2.3H281v-2.1l-0.6,0.1c0,0.1-0.1,0.2-0.2,0.2
		l-0.4-1l1.1-0.2V545l0.7,0.2c1.1-0.4,2.4-0.8,3-1.2l0.8,0.7c-0.1,0.1-0.2,0.1-0.3,0c-0.8,0.4-2.2,0.9-3.4,1.2v1.6h3.1v0.8h-3.1v1.7
		h3.2v0.8h-3.2V552.9z M290.8,549.8l0.6,0.2c0,0.1-0.1,0.1-0.1,0.1c-0.4,1.4-1.2,2.6-2.1,3.6c0.8,0.7,1.9,1.2,3,1.5
		c-0.2,0.2-0.4,0.5-0.6,0.8c-1.2-0.4-2.2-1-3.1-1.7c-1,0.8-2.1,1.4-3.3,1.8c-0.1-0.2-0.3-0.6-0.5-0.8c1.1-0.3,2.2-0.9,3.2-1.6
		c-0.7-0.8-1.3-1.8-1.7-2.9l0.6-0.2h-1.2v-0.8h5L290.8,549.8z M287.2,545.3v1.2c0,1.1-0.2,2.4-1.5,3.3c-0.1-0.2-0.4-0.5-0.6-0.6
		c1.1-0.8,1.3-1.8,1.3-2.7v-2h3.9v3.3c0,0.4,0,0.5,0.3,0.5h0.4c0.5,0,0.5-0.1,0.5-1.5c0.2,0.1,0.5,0.3,0.7,0.3
		c0,0.5-0.1,1.1-0.1,1.3c-0.1,0.3-0.4,0.5-1,0.5h-0.7c-1,0-1-0.6-1-1.3v-2.4H287.2z M286.9,550.6c0.4,0.9,0.9,1.8,1.5,2.5
		c0.7-0.7,1.3-1.5,1.7-2.5H286.9z"/>
	<path d="M291.9,568.1h-5.5l-0.1,0v2.3l0.1-0.1c1.7,0.8,3.8,2,4.9,2.8l-0.6,0.8c-0.9-0.8-2.8-1.9-4.3-2.7v7.1h-0.9v-10.2h-5.1v-0.9
		h11.7V568.1z"/>
</g>
<g>
	<rect x="235.5" y="521.2" class="st3" width="13" height="57.6"/>
	<path d="M247.9,529.2v0.9h-5.5v3.7h-0.9v-3.7h-5.4v-0.9h5.4v-2.4H237v-0.9h4.5v-4.2l1.2,0.1c0,0.1-0.1,0.2-0.3,0.2v4h4.7v0.9h-4.7
		v2.4H247.9z M238.2,522c0.6,0.9,1.3,2.2,1.6,3l-0.8,0.4c-0.3-0.8-0.9-2.1-1.6-3L238.2,522z M246.8,522.4c0,0.1-0.1,0.1-0.3,0.1
		c-0.4,0.9-1.2,2.1-1.8,2.9c0,0-0.7-0.3-0.7-0.3c0.6-0.8,1.3-2.1,1.7-3.1L246.8,522.4z"/>
	<path d="M244.4,548.2c0.1,1.6,0.3,2.9,0.6,4c0.5-0.9,0.9-2,1.2-3.2l1.1,0.3c0,0.1-0.1,0.1-0.3,0.1c-0.4,1.4-0.9,2.7-1.7,3.9
		c0.5,1.3,1,1.9,1.5,1.9c0.3,0,0.4-0.3,0.5-1.7c0.2,0.2,0.5,0.4,0.7,0.4c-0.2,1.8-0.5,2.1-1.3,2.1c-0.8,0-1.5-0.7-2-2
		c-0.7,0.8-1.4,1.5-2.3,2c-0.1-0.2-0.4-0.4-0.6-0.6c0.4-0.2,0.7-0.4,1-0.7h-3.6v0.7h-0.7V549h4.7v0.6h-1.8v1h1.8v2.4h-1.8v1h1.9v0.2
		c0.4-0.4,0.7-0.8,1.1-1.2c-0.4-1.3-0.7-2.9-0.8-4.9h-5.7v2.5c0,1.6-0.2,3.8-1.3,5.3c-0.1-0.1-0.5-0.4-0.7-0.5
		c1.1-1.4,1.2-3.4,1.2-4.9v-3.3h6.5c0-0.4,0-0.8-0.1-1.2l0.3,0v-0.6h-3.6v0.9h-0.9v-0.9h-3.1V545h3.1v-1l1.1,0.1
		c0,0.1-0.1,0.2-0.3,0.2v0.8h3.6v-1l1.1,0.1c0,0.1-0.1,0.2-0.3,0.2v0.8h3.2v0.8h-3.2v0.8h-0.3c0,0.3,0,0.6,0,0.9h2.4
		c-0.3-0.4-0.9-0.8-1.4-1.1l0.5-0.4c0.5,0.3,1.2,0.8,1.5,1.1l-0.5,0.4h1v0.8H244.4z M240.8,549.7h-1.5v1h1.5V549.7z M242.6,552.5
		v-1.2h-3.3v1.2H242.6z M239.3,553.1v1h1.5v-1H239.3z"/>
	<path d="M241.3,566.9v4.8h-3.8v6.7h-0.9v-11.4H241.3z M240.5,567.6h-3v1.2h3V567.6z M237.5,570.9h3v-1.4h-3V570.9z M247.4,566.9
		v10.2c0,1.2-0.5,1.2-3,1.2c0-0.2-0.2-0.6-0.3-0.9c0.6,0,1.1,0,1.5,0c0.8,0,0.9,0,0.9-0.3v-5.4h-4v-4.8H247.4z M246.5,567.6h-3.1
		v1.2h3.1V567.6z M243.4,571h3.1v-1.4h-3.1V571z"/>
</g>
<g>
	<rect x="191.5" y="521.2" class="st3" width="13" height="57.6"/>
	<path d="M196,526.9l0.6,0.3c0,0.1-0.1,0.1-0.1,0.1c-0.7,2.5-2.2,4.5-3.9,5.6c-0.1-0.2-0.5-0.5-0.7-0.6c1.5-0.9,2.8-2.5,3.5-4.5
		h-3.3v-0.8h3.7L196,526.9z M198.4,525.2c0.3,1.1,0.7,2.1,1.2,3c1.1-0.8,2.4-1.9,3.2-2.9l0.9,0.7c-0.1,0.1-0.2,0.1-0.3,0.1
		c-0.9,0.8-2.3,2-3.4,2.8c1,1.5,2.3,2.7,4,3.3c-0.2,0.2-0.5,0.5-0.6,0.8c-2.3-1-3.9-2.9-5-5.4v5.1c0,0.6-0.1,0.8-0.5,1
		c-0.4,0.1-1.1,0.2-2.2,0.2c0-0.2-0.2-0.6-0.3-0.9c0.8,0,1.6,0,1.8,0c0.2,0,0.3-0.1,0.3-0.3v-7.3h-3.7v-0.8h4.6V525.2z M195.5,521.6
		c1.6,0.4,3.8,1.1,4.9,1.7l-0.4,0.9c-1.1-0.6-3.2-1.4-4.9-1.8L195.5,521.6z"/>
	<path d="M192.7,544.9h10.8v11.1h-0.9v-0.8h-9v0.8h-0.9V544.9z M197.5,545.7h-4v3.8h4V545.7z M193.5,550.4v3.9h4v-3.9H193.5z
		 M202.5,549.5v-3.8h-4.1v3.8H202.5z M198.4,554.3h4.1v-3.9h-4.1V554.3z"/>
	<path d="M198.1,566.9v8.9h-4.9v1h-0.8v-9.9H198.1z M194.8,567.7h-1.7v3.2h1.7V567.7z M193.2,571.7v3.4h1.7v-3.4H193.2z
		 M197.3,570.9v-3.2h-1.7v3.2H197.3z M195.6,575.1h1.7v-3.4h-1.7V575.1z M204.1,567.9v0.8h-1.9v8.4c0,1.2-0.5,1.2-3.1,1.2
		c-0.1-0.2-0.2-0.6-0.3-0.9c0.5,0,1,0,1.4,0c1.2,0,1.2,0,1.2-0.4v-8.4h-3.1v-0.8H204.1z"/>
</g>
<g>
	<rect x="59.7" y="518.3" class="st3" width="13" height="61.8"/>
	<path d="M60.3,528H72v0.9H60.3V528z M61.5,520.6h9.5v0.9h-9.5V520.6z"/>
	<path d="M72.2,536.7v0.8h-5.5v3.9c0,0.6-0.2,0.8-0.6,1c-0.5,0.1-1.3,0.1-2.6,0.1c-0.1-0.2-0.2-0.6-0.4-0.9c0.7,0,1.3,0,1.8,0
		c0.8,0,0.9,0,0.9-0.3v-3.9h-5.5v-0.8h5.5v-2l0.5,0c1-0.5,2.1-1.2,3-1.9h-7.7V532h8.6l0.2-0.1l0.8,0.5c0,0.1-0.1,0.1-0.2,0.1
		c-1.1,1-2.8,2.1-4.3,2.9v1.3H72.2z"/>
	<path d="M66.6,553.6h5.5v0.8H60.3v-0.8h5.4v-4.1h-4.1v-0.8h4.1v-3.6H61v-0.8h10.5v0.8h-4.9v3.6h4.4v0.8h-4.4V553.6z M70.3,553
		c-0.5-0.7-1.6-1.7-2.5-2.4l0.7-0.5c0.9,0.7,2,1.6,2.5,2.3L70.3,553z"/>
	<path d="M61.7,556.5l1.1,0.1c0,0.1-0.1,0.1-0.3,0.2v4c0,2.4-0.2,4.8-1.9,6.6c-0.2-0.2-0.5-0.4-0.7-0.6c1.6-1.7,1.7-3.9,1.7-6V556.5
		z M65.9,557l1.1,0.1c0,0.1-0.1,0.1-0.3,0.2v9h-0.9V557z M70.5,556.5l1.2,0.1c0,0.1-0.1,0.1-0.3,0.2v10.6h-0.9V556.5z"/>
	<path d="M60.7,568.7h11v10.9h-0.9v-0.5h-9.3v0.5h-0.8V568.7z M61.5,578.3h9.3v-8.8h-9.3V578.3z M66.6,575.2
		c0.3,0.3,0.7,0.6,1.1,0.9c0.6-0.3,1.2-0.8,1.6-1.1l0.7,0.4c0,0-0.1,0.1-0.3,0.1c-0.4,0.3-1,0.6-1.6,0.9c0.7,0.4,1.4,0.7,2.2,0.9
		c-0.2,0.1-0.4,0.4-0.5,0.6c-1.3-0.4-2.7-1.2-3.6-2.1v2.2h-0.8V576c-0.9,0.6-2,1.1-3.1,1.5c-0.1-0.1-0.3-0.4-0.5-0.5
		c1.2-0.4,2.6-1,3.6-1.8h-2.3v-2.1H69v2.1H66.6z M70.1,571.9v0.6h-7.9v-0.6h3.5v-0.8H63v-0.6h2.7v-0.8l1.1,0.1
		c0,0.1-0.1,0.1-0.2,0.2v0.5h2.8v0.6h-2.8v0.8H70.1z M64,573.6v1.1h4.2v-1.1H64z"/>
</g>
<rect x="60" y="568" class="st2" width="13" height="13"/>
<g>
	<rect x="104.1" y="612.1" class="st3" width="11.8" height="61.8"/>
	<path d="M111.7,614.7c-1,0.3-2.4,0.5-3.7,0.6c-0.5,2.3-1.2,4.7-2.2,6.4l-0.9-0.3c1-1.6,1.7-3.8,2.2-6.1c-0.2,0-1.8,0-2.2,0l0-0.7
		c0.2,0,0.4,0,0.7,0c0.1,0,1.3,0,1.6,0c0.1-0.7,0.2-1.4,0.3-2l1.2,0.1c0,0.1-0.2,0.2-0.3,0.2c-0.1,0.4-0.2,1-0.3,1.6
		c1.2-0.1,2.4-0.3,3.4-0.6L111.7,614.7z M114.9,621.5c-0.4,0-0.7,0-1.1,0c-1.1,0-2.2-0.1-2.8-0.2c-0.9-0.2-1.3-0.7-1.3-1.4
		c0-0.4,0.2-1,0.7-1.5l0.7,0.3c-0.4,0.4-0.6,0.8-0.6,1.1c0,0.8,0.9,1,3.1,1c0.4,0,0.9,0,1.3,0V621.5z M110.3,616.6
		c1.2-0.3,2.9-0.5,4.4-0.5v0.7c-1.4,0-2.9,0.1-4.1,0.5L110.3,616.6z"/>
	<path d="M105.3,624.4c0.7,0,1.7,0,2.6,0c0.5,0,1.2,0,1.7,0c0-0.5,0-1.1,0-1.4l1.2,0.1c0,0.1-0.1,0.2-0.3,0.2c0,0.2,0,0.9,0,1.1
		c1.4-0.1,2.8-0.2,4-0.4l0.1,0.7c-1.2,0.2-2.6,0.3-4.1,0.4c0,0.6,0,1.2,0,1.9c1.2-0.1,2.4-0.2,3.4-0.4l0.1,0.7
		c-1,0.2-2.3,0.3-3.5,0.4l0.1,1.7c1.1,0.3,2.3,0.8,3.5,1.6l-0.5,0.6c-1.1-0.7-2.1-1.2-3-1.5c0,0.2,0,0.3,0,0.5c0,1-0.7,1.5-2.1,1.5
		c-1.5,0-2.6-0.5-2.6-1.5c0-1,1.3-1.5,2.7-1.5c0.4,0,0.8,0,1.3,0.1c0-0.4,0-1,0-1.5c-0.4,0-0.8,0-1.2,0c-2.1,0-2.6-0.3-2.6-0.9
		c0-0.4,0.3-0.7,1.1-1.1l0.6,0.3c-0.5,0.3-0.8,0.5-0.8,0.7c0,0.3,0.6,0.4,2.1,0.4c0.3,0,0.5,0,0.8,0l-0.1-1.9c-0.5,0-1.1,0-1.7,0
		c-0.8,0-1.9,0-2.6,0V624.4z M109.7,629.7c-0.5-0.1-0.9-0.2-1.3-0.2c-0.9,0-1.8,0.3-1.8,0.9c0,0.6,0.8,0.9,1.9,0.9
		c0.9,0,1.3-0.4,1.3-1.1L109.7,629.7z"/>
	<path d="M105.4,634.6h7.6l0.1,0l0.8,0.5c0,0-0.1,0.1-0.1,0.1c-1,3.8-3.1,5.8-6.7,7c-0.1-0.2-0.4-0.4-0.5-0.6c3.5-1.1,5.5-3,6.3-6.3
		h-7.4V634.6z M114.6,632.8c0.7,0,1.3,0.5,1.3,1.1c0,0.6-0.6,1.1-1.3,1.1c-0.7,0-1.3-0.5-1.3-1.1
		C113.3,633.3,113.9,632.8,114.6,632.8z M115.5,633.9c0-0.4-0.4-0.8-0.9-0.8s-0.9,0.3-0.9,0.8c0,0.4,0.4,0.8,0.9,0.8
		C115.1,634.7,115.5,634.3,115.5,633.9z"/>
	<path d="M114.4,647c0,0-0.1,0.1-0.2,0.1c-1,3.1-3,4.6-6.6,5.4c-0.1-0.2-0.3-0.4-0.5-0.6c3.3-0.7,5.3-2.1,6-4.5h-7.9v-0.7h8.3
		l0.1-0.1L114.4,647z M113.3,644.8h-6.8v-0.7h6.8V644.8z"/>
	<path d="M109.4,654.2l1.2,0.1c0,0.1-0.1,0.2-0.3,0.2v8.3h-0.9V654.2z"/>
	<path d="M115.1,667.4h-2.6v0.7c0,1.9-0.7,3.9-3.8,5.1c-0.2-0.2-0.4-0.4-0.6-0.5c3-1.1,3.6-2.9,3.6-4.6v-0.7h-3.8v2.5H107v-2.5h-2.4
		v-0.7h2.4v-2.2l1.2,0.1c0,0.1-0.1,0.2-0.3,0.2v2h3.8v-2.4l1.1,0.1c0,0.1-0.1,0.2-0.3,0.2v2.1h2.6V667.4z M113.3,664.7
		c0.5,0.4,1.1,1,1.4,1.4l-0.4,0.3c-0.3-0.5-0.9-1.1-1.4-1.4L113.3,664.7z M114.4,663.9c0.5,0.4,1.1,1,1.4,1.5l-0.4,0.3
		c-0.3-0.5-0.9-1.1-1.4-1.4L114.4,663.9z"/>
</g>
<g>
</g>
<g>
</g>
<g>
</g>
<g>
</g>
<g>
</g>
<g>
</g>
<g>
</g>
<g>
</g>
<g>
</g>
<g>
</g>
<g>
</g>
<g>
</g>
<g>
</g>
<g>
</g>
<g>
</g>
<g>
</g>
<g>
</g>
<g>
</g>
</svg>
