<?xml version="1.0" encoding="utf-8"?>
<!-- Generator: Adobe Illustrator 16.0.0, SVG Export Plug-In . SVG Version: 6.00 Build 0)  -->
<!DOCTYPE svg PUBLIC "-//W3C//DTD SVG 1.1//EN" "http://www.w3.org/Graphics/SVG/1.1/DTD/svg11.dtd">
<svg version="1.1" id="レイヤー_1" xmlns="http://www.w3.org/2000/svg" xmlns:xlink="http://www.w3.org/1999/xlink" x="0px"
	 y="0px" width="440px" height="975px" viewBox="0 0 440 975" style="enable-background:new 0 0 440 975;" xml:space="preserve">
<style type="text/css">
<![CDATA[
	.st0{fill:#FF4400;}
	.st1{fill:#FFFFCC;}
	.st2{fill:none;}
	.st3{fill:#CCCCCC;}
	.st4{fill:#0055FF;}
	.st5{fill:none;stroke:#000000;stroke-width:2;stroke-miterlimit:10;}
	.st6{fill:#DC0000;}
	.st7{fill:#EEEEEE;stroke:#000000;stroke-width:2;stroke-miterlimit:10;}
]]>
</style>
<rect class="st1" width="440" height="975"/>
<rect x="132" y="79" class="st7" width="44" height="72"/>
<rect x="176" y="79" class="st7" width="44" height="72"/>
<rect x="220" y="79" class="st7" width="44" height="72"/>
<rect x="264" y="79" class="st7" width="44" height="72"/>
<rect x="308" y="79" class="st7" width="44" height="72"/>
<rect x="352" y="79" class="st7" width="44" height="72"/>
<g>
	<path class="st5" d="M419,320v45.2c0,5.5-4.9,9.8-10.4,9.8H30.8c-5.5,0-9.8-4.3-9.8-9.8v-87c0-5.5,3.6-10.1,8.3-10.1s8.7,0,8.7,0"
		/>
</g>
<g>
	<path class="st5" d="M109,208V78.1c0-5.5,4.5-10.1,10-10.1h289.6c5.5,0,10.4,4.6,10.4,10.1V175"/>
</g>
<g>
	<path class="st5" d="M109,208v49.5c0,5.5-4.5,10.5-10,10.5H38"/>
</g>
<rect x="132" y="172" class="st7" width="44" height="72"/>
<rect x="176" y="172" class="st7" width="44" height="72"/>
<rect x="220" y="172" class="st7" width="44" height="72"/>
<rect x="264" y="172" class="st7" width="44" height="72"/>
<rect x="308" y="172" class="st7" width="44" height="72"/>
<rect x="352" y="172" class="st7" width="44" height="72"/>
<rect x="132" y="421" class="st7" width="44" height="72"/>
<rect x="176" y="421" class="st7" width="44" height="72"/>
<rect x="220" y="421" class="st7" width="44" height="72"/>
<rect x="264" y="421" class="st7" width="44" height="72"/>
<rect x="308" y="421" class="st7" width="44" height="72"/>
<rect x="352" y="421" class="st7" width="44" height="72"/>
<g>
	<rect x="189.9" y="427.7" class="st2" width="16.2" height="57.6"/>
	<path class="st6" d="M200.5,428.7c-0.1,0.2-0.2,0.2-0.4,0.2c-0.1,0.4-0.2,0.7-0.4,1.1h5.8v1.4h-6.4c-0.2,0.4-0.3,0.7-0.5,1.1h5.5
		v4.1h-5.6v-3.8c-0.3,0.4-0.5,0.8-0.8,1.2c-0.2-0.2-0.6-0.6-0.9-0.9v5H195v2.3h2.1v1.4h-4.7v0.9h-1.3v-13.4h6v1.4H195v2.1h1.8
		c0.8-1.1,1.5-2.8,1.9-4.4L200.5,428.7z M193.7,430.5h-1.2v2.1h1.2V430.5z M195.5,436.6V434h-3v2.6H195.5z M193.7,440.2v-2.3h-1.2
		v2.3H193.7z M197.5,443.2v-5.8h3.4v5.6h-1.1v-0.7h-1.2v0.9H197.5z M199.8,438.6h-1.2v2.4h1.2V438.6z M199.8,433.6v1.6h3v-1.6H199.8
		z M201.7,443.2v-5.7h3.6v5.6h-1.2v-0.7h-1.3v0.8H201.7z M204.1,438.6h-1.3v2.4h1.3V438.6z"/>
	<path class="st6" d="M196,470.8v10.8h-3.4v1.4h-1.4v-12.2H196z M194.6,472.2h-2v3.3h2V472.2z M192.6,480.3h2v-3.4h-2V480.3z
		 M201.7,474.8h3.9v1.4h-9.3v-1.4h3.9V473h-3.3v-1.3h3.3v-1.9l1.9,0.1c0,0.1-0.1,0.2-0.4,0.3v1.5h3.4v1.3h-3.4V474.8z M204.2,476.5
		c0,0.1-0.1,0.2-0.4,0.3v1.1h1.8v1.3h-1.8v4c0,1.5-0.6,1.7-3.4,1.7c-0.1-0.4-0.3-1-0.5-1.4c0.5,0,0.9,0,1.3,0c1.1,0,1.1,0,1.1-0.3
		v-4h-6v-1.3h6v-1.5L204.2,476.5z M199.1,483.2c-0.3-0.8-1.2-2-2-2.8l1.2-0.7c0.8,0.8,1.7,1.9,2.1,2.7L199.1,483.2z"/>
</g>
<g>
	<rect x="233.9" y="428.2" class="st2" width="16.2" height="57.6"/>
	<path class="st4" d="M249.3,440h-5.2c1.4,1.1,3.5,1.9,5.5,2.3c-0.3,0.3-0.7,0.8-0.9,1.2c-2.2-0.6-4.4-1.7-5.9-3.1v3.3h-1.5v-3.4
		c-1.5,1.4-3.7,2.6-5.8,3.2c-0.2-0.4-0.6-0.9-0.9-1.2c1.9-0.4,3.9-1.3,5.3-2.4H235v-1.3h6.4v-0.9h-2.1v-5.1h1.7
		c0.2-0.4,0.4-1,0.5-1.3l1.6,0.4c0,0.1-0.2,0.2-0.4,0.2c-0.1,0.2-0.2,0.5-0.4,0.8h2.6v5.1h-1.8c0,0.1-0.2,0.1-0.3,0.2v0.7h6.4V440z
		 M234.9,437c1-0.4,2.4-1,3.8-1.6l0.3,1.2c-1.2,0.6-2.4,1.2-3.2,1.5c0,0.1-0.1,0.3-0.2,0.3L234.9,437z M238.6,432.2v-0.9H235V430
		h3.6v-1.2l1.9,0.1c0,0.1-0.1,0.2-0.4,0.3v0.9h4.1v-1.2l1.9,0.1c0,0.1-0.1,0.2-0.4,0.3v0.9h3.7v1.3h-3.7v0.9h-1.5v-0.9h-4.1v0.9
		H238.6z M237.4,435.1c-0.4-0.6-1.3-1.6-2.1-2.2l1.1-0.8c0.8,0.6,1.7,1.5,2.1,2.1L237.4,435.1z M240.6,433.7v1h3v-1H240.6z
		 M240.6,435.7v1.1h3v-1.1H240.6z M245.9,435.2c1.1,0.5,2.6,1.4,3.3,2l-0.9,1.1c-0.7-0.6-2.2-1.5-3.3-2.1L245.9,435.2z M245.4,434.3
		c0.7-0.6,1.6-1.5,2.1-2.2l1.6,0.9c-0.1,0.1-0.2,0.1-0.4,0.1c-0.6,0.6-1.5,1.4-2.2,1.9L245.4,434.3z"/>
	<path class="st4" d="M239.9,470.9v12.7c0,1.5-0.6,1.7-2.6,1.6c0-0.4-0.2-1-0.4-1.4c0.6,0,1.2,0,1.4,0c0.2,0,0.3-0.1,0.3-0.3v-3.7
		h-1.8c-0.1,1.9-0.4,3.9-1.1,5.4c-0.3-0.2-0.8-0.5-1.2-0.7c1-2.3,1-5.5,1-7.9v-5.8H239.9z M236.8,476.7c0,0.5,0,1.1,0,1.8h1.8V476
		h-1.7V476.7z M238.6,472.3h-1.7v2.4h1.7V472.3z M248.5,477.6c0,0.1-0.2,0.1-0.4,0.1c-0.2,0.3-0.4,0.8-0.7,1.2h2.2v1.2h-9.4v-1.2
		h1.8c-0.1-0.4-0.4-1-0.6-1.4l1-0.3h-2V476h3.7v-0.8h-2.9v-1.1h2.9v-0.8h-3.5v-1.1h1.8c-0.2-0.5-0.4-1-0.7-1.4l1.2-0.4
		c0.4,0.5,0.8,1.2,0.9,1.7l-0.4,0.2h2.6l-0.3-0.1c0.3-0.5,0.7-1.3,0.9-1.8l1.6,0.5c-0.1,0.1-0.2,0.2-0.4,0.2
		c-0.2,0.4-0.5,0.8-0.8,1.2h2.2v1.1h-3.7v0.8h3.1v1.1h-3.1v0.8h3.9v1.2h-2L248.5,477.6z M241.3,485.3v-4.5h7.2v4.4h-1.4v-0.5h-4.4
		v0.6H241.3z M244.1,477.2h-1.5c0.3,0.5,0.6,1.2,0.7,1.6l-0.4,0.1h1.2V477.2z M247.1,482h-4.4v1.6h4.4V482z M246.6,478.9
		c-0.1,0-0.3-0.1-0.4-0.1c0.3-0.4,0.6-1.1,0.8-1.6h-1.5v1.7H246.6z"/>
</g>
<g>
	<rect x="145.9" y="428.2" class="st2" width="16.2" height="57.6"/>
	<path class="st6" d="M146.6,432.6v-1.2h5.8v1.2H146.6z M152,438v4.8h-3.4v0.7h-1.3V438H152z M152,433.6v1.2h-4.6v-1.2H152z
		 M147.3,437v-1.2h4.6v1.2H147.3z M151.9,429.3v1.2h-4.5v-1.2H151.9z M150.7,439.2h-2.1v2.4h2.1V439.2z M155.8,440.7l1.8-0.3
		l0.1,1.3c-1.6,0.4-3.3,0.8-4.4,1c0,0.1-0.1,0.2-0.2,0.2l-0.6-1.5c0.6-0.1,1.2-0.2,2-0.4v-4.3h-1.5v-1.3h4.4v1.3h-1.5V440.7z
		 M161.5,433.3h-2.4c0.1,4.6,0.4,8.6,1.4,8.8h0c0.2,0,0.4-1,0.5-2.2c0.2,0.3,0.7,0.7,0.9,0.8c-0.2,2-0.8,3-1.6,3
		c-2.1,0-2.5-4.6-2.7-10.4h-4.9v-1.4h4.9c0-1.1,0-2.1,0-3.2l1.9,0.1c0,0.1-0.1,0.2-0.4,0.3v2.8h2.4V433.3z M160.1,428.9
		c0.6,0.6,1.3,1.4,1.6,2l-1.1,0.6c-0.3-0.6-0.9-1.5-1.5-2.1L160.1,428.9z"/>
	<path class="st6" d="M150.2,455.8v5.2c1.1,1.8,3.2,1.8,6.1,1.8c1.8,0,4,0,5.5-0.2c-0.2,0.4-0.4,1.1-0.5,1.5c-1.2,0-3,0.1-4.7,0.1
		c-3.5,0-5.5,0-7-1.9c-0.7,0.7-1.4,1.3-2,1.8c0,0.2,0,0.2-0.2,0.3l-0.8-1.6c0.6-0.4,1.4-1.1,2.1-1.7v-3.9h-2v-1.4H150.2z M148,449.9
		c1,0.7,2.1,1.8,2.6,2.6l-1.2,0.9c-0.5-0.8-1.6-1.9-2.5-2.7L148,449.9z M155.2,462.4V461h-4.4v-1.1h4.4v-0.8h-3.3v-4.7h3.3v-0.8
		h-3.8v-1.1h3.8v-1.1l1.8,0.1c0,0.1-0.1,0.2-0.4,0.3v0.7h3.9v1.1h-3.9v0.8h3.4v4.7h-3.4v0.8h4.6v1.1h-4.6v1.4H155.2z M152.4,451.1v1
		h-1.3V450h10v2.2h-1.4v-1H152.4z M153.2,455.4v0.9h2v-0.9H153.2z M153.2,458.1h2v-0.9h-2V458.1z M158.8,455.4h-2v0.9h2V455.4z
		 M158.8,458.1v-0.9h-2v0.9H158.8z"/>
	<path class="st6" d="M154,482.6h-2.9v2.7h-1.4v-2.7h-3v-1.3h3v-1.1h-2.4v-5.7h2.4v-1.1h-2.8V472h2.8v-1.6l1.8,0.1
		c0,0.1-0.1,0.2-0.4,0.3v1.3h2.7v1.3h-2.7v1.1h2.5v5.7h-2.5v1.1h2.9V482.6z M148.4,475.5v1.2h1.4v-1.2H148.4z M148.4,477.7v1.2h1.4
		v-1.2H148.4z M152.4,476.7v-1.2h-1.4v1.2H152.4z M152.4,479v-1.2h-1.4v1.2H152.4z M159.7,479.6c0.9,1.6,1.7,3.7,2.1,5.1l-1.4,0.6
		c-0.1-0.3-0.2-0.7-0.3-1.1c-2.1,0.2-4.3,0.5-5.7,0.6c0,0.1-0.1,0.2-0.3,0.2l-0.5-1.7c0.4,0,0.8,0,1.3-0.1c0.4-1.5,0.9-3.7,1.2-5.5
		h-2.2v-1.4h7.7v1.4h-4c-0.3,1.6-0.8,3.8-1.3,5.4c1-0.1,2.2-0.2,3.3-0.3c-0.4-0.9-0.8-1.9-1.2-2.7L159.7,479.6z M161,471.4v1.4h-6.3
		v-1.4H161z"/>
</g>
<rect x="44" y="421" class="st7" width="44" height="72"/>
<rect x="88" y="421" class="st7" width="44" height="72"/>
<g>
	<rect x="58.8" y="428.2" class="st2" width="14.3" height="57.6"/>
	<path class="st6" d="M60.3,429.5h11.7v12.2h-1.4v-0.9h-9v0.9h-1.3V429.5z M61.7,439.4h9v-8.6h-9V439.4z M63.5,432.7h5.4v4.8h-5.4
		V432.7z M67.6,436.4v-2.6h-2.9v2.6H67.6z"/>
	<path class="st6" d="M62.9,477.8v4.5c1,1.5,2.9,1.5,5.1,1.5c1.6,0,3.6-0.1,4.8-0.1c-0.2,0.3-0.4,1-0.4,1.4c-1,0-2.4,0.1-3.7,0.1
		c-3.2,0-5,0-6.4-1.7c-0.7,0.6-1.3,1.2-1.9,1.6c0,0.2,0,0.2-0.2,0.3l-0.7-1.5c0.6-0.4,1.4-0.9,2.1-1.5V479h-1.8v-1.2H62.9z
		 M60.8,472.6c0.9,0.6,2,1.5,2.5,2.2l-1.1,0.9c-0.4-0.7-1.5-1.6-2.4-2.3L60.8,472.6z M72.6,479H69c0.6,1.6,1.8,2.7,3.6,3.1
		c-0.3,0.3-0.7,0.8-0.9,1.1c-1.7-0.6-2.9-1.7-3.6-3.3c-0.5,1.2-1.6,2.4-3.6,3.3c-0.2-0.3-0.6-0.7-0.9-1c2.3-0.9,3.2-2.1,3.4-3.2
		h-3.5v-1.2h3.7V476h-3.2v-1.2h1.6c-0.2-0.6-0.7-1.5-1.1-2.1l1.1-0.5c0.5,0.7,1.1,1.6,1.3,2.2l-0.8,0.4h3.3l-0.6-0.3
		c0.5-0.6,1-1.6,1.4-2.3l1.5,0.6c-0.1,0.1-0.2,0.1-0.4,0.1c-0.3,0.5-0.9,1.3-1.3,1.9h2.1v1.2h-3.5v1.8h4V479z"/>
</g>
<g>
	<rect x="101.9" y="428.2" class="st2" width="16.2" height="57.6"/>
	<path class="st6" d="M105.5,434.1v-2.3c-0.7,0.4-1.3,0.8-2,1.2c-0.2-0.3-0.7-0.8-1-1c1.6-0.7,3.5-2,4.5-3.3l1.6,0.7
		c-0.1,0.1-0.2,0.2-0.4,0.1c-0.4,0.5-0.9,1-1.5,1.4l0.6,0.1c0,0.1-0.1,0.2-0.4,0.3v2.9H105.5z M109.2,441.9
		c-0.1,0.1-0.1,0.1-0.3,0.1c0,0-0.1,0-0.1,0c-1.3,0.7-3.2,1.3-4.8,1.8c-0.2-0.3-0.7-0.8-1-1.1c1.6-0.3,3.6-0.9,4.7-1.6L109.2,441.9z
		 M107.6,430.9l2.6-0.2c-0.3-0.6-0.5-1.3-0.6-2l1.9,0c0,0.1-0.1,0.2-0.4,0.3c0.1,0.6,0.3,1.1,0.6,1.6l3.4-0.2
		c-0.6-0.4-1.8-0.8-2.7-1l0.7-0.8c0.9,0.2,2.1,0.6,2.8,0.9l-0.8,0.8l1.8-0.1l0.1,1.1l-4.5,0.3c0.9,0.8,2,1.4,3,1.4
		c0.5,0,0.6-0.2,0.7-1.1c0.3,0.2,0.7,0.4,1.1,0.5c-0.2,1.7-0.8,1.9-1.8,1.9v6.5h-10.7v-6.6h10v0c-1.5-0.2-3-1.2-4-2.6l-3.2,0.2
		L107.6,430.9z M114,436.4v-0.9h-7.7v0.9H114z M114,438.2v-0.9h-7.7v0.9H114z M114,440.1v-0.9h-7.7v0.9H114z M115.7,443.7
		c-1-0.5-2.7-1.3-4.4-1.9l1.2-0.8c1.7,0.6,3.7,1.3,4.9,1.9L115.7,443.7z"/>
	<path class="st6" d="M105.9,480c0,0.6,0.1,0.7,0.4,0.7h1.2c0.4,0,0.4-0.4,0.5-2.2c0.3,0.3,0.9,0.5,1.3,0.6c-0.1,2.3-0.5,3-1.7,3
		H106c-1.3,0-1.7-0.5-1.7-2.2v-3.5l-1.6,0.3l-0.3-1.4l1.9-0.4v-4.2l1.9,0.1c0,0.1-0.1,0.2-0.4,0.3v3.5c1.7-0.4,2.6-0.5,3.4-0.7
		c0.1,0.4,0.1,0.8,0.3,1.4l-3.7,0.8V480z M116.5,471.6l0.8,0.1c0,0.1,0,0.4,0,0.5c-0.2,8.3-0.5,11.1-1.1,12c-0.5,0.7-1,0.9-2.4,0.9
		c-0.4,0-0.8,0-1.3,0c0-0.4-0.2-1.1-0.5-1.6c0.9,0.1,1.7,0.1,2.1,0.1c0.3,0,0.5-0.1,0.7-0.3c0.5-0.6,0.8-3.3,1-10.2h-3
		c-0.1,4.5-0.4,9.5-4.7,12.2c-0.2-0.4-0.7-0.9-1.1-1.2c3.9-2.3,4.2-6.8,4.3-11h-2.7v-1.4h7.6L116.5,471.6z"/>
</g>
<rect x="44" y="514" class="st7" width="44" height="72"/>
<rect x="88" y="514" class="st7" width="44" height="72"/>
<rect x="132" y="514" class="st7" width="44" height="72"/>
<rect x="176" y="514" class="st7" width="44" height="72"/>
<rect x="220" y="514" class="st7" width="44" height="72"/>
<rect x="264" y="514" class="st7" width="44" height="72"/>
<rect x="308" y="514" class="st7" width="44" height="72"/>
<rect x="352" y="514" class="st7" width="44" height="72"/>
<g>
	<rect x="277.9" y="521.2" class="st2" width="16.2" height="57.6"/>
	<path d="M293.2,524.4h-7.6c-0.1,0.1-0.2,0.1-0.4,0.1c-0.4,1.2-1,2.5-1.7,3.8h8.7v8.4h-1.6v-0.9h-7.2v1h-1.5v-6
		c-0.7,0.9-1.5,1.7-2.4,2.3c-0.2-0.4-0.8-0.9-1.1-1.2c2.4-1.8,4.2-4.8,5.2-7.5h-4.5v-1.5h14.1V524.4z M290.6,534.2v-4.5h-7.2v4.5
		H290.6z"/>
	<path d="M279.4,567.8c1,0.4,2.3,1.1,2.9,1.6l-0.9,1.3c-0.6-0.6-1.9-1.3-2.9-1.7L279.4,567.8z M279,577.1c0.8-1.2,1.9-3.3,2.8-5.2
		l1.2,0.9c-0.8,1.7-1.7,3.6-2.5,4.8c0.1,0.1,0.1,0.2,0.1,0.3c0,0.1,0,0.1-0.1,0.2L279,577.1z M280.3,563.4c1,0.4,2.2,1.1,2.9,1.7
		c-0.4,0.5-0.6,0.9-0.9,1.2c-0.6-0.6-1.8-1.4-2.8-1.8L280.3,563.4z M293.6,574.5v1.3h-5v2.4h-1.5v-2.4h-4.5v-1.3h4.5v-1.1h-3.7v-1.3
		h3.7v-1.1h-3.3v-1.2h3.3v-1.2h-4.2v-1.3h4.2v-1.2H284V565h3.2v-1.6l1.8,0.1c0,0.1-0.1,0.2-0.4,0.3v1.3h3.7v2.4h1.3v1.3h-1.3v2.4
		h-3.7v1.1h4.1v1.3h-4.1v1.1H293.6z M288.6,566.2v1.2h2.2v-1.2H288.6z M288.6,568.6v1.2h2.2v-1.2H288.6z"/>
</g>
<g>
	<rect x="322.8" y="521.2" class="st2" width="14.3" height="57.6"/>
	<path d="M336.6,531.3h-5.1c1,1.4,2.7,2.1,5.3,2.3c-0.3,0.3-0.6,0.9-0.8,1.2c-3-0.4-4.8-1.4-5.9-3.5c-0.7,1.7-2.2,2.8-5.9,3.4
		c-0.1-0.4-0.4-0.9-0.7-1.2c3-0.4,4.4-1.1,5.1-2.3h-4.9v-1.2h5.3c0.1-0.3,0.2-0.7,0.2-1.1h-5.5v-1.2h5.6v-1h-4.2v-1.1h4.2v-1h-5
		v-1.2h2.8c-0.2-0.5-0.6-1-1-1.5l1.1-0.4c0.5,0.5,1,1.2,1.2,1.7l-0.4,0.2h3.7l-0.3-0.1c0.4-0.5,0.9-1.2,1.1-1.8l1.6,0.6
		c0,0.1-0.2,0.1-0.3,0.1c-0.3,0.4-0.6,0.8-1,1.2h3v1.2h-5.1v1h4.3v1.1h-4.3v1h5.7v1.2H331c0,0.1-0.2,0.2-0.3,0.2
		c-0.1,0.3-0.1,0.6-0.2,1h6.1V531.3z"/>
	<path d="M324.3,540.1c0.8,0.3,1.9,0.9,2.4,1.3l-0.8,1.1c-0.5-0.5-1.5-1.1-2.3-1.4L324.3,540.1z M323.9,548.4c0.6-1.1,1.4-2.9,2-4.5
		l1.1,0.7c-0.5,1.5-1.2,3.1-1.8,4.2c0.1,0.1,0.1,0.2,0.1,0.3c0,0.1,0,0.1,0,0.2L323.9,548.4z M325,536.3c0.8,0.4,1.8,1,2.3,1.4
		l-0.8,1.1c-0.5-0.5-1.5-1.1-2.3-1.5L325,536.3z M335.8,545.9l0.8,0.8c0,0-0.1,0.1-0.2,0.1c0,0-0.1,0-0.1,0c-0.4,0.2-1,0.5-1.5,0.7
		c0.6,0.4,1.3,0.7,2.1,0.9c-0.3,0.3-0.6,0.7-0.7,1c-1.1-0.3-2.1-0.9-2.8-1.6l0,0.8c-1.4,0.2-2.9,0.4-3.9,0.5c0,0.1-0.1,0.2-0.2,0.2
		l-0.4-1.2l1-0.1v-2h-1c-0.2,1.2-0.6,2.4-1.3,3.4c-0.2-0.2-0.7-0.5-1-0.7c1.2-1.5,1.3-3.5,1.3-4.9v-1.8h8.9v1h-7.7v0.9
		c0,0.4,0,0.8,0,1.2h7.8v1H335.8z M336,537.3v4h-8v-4h2.3v-1.1l1.4,0.1c0,0.1-0.1,0.2-0.3,0.2v0.8h1.1v-1.1l1.4,0.1
		c0,0.1-0.1,0.2-0.3,0.2v0.8H336z M329.2,538.1v0.7h1.1v-0.7H329.2z M329.2,539.7v0.7h1.1v-0.7H329.2z M335.7,544.3h-6.3v-0.8h6.3
		V544.3z M331,545.9v1.9c0.7-0.1,1.5-0.2,2.2-0.2c-0.4-0.5-0.8-1-1-1.6H331z M332.5,538.1h-1.1v0.7h1.1V538.1z M332.5,539.7h-1.1
		v0.7h1.1V539.7z M333.3,545.9c0.2,0.4,0.4,0.7,0.7,1c0.5-0.3,1.1-0.7,1.6-1H333.3z M334.8,538.9v-0.7h-1.2v0.7H334.8z M334.8,540.4
		v-0.7h-1.2v0.7H334.8z"/>
	<path d="M327.1,555.9c0.4,0.5,1.7,2.1,1.9,2.5l-0.8,1.1c-0.2-0.5-0.7-1.3-1.1-2v6.3h-1.2v-6.2c-0.5,1.4-1.1,2.8-1.7,3.6
		c-0.1-0.4-0.4-0.9-0.7-1.2c0.9-1.2,1.8-3.3,2.2-5.1h-1.9v-1.2h2v-3l1.6,0.1c0,0.1-0.1,0.2-0.3,0.2v2.7h1.7v1.2h-1.7V555.9z
		 M332.3,551.3c0,0.1-0.2,0.2-0.4,0.2c-0.5,2.1-1.4,4.2-2.4,5.5c-0.2-0.2-0.7-0.6-1-0.8c1-1.2,1.8-3.3,2.2-5.3L332.3,551.3z
		 M333.4,556.7c0,0.1-0.2,0.2-0.4,0.2c-0.4,1.5-1.2,3.5-1.8,5c1.1,0,2.3-0.1,3.5-0.2c-0.4-0.8-0.9-1.7-1.3-2.4l1.1-0.6
		c0.9,1.4,1.9,3.3,2.3,4.4l-1.2,0.6c-0.1-0.3-0.2-0.6-0.4-1c-2.3,0.2-4.6,0.4-6.1,0.4c0,0.1-0.1,0.2-0.2,0.2l-0.4-1.6l1.4,0
		c0.7-1.6,1.4-4,1.8-5.7L333.4,556.7z M334.6,550.8c0.5,1.8,1.4,3.9,2.3,5c-0.4,0.2-0.8,0.7-1.1,1.1c-0.9-1.4-1.9-3.7-2.4-5.7
		L334.6,550.8z"/>
	<path d="M334.5,568.6l1.7,0.1c0,0.1-0.1,0.2-0.3,0.2v9.2h-1.4v-1h-8.6v1.1h-1.4v-9.5l1.7,0.1c0,0.1-0.1,0.2-0.3,0.2v6.8h3.5v-10.2
		l1.7,0.1c0,0.1-0.1,0.2-0.3,0.2v9.8h3.7V568.6z"/>
</g>
<g>
	<rect x="233.9" y="521.4" class="st2" width="16.2" height="57.6"/>
	<path d="M236.1,532.1c-0.1,1.5-0.2,3-0.9,3.9l-0.8-0.4c0.6-0.8,0.8-2.2,0.8-3.6L236.1,532.1z M248.4,524.5l0.8,0c0,0.1,0,0.3,0,0.5
		c-0.1,7.7-0.3,10.3-0.8,11c-0.5,0.7-1,0.8-2.4,0.8c-0.3,0-0.6,0-1,0c0-0.4-0.2-1-0.4-1.4c0.9,0.1,1.6,0.1,2,0.1
		c0.2,0,0.4-0.1,0.5-0.3c0.4-0.5,0.5-2.9,0.7-9.3h-4.4c-0.2,0.6-0.5,1.2-0.8,1.7h3.9v5.6h-2.9v0.9h-1.2v-6.1
		c-0.1,0.2-0.3,0.4-0.4,0.6c-0.2-0.3-0.7-0.7-1-0.9v0.8h-1.7v1.3h1.3l0.3,0l0.7,0.1c0,0.1,0,0.3,0,0.4c-0.2,4-0.4,5.5-0.7,6
		c-0.2,0.3-0.5,0.5-1.7,0.5c-0.2,0-0.4,0-0.7,0c0-0.4-0.1-0.9-0.3-1.2c0.5,0,0.9,0,1.1,0c0.6,0,0.7-0.6,0.8-1.9l-0.5,0.2
		c-0.1-0.6-0.5-1.5-0.8-2.1l0.6-0.2c0.3,0.5,0.5,1.1,0.7,1.6h0c0-0.6,0.1-1.3,0.1-2.2h-3.5v0.4h-1.3v-8.9h5.8v1.2h-2v1.2h1.7v1.2
		h-1.7v1.2h1.7v0.2c1-1.3,1.8-3.6,2.3-5.7l1.8,0.5c0,0.2-0.2,0.2-0.4,0.2c-0.2,0.7-0.4,1.3-0.6,2H248.4z M236.6,535.2
		c0-0.8,0-2-0.2-3l0.7-0.1c0.2,1,0.2,2.2,0.2,3L236.6,535.2z M238,523.7h-1.3v1.2h1.3V523.7z M238,527.4v-1.2h-1.3v1.2H238z
		 M238,529.8v-1.3h-1.3v1.3H238z M238.3,532c0.3,0.8,0.5,1.9,0.6,2.6l-0.7,0.2c0-0.7-0.3-1.8-0.6-2.6L238.3,532z M245.2,528.9h-1.7
		v3h1.7V528.9z"/>
	<path d="M248.9,569.5l0.8,0l0,0.3c-0.3,1.3-0.8,2.9-1.3,3.9c-1.1-0.2-1.2-0.3-1.2-0.3c0.3-0.6,0.5-1.5,0.8-2.4h-1.6v5.8
		c0,1.6-0.8,1.7-3.3,1.7c0-0.4-0.3-1.1-0.5-1.5c0.5,0,1,0,1.4,0c0.8,0,0.9,0,0.9-0.3v-5.7h-2.6v0.1h-2.9v1.5h2.9v1.4h-2.9v1.9
		c1-0.1,2.1-0.3,3.2-0.4l0,1.3c-2.7,0.4-5.5,0.9-7.3,1.1c0,0.2-0.2,0.2-0.3,0.3l-0.4-1.7c0.9-0.1,2-0.2,3.3-0.4v-2.1h-2.8v-1.4h2.8
		V571h-2.8v-6.8h7.2v5.3h4.2c-0.9-0.8-2.2-1.6-3.4-2.2l1-1c0.5,0.3,1.1,0.6,1.6,0.9c0.5-0.5,1-1,1.4-1.6h-4.4v-1.4h5.6l0.3-0.1
		l1.1,0.7c0,0.1-0.2,0.2-0.3,0.2c-0.6,0.9-1.6,2-2.5,2.9c0.5,0.4,1,0.7,1.3,1l-0.5,0.5H248.9z M236.4,565.5v1.6h1.6v-1.6H236.4z
		 M236.4,568.2v1.6h1.6v-1.6H236.4z M241,567.1v-1.6h-1.7v1.6H241z M241,569.8v-1.6h-1.7v1.6H241z"/>
</g>
<g>
	<rect x="189.9" y="521.2" class="st2" width="16.2" height="57.6"/>
	<path d="M202.3,533.7h-3c0.5,0.4,1.1,0.6,1.7,0.9c0.8-0.4,1.7-1,2.2-1.5l1.3,0.8c-0.1,0.1-0.2,0.1-0.4,0.1c-0.5,0.3-1.1,0.7-1.7,1
		c0.9,0.2,2,0.4,3,0.4c-0.3,0.3-0.7,0.9-0.8,1.3c-1.9-0.2-3.5-0.7-4.9-1.3l0,0.6c-2.5,0.2-5.2,0.4-6.9,0.5c0,0.1-0.1,0.2-0.2,0.2
		l-0.5-1.5l2-0.1v-4.7c-0.8,0.6-1.7,1.1-2.5,1.4c-0.2-0.3-0.7-0.8-1-1.1c1.4-0.5,2.9-1.4,3.9-2.5h-3.6v-1.2h6.5v-0.8h-4.5v-1.1h4.5
		v-0.8h-5.4v-1.2h2.9c-0.2-0.4-0.5-0.9-0.8-1.2l1.3-0.4c0.5,0.5,0.9,1.1,1.1,1.6l-0.1,0h3.6l-0.1,0c0.3-0.5,0.7-1.2,1-1.7l1.8,0.5
		c0,0.1-0.2,0.2-0.4,0.2c-0.2,0.3-0.5,0.7-0.8,1h2.9v1.2h-5.5v0.8h4.6v1.1h-4.6v0.8h6.5v1.2h-3.7c1,1,2.4,1.8,3.9,2.2
		c-0.3,0.3-0.8,0.8-1,1.2c-0.9-0.3-1.7-0.7-2.5-1.3V533.7z M201.1,529.5c-0.4-0.4-0.7-0.7-1-1.1h-3.9c-0.3,0.4-0.6,0.8-1,1.1h2.1
		v-0.9l1.8,0.1c0,0.1-0.1,0.2-0.4,0.3v0.5H201.1z M195.5,530.4v0.7h5.2v-0.7H195.5z M195.5,532.7h5.2V532h-5.2V532.7z M195.5,533.7
		v1.3c1.1,0,2.2-0.1,3.3-0.2c-0.5-0.3-0.9-0.7-1.2-1.1H195.5z"/>
	<path d="M205.4,570.1h-6c-0.9,0.7-1.8,1.3-2.7,1.9v1.4c2.1-0.5,4.3-1.2,5.6-1.9l1.3,1.1c-0.1,0.1-0.1,0.1-0.4,0.1
		c-1.6,0.7-4.2,1.4-6.5,2v1.2c0,0.6,0.2,0.7,1.4,0.7h3.9c1,0,1.2-0.3,1.3-2.1c0.4,0.2,1,0.5,1.4,0.6c-0.2,2.3-0.7,2.9-2.7,2.9H198
		c-2.3,0-2.9-0.4-2.9-2.1V573c-1.2,0.6-2.4,1.2-3.6,1.7c-0.2-0.3-0.6-0.9-0.9-1.2c2.2-0.9,4.4-2,6.5-3.4h-6.1v-1.4h5.3v-2h-3.9v-1.3
		h3.9v-2.1l1.9,0.1c0,0.1-0.1,0.2-0.4,0.3v1.8h3.9v0.8c0.7-0.7,1.3-1.5,1.8-2.3l1.6,0.9c-0.1,0.1-0.2,0.1-0.3,0.1c0,0-0.1,0-0.2,0
		c-1,1.4-2.2,2.7-3.5,3.9h4.4V570.1z M197.7,568.8h1.1c0.8-0.6,1.5-1.3,2.2-2h-3.3V568.8z"/>
</g>
<g>
	<rect x="145.9" y="521.2" class="st2" width="16.2" height="57.6"/>
	<path d="M161.5,524.2h-5v2.1h4.2v10.4h-1.6v-0.9h-10v1h-1.5v-10.4h3.7v-2.1h-4.6v-1.5h14.6V524.2z M149.2,534.3h10v-2.7
		c-0.2,0.3-0.6,0.4-1.1,0.4h-1.5c-1.4,0-1.6-0.4-1.6-1.8v-2.5h-2v0.3c0,1.6-0.4,3.7-2.4,5c-0.2-0.3-0.8-0.8-1.1-1
		c2.1-1.4,2.1-3.3,2.1-4.3h-2.4V534.3z M155,526.3v-2.1h-2.1v2.1H155z M157.9,530.7c0.3,0,0.4-0.1,0.4-1.1c0.2,0.1,0.5,0.3,0.8,0.4
		v-2.3h-2.7v2.5c0,0.4,0.1,0.4,0.4,0.4H157.9z"/>
	<path d="M161.3,548.6h-6c1,3.6,2.9,6.3,6.3,7.4c-0.4,0.3-0.9,1-1.1,1.5c-3.2-1.3-5.1-3.8-6.3-7.2c-0.8,2.9-2.6,5.6-6.4,7.2
		c-0.2-0.4-0.7-1-1.1-1.3c4.1-1.6,5.6-4.5,6.2-7.6H147V547h6.1c0.1-1.5,0.1-3.1,0.1-4.5l2,0.1c0,0.2-0.1,0.3-0.4,0.3
		c0,1.3,0,2.7-0.2,4.1h6.5V548.6z"/>
	<path d="M151.9,572.3l0.3,1.3c-1.7,0.7-3.6,1.5-4.8,2c0,0.1-0.1,0.3-0.2,0.3l-0.7-1.7c0.6-0.2,1.3-0.4,2.1-0.7v-4.8h-1.8v-1.4h1.8
		v-3.8l1.8,0.1c0,0.1-0.1,0.2-0.4,0.3v3.4h1.7v1.4h-1.7v4.3L151.9,572.3z M150.7,576.3h11v1.4h-11V576.3z M161.3,564.1v1.4h-9.4
		v-1.4H161.3z M160.3,575.1h-1.5v-0.6h-4.3v0.6h-1.4V567h7.2V575.1z M158.8,568.3h-4.3v1.8h4.3V568.3z M154.5,573.3h4.3v-1.9h-4.3
		V573.3z"/>
</g>
<g>
	<rect x="57.9" y="521.2" class="st2" width="16.2" height="57.6"/>
	<path d="M64.2,530.1l-1.8,0.6v4.2c0,1.4-0.5,1.8-2.9,1.8c0-0.4-0.3-1.1-0.4-1.5c0.7,0,1.4,0,1.6,0s0.3-0.1,0.3-0.3v-3.8
		c-0.7,0.2-1.2,0.4-1.7,0.5c0,0.1-0.1,0.2-0.3,0.3l-0.4-1.7c0.7-0.2,1.5-0.4,2.4-0.6v-3.3h-2.2v-1.4h2.2v-3.2l1.8,0.1
		c0,0.1-0.1,0.2-0.4,0.3v2.8h1.7v1.4h-1.7v3l1.6-0.4L64.2,530.1z M73.7,528.4h-1.3v5l1.3-0.1l0,1.2l-1.2,0.1v2H71v-1.9
		c-2.5,0.2-4.9,0.3-6.6,0.4c0,0.1-0.1,0.2-0.3,0.2l-0.4-1.6l1.7-0.1v-5.4h-1.2v-1.3h9.6V528.4z M72.5,522.2v3.9h-7.3v-3.9H72.5z
		 M71,524.8v-1.4h-4.5v1.4H71z M71,529.4v-1h-4.2v1H71z M71,531.4v-1.1h-4.2v1.1H71z M66.7,532.4v1.3c1.3-0.1,2.8-0.1,4.2-0.2v-1.1
		H66.7z"/>
	<path d="M70.7,573.2L70.7,573.2c0,0.1-0.1,0.2-0.3,0.2c-0.7,1-1.6,1.8-2.7,2.4c1.8,0.6,3.8,1,6,1.2c-0.3,0.3-0.7,0.9-0.9,1.3
		c-2.5-0.3-4.8-0.8-6.8-1.7c-2,0.8-4.3,1.3-6.8,1.7c-0.1-0.4-0.5-1-0.7-1.3c2.1-0.2,4.1-0.6,5.9-1.2c-1.1-0.7-2-1.4-2.7-2.3l0.7-0.3
		h-3.5v-1.3h2.4c-0.2-0.3-0.6-0.7-0.9-1c1-0.4,1.6-0.8,2.1-1.3c-1.2,0.1-2.3,0.3-3.2,0.4c0,0.1-0.1,0.2-0.2,0.2l-0.4-1.4
		c1.2-0.1,2.9-0.2,4.6-0.4c0.1-0.3,0.2-0.5,0.2-0.8h-3.9v-1.1h4v-0.8h-4.5v-1.1h4.5v-1.3l1.8,0.1c0,0.1-0.1,0.2-0.4,0.3v2.8
		c0,2.1-0.4,4.1-3.3,5.4h3.6v-1.4l1.9,0.1v-7.3l1.8,0.1c0,0.1-0.1,0.2-0.4,0.3v0.9h4.4v1.1h-4.4v0.9h4v1.1h-4v0.9h4.9v1.1h-4.9v1.5
		h-1.5v-0.5c0,0.1-0.1,0.1-0.3,0.2v1h6.5v1.3H70.7z M63.2,573.2c0.7,0.8,1.7,1.4,2.8,2c1.1-0.5,2-1.2,2.6-2H63.2z"/>
</g>
<g>
	<rect x="102.8" y="521.2" class="st2" width="16.2" height="57.6"/>
	<path d="M118.3,527.8h-6c1,3.6,2.9,6.3,6.3,7.4c-0.4,0.3-0.9,1-1.1,1.5c-3.2-1.3-5.1-3.8-6.3-7.2c-0.8,2.9-2.6,5.6-6.4,7.2
		c-0.2-0.4-0.7-1-1.1-1.3c4.1-1.6,5.6-4.5,6.2-7.6H104v-1.6h6.1c0.1-1.5,0.1-3.1,0.1-4.5l2,0.1c0,0.2-0.1,0.3-0.4,0.3
		c0,1.3,0,2.7-0.2,4.1h6.5V527.8z"/>
	<path d="M108.9,572.3l0.3,1.3c-1.7,0.7-3.6,1.5-4.8,2c0,0.1-0.1,0.3-0.2,0.3l-0.7-1.7c0.6-0.2,1.3-0.4,2.1-0.7v-4.8h-1.8v-1.4h1.8
		v-3.8l1.8,0.1c0,0.1-0.1,0.2-0.4,0.3v3.4h1.7v1.4H107v4.3L108.9,572.3z M107.6,576.3h11v1.4h-11V576.3z M118.3,564.1v1.4h-9.4v-1.4
		H118.3z M117.2,575.1h-1.5v-0.6h-4.3v0.6H110V567h7.2V575.1z M115.7,568.3h-4.3v1.8h4.3V568.3z M111.4,573.3h4.3v-1.9h-4.3V573.3z"
		/>
</g>
<g>
	<rect x="365.9" y="521.5" class="st2" width="16.2" height="57.6"/>
	<path d="M378,523.3l1.1,0.6c0,0.1-0.1,0.1-0.2,0.2c-2.1,3.6-6.7,5.9-11.1,6.8c-0.1-0.4-0.4-1-0.7-1.3c2-0.3,4.1-1,5.9-1.9
		c-0.6-0.4-1.3-0.9-2-1.2l1-0.9c0.7,0.3,1.6,0.8,2.2,1.3c1-0.7,1.9-1.4,2.5-2.2h-4.3c-1.1,0.8-2.5,1.6-4.2,2.3
		c-0.2-0.4-0.7-0.9-1-1.1c2.8-1,4.9-2.4,6-3.8l1.9,0.4c0,0.1-0.2,0.2-0.4,0.2c-0.2,0.2-0.5,0.5-0.7,0.7h3.8L378,523.3z M380,529.1
		l0.3-0.1c1,0.5,1,0.5,1.1,0.5c0,0.1-0.1,0.1-0.2,0.2c-2,4.6-6.9,6.6-12.2,7.3c-0.1-0.4-0.4-1-0.7-1.4c2.4-0.3,4.8-0.8,6.7-1.8
		c-0.6-0.5-1.5-1.1-2.2-1.6l1.1-0.8c0.8,0.4,1.8,1.1,2.4,1.6c1.2-0.7,2.1-1.6,2.8-2.8h-4.4c-1.3,0.9-3,1.8-5,2.6
		c-0.2-0.4-0.6-0.9-0.9-1.2c3.3-1.1,5.7-2.7,7-4.2l1.9,0.4c0,0.1-0.2,0.2-0.4,0.2c-0.3,0.3-0.6,0.6-0.9,0.9H380z"/>
	<path d="M369.4,566.6v3.2c0,2.6-0.2,6.4-1.6,8.8c-0.3-0.3-0.9-0.7-1.2-0.8c1.3-2.3,1.4-5.6,1.4-8v-4.6h5.9v-1.6l2,0.1
		c0,0.1-0.1,0.2-0.4,0.3v1.2h6.1v1.4H369.4z M379.3,572.8l1,0.5c0,0.1-0.1,0.1-0.2,0.2c-0.7,1.3-1.7,2.3-3,3
		c1.3,0.4,2.8,0.7,4.5,0.9c-0.3,0.3-0.7,0.9-0.9,1.3c-1.9-0.3-3.7-0.7-5.2-1.4c-1.6,0.7-3.6,1.1-5.6,1.4c-0.1-0.4-0.4-0.9-0.6-1.3
		c1.6-0.2,3.3-0.5,4.7-0.9c-0.9-0.6-1.6-1.3-2.2-2.1l0.8-0.3H370v-1.2h9L379.3,572.8z M378.7,571.9h-6.4v-2.5h-2.4v-1.2h2.4v-1.3
		l1.8,0.1c0,0.1-0.1,0.2-0.4,0.3v0.9h3.4v-1.3l1.9,0.1c0,0.1-0.1,0.2-0.4,0.3v0.9h2.7v1.2h-2.7V571.9z M373.2,574.1
		c0.6,0.7,1.4,1.3,2.4,1.8c0.9-0.5,1.8-1.1,2.4-1.8H373.2z M377.2,569.4h-3.4v1.4h3.4V569.4z"/>
</g>
<line class="st5" x1="419" y1="175" x2="419" y2="321"/>
<g>
	<rect x="159.4" y="13.5" class="st2" width="121.2" height="24"/>
	<path d="M175.1,24.1c0.4,1.4,1,2.6,1.8,3.7c1.4-0.9,3.2-2.1,4.3-3l1.3,1c-0.1,0.1-0.3,0.1-0.5,0.1c-1.2,0.9-2.9,2-4.5,2.8
		c1.5,1.8,3.5,3.1,6.1,3.8c-0.3,0.3-0.7,0.8-0.9,1.2c-4.6-1.4-7.5-4.7-9-9.4c-1,0.9-2.3,1.8-3.6,2.6l0.4,0.1c0,0.1-0.1,0.2-0.4,0.3
		v4.3l6-0.9l0.1,1.2c-3.3,0.6-6.8,1.2-9,1.5c0,0.2-0.1,0.3-0.3,0.3l-0.7-1.6c0.7-0.1,1.5-0.2,2.4-0.3v-4.1c-1.3,0.7-2.6,1.2-3.8,1.6
		c-0.2-0.3-0.6-0.9-0.9-1.2c2.8-0.8,6-2.3,8.2-4.1h-7.9v-1.2h8.8v-2.1h-6.4v-1.2h6.4v-2h-7.6v-1.2h7.6v-2.1l1.8,0.1
		c0,0.1-0.1,0.3-0.4,0.3v1.7h7.9v1.2h-7.9v2h6.7v1.2h-6.7v2.1h8.9v1.2H175.1z"/>
	<path d="M192.6,25.3c-0.1,0.1-0.2,0.2-0.5,0.2c-1,2.4-2.6,4.9-4.2,6.4c-0.3-0.3-0.8-0.6-1.2-0.8c1.6-1.4,3.2-3.9,4.1-6.4
		L192.6,25.3z M206.3,22.5h-8.7v9.4c0,0.9-0.2,1.4-0.9,1.6c-0.7,0.2-1.9,0.2-3.8,0.2c-0.1-0.4-0.3-1-0.5-1.4c0.9,0,1.7,0,2.4,0
		c1.4,0,1.4,0,1.4-0.5v-9.4h-8.6v-1.4h18.7V22.5z M204.4,15.8v1.4h-14.9v-1.4H204.4z M205.2,31.8c-0.6-1.8-2.2-4.6-3.8-6.6l1.3-0.6
		c1.6,2,3.3,4.7,3.9,6.5L205.2,31.8z"/>
	<path d="M218.2,17.8V19h-8v-1.2H218.2z M217.5,26.4v6.2h-5.1v1h-1.3v-7.2H217.5z M211.2,21.8v-1.2h6.3v1.2H211.2z M211.2,24.7v-1.2
		h6.3v1.2H211.2z M217.5,15v1.2h-6.1V15H217.5z M216.2,27.6h-3.8v3.8h3.8V27.6z M221.3,16.2v1.3c0,1.8-0.5,4.1-2.7,5.5
		c-0.2-0.3-0.7-0.8-1-0.9c2.1-1.3,2.4-3.1,2.4-4.6v-2.6h6.6v5.3c0,0.5,0.1,0.5,0.4,0.5h1.2c0.4,0,0.5-0.3,0.5-2.4
		c0.3,0.2,0.8,0.4,1.2,0.5c-0.1,2.5-0.5,3.1-1.6,3.1h-1.5c-1.2,0-1.6-0.4-1.6-1.8v-4H221.3z M227.8,23.4l0.9,0.4
		c0,0.1-0.1,0.2-0.2,0.2c-0.7,2.5-2,4.5-3.6,6.1c1.4,1.1,3.1,1.9,5,2.4c-0.3,0.3-0.7,0.9-0.9,1.2c-2-0.6-3.7-1.5-5.2-2.7
		c-1.6,1.3-3.5,2.2-5.5,2.7c-0.1-0.4-0.5-0.9-0.8-1.2c1.9-0.5,3.7-1.3,5.2-2.4c-1.3-1.4-2.4-3-3.1-4.9l1.3-0.4
		c0.7,1.7,1.6,3.1,2.9,4.4c1.3-1.2,2.3-2.7,3-4.4h-8.3v-1.3h9L227.8,23.4z"/>
	<path d="M243.8,27.2v4.6c1.1,0.2,2.3,0.3,3.7,0.3c0.7,0,4.4,0,5.4,0c-0.2,0.4-0.5,1-0.5,1.4h-4.9c-4.5,0-7.8-0.8-9.7-4.5
		c-0.8,2.1-1.8,3.8-3.3,4.9c-0.2-0.3-0.7-0.7-1.1-0.9c2.3-1.7,3.5-4.9,4-8.8l1.8,0.3c0,0.1-0.2,0.3-0.4,0.3
		c-0.1,0.8-0.3,1.7-0.5,2.5c0.9,2.4,2.3,3.6,4.2,4.3v-9.2H237v-1.3h12.3v1.3h-5.5v3.7h6.4v1.3H243.8z M235.7,18.1v3.2h-1.4v-4.5h8
		v-2.6l1.9,0.1c0,0.1-0.1,0.3-0.4,0.3v2.2h8.1v4.5h-1.4v-3.2H235.7z"/>
	<path d="M275.7,24h-6.1c1.7,1.5,4.2,2.8,6.7,3.4c-0.3,0.3-0.7,0.8-0.9,1.2c-0.5-0.1-1-0.3-1.5-0.5v5.7h-1.3V33h-4.1v0.8h-1.3v-6.9
		h4.2c-1.4-0.8-2.7-1.8-3.6-2.9h-3.3c-1,1.1-2.2,2.1-3.7,2.9h4.3v6.8h-1.3V33h-4.1v0.8h-1.3V28c-0.5,0.2-0.9,0.4-1.4,0.5
		c-0.2-0.3-0.6-0.8-0.9-1c2.6-0.9,4.8-2,6.4-3.5h-6v-1.3h7.2c0.4-0.5,0.8-1.1,1.1-1.7h-6.8v-5.8h6.8v5.7l0.2-0.4l1.7,0.5
		c0,0.1-0.2,0.2-0.5,0.2c-0.3,0.5-0.5,1-0.9,1.5h10.2V24z M263.7,19.9v-3.5h-4.2v3.5H263.7z M263.8,31.8v-3.6h-4.1v3.6H263.8z
		 M274.3,15.2V21h-6.9v-5.8H274.3z M268.5,31.8h4.1v-3.6h-4.1V31.8z M272.9,19.9v-3.5h-4.2v3.5H272.9z"/>
</g>
<rect x="44" y="292" class="st7" width="44" height="72"/>
<rect x="88" y="292" class="st7" width="44" height="72"/>
<rect x="132" y="292" class="st7" width="44" height="72"/>
<rect x="176" y="292" class="st7" width="44" height="72"/>
<rect x="220" y="292" class="st7" width="44" height="72"/>
<rect x="264" y="292" class="st7" width="44" height="72"/>
<rect x="308" y="292" class="st7" width="44" height="72"/>
<rect x="352" y="292" class="st7" width="44" height="72"/>
<rect x="44" y="607" class="st7" width="44" height="72"/>
<rect x="88" y="607" class="st7" width="44" height="72"/>
<rect x="132" y="607" class="st7" width="44" height="72"/>
<rect x="176" y="607" class="st7" width="44" height="72"/>
<rect x="220" y="607" class="st7" width="44" height="72"/>
<rect x="264" y="607" class="st7" width="44" height="72"/>
<g>
	<rect x="277.9" y="614.2" class="st2" width="16.2" height="57.6"/>
	<path class="st4" d="M279.4,619.2c1,0.4,2.3,1.1,3,1.6l-0.9,1.3c-0.6-0.6-1.9-1.3-2.9-1.7L279.4,619.2z M279.1,628.5
		c0.8-1.2,2-3.3,2.9-5.2l1.2,1c-0.8,1.7-1.8,3.6-2.5,4.8c0.1,0.1,0.1,0.2,0.1,0.3s0,0.2-0.1,0.2L279.1,628.5z M280.3,614.8
		c1,0.4,2.3,1.1,2.9,1.7l-0.9,1.2c-0.6-0.6-1.9-1.3-2.9-1.8L280.3,614.8z M289.4,620.1h4.3v1.4h-10.8v-1.4h1.8v-4.1l1.8,0.1
		c0,0.1-0.1,0.2-0.4,0.3v3.7h1.8v-5.4l1.9,0.1c0,0.1-0.1,0.2-0.4,0.3v1.8h3.7v1.4h-3.7V620.1z M282.9,628.2c1.1-0.6,2.8-1.5,4.4-2.5
		l0.5,1.3c-1.3,0.9-2.8,1.8-3.7,2.3c0,0.1,0,0.3-0.1,0.3L282.9,628.2z M284.9,621.9c0.9,0.7,2,1.7,2.5,2.5l-1.2,0.9
		c-0.5-0.7-1.5-1.8-2.4-2.6L284.9,621.9z M292.5,629.7c-0.8-0.8-2.5-2.1-3.9-2.9l1-1c1.3,0.8,3.1,2,3.9,2.8L292.5,629.7z
		 M289.1,624.5c0.9-0.7,2-1.9,2.7-2.8l1.6,1.1c-0.1,0.1-0.2,0.1-0.4,0.1c-0.7,0.8-1.8,1.8-2.7,2.4L289.1,624.5z"/>
	<path class="st4" d="M281.6,665.3c-0.7,0.5-1.3,0.9-2,1.3c-0.2-0.4-0.6-0.9-0.9-1.2c2.8-1.4,5.4-3.9,6.6-6l2,0.1
		c0,0.1-0.2,0.3-0.4,0.3c1.5,2.2,4.3,4.4,6.8,5.5c-0.4,0.4-0.7,0.9-1,1.3c-0.6-0.4-1.3-0.8-2-1.2v5.9h-1.6v-0.6h-6.1v0.6h-1.5V665.3
		z M284.9,657.3c-0.1,0.1-0.2,0.2-0.4,0.1c-1.1,1.5-2.7,3-4.2,4c-0.3-0.3-0.8-0.8-1.1-1c1.5-0.9,3.1-2.4,4-3.8L284.9,657.3z
		 M289.9,664.7c-1.5-1.2-2.9-2.5-3.8-3.8c-0.8,1.2-2.1,2.6-3.7,3.8H289.9z M283.1,669.3h6.1v-3.3h-6.1V669.3z M288.6,656.6
		c1.5,1.1,3.5,2.7,4.4,3.8l-1.3,0.9c-0.8-1.1-2.7-2.8-4.3-3.9L288.6,656.6z"/>
</g>
<g>
	<rect x="57.9" y="614.2" class="st2" width="16.2" height="57.6"/>
	<path d="M73.3,625.8h-5c1.4,1.1,3.5,2,5.4,2.4c-0.3,0.3-0.8,0.9-1,1.2c-2.1-0.6-4.3-1.8-5.8-3.2v3.4h-1.5v-3.4
		c-1.5,1.4-3.7,2.6-5.8,3.3c-0.2-0.4-0.7-0.9-1-1.2c1.9-0.5,3.9-1.4,5.3-2.5H59v-1.3h6.4v-1.2l0.9,0c-0.1-0.2-0.3-0.4-0.4-0.5
		c0.8-0.1,1.6-0.3,2.3-0.6c-0.5-0.2-1-0.3-1.5-0.5l0.7-0.9c0.8,0.2,1.6,0.4,2.3,0.7c0.5-0.3,0.9-0.6,1.2-0.9h-4.6v-1.1h5.6l0.2,0
		L73,620c0,0.1-0.1,0.1-0.1,0.2c-0.4,0.8-1.1,1.4-1.9,2c0.9,0.4,1.7,0.7,2.3,1l-0.9,1c-0.7-0.4-1.6-0.9-2.7-1.3
		c-0.9,0.4-1.9,0.7-2.9,0.9v0.7h6.5V625.8z M65.8,620c0,0.1-0.1,0.1-0.2,0.2c-0.4,0.8-1,1.5-1.7,2.1c0.5,0.2,1,0.5,1.4,0.7l-0.9,0.9
		c-0.4-0.3-1-0.6-1.7-0.9c-1,0.6-2.1,1-3.2,1.3c-0.1-0.3-0.5-0.8-0.7-1c0.9-0.2,1.7-0.4,2.5-0.8c-0.6-0.2-1.2-0.4-1.8-0.6l0.7-0.9
		c0.8,0.2,1.6,0.5,2.4,0.8c0.4-0.3,0.8-0.6,1.1-1h-4.4v-1.1h5.4l0.2,0L65.8,620z M71.1,615.7c0,0.1-0.1,0.1-0.2,0.1
		c-0.7,0.8-1.6,1.4-2.7,1.9c1.1,0.3,2,0.6,2.8,0.9l-1,0.9c-0.9-0.4-2.1-0.8-3.5-1.2c-1.7,0.6-3.6,1-5.5,1.2
		c-0.1-0.3-0.4-0.8-0.6-1.1c1.3-0.1,2.7-0.4,4-0.7c-0.9-0.2-1.9-0.4-2.8-0.6l0.8-0.9c1.3,0.2,2.7,0.5,4,0.8c0.7-0.3,1.4-0.6,2-0.9
		h-7.3v-1.1h8.8l0.2,0c0.1,0,0.1,0,0.1,0L71.1,615.7z"/>
	<path d="M72.5,664.2v7.1h-1.6v-0.6h-6.2v0.6h-1.5v-4.9c-1.2,0.7-2.5,1.3-3.9,1.7c-0.2-0.4-0.6-1-0.9-1.4c2-0.6,4.1-1.6,5.8-3
		c-0.6-0.7-1.5-1.5-2.3-2l1.1-1c0.8,0.5,1.8,1.3,2.4,2c1.1-1,2-2.2,2.7-3.5h-4.6c-1,1.2-2.4,2.4-4,3.3c-0.2-0.4-0.7-0.9-1.1-1.2
		c2.6-1.4,4.4-3.5,5.3-5.2l2,0.3c0,0.2-0.2,0.2-0.4,0.2c-0.2,0.4-0.5,0.7-0.7,1.1h4.4l0.2-0.1l1.1,0.6c0,0.1-0.1,0.2-0.2,0.2
		c-0.9,2.2-2.3,4.1-4.1,5.6H72.5z M64.7,669.3h6.2v-3.7h-6.2V669.3z"/>
</g>
<rect x="308" y="607" class="st7" width="44" height="72"/>
<rect x="352" y="607" class="st7" width="44" height="72"/>
<g>
	<rect x="365.9" y="614.5" class="st2" width="16.2" height="57.6"/>
	<path class="st4" d="M378.7,627.7h2.6v1.5h-14.4v-1.5h3.6c0.3-1.4,0.7-3.1,1.1-4.9h-3v-1.5h3.3c0.2-1.1,0.4-2.2,0.6-3.2h-4.6v-1.5
		h12.7v1.5h-6.4l-0.6,3.2h5.2V627.7z M377.2,622.8h-4c-0.4,1.8-0.7,3.5-1,4.9h5V622.8z"/>
	<path class="st4" d="M378.8,641l1.1,0.5c0,0.1-0.1,0.2-0.2,0.2c-0.6,2.4-1.8,4.3-3.2,5.7c1.3,0.9,2.9,1.6,4.8,2
		c-0.3,0.3-0.8,1-1,1.4c-1.9-0.5-3.6-1.3-4.9-2.3c-1.4,1.1-3,1.8-4.7,2.4c-0.2-0.4-0.6-1.1-0.9-1.4c1.6-0.4,3.1-1.1,4.4-2
		c-1.2-1.2-2.1-2.7-2.8-4.4l1.4-0.5c0.6,1.5,1.4,2.8,2.5,3.8c1.1-1.1,1.9-2.3,2.5-3.9h-7.5c-0.1,2.7-0.5,6-2.1,8.3
		c-0.3-0.3-0.9-0.7-1.3-0.9c1.8-2.5,1.9-6.1,1.9-8.6v-4.5h12v1.5h-10.5v2.7h8.3L378.8,641z"/>
	<path class="st4" d="M367.5,657.7h13.4v13.8h-1.6v-1H369v1h-1.5V657.7z M373.3,659.2H369v4.1h4.3V659.2z M369,664.8v4.1h4.3v-4.1
		H369z M379.3,663.3v-4.1h-4.5v4.1H379.3z M374.8,668.9h4.5v-4.1h-4.5V668.9z"/>
</g>
<rect x="44" y="700" class="st7" width="44" height="72"/>
<rect x="88" y="700" class="st7" width="44" height="72"/>
<rect x="132" y="700" class="st7" width="44" height="72"/>
<rect x="176" y="700" class="st7" width="44" height="72"/>
<rect x="220" y="700" class="st7" width="44" height="72"/>
<rect x="264" y="700" class="st7" width="44" height="72"/>
<rect x="308" y="700" class="st7" width="44" height="72"/>
<rect x="352" y="700" class="st7" width="44" height="72"/>
<g>
	<rect x="365.9" y="707.5" class="st2" width="16.2" height="57.6"/>
	<path d="M375.2,708.4c0,0.1-0.2,0.2-0.4,0.2c-0.2,0.6-0.6,1.4-0.9,2.1h6.4v12.2h-1.6v-1h-9v1h-1.5v-12.3h4c0.4-0.8,0.7-1.9,0.9-2.8
		L375.2,708.4z M378.6,712.2h-9v3.3h9V712.2z M369.6,720.4h9v-3.4h-9V720.4z"/>
	<path d="M381.4,759.3h-3.3c1,0.8,2.3,1.4,3.6,1.7c-0.3,0.3-0.7,0.8-0.9,1.1c-0.6-0.2-1.2-0.5-1.8-0.8v1.6c0,1.2-0.6,1.3-2.6,1.3
		c-0.1-0.4-0.2-0.8-0.4-1.2c0.3,0,0.7,0,0.9,0c0.5,0,0.6,0,0.6-0.2v-1.4h-2.8v3.2h-1.5v-3.2h-2.4v2.8h-1.5v-3
		c-0.6,0.4-1.3,0.7-2.1,1c-0.2-0.3-0.6-0.9-0.9-1.1c1.4-0.5,2.5-1.2,3.4-1.9h-3v-1.2h4.2c0.2-0.3,0.4-0.5,0.5-0.8H369v-4.5h10.5v4.5
		h-6.1c0,0.1-0.2,0.2-0.4,0.2c-0.1,0.2-0.2,0.4-0.4,0.6h8.7V759.3z M370.7,752.7V752h-3.7v-1.2h3.7v-1.1l1.9,0.1
		c0,0.1-0.1,0.2-0.4,0.3v0.7h3.8v-1.1l1.9,0.1c0,0.1-0.1,0.2-0.4,0.3v0.7h3.9v1.2h-3.9v0.7H376V752h-3.8v0.7H370.7z M370.4,753.7
		v0.9h7.6v-0.9H370.4z M370.4,755.5v0.9h7.6v-0.9H370.4z M371.8,759.3c-0.3,0.4-0.7,0.7-1.1,1h2.6v-1H371.8z M374.8,760.3h2.8
		c-0.4-0.3-0.7-0.7-1-1h-1.4c0,0.1-0.1,0.2-0.4,0.3V760.3z"/>
</g>
<rect x="44" y="793" class="st7" width="44" height="72"/>
<rect x="88" y="793" class="st7" width="44" height="72"/>
<rect x="132" y="793" class="st7" width="44" height="72"/>
<rect x="176" y="793" class="st7" width="44" height="72"/>
<rect x="220" y="793" class="st7" width="44" height="72"/>
<rect x="264" y="793" class="st7" width="44" height="72"/>
<rect x="308" y="793" class="st7" width="44" height="72"/>
<rect x="352" y="793" class="st7" width="44" height="72"/>
<g>
	<rect x="101.9" y="614.2" class="st2" width="16.2" height="57.6"/>
	<path class="st4" d="M107.4,624l0.3,1.3c-1.5,0.6-3.1,1.3-4.2,1.7c0,0.1-0.1,0.2-0.2,0.3l-0.7-1.7c0.6-0.2,1.2-0.4,2-0.6v-4.9h-1.7
		v-1.4h1.7v-3.7l1.8,0.1c0,0.1-0.1,0.2-0.4,0.2v3.4h1.5v0.6c1-1.1,1.8-2.8,2.2-4.6l1.8,0.5c0,0.1-0.2,0.2-0.4,0.2
		c-0.1,0.4-0.3,0.8-0.4,1.2h6.8v1.3h-7.4c-0.2,0.4-0.4,0.7-0.6,1h6.5v4h-7v-3.3c-0.3,0.4-0.6,0.8-0.9,1.1c-0.2-0.2-0.4-0.4-0.7-0.6
		v0h-1.5v4.5L107.4,624z M116.7,627.9h0.9v1.4h-11.3v-1.4h1.9v-4h8.5V627.9z M109.5,625.1v2.8h1.2v-2.8H109.5z M110.4,620v1.7h4.1
		V620H110.4z M113.1,625.1h-1.2v2.8h1.2V625.1z M115.4,625.1h-1.2v2.8h1.2V625.1z"/>
	<path class="st4" d="M103.3,660.8c1,0.4,2.4,1.1,3.1,1.6l-0.9,1.2c-0.6-0.6-1.9-1.3-3-1.8L103.3,660.8z M106.8,667v-1.1
		c-0.7,1.7-1.6,3.6-2.3,4.8c0.1,0.1,0.1,0.2,0.1,0.3s0,0.1-0.1,0.2l-1.6-1c0.8-1.3,1.9-3.4,2.7-5.3l1.2,0.9v-0.3h1.6v-8l1.3,0.3
		c2.1-0.4,4.4-0.9,5.8-1.4l1.2,1.3c-0.1,0.1-0.2,0.1-0.4,0.1c-1.6,0.5-4.1,1-6.4,1.3v1.7h7.5v1.4h-2.1v3.3h2.5v1.4H106.8z
		 M104.3,656.4c1,0.4,2.4,1.2,3,1.7l-0.9,1.2c-0.6-0.6-1.9-1.4-2.9-1.9L104.3,656.4z M111.5,668.2c-0.1,0.1-0.2,0.2-0.4,0.1
		c-0.9,1.1-2.2,2.3-3.4,3c-0.3-0.3-0.8-0.8-1.2-1c1.2-0.7,2.5-1.8,3.3-2.9L111.5,668.2z M109.9,662.2v3.3h3.9v-3.3H109.9z
		 M116.4,671.3c-0.6-0.9-2-2.2-3.2-3.1l1.3-0.8c1.2,0.9,2.6,2.1,3.3,3L116.4,671.3z"/>
</g>
<rect x="155" y="909" width="131" height="45"/>
<g>
	<rect x="155" y="910.5" class="st2" width="131" height="37"/>
	<path class="st3" d="M163.5,947.5l0.5-2c3.4,0,3.8-0.5,4.6-3.6l4.7-20.3c0.2-0.9,0.3-1.6,0.3-2.1c0-1.3-0.8-1.6-3.5-1.6l0.5-2.1
		h15.2l-0.5,2.1c-3.2,0-3.6,0.5-4.3,3.7l-2.2,9.3h0.2l12-10.6c0.6-0.5,1.1-1.1,1.1-1.5c0-0.5-0.6-0.8-2.1-0.8l0.5-2.1h11.8l-0.5,2.1
		c-2.2,0-4.6,0.6-7.4,2.9l-8.8,7.5l7.6,14.5c1.2,2.2,1.8,2.6,4.1,2.6l-0.5,2h-10l-6.9-14.5l-2,1.7l-1.6,7.2
		c-0.2,0.9-0.3,1.5-0.3,2.1c0,1.3,0.8,1.6,3.4,1.6l-0.5,2H163.5z"/>
	<path class="st3" d="M217.5,936.5c0,5.4-3.2,11.4-11.3,11.4c-4.6,0-7.4-2.7-7.4-7.3c0-4.7,3.1-11.4,11.1-11.4
		C214.8,929.2,217.5,932.3,217.5,936.5z M203.5,941.8c0,2.8,0.8,5,3.2,5c3.9,0,6-6.2,6-11.7c0-1.8-0.4-4.6-3.1-4.6
		C205.8,930.4,203.5,936.7,203.5,941.8z"/>
	<path class="st3" d="M216,947.6l0.3-1.2c2,0,2.3-0.3,2.7-2.1l2.7-11.6c0.1-0.5,0.2-0.9,0.2-1.2c0-0.8-0.5-0.9-2.1-0.9l0.3-1.2h9.1
		l-0.3,1.2c-2,0-2.3,0.3-2.7,2.1l-2.7,11.6c-0.1,0.4-0.2,0.8-0.2,1.1c0,0.8,0.6,1,2.2,1l-0.2,1.2H216z"/>
	<path class="st3" d="M230.8,947.5l0.5-2c4,0,4.5-0.5,5.3-3.6l5.7-23.6h-3.3c-2.8,0-3.5,0.5-6.4,5.9h-2.8l2.8-8.3h28.3l-1.5,8.3h-3
		c0.1-0.9,0.1-1.7,0.1-2.3c0-3.4-1.1-3.6-3.8-3.6h-3l-5.3,23.6c-0.2,0.8-0.3,1.5-0.3,2c0,1.3,0.9,1.6,4,1.6l-0.5,2H230.8z"/>
	<path class="st3" d="M275.5,936.5c0,5.4-3.2,11.4-11.3,11.4c-4.6,0-7.4-2.7-7.4-7.3c0-4.7,3.1-11.4,11.1-11.4
		C272.8,929.2,275.5,932.3,275.5,936.5z M261.5,941.8c0,2.8,0.8,5,3.2,5c3.9,0,6-6.2,6-11.7c0-1.8-0.4-4.6-3.1-4.6
		C263.8,930.4,261.5,936.7,261.5,941.8z"/>
</g>
<g>
	<path class="st5" d="M419,494c0,5.5-4.5,10-10,10H31c-5.5,0-10-4.5-10-10v-74c0-5.5,4.5-10,10-10h378c5.5,0,10,4.5,10,10V494z"/>
</g>
<g>
	<path class="st5" d="M44,783H31c-5.5,0-10-4.5-10-10V514c0-5.5,4.5-10,10-10h378c5.5,0,10,4.5,10,10v259c0,5.5-4.5,10-10,10h-13"/>
</g>
<g>
	<path class="st5" d="M396,783h13c5.5,0,10,4.5,10,10v73c0,5.5-4.5,10-10,10H31c-5.5,0-10-4.5-10-10v-73c0-5.5,4.5-10,10-10h13"/>
</g>
<rect x="409" y="175" class="st1" width="20" height="66"/>
<g>
	<rect x="410.9" y="179" class="st2" width="16.2" height="57.6"/>
	<path d="M417.2,182.8l0.8,0.2c0,0.1,0,0.2-0.1,0.3c-0.2,2.8-0.7,5-1.4,6.8c0.7,0.6,1.4,1.2,1.8,1.7l-0.9,1.2
		c-0.4-0.5-0.9-1-1.6-1.6c-0.8,1.4-1.8,2.4-3,3.1c-0.2-0.4-0.6-0.9-0.9-1.2c1.1-0.6,2.1-1.6,2.8-2.9c-0.4-0.3-0.9-0.7-1.3-1
		l-0.2,0.6l-1.2-0.7c0.4-1.4,0.8-3.3,1.3-5.3h-1.4v-1.4h1.7c0.2-1.2,0.4-2.3,0.6-3.3l1.8,0.2c0,0.1-0.1,0.2-0.4,0.2
		c-0.2,0.9-0.4,1.8-0.6,2.8h2L417.2,182.8z M414.5,184.2c-0.3,1.3-0.6,2.7-0.9,3.9c0.5,0.3,1.1,0.7,1.6,1c0.6-1.4,0.9-3,1.1-4.9
		H414.5z M424.3,182.2c1,1.3,2.1,3,2.5,4.2l-1.3,0.7c-0.1-0.3-0.2-0.7-0.4-1c-2.4,0.2-4.8,0.4-6.4,0.5c0,0.1-0.1,0.2-0.3,0.2
		l-0.6-1.7l1.3,0c0.6-1.6,1.3-3.8,1.6-5.5l1.9,0.4c0,0.1-0.2,0.2-0.4,0.2c-0.4,1.4-1.1,3.3-1.7,4.8c1.2,0,2.5-0.1,3.8-0.2
		c-0.4-0.7-0.9-1.4-1.3-2L424.3,182.2z M419,194.5v-6.7h6.9v6.6h-1.5v-0.6h-4v0.7H419z M424.4,189.3h-4v3.2h4V189.3z"/>
	<path d="M423.6,207.4h-1.7v2.2h3.7v1.4h-3.7v2.2c0,0.6,0.1,0.6,0.6,0.6h1.6c0.5,0,0.6-0.3,0.6-2c0.3,0.3,0.9,0.5,1.4,0.6
		c-0.1,2.1-0.6,2.7-1.8,2.7h-2c-1.5,0-1.9-0.4-1.9-2V211h-2.6c-0.3,1.7-1.3,3.4-4.4,4.4c-0.2-0.4-0.7-0.9-1-1.2
		c2.5-0.8,3.5-2,3.8-3.2h-3.5v-1.4h3.6v-2.2h-1.6v-0.5c-0.7,0.5-1.5,1-2.3,1.4c-0.2-0.4-0.6-0.9-0.9-1.2c1-0.4,2.1-1.1,3-1.9
		c-0.4-0.5-1.2-1.1-1.8-1.6l1-0.8c0.6,0.4,1.3,1,1.8,1.4c0.5-0.6,1-1.2,1.3-1.9H413V201h4.6l0.2-0.1c0.5,0.2,0.8,0.4,1.1,0.5
		c0,0.1-0.1,0.1-0.2,0.2c-0.6,1.7-1.6,3.2-2.9,4.3h6.8c-1.4-1.4-2.5-3.2-3.3-5.2l1.3-0.4c0.3,0.7,0.6,1.3,0.9,1.9
		c0.6-0.5,1.3-1.2,1.8-1.7l1.3,1c0,0.1-0.1,0.1-0.2,0.1c0,0-0.1,0-0.1,0c-0.5,0.5-1.3,1.2-2,1.7c0.3,0.4,0.6,0.7,0.9,1.1
		c0.8-0.6,1.6-1.3,2.1-1.9l1.3,0.9c-0.1,0.1-0.2,0.1-0.4,0.1c-0.5,0.5-1.4,1.2-2.2,1.7c0.8,0.7,1.8,1.3,2.8,1.7
		c-0.4,0.3-0.8,0.9-1.1,1.3c-0.8-0.4-1.5-0.8-2.2-1.3V207.4z M420.3,209.6v-2.2h-2.5v2.2H420.3z"/>
	<path d="M413.2,231.3c-0.1,1.5-0.3,3.1-0.9,4l-0.8-0.5c0.6-0.8,0.8-2.3,0.8-3.7L413.2,231.3z M418,229.1l0.7,0.1c0,0.1,0,0.3,0,0.4
		c-0.2,4-0.4,5.5-0.8,6c-0.3,0.4-0.6,0.5-1.6,0.5c-0.2,0-0.5,0-0.8,0c0-0.4-0.1-0.9-0.3-1.2c0.5,0.1,1,0.1,1.2,0.1
		c0.2,0,0.3,0,0.5-0.2c0.2-0.2,0.3-0.7,0.4-1.8l-0.5,0.2c-0.1-0.6-0.5-1.5-0.8-2.1l0.7-0.2c0.3,0.5,0.6,1.1,0.8,1.6h0
		c0-0.6,0.1-1.3,0.1-2.2h-3.6v0.4h-1.3v-8.9h6.1v1.2h-2.2v1.2h1.9v1.2h-1.9v1.2h1.9v1.2h-1.9v1.3h1.4L418,229.1z M413.7,234.5
		c0-0.8,0-2-0.2-3l0.7-0.1c0.2,0.9,0.2,2.2,0.2,3L413.7,234.5z M415,223h-1.3v1.2h1.3V223z M415,226.7v-1.2h-1.3v1.2H415z
		 M413.7,227.8v1.3h1.3v-1.3H413.7z M415.3,231.2c0.3,0.8,0.6,1.9,0.6,2.6l-0.8,0.2c0-0.7-0.3-1.8-0.6-2.6L415.3,231.2z
		 M426.1,228.6h-2.5c0.5,2.8,1.4,5.2,3.2,6.3c-0.3,0.3-0.8,0.8-1,1.2c-2.1-1.5-3-4.2-3.6-7.6h-1.2c0,2.4-0.4,5.5-1.8,7.5
		c-0.3-0.2-0.9-0.6-1.2-0.8c1.5-2.1,1.6-5.1,1.6-7.4v-6.2h6.4V228.6z M424.7,223.2h-3.6v4.1h3.6V223.2z"/>
</g>
<rect x="409" y="424" class="st1" width="20" height="66"/>
<g>
	<rect x="410.5" y="428.1" class="st2" width="16.2" height="57.6"/>
	<path d="M426.3,442v1.2h-9.8V442h4.2V441h-3.4v-1.2h3.4v-0.9h-3.1v-5.3h3.1v-0.8H417v-1.2h3.7v-1.1c-1,0.1-2.1,0.2-3.1,0.2
		c0-0.3-0.2-0.7-0.3-1c-0.1,0.1-0.2,0.1-0.4,0.1c-0.5,0.2-1.1,0.5-1.8,0.7v2.7h1.9v1.4h-1.9v0.7c0.4,0.4,1.8,1.9,2.1,2.3l-0.9,1.2
		c-0.2-0.4-0.7-1.2-1.2-1.9v6.6h-1.5v-6.4c-0.5,1.4-1.2,2.8-1.8,3.7c-0.1-0.4-0.5-1.1-0.7-1.4c0.9-1.1,1.8-3.1,2.3-4.8h-2.1v-1.4
		h2.4v-2.3c-0.7,0.2-1.3,0.4-2,0.5c-0.1-0.3-0.3-0.8-0.5-1.1c1.8-0.4,3.7-1.1,4.8-1.8l1.2,1.1l0-0.1c2.5-0.2,5.5-0.5,7.2-1l1.1,1.1
		c-0.1,0.1-0.2,0.1-0.4,0c-0.8,0.2-1.9,0.4-3.1,0.6v1.3h3.9v1.2h-3.9v0.8h3.2v5.3h-3.2v0.9h3.5v1.2h-3.5v1.1H426.3z M419,435.7h1.7
		v-1H419V435.7z M420.7,437.8v-1H419v1H420.7z M422.2,434.8v1h1.8v-1H422.2z M423.9,436.8h-1.8v1h1.8V436.8z"/>
	<path d="M417.6,478l0.3,0l0.8,0.1c0,0.1,0,0.3,0,0.4c-0.2,4-0.3,5.5-0.8,6c-0.4,0.5-0.9,0.6-2,0.6c-0.4,0-0.7,0-1.1,0
		c0-0.4-0.2-1-0.4-1.3c0.7,0.1,1.4,0.1,1.7,0.1c0.3,0,0.4,0,0.6-0.2c0.3-0.3,0.4-1.4,0.5-4.3H415c-0.4,2.1-1.1,4.3-2.7,5.7
		c-0.2-0.4-0.7-0.8-1-1c2.1-1.8,2.5-5.2,2.7-7.7h-1.7v-5.4h6.5v5.4h-3.3c0,0.5-0.1,1.1-0.2,1.7H417.6z M413.5,472.3v2.7h3.7v-2.7
		H413.5z M421.9,472.2c0,0.1-0.1,0.2-0.4,0.3v8.7h-1.5v-9L421.9,472.2z M424,470.5l1.9,0.1c0,0.1-0.1,0.2-0.4,0.3v12.4
		c0,1.7-0.7,2-3.9,1.9c-0.1-0.4-0.3-1.1-0.5-1.6c0.7,0,1.3,0,1.8,0c1,0,1.1,0,1.1-0.4V470.5z"/>
</g>
<rect x="408" y="610" class="st1" width="20" height="66"/>
<g>
	<rect x="410.5" y="614.2" class="st2" width="16.2" height="57.6"/>
	<path d="M413.7,623.2c-0.5,0.6-1,1.1-1.5,1.5c-0.2-0.3-0.7-0.9-1-1.2c1.5-1.2,3.3-3.3,4.4-5.3l1.7,0.7c-0.1,0.1-0.2,0.2-0.4,0.1
		c-0.4,0.8-1,1.5-1.6,2.3l0.3,0.1c0,0.1-0.1,0.2-0.4,0.3v8h-1.5V623.2z M416.6,615.4c-0.1,0.1-0.2,0.2-0.4,0.1
		c-1,1.2-2.7,2.8-4.1,3.8c-0.2-0.3-0.6-0.9-0.8-1.2c1.3-0.9,2.9-2.3,3.7-3.5L416.6,615.4z M426.2,620.3v1.4h-2.4v6.1
		c0,1.6-0.7,1.8-3.9,1.8c-0.1-0.4-0.3-1.1-0.5-1.5c0.6,0,1.2,0,1.7,0c1,0,1.1,0,1.1-0.3v-6.1h-5.2v-1.4H426.2z M425.6,615.7v1.5
		h-7.9v-1.5H425.6z"/>
	<path d="M417.6,665c0,0.1-0.2,0.2-0.4,0.2c-0.4,2.6-1.2,4.8-4.9,6.1c-0.2-0.4-0.6-1-0.9-1.3c3.4-1,4-2.8,4.3-5.2L417.6,665z
		 M421.6,669c0,0.5,0.1,0.6,0.7,0.6h1.8c0.5,0,0.6-0.3,0.7-2.4c0.3,0.3,1,0.5,1.4,0.6c-0.1,2.5-0.6,3.2-2,3.2H422c-1.6,0-2-0.5-2-2
		v-4.4h-8.4v-1.5h6.4v-3h-3.1c-0.4,0.9-0.8,1.7-1.3,2.4c-0.3-0.2-1-0.6-1.3-0.7c1.1-1.3,1.9-3.5,2.3-5.2l1.8,0.4
		c0,0.1-0.2,0.2-0.4,0.2c-0.1,0.4-0.3,0.9-0.5,1.5h2.6v-2.4l1.9,0.1c0,0.1-0.1,0.2-0.4,0.3v2h5.2v1.5h-5.2v3h6.4v1.5h-4.4V669z"/>
</g>
<rect x="408" y="800" class="st1" width="20" height="58"/>
<g>
	<rect x="413.1" y="804" class="st2" width="11.1" height="50"/>
	<path d="M416.9,806.2c0.9,0.3,1.8,0.7,2.7,1.1c0.6-0.7,1.2-1.8,1.7-2.8l1.3,0.4c0,0.1-0.2,0.1-0.4,0.1c-0.5,0.8-1.1,1.9-1.7,2.7
		c0.7,0.3,1.4,0.8,2,1.2l-0.7,0.8c-0.5-0.4-1.2-0.8-2-1.2c-1,1.2-2.4,2.4-4,3.2c-0.2-0.2-0.6-0.5-0.8-0.6c1.6-0.8,3-2,4-3.1
		c-0.9-0.4-1.8-0.8-2.6-1.1L416.9,806.2z"/>
	<path d="M423.3,818.4v0.8H415v-0.8H423.3z M422.3,814v0.8H416V814H422.3z"/>
	<path d="M423.5,826.3v0.7h-6.8v-0.7h4c0.1-0.8,0.4-2.3,0.5-3h-3.7v-0.7h4l0.1,0l0.7,0.3c0,0-0.1,0.1-0.1,0.1
		c-0.1,0.8-0.4,2.6-0.6,3.4H423.5z"/>
	<path d="M418.6,829.6l1.4,0.1c0,0.1-0.1,0.2-0.3,0.2v6.8h-1.1V829.6z"/>
	<path d="M418,840.7l0.5,0c0,0.1,0,0.2,0,0.3c-0.1,2.8-0.1,3.7-0.4,4c-0.2,0.2-0.4,0.3-1.2,0.3c-0.2,0-0.4,0-0.6,0
		c0-0.2-0.1-0.5-0.3-0.7c0.4,0,0.7,0,0.9,0c0.2,0,0.2,0,0.3-0.1c0.2-0.2,0.2-0.9,0.3-3.1h-1.1c-0.1,1.5-0.4,3-1.4,4
		c-0.2-0.2-0.5-0.4-0.7-0.5c1.1-1.2,1.2-3.2,1.2-5.2h-1.1V839h1.7v-1.3l1.2,0.1c0,0.1-0.1,0.1-0.2,0.1v1.1h1.8v0.7h-2.4
		c0,0.3,0,0.7,0,1.1h1.3L418,840.7z M423.8,839.9h-0.7c-0.2,1.3-0.6,2.4-1.2,3.3c0.5,0.7,1.2,1.2,2.1,1.5c-0.2,0.2-0.5,0.5-0.7,0.7
		c-0.8-0.4-1.5-0.9-2-1.5c-0.6,0.6-1.4,1.1-2.3,1.5c-0.1-0.2-0.3-0.5-0.5-0.7c1-0.4,1.7-0.9,2.3-1.6c-0.4-0.6-0.7-1.3-0.9-2.1
		c-0.2,0.3-0.4,0.5-0.6,0.8c-0.2-0.1-0.5-0.4-0.7-0.5c0.8-0.8,1.3-2.3,1.6-3.8l1.2,0.2c0,0.1-0.1,0.1-0.3,0.1
		c-0.1,0.4-0.2,0.8-0.3,1.2h3.1V839.9z M420.5,839.9L420.5,839.9c0.2,1,0.5,1.8,0.8,2.5c0.4-0.7,0.7-1.5,0.8-2.5H420.5z"/>
	<path d="M416.8,849.3v2.7c0.7,0.9,2.1,0.9,3.6,0.9c1.1,0,2.5,0,3.4-0.1c-0.1,0.2-0.3,0.6-0.3,0.8c-0.7,0-1.7,0-2.6,0
		c-2.3,0-3.6,0-4.5-1c-0.5,0.3-1,0.7-1.4,1c0,0.1,0,0.1-0.1,0.2l-0.5-0.9c0.5-0.2,1-0.5,1.5-0.9v-2h-1.3v-0.7H416.8z M415.3,846.2
		c0.6,0.4,1.4,0.9,1.7,1.3l-0.8,0.5c-0.3-0.4-1.1-1-1.7-1.3L415.3,846.2z M423.7,850h-2.5c0.4,0.9,1.3,1.6,2.6,1.9
		c-0.2,0.2-0.5,0.5-0.6,0.7c-1.2-0.3-2.1-1-2.6-2c-0.4,0.7-1.1,1.4-2.6,1.9c-0.1-0.2-0.4-0.4-0.6-0.6c1.6-0.5,2.2-1.3,2.5-1.9h-2.5
		v-0.7h2.6v-1h-2.3v-0.7h1.2c-0.1-0.4-0.5-0.9-0.8-1.2l0.8-0.3c0.4,0.4,0.8,0.9,0.9,1.3l-0.6,0.2h2.3l-0.4-0.2c0.3-0.4,0.7-1,1-1.4
		l1.1,0.3c0,0.1-0.1,0.1-0.3,0.1c-0.2,0.3-0.6,0.8-0.9,1.1h1.5v0.7h-2.5v1h2.8V850z"/>
</g>
<g>
	<rect x="321.9" y="614.5" class="st2" width="16.2" height="57.6"/>
	<path class="st4" d="M323.4,621.4c0.9,0.4,2.1,1,2.8,1.4l-0.8,1.2c-0.6-0.5-1.8-1.1-2.7-1.5L323.4,621.4z M337.4,620.9h-4.6v1h3.7
		v6.7c0,1.3-0.5,1.4-2.5,1.4c-0.1-0.4-0.2-0.9-0.4-1.2c0.5,0,1,0,1.2,0c0.2,0,0.2-0.1,0.2-0.2v-1.2h-2.2v2.5h-1.4v-2.5h-2.1v2.6
		h-1.4v-8.1h3.6v-1h-4.3v-1.2h4.3v-1.5l0.7,0v-0.8h-3.9v0.9h-1.5v-0.9h-3.7v-1.3h3.7V615l1.9,0.1c0,0.1-0.1,0.2-0.4,0.3v0.8h3.9V615
		l1.9,0.1c0,0.1-0.1,0.2-0.4,0.3v0.8h3.8v1.3h-3.8v0.9h-0.4c0,0.1-0.1,0.1-0.3,0.2v1.1h2.8c-0.5-0.4-1.2-0.8-1.8-1l0.7-0.8
		c0.7,0.3,1.6,0.8,2.1,1.2l-0.5,0.7h1.3V620.9z M323,629c0.7-1,1.6-2.6,2.4-4l1,0.9c-0.6,1.3-1.4,2.8-2,3.7c0.1,0.1,0.1,0.2,0.1,0.3
		c0,0.1,0,0.1-0.1,0.2L323,629z M326,620.9c-0.6-0.5-1.7-1.2-2.6-1.6l0.8-1c0.9,0.4,2.1,0.9,2.6,1.4L326,620.9z M331.3,623.1h-2.1v1
		h2.1V623.1z M329.2,626.3h2.1v-1.1h-2.1V626.3z M335,623.1h-2.2v1h2.2V623.1z M332.8,626.3h2.2v-1.1h-2.2V626.3z"/>
	<path class="st4" d="M323.5,657.7h13.4v13.7h-1.6v-1H325v1h-1.5V657.7z M329.3,659.2H325v4.1h4.3V659.2z M325,664.8v4.1h4.3v-4.1
		H325z M335.3,663.3v-4.1h-4.5v4.1H335.3z M330.8,668.9h4.5v-4.1h-4.5V668.9z"/>
</g>
<g>
	<rect x="322.8" y="707.2" class="st2" width="14.3" height="57.6"/>
	<path class="st4" d="M333.8,718.2h-2.6c0.4,0.3,0.9,0.6,1.5,0.8c0.7-0.4,1.5-0.9,1.9-1.3l1.1,0.7c-0.1,0.1-0.2,0.1-0.3,0.1
		c-0.4,0.3-1,0.6-1.5,0.9c0.8,0.2,1.7,0.3,2.7,0.4c-0.3,0.3-0.6,0.8-0.7,1.1c-1.7-0.2-3.1-0.6-4.3-1.2l0,0.5c-2.2,0.2-4.6,0.3-6,0.4
		c0,0.1-0.1,0.2-0.2,0.2l-0.4-1.3l1.8-0.1v-4.1c-0.7,0.5-1.5,0.9-2.2,1.3c-0.2-0.3-0.6-0.7-0.8-0.9c1.2-0.5,2.5-1.2,3.4-2.2h-3.1v-1
		h5.7v-0.7h-4v-1h4v-0.7h-4.8v-1h2.5c-0.2-0.4-0.4-0.8-0.7-1.1l1.1-0.4c0.4,0.4,0.8,1,1,1.4l-0.1,0h3.2l-0.1,0
		c0.3-0.4,0.6-1,0.8-1.5l1.6,0.5c0,0.1-0.2,0.1-0.3,0.1c-0.2,0.3-0.4,0.6-0.7,0.9h2.5v1h-4.8v0.7h4v1h-4v0.7h5.7v1h-3.2
		c0.9,0.9,2.1,1.6,3.4,1.9c-0.3,0.3-0.7,0.7-0.8,1c-0.8-0.3-1.5-0.6-2.2-1.1V718.2z M332.8,714.4c-0.3-0.3-0.6-0.6-0.9-1h-3.4
		c-0.3,0.3-0.6,0.7-0.9,1h1.9v-0.8l1.6,0.1c0,0.1-0.1,0.2-0.3,0.2v0.4H332.8z M327.9,715.3v0.6h4.5v-0.6H327.9z M327.9,717.3h4.5
		v-0.6h-4.5V717.3z M327.9,718.2v1.1c0.9,0,1.9-0.1,2.9-0.1c-0.4-0.3-0.8-0.6-1.1-1H327.9z"/>
	<path class="st4" d="M336.6,728.2h-5.3c-0.8,0.6-1.6,1.2-2.4,1.7v1.2c1.8-0.5,3.7-1.1,4.9-1.7l1.1,1c-0.1,0.1-0.1,0.1-0.3,0.1
		c-1.4,0.6-3.6,1.2-5.7,1.7v1.1c0,0.5,0.2,0.6,1.2,0.6h3.4c0.9,0,1.1-0.3,1.2-1.9c0.3,0.2,0.9,0.4,1.2,0.5c-0.2,2-0.6,2.6-2.3,2.6
		H330c-2,0-2.5-0.4-2.5-1.8v-2.6c-1,0.6-2.1,1.1-3.2,1.5c-0.2-0.3-0.5-0.8-0.8-1c2-0.8,3.9-1.8,5.6-3h-5.4V727h4.7v-1.8h-3.4V724
		h3.4v-1.9l1.7,0.1c0,0.1-0.1,0.2-0.3,0.2v1.5h3.4v0.7c0.6-0.6,1.1-1.3,1.6-2l1.4,0.8c-0.1,0.1-0.2,0.1-0.3,0.1c0,0-0.1,0-0.1,0
		c-0.9,1.2-1.9,2.3-3,3.4h3.9V728.2z M329.8,727h1c0.7-0.6,1.3-1.1,1.9-1.8h-2.9V727z"/>
	<path class="st4" d="M327.1,747.4c0.7-0.1,1.4-0.2,2.1-0.3l0.1,1.1c-1.9,0.3-3.8,0.7-5,0.9c0,0.1-0.1,0.2-0.2,0.2l-0.4-1.4
		c0.6-0.1,1.4-0.2,2.3-0.3v-3.7h-2.1v-1.1h2.1v-1.3h-1.3v-0.2l-0.2,0.2c-0.2-0.3-0.6-0.7-0.9-0.9c1.2-1.2,2.1-2.7,2.6-3.8l1.5,0.2
		c0,0.1-0.1,0.2-0.3,0.2l0,0.1c0.8,0.7,1.8,1.5,2.3,2.1l-0.8,1.1c-0.4-0.6-1.3-1.4-2.1-2.1c-0.4,0.6-0.8,1.3-1.3,2h3.3v1.1h-1.5v1.3
		h1.9v1.1h-1.9V747.4z M324.6,747.2c-0.1-0.7-0.3-1.8-0.6-2.5l0.9-0.3c0.3,0.8,0.5,1.8,0.6,2.5L324.6,747.2z M329.2,744.7
		c-0.1,0.1-0.2,0.1-0.3,0.1c-0.2,0.6-0.4,1.6-0.7,2.2l-0.8-0.3c0.2-0.6,0.5-1.7,0.6-2.4L329.2,744.7z M336.7,744.2h-2.8
		c0.5,2,1.5,3.7,3,4.6c-0.3,0.2-0.7,0.7-0.9,1.1c-1.4-1-2.3-2.5-2.9-4.4c-0.6,1.6-1.7,3.2-3.8,4.4c-0.2-0.3-0.6-0.8-0.9-1
		c2.4-1.2,3.3-2.9,3.7-4.6h-2.9V743h3c0-0.6,0.1-1.1,0.1-1.6v-0.8h-1.4c-0.2,0.8-0.5,1.5-0.8,2c-0.2-0.2-0.7-0.4-1-0.6
		c0.6-1.1,1-2.9,1.3-4.7l1.5,0.3c0,0.1-0.1,0.2-0.3,0.2c-0.1,0.5-0.2,1-0.3,1.5h1.1v-2.6l1.6,0.1c0,0.1-0.1,0.2-0.3,0.2v2.3h2.5v1.2
		h-2.5v0.8c0,0.5,0,1.1-0.1,1.6h3.1V744.2z"/>
	<path class="st4" d="M326.9,756.8v4.5c1,1.5,2.9,1.5,5.1,1.5c1.6,0,3.6-0.1,4.8-0.1c-0.2,0.3-0.4,1-0.4,1.4c-1,0-2.4,0.1-3.7,0.1
		c-3.2,0-5,0-6.4-1.7c-0.7,0.6-1.3,1.2-1.9,1.6c0,0.2,0,0.2-0.2,0.3l-0.7-1.5c0.6-0.4,1.4-0.9,2.1-1.5V758h-1.8v-1.2H326.9z
		 M324.8,751.6c0.9,0.6,2,1.5,2.5,2.2l-1,0.9c-0.4-0.7-1.5-1.6-2.4-2.3L324.8,751.6z M328.6,755.2h2.2c0.1-0.3,0.2-0.7,0.2-1h-3.6
		v-1.1h2.3c-0.2-0.4-0.6-1-0.9-1.4l1-0.4c0.4,0.5,0.9,1.2,1.1,1.7l-0.4,0.2h2.5l-0.3-0.1c0.4-0.5,0.8-1.3,1-1.8l1.5,0.4
		c-0.1,0.1-0.2,0.2-0.3,0.2c-0.2,0.4-0.6,0.9-1,1.3h2.6v1.1h-4c-0.1,0.3-0.2,0.7-0.4,1h3.2v6.9H334v-0.4h-4.1v0.4h-1.3V755.2z
		 M334,757.1v-0.9h-4.1v0.9H334z M329.9,758v0.9h4.1V758H329.9z M329.9,760.8h4.1v-0.9h-4.1V760.8z"/>
</g>
<g>
	<rect x="234.8" y="614.7" class="st2" width="14.3" height="57.6"/>
	<path class="st0" d="M237.5,618.8v-0.2c-0.3,0.2-0.6,0.4-1,0.6c-0.2-0.3-0.6-0.6-1-0.8c1.9-0.9,3.2-2.2,3.8-3.3l1.6,0.2
		c0,0.1-0.1,0.2-0.3,0.2c-0.1,0.2-0.2,0.3-0.4,0.5h3.6l0.2,0l1,0.5c0,0.1-0.2,0.1-0.3,0.1c-0.3,0.4-0.7,0.9-1.1,1.3h3v4.2h-4.8
		c0.6,0.3,1.3,0.6,1.7,0.9l-0.9,0.8c-0.5-0.4-1.6-1-2.5-1.3l0.4-0.3h-3.5v-0.9h8.3v-0.8h-7.8v-0.8h7.8v-0.7H237.5z M238.8,623
		c-0.4,0.9-1,1.9-2,2.4l-1.1-0.6c1-0.5,1.6-1.3,2-2.1L238.8,623z M242.3,617.8c0.3-0.3,0.6-0.7,0.9-1h-3.6c-0.3,0.3-0.7,0.7-1.1,1
		H242.3z M240.6,624.4c0,0.3,0.1,0.3,0.8,0.3h2.1c0.5,0,0.6-0.1,0.7-1.2c0.3,0.2,0.8,0.3,1.2,0.4c-0.2,1.4-0.5,1.8-1.7,1.8h-2.3
		c-1.5,0-1.9-0.3-1.9-1.3v-1.5l1.6,0.1c0,0.1-0.1,0.2-0.3,0.2V624.4z M247.6,625.4c-0.4-0.7-1.5-1.7-2.5-2.4l1.1-0.5
		c1,0.7,2.1,1.6,2.6,2.3L247.6,625.4z"/>
	<path class="st0" d="M237.7,632.8c-0.4,0.4-0.9,0.8-1.3,1.1c-0.2-0.2-0.6-0.7-0.8-0.9c1.3-0.9,2.9-2.4,3.8-3.8l1.5,0.5
		c-0.1,0.1-0.2,0.1-0.4,0.1c-0.4,0.5-0.9,1.1-1.4,1.6l0.3,0.1c0,0.1-0.1,0.2-0.3,0.2v5.7h-1.3V632.8z M240.3,627.2
		c-0.1,0.1-0.2,0.1-0.4,0.1c-0.9,0.8-2.3,2-3.6,2.7c-0.2-0.2-0.5-0.7-0.7-0.9c1.2-0.6,2.5-1.7,3.2-2.5L240.3,627.2z M248.7,630.7v1
		h-2.1v4.4c0,1.2-0.6,1.3-3.4,1.3c-0.1-0.3-0.2-0.8-0.4-1.1c0.5,0,1.1,0,1.5,0c0.9,0,1,0,1-0.2v-4.4h-4.5v-1H248.7z M248.2,627.4v1
		h-6.9v-1H248.2z"/>
	<path class="st0" d="M248.4,654h-5.2c0.9,2.5,2.6,4.5,5.5,5.3c-0.3,0.2-0.8,0.7-1,1c-2.8-0.9-4.5-2.7-5.5-5.2
		c-0.7,2.1-2.2,4-5.6,5.2c-0.2-0.3-0.6-0.7-1-0.9c3.6-1.2,4.9-3.2,5.4-5.5h-5.2v-1.1h5.4c0.1-1.1,0.1-2.2,0.1-3.2l1.8,0.1
		c0,0.1-0.1,0.2-0.3,0.2c0,0.9,0,1.9-0.2,2.9h5.7V654z"/>
	<path class="st0" d="M240.3,667.6l0.3,0.9c-1.5,0.5-3.1,1.1-4.2,1.4c0,0.1-0.1,0.2-0.2,0.2l-0.6-1.2c0.5-0.1,1.1-0.3,1.9-0.5V665
		h-1.6v-1h1.6v-2.7l1.6,0.1c0,0.1-0.1,0.2-0.3,0.2v2.4h1.5v1h-1.5v3.1L240.3,667.6z M239.1,670.5h9.6v1h-9.6V670.5z M248.5,661.8v1
		h-8.3v-1H248.5z M247.5,669.7h-1.3v-0.4h-3.8v0.5h-1.2v-5.9h6.3V669.7z M246.2,664.8h-3.8v1.3h3.8V664.8z M242.5,668.3h3.8V667
		h-3.8V668.3z"/>
</g>
<g>
	<rect x="322.8" y="427.7" class="st2" width="14.3" height="57.6"/>
	<path class="st4" d="M324.1,430.5c1,0,1.9,0,2.7-0.1c0-0.2,0.1-1.9,0.1-2l1.8,0.1c0,0.1-0.1,0.2-0.4,0.2c-0.1,0.5-0.1,1-0.1,1.5
		l0.7,0.2c-0.3,0.4-0.6,1-0.8,1.6c0,0.1,0,0.2,0,0.3c1.4-1,3-1.6,4.5-1.6c2.2,0,3.2,1.2,3.2,3.4c0,0.7-0.1,1.4-0.3,1.9
		c0.4,0.3,0.8,0.6,1.1,0.9l-0.9,1c-0.2-0.2-0.6-0.6-1-0.8c-0.6,0.7-1.4,1.2-2.7,1.2c-1.4,0-2.3-0.7-2.3-1.7c0-1,1-1.7,2.4-1.7
		c0.8,0,1.5,0.2,2.1,0.5c0.1-0.4,0.2-0.8,0.2-1.3c0-1.4-0.6-2.3-2-2.3c-1.2,0-3,0.6-4.3,1.7c0,0.7,0,4.3,0,5.1h-1.3c0-0.9,0-3,0-4.3
		h0c-0.3,0.6-1.1,1.7-2.1,2.5l-0.8-1c1.1-0.9,2.2-2.2,2.9-3.5c0-0.3,0-0.5,0-0.8c-0.5,0.1-1.4,0.1-2.6,0.1V430.5z M333.8,436.4
		c-0.5-0.4-1.2-0.6-1.8-0.6c-0.7,0-1.3,0.3-1.3,0.8c0,0.5,0.6,0.8,1.3,0.8C333,437.4,333.5,436.9,333.8,436.4z"/>
	<path class="st4" d="M334.9,449.2c-1.2,0.2-2.8,0.2-4.3,0.2c-1.2,0-2.2,0-2.8-0.1c-1.8-0.3-2.5-1.3-2.5-2.3c0-0.9,0.6-1.8,1.4-2.4
		l1.2,0.5c-0.7,0.6-1.1,1.2-1.1,1.8c0,0.6,0.5,1.2,1.6,1.4c0.5,0.1,1.3,0.1,2.1,0.1c1.4,0,3-0.1,4.3-0.3L334.9,449.2z M328.3,443.3
		c0.6-0.4,1.5-0.9,2.1-1.2v0c-0.9,0.1-3.1,0.1-4.4,0.1c0-0.3,0-0.8,0-1.1c1.3,0,4.2,0,5.5-0.1c0.8,0,1.8-0.1,2.6-0.3l0.1,1.2
		c-1.8,0.2-3.8,1.3-4.7,1.9L328.3,443.3z"/>
	<path class="st4" d="M335.5,454.1c0,0.1-0.1,0.1-0.1,0.2c-0.2,3.4-0.6,5.5-1.1,6.2c-0.5,0.6-1.2,0.9-1.9,0.9
		c-0.6,0-1.5-0.1-2.5-0.3c0-0.3,0-0.8-0.1-1.1c1,0.2,2,0.3,2.3,0.3c0.5,0,0.8-0.1,1-0.5c0.4-0.6,0.7-2.4,0.8-4.8h-3.9
		c-0.7,2.5-1.9,4.8-4.5,6.4c-0.3-0.2-0.8-0.5-1.1-0.7c2.4-1.5,3.6-3.5,4.2-5.7h-3.6v-1.1h3.9c0.2-0.8,0.2-1.5,0.3-2.4l1.9,0.1
		c0,0.1-0.2,0.2-0.4,0.2c-0.1,0.8-0.1,1.4-0.3,2h4.1l0.3-0.1L335.5,454.1z"/>
	<path class="st4" d="M335.6,464.5c0,0.1-0.1,0.1-0.2,0.2c-1.2,4.3-3.8,6.9-8.4,8.3c-0.2-0.3-0.7-0.7-0.9-0.9
		c4.3-1.1,6.8-3.6,7.6-6.7h-8.8v-1.1h9.3l0.3-0.1L335.6,464.5z"/>
	<path class="st4" d="M335.4,476.5v0.9h-3.3v4.1h4.1v0.9h-9.4v-0.9h4.1v-4.1h-3.3v-0.9H335.4z"/>
</g>
<g>
	<rect x="278.8" y="428.2" class="st2" width="14.3" height="57.6"/>
	<path class="st4" d="M285.7,434.7c0,0.1-0.1,0.1-0.2,0.1c0,0-0.1,0-0.1,0c-0.3,0.4-0.7,0.9-1.1,1.2c0.4,0.4,0.9,0.9,1,1.1l-0.8,1
		c-0.3-0.4-0.9-1.2-1.4-1.8v5.5h-1.3v-5c-0.5,0.6-1.1,1.1-1.7,1.5c-0.1-0.3-0.5-1-0.7-1.2c1.5-1,3-2.9,3.9-4.7h-3.5v-1.2h2v-2.6
		l1.6,0.1c0,0.1-0.1,0.2-0.3,0.2v2.2h1l0.2-0.1l0.9,0.5c0,0.1-0.1,0.1-0.2,0.2c-0.4,1.1-1,2.2-1.7,3.2c0.1,0.1,0.3,0.3,0.4,0.4
		c0.4-0.5,0.8-1.1,1.1-1.5L285.7,434.7z M291.7,429.8l0.7,0c0,0.1,0,0.3,0,0.5c-0.2,7.4-0.3,9.8-0.8,10.5c-0.4,0.6-0.8,0.8-2.1,0.8
		c-0.4,0-0.7,0-1.1,0c0-0.4-0.2-1-0.4-1.4c0.8,0.1,1.6,0.1,1.9,0.1c0.2,0,0.4-0.1,0.5-0.3c0.4-0.5,0.6-2.8,0.7-9h-2.5
		c-0.1,3.8-0.4,8.3-3.7,10.7c-0.2-0.4-0.6-0.8-1-1c3-2.1,3.3-6,3.3-9.7h-2.3v-1.3H291.7z"/>
	<path class="st4" d="M279.6,446.6v-1.1h5.4v1.1H279.6z M284.5,451.3v4.2h-3.2v0.6h-1.1v-4.8H284.5z M280.3,448.5v-1h4.3v1H280.3z
		 M280.3,450.4v-1h4.3v1H280.3z M284.5,443.7v1h-4.2v-1H284.5z M283.4,452.4h-2v2.1h2V452.4z M287,447.4c0,0.5,0.2,0.6,1,0.6h2.7
		c0.7,0,0.8-0.3,0.9-1.8c0.3,0.2,0.8,0.4,1.2,0.5c-0.2,1.9-0.6,2.5-2,2.5h-2.9c-1.7,0-2.2-0.4-2.2-1.8v-4.3l1.6,0.1
		c0,0.1-0.1,0.2-0.3,0.2v1.8c1.5-0.4,3-0.9,4-1.4l1.1,1c-0.1,0.1-0.1,0.1-0.3,0.1c-1.2,0.5-3,1-4.7,1.4V447.4z M285.9,456.3v-6.2
		h6.1v6.1h-1.3v-0.5h-3.6v0.5H285.9z M290.7,451.2h-3.6v1.1h3.6V451.2z M287.1,454.6h3.6v-1.2h-3.6V454.6z"/>
	<path class="st4" d="M288.2,458.1c-0.1,0.1-0.2,0.2-0.3,0.2c-0.1,0.3-0.2,0.6-0.3,0.9h5.1v1.2h-5.6c-0.1,0.3-0.3,0.6-0.4,0.9h4.8
		v3.6h-4.9v-3.3c-0.2,0.4-0.4,0.7-0.7,1c-0.2-0.2-0.5-0.5-0.8-0.8v4.4h-1.6v2h1.9v1.2h-4.1v0.8h-1.2v-11.7h5.2v1.2h-1.8v1.8h1.6
		c0.7-0.9,1.3-2.4,1.7-3.9L288.2,458.1z M282.3,459.7h-1.1v1.8h1.1V459.7z M283.9,465v-2.3h-2.7v2.3H283.9z M282.3,468.2v-2h-1.1v2
		H282.3z M285.6,470.8v-5.1h3v4.9h-1V470h-1.1v0.8H285.6z M287.6,466.8h-1.1v2.1h1.1V466.8z M287.7,462.4v1.4h2.6v-1.4H287.7z
		 M289.3,470.8v-5h3.1v4.9h-1V470h-1.1v0.7H289.3z M291.4,466.8h-1.1v2.1h1.1V466.8z"/>
	<path class="st4" d="M284.3,473.1v9.5h-3v1.2h-1.2v-10.7H284.3z M283,474.3h-1.7v2.9h1.7V474.3z M281.3,481.4h1.7v-3h-1.7V481.4z
		 M289.3,476.6h3.4v1.2h-8.2v-1.2h3.4V475h-2.9v-1.2h2.9v-1.6l1.6,0.1c0,0.1-0.1,0.2-0.3,0.2v1.3h3v1.2h-3V476.6z M291.5,478.1
		c0,0.1-0.1,0.2-0.3,0.2v1h1.6v1.2h-1.6v3.5c0,1.3-0.5,1.5-3,1.5c-0.1-0.4-0.3-0.9-0.4-1.2c0.4,0,0.8,0,1.1,0c1,0,1,0,1-0.3v-3.5
		h-5.3v-1.2h5.3V478L291.5,478.1z M287,483.9c-0.3-0.7-1-1.7-1.7-2.5l1.1-0.6c0.7,0.7,1.5,1.7,1.8,2.4L287,483.9z"/>
</g>
<g>
	<rect x="365.9" y="427.7" class="st2" width="16.2" height="57.6"/>
	<path class="st4" d="M371.7,431.5l0.8,0.1c0,0.1,0,0.2-0.1,0.3c-0.2,2.8-0.6,5.1-1.3,6.9c0.7,0.6,1.2,1.2,1.6,1.7l-1,1.2
		c-0.3-0.4-0.8-1-1.3-1.5c-0.7,1.3-1.7,2.3-2.8,3c-0.2-0.4-0.6-0.9-0.9-1.2c1.1-0.6,2-1.5,2.6-2.8c-0.4-0.4-0.8-0.7-1.2-1l-0.1,0.6
		l-1.2-0.7c0.4-1.3,0.8-3.2,1.1-5.1h-1.3v-1.4h1.5c0.2-1.2,0.4-2.3,0.5-3.3l1.8,0.2c0,0.1-0.1,0.2-0.4,0.2c-0.1,0.9-0.3,1.9-0.5,2.9
		h1.9L371.7,431.5z M369.3,432.9c-0.3,1.3-0.5,2.5-0.8,3.7c0.5,0.4,1,0.7,1.5,1.2c0.5-1.4,0.8-3,1-4.9H369.3z M381.6,432.9h-2.8
		c0.4,1.3,1,2.2,1.6,2.2c0.3,0,0.4-0.4,0.4-1.3c0.3,0.3,0.7,0.5,1.1,0.6c-0.2,1.6-0.6,2.1-1.6,2.1c-1.4,0-2.4-1.4-2.9-3.5h-2.6v1.8
		l2.8-0.4l0,1.1c-1.6,0.3-3.3,0.6-4.4,0.8c0,0.1-0.1,0.2-0.2,0.2l-0.5-1.6l0.9-0.1V429l0.9,0.2c2-0.2,4.3-0.6,5.5-1.1l1.2,1.1
		c0,0-0.1,0.1-0.2,0.1c0,0-0.1,0-0.1,0c-0.5,0.2-1.2,0.4-1.9,0.5c0,0.1-0.1,0.2-0.3,0.2c0,0.6,0.1,1.2,0.2,1.7h3.1V432.9z
		 M373.4,443.2v-6.5h7.2v6.5h-1.5v-0.6h-4.3v0.6H373.4z M374.7,431.7h2.4c-0.1-0.5-0.1-1-0.2-1.6c-0.7,0.1-1.5,0.2-2.2,0.3V431.7z
		 M379.2,437.9h-4.3v1.2h4.3V437.9z M374.8,441.4h4.3v-1.2h-4.3V441.4z"/>
	<path class="st4" d="M367.4,474.3c1,0.4,2.3,1.1,3,1.6l-0.9,1.3c-0.6-0.6-1.9-1.3-2.9-1.7L367.4,474.3z M367.1,483.6
		c0.8-1.2,2-3.3,2.9-5.2l1.2,1c-0.8,1.7-1.8,3.6-2.5,4.9c0.1,0.1,0.1,0.2,0.1,0.3s0,0.2-0.1,0.2L367.1,483.6z M368.3,469.9
		c1,0.4,2.3,1.1,2.9,1.7l-0.9,1.2c-0.6-0.6-1.9-1.3-2.9-1.8L368.3,469.9z M381.6,476h-4.6v2.4h3.5v6.3H379v-0.6h-5.3v0.7h-1.5v-6.4
		h3.3V476h-4.5v-1.5h4.5v-2.4c-1.2,0.2-2.4,0.4-3.6,0.5c-0.1-0.4-0.3-0.9-0.5-1.3c2.9-0.3,6.2-0.9,8.1-1.6l1.4,1.2
		c-0.1,0.1-0.2,0.1-0.4,0.1c-0.9,0.3-2.1,0.6-3.4,0.9v2.6h4.6V476z M379,482.7v-2.9h-5.3v2.9H379z"/>
</g>
<g>
	<rect x="146.8" y="614.2" class="st2" width="14.3" height="57.6"/>
	<path class="st0" d="M149.5,618.3V618c-0.3,0.2-0.6,0.4-1,0.6c-0.2-0.3-0.6-0.6-1-0.8c1.9-0.9,3.2-2.2,3.8-3.3l1.6,0.2
		c0,0.1-0.1,0.2-0.3,0.2c-0.1,0.2-0.2,0.3-0.4,0.5h3.6l0.2,0l1,0.5c0,0.1-0.2,0.1-0.3,0.1c-0.3,0.4-0.7,0.9-1.1,1.3h3v4.2h-4.8
		c0.6,0.3,1.3,0.6,1.7,0.9l-0.9,0.8c-0.5-0.4-1.6-1-2.5-1.3l0.4-0.3h-3.5v-0.9h8.3v-0.8h-7.8V619h7.8v-0.7H149.5z M150.8,622.5
		c-0.4,0.9-1,1.9-2,2.4l-1.1-0.6c1-0.5,1.6-1.3,2-2.1L150.8,622.5z M154.3,617.3c0.3-0.3,0.6-0.7,0.9-1h-3.6c-0.3,0.3-0.7,0.7-1.1,1
		H154.3z M152.6,623.9c0,0.3,0.1,0.3,0.8,0.3h2.1c0.5,0,0.6-0.1,0.7-1.2c0.3,0.2,0.8,0.3,1.2,0.4c-0.2,1.4-0.5,1.8-1.7,1.8h-2.3
		c-1.5,0-1.9-0.3-1.9-1.3v-1.5l1.6,0.1c0,0.1-0.1,0.2-0.3,0.2V623.9z M159.6,624.9c-0.4-0.7-1.5-1.7-2.5-2.4l1.1-0.5
		c1,0.7,2.1,1.6,2.6,2.3L159.6,624.9z"/>
	<path class="st0" d="M149.7,632.3c-0.4,0.4-0.9,0.8-1.3,1.1c-0.2-0.2-0.6-0.7-0.8-0.9c1.3-0.9,2.9-2.4,3.8-3.8l1.5,0.5
		c-0.1,0.1-0.2,0.1-0.4,0.1c-0.4,0.5-0.9,1.1-1.4,1.6l0.3,0.1c0,0.1-0.1,0.2-0.3,0.2v5.7h-1.3V632.3z M152.3,626.7
		c-0.1,0.1-0.2,0.1-0.4,0.1c-0.9,0.8-2.3,2-3.6,2.7c-0.2-0.2-0.5-0.7-0.7-0.9c1.2-0.6,2.5-1.7,3.2-2.5L152.3,626.7z M160.7,630.2v1
		h-2.1v4.4c0,1.2-0.6,1.3-3.4,1.3c-0.1-0.3-0.2-0.8-0.4-1.1c0.5,0,1.1,0,1.5,0c0.9,0,1,0,1-0.2v-4.4h-4.5v-1H160.7z M160.2,626.9v1
		h-6.9v-1H160.2z"/>
	<path class="st0" d="M160.5,657.1h-4.4c1.2,0.8,3,1.4,4.7,1.7c-0.3,0.2-0.7,0.6-0.9,0.9c-1.8-0.4-3.8-1.3-5.1-2.3v2.5h-1.3v-2.5
		c-1.3,1-3.3,1.9-5.1,2.4c-0.2-0.3-0.6-0.7-0.8-0.9c1.6-0.4,3.4-1,4.6-1.8h-4.3v-0.9h5.6v-0.8l0.8,0c-0.1-0.1-0.3-0.3-0.4-0.4
		c0.7-0.1,1.4-0.2,2-0.4c-0.4-0.1-0.9-0.2-1.3-0.3l0.6-0.6c0.7,0.1,1.4,0.3,2,0.5c0.4-0.2,0.8-0.4,1.1-0.7h-4v-0.8h4.9l0.2,0
		l0.8,0.3c0,0.1-0.1,0.1-0.1,0.1c-0.4,0.6-1,1-1.6,1.4c0.8,0.3,1.5,0.5,2,0.7l-0.8,0.7c-0.6-0.3-1.4-0.6-2.4-0.9
		c-0.8,0.3-1.6,0.5-2.5,0.7v0.5h5.7V657.1z M153.8,652.9c0,0.1-0.1,0.1-0.1,0.1c-0.4,0.6-0.9,1.1-1.5,1.5c0.5,0.2,0.9,0.3,1.2,0.5
		l-0.8,0.7c-0.4-0.2-0.9-0.4-1.5-0.7c-0.9,0.4-1.8,0.7-2.8,0.9c-0.1-0.2-0.4-0.6-0.6-0.7c0.8-0.1,1.5-0.3,2.2-0.6
		c-0.5-0.2-1-0.3-1.5-0.4l0.6-0.6c0.7,0.2,1.4,0.4,2.1,0.6c0.4-0.2,0.7-0.4,1-0.7h-3.9v-0.8h4.7l0.2,0L153.8,652.9z M158.5,649.8
		c0,0-0.1,0.1-0.2,0.1c-0.6,0.5-1.4,1-2.3,1.3c1,0.2,1.8,0.4,2.5,0.7l-0.8,0.7c-0.8-0.3-1.9-0.6-3.1-0.9c-1.5,0.4-3.2,0.7-4.8,0.8
		c-0.1-0.2-0.3-0.6-0.5-0.8c1.2-0.1,2.4-0.3,3.5-0.5c-0.8-0.2-1.6-0.3-2.5-0.4l0.7-0.6c1.2,0.2,2.4,0.4,3.5,0.6
		c0.6-0.2,1.2-0.4,1.7-0.7h-6.4v-0.8h7.7l0.2,0c0.1,0,0.1,0,0.1,0L158.5,649.8z"/>
	<path class="st0" d="M159.7,666.4v5.1h-1.4V671h-5.4v0.4h-1.3v-3.5c-1.1,0.5-2.2,0.9-3.4,1.3c-0.2-0.3-0.5-0.7-0.8-1
		c1.8-0.4,3.6-1.2,5.1-2.1c-0.5-0.5-1.3-1.1-2-1.5l1-0.7c0.7,0.4,1.6,0.9,2.1,1.4c1-0.7,1.8-1.6,2.4-2.5h-4
		c-0.9,0.8-2.1,1.7-3.5,2.4c-0.2-0.3-0.6-0.7-0.9-0.8c2.3-1,3.8-2.5,4.7-3.7l1.7,0.2c0,0.1-0.2,0.2-0.4,0.2
		c-0.2,0.3-0.4,0.5-0.6,0.8h3.9l0.2-0.1l1,0.4c0,0.1-0.1,0.1-0.2,0.1c-0.8,1.6-2,2.9-3.6,4H159.7z M152.9,670h5.4v-2.7h-5.4V670z"/>
</g>
<g>
	<rect x="190.8" y="614.7" class="st2" width="14.3" height="57.6"/>
	<path class="st0" d="M193.5,618.8v-0.2c-0.3,0.2-0.6,0.4-1,0.6c-0.2-0.3-0.6-0.6-1-0.8c1.9-0.9,3.2-2.2,3.8-3.3l1.6,0.2
		c0,0.1-0.1,0.2-0.3,0.2c-0.1,0.2-0.2,0.3-0.4,0.5h3.6l0.2,0l1,0.5c0,0.1-0.2,0.1-0.3,0.1c-0.3,0.4-0.7,0.9-1.1,1.3h3v4.2h-4.8
		c0.6,0.3,1.3,0.6,1.7,0.9l-0.9,0.8c-0.5-0.4-1.6-1-2.5-1.3l0.4-0.3h-3.5v-0.9h8.3v-0.8h-7.8v-0.8h7.8v-0.7H193.5z M194.8,623
		c-0.4,0.9-1,1.9-2,2.4l-1.1-0.6c1-0.5,1.6-1.3,2-2.1L194.8,623z M198.3,617.8c0.3-0.3,0.6-0.7,0.9-1h-3.6c-0.3,0.3-0.7,0.7-1.1,1
		H198.3z M196.6,624.4c0,0.3,0.1,0.3,0.8,0.3h2.1c0.5,0,0.6-0.1,0.7-1.2c0.3,0.2,0.8,0.3,1.2,0.4c-0.2,1.4-0.5,1.8-1.7,1.8h-2.3
		c-1.5,0-1.9-0.3-1.9-1.3v-1.5l1.6,0.1c0,0.1-0.1,0.2-0.3,0.2V624.4z M203.6,625.4c-0.4-0.7-1.5-1.7-2.5-2.4l1.1-0.5
		c1,0.7,2.1,1.6,2.6,2.3L203.6,625.4z"/>
	<path class="st0" d="M193.7,632.8c-0.4,0.4-0.9,0.8-1.3,1.1c-0.2-0.2-0.6-0.7-0.8-0.9c1.3-0.9,2.9-2.4,3.8-3.8l1.5,0.5
		c-0.1,0.1-0.2,0.1-0.4,0.1c-0.4,0.5-0.9,1.1-1.4,1.6l0.3,0.1c0,0.1-0.1,0.2-0.3,0.2v5.7h-1.3V632.8z M196.3,627.2
		c-0.1,0.1-0.2,0.1-0.4,0.1c-0.9,0.8-2.3,2-3.6,2.7c-0.2-0.2-0.5-0.7-0.7-0.9c1.2-0.6,2.5-1.7,3.2-2.5L196.3,627.2z M204.7,630.7v1
		h-2.1v4.4c0,1.2-0.6,1.3-3.4,1.3c-0.1-0.3-0.2-0.8-0.4-1.1c0.5,0,1.1,0,1.5,0c0.9,0,1,0,1-0.2v-4.4h-4.5v-1H204.7z M204.2,627.4v1
		h-6.9v-1H204.2z"/>
	<path class="st0" d="M201.8,658.2h-2.6c0.4,0.3,0.9,0.5,1.5,0.6c0.7-0.3,1.5-0.7,1.9-1.1l1.1,0.6c-0.1,0.1-0.2,0.1-0.3,0.1
		c-0.4,0.2-1,0.5-1.5,0.7c0.8,0.2,1.7,0.3,2.7,0.3c-0.3,0.2-0.6,0.6-0.7,0.9c-1.7-0.2-3.1-0.5-4.3-1l0,0.4c-2.2,0.1-4.6,0.3-6,0.3
		c0,0.1-0.1,0.1-0.2,0.2l-0.4-1.1l1.8-0.1v-3.3c-0.7,0.4-1.5,0.8-2.2,1c-0.2-0.2-0.6-0.6-0.8-0.8c1.2-0.4,2.5-1,3.4-1.8h-3.1v-0.8
		h5.7V653h-4v-0.8h4v-0.6h-4.8v-0.8h2.5c-0.2-0.3-0.4-0.6-0.7-0.9l1.1-0.3c0.4,0.3,0.8,0.8,1,1.2l-0.1,0h3.2l-0.1,0
		c0.3-0.3,0.6-0.8,0.8-1.2l1.6,0.4c0,0.1-0.2,0.1-0.3,0.1c-0.2,0.2-0.4,0.5-0.7,0.7h2.5v0.8h-4.8v0.6h4v0.8h-4v0.6h5.7v0.8h-3.2
		c0.9,0.7,2.1,1.3,3.4,1.6c-0.3,0.2-0.7,0.6-0.8,0.8c-0.8-0.2-1.5-0.5-2.2-0.9V658.2z M200.8,655.2c-0.3-0.3-0.6-0.5-0.9-0.8h-3.4
		c-0.3,0.3-0.6,0.6-0.9,0.8h1.9v-0.6l1.6,0.1c0,0.1-0.1,0.1-0.3,0.2v0.4H200.8z M195.9,655.9v0.5h4.5v-0.5H195.9z M195.9,657.5h4.5
		V657h-4.5V657.5z M195.9,658.2v0.9c0.9,0,1.9-0.1,2.9-0.1c-0.4-0.2-0.8-0.5-1.1-0.8H195.9z"/>
	<path class="st0" d="M204.6,666.1h-5.3c-0.8,0.5-1.6,1-2.4,1.4v1c1.8-0.4,3.7-0.9,4.9-1.4l1.1,0.8c-0.1,0-0.1,0-0.3,0
		c-1.4,0.5-3.6,1-5.7,1.4v0.9c0,0.4,0.2,0.5,1.2,0.5h3.4c0.9,0,1.1-0.2,1.2-1.5c0.3,0.2,0.9,0.3,1.2,0.4c-0.2,1.7-0.6,2.1-2.3,2.1
		H198c-2,0-2.5-0.3-2.5-1.5v-2.1c-1,0.5-2.1,0.9-3.2,1.2c-0.2-0.2-0.5-0.6-0.8-0.8c2-0.6,3.9-1.4,5.6-2.4h-5.4v-1h4.7v-1.4h-3.4v-1
		h3.4v-1.5l1.7,0.1c0,0.1-0.1,0.2-0.3,0.2v1.3h3.4v0.6c0.6-0.5,1.1-1.1,1.6-1.6l1.4,0.6c-0.1,0.1-0.2,0.1-0.3,0.1c0,0-0.1,0-0.1,0
		c-0.9,1-1.9,1.9-3,2.8h3.9V666.1z M197.8,665.1h1c0.7-0.5,1.3-0.9,1.9-1.4h-2.9V665.1z"/>
</g>
<g>
</g>
<g>
</g>
<g>
</g>
<g>
</g>
<g>
</g>
<g>
</g>
<g>
</g>
<g>
</g>
<g>
</g>
<g>
</g>
<g>
</g>
<g>
</g>
<g>
</g>
<g>
</g>
<g>
</g>
<g>
</g>
<g>
</g>
<g>
</g>
</svg>
