<?xml version="1.0" encoding="utf-8"?>
<!-- Generator: Adobe Illustrator 16.0.0, SVG Export Plug-In . SVG Version: 6.00 Build 0)  -->
<!DOCTYPE svg PUBLIC "-//W3C//DTD SVG 1.1//EN" "http://www.w3.org/Graphics/SVG/1.1/DTD/svg11.dtd">
<svg version="1.1" id="レイヤー_1" xmlns="http://www.w3.org/2000/svg" xmlns:xlink="http://www.w3.org/1999/xlink" x="0px"
	 y="0px" width="440px" height="975px" viewBox="0 0 440 975" style="enable-background:new 0 0 440 975;" xml:space="preserve">
<style type="text/css">
<![CDATA[
	.st0{fill:#FF3300;}
	.st1{fill:#FF4600;}
	.st2{fill:#FFFFCC;}
	.st3{fill:none;}
	.st4{fill:#CCCCCC;}
	.st5{fill:#0000FF;}
	.st6{fill:none;stroke:#000000;stroke-width:2;stroke-miterlimit:10;}
	.st7{fill:#DC0000;}
	.st8{fill:#EEEEEE;stroke:#000000;stroke-width:2;stroke-miterlimit:10;}
]]>
</style>
<rect class="st2" width="440" height="975"/>
<rect x="132" y="79" class="st8" width="44" height="72"/>
<rect x="176" y="79" class="st8" width="44" height="72"/>
<rect x="220" y="79" class="st8" width="44" height="72"/>
<rect x="264" y="79" class="st8" width="44" height="72"/>
<rect x="308" y="79" class="st8" width="44" height="72"/>
<rect x="352" y="79" class="st8" width="44" height="72"/>
<g>
	<rect x="365.9" y="86.2" class="st3" width="16.2" height="57.6"/>
	<path d="M374.8,93.9c0.3-0.7,0.6-1.4,0.8-2.1l1.9,0.3c0,0.1-0.2,0.2-0.4,0.2l-0.6,1.5h5.3v1.4h-1.4c-0.4,1.5-0.9,2.6-1.7,3.6
		c1.1,0.6,2.1,1.3,2.8,1.8l-1.2,1.1c-0.6-0.5-1.6-1.2-2.7-1.8c-1.2,0.9-2.8,1.4-4.9,1.8c-0.1-0.4-0.4-1-0.7-1.3
		c1.8-0.2,3.2-0.7,4.2-1.3c-0.5-0.3-1.1-0.6-1.6-0.9l-0.2,0.5l-1.4-0.6c0.4-0.8,0.9-1.8,1.4-2.9h-1.8l0.2,0.3l-0.8,1.1
		c-0.2-0.5-0.8-1.5-1.2-2.3v7.3h-1.4v-7c-0.5,1.6-1.2,3.1-1.9,4c-0.1-0.4-0.5-1-0.7-1.4c1-1.3,2-3.8,2.5-5.9h-2.1v-1.4h2.2v-3.4
		l1.8,0.1c0,0.1-0.1,0.2-0.4,0.3v3.1h1.9v1.4h-1.9v1c0.3,0.4,1,1.4,1.6,2.2v-0.8H374.8z M373.4,87.4c0.6,1.1,1.2,2.6,1.4,3.5
		l-1.4,0.5c-0.2-1-0.7-2.5-1.3-3.6L373.4,87.4z M375.8,95.3c-0.3,0.6-0.5,1.2-0.8,1.7c0.7,0.3,1.5,0.7,2.2,1.1
		c0.7-0.7,1.2-1.7,1.5-2.8H375.8z M376.9,86.9c0.4,1.3,0.7,2.9,0.7,3.9l-1.5,0.2c0-1-0.3-2.6-0.6-3.9L376.9,86.9z M378.2,92
		c0.6-1.3,1.4-3.3,1.8-4.8l1.8,0.7c-0.1,0.1-0.3,0.2-0.4,0.2c-0.4,1.4-1.3,3.3-1.9,4.5L378.2,92z"/>
	<path d="M381.2,112.9h-5.6c1.4,2.6,3.8,5.2,6.2,6.5c-0.4,0.3-0.9,0.9-1.2,1.3c-2.1-1.4-4.2-3.7-5.7-6.2v7.9h-1.6v-7.8
		c-1.5,2.6-3.5,4.9-5.7,6.2c-0.3-0.4-0.8-1-1.1-1.3c2.4-1.3,4.8-4,6.1-6.7h-5.6v-1.5h6.2v-3.9l2,0.1c0,0.1-0.1,0.2-0.4,0.3v3.5h6.3
		V112.9z"/>
	<path d="M374.3,129.1v11.2h-5.8v1.2h-1.3v-12.4H374.3z M370.1,130.4h-1.6v3.5h1.6V130.4z M368.5,135.2v3.7h1.6v-3.7H368.5z
		 M372.9,133.9v-3.5h-1.7v3.5H372.9z M371.3,138.9h1.7v-3.7h-1.7V138.9z M381.7,130.2v1.5h-2.2v9.8c0,1.7-0.8,1.9-4,1.9
		c-0.1-0.4-0.3-1.1-0.5-1.5c0.5,0,1.1,0,1.5,0c1.4,0,1.4,0,1.4-0.4v-9.8h-3.4v-1.5H381.7z"/>
</g>
<g>
	<rect x="190.8" y="86.2" class="st3" width="14.3" height="57.6"/>
	<path d="M192.4,87.6h11.7v12h-1.4v-0.9h-9v0.9h-1.3V87.6z M197.4,88.9h-3.8v3.6h3.8V88.9z M193.7,93.8v3.6h3.8v-3.6H193.7z
		 M202.7,92.5v-3.6h-3.9v3.6H202.7z M198.8,97.4h3.9v-3.6h-3.9V97.4z"/>
	<path d="M192.2,101.8h11.9v12.5h-1.3v-0.6h-9.4v0.6h-1.2V101.8z M193.4,112.5h9.4V103h-9.4V112.5z M201.3,108.8l1,0.6
		c-0.1,0.1-0.2,0.1-0.3,0.1c-0.4,0.3-0.9,0.6-1.5,0.9c0.6,0.3,1.3,0.6,2,0.8c-0.2,0.2-0.5,0.6-0.7,0.9c-1.2-0.4-2.4-1.1-3.3-1.9v2
		h-1.2v-1.8c-0.9,0.6-1.9,1-2.9,1.4c-0.1-0.2-0.5-0.6-0.7-0.8c1.2-0.4,2.6-1,3.6-1.8h-2.3v-2.3h6v2.2L201.3,108.8z M202.2,105.5v0.8
		h-8.1v-0.8h3.4v-0.7h-2.6v-0.8h2.6v-0.8l1.5,0.1c0,0.1-0.1,0.2-0.3,0.2v0.4h2.7v0.8h-2.7v0.7H202.2z M196.2,107.5v0.9h3.8v-0.9
		H196.2z M198.9,109.2L198.9,109.2c0.2,0.3,0.5,0.6,0.9,0.9c0.4-0.3,0.8-0.6,1.2-0.9H198.9z"/>
	<path d="M196.2,119.1h-4.6v-1.1h4.6V119.1z M204.3,127.2c0,0.7-0.1,1.1-0.6,1.3c-0.4,0.2-1.1,0.3-2.2,0.3c0-0.4-0.2-1-0.4-1.3
		c0.4,0,0.7,0,1,0c0.3,0,0.5,0,0.6,0c0.2,0,0.3-0.1,0.3-0.3v-9.8h-5v4c0,2.2-0.2,5.4-1.3,7.5c-0.2-0.2-0.7-0.6-1-0.7l0.1-0.2h-2.6
		v0.6h-1.1v-4.8h3.7v4.2c1-1.9,1.1-4.6,1.1-6.6v-5.2h7.4V127.2z M195.9,121h-3.7v-1h3.7V121z M192.2,121.9h3.7v1h-3.7V121.9z
		 M195.8,117.2h-3.5v-1h3.5V117.2z M194.8,124.9h-1.6v2.1h1.6V124.9z M200,121v-1.2h-1.3v-1h1.3v-1.2l1.4,0.1c0,0.1-0.1,0.2-0.3,0.2
		v0.9h1.3v1h-1.3v1.2h1.5v1h-4v-1H200z M199.7,126.6v0.5h-1v-4.2h3.6v3.7H199.7z M199.7,123.9v1.7h1.6v-1.7H199.7z"/>
	<path d="M204.5,133.6h-7.6c-0.4,0.8-0.8,1.6-1.3,2.4h2.7v-1.8l1.7,0.1c0,0.1-0.1,0.2-0.3,0.2v1.5h4.2v4.5c0,1.3-0.5,1.4-3,1.4
		c-0.1-0.4-0.3-0.9-0.4-1.2c0.5,0,0.9,0,1.3,0c0.8,0,0.8,0,0.8-0.3v-3.2h-2.9v6.1h-1.3v-6.1h-2.6v4.8h-1.3v-4.4
		c-0.6,0.7-1.2,1.2-2,1.8c-0.2-0.3-0.5-0.9-0.8-1.2c1.7-1.1,2.9-2.8,3.8-4.6h-3.4v-1.3h4c0.3-0.7,0.5-1.4,0.7-2.1l1.7,0.4
		c-0.1,0.1-0.2,0.2-0.4,0.2c-0.2,0.5-0.3,1-0.5,1.5h7.1V133.6z"/>
</g>
<g>
	<path class="st6" d="M419,320v45.2c0,5.5-4.9,9.8-10.4,9.8H30.8c-5.5,0-9.8-4.3-9.8-9.8v-87c0-5.5,3.6-10.1,8.3-10.1s8.7,0,8.7,0"
		/>
</g>
<g>
	<path class="st6" d="M109,208V78.1c0-5.5,4.5-10.1,10-10.1h289.6c5.5,0,10.4,4.6,10.4,10.1V175"/>
</g>
<g>
	<path class="st6" d="M109,208v49.5c0,5.5-4.5,10.5-10,10.5H38"/>
</g>
<g>
	<rect x="323.1" y="86.2" class="st3" width="16.2" height="57.6"/>
	<path d="M334.8,90.4h-1.5v-1.1h-4.1v1.1h-0.8c-0.1,0.3-0.2,0.6-0.4,0.9h8.4l0.3,0l0.8,0.1c0,0.1,0,0.3,0,0.5
		c-0.2,6.3-0.4,8.5-0.9,9.1c-0.4,0.6-0.9,0.7-2,0.7c-0.3,0-0.7,0-1.1,0c0-0.4-0.2-1-0.4-1.4l0.3,0c-0.5-0.5-1.6-1.2-2.4-1.8v3h-1.5
		v-3.3c-1.1,1.3-2.6,2.4-3.9,3.1c-0.2-0.4-0.7-0.9-1-1.2c1.4-0.6,2.9-1.7,4-2.8h-3.2v-1.3h1.9c-0.1-0.6-0.6-1.4-1-2.1
		c-0.5,0.7-1,1.3-1.7,1.9c-0.2-0.3-0.8-0.8-1.1-1c1.7-1.4,2.8-3.3,3.3-4.9l0.7,0.1v-0.6h-3.5V88h3.5v-1.3l1.9,0.1
		c0,0.1-0.1,0.2-0.4,0.3V88h4.1v-1.3l1.9,0.1c0,0.1-0.1,0.2-0.4,0.3V88h3.7v1.3h-3.7V90.4z M333.8,100.3c0.5,0,0.9,0,1.1,0
		c0.3,0,0.4,0,0.6-0.3c0.4-0.4,0.5-2.3,0.7-7.4h-8.8c-0.2,0.4-0.5,0.8-0.8,1.2l1.1-0.3c0.5,0.6,0.9,1.5,1.1,2l-1.2,0.4h2v-2.8
		l1.8,0.1c0,0.1-0.1,0.2-0.4,0.3v2.4h1.8c-0.3-0.1-0.7-0.3-0.9-0.4c0.4-0.6,0.9-1.5,1.2-2.2l1.6,0.5c-0.1,0.1-0.2,0.2-0.4,0.2
		c-0.3,0.5-0.8,1.3-1.2,1.9h2v1.3h-3.8c0.8,0.4,2.8,1.6,3.3,2L333.8,100.3z"/>
	<path d="M337.7,136.2v7.1h-1.6v-0.6H330v0.6h-1.5v-4.9c-1.2,0.7-2.5,1.3-3.9,1.7c-0.2-0.4-0.6-1-0.9-1.4c2-0.6,4.1-1.6,5.8-3
		c-0.6-0.7-1.5-1.5-2.3-2l1.1-1c0.8,0.5,1.8,1.3,2.4,2c1.1-1,2-2.2,2.7-3.5h-4.6c-1,1.2-2.4,2.4-4,3.3c-0.2-0.4-0.7-0.9-1.1-1.2
		c2.6-1.4,4.4-3.5,5.3-5.2l2,0.3c0,0.2-0.2,0.2-0.4,0.2c-0.2,0.4-0.5,0.7-0.7,1.1h4.4l0.2-0.1l1.1,0.6c0,0.1-0.1,0.2-0.2,0.2
		c-0.9,2.2-2.3,4.1-4.1,5.6H337.7z M330,141.3h6.2v-3.7H330V141.3z"/>
</g>
<g>
	<rect x="277.9" y="86.2" class="st3" width="16.2" height="57.6"/>
	<path d="M280.9,87.7h10.7v13.7h-1.6v-1h-7.5v1.1h-1.6V87.7z M289.9,89.2h-7.5v4h7.5V89.2z M282.4,98.9h7.5v-4.1h-7.5V98.9z"/>
	<path d="M293.4,132h-6.5v2.1h5.4v1.4h-12.3V134h5.3V132h-6.4v-1.4h6.4v-2.2l2,0.1c0,0.1-0.1,0.2-0.4,0.3v1.9h6.5V132z M281,143.3
		v-6.4h10.2v6.4h-1.6v-0.6h-7.2v0.6H281z M289.7,138.3h-7.2v3h7.2V138.3z"/>
</g>
<g>
	<rect x="233.9" y="86.2" class="st3" width="16.2" height="57.6"/>
	<path d="M240.9,94.2c0,0.1-0.2,0.2-0.4,0.3c-0.4,3-1,5.7-4.9,7.2c-0.2-0.4-0.6-1-0.9-1.2c3.5-1.2,4-3.6,4.2-6.4L240.9,94.2z
		 M245,99.5c0,0.6,0.1,0.7,0.7,0.7h1.8c0.6,0,0.7-0.4,0.8-2.8c0.3,0.3,1,0.5,1.4,0.6c-0.2,2.8-0.5,3.6-2,3.6h-2.2
		c-1.6,0-2-0.5-2-2.1v-5.6H235v-1.5h14.4v1.5H245V99.5z M247.9,87.8v1.5h-11.5v-1.5H247.9z"/>
	<path d="M236.7,113.8c-0.5,0.8-1.1,1.5-1.6,2.2c-0.1-0.4-0.5-1.1-0.7-1.5c1.5-1.6,2.9-4.3,3.8-6.9l1.7,0.6
		c-0.1,0.1-0.2,0.2-0.4,0.2c-0.4,1.1-0.9,2.1-1.4,3.2l0.5,0.1c0,0.1-0.1,0.2-0.4,0.2v10.6h-1.5V113.8z M245.3,120.5h4.4v1.5h-10.5
		v-1.5h4.5v-3.7h-3.6v-1.4h3.6v-3.2h-4.1v-1.5h5.2c-0.8-0.7-2.1-1.5-3.1-2.1l1-1.1c1.2,0.7,2.8,1.7,3.6,2.4l-0.7,0.8h3.9v1.5h-4.2
		v3.2h3.7v1.4h-3.7V120.5z"/>
	<path d="M249.4,132h-6.5v2.1h5.4v1.4h-12.3V134h5.3V132h-6.4v-1.4h6.4v-2.2l2,0.1c0,0.1-0.1,0.2-0.4,0.3v1.9h6.5V132z M237,143.3
		v-6.4h10.2v6.4h-1.6v-0.6h-7.2v0.6H237z M245.7,138.3h-7.2v3h7.2V138.3z"/>
</g>
<g>
	<rect x="145.9" y="86.2" class="st3" width="16.2" height="57.6"/>
	<path d="M147.4,91.2c1,0.4,2.3,1.1,3,1.6l-0.9,1.3c-0.6-0.6-1.9-1.3-2.9-1.7L147.4,91.2z M147.1,100.5c0.8-1.2,2-3.3,2.9-5.2l1.2,1
		c-0.8,1.7-1.8,3.6-2.5,4.9c0.1,0.1,0.1,0.2,0.1,0.3s0,0.2-0.1,0.2L147.1,100.5z M148.3,86.8c1,0.4,2.3,1.1,2.9,1.7l-0.9,1.2
		c-0.6-0.6-1.9-1.3-2.9-1.8L148.3,86.8z M157.4,92.1h4.3v1.4h-10.8v-1.4h1.8v-4.1l1.8,0.1c0,0.1-0.1,0.2-0.4,0.3v3.7h1.8v-5.4
		l1.9,0.1c0,0.1-0.1,0.2-0.4,0.3v1.8h3.6v1.4h-3.6V92.1z M150.9,100.2c1.1-0.6,2.8-1.5,4.4-2.5l0.5,1.3c-1.3,0.9-2.8,1.8-3.7,2.3
		c0,0.1,0,0.3-0.1,0.3L150.9,100.2z M152.9,93.9c0.9,0.7,2,1.7,2.5,2.5l-1.2,0.9c-0.5-0.7-1.5-1.8-2.4-2.6L152.9,93.9z M160.5,101.7
		c-0.8-0.8-2.5-2.1-3.9-2.9l1-1c1.3,0.8,3.1,2,3.9,2.8L160.5,101.7z M157.1,96.5c0.9-0.7,2-1.9,2.7-2.8l1.6,1.1
		c-0.1,0.1-0.2,0.1-0.4,0.1c-0.7,0.8-1.8,1.8-2.7,2.4L157.1,96.5z"/>
	<path d="M149.6,137.3c-0.7,0.5-1.3,0.9-2,1.3c-0.2-0.4-0.6-0.9-0.9-1.2c2.8-1.4,5.4-3.9,6.6-6l2,0.1c0,0.1-0.2,0.3-0.4,0.3
		c1.5,2.2,4.3,4.4,6.8,5.5c-0.4,0.4-0.7,0.9-1,1.3c-0.6-0.4-1.3-0.8-2-1.2v5.9h-1.6v-0.6h-6.1v0.6h-1.5V137.3z M152.9,129.3
		c-0.1,0.1-0.2,0.2-0.4,0.1c-1.1,1.5-2.7,3-4.2,4c-0.3-0.3-0.8-0.8-1.1-1c1.5-0.9,3.1-2.4,4-3.8L152.9,129.3z M157.9,136.7
		c-1.5-1.2-2.9-2.5-3.8-3.8c-0.8,1.2-2.1,2.6-3.7,3.8H157.9z M151.1,141.3h6.1v-3.3h-6.1V141.3z M156.6,128.6
		c1.5,1.1,3.5,2.7,4.4,3.8l-1.3,0.9c-0.8-1.1-2.7-2.8-4.3-3.9L156.6,128.6z"/>
</g>
<rect x="132" y="172" class="st8" width="44" height="72"/>
<rect x="176" y="172" class="st8" width="44" height="72"/>
<rect x="220" y="172" class="st8" width="44" height="72"/>
<rect x="264" y="172" class="st8" width="44" height="72"/>
<rect x="308" y="172" class="st8" width="44" height="72"/>
<rect x="352" y="172" class="st8" width="44" height="72"/>
<g>
	<rect x="365.9" y="179.2" class="st3" width="16.2" height="57.6"/>
	<path d="M374.8,182.6h5.9v7.8h-1.6v-0.9h-4.3v5.2h-1.6v-5.2h-4.2v1h-1.5v-7.9h5.7v-2.8l2,0.1c0,0.1-0.1,0.2-0.4,0.3V182.6z
		 M369.1,188h4.2v-4h-4.2V188z M374.8,188h4.3v-4h-4.3V188z"/>
	<path d="M368.6,201.6h11.1v13.9H378v-1.1h-7.9v1.1h-1.5V201.6z M378,203.1h-7.9v2.3h7.9V203.1z M378,206.8h-7.9v2.4h7.9V206.8z
		 M370.1,212.9h7.9v-2.4h-7.9V212.9z"/>
	<path d="M370.1,233.3c-0.4,1.1-1.1,2.3-1.9,3l-1.4-0.7c0.8-0.6,1.5-1.6,1.8-2.7L370.1,233.3z M381.4,231.3v1.3h-14.5v-1.3h6.4v-1.1
		h-5.1v-1.2h5.1v-1h-4.7v-6.1h11.1v6.1h-4.9v1h5.4v1.2h-5.4v1.1H381.4z M370.1,223v1.3h3.2V223H370.1z M370.1,226.8h3.2v-1.3h-3.2
		V226.8z M371.7,236.2c0-0.7-0.1-1.8-0.2-2.7l1.4-0.1c0.2,0.8,0.3,2,0.3,2.6L371.7,236.2z M375.5,236.2c-0.1-0.7-0.5-1.8-0.8-2.7
		l1.4-0.3c0.4,0.8,0.8,1.9,0.9,2.6L375.5,236.2z M378.2,224.3V223h-3.4v1.3H378.2z M378.2,226.8v-1.3h-3.4v1.3H378.2z M380,236.3
		c-0.4-0.8-1.2-2-2-2.8l1.4-0.5c0.8,0.8,1.7,2,2.1,2.8L380,236.3z"/>
</g>
<g>
	<rect x="233.9" y="179.2" class="st3" width="16.2" height="57.6"/>
	<path d="M240.6,184.5c0,0.1-0.2,0.2-0.4,0.3c-0.6,3.4-1.7,7.6-4.3,10c-0.3-0.3-0.9-0.9-1.3-1.1c2.5-2.2,3.5-6.1,3.9-9.5
		L240.6,184.5z M238.1,180.9h7c0.4,5.3,1.5,10.2,4.5,12.5c-0.4,0.3-1.1,0.8-1.5,1.2c-2.9-2.5-4-7.1-4.5-12.1h-5.6V180.9z"/>
	<path d="M249.3,201.9v1.6H243v10.1c0,1.8-0.8,2-4.5,2c-0.1-0.5-0.4-1.2-0.7-1.6c0.8,0,1.7,0,2.3,0c1.1,0,1.3,0,1.3-0.5v-10H235
		v-1.6H249.3z"/>
	<path d="M239.4,230.6l0.3,1.3c-1.5,0.6-3.1,1.3-4.2,1.7c0,0.1-0.1,0.2-0.2,0.3l-0.7-1.7c0.6-0.2,1.2-0.4,2-0.6v-4.9h-1.7v-1.4h1.7
		v-3.7l1.8,0.1c0,0.1-0.1,0.2-0.4,0.2v3.4h1.5v1.4h-1.5v4.5L239.4,230.6z M249.1,226.3h-7.5v1.2c0,2.6-0.3,6.3-2.4,8.6
		c-0.2-0.3-0.8-0.8-1.1-0.9c1.9-2.1,2.1-5.2,2.1-7.7v-5.6h9V226.3z M247.6,223.2h-6.1v1.8h6.1V223.2z M247.8,231.6l1.7,0.1
		c0,0.1-0.1,0.2-0.3,0.3v4.3h-1.3v-0.7h-4.6v0.7h-1.3v-4.7l1.6,0.1c0,0.1-0.1,0.2-0.3,0.3v2.4h1.6v-3.5h-2.6v-3.7l1.6,0.1
		c0,0.1-0.1,0.2-0.4,0.2v2.2h1.4v-3.1l1.7,0.1c0,0.1-0.1,0.2-0.3,0.3v2.8h1.5v-2.5l1.6,0.1c0,0.1-0.1,0.2-0.4,0.2v3.4h-2.7v3.5h1.6
		V231.6z"/>
</g>
<g>
	<rect x="145.9" y="179.2" class="st3" width="16.2" height="57.6"/>
	<path d="M151.1,183.7V180l2,0.1c0,0.1-0.1,0.2-0.4,0.3v14.2h-1.6V191c-1.3,0.6-2.6,1.1-3.6,1.5c0,0.1-0.1,0.3-0.2,0.3l-0.8-1.7
		c1.1-0.4,2.8-1,4.5-1.6v-4.3h-4v-1.5H151.1z M156.6,191.8c0,0.9,0.1,1,0.8,1h2.1c0.7,0,0.8-0.7,0.9-3.3c0.4,0.3,1,0.6,1.5,0.7
		c-0.2,3-0.6,4.1-2.2,4.1h-2.4c-1.6,0-2.1-0.6-2.1-2.5V180l2,0.1c0,0.1-0.1,0.2-0.4,0.3v4.8c1.4-0.8,2.8-1.9,3.7-2.7l1.2,1.4
		c-0.1,0.1-0.2,0.1-0.4,0.1c-1.2,0.9-2.9,1.9-4.5,2.8V191.8z"/>
	<path d="M161.4,206.9v1.5h-6.5v7.1h-1.6v-7.1h-6.4v-1.5h6.4v-3.5c-1.7,0.2-3.4,0.4-5.1,0.6c0-0.4-0.3-1-0.4-1.4
		c3.9-0.4,8.3-1,10.8-1.8l1.3,1.4c-0.1,0-0.1,0.1-0.2,0.1c0,0-0.1,0-0.2,0c-1.2,0.4-2.7,0.7-4.4,0.9l0.2,0c0,0.1-0.1,0.2-0.4,0.3
		v3.5H161.4z"/>
	<path d="M148.7,227.6c-0.5,0.8-1.1,1.5-1.6,2.2c-0.1-0.4-0.5-1.1-0.7-1.5c1.5-1.6,2.9-4.3,3.8-6.9l1.7,0.6
		c-0.1,0.1-0.2,0.2-0.4,0.2c-0.4,1.1-0.9,2.1-1.4,3.2l0.5,0.1c0,0.1-0.1,0.2-0.4,0.2v10.6h-1.5V227.6z M157.3,234.3h4.4v1.5h-10.5
		v-1.5h4.5v-3.7h-3.6v-1.4h3.6v-3.2h-4.1v-1.5h5.2c-0.8-0.7-2.1-1.5-3.1-2.1l1-1.1c1.2,0.7,2.8,1.7,3.6,2.4l-0.7,0.8h3.9v1.5h-4.2
		v3.2h3.7v1.4h-3.7V234.3z"/>
</g>
<rect x="132" y="421" class="st8" width="44" height="72"/>
<rect x="176" y="421" class="st8" width="44" height="72"/>
<rect x="220" y="421" class="st8" width="44" height="72"/>
<rect x="264" y="421" class="st8" width="44" height="72"/>
<rect x="308" y="421" class="st8" width="44" height="72"/>
<rect x="352" y="421" class="st8" width="44" height="72"/>
<g>
	<rect x="198" y="428.5" class="st3" width="14.3" height="57.6"/>
	<path class="st5" d="M200.7,429.8h9.3v12h-1.4V441h-6.6v0.9h-1.4V429.8z M208.7,431.2h-6.6v3.5h6.6V431.2z M202.1,439.6h6.6V436
		h-6.6V439.6z"/>
	<path class="st5" d="M202,449.1v5.2c1.1-0.2,2.3-0.4,3.4-0.6l0.1,1.2c-2.2,0.5-4.5,1-6,1.3c0,0.1-0.1,0.2-0.2,0.2l-0.6-1.6
		c0.5-0.1,1.2-0.2,1.9-0.3v-10.9l1.7,0.1c0,0.1-0.1,0.2-0.3,0.2v3.8h3v1.3H202z M207.3,454.2c0,0.8,0.1,0.9,0.7,0.9h1.9
		c0.6,0,0.7-0.5,0.8-2.5c0.3,0.2,0.9,0.5,1.2,0.6c-0.2,2.4-0.5,3.2-1.9,3.2h-2.2c-1.5,0-1.9-0.5-1.9-2.2v-10.5l1.7,0.1
		c0,0.1-0.1,0.2-0.3,0.2v4.5c1.2-0.6,2.5-1.3,3.3-1.9l1.1,1.2c-0.1,0.1-0.2,0.1-0.3,0.1c-1,0.6-2.6,1.3-4,1.9V454.2z"/>
	<path class="st5" d="M201.4,466c-0.6,0.4-1.2,0.8-1.8,1.1c-0.2-0.3-0.5-0.8-0.8-1.1c2.4-1.2,4.7-3.4,5.8-5.3l1.8,0.1
		c0,0.1-0.1,0.2-0.3,0.2c1.3,1.9,3.8,3.8,5.9,4.8c-0.3,0.3-0.6,0.8-0.9,1.2c-0.6-0.3-1.1-0.7-1.7-1.1v5.2H208v-0.5h-5.4v0.6h-1.3
		V466z M204.3,458.9c-0.1,0.1-0.2,0.1-0.4,0.1c-0.9,1.3-2.4,2.6-3.7,3.5c-0.2-0.3-0.7-0.7-1-0.9c1.3-0.8,2.7-2.1,3.5-3.3
		L204.3,458.9z M208.6,465.4c-1.3-1-2.5-2.2-3.3-3.3c-0.7,1.1-1.9,2.3-3.2,3.3H208.6z M202.7,469.4h5.4v-2.9h-5.4V469.4z
		 M207.5,458.3c1.3,1,3,2.3,3.8,3.3l-1.1,0.8c-0.7-1-2.4-2.4-3.7-3.4L207.5,458.3z"/>
	<path class="st5" d="M200.7,481.1c0,0.1-0.2,0.2-0.3,0.2c-0.2,1.2-0.5,2.5-0.9,3.3c-0.2-0.2-0.7-0.4-1-0.5c0.4-0.8,0.6-2.1,0.8-3.3
		L200.7,481.1z M203.4,480.5c-0.1-0.2-0.1-0.5-0.3-0.8l-1,0.1v5.9H201v-5.8c-0.7,0-1.3,0.1-1.8,0.1c0,0.1-0.1,0.2-0.2,0.2l-0.3-1.4
		l1,0c0.3-0.3,0.5-0.7,0.8-1.1c-0.4-0.6-1.1-1.4-1.7-2l0.7-0.9c0.1,0.1,0.3,0.2,0.4,0.4c0.4-0.8,0.9-1.8,1.2-2.6l1.3,0.6
		c-0.1,0.1-0.2,0.1-0.3,0.1c-0.4,0.8-1,1.9-1.5,2.7c0.3,0.3,0.5,0.5,0.6,0.8c0.5-0.9,1.1-1.7,1.4-2.5l1.3,0.6
		c-0.1,0.1-0.2,0.1-0.4,0.1c-0.7,1.1-1.7,2.7-2.7,3.8l1.9,0c-0.2-0.4-0.4-0.9-0.7-1.2l1-0.4c0.6,0.9,1.2,2.1,1.4,2.9L203.4,480.5z
		 M203.4,480.7c0.4,0.8,0.7,1.8,0.9,2.5c-0.3,0.1-0.6,0.2-1.1,0.4c-0.1-0.7-0.5-1.7-0.8-2.5L203.4,480.7z M206.5,480.2l0.7,0.3
		c0,0.1-0.1,0.1-0.1,0.2c-0.5,2.2-1.5,3.8-2.9,4.6c-0.2-0.3-0.6-0.7-0.8-0.9c1.1-0.6,1.9-1.6,2.4-3H204v-1.1h2.2L206.5,480.2z
		 M208.5,479.1c0,0.5,0.5,1.6,0.7,2.1c0.6-0.5,1.2-1.1,1.6-1.6c1.1,0.8,1.1,0.9,1.2,0.9c-0.1,0.1-0.2,0.1-0.4,0.1
		c-0.5,0.4-1.2,1.1-1.9,1.5c0.6,0.8,1.4,1.6,2.4,2c-0.3,0.2-0.6,0.7-0.8,1.1c-1.3-0.7-2.2-1.9-2.8-3.1v2.3c0,1.2-0.4,1.3-2.4,1.3
		c0-0.3-0.2-0.8-0.3-1.1c0.3,0,0.6,0,0.8,0c0.7,0,0.7,0,0.7-0.2v-5.2h-2.7V474h2.1c0.2-0.5,0.4-1,0.6-1.5l1.6,0.4
		c0,0.1-0.2,0.2-0.3,0.2c-0.1,0.3-0.3,0.6-0.5,0.9h3.2v5.1H208.5z M205.8,475.1v1h4.3v-1H205.8z M205.8,477.1v1h4.3v-1H205.8z"/>
</g>
<rect x="44" y="421" class="st8" width="44" height="72"/>
<rect x="88" y="421" class="st8" width="44" height="72"/>
<g>
	<rect x="58.8" y="428.2" class="st3" width="14.3" height="57.6"/>
	<path d="M71.4,432.2c-0.1,0.1-0.2,0.1-0.3,0.1c-0.3,0.6-0.8,1.4-1.2,1.9h2.8v1.1H59.8v-1.1h2.5c-0.2-0.6-0.6-1.5-1-2.1l1.1-0.4
		c0.5,0.6,0.9,1.5,1.1,2.2l-0.9,0.4h1.6v-2.6h-3.5v-1.1h2.7c-0.3-0.5-0.6-1-1-1.5l1.1-0.5c0.5,0.5,1.1,1.3,1.3,1.9l-0.2,0.1h3.4
		c-0.1,0-0.2-0.1-0.3-0.1c0.4-0.5,0.9-1.3,1.2-1.9l1.6,0.6c-0.1,0.1-0.2,0.1-0.4,0.1c-0.3,0.4-0.6,0.9-1,1.3h2.9v1.1h-3.8v2.6h1.4
		l-0.8-0.3c0.4-0.6,0.9-1.6,1.2-2.2L71.4,432.2z M62,441.8v-5.6h8.4v5.5H69v-0.4h-5.7v0.5H62z M69,437.2h-5.7v1H69V437.2z
		 M63.3,440.2H69v-1.1h-5.7V440.2z M65.4,431.7v2.6h1.5v-2.6H65.4z"/>
	<path d="M62.9,477.8v4.6c0.9,1.5,2.8,1.5,5.3,1.5c1.6,0,3.5,0,4.8-0.1c-0.2,0.3-0.4,0.9-0.4,1.3c-1,0-2.6,0.1-4.1,0.1
		c-3.1,0-4.8,0-6.1-1.7c-0.7,0.6-1.4,1.2-2,1.6c0,0.1,0,0.2-0.2,0.3l-0.7-1.4c0.6-0.4,1.4-1,2.1-1.5V479h-2v-1.2H62.9z M60.8,472.5
		c0.9,0.6,2,1.6,2.5,2.2l-1,1c-0.4-0.7-1.5-1.7-2.4-2.4L60.8,472.5z M65.5,480.9v2.3h-1.2v-7.3h3.7c-0.8-0.4-1.6-0.7-2.4-1l0.9-0.7
		c0.6,0.2,1.2,0.4,1.8,0.7c0.5-0.3,1.1-0.6,1.6-1h-5.5v-1h6.8l0.2-0.1l1,0.6c-0.1,0.1-0.2,0.1-0.3,0.1c-0.7,0.6-1.6,1.3-2.6,1.8
		c0.4,0.2,0.7,0.4,1,0.5h1.8v6.1c0,1.1-0.5,1.3-2.4,1.3c0-0.3-0.2-0.8-0.4-1.1c0.4,0,0.7,0,0.9,0c0.5,0,0.6,0,0.6-0.2v-1h-2.1v2.2
		h-1.2v-2.2H65.5z M67.5,476.8h-2.1v1h2.1V476.8z M65.5,479.9h2.1v-1.1h-2.1V479.9z M70.9,477.8v-1h-2.1v1H70.9z M68.7,479.9h2.1
		v-1.1h-2.1V479.9z"/>
</g>
<g>
	<rect x="101.9" y="428.2" class="st3" width="16.2" height="57.6"/>
	<path class="st7" d="M104.8,433.8v-0.3c-0.4,0.3-0.7,0.5-1.1,0.8c-0.2-0.4-0.7-0.9-1.1-1.1c2.1-1.3,3.6-3.1,4.4-4.6l1.9,0.3
		c0,0.1-0.2,0.2-0.4,0.2c-0.1,0.2-0.3,0.5-0.4,0.7h4.1l0.2-0.1l1.2,0.7c0,0.1-0.2,0.1-0.3,0.2c-0.3,0.5-0.8,1.2-1.3,1.9h3.4v5.9H110
		c0.7,0.4,1.5,0.8,1.9,1.2l-1,1.1c-0.6-0.6-1.8-1.4-2.9-1.8l0.5-0.5h-4v-1.3h9.4v-1.1h-8.9v-1.2h8.9v-1H104.8z M106.3,439.8
		c-0.4,1.3-1.1,2.6-2.3,3.4l-1.3-0.9c1.1-0.7,1.9-1.8,2.2-3L106.3,439.8z M110.3,432.6c0.4-0.4,0.7-0.9,1-1.4h-4.1
		c-0.4,0.5-0.8,1-1.3,1.4H110.3z M108.4,441.7c0,0.4,0.1,0.5,0.9,0.5h2.4c0.6,0,0.7-0.2,0.8-1.7c0.3,0.2,0.9,0.4,1.3,0.5
		c-0.2,2-0.6,2.5-2,2.5h-2.6c-1.8,0-2.2-0.4-2.2-1.8v-2.2l1.8,0.1c0,0.1-0.1,0.2-0.4,0.3V441.7z M116.3,443.2
		c-0.5-0.9-1.7-2.4-2.8-3.3l1.3-0.7c1.1,0.9,2.4,2.3,2.9,3.3L116.3,443.2z"/>
	<path class="st7" d="M105.1,478.8c-0.5,0.6-1,1.1-1.5,1.5c-0.2-0.3-0.7-0.9-1-1.2c1.5-1.2,3.3-3.3,4.4-5.3l1.7,0.7
		c-0.1,0.1-0.2,0.2-0.4,0.1c-0.4,0.8-1,1.5-1.6,2.3l0.3,0.1c0,0.1-0.1,0.2-0.4,0.3v8h-1.5V478.8z M108,471c-0.1,0.1-0.2,0.2-0.4,0.1
		c-1,1.2-2.7,2.8-4.1,3.8c-0.2-0.3-0.6-0.9-0.8-1.2c1.3-0.9,2.9-2.3,3.7-3.5L108,471z M117.6,475.9v1.4h-2.4v6.1
		c0,1.6-0.7,1.8-3.9,1.8c-0.1-0.4-0.3-1.1-0.5-1.5c0.6,0,1.2,0,1.7,0c1,0,1.1,0,1.1-0.3v-6.1h-5.2v-1.4H117.6z M117,471.3v1.5h-7.9
		v-1.5H117z"/>
</g>
<g>
	<rect x="183.7" y="428.5" class="st3" width="14.3" height="57.6"/>
	<path class="st5" d="M188.2,432.4h2c0.1-0.3,0.1-0.6,0.1-1h-5.5v-1.2h5.6c0-0.5,0.1-0.9,0.1-1.3l1.8,0.2c0,0.1-0.2,0.2-0.4,0.2
		c0,0.3-0.1,0.6-0.1,0.9h5.4v1.2h-5.6c-0.1,0.4-0.1,0.7-0.2,1h4.2v6.7h-7.5V432.4z M197.4,440.2v1.2h-10.6v0.7h-1.3v-9.3l1.6,0.1
		c0,0.1-0.1,0.2-0.3,0.2v7H197.4z M194.4,434.4v-1h-5v1H194.4z M194.4,436.3v-1h-5v1H194.4z M194.4,438.2v-1h-5v1H194.4z"/>
	<path class="st5" d="M187.7,478.1v4.6c0.9,1.5,2.8,1.5,5.3,1.5c1.6,0,3.5,0,4.8-0.1c-0.2,0.3-0.4,0.9-0.4,1.3c-1,0-2.6,0.1-4.1,0.1
		c-3.1,0-4.8,0-6.1-1.7c-0.7,0.6-1.4,1.2-2,1.6c0,0.1,0,0.2-0.2,0.3l-0.7-1.4c0.6-0.4,1.4-1,2.1-1.5v-3.4h-2v-1.2H187.7z
		 M185.6,472.9c0.9,0.6,2,1.6,2.5,2.2l-1,1c-0.4-0.7-1.5-1.7-2.4-2.4L185.6,472.9z M190.3,481.2v2.3h-1.2v-7.3h3.7
		c-0.8-0.4-1.6-0.7-2.4-1l0.9-0.7c0.6,0.2,1.2,0.4,1.8,0.7c0.5-0.3,1.1-0.6,1.6-1h-5.5v-1h6.8l0.2-0.1l1,0.6
		c-0.1,0.1-0.2,0.1-0.3,0.1c-0.7,0.6-1.6,1.3-2.6,1.8c0.4,0.2,0.7,0.4,1,0.5h1.8v6.1c0,1.1-0.5,1.3-2.4,1.3c0-0.3-0.2-0.8-0.4-1.1
		c0.4,0,0.7,0,0.9,0c0.5,0,0.6,0,0.6-0.2v-1h-2.1v2.2h-1.2v-2.2H190.3z M192.4,477.1h-2.1v1h2.1V477.1z M190.3,480.2h2.1v-1.1h-2.1
		V480.2z M195.7,478.1v-1h-2.1v1H195.7z M193.6,480.2h2.1v-1.1h-2.1V480.2z"/>
</g>
<g>
	<rect x="189.9" y="179.5" class="st3" width="16.2" height="57.6"/>
	<path d="M205.4,183.1h-6.5v1.5h5.7v8.8c0,1.5-0.6,1.6-3.6,1.6c-0.1-0.4-0.3-1-0.5-1.3c0.5,0,1.1,0,1.5,0c0.9,0,1,0,1-0.4V186h-9.7
		v9h-1.5v-10.4h5.5v-1.5h-6.4v-1.4h6.4V180l2,0.1c0,0.1-0.1,0.2-0.4,0.3v1.3h6.5V183.1z M202.2,192.1h-3.4v2.9h-1.4v-2.9h-3.2v-1.2
		h3.2v-1.4h-3v-1.2h1.5c-0.2-0.5-0.5-1.2-0.7-1.6l1.2-0.3c0.4,0.5,0.7,1.3,0.8,1.8l-0.5,0.2h2.8c-0.2,0-0.3-0.1-0.4-0.1
		c0.3-0.5,0.6-1.3,0.8-1.9l1.6,0.4c0,0.1-0.2,0.2-0.4,0.2c-0.2,0.4-0.5,1-0.8,1.4h1.8v1.2h-3.2v1.4h3.4V192.1z"/>
	<path d="M205.4,207.2v1.5h-6.5v7.1h-1.6v-7.1h-6.4v-1.5h6.4v-3.5c-1.7,0.2-3.4,0.4-5.1,0.6c0-0.4-0.3-1-0.4-1.4
		c3.9-0.4,8.3-1,10.8-1.8l1.3,1.4c-0.1,0-0.1,0.1-0.2,0.1c0,0-0.1,0-0.2,0c-1.2,0.4-2.7,0.7-4.4,0.9l0.2,0c0,0.1-0.1,0.2-0.4,0.3
		v3.5H205.4z"/>
	<path d="M192.7,228c-0.5,0.8-1.1,1.5-1.6,2.2c-0.1-0.4-0.5-1.1-0.7-1.5c1.5-1.6,2.9-4.3,3.8-6.9l1.7,0.6c-0.1,0.1-0.2,0.2-0.4,0.2
		c-0.4,1.1-0.9,2.1-1.4,3.2l0.5,0.1c0,0.1-0.1,0.2-0.4,0.2v10.6h-1.5V228z M201.3,234.6h4.4v1.5h-10.5v-1.5h4.5v-3.7h-3.6v-1.4h3.6
		v-3.2h-4.1v-1.5h5.2c-0.8-0.7-2.1-1.5-3.1-2.1l1-1.1c1.2,0.7,2.8,1.7,3.6,2.4l-0.7,0.8h3.9v1.5h-4.2v3.2h3.7v1.4h-3.7V234.6z"/>
</g>
<rect x="44" y="514" class="st8" width="44" height="72"/>
<rect x="88" y="514" class="st8" width="44" height="72"/>
<rect x="132" y="514" class="st8" width="44" height="72"/>
<rect x="176" y="514" class="st8" width="44" height="72"/>
<rect x="220" y="514" class="st8" width="44" height="72"/>
<rect x="264" y="514" class="st8" width="44" height="72"/>
<g>
	<rect x="277.9" y="521.2" class="st3" width="16.2" height="57.6"/>
	<path d="M286.8,528.9c0.3-0.7,0.6-1.4,0.8-2.1l1.9,0.3c0,0.1-0.2,0.2-0.4,0.2l-0.6,1.5h5.3v1.4h-1.4c-0.4,1.5-0.9,2.6-1.7,3.6
		c1.1,0.6,2.1,1.3,2.8,1.8l-1.2,1.1c-0.6-0.5-1.6-1.2-2.7-1.8c-1.2,0.9-2.8,1.4-4.9,1.8c-0.1-0.4-0.4-1-0.7-1.3
		c1.8-0.2,3.2-0.7,4.2-1.3c-0.5-0.3-1.1-0.6-1.6-0.9l-0.2,0.5l-1.4-0.6c0.4-0.8,0.9-1.8,1.4-2.9h-1.8l0.2,0.3l-0.8,1.1
		c-0.2-0.5-0.8-1.5-1.2-2.3v7.3h-1.4v-7c-0.5,1.6-1.2,3.1-1.9,4c-0.1-0.4-0.5-1-0.7-1.4c1-1.3,2-3.8,2.5-5.9h-2.1v-1.4h2.2v-3.4
		l1.8,0.1c0,0.1-0.1,0.2-0.4,0.3v3.1h1.9v1.4h-1.9v1c0.3,0.4,1,1.4,1.6,2.2v-0.8H286.8z M285.4,522.4c0.6,1.1,1.2,2.6,1.4,3.5
		l-1.4,0.5c-0.2-1-0.7-2.5-1.3-3.6L285.4,522.4z M287.8,530.3c-0.3,0.6-0.5,1.2-0.8,1.7c0.7,0.3,1.5,0.7,2.2,1.1
		c0.7-0.7,1.2-1.7,1.5-2.8H287.8z M288.9,521.9c0.4,1.3,0.7,2.9,0.7,3.9l-1.5,0.2c0-1-0.3-2.6-0.6-3.9L288.9,521.9z M290.2,527
		c0.6-1.3,1.4-3.3,1.8-4.8l1.8,0.7c-0.1,0.1-0.3,0.2-0.4,0.2c-0.4,1.4-1.3,3.3-1.9,4.5L290.2,527z"/>
	<path d="M293.2,547.9h-5.6c1.4,2.6,3.8,5.2,6.2,6.5c-0.4,0.3-0.9,0.9-1.2,1.3c-2.1-1.4-4.2-3.7-5.7-6.2v7.9h-1.6v-7.8
		c-1.5,2.6-3.5,4.9-5.7,6.2c-0.3-0.4-0.8-1-1.1-1.3c2.4-1.3,4.8-4,6.1-6.7h-5.6v-1.5h6.2v-3.9l2,0.1c0,0.1-0.1,0.2-0.4,0.3v3.5h6.3
		V547.9z"/>
	<path d="M286.3,564.1v11.2h-5.8v1.2h-1.3v-12.4H286.3z M282.1,565.4h-1.6v3.5h1.6V565.4z M280.5,570.2v3.7h1.6v-3.7H280.5z
		 M284.9,568.9v-3.5h-1.7v3.5H284.9z M283.3,573.9h1.7v-3.7h-1.7V573.9z M293.7,565.2v1.5h-2.2v9.8c0,1.7-0.8,1.9-4,1.9
		c-0.1-0.4-0.3-1.1-0.5-1.5c0.5,0,1.1,0,1.5,0c1.4,0,1.4,0,1.4-0.4v-9.8h-3.4v-1.5H293.7z"/>
</g>
<g>
	<rect x="102.8" y="521.2" class="st3" width="14.3" height="57.6"/>
	<path d="M104.4,522.6h11.7v12h-1.4v-0.9h-9v0.9h-1.3V522.6z M109.4,523.9h-3.8v3.6h3.8V523.9z M105.7,528.8v3.6h3.8v-3.6H105.7z
		 M114.7,527.5v-3.6h-3.9v3.6H114.7z M110.8,532.4h3.9v-3.6h-3.9V532.4z"/>
	<path d="M104.2,536.8h11.9v12.5h-1.3v-0.6h-9.4v0.6h-1.2V536.8z M105.4,547.5h9.4V538h-9.4V547.5z M113.3,543.8l1,0.6
		c-0.1,0.1-0.2,0.1-0.3,0.1c-0.4,0.3-0.9,0.6-1.5,0.9c0.6,0.3,1.3,0.6,2,0.8c-0.2,0.2-0.5,0.6-0.7,0.9c-1.2-0.4-2.4-1.1-3.3-1.9v2
		h-1.2v-1.8c-0.9,0.6-1.9,1-2.9,1.4c-0.1-0.2-0.5-0.6-0.7-0.8c1.2-0.4,2.6-1,3.6-1.8h-2.3v-2.3h6v2.2L113.3,543.8z M114.2,540.5v0.8
		h-8.1v-0.8h3.4v-0.7h-2.6v-0.8h2.6v-0.8l1.5,0.1c0,0.1-0.1,0.2-0.3,0.2v0.4h2.7v0.8h-2.7v0.7H114.2z M108.2,542.5v0.9h3.8v-0.9
		H108.2z M110.9,544.2L110.9,544.2c0.2,0.3,0.5,0.6,0.9,0.9c0.4-0.3,0.8-0.6,1.2-0.9H110.9z"/>
	<path d="M108.2,554.1h-4.6v-1.1h4.6V554.1z M116.3,562.2c0,0.7-0.1,1.1-0.6,1.3c-0.4,0.2-1.1,0.3-2.2,0.3c0-0.4-0.2-1-0.4-1.3
		c0.4,0,0.7,0,1,0c0.3,0,0.5,0,0.6,0c0.2,0,0.3-0.1,0.3-0.3v-9.8h-5v4c0,2.2-0.2,5.4-1.3,7.5c-0.2-0.2-0.7-0.6-1-0.7l0.1-0.2h-2.6
		v0.6h-1.1v-4.8h3.7v4.2c1-1.9,1.1-4.6,1.1-6.6v-5.2h7.4V562.2z M107.9,556h-3.7v-1h3.7V556z M104.2,556.9h3.7v1h-3.7V556.9z
		 M107.8,552.2h-3.5v-1h3.5V552.2z M106.8,559.9h-1.6v2.1h1.6V559.9z M112,556v-1.2h-1.3v-1h1.3v-1.2l1.4,0.1c0,0.1-0.1,0.2-0.3,0.2
		v0.9h1.3v1h-1.3v1.2h1.5v1h-4v-1H112z M111.7,561.6v0.5h-1v-4.2h3.6v3.7H111.7z M111.7,558.9v1.7h1.6v-1.7H111.7z"/>
	<path d="M116.5,568.6h-7.6c-0.4,0.8-0.8,1.6-1.3,2.4h2.7v-1.8l1.7,0.1c0,0.1-0.1,0.2-0.3,0.2v1.5h4.2v4.5c0,1.3-0.5,1.4-3,1.4
		c-0.1-0.4-0.3-0.9-0.4-1.2c0.5,0,0.9,0,1.3,0c0.8,0,0.8,0,0.8-0.3v-3.2h-2.9v6.1h-1.3v-6.1h-2.6v4.8h-1.3v-4.4
		c-0.6,0.7-1.2,1.2-2,1.8c-0.2-0.3-0.5-0.9-0.8-1.2c1.7-1.1,2.9-2.8,3.8-4.6h-3.4v-1.3h4c0.3-0.7,0.5-1.4,0.7-2.1l1.7,0.4
		c-0.1,0.1-0.2,0.2-0.4,0.2c-0.2,0.5-0.3,1-0.5,1.5h7.1V568.6z"/>
</g>
<g>
	<rect x="235.1" y="521.2" class="st3" width="16.2" height="57.6"/>
	<path d="M246.8,525.4h-1.5v-1.1h-4.1v1.1h-0.8c-0.1,0.3-0.2,0.6-0.4,0.9h8.4l0.3,0l0.8,0.1c0,0.1,0,0.3,0,0.5
		c-0.2,6.3-0.4,8.5-0.9,9.1c-0.4,0.6-0.9,0.7-2,0.7c-0.3,0-0.7,0-1.1,0c0-0.4-0.2-1-0.4-1.4l0.3,0c-0.5-0.5-1.6-1.2-2.4-1.8v3h-1.5
		v-3.3c-1.1,1.3-2.6,2.4-3.9,3.1c-0.2-0.4-0.7-0.9-1-1.2c1.4-0.6,2.9-1.7,4-2.8h-3.2v-1.3h1.9c-0.1-0.6-0.6-1.4-1-2.1
		c-0.5,0.7-1,1.3-1.7,1.9c-0.2-0.3-0.8-0.8-1.1-1c1.7-1.4,2.8-3.3,3.3-4.9l0.7,0.1v-0.6h-3.5V523h3.5v-1.3l1.9,0.1
		c0,0.1-0.1,0.2-0.4,0.3v0.9h4.1v-1.3l1.9,0.1c0,0.1-0.1,0.2-0.4,0.3v0.9h3.7v1.3h-3.7V525.4z M245.8,535.3c0.5,0,0.9,0,1.1,0
		c0.3,0,0.4,0,0.6-0.3c0.4-0.4,0.5-2.3,0.7-7.4h-8.8c-0.2,0.4-0.5,0.8-0.8,1.2l1.1-0.3c0.5,0.6,0.9,1.5,1.1,2l-1.2,0.4h2v-2.8
		l1.8,0.1c0,0.1-0.1,0.2-0.4,0.3v2.4h1.8c-0.3-0.1-0.7-0.3-0.9-0.4c0.4-0.6,0.9-1.5,1.2-2.2l1.6,0.5c-0.1,0.1-0.2,0.2-0.4,0.2
		c-0.3,0.5-0.8,1.3-1.2,1.9h2v1.3h-3.8c0.8,0.4,2.8,1.6,3.3,2L245.8,535.3z"/>
	<path d="M249.7,571.2v7.1h-1.6v-0.6H242v0.6h-1.5v-4.9c-1.2,0.7-2.5,1.3-3.9,1.7c-0.2-0.4-0.6-1-0.9-1.4c2-0.6,4.1-1.6,5.8-3
		c-0.6-0.7-1.5-1.5-2.3-2l1.1-1c0.8,0.5,1.8,1.3,2.4,2c1.1-1,2-2.2,2.7-3.5h-4.6c-1,1.2-2.4,2.4-4,3.3c-0.2-0.4-0.7-0.9-1.1-1.2
		c2.6-1.4,4.4-3.5,5.3-5.2l2,0.3c0,0.2-0.2,0.2-0.4,0.2c-0.2,0.4-0.5,0.7-0.7,1.1h4.4l0.2-0.1l1.1,0.6c0,0.1-0.1,0.2-0.2,0.2
		c-0.9,2.2-2.3,4.1-4.1,5.6H249.7z M242,576.3h6.2v-3.7H242V576.3z"/>
</g>
<g>
	<rect x="189.9" y="521.2" class="st3" width="16.2" height="57.6"/>
	<path d="M192.9,522.7h10.7v13.7h-1.6v-1h-7.5v1.1h-1.6V522.7z M201.9,524.2h-7.5v4h7.5V524.2z M194.4,533.9h7.5v-4.1h-7.5V533.9z"
		/>
	<path d="M205.4,567h-6.5v2.1h5.4v1.4h-12.3V569h5.3V567h-6.4v-1.4h6.4v-2.2l2,0.1c0,0.1-0.1,0.2-0.4,0.3v1.9h6.5V567z M193,578.3
		v-6.4h10.2v6.4h-1.6v-0.6h-7.2v0.6H193z M201.7,573.3h-7.2v3h7.2V573.3z"/>
</g>
<g>
	<rect x="145.9" y="521.2" class="st3" width="16.2" height="57.6"/>
	<path d="M152.9,529.2c0,0.1-0.2,0.2-0.4,0.3c-0.4,3-1,5.7-4.9,7.2c-0.2-0.4-0.6-1-0.9-1.2c3.5-1.2,4-3.6,4.2-6.4L152.9,529.2z
		 M157,534.5c0,0.6,0.1,0.7,0.7,0.7h1.8c0.6,0,0.7-0.4,0.8-2.8c0.3,0.3,1,0.5,1.4,0.6c-0.2,2.8-0.5,3.6-2,3.6h-2.2
		c-1.6,0-2-0.5-2-2.1v-5.6H147v-1.5h14.4v1.5H157V534.5z M159.9,522.8v1.5h-11.5v-1.5H159.9z"/>
	<path d="M148.7,548.8c-0.5,0.8-1.1,1.5-1.6,2.2c-0.1-0.4-0.5-1.1-0.7-1.5c1.5-1.6,2.9-4.3,3.8-6.9l1.7,0.6
		c-0.1,0.1-0.2,0.2-0.4,0.2c-0.4,1.1-0.9,2.1-1.4,3.2l0.5,0.1c0,0.1-0.1,0.2-0.4,0.2v10.6h-1.5V548.8z M157.3,555.5h4.4v1.5h-10.5
		v-1.5h4.5v-3.7h-3.6v-1.4h3.6v-3.2h-4.1v-1.5h5.2c-0.8-0.7-2.1-1.5-3.1-2.1l1-1.1c1.2,0.7,2.8,1.7,3.6,2.4l-0.7,0.8h3.9v1.5h-4.2
		v3.2h3.7v1.4h-3.7V555.5z"/>
	<path d="M161.4,567h-6.5v2.1h5.4v1.4h-12.3V569h5.3V567h-6.4v-1.4h6.4v-2.2l2,0.1c0,0.1-0.1,0.2-0.4,0.3v1.9h6.5V567z M149,578.3
		v-6.4h10.2v6.4h-1.6v-0.6h-7.2v0.6H149z M157.7,573.3h-7.2v3h7.2V573.3z"/>
</g>
<g>
	<rect x="57.9" y="521.2" class="st3" width="16.2" height="57.6"/>
	<path d="M59.4,526.2c1,0.4,2.3,1.1,3,1.6l-0.9,1.3c-0.6-0.6-1.9-1.3-2.9-1.7L59.4,526.2z M59.1,535.5c0.8-1.2,2-3.3,2.9-5.2l1.2,1
		c-0.8,1.7-1.8,3.6-2.5,4.8c0.1,0.1,0.1,0.2,0.1,0.3s0,0.2-0.1,0.2L59.1,535.5z M60.3,521.8c1,0.4,2.3,1.1,2.9,1.7l-0.9,1.2
		c-0.6-0.6-1.9-1.3-2.9-1.8L60.3,521.8z M69.4,527.1h4.3v1.4H62.8v-1.4h1.8v-4.1l1.8,0.1c0,0.1-0.1,0.2-0.4,0.3v3.7h1.8v-5.4
		l1.9,0.1c0,0.1-0.1,0.2-0.4,0.3v1.8H73v1.4h-3.6V527.1z M62.9,535.2c1.1-0.6,2.8-1.5,4.4-2.5l0.5,1.3c-1.3,0.9-2.8,1.8-3.7,2.3
		c0,0.1,0,0.3-0.1,0.3L62.9,535.2z M64.9,528.9c0.9,0.7,2,1.7,2.5,2.5l-1.2,0.9c-0.5-0.7-1.5-1.8-2.4-2.6L64.9,528.9z M72.5,536.7
		c-0.8-0.8-2.5-2.1-3.9-2.9l1-1c1.3,0.8,3.1,2,3.9,2.8L72.5,536.7z M69.1,531.5c0.9-0.7,2-1.9,2.7-2.8l1.6,1.1
		c-0.1,0.1-0.2,0.1-0.4,0.1c-0.7,0.8-1.8,1.8-2.7,2.4L69.1,531.5z"/>
	<path d="M61.6,572.3c-0.7,0.5-1.3,0.9-2,1.3c-0.2-0.4-0.6-0.9-0.9-1.2c2.8-1.4,5.4-3.9,6.6-6l2,0.1c0,0.1-0.2,0.3-0.4,0.3
		c1.5,2.2,4.3,4.4,6.8,5.5c-0.4,0.4-0.7,0.9-1,1.3c-0.6-0.4-1.3-0.8-2-1.2v5.9h-1.6v-0.6h-6.1v0.6h-1.5V572.3z M64.9,564.3
		c-0.1,0.1-0.2,0.2-0.4,0.1c-1.1,1.5-2.7,3-4.2,4c-0.3-0.3-0.8-0.8-1.1-1c1.5-0.9,3.1-2.4,4-3.8L64.9,564.3z M69.9,571.7
		c-1.5-1.2-2.9-2.5-3.8-3.8c-0.8,1.2-2.1,2.6-3.7,3.8H69.9z M63.1,576.3h6.1v-3.3h-6.1V576.3z M68.6,563.6c1.5,1.1,3.5,2.7,4.4,3.8
		l-1.3,0.9c-0.8-1.1-2.7-2.8-4.3-3.9L68.6,563.6z"/>
</g>
<rect x="308" y="514" class="st8" width="44" height="72"/>
<rect x="352" y="514" class="st8" width="44" height="72"/>
<g>
	<rect x="321.9" y="521.2" class="st3" width="16.2" height="57.6"/>
	<path d="M327.1,525.7V522l2,0.1c0,0.1-0.1,0.2-0.4,0.3v14.2h-1.6V533c-1.3,0.6-2.6,1.1-3.6,1.5c0,0.1-0.1,0.3-0.2,0.3l-0.8-1.7
		c1.1-0.4,2.8-1,4.5-1.6v-4.3h-4v-1.5H327.1z M332.6,533.8c0,0.9,0.1,1,0.8,1h2.1c0.7,0,0.8-0.7,0.9-3.3c0.4,0.3,1,0.6,1.5,0.7
		c-0.2,3-0.6,4.1-2.2,4.1h-2.4c-1.6,0-2.1-0.6-2.1-2.5V522l2,0.1c0,0.1-0.1,0.2-0.4,0.3v4.8c1.4-0.8,2.8-1.9,3.7-2.7l1.2,1.4
		c-0.1,0.1-0.2,0.1-0.4,0.1c-1.2,0.9-2.9,1.9-4.5,2.8V533.8z"/>
	<path d="M337.4,548.9v1.5h-6.5v7.1h-1.6v-7.1h-6.4v-1.5h6.4v-3.5c-1.7,0.2-3.4,0.4-5.1,0.6c0-0.4-0.3-1-0.4-1.4
		c3.9-0.4,8.3-1,10.8-1.8l1.3,1.4c-0.1,0-0.1,0.1-0.2,0.1c0,0-0.1,0-0.2,0c-1.2,0.4-2.7,0.7-4.4,0.9l0.2,0c0,0.1-0.1,0.2-0.4,0.3
		v3.5H337.4z"/>
	<path d="M324.7,569.6c-0.5,0.8-1.1,1.5-1.6,2.2c-0.1-0.4-0.5-1.1-0.7-1.5c1.5-1.6,2.9-4.3,3.8-6.9l1.7,0.6
		c-0.1,0.1-0.2,0.2-0.4,0.2c-0.4,1.1-0.9,2.1-1.4,3.2l0.5,0.1c0,0.1-0.1,0.2-0.4,0.2v10.6h-1.5V569.6z M333.3,576.3h4.4v1.5h-10.5
		v-1.5h4.5v-3.7h-3.6v-1.4h3.6v-3.2h-4.1v-1.5h5.2c-0.8-0.7-2.1-1.5-3.1-2.1l1-1.1c1.2,0.7,2.8,1.7,3.6,2.4l-0.7,0.8h3.9v1.5h-4.2
		v3.2h3.7v1.4h-3.7V576.3z"/>
</g>
<g>
	<rect x="365.9" y="521.5" class="st3" width="16.2" height="57.6"/>
	<path d="M381.4,525.1h-6.5v1.5h5.7v8.8c0,1.5-0.6,1.6-3.6,1.6c-0.1-0.4-0.3-1-0.5-1.3c0.5,0,1.1,0,1.5,0c0.9,0,1,0,1-0.4V528h-9.7
		v9h-1.5v-10.4h5.5v-1.5h-6.4v-1.4h6.4V522l2,0.1c0,0.1-0.1,0.2-0.4,0.3v1.3h6.5V525.1z M378.2,534.1h-3.4v2.9h-1.4v-2.9h-3.2v-1.2
		h3.2v-1.4h-3v-1.2h1.5c-0.2-0.5-0.5-1.2-0.7-1.6l1.2-0.3c0.4,0.5,0.7,1.3,0.8,1.8l-0.5,0.2h2.8c-0.2,0-0.3-0.1-0.4-0.1
		c0.3-0.5,0.6-1.3,0.8-1.9l1.6,0.4c0,0.1-0.2,0.2-0.4,0.2c-0.2,0.4-0.5,1-0.8,1.4h1.8v1.2h-3.2v1.4h3.4V534.1z"/>
	<path d="M381.4,549.2v1.5h-6.5v7.1h-1.6v-7.1h-6.4v-1.5h6.4v-3.5c-1.7,0.2-3.4,0.4-5.1,0.6c0-0.4-0.3-1-0.4-1.4
		c3.9-0.4,8.3-1,10.8-1.8l1.3,1.4c-0.1,0-0.1,0.1-0.2,0.1c0,0-0.1,0-0.2,0c-1.2,0.4-2.7,0.7-4.4,0.9l0.2,0c0,0.1-0.1,0.2-0.4,0.3
		v3.5H381.4z"/>
	<path d="M368.7,570c-0.5,0.8-1.1,1.5-1.6,2.2c-0.1-0.4-0.5-1.1-0.7-1.5c1.5-1.6,2.9-4.3,3.8-6.9l1.7,0.6c-0.1,0.1-0.2,0.2-0.4,0.2
		c-0.4,1.1-0.9,2.1-1.4,3.2l0.5,0.1c0,0.1-0.1,0.2-0.4,0.2v10.6h-1.5V570z M377.3,576.6h4.4v1.5h-10.5v-1.5h4.5v-3.7h-3.6v-1.4h3.6
		v-3.2h-4.1v-1.5h5.2c-0.8-0.7-2.1-1.5-3.1-2.1l1-1.1c1.2,0.7,2.8,1.7,3.6,2.4l-0.7,0.8h3.9v1.5h-4.2v3.2h3.7v1.4h-3.7V576.6z"/>
</g>
<line class="st6" x1="419" y1="175" x2="419" y2="321"/>
<g>
	<rect x="159.4" y="13.5" class="st3" width="121.2" height="24"/>
	<path d="M175.1,24.1c0.4,1.4,1,2.6,1.8,3.7c1.4-0.9,3.2-2.1,4.3-3l1.3,1c-0.1,0.1-0.3,0.1-0.5,0.1c-1.2,0.9-2.9,2-4.5,2.8
		c1.5,1.8,3.5,3.1,6.1,3.8c-0.3,0.3-0.7,0.8-0.9,1.2c-4.6-1.4-7.5-4.7-9-9.4c-1,0.9-2.3,1.8-3.6,2.6l0.4,0.1c0,0.1-0.1,0.2-0.4,0.3
		v4.3l6-0.9l0.1,1.2c-3.3,0.6-6.8,1.2-9,1.5c0,0.2-0.1,0.3-0.3,0.3l-0.7-1.6c0.7-0.1,1.5-0.2,2.4-0.3v-4.1c-1.3,0.7-2.6,1.2-3.8,1.6
		c-0.2-0.3-0.6-0.9-0.9-1.2c2.8-0.8,6-2.3,8.2-4.1h-7.9v-1.2h8.8v-2.1h-6.4v-1.2h6.4v-2h-7.6v-1.2h7.6v-2.1l1.8,0.1
		c0,0.1-0.1,0.3-0.4,0.3v1.7h7.9v1.2h-7.9v2h6.7v1.2h-6.7v2.1h8.9v1.2H175.1z"/>
	<path d="M192.6,25.3c-0.1,0.1-0.2,0.2-0.5,0.2c-1,2.4-2.6,4.9-4.2,6.4c-0.3-0.3-0.8-0.6-1.2-0.8c1.6-1.4,3.2-3.9,4.1-6.4
		L192.6,25.3z M206.3,22.5h-8.7v9.4c0,0.9-0.2,1.4-0.9,1.6c-0.7,0.2-1.9,0.2-3.8,0.2c-0.1-0.4-0.3-1-0.5-1.4c0.9,0,1.7,0,2.4,0
		c1.4,0,1.4,0,1.4-0.5v-9.4h-8.6v-1.4h18.7V22.5z M204.4,15.8v1.4h-14.9v-1.4H204.4z M205.2,31.8c-0.6-1.8-2.2-4.6-3.8-6.6l1.3-0.6
		c1.6,2,3.3,4.7,3.9,6.5L205.2,31.8z"/>
	<path d="M218.2,17.8V19h-8v-1.2H218.2z M217.5,26.4v6.2h-5.1v1h-1.3v-7.2H217.5z M211.2,21.8v-1.2h6.3v1.2H211.2z M211.2,24.7v-1.2
		h6.3v1.2H211.2z M217.5,15v1.2h-6.1V15H217.5z M216.2,27.6h-3.8v3.8h3.8V27.6z M221.3,16.2v1.3c0,1.8-0.5,4.1-2.7,5.5
		c-0.2-0.3-0.7-0.8-1-0.9c2.1-1.3,2.4-3.1,2.4-4.6v-2.6h6.6v5.3c0,0.5,0.1,0.5,0.4,0.5h1.2c0.4,0,0.5-0.3,0.5-2.4
		c0.3,0.2,0.8,0.4,1.2,0.5c-0.1,2.5-0.5,3.1-1.6,3.1h-1.5c-1.2,0-1.6-0.4-1.6-1.8v-4H221.3z M227.8,23.4l0.9,0.4
		c0,0.1-0.1,0.2-0.2,0.2c-0.7,2.5-2,4.5-3.6,6.1c1.4,1.1,3.1,1.9,5,2.4c-0.3,0.3-0.7,0.9-0.9,1.2c-2-0.6-3.7-1.5-5.2-2.7
		c-1.6,1.3-3.5,2.2-5.5,2.7c-0.1-0.4-0.5-0.9-0.8-1.2c1.9-0.5,3.7-1.3,5.2-2.4c-1.3-1.4-2.4-3-3.1-4.9l1.3-0.4
		c0.7,1.7,1.6,3.1,2.9,4.4c1.3-1.2,2.3-2.7,3-4.4h-8.3v-1.3h9L227.8,23.4z"/>
	<path d="M243.8,27.2v4.6c1.1,0.2,2.3,0.3,3.7,0.3c0.7,0,4.4,0,5.4,0c-0.2,0.4-0.5,1-0.5,1.4h-4.9c-4.5,0-7.8-0.8-9.7-4.5
		c-0.8,2.1-1.8,3.8-3.3,4.9c-0.2-0.3-0.7-0.7-1.1-0.9c2.3-1.7,3.5-4.9,4-8.8l1.8,0.3c0,0.1-0.2,0.3-0.4,0.3
		c-0.1,0.8-0.3,1.7-0.5,2.5c0.9,2.4,2.3,3.6,4.2,4.3v-9.2H237v-1.3h12.3v1.3h-5.5v3.7h6.4v1.3H243.8z M235.7,18.1v3.2h-1.4v-4.5h8
		v-2.6l1.9,0.1c0,0.1-0.1,0.3-0.4,0.3v2.2h8.1v4.5h-1.4v-3.2H235.7z"/>
	<path d="M275.7,24h-6.1c1.7,1.5,4.2,2.8,6.7,3.4c-0.3,0.3-0.7,0.8-0.9,1.2c-0.5-0.1-1-0.3-1.5-0.5v5.7h-1.3V33h-4.1v0.8h-1.3v-6.9
		h4.2c-1.4-0.8-2.7-1.8-3.6-2.9h-3.3c-1,1.1-2.2,2.1-3.7,2.9h4.3v6.8h-1.3V33h-4.1v0.8h-1.3V28c-0.5,0.2-0.9,0.4-1.4,0.5
		c-0.2-0.3-0.6-0.8-0.9-1c2.6-0.9,4.8-2,6.4-3.5h-6v-1.3h7.2c0.4-0.5,0.8-1.1,1.1-1.7h-6.8v-5.8h6.8v5.7l0.2-0.4l1.7,0.5
		c0,0.1-0.2,0.2-0.5,0.2c-0.3,0.5-0.5,1-0.9,1.5h10.2V24z M263.7,19.9v-3.5h-4.2v3.5H263.7z M263.8,31.7v-3.6h-4.1v3.6H263.8z
		 M274.3,15.2V21h-6.9v-5.8H274.3z M268.5,31.7h4.1v-3.6h-4.1V31.7z M272.9,19.9v-3.5h-4.2v3.5H272.9z"/>
</g>
<rect x="44" y="292" class="st8" width="44" height="72"/>
<rect x="88" y="292" class="st8" width="44" height="72"/>
<rect x="132" y="292" class="st8" width="44" height="72"/>
<rect x="176" y="292" class="st8" width="44" height="72"/>
<rect x="220" y="292" class="st8" width="44" height="72"/>
<rect x="264" y="292" class="st8" width="44" height="72"/>
<g>
	<rect x="235.1" y="299.2" class="st3" width="16.2" height="57.6"/>
	<path d="M236.7,306c0.9,0.4,2.1,1,2.8,1.4l-0.8,1.2c-0.6-0.5-1.8-1.1-2.7-1.5L236.7,306z M250.6,305.6H246v1h3.7v6.7
		c0,1.3-0.5,1.4-2.5,1.4c-0.1-0.4-0.2-0.9-0.4-1.2c0.5,0,1,0,1.2,0c0.2,0,0.2-0.1,0.2-0.2v-1.2H246v2.5h-1.4v-2.5h-2.1v2.6H241v-8.1
		h3.6v-1h-4.3v-1.2h4.3v-1.5l0.7,0v-0.8h-3.9v0.9h-1.5v-0.9h-3.7v-1.3h3.7v-1.2l1.9,0.1c0,0.1-0.1,0.2-0.4,0.3v0.8h3.9v-1.2l1.9,0.1
		c0,0.1-0.1,0.2-0.4,0.3v0.8h3.8v1.3h-3.8v0.9h-0.4c0,0.1-0.1,0.1-0.3,0.2v1.1h2.8c-0.5-0.4-1.2-0.8-1.8-1l0.7-0.8
		c0.7,0.3,1.6,0.8,2.1,1.2l-0.5,0.7h1.3V305.6z M236.3,313.7c0.7-1,1.6-2.6,2.4-4l1,0.9c-0.6,1.3-1.4,2.8-2,3.7
		c0.1,0.1,0.1,0.2,0.1,0.3c0,0.1,0,0.1-0.1,0.2L236.3,313.7z M239.2,305.6c-0.6-0.5-1.7-1.2-2.6-1.6l0.8-1c0.9,0.4,2.1,0.9,2.6,1.4
		L239.2,305.6z M244.6,307.8h-2.1v1h2.1V307.8z M242.5,311h2.1v-1.1h-2.1V311z M248.3,307.8H246v1h2.2V307.8z M246,311h2.2v-1.1H246
		V311z"/>
	<path d="M236.7,342.4h13.4v13.7h-1.6v-1h-10.3v1h-1.5V342.4z M242.5,343.9h-4.3v4.1h4.3V343.9z M238.3,349.5v4.1h4.3v-4.1H238.3z
		 M248.6,347.9v-4.1h-4.5v4.1H248.6z M244.1,353.6h4.5v-4.1h-4.5V353.6z"/>
</g>
<g>
	<rect x="145.9" y="299.2" class="st3" width="16.2" height="57.6"/>
	<path d="M161.5,310.8h-5.8c1.1,1.6,3,2.3,6,2.5c-0.3,0.3-0.7,1-0.9,1.4c-3.4-0.4-5.5-1.5-6.6-3.9c-0.8,1.9-2.4,3.2-6.8,3.8
		c-0.1-0.4-0.4-1-0.7-1.3c3.6-0.4,5.1-1.3,5.9-2.6h-5.7v-1.3h1.8v-8.3h4.4c0.2-0.5,0.4-1.1,0.6-1.5l1.9,0.2c0,0.1-0.1,0.2-0.4,0.2
		c-0.1,0.3-0.3,0.7-0.5,1.1h5.2v8.3h1.8V310.8z M150,309.5h3c0.1-0.3,0.1-0.7,0.2-1.1l1.9,0.2c0,0.1-0.2,0.2-0.4,0.3
		c0,0.2-0.1,0.4-0.1,0.6h3.6v-7.1H150V309.5z M153.5,308.3v-1.8c-0.7,0.9-1.6,1.7-2.5,2.2c-0.2-0.3-0.5-0.7-0.8-0.9
		c0.8-0.4,1.7-1.1,2.4-1.8h-2v-1h1.3c-0.2-0.5-0.6-1.1-1-1.6l0.9-0.4c0.4,0.5,0.9,1.1,1,1.6L152,305h1.5v-2.3l1.5,0.1
		c0,0.1-0.1,0.2-0.3,0.2v2h1.3l-0.8-0.4c0.4-0.4,0.8-1.2,1-1.7l1.2,0.6c0,0.1-0.2,0.1-0.3,0.1c-0.3,0.4-0.7,1-1.1,1.4h1.5v1H155
		c0.9,0.5,2,1.3,2.6,1.8l-0.7,0.7c-0.5-0.5-1.4-1.1-2.2-1.6v1.4H153.5z"/>
	<path d="M147.4,345.8c1,0.4,2.4,1.1,3,1.6l-0.8,1.2c-0.6-0.6-1.9-1.3-3-1.8L147.4,345.8z M147,355.1c0.8-1.2,2-3.3,2.8-5.2l1.2,1
		c-0.8,1.7-1.8,3.6-2.5,4.9c0.1,0.1,0.1,0.2,0.1,0.3s0,0.2-0.1,0.2L147,355.1z M148.3,341.4c1,0.4,2.4,1.2,3,1.7l-0.9,1.2
		c-0.6-0.6-1.9-1.4-2.9-1.9L148.3,341.4z M160.7,348.8h-3.5c0.8,2.7,2.3,5,4.5,6.1c-0.4,0.3-0.9,1-1.1,1.4c-2.5-1.4-4-4.1-4.9-7.5
		h-1.6c-0.2,2.5-0.8,5.5-2.6,7.5c-0.3-0.3-0.9-0.7-1.3-0.9c2.2-2.5,2.4-6.1,2.4-8.8V342h8.1V348.8z M154.2,343.5v3.8h4.9v-3.8H154.2
		z"/>
</g>
<g>
	<rect x="57.9" y="299.2" class="st3" width="16.2" height="57.6"/>
	<path d="M60.6,300.8h11.1v13.9H70v-1.1h-7.9v1.1h-1.5V300.8z M70,302.3h-7.9v2.3H70V302.3z M70,306h-7.9v2.4H70V306z M62.1,312.1
		H70v-2.4h-7.9V312.1z"/>
	<path d="M62.1,353.3c-0.4,1.1-1.1,2.3-1.9,3l-1.4-0.7c0.8-0.6,1.5-1.6,1.8-2.7L62.1,353.3z M73.4,351.3v1.3H58.9v-1.3h6.4v-1.1
		h-5.1v-1.2h5.1v-1h-4.7v-6.1h11.1v6.1h-4.9v1h5.4v1.2h-5.4v1.1H73.4z M62.1,343v1.3h3.2V343H62.1z M62.1,346.8h3.2v-1.3h-3.2V346.8
		z M63.7,356.2c0-0.7-0.1-1.8-0.2-2.7l1.4-0.1c0.2,0.8,0.3,2,0.3,2.6L63.7,356.2z M67.5,356.2c-0.1-0.7-0.5-1.8-0.8-2.7l1.4-0.3
		c0.4,0.8,0.8,1.9,0.9,2.6L67.5,356.2z M70.2,344.3V343h-3.4v1.3H70.2z M70.2,346.8v-1.3h-3.4v1.3H70.2z M72,356.3
		c-0.4-0.8-1.2-2-2-2.8l1.4-0.5c0.8,0.8,1.7,2,2.1,2.8L72,356.3z"/>
</g>
<rect x="308" y="292" class="st8" width="44" height="72"/>
<rect x="352" y="292" class="st8" width="44" height="72"/>
<g>
	<rect x="365.9" y="299.2" class="st3" width="16.2" height="57.6"/>
	<path class="st0" d="M379.7,306.3c0,0.1-0.1,0.2-0.4,0.3v1.2h2.1v1.4h-2.1v3.8c0,1.5-0.6,1.7-3.3,1.7c0-0.4-0.3-1-0.4-1.4
		c0.5,0,1,0,1.4,0c0.8,0,0.9,0,0.9-0.3v-3.8h-5.4v-0.5l-1.6,0.4v5.6h-1.5v-5.2c-0.7,0.2-1.4,0.4-2,0.5c0,0.1-0.1,0.2-0.2,0.3
		l-0.5-1.7c0.7-0.1,1.7-0.3,2.7-0.6v-3.6h-1.2c-0.2,0.9-0.4,1.8-0.7,2.4c-0.2-0.2-0.7-0.6-0.9-0.8c0.5-1.3,0.7-3.4,0.9-5.5l1.6,0.4
		c0,0.1-0.1,0.2-0.4,0.2c-0.1,0.6-0.1,1.2-0.2,1.8h0.9v-3.2l1.8,0.1c0,0.1-0.1,0.2-0.4,0.3v2.8h1.9v1.5h-1.9v3.3l1.9-0.4l0,0.5h5.1
		v-1.6L379.7,306.3z M377.5,304.6h4.1v1.4h-9.5v-1.4h3.9v-1.8h-3v-1.4h3v-1.8l1.9,0.1c0,0.1-0.1,0.2-0.4,0.3v1.4h3.2v1.4h-3.2V304.6
		z M374.8,312.9c-0.3-0.7-1-1.8-1.7-2.6l1.2-0.6c0.7,0.8,1.5,1.8,1.8,2.5L374.8,312.9z"/>
	<path class="st0" d="M368.8,346.4v-0.3c-0.4,0.3-0.7,0.5-1.1,0.8c-0.2-0.4-0.7-0.9-1.1-1.1c2.1-1.3,3.6-3.1,4.4-4.6l1.9,0.3
		c0,0.1-0.2,0.2-0.4,0.2c-0.1,0.2-0.3,0.5-0.4,0.7h4.1l0.2-0.1l1.2,0.7c0,0.1-0.2,0.1-0.3,0.2c-0.3,0.5-0.8,1.2-1.3,1.9h3.4v5.9H374
		c0.7,0.4,1.5,0.8,1.9,1.2l-1,1.1c-0.6-0.6-1.8-1.4-2.9-1.8l0.5-0.5h-4v-1.3h9.4v-1.1h-8.9v-1.2h8.9v-1H368.8z M370.3,352.4
		c-0.4,1.3-1.1,2.6-2.3,3.4l-1.3-0.9c1.1-0.7,1.9-1.8,2.2-3L370.3,352.4z M374.3,345.2c0.4-0.4,0.7-0.9,1-1.4h-4.1
		c-0.4,0.5-0.8,1-1.3,1.4H374.3z M372.4,354.3c0,0.4,0.1,0.5,0.9,0.5h2.4c0.6,0,0.7-0.2,0.8-1.7c0.3,0.2,0.9,0.4,1.3,0.5
		c-0.2,2-0.6,2.5-2,2.5h-2.6c-1.8,0-2.2-0.4-2.2-1.8v-2.2l1.8,0.1c0,0.1-0.1,0.2-0.4,0.3V354.3z M380.3,355.8
		c-0.5-0.9-1.7-2.4-2.8-3.3l1.3-0.7c1.1,0.9,2.4,2.3,2.9,3.3L380.3,355.8z"/>
</g>
<g>
	<rect x="101.9" y="299.2" class="st3" width="16.2" height="57.6"/>
	<path d="M117.3,305.8h-6c1,3.6,2.9,6.3,6.3,7.4c-0.4,0.3-0.9,1-1.1,1.5c-3.2-1.3-5.1-3.8-6.3-7.2c-0.8,2.9-2.6,5.6-6.4,7.2
		c-0.2-0.4-0.7-1-1.1-1.3c4.1-1.6,5.6-4.5,6.2-7.6H103v-1.6h6.1c0.1-1.5,0.1-3.1,0.1-4.5l2,0.1c0,0.2-0.1,0.3-0.4,0.3
		c0,1.3,0,2.7-0.2,4.1h6.5V305.8z"/>
	<path d="M116.9,321.3v12.5c0,1.6-0.8,1.7-3.3,1.7c-0.1-0.4-0.3-1-0.5-1.4c0.5,0,1.1,0,1.5,0c0.7,0,0.9,0,0.9-0.4v-11h-10.6v12.7
		h-1.5v-14.2H116.9z M113.9,333.3h-1.3v-0.8h-4.9v1.1h-1.3v-5.5l1.6,0.1c0,0.1-0.1,0.2-0.4,0.2v2.8h1.8V327h-3.8v-1.3h2.1
		c-0.1-0.7-0.6-1.7-1.1-2.4l1.2-0.4c0.5,0.7,1,1.7,1.2,2.4l-1.2,0.4h4.3c-0.3-0.1-0.7-0.3-1-0.4c0.4-0.7,0.9-1.8,1.2-2.5l1.7,0.5
		c-0.1,0.1-0.2,0.2-0.4,0.2c-0.3,0.7-0.8,1.6-1.2,2.2h2.5v1.3h-3.8c0,0.1-0.1,0.1-0.3,0.2v4h1.8v-3.2l1.7,0.1c0,0.1-0.1,0.2-0.4,0.2
		V333.3z"/>
	<path d="M115.1,345.2l2,0.1c0,0.1-0.1,0.2-0.4,0.3V356h-1.6v-1.2h-9.9v1.2h-1.6v-10.9l1.9,0.1c0,0.1-0.1,0.2-0.4,0.3v7.8h4v-11.6
		l2,0.1c0,0.1-0.1,0.2-0.4,0.3v11.3h4.2V345.2z"/>
</g>
<rect x="44" y="607" class="st8" width="44" height="72"/>
<rect x="88" y="607" class="st8" width="44" height="72"/>
<rect x="132" y="607" class="st8" width="44" height="72"/>
<rect x="176" y="607" class="st8" width="44" height="72"/>
<rect x="220" y="607" class="st8" width="44" height="72"/>
<rect x="264" y="607" class="st8" width="44" height="72"/>
<g>
	<rect x="277.9" y="614.2" class="st3" width="16.2" height="57.6"/>
	<path d="M279.4,621c0.9,0.4,2.1,1,2.8,1.4l-0.8,1.2c-0.6-0.5-1.8-1.1-2.7-1.5L279.4,621z M293.4,620.6h-4.6v1h3.7v6.7
		c0,1.3-0.5,1.4-2.5,1.4c-0.1-0.4-0.2-0.9-0.4-1.2c0.5,0,1,0,1.2,0c0.2,0,0.2-0.1,0.2-0.2v-1.2h-2.2v2.5h-1.4v-2.5h-2.1v2.6h-1.4
		v-8.1h3.6v-1h-4.3v-1.2h4.3v-1.5l0.7,0v-0.8h-3.9v0.9h-1.5v-0.9h-3.7v-1.3h3.7v-1.2l1.9,0.1c0,0.1-0.1,0.2-0.4,0.3v0.8h3.9v-1.2
		l1.9,0.1c0,0.1-0.1,0.2-0.4,0.3v0.8h3.8v1.3h-3.8v0.9h-0.4c0,0.1-0.1,0.1-0.3,0.2v1.1h2.8c-0.5-0.4-1.2-0.8-1.8-1l0.7-0.8
		c0.7,0.3,1.6,0.8,2.1,1.2l-0.5,0.7h1.3V620.6z M279,628.7c0.7-1,1.6-2.6,2.4-4l1,0.9c-0.6,1.3-1.4,2.8-2,3.7
		c0.1,0.1,0.1,0.2,0.1,0.3c0,0.1,0,0.1-0.1,0.2L279,628.7z M282,620.6c-0.6-0.5-1.7-1.2-2.6-1.6l0.8-1c0.9,0.4,2.1,0.9,2.6,1.4
		L282,620.6z M287.3,622.8h-2.1v1h2.1V622.8z M285.2,626h2.1v-1.1h-2.1V626z M291,622.8h-2.2v1h2.2V622.8z M288.8,626h2.2v-1.1h-2.2
		V626z"/>
	<path d="M279.5,657.4h13.4v13.7h-1.6v-1H281v1h-1.5V657.4z M285.3,658.9H281v4.1h4.3V658.9z M281,664.5v4.1h4.3v-4.1H281z
		 M291.3,662.9v-4.1h-4.5v4.1H291.3z M286.8,668.6h4.5v-4.1h-4.5V668.6z"/>
</g>
<g>
	<rect x="189.9" y="614.2" class="st3" width="16.2" height="57.6"/>
	<path d="M205.5,625.8h-5.8c1.1,1.6,3,2.3,6,2.5c-0.3,0.3-0.7,1-0.9,1.4c-3.4-0.4-5.5-1.5-6.6-3.9c-0.8,1.9-2.4,3.2-6.8,3.8
		c-0.1-0.4-0.4-1-0.7-1.3c3.6-0.4,5.1-1.3,5.9-2.6h-5.7v-1.3h1.8v-8.3h4.4c0.2-0.5,0.4-1.1,0.6-1.5l1.9,0.2c0,0.1-0.1,0.2-0.4,0.2
		c-0.1,0.3-0.3,0.7-0.5,1.1h5.2v8.3h1.8V625.8z M194,624.5h3c0.1-0.3,0.1-0.7,0.2-1.1l1.9,0.2c0,0.1-0.2,0.2-0.4,0.3
		c0,0.2-0.1,0.4-0.1,0.6h3.6v-7.1H194V624.5z M197.5,623.3v-1.8c-0.7,0.9-1.6,1.7-2.5,2.2c-0.2-0.3-0.5-0.7-0.8-0.9
		c0.8-0.4,1.7-1.1,2.4-1.8h-2v-1h1.3c-0.2-0.5-0.6-1.1-1-1.6l0.9-0.4c0.4,0.5,0.9,1.1,1,1.6L196,620h1.5v-2.3l1.5,0.1
		c0,0.1-0.1,0.2-0.3,0.2v2h1.3l-0.8-0.4c0.4-0.4,0.8-1.2,1-1.7l1.2,0.6c0,0.1-0.2,0.1-0.3,0.1c-0.3,0.4-0.7,1-1.1,1.4h1.5v1H199
		c0.9,0.5,2,1.3,2.6,1.8l-0.7,0.7c-0.5-0.5-1.4-1.1-2.2-1.6v1.4H197.5z"/>
	<path d="M191.4,660.8c1,0.4,2.4,1.1,3,1.6l-0.8,1.2c-0.6-0.6-1.9-1.3-3-1.8L191.4,660.8z M191,670.1c0.8-1.2,2-3.3,2.8-5.2l1.2,1
		c-0.8,1.7-1.8,3.6-2.5,4.8c0.1,0.1,0.1,0.2,0.1,0.3s0,0.2-0.1,0.2L191,670.1z M192.3,656.4c1,0.4,2.4,1.2,3,1.7l-0.9,1.2
		c-0.6-0.6-1.9-1.4-2.9-1.9L192.3,656.4z M204.7,663.8h-3.5c0.8,2.7,2.3,5,4.5,6.1c-0.4,0.3-0.9,1-1.1,1.4c-2.5-1.4-4-4.1-4.9-7.5
		h-1.6c-0.2,2.5-0.8,5.5-2.6,7.5c-0.3-0.3-0.9-0.7-1.3-0.9c2.2-2.5,2.4-6.1,2.4-8.8V657h8.1V663.8z M198.2,658.5v3.8h4.9v-3.8H198.2
		z"/>
</g>
<g>
	<rect x="145.9" y="614.2" class="st3" width="16.2" height="57.6"/>
	<path d="M161.3,620.8h-6c1,3.6,2.9,6.3,6.3,7.4c-0.4,0.3-0.9,1-1.1,1.5c-3.2-1.3-5.1-3.8-6.3-7.2c-0.8,2.9-2.6,5.6-6.4,7.2
		c-0.2-0.4-0.7-1-1.1-1.3c4.1-1.6,5.6-4.5,6.2-7.6H147v-1.6h6.1c0.1-1.5,0.1-3.1,0.1-4.5l2,0.1c0,0.2-0.1,0.3-0.4,0.3
		c0,1.3,0,2.7-0.2,4.1h6.5V620.8z"/>
	<path d="M160.9,636.3v12.5c0,1.6-0.8,1.7-3.3,1.7c-0.1-0.4-0.3-1-0.5-1.4c0.5,0,1.1,0,1.5,0c0.7,0,0.9,0,0.9-0.4v-11h-10.6v12.7
		h-1.5v-14.2H160.9z M157.9,648.3h-1.3v-0.8h-4.9v1.1h-1.3v-5.5l1.6,0.1c0,0.1-0.1,0.2-0.4,0.2v2.8h1.8V642h-3.8v-1.3h2.1
		c-0.1-0.7-0.6-1.7-1.1-2.4l1.2-0.4c0.5,0.7,1,1.7,1.2,2.4l-1.2,0.4h4.3c-0.3-0.1-0.7-0.3-1-0.4c0.4-0.7,0.9-1.8,1.2-2.5l1.7,0.5
		c-0.1,0.1-0.2,0.2-0.4,0.2c-0.3,0.7-0.8,1.6-1.2,2.2h2.5v1.3h-3.8c0,0.1-0.1,0.1-0.3,0.2v4h1.8v-3.2l1.7,0.1c0,0.1-0.1,0.2-0.4,0.2
		V648.3z"/>
	<path d="M159.1,660.2l2,0.1c0,0.1-0.1,0.2-0.4,0.3V671h-1.6v-1.2h-9.9v1.2h-1.6v-10.9l1.9,0.1c0,0.1-0.1,0.2-0.4,0.3v7.8h4v-11.6
		l2,0.1c0,0.1-0.1,0.2-0.4,0.3v11.3h4.2V660.2z"/>
</g>
<g>
	<rect x="57.9" y="614.2" class="st3" width="16.2" height="57.6"/>
	<path d="M64.6,619.5c0,0.1-0.2,0.2-0.4,0.3c-0.6,3.4-1.7,7.6-4.3,10c-0.3-0.3-0.9-0.9-1.3-1.1c2.5-2.2,3.5-6.1,3.9-9.5L64.6,619.5z
		 M62.1,615.9h7c0.4,5.3,1.5,10.2,4.5,12.5c-0.4,0.3-1.1,0.8-1.5,1.2c-2.9-2.5-4-7.1-4.5-12.1h-5.6V615.9z"/>
	<path d="M73.3,636.9v1.6H67v10.1c0,1.8-0.8,2-4.5,2c-0.1-0.5-0.4-1.2-0.7-1.6c0.8,0,1.7,0,2.3,0c1.1,0,1.3,0,1.3-0.5v-10H59v-1.6
		H73.3z"/>
	<path d="M63.4,665.6l0.3,1.3c-1.5,0.6-3.1,1.3-4.2,1.7c0,0.1-0.1,0.2-0.2,0.3l-0.7-1.7c0.6-0.2,1.2-0.4,2-0.6v-4.9h-1.7v-1.4h1.7
		v-3.7l1.8,0.1c0,0.1-0.1,0.2-0.4,0.2v3.4h1.5v1.4h-1.5v4.5L63.4,665.6z M73.1,661.3h-7.5v1.2c0,2.6-0.3,6.3-2.4,8.6
		c-0.2-0.3-0.8-0.8-1.1-0.9c1.9-2.1,2.1-5.2,2.1-7.7v-5.6h9V661.3z M71.6,658.2h-6.1v1.8h6.1V658.2z M71.8,666.6l1.7,0.1
		c0,0.1-0.1,0.2-0.3,0.3v4.3h-1.3v-0.7h-4.6v0.7h-1.3v-4.7l1.6,0.1c0,0.1-0.1,0.2-0.3,0.3v2.4h1.6v-3.5h-2.6v-3.7l1.6,0.1
		c0,0.1-0.1,0.2-0.4,0.2v2.2h1.4v-3.1l1.7,0.1c0,0.1-0.1,0.2-0.3,0.3v2.8h1.5v-2.5l1.6,0.1c0,0.1-0.1,0.2-0.4,0.2v3.4h-2.7v3.5h1.6
		V666.6z"/>
</g>
<rect x="308" y="607" class="st8" width="44" height="72"/>
<rect x="352" y="607" class="st8" width="44" height="72"/>
<rect x="44" y="700" class="st8" width="44" height="72"/>
<rect x="88" y="700" class="st8" width="44" height="72"/>
<rect x="132" y="700" class="st8" width="44" height="72"/>
<rect x="176" y="700" class="st8" width="44" height="72"/>
<rect x="220" y="700" class="st8" width="44" height="72"/>
<rect x="264" y="700" class="st8" width="44" height="72"/>
<rect x="308" y="700" class="st8" width="44" height="72"/>
<rect x="352" y="700" class="st8" width="44" height="72"/>
<g>
	<rect x="322.4" y="617.1" class="st3" width="15.1" height="51.8"/>
	<path d="M335.3,620.2l1.2,0.9c-0.1,0.1-0.3,0.3-0.6,0.3v5.9c0,0-0.3,0.3-0.8,0.3v-1.4h-4.6v5c0,0-0.1,0.4-0.8,0.4v-5.4h-4.5v1.2
		c0,0-0.1,0.3-0.8,0.3v-7.4l0.9,0.4h4.4v-3l1.5,0.1c0,0.2-0.2,0.3-0.6,0.4v2.5h4.5L335.3,620.2z M325.1,625.8h4.5v-4.7h-4.5V625.8z
		 M330.4,625.8h4.6v-4.7h-4.6V625.8z"/>
	<path d="M334.2,636.7l1.3,0.9c-0.1,0.1-0.4,0.3-0.7,0.3v11.5c0,0-0.2,0.3-0.8,0.3v-1h-7.8v0.8c0,0-0.1,0.3-0.8,0.3v-13.1l0.9,0.5
		h7.5L334.2,636.7z M333.9,637.6h-7.8v3.3h7.8V637.6z M333.9,641.3h-7.8v3.3h7.8V641.3z M326.1,648.4h7.8V645h-7.8V648.4z"/>
	<path d="M335.8,663.2l1.3,0.9c-0.1,0.2-0.3,0.3-0.7,0.3h-13.1l-0.1-0.4h6.5v-1.7h-4.9l-0.1-0.4h5v-1.7h-3.7v0.5
		c0,0-0.1,0.3-0.8,0.3v-6.1l0.9,0.4h8.1l0.4-0.5l1.1,0.8c-0.1,0.1-0.3,0.2-0.6,0.3v4.5c0,0.1-0.3,0.3-0.8,0.3v-0.5h-3.8v1.7h3.3
		l0.7-0.8l1.2,0.9c-0.1,0.2-0.3,0.3-0.7,0.3h-4.5v1.7h4.7L335.8,663.2z M325.5,665.2c0,0.2,0.1,0.5,0.1,0.7c0,1.6-1.1,2.4-1.9,2.4
		c-0.4,0-0.5-0.3-0.5-0.4c0-0.2,0.2-0.4,0.4-0.6c0.7-0.3,1.6-1.1,1.7-2.2L325.5,665.2z M329.6,655.7h-3.7v1.9h3.7V655.7z
		 M325.9,659.9h3.7V658h-3.7V659.9z M327.7,665.2c0.9,0.8,1.2,1.5,1.2,2c0,0.5-0.3,0.8-0.6,0.8c-0.1,0-0.3-0.1-0.4-0.2
		c0-0.1,0-0.2,0-0.3c0-0.7-0.2-1.6-0.4-2.2L327.7,665.2z M334.2,655.7h-3.8v1.9h3.8V655.7z M330.4,659.9h3.8V658h-3.8V659.9z
		 M330.7,665.2c1.4,0.8,1.9,1.6,1.9,2.2c0,0.4-0.2,0.7-0.5,0.7c-0.1,0-0.3-0.1-0.4-0.2c-0.1-0.8-0.6-1.9-1.2-2.5L330.7,665.2z
		 M333.7,665.1c2.5,0.8,3.3,2,3.3,2.7c0,0.3-0.2,0.5-0.4,0.5c-0.1,0-0.2,0-0.4-0.1c-0.4-1-1.6-2.3-2.6-3L333.7,665.1z"/>
</g>
<rect x="44" y="793" class="st8" width="44" height="72"/>
<rect x="88" y="793" class="st8" width="44" height="72"/>
<rect x="132" y="793" class="st8" width="44" height="72"/>
<rect x="176" y="793" class="st8" width="44" height="72"/>
<rect x="220" y="793" class="st8" width="44" height="72"/>
<rect x="264" y="793" class="st8" width="44" height="72"/>
<rect x="308" y="793" class="st8" width="44" height="72"/>
<rect x="352" y="793" class="st8" width="44" height="72"/>
<g>
	<rect x="101.9" y="614.2" class="st3" width="16.2" height="57.6"/>
	<path d="M104.6,615.8h11.1v13.9H114v-1.1h-7.9v1.1h-1.5V615.8z M114,617.3h-7.9v2.3h7.9V617.3z M114,621h-7.9v2.4h7.9V621z
		 M106.1,627.1h7.9v-2.4h-7.9V627.1z"/>
	<path d="M106.1,668.3c-0.4,1.1-1.1,2.3-1.9,3l-1.4-0.7c0.8-0.6,1.5-1.6,1.8-2.7L106.1,668.3z M117.4,666.3v1.3h-14.5v-1.3h6.4v-1.1
		h-5.1v-1.2h5.1v-1h-4.7v-6.1h11.1v6.1h-4.9v1h5.4v1.2h-5.4v1.1H117.4z M106.1,658v1.3h3.2V658H106.1z M106.1,661.8h3.2v-1.3h-3.2
		V661.8z M107.7,671.2c0-0.7-0.1-1.8-0.2-2.7l1.4-0.1c0.2,0.8,0.3,2,0.3,2.6L107.7,671.2z M111.5,671.2c-0.1-0.7-0.5-1.8-0.8-2.7
		l1.4-0.3c0.4,0.8,0.8,1.9,0.9,2.6L111.5,671.2z M114.2,659.3V658h-3.4v1.3H114.2z M114.2,661.8v-1.3h-3.4v1.3H114.2z M116,671.3
		c-0.4-0.8-1.2-2-2-2.8l1.4-0.5c0.8,0.8,1.7,2,2.1,2.8L116,671.3z"/>
</g>
<rect x="155" y="909" width="131" height="45"/>
<g>
	<rect x="101.9" y="801.1" class="st3" width="16.2" height="57.6"/>
	<path class="st7" d="M103.5,802.6h13.4v13.9h-1.6v-1.1H105v1.1h-1.5V802.6z M105,813.9h10.3v-9.9H105V813.9z M107,806.2h6.1v5.5
		H107V806.2z M111.7,810.5v-3h-3.3v3H111.7z"/>
	<path class="st7" d="M106.4,849.6v5.2c1.1,1.8,3.3,1.8,5.8,1.8c1.8,0,4.1-0.1,5.5-0.2c-0.2,0.4-0.4,1.1-0.5,1.6
		c-1.1,0-2.7,0.1-4.2,0.1c-3.6,0-5.7,0-7.3-1.9c-0.8,0.7-1.5,1.3-2.2,1.8c0,0.2,0,0.2-0.2,0.3l-0.8-1.7c0.7-0.5,1.6-1.1,2.4-1.7V851
		h-2.1v-1.4H106.4z M104,843.6c1,0.7,2.2,1.7,2.8,2.5l-1.2,1c-0.5-0.8-1.7-1.9-2.7-2.6L104,843.6z M117.4,850.9h-4.1
		c0.7,1.8,2,3,4.1,3.6c-0.3,0.3-0.8,0.9-1,1.3c-2-0.7-3.3-1.9-4.1-3.8c-0.6,1.3-1.8,2.7-4.1,3.7c-0.2-0.3-0.7-0.8-1-1.1
		c2.6-1,3.6-2.4,3.9-3.7h-4v-1.4h4.2v-2h-3.6v-1.4h1.9c-0.2-0.7-0.8-1.7-1.3-2.4l1.3-0.5c0.6,0.8,1.2,1.8,1.5,2.5l-0.9,0.4h3.7
		l-0.7-0.3c0.5-0.7,1.2-1.9,1.6-2.7l1.8,0.7c-0.1,0.1-0.2,0.2-0.4,0.2c-0.4,0.6-1,1.5-1.5,2.2h2.4v1.4h-4v2h4.5V850.9z"/>
</g>
<g>
	<rect x="145.9" y="800.6" class="st3" width="16.2" height="57.6"/>
	<path class="st7" d="M156.5,801.6c-0.1,0.2-0.2,0.2-0.4,0.2c-0.1,0.4-0.2,0.7-0.4,1.1h5.8v1.4h-6.4c-0.2,0.4-0.3,0.7-0.5,1.1h5.5
		v4.1h-5.6v-3.8c-0.3,0.4-0.5,0.8-0.8,1.2c-0.2-0.2-0.6-0.6-0.9-0.9v5H151v2.3h2.1v1.4h-4.7v0.9h-1.3v-13.4h6v1.4H151v2.1h1.8
		c0.8-1.1,1.5-2.8,1.9-4.4L156.5,801.6z M149.7,803.4h-1.2v2.1h1.2V803.4z M151.5,809.5v-2.6h-3v2.6H151.5z M149.7,813.1v-2.3h-1.2
		v2.3H149.7z M153.5,816.1v-5.8h3.4v5.6h-1.1v-0.7h-1.2v0.9H153.5z M155.8,811.6h-1.2v2.4h1.2V811.6z M155.8,806.5v1.6h3v-1.6H155.8
		z M157.7,816.1v-5.7h3.6v5.6h-1.2v-0.7h-1.3v0.8H157.7z M160.1,811.6h-1.3v2.4h1.3V811.6z"/>
	<path class="st7" d="M152,843.7v10.8h-3.4v1.4h-1.4v-12.2H152z M150.6,845.1h-2v3.3h2V845.1z M148.6,853.2h2v-3.4h-2V853.2z
		 M157.7,847.7h3.9v1.4h-9.3v-1.4h3.9v-1.8h-3.3v-1.3h3.3v-1.9l1.9,0.1c0,0.1-0.1,0.2-0.4,0.3v1.5h3.4v1.3h-3.4V847.7z M160.2,849.4
		c0,0.1-0.1,0.2-0.4,0.3v1.1h1.8v1.3h-1.8v4c0,1.5-0.6,1.7-3.4,1.7c-0.1-0.4-0.3-1-0.5-1.4c0.5,0,0.9,0,1.3,0c1.1,0,1.1,0,1.1-0.3
		v-4h-6v-1.3h6v-1.5L160.2,849.4z M155.1,856.1c-0.3-0.8-1.2-2-2-2.8l1.2-0.7c0.8,0.8,1.7,1.9,2.1,2.7L155.1,856.1z"/>
</g>
<g>
	<rect x="57.9" y="801.1" class="st3" width="16.2" height="57.6"/>
	<path class="st7" d="M58.6,805.5v-1.2h5.8v1.2H58.6z M64,810.9v4.8h-3.4v0.7h-1.3v-5.5H64z M64,806.5v1.2h-4.6v-1.2H64z
		 M59.3,809.9v-1.2H64v1.2H59.3z M63.9,802.2v1.2h-4.5v-1.2H63.9z M62.7,812.1h-2.1v2.4h2.1V812.1z M67.8,813.6l1.8-0.3l0.1,1.3
		c-1.6,0.4-3.3,0.8-4.4,1c0,0.1-0.1,0.2-0.2,0.2l-0.6-1.5c0.6-0.1,1.2-0.2,2-0.4v-4.3h-1.5v-1.3h4.4v1.3h-1.5V813.6z M73.5,806.2
		h-2.4c0.1,4.6,0.4,8.6,1.4,8.8h0c0.2,0,0.4-1,0.5-2.2c0.2,0.3,0.7,0.7,0.9,0.8c-0.2,2-0.8,3-1.6,3c-2.1,0-2.5-4.6-2.7-10.4h-4.9
		v-1.4h4.9c0-1.1,0-2.1,0-3.2l1.9,0.1c0,0.1-0.1,0.2-0.4,0.3v2.8h2.4V806.2z M72.1,801.8c0.6,0.6,1.3,1.4,1.6,2l-1.1,0.6
		c-0.3-0.6-0.9-1.5-1.5-2.1L72.1,801.8z"/>
	<path class="st7" d="M62.2,828.8v5.2c1.1,1.8,3.2,1.8,6.1,1.8c1.8,0,4,0,5.5-0.2c-0.2,0.4-0.4,1.1-0.5,1.5c-1.2,0-3,0.1-4.7,0.1
		c-3.5,0-5.5,0-7-1.9c-0.7,0.7-1.4,1.3-2,1.8c0,0.2,0,0.2-0.2,0.3l-0.8-1.6c0.6-0.4,1.4-1.1,2.1-1.7v-3.9h-2v-1.4H62.2z M60,822.8
		c1,0.7,2.1,1.8,2.6,2.6l-1.2,0.9c-0.5-0.8-1.6-1.9-2.5-2.7L60,822.8z M67.2,835.4v-1.4h-4.4v-1.1h4.4V832h-3.3v-4.7h3.3v-0.8h-3.8
		v-1.1h3.8v-1.1l1.8,0.1c0,0.1-0.1,0.2-0.4,0.3v0.7h3.9v1.1h-3.9v0.8h3.4v4.7h-3.4v0.8h4.6v1.1h-4.6v1.4H67.2z M64.4,824v1h-1.3
		v-2.2h10v2.2h-1.4v-1H64.4z M65.2,828.3v0.9h2v-0.9H65.2z M65.2,831h2v-0.9h-2V831z M70.8,828.3h-2v0.9h2V828.3z M70.8,831v-0.9h-2
		v0.9H70.8z"/>
	<path class="st7" d="M66,855.5h-2.9v2.7h-1.4v-2.7h-3v-1.3h3V853h-2.4v-5.7h2.4v-1.1h-2.8v-1.3h2.8v-1.6l1.8,0.1
		c0,0.1-0.1,0.2-0.4,0.3v1.3h2.7v1.3h-2.7v1.1h2.5v5.7h-2.5v1.1H66V855.5z M60.4,848.4v1.2h1.4v-1.2H60.4z M60.4,850.7v1.2h1.4v-1.2
		H60.4z M64.4,849.6v-1.2h-1.4v1.2H64.4z M64.4,851.9v-1.2h-1.4v1.2H64.4z M71.7,852.6c0.9,1.6,1.7,3.7,2.1,5.1l-1.4,0.6
		c-0.1-0.3-0.2-0.7-0.3-1.1c-2.1,0.2-4.3,0.5-5.7,0.6c0,0.1-0.1,0.2-0.3,0.2l-0.5-1.7c0.4,0,0.8,0,1.3-0.1c0.4-1.5,0.9-3.7,1.2-5.5
		h-2.2v-1.4h7.7v1.4h-4c-0.3,1.6-0.8,3.8-1.3,5.4c1-0.1,2.2-0.2,3.3-0.3c-0.4-0.9-0.8-1.9-1.2-2.7L71.7,852.6z M73,844.3v1.4h-6.3
		v-1.4H73z"/>
</g>
<g>
	<rect x="145.9" y="428.2" class="st3" width="16.2" height="57.6"/>
	<path class="st1" d="M148.6,432.1c0,1.5-0.3,3.2-0.8,4.3l-1.2-0.6c0.5-0.9,0.8-2.5,0.8-3.9L148.6,432.1z M151.3,431.2
		c0.5,0.8,1.2,1.8,1.5,2.5l-1.1,0.7c-0.2-0.6-0.8-1.6-1.3-2.4v11.7H149v-15l1.8,0.1c0,0.1-0.1,0.2-0.4,0.3v2.7L151.3,431.2z
		 M161.6,437.5h-4.3c0.8,2.2,2.3,4,4.5,4.8c-0.4,0.3-0.9,1-1.1,1.4c-2.1-1-3.6-2.8-4.5-5.2c-0.6,1.9-1.8,3.7-4.1,5.2
		c-0.2-0.3-0.7-0.9-1.1-1.1c2.4-1.4,3.5-3.2,3.9-5.1h-3.3V436h3.6c0.1-0.7,0.1-1.4,0.1-2.1v-1.3h-2.7v-1.4h2.7v-2.5l1.9,0.1
		c0,0.1-0.1,0.2-0.4,0.3v2.2h3.5v4.8h1.3V437.5z M156.9,432.7v1.3c0,0.7,0,1.4-0.1,2.1h2.1v-3.4H156.9z"/>
	<path class="st1" d="M150.4,476.6v5.2c1.1,1.8,3.3,1.8,5.8,1.8c1.8,0,4.1-0.1,5.5-0.2c-0.2,0.4-0.4,1.1-0.5,1.6
		c-1.1,0-2.7,0.1-4.2,0.1c-3.6,0-5.7,0-7.3-1.9c-0.8,0.7-1.5,1.3-2.2,1.8c0,0.2,0,0.2-0.2,0.3l-0.8-1.7c0.7-0.5,1.6-1.1,2.4-1.7
		v-3.8h-2.1v-1.4H150.4z M148,470.7c1,0.7,2.2,1.7,2.8,2.5l-1.2,1c-0.5-0.8-1.7-1.9-2.7-2.6L148,470.7z M155.4,483.1v-3.5
		c-1,1.3-2.3,2.4-3.5,3.1c-0.2-0.4-0.7-0.9-1-1.2c1.4-0.6,2.9-1.7,3.8-2.9h-2.7v-4.1h3.4v-1.1h-4.2V472h4.2v-1.7l1.8,0.1
		c0,0.1-0.1,0.2-0.4,0.3v1.3h4.6v1.3h-4.6v1.1h3.6v4.1h-2.9c1,1.2,2.6,2.3,4,2.9c-0.3,0.3-0.8,0.8-1,1.2c-1.2-0.7-2.6-1.8-3.6-3.1
		v3.6H155.4z M153.3,475.6v1.8h2v-1.8H153.3z M158.9,475.6h-2.1v1.8h2.1V475.6z"/>
</g>
<g>
	<rect x="155" y="910.5" class="st3" width="131" height="37"/>
	<path class="st4" d="M163.5,947.5l0.5-2c3.4,0,3.8-0.5,4.6-3.6l4.7-20.3c0.2-0.9,0.3-1.6,0.3-2.1c0-1.3-0.8-1.6-3.5-1.6l0.5-2.1
		h15.2l-0.5,2.1c-3.2,0-3.6,0.5-4.3,3.7l-2.2,9.3h0.2l12-10.6c0.6-0.5,1.1-1.1,1.1-1.5c0-0.5-0.6-0.8-2.1-0.8l0.5-2.1h11.8l-0.5,2.1
		c-2.2,0-4.6,0.6-7.4,2.9l-8.8,7.5l7.6,14.5c1.2,2.2,1.8,2.6,4.1,2.6l-0.5,2h-10l-6.9-14.5l-2,1.7l-1.6,7.2
		c-0.2,0.9-0.3,1.5-0.3,2.1c0,1.3,0.8,1.6,3.4,1.6l-0.5,2H163.5z"/>
	<path class="st4" d="M217.5,936.5c0,5.4-3.2,11.4-11.3,11.4c-4.6,0-7.4-2.7-7.4-7.3c0-4.7,3.1-11.4,11.1-11.4
		C214.8,929.2,217.5,932.3,217.5,936.5z M203.5,941.8c0,2.8,0.8,5,3.2,5c3.9,0,6-6.2,6-11.7c0-1.8-0.4-4.6-3.1-4.6
		C205.8,930.4,203.5,936.7,203.5,941.8z"/>
	<path class="st4" d="M216,947.6l0.3-1.2c2,0,2.3-0.3,2.7-2.1l2.7-11.6c0.1-0.5,0.2-0.9,0.2-1.2c0-0.8-0.5-0.9-2.1-0.9l0.3-1.2h9.1
		l-0.3,1.2c-2,0-2.3,0.3-2.7,2.1l-2.7,11.6c-0.1,0.4-0.2,0.8-0.2,1.1c0,0.8,0.6,1,2.2,1l-0.2,1.2H216z"/>
	<path class="st4" d="M230.8,947.5l0.5-2c4,0,4.5-0.5,5.3-3.6l5.7-23.6h-3.3c-2.8,0-3.5,0.5-6.4,5.9h-2.8l2.8-8.3h28.3l-1.5,8.3h-3
		c0.1-0.9,0.1-1.7,0.1-2.3c0-3.4-1.1-3.6-3.8-3.6h-3l-5.3,23.6c-0.2,0.8-0.3,1.5-0.3,2c0,1.3,0.9,1.6,4,1.6l-0.5,2H230.8z"/>
	<path class="st4" d="M275.5,936.5c0,5.4-3.2,11.4-11.3,11.4c-4.6,0-7.4-2.7-7.4-7.3c0-4.7,3.1-11.4,11.1-11.4
		C272.8,929.2,275.5,932.3,275.5,936.5z M261.5,941.8c0,2.8,0.8,5,3.2,5c3.9,0,6-6.2,6-11.7c0-1.8-0.4-4.6-3.1-4.6
		C263.8,930.4,261.5,936.7,261.5,941.8z"/>
</g>
<g>
	<rect x="234.8" y="614.2" class="st3" width="14.3" height="57.6"/>
	<path d="M245.6,615.7l0.9,0.5c0,0.1-0.1,0.1-0.2,0.2c-1.8,3.2-5.9,5.1-9.8,5.9c-0.1-0.3-0.4-0.9-0.6-1.1c1.7-0.3,3.6-0.9,5.1-1.7
		c-0.5-0.4-1.1-0.8-1.7-1l0.9-0.8c0.6,0.3,1.4,0.7,1.9,1.1c0.9-0.6,1.6-1.2,2.2-1.9h-3.8c-1,0.7-2.2,1.4-3.6,2
		c-0.2-0.3-0.6-0.8-0.9-1c2.5-0.9,4.2-2.1,5.2-3.3l1.7,0.3c0,0.1-0.2,0.2-0.4,0.2c-0.2,0.2-0.4,0.4-0.6,0.6h3.3L245.6,615.7z
		 M247.3,620.8l0.2-0.1c0.8,0.4,0.9,0.4,0.9,0.5c0,0.1-0.1,0.1-0.2,0.2c-1.8,4-6,5.7-10.7,6.4c-0.1-0.4-0.4-0.9-0.6-1.2
		c2.1-0.2,4.2-0.7,5.9-1.5c-0.5-0.5-1.3-1-1.9-1.4l1-0.7c0.7,0.4,1.6,1,2.1,1.4c1-0.6,1.8-1.4,2.5-2.4h-3.8
		c-1.2,0.8-2.6,1.6-4.3,2.2c-0.2-0.3-0.5-0.8-0.8-1c2.9-1,5-2.4,6.1-3.7l1.7,0.4c0,0.1-0.2,0.2-0.4,0.2c-0.3,0.3-0.5,0.5-0.8,0.8
		H247.3z"/>
	<path d="M248.6,631.4h-10.7v3.3c0,2.2-0.2,5.5-1.4,7.6c-0.2-0.3-0.7-0.7-1-0.8c1.1-2,1.2-4.8,1.2-6.8v-4.5h5.3v-1.1l1.7,0.1
		c0,0.1-0.1,0.2-0.3,0.2v0.8h5.4V631.4z M244,638.5v0.8h4.7v0.9H244v0.9c0,1.2-0.5,1.2-3.2,1.2c-0.1-0.3-0.2-0.7-0.4-1
		c0.5,0,1,0,1.4,0c0.9,0,0.9,0,0.9-0.3v-0.8h-4.7v-0.9h4.7v-0.8h-4v-0.9h4v-0.7c-1.2,0.1-2.4,0.1-3.5,0.1c0-0.2-0.2-0.6-0.3-0.8
		c2.7,0,6-0.3,7.7-0.6l0.9,0.8c0,0-0.1,0.1-0.2,0.1c0,0-0.1,0-0.1,0c-0.9,0.2-2,0.3-3.2,0.4v0.8h4v0.9H244z M241.3,635.7h-1v-1.5
		c-0.5,0.6-1.1,1.1-1.7,1.4c-0.2-0.2-0.4-0.6-0.7-0.7c0.7-0.3,1.5-1,2-1.6h-1.6v-0.9h1.9v-0.9l1.3,0.1c0,0.1-0.1,0.2-0.3,0.2v0.6
		h1.8v0.9h-1.8v0.2c0.4,0.2,1.5,0.9,1.8,1.1l-0.6,0.7c-0.2-0.2-0.7-0.6-1.1-1V635.7z M246.3,635.6h-1v-1.5c-0.5,0.6-1.1,1.1-1.7,1.4
		c-0.2-0.2-0.4-0.5-0.7-0.7c0.7-0.3,1.5-0.9,2-1.6h-1.5v-0.9h1.8v-0.9l1.3,0.1c0,0.1-0.1,0.2-0.3,0.2v0.6h2.1v0.9h-1.8
		c0.5,0.6,1.4,1.2,2.1,1.6c-0.2,0.2-0.5,0.5-0.7,0.8c-0.6-0.3-1.2-0.9-1.7-1.5V635.6z"/>
	<path d="M237.2,644.4l1.7,0.1c0,0.1-0.1,0.2-0.3,0.2v4.5c0,2.7-0.2,5.5-2.1,7.6c-0.3-0.3-0.8-0.7-1.1-0.9c1.7-1.9,1.8-4.3,1.8-6.7
		V644.4z M241.7,645l1.7,0.1c0,0.1-0.1,0.2-0.3,0.2v10.2h-1.3V645z M246.5,644.4l1.7,0.1c0,0.1-0.1,0.2-0.3,0.2v12h-1.4V644.4z"/>
	<path d="M236.2,658.8h11.9v12.5h-1.3v-0.6h-9.4v0.6h-1.2V658.8z M237.4,669.6h9.4V660h-9.4V669.6z M245.3,665.9l1,0.6
		c-0.1,0.1-0.2,0.1-0.3,0.1c-0.4,0.3-0.9,0.6-1.5,0.9c0.6,0.3,1.3,0.6,2,0.8c-0.2,0.2-0.5,0.6-0.7,0.9c-1.2-0.4-2.4-1.1-3.3-1.9v2
		h-1.2v-1.8c-0.9,0.6-1.9,1-2.9,1.4c-0.1-0.2-0.5-0.6-0.7-0.8c1.2-0.4,2.6-1,3.6-1.8h-2.3v-2.3h6v2.2L245.3,665.9z M246.2,662.5v0.8
		h-8.1v-0.8h3.4v-0.7h-2.6V661h2.6v-0.8l1.5,0.1c0,0.1-0.1,0.2-0.3,0.2v0.4h2.7v0.8h-2.7v0.7H246.2z M240.2,664.6v0.9h3.8v-0.9
		H240.2z M242.9,666.2L242.9,666.2c0.2,0.3,0.5,0.6,0.9,0.9c0.4-0.3,0.8-0.6,1.2-0.9H242.9z"/>
</g>
<g>
	<rect x="190.8" y="299.2" class="st3" width="14.3" height="57.6"/>
	<path d="M201.6,300.7l0.9,0.5c0,0.1-0.1,0.1-0.2,0.2c-1.8,3.2-5.9,5.1-9.7,5.9c-0.1-0.3-0.4-0.9-0.6-1.1c1.7-0.3,3.6-0.9,5.1-1.7
		c-0.5-0.4-1.1-0.8-1.7-1l0.9-0.8c0.6,0.3,1.4,0.7,1.9,1.1c0.9-0.6,1.6-1.2,2.2-1.9h-3.8c-1,0.7-2.2,1.4-3.6,2
		c-0.2-0.3-0.6-0.8-0.9-1c2.5-0.9,4.2-2.1,5.2-3.3l1.7,0.3c0,0.1-0.2,0.2-0.4,0.2c-0.2,0.2-0.4,0.4-0.6,0.6h3.3L201.6,300.7z
		 M203.3,305.8l0.2-0.1c0.8,0.4,0.9,0.4,0.9,0.5c0,0.1-0.1,0.1-0.2,0.2c-1.8,4-6,5.7-10.7,6.4c-0.1-0.4-0.4-0.9-0.6-1.2
		c2.1-0.2,4.2-0.7,5.9-1.5c-0.5-0.5-1.3-1-1.9-1.4l1-0.7c0.7,0.4,1.6,1,2.1,1.4c1-0.6,1.8-1.4,2.5-2.4h-3.8
		c-1.2,0.8-2.6,1.6-4.3,2.2c-0.2-0.3-0.5-0.8-0.8-1c2.9-1,5-2.4,6.1-3.7l1.7,0.4c0,0.1-0.2,0.2-0.4,0.2c-0.3,0.3-0.5,0.5-0.8,0.8
		H203.3z"/>
	<path d="M204.6,316.4h-10.7v3.3c0,2.2-0.2,5.5-1.4,7.6c-0.2-0.3-0.7-0.7-1-0.8c1.1-2,1.2-4.8,1.2-6.8v-4.5h5.3v-1.1l1.7,0.1
		c0,0.1-0.1,0.2-0.3,0.2v0.8h5.4V316.4z M200,323.5v0.8h4.7v0.9H200v0.9c0,1.2-0.5,1.2-3.2,1.2c-0.1-0.3-0.2-0.7-0.4-1
		c0.5,0,1,0,1.4,0c0.9,0,0.9,0,0.9-0.3v-0.8h-4.7v-0.9h4.7v-0.8h-4v-0.9h4v-0.7c-1.2,0.1-2.4,0.1-3.5,0.1c0-0.2-0.2-0.6-0.3-0.8
		c2.7,0,6-0.3,7.7-0.6l0.9,0.8c0,0-0.1,0.1-0.2,0.1c0,0-0.1,0-0.1,0c-0.9,0.2-2,0.3-3.2,0.4v0.8h4v0.9H200z M197.3,320.7h-1v-1.5
		c-0.5,0.6-1.1,1.1-1.7,1.4c-0.2-0.2-0.4-0.6-0.7-0.7c0.7-0.3,1.5-1,2-1.6h-1.6v-0.9h1.9v-0.9l1.3,0.1c0,0.1-0.1,0.2-0.3,0.2v0.6
		h1.8v0.9h-1.8v0.2c0.4,0.2,1.5,0.9,1.8,1.1l-0.6,0.7c-0.2-0.2-0.7-0.6-1.1-1V320.7z M202.3,320.6h-1v-1.5c-0.5,0.6-1.1,1.1-1.7,1.4
		c-0.2-0.2-0.4-0.5-0.7-0.7c0.7-0.3,1.5-0.9,2-1.6h-1.5v-0.9h1.8v-0.9l1.3,0.1c0,0.1-0.1,0.2-0.3,0.2v0.6h2.1v0.9h-1.8
		c0.5,0.6,1.4,1.2,2.1,1.6c-0.2,0.2-0.5,0.5-0.7,0.8c-0.6-0.3-1.2-0.9-1.7-1.5V320.6z"/>
	<path d="M193.2,329.4l1.7,0.1c0,0.1-0.1,0.2-0.3,0.2v4.5c0,2.7-0.2,5.5-2.1,7.6c-0.3-0.3-0.8-0.7-1.1-0.9c1.7-1.9,1.8-4.3,1.8-6.7
		V329.4z M197.7,330l1.7,0.1c0,0.1-0.1,0.2-0.3,0.2v10.2h-1.3V330z M202.5,329.4l1.7,0.1c0,0.1-0.1,0.2-0.3,0.2v12h-1.4V329.4z"/>
	<path d="M192.2,343.8h11.9v12.5h-1.3v-0.6h-9.4v0.6h-1.2V343.8z M193.4,354.6h9.4V345h-9.4V354.6z M201.3,350.9l1,0.6
		c-0.1,0.1-0.2,0.1-0.3,0.1c-0.4,0.3-0.9,0.6-1.5,0.9c0.6,0.3,1.3,0.6,2,0.8c-0.2,0.2-0.5,0.6-0.7,0.9c-1.2-0.4-2.4-1.1-3.3-1.9v2
		h-1.2v-1.8c-0.9,0.6-1.9,1-2.9,1.4c-0.1-0.2-0.5-0.6-0.7-0.8c1.2-0.4,2.6-1,3.6-1.8h-2.3v-2.3h6v2.2L201.3,350.9z M202.2,347.5v0.8
		h-8.1v-0.8h3.4v-0.7h-2.6V346h2.6v-0.8l1.5,0.1c0,0.1-0.1,0.2-0.3,0.2v0.4h2.7v0.8h-2.7v0.7H202.2z M196.2,349.6v0.9h3.8v-0.9
		H196.2z M198.9,351.2L198.9,351.2c0.2,0.3,0.5,0.6,0.9,0.9c0.4-0.3,0.8-0.6,1.2-0.9H198.9z"/>
</g>
<g>
	<rect x="322.8" y="299.2" class="st3" width="14.3" height="57.6"/>
	<path class="st7" d="M326.9,305.2v4.6c0.9,1.5,2.8,1.5,5.3,1.5c1.6,0,3.5,0,4.8-0.1c-0.2,0.3-0.4,0.9-0.4,1.3c-1,0-2.6,0.1-4.1,0.1
		c-3.1,0-4.8,0-6.1-1.7c-0.7,0.6-1.4,1.2-2,1.6c0,0.1,0,0.2-0.2,0.3l-0.7-1.4c0.6-0.4,1.4-1,2.1-1.5v-3.4h-2v-1.2H326.9z M324.8,300
		c0.9,0.6,2,1.6,2.5,2.2l-1,1c-0.4-0.7-1.5-1.7-2.4-2.4L324.8,300z M329.5,308.3v2.3h-1.2v-7.3h3.7c-0.8-0.4-1.6-0.7-2.4-1l0.9-0.7
		c0.6,0.2,1.2,0.4,1.8,0.7c0.5-0.3,1.1-0.6,1.6-1h-5.5v-1h6.8l0.2-0.1l1,0.6c-0.1,0.1-0.2,0.1-0.3,0.1c-0.7,0.6-1.6,1.3-2.6,1.8
		c0.4,0.2,0.7,0.4,1,0.5h1.8v6.1c0,1.1-0.5,1.3-2.4,1.3c0-0.3-0.2-0.8-0.3-1.1c0.3,0,0.7,0,0.9,0c0.5,0,0.6,0,0.6-0.2v-1h-2.1v2.2
		h-1.2v-2.2H329.5z M331.5,304.2h-2.1v1h2.1V304.2z M329.5,307.3h2.1v-1.1h-2.1V307.3z M334.9,305.2v-1h-2.1v1H334.9z M332.7,307.3
		h2.1v-1.1h-2.1V307.3z"/>
	<path class="st7" d="M335.9,317.5l0.7,0c0,0.1,0,0.3,0,0.4c-0.1,6.1-0.3,8.1-0.7,8.7c-0.3,0.4-0.6,0.6-1.8,0.6c-0.3,0-0.6,0-0.9,0
		c0-0.4-0.2-0.9-0.4-1.2c0.6,0.1,1.1,0.1,1.4,0.1c0.2,0,0.3,0,0.5-0.2c0.3-0.4,0.4-2.2,0.6-7.1h-1.7c-0.1,3.7-0.7,6.8-2.8,8.7
		c-0.2-0.3-0.6-0.7-0.9-0.9l0.3-0.2c-2.2,0.2-4.4,0.5-5.9,0.6c0,0.1-0.1,0.2-0.2,0.2l-0.4-1.3l3-0.2v-1.1h-2.4v-1h2.4v-0.9H324v-1
		h2.7v-0.8h-2.5v-3.2h6.3v3.2h-2.6v0.8h2.7v1h-2.7v0.9h2.5v1h-2.5v1l2.8-0.2v0.3c1.2-1.6,1.6-3.9,1.7-6.8h-1.6v-1.2h1.6
		c0-1,0-2,0-3.2l1.6,0.1c0,0.1-0.1,0.2-0.3,0.3c0,1,0,1.9,0,2.8H335.9z M325.2,317.3v-1h-1.6v-1h1.6v-1.2l1.5,0.1
		c0,0.1-0.1,0.2-0.3,0.2v0.9h1.7v-1.2l1.5,0.1c0,0.1-0.1,0.2-0.3,0.2v0.9h1.6v1h-1.6v1h-1.2v-1h-1.7v1H325.2z M325.3,319.8h1.3v-1.3
		h-1.3V319.8z M329.2,319.8v-1.3h-1.4v1.3H329.2z"/>
	<path class="st0" d="M335,334.5c0,0.1-0.1,0.2-0.3,0.2v1.1h1.8v1.2h-1.8v3.4c0,1.3-0.5,1.5-2.9,1.5c0-0.4-0.2-0.9-0.4-1.3
		c0.4,0,0.9,0,1.2,0c0.7,0,0.8,0,0.8-0.3V337h-4.7v-0.5l-1.4,0.4v4.9H326v-4.6c-0.6,0.2-1.2,0.3-1.7,0.4c0,0.1-0.1,0.2-0.2,0.2
		l-0.5-1.5c0.6-0.1,1.5-0.3,2.4-0.5v-3.2h-1c-0.2,0.8-0.4,1.5-0.6,2.1c-0.2-0.2-0.6-0.5-0.8-0.7c0.4-1.1,0.6-3,0.8-4.8l1.4,0.3
		c0,0.1-0.1,0.2-0.3,0.2c-0.1,0.5-0.1,1.1-0.2,1.6h0.8v-2.8l1.6,0.1c0,0.1-0.1,0.2-0.3,0.2v2.5h1.6v1.3h-1.6v2.9l1.7-0.4l0,0.5h4.5
		v-1.4L335,334.5z M333.1,333h3.6v1.2h-8.3V333h3.4v-1.5h-2.6v-1.2h2.6v-1.5l1.7,0.1c0,0.1-0.1,0.2-0.3,0.2v1.2h2.8v1.2h-2.8V333z
		 M330.8,340.2c-0.3-0.6-0.9-1.6-1.5-2.3l1-0.5c0.6,0.7,1.3,1.6,1.6,2.2L330.8,340.2z"/>
	<path class="st0" d="M325.5,347.7v-0.3c-0.3,0.2-0.6,0.5-1,0.7c-0.2-0.3-0.6-0.8-1-1c1.9-1.1,3.2-2.7,3.8-4l1.6,0.3
		c0,0.1-0.1,0.2-0.3,0.2c-0.1,0.2-0.2,0.4-0.4,0.6h3.6l0.2-0.1l1,0.6c0,0.1-0.2,0.1-0.3,0.1c-0.3,0.5-0.7,1.1-1.1,1.6h3v5.1h-4.8
		c0.6,0.3,1.3,0.7,1.7,1.1l-0.9,0.9c-0.5-0.5-1.6-1.2-2.5-1.6l0.4-0.4h-3.5v-1.1h8.3v-0.9h-7.8v-1h7.8v-0.9H325.5z M326.8,352.9
		c-0.4,1.1-1,2.3-2,3l-1.1-0.8c1-0.6,1.6-1.6,2-2.6L326.8,352.9z M330.3,346.6c0.3-0.4,0.6-0.8,0.9-1.3h-3.6
		c-0.3,0.4-0.7,0.9-1.1,1.3H330.3z M328.6,354.6c0,0.4,0.1,0.4,0.8,0.4h2.1c0.5,0,0.6-0.2,0.7-1.5c0.3,0.2,0.8,0.4,1.2,0.5
		c-0.2,1.7-0.5,2.2-1.7,2.2h-2.3c-1.5,0-1.9-0.4-1.9-1.6v-1.9l1.6,0.1c0,0.1-0.1,0.2-0.3,0.2V354.6z M335.6,355.9
		c-0.4-0.8-1.5-2.1-2.5-2.9l1.1-0.6c1,0.8,2.1,2,2.6,2.9L335.6,355.9z"/>
</g>
<g>
	<path class="st6" d="M419,494c0,5.5-4.5,10-10,10H31c-5.5,0-10-4.5-10-10v-74c0-5.5,4.5-10,10-10h378c5.5,0,10,4.5,10,10V494z"/>
</g>
<rect x="409" y="424" class="st2" width="20" height="66"/>
<g>
	<rect x="410.5" y="428.1" class="st3" width="16.2" height="57.6"/>
	<path d="M426.3,442v1.2h-9.8V442h4.2V441h-3.4v-1.2h3.4v-0.9h-3.1v-5.3h3.1v-0.8H417v-1.2h3.7v-1.1c-1,0.1-2.1,0.2-3.1,0.2
		c0-0.3-0.2-0.7-0.3-1c-0.1,0.1-0.2,0.1-0.4,0.1c-0.5,0.2-1.1,0.5-1.8,0.7v2.7h1.9v1.4h-1.9v0.7c0.4,0.4,1.8,1.9,2.1,2.3l-0.9,1.2
		c-0.2-0.4-0.7-1.2-1.2-1.9v6.6h-1.5v-6.4c-0.5,1.4-1.2,2.8-1.8,3.7c-0.1-0.4-0.5-1.1-0.7-1.4c0.9-1.1,1.8-3.1,2.3-4.8h-2.1v-1.4
		h2.4v-2.3c-0.7,0.2-1.3,0.4-2,0.5c-0.1-0.3-0.3-0.8-0.5-1.1c1.8-0.4,3.7-1.1,4.8-1.8l1.2,1.1l0-0.1c2.5-0.2,5.5-0.5,7.2-1l1.1,1.1
		c-0.1,0.1-0.2,0.1-0.4,0c-0.8,0.2-1.9,0.4-3.1,0.6v1.3h3.9v1.2h-3.9v0.8h3.2v5.3h-3.2v0.9h3.5v1.2h-3.5v1.1H426.3z M419,435.7h1.7
		v-1H419V435.7z M420.7,437.8v-1H419v1H420.7z M422.2,434.8v1h1.8v-1H422.2z M423.9,436.8h-1.8v1h1.8V436.8z"/>
	<path d="M417.6,478l0.3,0l0.8,0.1c0,0.1,0,0.3,0,0.4c-0.2,4-0.3,5.5-0.8,6c-0.4,0.5-0.9,0.6-2,0.6c-0.4,0-0.7,0-1.1,0
		c0-0.4-0.2-1-0.4-1.3c0.7,0.1,1.4,0.1,1.7,0.1c0.3,0,0.4,0,0.6-0.2c0.3-0.3,0.4-1.4,0.5-4.3H415c-0.4,2.1-1.1,4.3-2.7,5.7
		c-0.2-0.4-0.7-0.8-1-1c2.1-1.8,2.5-5.2,2.7-7.7h-1.7v-5.4h6.5v5.4h-3.3c0,0.5-0.1,1.1-0.2,1.7H417.6z M413.5,472.3v2.7h3.7v-2.7
		H413.5z M421.9,472.2c0,0.1-0.1,0.2-0.4,0.3v8.7h-1.5v-9L421.9,472.2z M424,470.5l1.9,0.1c0,0.1-0.1,0.2-0.4,0.3v12.4
		c0,1.7-0.7,2-3.9,1.9c-0.1-0.4-0.3-1.1-0.5-1.6c0.7,0,1.3,0,1.8,0c1,0,1.1,0,1.1-0.4V470.5z"/>
</g>
<g>
	<path class="st6" d="M419,866c0,5.5-4.5,10-10,10H31c-5.5,0-10-4.5-10-10V514c0-5.5,4.5-10,10-10h378c5.5,0,10,4.5,10,10V866z"/>
</g>
<rect x="409" y="657" class="st2" width="20" height="64"/>
<g>
	<rect x="410.9" y="660.7" class="st3" width="16.2" height="57.6"/>
	<path d="M414.1,669.7c-0.5,0.6-1,1.1-1.5,1.5c-0.2-0.3-0.7-0.9-1-1.2c1.5-1.2,3.3-3.3,4.4-5.3l1.7,0.7c-0.1,0.1-0.2,0.2-0.4,0.1
		c-0.4,0.8-1,1.5-1.6,2.3l0.3,0.1c0,0.1-0.1,0.2-0.4,0.3v8h-1.5V669.7z M417,661.9c-0.1,0.1-0.2,0.2-0.4,0.1c-1,1.2-2.7,2.8-4.1,3.8
		c-0.2-0.3-0.6-0.9-0.8-1.2c1.3-0.9,2.9-2.3,3.7-3.5L417,661.9z M426.6,666.8v1.4h-2.4v6.1c0,1.6-0.7,1.8-3.9,1.8
		c-0.1-0.4-0.3-1.1-0.5-1.5c0.6,0,1.2,0,1.7,0c1,0,1.1,0,1.1-0.3v-6.1h-5.2v-1.4H426.6z M426,662.2v1.5h-7.9v-1.5H426z"/>
	<path d="M418,711.5c0,0.1-0.2,0.2-0.4,0.2c-0.4,2.6-1.2,4.8-4.9,6.1c-0.2-0.4-0.6-1-0.9-1.3c3.4-1,4-2.8,4.3-5.2L418,711.5z
		 M421.9,715.5c0,0.5,0.1,0.6,0.7,0.6h1.8c0.5,0,0.6-0.3,0.7-2.4c0.3,0.3,1,0.5,1.4,0.6c-0.1,2.5-0.6,3.2-2,3.2h-2.1
		c-1.6,0-2-0.5-2-2v-4.4H412v-1.5h6.4v-3h-3.1c-0.4,0.9-0.8,1.7-1.3,2.4c-0.3-0.2-1-0.6-1.3-0.7c1.1-1.3,1.9-3.5,2.3-5.2l1.8,0.4
		c0,0.1-0.2,0.2-0.4,0.2c-0.1,0.4-0.3,0.9-0.5,1.5h2.6v-2.4l1.9,0.1c0,0.1-0.1,0.2-0.4,0.3v2h5.2v1.5h-5.2v3h6.4v1.5h-4.4V715.5z"/>
</g>
<rect x="409" y="175" class="st2" width="20" height="66"/>
<g>
	<rect x="410.9" y="179" class="st3" width="16.2" height="57.6"/>
	<path d="M417.2,182.8l0.8,0.2c0,0.1,0,0.2-0.1,0.3c-0.2,2.8-0.7,5-1.4,6.8c0.7,0.6,1.4,1.2,1.8,1.7l-0.9,1.2
		c-0.4-0.5-0.9-1-1.6-1.6c-0.8,1.4-1.8,2.4-3,3.1c-0.2-0.4-0.6-0.9-0.9-1.2c1.1-0.6,2.1-1.6,2.8-2.9c-0.4-0.3-0.9-0.7-1.3-1
		l-0.2,0.6l-1.2-0.7c0.4-1.4,0.8-3.3,1.3-5.3h-1.4v-1.4h1.7c0.2-1.2,0.4-2.3,0.6-3.3l1.8,0.2c0,0.1-0.1,0.2-0.4,0.2
		c-0.2,0.9-0.4,1.8-0.6,2.8h2L417.2,182.8z M414.5,184.2c-0.3,1.3-0.6,2.7-0.9,3.9c0.5,0.3,1.1,0.7,1.6,1c0.6-1.4,0.9-3,1.1-4.9
		H414.5z M424.3,182.2c1,1.3,2.1,3,2.5,4.2l-1.3,0.7c-0.1-0.3-0.2-0.7-0.4-1c-2.4,0.2-4.8,0.4-6.4,0.5c0,0.1-0.1,0.2-0.3,0.2
		l-0.6-1.7l1.3,0c0.6-1.6,1.3-3.8,1.6-5.5l1.9,0.4c0,0.1-0.2,0.2-0.4,0.2c-0.4,1.4-1.1,3.3-1.7,4.8c1.2,0,2.5-0.1,3.8-0.2
		c-0.4-0.7-0.9-1.4-1.3-2L424.3,182.2z M419,194.5v-6.7h6.9v6.6h-1.5v-0.6h-4v0.7H419z M424.4,189.3h-4v3.2h4V189.3z"/>
	<path d="M423.6,207.4h-1.7v2.2h3.7v1.4h-3.7v2.2c0,0.6,0.1,0.6,0.6,0.6h1.6c0.5,0,0.6-0.3,0.6-2c0.3,0.3,0.9,0.5,1.4,0.6
		c-0.1,2.1-0.6,2.7-1.8,2.7h-2c-1.5,0-1.9-0.4-1.9-2V211h-2.6c-0.3,1.7-1.3,3.4-4.4,4.4c-0.2-0.4-0.7-0.9-1-1.2
		c2.5-0.8,3.5-2,3.8-3.2h-3.5v-1.4h3.6v-2.2h-1.6v-0.5c-0.7,0.5-1.5,1-2.3,1.4c-0.2-0.4-0.6-0.9-0.9-1.2c1-0.4,2.1-1.1,3-1.9
		c-0.4-0.5-1.2-1.1-1.8-1.6l1-0.8c0.6,0.4,1.3,1,1.8,1.4c0.5-0.6,1-1.2,1.3-1.9H413V201h4.6l0.2-0.1c0.5,0.2,0.8,0.4,1.1,0.5
		c0,0.1-0.1,0.1-0.2,0.2c-0.6,1.7-1.6,3.2-2.9,4.3h6.8c-1.4-1.4-2.5-3.2-3.3-5.2l1.3-0.4c0.3,0.7,0.6,1.3,0.9,1.9
		c0.6-0.5,1.3-1.2,1.8-1.7l1.3,1c0,0.1-0.1,0.1-0.2,0.1c0,0-0.1,0-0.1,0c-0.5,0.5-1.3,1.2-2,1.7c0.3,0.4,0.6,0.7,0.9,1.1
		c0.8-0.6,1.6-1.3,2.1-1.9l1.3,0.9c-0.1,0.1-0.2,0.1-0.4,0.1c-0.5,0.5-1.4,1.2-2.2,1.7c0.8,0.7,1.8,1.3,2.8,1.7
		c-0.4,0.3-0.8,0.9-1.1,1.3c-0.8-0.4-1.5-0.8-2.2-1.3V207.4z M420.3,209.6v-2.2h-2.5v2.2H420.3z"/>
	<path d="M413.2,231.3c-0.1,1.5-0.3,3.1-0.9,4l-0.8-0.5c0.6-0.8,0.8-2.3,0.8-3.7L413.2,231.3z M418,229.1l0.7,0.1c0,0.1,0,0.3,0,0.4
		c-0.2,4-0.4,5.5-0.8,6c-0.3,0.4-0.6,0.5-1.6,0.5c-0.2,0-0.5,0-0.8,0c0-0.4-0.1-0.9-0.3-1.2c0.5,0.1,1,0.1,1.2,0.1
		c0.2,0,0.3,0,0.5-0.2c0.2-0.2,0.3-0.7,0.4-1.8l-0.5,0.2c-0.1-0.6-0.5-1.5-0.8-2.1l0.7-0.2c0.3,0.5,0.6,1.1,0.8,1.6h0
		c0-0.6,0.1-1.3,0.1-2.2h-3.6v0.4h-1.3v-8.9h6.1v1.2h-2.2v1.2h1.9v1.2h-1.9v1.2h1.9v1.2h-1.9v1.3h1.4L418,229.1z M413.7,234.5
		c0-0.8,0-2-0.2-3l0.7-0.1c0.2,0.9,0.2,2.2,0.2,3L413.7,234.5z M415,223h-1.3v1.2h1.3V223z M415,226.7v-1.2h-1.3v1.2H415z
		 M413.7,227.8v1.3h1.3v-1.3H413.7z M415.3,231.2c0.3,0.8,0.6,1.9,0.6,2.6l-0.8,0.2c0-0.7-0.3-1.8-0.6-2.6L415.3,231.2z
		 M426.1,228.6h-2.5c0.5,2.8,1.4,5.2,3.2,6.3c-0.3,0.3-0.8,0.8-1,1.2c-2.1-1.5-3-4.2-3.6-7.6h-1.2c0,2.4-0.4,5.5-1.8,7.5
		c-0.3-0.2-0.9-0.6-1.2-0.8c1.5-2.1,1.6-5.1,1.6-7.4v-6.2h6.4V228.6z M424.7,223.2h-3.6v4.1h3.6V223.2z"/>
</g>
<g>
	<rect x="365.9" y="800.6" class="st3" width="16.2" height="57.6"/>
	<path d="M375.2,801.5c0,0.1-0.2,0.2-0.4,0.2c-0.2,0.6-0.6,1.4-0.9,2.1h6.4V816h-1.6v-1h-9v1h-1.5v-12.3h4c0.4-0.8,0.7-1.9,0.9-2.8
		L375.2,801.5z M378.6,805.3h-9v3.3h9V805.3z M369.6,813.5h9v-3.4h-9V813.5z"/>
	<path d="M381.4,852.3h-3.3c1,0.8,2.3,1.4,3.6,1.7c-0.3,0.3-0.7,0.8-0.9,1.1c-0.6-0.2-1.2-0.5-1.8-0.8v1.6c0,1.2-0.6,1.3-2.6,1.3
		c-0.1-0.4-0.2-0.8-0.4-1.2c0.3,0,0.7,0,0.9,0c0.5,0,0.6,0,0.6-0.2v-1.4h-2.8v3.2h-1.5v-3.2h-2.4v2.8h-1.5v-3
		c-0.6,0.4-1.3,0.7-2.1,1c-0.2-0.3-0.6-0.9-0.9-1.1c1.4-0.5,2.5-1.2,3.4-1.9h-3v-1.2h4.2c0.2-0.3,0.4-0.5,0.5-0.8H369v-4.5h10.5v4.5
		h-6.1c0,0.1-0.2,0.2-0.4,0.2c-0.1,0.2-0.2,0.4-0.4,0.6h8.7V852.3z M370.7,845.8V845h-3.7v-1.2h3.7v-1.1l1.9,0.1
		c0,0.1-0.1,0.2-0.4,0.3v0.7h3.8v-1.1l1.9,0.1c0,0.1-0.1,0.2-0.4,0.3v0.7h3.9v1.2h-3.9v0.7H376V845h-3.8v0.7H370.7z M370.4,846.8
		v0.9h7.6v-0.9H370.4z M370.4,848.6v0.9h7.6v-0.9H370.4z M371.8,852.3c-0.3,0.4-0.7,0.7-1.1,1h2.6v-1H371.8z M374.8,853.3h2.8
		c-0.4-0.3-0.7-0.7-1-1h-1.4c0,0.1-0.1,0.2-0.4,0.3V853.3z"/>
</g>
<g>
</g>
<g>
</g>
<g>
</g>
<g>
</g>
<g>
</g>
<g>
</g>
<g>
</g>
<g>
</g>
<g>
</g>
<g>
</g>
<g>
</g>
<g>
</g>
<g>
</g>
<g>
</g>
<g>
</g>
<g>
</g>
<g>
</g>
<g>
</g>
</svg>
