<?xml version="1.0" encoding="utf-8"?>
<!-- Generator: Adobe Illustrator 16.0.0, SVG Export Plug-In . SVG Version: 6.00 Build 0)  -->
<!DOCTYPE svg PUBLIC "-//W3C//DTD SVG 1.1//EN" "http://www.w3.org/Graphics/SVG/1.1/DTD/svg11.dtd">
<svg version="1.1" id="レイヤー_1" xmlns="http://www.w3.org/2000/svg" xmlns:xlink="http://www.w3.org/1999/xlink" x="0px"
	 y="0px" width="440px" height="975px" viewBox="0 0 440 975" style="enable-background:new 0 0 440 975;" xml:space="preserve">
<style type="text/css">
<![CDATA[
	.st0{fill:#E6E6E6;}
	.st1{fill:#808080;}
	.st2{fill:#1A1A1A;stroke:#000000;stroke-width:4;stroke-miterlimit:10;}
	.st3{enable-background:new    ;}
	.st4{fill:#8B8B8B;}
	.st5{fill:#BEBEBE;}
	.st6{fill:#C0C0C0;}
	.st7{fill:#C9C9C9;}
	.st8{fill:#FF0000;}
	.st9{fill:#FFFF00;}
	.st10{fill:#FFFFCC;}
	.st11{fill:#FFFFFF;}
	.st12{fill:none;}
	.st13{fill:#CCCCCC;}
	.st14{fill:#39B54A;}
	.st15{fill:#0000FF;}
]]>
</style>
<rect class="st10" width="440" height="975"/>
<rect x="155" y="569" width="131" height="45"/>
<g>
	<rect x="155" y="570.5" class="st12" width="131" height="37"/>
	<path class="st13" d="M163.5,607.5l0.5-2c3.4,0,3.8-0.5,4.6-3.6l4.7-20.3c0.2-0.9,0.3-1.6,0.3-2.1c0-1.3-0.8-1.6-3.5-1.6l0.5-2.1
		h15.2l-0.5,2.1c-3.2,0-3.6,0.5-4.3,3.7l-2.2,9.3h0.2l12-10.6c0.6-0.5,1.1-1.1,1.1-1.5c0-0.5-0.6-0.8-2.1-0.8l0.5-2.1h11.8l-0.5,2.1
		c-2.2,0-4.6,0.6-7.4,2.9l-8.8,7.5l7.6,14.5c1.2,2.2,1.8,2.6,4.1,2.6l-0.5,2h-10l-6.9-14.5l-2,1.7l-1.6,7.2
		c-0.2,0.9-0.3,1.5-0.3,2.1c0,1.3,0.8,1.6,3.4,1.6l-0.5,2H163.5z"/>
	<path class="st13" d="M217.5,596.5c0,5.4-3.2,11.4-11.3,11.4c-4.6,0-7.4-2.7-7.4-7.3c0-4.7,3.1-11.4,11.1-11.4
		C214.8,589.2,217.5,592.3,217.5,596.5z M203.5,601.8c0,2.8,0.8,5,3.2,5c3.9,0,6-6.2,6-11.7c0-1.8-0.4-4.6-3.1-4.6
		C205.8,590.4,203.5,596.7,203.5,601.8z"/>
	<path class="st13" d="M216,607.6l0.3-1.2c2,0,2.3-0.3,2.7-2.1l2.7-11.6c0.1-0.5,0.2-0.9,0.2-1.2c0-0.8-0.5-0.9-2.1-0.9l0.3-1.2h9.1
		l-0.3,1.2c-2,0-2.3,0.3-2.7,2.1l-2.7,11.6c-0.1,0.4-0.2,0.8-0.2,1.1c0,0.8,0.6,1,2.2,1l-0.2,1.2H216z"/>
	<path class="st13" d="M230.8,607.5l0.5-2c4,0,4.5-0.5,5.3-3.6l5.7-23.6h-3.3c-2.8,0-3.5,0.5-6.4,5.9h-2.8l2.8-8.3h28.3l-1.5,8.3h-3
		c0.1-0.9,0.1-1.7,0.1-2.3c0-3.4-1.1-3.6-3.8-3.6h-3l-5.3,23.6c-0.2,0.8-0.3,1.5-0.3,2c0,1.3,0.9,1.6,4,1.6l-0.5,2H230.8z"/>
	<path class="st13" d="M275.5,596.5c0,5.4-3.2,11.4-11.3,11.4c-4.6,0-7.4-2.7-7.4-7.3c0-4.7,3.1-11.4,11.1-11.4
		C272.8,589.2,275.5,592.3,275.5,596.5z M261.5,601.8c0,2.8,0.8,5,3.2,5c3.9,0,6-6.2,6-11.7c0-1.8-0.4-4.6-3.1-4.6
		C263.8,590.4,261.5,596.7,261.5,601.8z"/>
</g>
<rect x="53" y="101" class="st2" width="334" height="278"/>
<g>
	<g>
		<g class="st3">
			<g>
				<path class="st5" d="M54,102h83H54z"/>
			</g>
			<g>
				<polygon class="st1" points="135,128 137,130 54,130 56,128 				"/>
			</g>
			<g>
				<polygon class="st6" points="56,128 54,130 54,102 56,104 				"/>
			</g>
			<g>
				<polygon class="st7" points="56,104 54,102 137,102 135,104 				"/>
			</g>
			<g>
				<polygon class="st1" points="135,104 137,102 137,130 135,128 				"/>
			</g>
			<g>
				<rect x="56" y="104" class="st4" width="79" height="24"/>
			</g>
		</g>
	</g>
</g>
<rect x="56" y="104" class="st11" width="79" height="24"/>
<g>
	<rect x="56" y="111.5" class="st12" width="79" height="9"/>
	<path d="M88.7,112.6l0.4,0.2c0,0-0.1,0.1-0.1,0.1c-1.2,2-3.9,3.3-6.2,3.9c-0.1-0.2-0.2-0.4-0.3-0.5c1.2-0.2,2.4-0.7,3.5-1.3
		c-0.3-0.3-0.9-0.6-1.3-0.8l0.4-0.4c0.5,0.2,1.1,0.6,1.4,0.8c0.7-0.4,1.2-0.9,1.6-1.5h-2.7c-0.7,0.5-1.4,1-2.4,1.4
		c-0.1-0.1-0.3-0.4-0.4-0.5c1.6-0.6,2.8-1.5,3.4-2.2l0.8,0.2c0,0.1-0.1,0.1-0.2,0.1c-0.2,0.2-0.4,0.4-0.5,0.5L88.7,112.6L88.7,112.6
		z M90,115.8l0.1,0c0.3,0.2,0.4,0.2,0.4,0.2c0,0-0.1,0.1-0.1,0.1c-1.2,2.6-4,3.7-7,4.2c0-0.2-0.2-0.4-0.3-0.6
		c1.4-0.2,2.9-0.6,4.1-1.2c-0.4-0.4-1-0.8-1.5-1l0.5-0.3c0.5,0.3,1.2,0.7,1.6,1.1c0.8-0.5,1.4-1.1,1.8-1.9h-2.8
		c-0.8,0.5-1.8,1.1-2.9,1.5c-0.1-0.1-0.3-0.4-0.4-0.5c1.9-0.6,3.3-1.6,4-2.4l0.8,0.2c0,0.1-0.1,0.1-0.2,0.1
		c-0.2,0.2-0.4,0.4-0.6,0.6H90z"/>
	<path d="M99.6,113.1h-7v2.3c0,1.4-0.1,3.4-0.9,4.8c-0.1-0.1-0.3-0.3-0.5-0.4c0.7-1.3,0.8-3.1,0.8-4.4v-2.8h3.4v-0.7l0.8,0.1
		c0,0.1-0.1,0.1-0.2,0.1v0.5h3.6V113.1z M96.5,117.7v0.7h3.2v0.4h-3.2v0.8c0,0.4-0.1,0.5-0.4,0.6c-0.3,0.1-0.8,0.1-1.6,0.1
		c0-0.1-0.1-0.3-0.2-0.5c0.4,0,0.7,0,1,0c0.5,0,0.6,0,0.6-0.2v-0.8h-3.2v-0.4h3.2v-0.7h-2.7v-0.4h2.7v-0.6c-0.8,0.1-1.6,0.1-2.4,0.1
		c0-0.1-0.1-0.3-0.1-0.4c1.7,0,3.9-0.2,5-0.4l0.4,0.4c0,0-0.1,0-0.1,0c0,0,0,0-0.1,0c-0.5,0.1-1.3,0.2-2.1,0.3v0.6h2.7v0.4H96.5z
		 M96.1,114.3h-1.3v0.1c0.3,0.2,1.1,0.6,1.2,0.8l-0.3,0.4c-0.2-0.2-0.6-0.5-0.9-0.7v1.1h-0.5v-1.2c-0.4,0.5-0.8,0.9-1.3,1.1
		c-0.1-0.1-0.2-0.3-0.3-0.4c0.5-0.2,1.1-0.7,1.4-1.2h-1.2v-0.5h1.3v-0.7l0.6,0c0,0.1-0.1,0.1-0.2,0.1v0.5h1.3V114.3z M98.1,115.9
		h-0.5v-1.2c-0.4,0.5-0.8,0.9-1.3,1.1c-0.1-0.1-0.2-0.3-0.3-0.4c0.5-0.2,1-0.7,1.4-1.2h-1.1v-0.5h1.3v-0.7l0.6,0
		c0,0.1-0.1,0.1-0.2,0.1v0.5h1.4v0.5h-1.2c0.4,0.5,0.9,0.9,1.4,1.2c-0.1,0.1-0.3,0.3-0.3,0.4c-0.4-0.3-0.9-0.7-1.3-1.2V115.9z"/>
	<path d="M101.4,112.3l0.8,0.1c0,0.1-0.1,0.1-0.2,0.1v2.9c0,1.7-0.1,3.5-1.3,4.8c-0.1-0.1-0.4-0.3-0.5-0.4c1.1-1.3,1.2-2.8,1.2-4.4
		V112.3z M104.3,112.7l0.8,0c0,0.1-0.1,0.1-0.2,0.1v6.5h-0.6V112.7z M107.5,112.3l0.8,0.1c0,0.1-0.1,0.1-0.2,0.1v7.7h-0.6V112.3z"/>
</g>
<g>
	<g>
		<g class="st3">
			<g>
				<path class="st5" d="M137,102h83H137z"/>
			</g>
			<g>
				<polygon class="st1" points="218,128 220,130 137,130 139,128 				"/>
			</g>
			<g>
				<polygon class="st6" points="139,128 137,130 137,102 139,104 				"/>
			</g>
			<g>
				<polygon class="st7" points="139,104 137,102 220,102 218,104 				"/>
			</g>
			<g>
				<polygon class="st1" points="218,104 220,102 220,130 218,128 				"/>
			</g>
			<g>
				<rect x="139" y="104" class="st4" width="79" height="24"/>
			</g>
		</g>
	</g>
</g>
<rect x="139" y="104" class="st11" width="79" height="24"/>
<g>
	<rect x="139" y="111.5" class="st12" width="79" height="9"/>
	<path d="M165.6,115.4c0.5,0.2,1.2,0.5,1.6,0.8l-0.3,0.5c-0.3-0.3-1-0.6-1.6-0.9L165.6,115.4z M173.6,115h-2.7v0.7h2.2v3.9
		c0,0.6-0.3,0.6-1.3,0.6c0-0.1-0.1-0.4-0.2-0.5c0.2,0,0.4,0,0.5,0c0.4,0,0.4,0,0.4-0.1v-0.9h-1.6v1.5h-0.6v-1.5h-1.5v1.6h-0.6v-4.5
		h2.1V115h-2.5v-0.5h2.5v-0.9l0.4,0v-0.5h-2.5v0.6h-0.6v-0.6h-2.2v-0.5h2.2v-0.7l0.8,0c0,0.1-0.1,0.1-0.2,0.1v0.6h2.5v-0.7l0.8,0
		c0,0.1-0.1,0.1-0.2,0.1v0.6h2.3v0.5h-2.3v0.6H171c0,0-0.1,0.1-0.2,0.1v0.7h2.7V115z M165.5,119.8c0.4-0.5,0.9-1.5,1.3-2.3l0.4,0.4
		c-0.4,0.7-0.8,1.6-1.1,2.1c0,0,0,0.1,0,0.1c0,0,0,0.1,0,0.1L165.5,119.8z M167.2,115c-0.3-0.3-1-0.7-1.5-0.9l0.3-0.4
		c0.5,0.2,1.2,0.6,1.5,0.8L167.2,115z M170.3,116.2h-1.5v0.7h1.5V116.2z M168.7,118.2h1.5v-0.8h-1.5V118.2z M172.4,116.2h-1.6v0.7
		h1.6V116.2z M170.9,118.2h1.6v-0.8h-1.6V118.2z M171.9,113.4c0.4,0.2,0.9,0.5,1.2,0.7l-0.3,0.4c-0.3-0.2-0.8-0.6-1.2-0.7
		L171.9,113.4z"/>
	<path d="M183.8,112.5h7.5v7.7h-0.6v-0.6h-6.2v0.6h-0.6V112.5z M187.2,113h-2.8v2.6h2.8V113z M184.4,116.3v2.7h2.8v-2.7H184.4z
		 M190.6,115.7V113h-2.9v2.6H190.6z M187.8,118.9h2.9v-2.7h-2.9V118.9z"/>
</g>
<g>
	<g>
		<g class="st3">
			<g>
				<path class="st5" d="M220,102h83H220z"/>
			</g>
			<g>
				<polygon class="st1" points="301,128 303,130 220,130 222,128 				"/>
			</g>
			<g>
				<polygon class="st6" points="222,128 220,130 220,102 222,104 				"/>
			</g>
			<g>
				<polygon class="st7" points="222,104 220,102 303,102 301,104 				"/>
			</g>
			<g>
				<polygon class="st1" points="301,104 303,102 303,130 301,128 				"/>
			</g>
			<g>
				<rect x="222" y="104" class="st4" width="79" height="24"/>
			</g>
		</g>
	</g>
</g>
<rect x="222" y="104" class="st11" width="79" height="24"/>
<g>
	<rect x="222" y="111.5" class="st12" width="79" height="9"/>
	<path d="M243.8,113.4h3.6v2h-0.6v-1.5h-3v2.4h-0.6v-2.4h-3v1.5h-0.5v-2h3.5v-0.7h-3v-0.5h6.6v0.5h-3.1V113.4z M240.5,117.2v-0.5
		h5.9v3.4h-0.6v-0.4h-5.5v-0.5h5.5v-0.8h-5.1V118h5.1v-0.8H240.5z M240.5,116v-0.5h2.2v0.5H240.5z M240.7,114.5h2v0.5h-2V114.5z
		 M244.3,114.5h2v0.5h-2V114.5z M244.3,116v-0.5h2.3v0.5H244.3z"/>
	<path d="M251.8,112.3c0,0.1-0.1,0.2-0.3,0.2c-0.1,0.5-0.3,1.4-0.4,1.9c0.4,0,0.8-0.1,1-0.1c1.4,0,1.8,0.9,1.8,2.2
		c0,0.7-0.1,1.5-0.3,2c-0.3,0.9-0.9,1.4-1.6,1.4c-0.4,0-0.9-0.2-1.6-0.8c0.1-0.2,0.2-0.4,0.2-0.5c0.7,0.6,1.1,0.7,1.4,0.7
		c0.5,0,0.8-0.3,1-0.9c0.2-0.6,0.3-1.4,0.3-1.8c0-1-0.3-1.6-1.2-1.6c-0.3,0-0.6,0-1.1,0.1c-0.5,1.8-1,3.4-1.8,4.9l-0.6-0.3
		c0.9-1.4,1.4-2.8,1.8-4.5c-0.5,0.1-1.1,0.1-1.6,0.2l-0.1-0.6c0.4-0.1,1.2-0.1,1.8-0.2c0.1-0.7,0.3-1.5,0.4-2.3L251.8,112.3z
		 M253.9,112c0.4,0.3,0.9,0.9,1.2,1.3l-0.4,0.3c-0.3-0.4-0.8-1-1.2-1.3L253.9,112z M255.9,117.2c-0.3-1.3-1-2.4-1.8-3.1l0.5-0.4
		c0.9,0.7,1.7,1.9,2,3.2L255.9,117.2z M255.2,111.6c0.4,0.3,1,0.9,1.2,1.3l-0.4,0.3c-0.3-0.4-0.8-1-1.2-1.3L255.2,111.6z"/>
	<path d="M259,116.7c-0.4,0.3-0.9,0.6-1.3,0.8c-0.1-0.1-0.2-0.3-0.4-0.5c1.6-0.8,3.1-2.3,3.8-3.5l0.9,0c0,0.1-0.1,0.1-0.2,0.1
		c0.9,1.3,2.5,2.6,3.9,3.3c-0.1,0.1-0.3,0.4-0.4,0.5c-0.4-0.2-0.8-0.5-1.3-0.8v3.5h-0.6v-0.4h-3.9v0.4H259V116.7z M260.7,112.3
		c0,0.1-0.1,0.1-0.2,0.1c-0.6,0.8-1.5,1.7-2.4,2.2c-0.1-0.1-0.3-0.3-0.5-0.4c0.8-0.5,1.8-1.3,2.3-2.2L260.7,112.3z M263.9,116.5
		c-1-0.7-1.9-1.6-2.4-2.4c-0.5,0.8-1.3,1.6-2.3,2.4H263.9z M259.6,119.3h3.9v-2.2h-3.9V119.3z M262.8,112c0.9,0.6,2,1.5,2.5,2.2
		l-0.5,0.4c-0.5-0.6-1.6-1.6-2.5-2.2L262.8,112z"/>
	<path d="M274.5,115.1H271c0.6,2.2,1.7,3.8,3.7,4.5c-0.2,0.1-0.4,0.4-0.5,0.6c-1.9-0.8-3-2.4-3.7-4.5c-0.4,1.8-1.4,3.5-3.7,4.5
		c-0.1-0.2-0.3-0.4-0.4-0.5c2.4-1,3.3-2.8,3.6-4.6h-3.5v-0.6h3.6c0.1-0.9,0.1-1.9,0.1-2.6l0.8,0c0,0.1-0.1,0.1-0.2,0.2
		c0,0.7,0,1.6-0.1,2.4h3.8V115.1z"/>
	<path d="M278.1,116.8l0.1,0.5c-0.9,0.3-1.9,0.6-2.5,0.8c0,0.1,0,0.1-0.1,0.2l-0.3-0.7c0.3-0.1,0.7-0.2,1.1-0.3v-2.6h-1V114h1v-2.2
		l0.8,0.1c0,0.1-0.1,0.1-0.2,0.1v2h1v0.6h-1v2.5L278.1,116.8z M281.3,114.5c0.1,0.6,0.3,1.2,0.5,1.7c0.5-0.3,1-0.8,1.3-1.2l0.5,0.5
		c0,0.1-0.1,0.1-0.2,0c-0.4,0.3-1,0.8-1.5,1.1c0.4,0.9,1,1.6,1.7,2c-0.1,0.1-0.3,0.4-0.4,0.5c-1.3-0.8-2-2.5-2.4-4.5
		c-0.3,0.2-0.6,0.5-1,0.7c1.2,0.9,1.6,2.1,1.6,3.1c0,0.6-0.2,1.1-0.6,1.4c-0.3,0.3-0.6,0.3-1.1,0.3c-0.2,0-0.4,0-0.6,0
		c0-0.2-0.1-0.4-0.2-0.6c0.3,0,0.6,0,0.8,0c0.9,0,1-0.8,1-1.2c0-0.3,0-0.5-0.1-0.8c-0.8,0.8-2.1,1.6-3.1,2.1
		c-0.1-0.1-0.2-0.4-0.3-0.5c1.1-0.4,2.5-1.3,3.3-2.1c-0.1-0.2-0.2-0.4-0.4-0.6c-0.6,0.5-1.6,1.2-2.3,1.5c-0.1-0.1-0.2-0.3-0.4-0.4
		c0.7-0.3,1.8-0.9,2.4-1.4c-0.1-0.2-0.3-0.3-0.5-0.5c-0.4,0.3-0.9,0.5-1.3,0.7c-0.1-0.1-0.2-0.3-0.4-0.4c0.8-0.3,1.8-0.9,2.5-1.4
		h-1.7V114h4.3v0.5H281.3z M278.8,112.7v1.2h-0.6v-1.7h5.2v1.7h-0.6v-1.2H278.8z"/>
</g>
<g>
	<g>
		<g class="st3">
			<g>
				<path class="st5" d="M303,102h83H303z"/>
			</g>
			<g>
				<polygon class="st1" points="384,128 386,130 303,130 305,128 				"/>
			</g>
			<g>
				<polygon class="st6" points="305,128 303,130 303,102 305,104 				"/>
			</g>
			<g>
				<polygon class="st7" points="305,104 303,102 386,102 384,104 				"/>
			</g>
			<g>
				<polygon class="st1" points="384,104 386,102 386,130 384,128 				"/>
			</g>
			<g>
				<rect x="305" y="104" class="st4" width="79" height="24"/>
			</g>
		</g>
	</g>
</g>
<rect x="305" y="104" class="st9" width="79" height="24"/>
<g>
	<rect x="305" y="111.5" class="st12" width="79" height="9"/>
	<path d="M338,119.1h1.5v0.6h-8.1v-0.6h2.1c0.2-0.9,0.4-2,0.7-3.1h-1.8v-0.6h1.9c0.1-0.7,0.3-1.4,0.4-2.1H332v-0.6h7.1v0.6h-3.8
		c-0.1,0.7-0.2,1.4-0.4,2.1h3.1V119.1z M337.4,116h-2.6c-0.2,1.1-0.5,2.2-0.6,3.1h3.2V116z"/>
	<path d="M347.2,114.8l0.4,0.2c0,0.1-0.1,0.1-0.1,0.1c-0.4,1.4-1.1,2.5-2,3.3c0.8,0.6,1.8,1,2.9,1.3c-0.1,0.1-0.3,0.4-0.4,0.6
		c-1.2-0.3-2.2-0.8-3-1.4c-0.8,0.6-1.8,1.1-2.8,1.4c-0.1-0.2-0.2-0.4-0.4-0.6c1-0.3,1.9-0.7,2.7-1.3c-0.8-0.7-1.3-1.6-1.7-2.7
		l0.6-0.2c0.4,1,0.9,1.8,1.6,2.5c0.7-0.7,1.3-1.5,1.7-2.6h-4.6c0,1.5-0.2,3.4-1.2,4.8c-0.1-0.1-0.4-0.3-0.5-0.4
		c1-1.4,1.1-3.4,1.1-4.9v-2.5h6.7v0.6h-6v1.8h4.9L347.2,114.8z"/>
	<path d="M349.8,112.5h7.5v7.7h-0.6v-0.6h-6.2v0.6h-0.6V112.5z M353.2,113h-2.8v2.6h2.8V113z M350.4,116.3v2.7h2.8v-2.7H350.4z
		 M356.6,115.7V113h-2.9v2.6H356.6z M353.8,118.9h2.9v-2.7h-2.9V118.9z"/>
</g>
<g>
	<g>
		<g class="st3">
			<g>
				<path class="st5" d="M54,130h83H54z"/>
			</g>
			<g>
				<polygon class="st1" points="135,156 137,158 54,158 56,156 				"/>
			</g>
			<g>
				<polygon class="st6" points="56,156 54,158 54,130 56,132 				"/>
			</g>
			<g>
				<polygon class="st7" points="56,132 54,130 137,130 135,132 				"/>
			</g>
			<g>
				<polygon class="st1" points="135,132 137,130 137,158 135,156 				"/>
			</g>
			<g>
				<rect x="56" y="132" class="st4" width="79" height="24"/>
			</g>
		</g>
	</g>
</g>
<rect x="56" y="132" class="st11" width="79" height="24"/>
<g>
	<rect x="56" y="139.5" class="st12" width="79" height="9"/>
	<path d="M90.5,141.1h-3.8l-0.1,0v1.6l0-0.1c1.1,0.6,2.6,1.4,3.4,2l-0.4,0.5c-0.6-0.5-1.9-1.3-3-1.9v4.9H86v-7.1h-3.6v-0.6h8.1
		V141.1z"/>
	<path d="M97.8,147.1c0,0.3,0.1,0.4,0.3,0.4H99c0.3,0,0.3-0.3,0.4-1.7c0.1,0.1,0.4,0.2,0.6,0.3c-0.1,1.5-0.2,2-0.9,2h-1
		c-0.6,0-0.8-0.2-0.8-1v-4.7h-2.2c-0.1,0.8-0.2,1.6-0.4,2.3c0.6,0.4,1.2,0.9,1.6,1.3l-0.5,0.5c-0.3-0.3-0.8-0.7-1.4-1.2
		c-0.5,1.2-1.3,2.2-2.7,2.9c-0.1-0.2-0.3-0.4-0.5-0.5c1.4-0.7,2.2-1.7,2.6-2.8c-0.6-0.4-1.2-0.8-1.7-1.1c0.3-0.3,0.4-0.4,0.4-0.4
		c0.5,0.3,1,0.6,1.5,0.9c0.2-0.6,0.3-1.3,0.3-1.9h-2.6v-0.6h2.6c0-0.6,0-1.3,0-1.9l0.8,0c0,0.1-0.1,0.1-0.2,0.2c0,0.6,0,1.2,0,1.7
		h2.8V147.1z"/>
	<path d="M108.6,143.9v0.6h-3.8v2.9c0,0.4-0.1,0.6-0.4,0.7c-0.3,0.1-0.9,0.1-1.8,0.1c0-0.2-0.2-0.5-0.3-0.6c0.5,0,0.9,0,1.2,0
		c0.6,0,0.6,0,0.6-0.2v-2.8h-3.8v-0.6h3.8v-1.5l0.4,0c0.7-0.4,1.5-0.9,2.1-1.4h-5.3v-0.6h6l0.1,0l0.5,0.4c0,0-0.1,0.1-0.2,0.1
		c-0.7,0.7-1.9,1.5-3,2.1v1H108.6z"/>
</g>
<g>
	<g>
		<g class="st3">
			<g>
				<path class="st5" d="M137,130h83H137z"/>
			</g>
			<g>
				<polygon class="st1" points="218,156 220,158 137,158 139,156 				"/>
			</g>
			<g>
				<polygon class="st6" points="139,156 137,158 137,130 139,132 				"/>
			</g>
			<g>
				<polygon class="st7" points="139,132 137,130 220,130 218,132 				"/>
			</g>
			<g>
				<polygon class="st1" points="218,132 220,130 220,158 218,156 				"/>
			</g>
			<g>
				<rect x="139" y="132" class="st4" width="79" height="24"/>
			</g>
		</g>
	</g>
</g>
<rect x="139" y="132" class="st11" width="79" height="24"/>
<g>
	<rect x="139" y="139.5" class="st12" width="79" height="9"/>
	<path d="M165.6,142.4c0.6,0.2,1.3,0.6,1.7,0.9l-0.3,0.5c-0.4-0.3-1.1-0.7-1.7-1L165.6,142.4z M165.6,147.7c0.5-0.7,1.1-1.9,1.6-3
		l0.5,0.4c-0.5,1-1,2.1-1.5,2.8c0,0,0,0.1,0,0.1c0,0,0,0.1,0,0.1L165.6,147.7z M166.1,139.9c0.6,0.3,1.3,0.7,1.6,1l-0.4,0.5
		c-0.3-0.3-1-0.8-1.6-1L166.1,139.9z M169.2,146.8c0,0.5,0.1,0.6,0.8,0.6h2.4c0.6,0,0.6-0.3,0.7-1.3c0.1,0.1,0.4,0.2,0.6,0.2
		c-0.1,1.2-0.3,1.6-1.3,1.6H170c-1.1,0-1.4-0.2-1.4-1.2v-3l-0.9,0.4l-0.3-0.5l1.1-0.5v-2.4l0.8,0c0,0.1-0.1,0.1-0.2,0.1v2l1.3-0.6
		v-2.5l0.7,0c0,0.1-0.1,0.1-0.2,0.1v2.1l1.5-0.6c0,0,0.1-0.1,0.2-0.1l0.5,0.2c0,0-0.1,0.1-0.1,0.1c0,1.7,0,3.1-0.1,3.5
		c-0.1,0.6-0.4,0.7-1.5,0.7c0-0.2-0.1-0.4-0.2-0.6c0.1,0,0.3,0,0.4,0c0.5,0,0.6,0,0.6-0.3c0.1-0.3,0.1-1.3,0.1-2.8l-1.5,0.6v3.4
		h-0.6V143l-1.3,0.6V146.8z"/>
	<path d="M187.5,147.1h4.1v0.6h-8.2v-0.6h3.5V140l0.8,0.1c0,0.1-0.1,0.1-0.2,0.1v2.7h3.5v0.6h-3.5V147.1z"/>
</g>
<g>
	<g>
		<g class="st3">
			<g>
				<path class="st5" d="M220,130h83H220z"/>
			</g>
			<g>
				<polygon class="st1" points="301,156 303,158 220,158 222,156 				"/>
			</g>
			<g>
				<polygon class="st6" points="222,156 220,158 220,130 222,132 				"/>
			</g>
			<g>
				<polygon class="st7" points="222,132 220,130 303,130 301,132 				"/>
			</g>
			<g>
				<polygon class="st1" points="301,132 303,130 303,158 301,156 				"/>
			</g>
			<g>
				<rect x="222" y="132" class="st4" width="79" height="24"/>
			</g>
		</g>
	</g>
</g>
<rect x="222" y="132" class="st11" width="79" height="24"/>
<g>
	<rect x="222" y="139.5" class="st12" width="79" height="9"/>
	<path d="M251.2,143.2l0.3,0c0,0.1,0,0.1,0,0.2c-0.1,3.1-0.1,4.2-0.4,4.5c-0.2,0.3-0.4,0.3-0.9,0.3c-0.2,0-0.3,0-0.5,0
		c0-0.2-0.1-0.4-0.2-0.6c0.4,0,0.7,0,0.9,0c0.1,0,0.2,0,0.2-0.1c0.2-0.2,0.2-1.1,0.3-3.8h-1.1c-0.1,1.7-0.4,3.3-1.1,4.4
		c-0.1-0.1-0.3-0.3-0.5-0.4c0.9-1.3,1-3.6,1.1-5.9h-1v-0.6h1.5v-1.5l0.8,0c0,0.1-0.1,0.1-0.2,0.1v1.3h1.5v0.5c0.4-0.5,0.7-1.3,0.9-2
		l0.7,0.2c0,0.1-0.1,0.1-0.2,0.1c-0.1,0.3-0.2,0.5-0.3,0.8h3.6v0.5h-3.8c-0.2,0.4-0.5,0.7-0.7,1c-0.1-0.1-0.3-0.2-0.4-0.3l0.2-0.2
		h-1.9c0,0.4,0,0.9,0,1.3H251.2z M253.9,146.9c0,0-0.1,0.1-0.2,0.1c-0.4,0.4-1.1,1-1.8,1.3c-0.1-0.1-0.3-0.3-0.4-0.4
		c0.7-0.3,1.4-0.8,1.8-1.2L253.9,146.9z M251.8,146h1v-2.8H252v-0.5h0.8v-0.9l0.7,0c0,0.1-0.1,0.1-0.2,0.1v0.7h1.7v-0.9l0.7,0
		c0,0.1-0.1,0.1-0.2,0.1v0.7h0.8v0.5h-0.8v2.8h1v0.5h-4.9V146z M255.1,143.1h-1.7v0.6h1.7V143.1z M253.4,144.2v0.6h1.7v-0.6H253.4z
		 M253.4,145.3v0.7h1.7v-0.7H253.4z M256.3,148.2c-0.3-0.4-1-0.9-1.6-1.3l0.4-0.3c0.6,0.4,1.3,0.9,1.6,1.3L256.3,148.2z"/>
	<path d="M262,141.5c0,0.1-0.1,0.1-0.2,0.1c-0.3,2.8-1.3,5.2-2.8,5.2c-0.8,0-1.4-0.8-1.4-2.2c0-2.2,1.7-4,4.1-4
		c2.6,0,3.7,1.6,3.7,3.4c0,2.1-1.2,3.2-3.4,3.7c-0.1-0.1-0.2-0.4-0.4-0.5c2.1-0.4,3.1-1.4,3.1-3.1c0-1.5-1-2.8-3.1-2.8
		c-0.1,0-0.2,0-0.3,0L262,141.5z M261.1,141.3c-1.8,0.2-2.9,1.7-2.9,3.3c0,1,0.4,1.6,0.8,1.6C260.1,146.2,260.9,143.8,261.1,141.3z"
		/>
	<path d="M272.1,141c1,0.7,2.1,1.8,2.6,2.6l-0.5,0.4c-0.2-0.3-0.4-0.5-0.7-0.8c-2.5,0.1-5.2,0.2-6.9,0.3c0,0.1-0.1,0.1-0.1,0.1
		l-0.2-0.7l1.5,0c0.6-0.8,1.3-2,1.7-2.9l0.8,0.3c0,0.1-0.1,0.1-0.2,0.1c-0.4,0.8-1,1.8-1.5,2.5l4.5-0.1c-0.4-0.4-0.9-0.9-1.4-1.2
		L272.1,141z M267.6,148.2v-3.8h5.7v3.8h-0.6v-0.4h-4.5v0.4H267.6z M272.7,144.9h-4.5v2.3h4.5V144.9z"/>
</g>
<g>
	<g>
		<g class="st3">
			<g>
				<path class="st5" d="M303,130h83H303z"/>
			</g>
			<g>
				<polygon class="st1" points="384,156 386,158 303,158 305,156 				"/>
			</g>
			<g>
				<polygon class="st6" points="305,156 303,158 303,130 305,132 				"/>
			</g>
			<g>
				<polygon class="st7" points="305,132 303,130 386,130 384,132 				"/>
			</g>
			<g>
				<polygon class="st1" points="384,132 386,130 386,158 384,156 				"/>
			</g>
			<g>
				<rect x="305" y="132" class="st4" width="79" height="24"/>
			</g>
		</g>
	</g>
</g>
<rect x="305" y="132" class="st11" width="79" height="24"/>
<g>
	<g>
		<g class="st3">
			<g>
				<path class="st5" d="M54,170h83H54z"/>
			</g>
			<g>
				<polygon class="st1" points="135,196 137,198 54,198 56,196 				"/>
			</g>
			<g>
				<polygon class="st6" points="56,196 54,198 54,170 56,172 				"/>
			</g>
			<g>
				<polygon class="st7" points="56,172 54,170 137,170 135,172 				"/>
			</g>
			<g>
				<polygon class="st1" points="135,172 137,170 137,198 135,196 				"/>
			</g>
			<g>
				<rect x="56" y="172" class="st4" width="79" height="24"/>
			</g>
		</g>
	</g>
</g>
<rect x="56" y="172" class="st15" width="79" height="24"/>
<g>
	<rect x="56" y="179.5" class="st12" width="79" height="9"/>
	<path class="st11" d="M88.9,180.7l0.5,0.3c0,0-0.1,0.1-0.1,0.1c-0.5,0.9-1.3,1.7-2.2,2.3c1.1,0.7,2.4,1.2,3.7,1.5
		c-0.1,0.1-0.3,0.4-0.4,0.5c-0.4-0.1-0.8-0.2-1.1-0.3v3.1h-0.6v-0.4h-4.2v0.4h-0.6V185c-0.4,0.2-0.8,0.3-1.3,0.4
		c-0.1-0.2-0.2-0.4-0.3-0.5c1.2-0.3,2.6-0.8,3.7-1.5c-0.6-0.5-1.2-1-1.6-1.5c-0.5,0.5-1,0.9-1.6,1.2c-0.1-0.1-0.3-0.3-0.4-0.4
		c1.1-0.6,2.3-1.7,3-2.8l0.7,0.3c0,0.1-0.1,0.1-0.2,0.1c-0.1,0.2-0.3,0.4-0.5,0.6h3.4L88.9,180.7z M88.8,184.9
		c-0.8-0.3-1.6-0.7-2.3-1.2c-0.7,0.5-1.5,0.9-2.3,1.2H88.8z M84.4,187.2h4.2v-1.8h-4.2V187.2z M84.9,181.3l-0.2,0.2
		c0.5,0.6,1,1.1,1.7,1.6c0.7-0.5,1.4-1.1,1.9-1.8H84.9z"/>
	<path class="st11" d="M101.4,183c-0.3,0.5-0.7,1.1-1,1.5c-0.1-0.1-0.2-0.4-0.3-0.6c0.8-0.9,1.6-2.5,2.1-4.1l0.7,0.2
		c0,0.1-0.1,0.1-0.2,0.1c-0.2,0.6-0.5,1.2-0.8,1.8l0.2,0.1c0,0.1-0.1,0.1-0.2,0.1v6h-0.6V183z M102.6,184.2h6.1v1.5h-0.6v-1h-5v1
		h-0.5V184.2z M102.8,180.7h2.6v-0.9l0.8,0c0,0.1-0.1,0.1-0.2,0.1v0.7h2.7v0.5h-5.9V180.7z M107.9,183.6h-4.4v-1.8h4.4V183.6z
		 M103.6,185.8v-0.5h4.2v0.5H106v1.7c0,0.4-0.1,0.5-0.4,0.6c-0.3,0.1-0.6,0.1-1.6,0.1c0-0.2-0.1-0.4-0.2-0.6c0.3,0,0.7,0,0.9,0
		c0.7,0,0.7,0,0.7-0.2v-1.6H103.6z M104.1,182.2v0.9h3.2v-0.9H104.1z"/>
</g>
<g>
	<g>
		<g class="st3">
			<g>
				<path class="st5" d="M137,170h83H137z"/>
			</g>
			<g>
				<polygon class="st1" points="218,196 220,198 137,198 139,196 				"/>
			</g>
			<g>
				<polygon class="st6" points="139,196 137,198 137,170 139,172 				"/>
			</g>
			<g>
				<polygon class="st7" points="139,172 137,170 220,170 218,172 				"/>
			</g>
			<g>
				<polygon class="st1" points="218,172 220,170 220,198 218,196 				"/>
			</g>
			<g>
				<rect x="139" y="172" class="st4" width="79" height="24"/>
			</g>
		</g>
	</g>
</g>
<rect x="139" y="172" class="st11" width="79" height="24"/>
<g>
	<rect x="139" y="179.5" class="st12" width="79" height="9"/>
	<path class="st8" d="M165.3,181.8v-0.5h3.2v0.5H165.3z M168.3,185v2.6h-2.1v0.4h-0.5V185H168.3z M168.3,182.6v0.5h-2.6v-0.5H168.3z
		 M165.7,184.3v-0.5h2.6v0.5H165.7z M168.2,180.1v0.5h-2.5v-0.5H168.2z M167.7,185.5h-1.5v1.6h1.5V185.5z M170.3,186.6l1.1-0.2
		l0,0.5c-1,0.2-2,0.5-2.6,0.6c0,0.1-0.1,0.1-0.1,0.1l-0.3-0.6c0.3-0.1,0.8-0.1,1.2-0.2v-2.7h-1v-0.5h2.5v0.5h-1V186.6z M173.6,182.2
		h-1.4c0.1,2.8,0.2,5.2,0.9,5.3h0c0.1,0,0.2-0.6,0.3-1.3c0.1,0.1,0.3,0.3,0.4,0.3c-0.1,1.1-0.4,1.6-0.8,1.6c-0.1,0-0.1,0-0.2,0
		c-1-0.3-1.2-2.8-1.3-5.9h-2.9v-0.6h2.9l0-1.8l0.8,0c0,0.1-0.1,0.1-0.2,0.1c0,0.6,0,1.1,0,1.7h1.4V182.2z M172.7,179.9
		c0.4,0.4,0.8,0.8,1,1.2l-0.5,0.3c-0.2-0.3-0.6-0.9-1-1.2L172.7,179.9z"/>
	<path class="st8" d="M176.1,183.4v3c0.7,1.1,2,1.1,3.7,1.1c1,0,2.1,0,2.8-0.1c-0.1,0.1-0.2,0.4-0.2,0.6c-0.6,0-1.6,0-2.5,0
		c-2,0-3.2,0-4.1-1.1c-0.4,0.4-0.8,0.8-1.2,1.1c0,0.1,0,0.1-0.1,0.1l-0.4-0.6c0.4-0.3,0.9-0.7,1.3-1.1V184h-1.2v-0.6H176.1z
		 M174.9,180c0.6,0.4,1.2,1.1,1.5,1.5l-0.5,0.4c-0.3-0.5-0.9-1.1-1.5-1.5L174.9,180z M179.2,187.2v-0.9h-2.7v-0.5h2.7v-0.6h-2v-2.6
		h2V182h-2.3v-0.5h2.3v-0.7l0.8,0c0,0.1-0.1,0.1-0.2,0.1v0.5h2.3v0.5h-2.3v0.6h2v2.6h-2v0.6h2.7v0.5h-2.7v0.9H179.2z M177.3,180.6
		v0.7h-0.5v-1.2h5.6v1.2h-0.6v-0.7H177.3z M177.8,183v0.6h1.4V183H177.8z M177.8,184.7h1.4v-0.7h-1.4V184.7z M181.3,183h-1.5v0.6
		h1.5V183z M181.3,184.7v-0.7h-1.5v0.7H181.3z"/>
	<path class="st8" d="M187.4,186.6h-1.8v1.6h-0.6v-1.6h-1.8V186h1.8v-0.8h-1.4v-3.2h1.4v-0.7h-1.7v-0.5h1.7v-1l0.7,0
		c0,0.1-0.1,0.1-0.2,0.1v0.8h1.6v0.5h-1.6v0.7h1.5v3.2h-1.5v0.8h1.8V186.6z M184.2,182.6v0.9h1v-0.9H184.2z M184.2,183.9v0.9h1v-0.9
		H184.2z M186.7,183.4v-0.9h-1v0.9H186.7z M186.7,184.8v-0.9h-1v0.9H186.7z M190.5,185.1c0.5,0.9,1,2.1,1.2,2.9l-0.6,0.2
		c0-0.2-0.1-0.4-0.2-0.7c-1.3,0.1-2.6,0.3-3.4,0.4c0,0.1-0.1,0.1-0.1,0.1l-0.2-0.7c0.2,0,0.5,0,0.7,0c0.3-0.9,0.6-2.3,0.8-3.3h-1.3
		v-0.6h4.3v0.6h-2.4c-0.2,1-0.5,2.3-0.8,3.3c0.7,0,1.5-0.1,2.3-0.2c-0.2-0.6-0.5-1.2-0.8-1.7L190.5,185.1z M191.3,180.5v0.6h-3.5
		v-0.6H191.3z"/>
</g>
<g>
	<g>
		<g class="st3">
			<g>
				<path class="st5" d="M220,170h83H220z"/>
			</g>
			<g>
				<polygon class="st1" points="301,196 303,198 220,198 222,196 				"/>
			</g>
			<g>
				<polygon class="st6" points="222,196 220,198 220,170 222,172 				"/>
			</g>
			<g>
				<polygon class="st7" points="222,172 220,170 303,170 301,172 				"/>
			</g>
			<g>
				<polygon class="st1" points="301,172 303,170 303,198 301,196 				"/>
			</g>
			<g>
				<rect x="222" y="172" class="st4" width="79" height="24"/>
			</g>
		</g>
	</g>
</g>
<rect x="222" y="172" class="st11" width="79" height="24"/>
<g>
	<rect x="222" y="179.5" class="st12" width="79" height="9"/>
	<path class="st14" d="M248.8,180.4h7.4v7.8h-0.6v-0.6h-6.2v0.6h-0.6V180.4z M249.4,186.9h6.2V181h-6.2V186.9z M250.8,182.4h3.4v3.1
		h-3.4V182.4z M253.6,184.9v-2h-2.3v2H253.6z"/>
	<path class="st14" d="M268.3,183.4v2.9c0.7,1.1,2,1.1,3.6,1.1c1,0,2.1,0,2.8-0.1c-0.1,0.1-0.2,0.4-0.2,0.6c-0.6,0-1.6,0-2.5,0
		c-1.9,0-3.1,0-4-1.1c-0.4,0.4-0.9,0.8-1.3,1.1c0,0.1,0,0.1-0.1,0.1l-0.4-0.7c0.4-0.3,1-0.7,1.4-1.1V184h-1.3v-0.6H268.3z
		 M266.9,180c0.6,0.4,1.3,1,1.6,1.4l-0.5,0.4c-0.3-0.5-1-1.1-1.6-1.5L266.9,180z M274.6,184h-2.4c0.4,1.2,1.2,2,2.4,2.4
		c-0.1,0.1-0.3,0.3-0.4,0.5c-1.2-0.4-2-1.2-2.5-2.5c-0.3,0.8-0.9,1.7-2.4,2.4c-0.1-0.1-0.3-0.3-0.4-0.5c1.6-0.7,2.2-1.6,2.3-2.4
		h-2.4v-0.6h2.5c0-0.1,0-0.2,0-0.3v-1h-2.2v-0.6h3.6l-0.5-0.2c0.3-0.4,0.7-1.1,0.9-1.5l0.7,0.3c0,0.1-0.1,0.1-0.2,0.1
		c-0.2,0.4-0.6,1-0.9,1.4h1.6v0.6h-2.4v1c0,0.1,0,0.2,0,0.3h2.7V184z M270.3,181.6c-0.1-0.4-0.5-1.1-0.8-1.5l0.5-0.2
		c0.4,0.5,0.7,1.1,0.8,1.5L270.3,181.6z"/>
</g>
<g>
	<g>
		<g class="st3">
			<g>
				<path class="st5" d="M303,170h83H303z"/>
			</g>
			<g>
				<polygon class="st1" points="384,196 386,198 303,198 305,196 				"/>
			</g>
			<g>
				<polygon class="st6" points="305,196 303,198 303,170 305,172 				"/>
			</g>
			<g>
				<polygon class="st7" points="305,172 303,170 386,170 384,172 				"/>
			</g>
			<g>
				<polygon class="st1" points="384,172 386,170 386,198 384,196 				"/>
			</g>
			<g>
				<rect x="305" y="172" class="st4" width="79" height="24"/>
			</g>
		</g>
	</g>
</g>
<rect x="305" y="172" class="st11" width="79" height="24"/>
<g>
	<rect x="305" y="179.5" class="st12" width="79" height="9"/>
	<path class="st8" d="M336.6,180c0,0.1-0.1,0.1-0.2,0.1c-0.1,0.2-0.2,0.5-0.2,0.7h3.5v0.5H336c-0.2,0.6-0.5,1.1-0.8,1.5
		c-0.1-0.1-0.3-0.3-0.4-0.4v2.7h-1.1v1.6h1.3v0.6h-2.7v0.5h-0.5v-7.5h3.3v0.5h-1.3v1.4h1.1v0.2c0.5-0.6,0.9-1.7,1.2-2.7L336.6,180z
		 M333,180.9h-0.9v1.4h0.9V180.9z M334.2,184.6v-1.7h-2v1.7H334.2z M333,186.7v-1.6h-0.9v1.6H333z M335.1,188.2V185h1.9v3.1h-0.5
		v-0.4h-0.9v0.5H335.1z M336.4,185.5h-0.9v1.7h0.9V185.5z M338.8,182.1v2.2h-3.1v-2.2H338.8z M338.3,183.8v-1.2h-2v1.2H338.3z
		 M337.5,188.2V185h2v3.1h-0.5v-0.4h-1v0.5H337.5z M338.9,185.5h-1v1.7h1V185.5z"/>
	<path class="st8" d="M352.2,180.4v6h-2v0.7h-0.6v-6.7H352.2z M351.6,181h-1.4v2.1h1.4V181z M350.2,185.8h1.4v-2.2h-1.4V185.8z
		 M355.3,182.7h2.4v0.5h-5.3v-0.5h2.3v-1.2h-2v-0.5h2v-1.1l0.8,0c0,0.1-0.1,0.1-0.2,0.1v0.9h2v0.5h-2V182.7z M356.7,183.5
		c0,0.1-0.1,0.1-0.2,0.1v0.8h1.1v0.5h-1.1v2.5c0,0.4-0.1,0.5-0.4,0.6c-0.3,0.1-0.7,0.1-1.5,0.1c0-0.2-0.1-0.4-0.2-0.6
		c0.3,0,0.7,0,0.9,0c0.5,0,0.5,0,0.5-0.2V185h-3.6v-0.5h3.6v-0.9L356.7,183.5z M354.2,187.3c-0.2-0.5-0.7-1.1-1.2-1.6l0.5-0.3
		c0.5,0.5,1,1.1,1.2,1.6L354.2,187.3z"/>
</g>
<g>
	<g>
		<g class="st3">
			<g>
				<path class="st5" d="M54,210h83H54z"/>
			</g>
			<g>
				<polygon class="st1" points="135,236 137,238 54,238 56,236 				"/>
			</g>
			<g>
				<polygon class="st6" points="56,236 54,238 54,210 56,212 				"/>
			</g>
			<g>
				<polygon class="st7" points="56,212 54,210 137,210 135,212 				"/>
			</g>
			<g>
				<polygon class="st1" points="135,212 137,210 137,238 135,236 				"/>
			</g>
			<g>
				<rect x="56" y="212" class="st4" width="79" height="24"/>
			</g>
		</g>
	</g>
</g>
<rect x="56" y="212" class="st11" width="79" height="24"/>
<g>
	<rect x="56" y="219.5" class="st12" width="79" height="9"/>
	<path d="M78.1,223.4c0.5,0.2,1.2,0.5,1.6,0.8l-0.3,0.5c-0.3-0.3-1-0.6-1.6-0.9L78.1,223.4z M86.1,223h-2.7v0.7h2.2v3.9
		c0,0.6-0.3,0.6-1.3,0.6c0-0.1-0.1-0.4-0.2-0.5c0.2,0,0.4,0,0.5,0c0.4,0,0.4,0,0.4-0.1v-0.9h-1.6v1.5h-0.6v-1.5h-1.5v1.6h-0.6v-4.5
		h2.1V223h-2.5v-0.5h2.5v-0.9l0.4,0v-0.5h-2.5v0.6h-0.6v-0.6h-2.2v-0.5h2.2v-0.7l0.8,0c0,0.1-0.1,0.1-0.2,0.1v0.6h2.5v-0.7l0.8,0
		c0,0.1-0.1,0.1-0.2,0.1v0.6h2.3v0.5h-2.3v0.6h-0.3c0,0-0.1,0.1-0.2,0.1v0.7h2.7V223z M78,227.8c0.4-0.5,0.9-1.5,1.3-2.3l0.4,0.4
		c-0.4,0.7-0.8,1.6-1.1,2.1c0,0,0,0.1,0,0.1c0,0,0,0.1,0,0.1L78,227.8z M79.7,223c-0.3-0.3-1-0.7-1.5-0.9l0.3-0.4
		c0.5,0.2,1.2,0.6,1.5,0.8L79.7,223z M82.8,224.2h-1.5v0.7h1.5V224.2z M81.2,226.2h1.5v-0.8h-1.5V226.2z M84.9,224.2h-1.6v0.7h1.6
		V224.2z M83.4,226.2h1.6v-0.8h-1.6V226.2z M84.4,221.4c0.4,0.2,0.9,0.5,1.2,0.7l-0.3,0.4c-0.3-0.2-0.8-0.6-1.2-0.7L84.4,221.4z"/>
	<path d="M87.3,220.5h7.5v7.7h-0.6v-0.6h-6.2v0.6h-0.6V220.5z M90.7,221h-2.8v2.6h2.8V221z M87.9,224.3v2.7h2.8v-2.7H87.9z
		 M94.1,223.7V221h-2.9v2.6H94.1z M91.3,226.9h2.9v-2.7h-2.9V226.9z"/>
	<path d="M100,228.2c-2.3,0-4.2-1.9-4.2-4.2c0-2.3,1.9-4.2,4.2-4.2c2.3,0,4.2,1.9,4.2,4.2C104.2,226.3,102.3,228.2,100,228.2z
		 M96.1,224c0,2.2,1.7,3.9,3.9,3.9s3.9-1.7,3.9-3.9s-1.7-3.9-3.9-3.9C97.8,220.1,96.1,221.9,96.1,224z M99.8,222.2L99.8,222.2
		l-0.8,0.4l-0.1-0.5l0.9-0.5h0.6v4.6h-0.6V222.2z"/>
	<path d="M110.1,227.3h2.9v0.6h-6.5v-0.6h3v-2.9h-2.1V224c-0.5,1.4-1.2,2.6-2.3,3.6c-0.1-0.1-0.3-0.4-0.4-0.5
		c1.4-1.3,2.2-3.1,2.7-5.1h-2.3v-0.6h2.4c0.1-0.6,0.2-1.1,0.3-1.7l0.8,0.1c0,0.1-0.1,0.1-0.2,0.1c-0.1,0.5-0.2,0.9-0.3,1.4h4.7v0.6
		H108c-0.2,0.6-0.3,1.2-0.6,1.8h5.1v0.6h-2.5V227.3z"/>
</g>
<g>
	<g>
		<g class="st3">
			<g>
				<path class="st5" d="M137,210h83H137z"/>
			</g>
			<g>
				<polygon class="st1" points="218,236 220,238 137,238 139,236 				"/>
			</g>
			<g>
				<polygon class="st6" points="139,236 137,238 137,210 139,212 				"/>
			</g>
			<g>
				<polygon class="st7" points="139,212 137,210 220,210 218,212 				"/>
			</g>
			<g>
				<polygon class="st1" points="218,212 220,210 220,238 218,236 				"/>
			</g>
			<g>
				<rect x="139" y="212" class="st4" width="79" height="24"/>
			</g>
		</g>
	</g>
</g>
<rect x="139" y="212" class="st9" width="79" height="24"/>
<g>
	<rect x="139" y="219.5" class="st12" width="79" height="9"/>
	<path d="M161.1,223.4c0.5,0.2,1.2,0.5,1.6,0.8l-0.3,0.5c-0.3-0.3-1-0.6-1.6-0.9L161.1,223.4z M169.1,223h-2.7v0.7h2.2v3.9
		c0,0.6-0.3,0.6-1.3,0.6c0-0.1-0.1-0.4-0.2-0.5c0.2,0,0.4,0,0.5,0c0.4,0,0.4,0,0.4-0.1v-0.9h-1.6v1.5h-0.6v-1.5h-1.5v1.6h-0.6v-4.5
		h2.1V223h-2.5v-0.5h2.5v-0.9l0.4,0v-0.5h-2.5v0.6h-0.6v-0.6h-2.2v-0.5h2.2v-0.7l0.8,0c0,0.1-0.1,0.1-0.2,0.1v0.6h2.5v-0.7l0.8,0
		c0,0.1-0.1,0.1-0.2,0.1v0.6h2.3v0.5h-2.3v0.6h-0.3c0,0-0.1,0.1-0.2,0.1v0.7h2.7V223z M161,227.8c0.4-0.5,0.9-1.5,1.3-2.3l0.4,0.4
		c-0.4,0.7-0.8,1.6-1.1,2.1c0,0,0,0.1,0,0.1c0,0,0,0.1,0,0.1L161,227.8z M162.7,223c-0.3-0.3-1-0.7-1.5-0.9l0.3-0.4
		c0.5,0.2,1.2,0.6,1.5,0.8L162.7,223z M165.8,224.2h-1.5v0.7h1.5V224.2z M164.2,226.2h1.5v-0.8h-1.5V226.2z M167.9,224.2h-1.6v0.7
		h1.6V224.2z M166.4,226.2h1.6v-0.8h-1.6V226.2z M167.4,221.4c0.4,0.2,0.9,0.5,1.2,0.7l-0.3,0.4c-0.3-0.2-0.8-0.6-1.2-0.7
		L167.4,221.4z"/>
	<path d="M170.3,220.5h7.5v7.7h-0.6v-0.6h-6.2v0.6h-0.6V220.5z M173.7,221h-2.8v2.6h2.8V221z M170.9,224.3v2.7h2.8v-2.7H170.9z
		 M177.1,223.7V221h-2.9v2.6H177.1z M174.3,226.9h2.9v-2.7h-2.9V226.9z"/>
	<path d="M183,228.2c-2.3,0-4.2-1.9-4.2-4.2c0-2.3,1.9-4.2,4.2-4.2c2.3,0,4.2,1.9,4.2,4.2C187.2,226.3,185.3,228.2,183,228.2z
		 M179.1,224c0,2.2,1.7,3.9,3.9,3.9s3.9-1.7,3.9-3.9s-1.7-3.9-3.9-3.9C180.8,220.1,179.1,221.9,179.1,224z M181.4,226.3v-0.4
		l0.5-0.5c1.5-1.3,1.9-1.7,1.9-2.3c0-0.4-0.2-0.9-1-0.9c-0.4,0-0.8,0.2-1.1,0.4l-0.2-0.4c0.4-0.3,0.9-0.5,1.4-0.5
		c1.1,0,1.5,0.8,1.5,1.3c0,0.9-0.6,1.4-1.9,2.5l-0.3,0.3v0h2.3v0.5H181.4z"/>
	<path d="M196,222.1h-4.8c-0.2,0.6-0.5,1.3-0.9,1.8h5v4.2h-0.6v-0.5h-4.2v0.5h-0.6v-3.6c-0.5,0.7-1.1,1.3-1.7,1.7
		c-0.1-0.1-0.3-0.4-0.4-0.5c1.3-0.9,2.2-2.3,2.8-3.8H188v-0.6h2.7c0.2-0.6,0.4-1.2,0.5-1.7l0.8,0.2c0,0.1-0.1,0.1-0.2,0.1
		c-0.1,0.5-0.3,1-0.4,1.4h4.6V222.1z M194.7,224.6h-4.2v2.5h4.2V224.6z"/>
</g>
<g>
	<g>
		<g class="st3">
			<g>
				<path class="st5" d="M220,210h83H220z"/>
			</g>
			<g>
				<polygon class="st1" points="301,236 303,238 220,238 222,236 				"/>
			</g>
			<g>
				<polygon class="st6" points="222,236 220,238 220,210 222,212 				"/>
			</g>
			<g>
				<polygon class="st7" points="222,212 220,210 303,210 301,212 				"/>
			</g>
			<g>
				<polygon class="st1" points="301,212 303,210 303,238 301,236 				"/>
			</g>
			<g>
				<rect x="222" y="212" class="st4" width="79" height="24"/>
			</g>
		</g>
	</g>
</g>
<rect x="222" y="212" class="st11" width="79" height="24"/>
<g>
	<rect x="222" y="219.5" class="st12" width="79" height="9"/>
	<path d="M246,227.1h1.5v0.6h-8.1v-0.6h2.1c0.2-0.9,0.4-2,0.7-3.1h-1.8v-0.6h1.9c0.1-0.7,0.3-1.4,0.4-2.1H240v-0.6h7.1v0.6h-3.8
		c-0.1,0.7-0.2,1.4-0.4,2.1h3.1V227.1z M245.4,224h-2.6c-0.2,1.1-0.5,2.2-0.6,3.1h3.2V224z"/>
	<path d="M255.2,222.8l0.4,0.2c0,0.1-0.1,0.1-0.1,0.1c-0.4,1.4-1.1,2.5-2,3.3c0.8,0.6,1.8,1,2.9,1.3c-0.1,0.1-0.3,0.4-0.4,0.6
		c-1.2-0.3-2.2-0.8-3-1.4c-0.8,0.6-1.8,1.1-2.8,1.4c-0.1-0.2-0.2-0.4-0.4-0.6c1-0.3,1.9-0.7,2.7-1.3c-0.8-0.7-1.3-1.6-1.7-2.7
		l0.6-0.2c0.4,1,0.9,1.8,1.6,2.5c0.7-0.7,1.3-1.5,1.7-2.6h-4.6c0,1.5-0.2,3.4-1.2,4.8c-0.1-0.1-0.4-0.3-0.5-0.4
		c1-1.4,1.1-3.4,1.1-4.9v-2.5h6.7v0.6h-6v1.8h4.9L255.2,222.8z"/>
	<path d="M257.8,220.5h7.5v7.7h-0.6v-0.6h-6.2v0.6h-0.6V220.5z M261.2,221h-2.8v2.6h2.8V221z M258.4,224.3v2.7h2.8v-2.7H258.4z
		 M264.6,223.7V221h-2.9v2.6H264.6z M261.8,226.9h2.9v-2.7h-2.9V226.9z"/>
	<path d="M270.5,228.2c-2.3,0-4.2-1.9-4.2-4.2c0-2.3,1.9-4.2,4.2-4.2c2.3,0,4.2,1.9,4.2,4.2C274.7,226.3,272.8,228.2,270.5,228.2z
		 M266.6,224c0,2.2,1.7,3.9,3.9,3.9c2.2,0,3.9-1.7,3.9-3.9s-1.7-3.9-3.9-3.9C268.3,220.1,266.6,221.9,266.6,224z M270.3,222.2
		L270.3,222.2l-0.8,0.4l-0.1-0.5l0.9-0.5h0.6v4.6h-0.6V222.2z"/>
	<path d="M280.6,227.3h2.9v0.6H277v-0.6h3v-2.9h-2.1V224c-0.5,1.4-1.2,2.6-2.3,3.6c-0.1-0.1-0.3-0.4-0.4-0.5
		c1.4-1.3,2.2-3.1,2.7-5.1h-2.3v-0.6h2.4c0.1-0.6,0.2-1.1,0.3-1.7l0.8,0.1c0,0.1-0.1,0.1-0.2,0.1c-0.1,0.5-0.2,0.9-0.3,1.4h4.7v0.6
		h-4.9c-0.2,0.6-0.3,1.2-0.6,1.8h5.1v0.6h-2.5V227.3z"/>
</g>
<g>
	<g>
		<g class="st3">
			<g>
				<path class="st5" d="M303,210h83H303z"/>
			</g>
			<g>
				<polygon class="st1" points="384,236 386,238 303,238 305,236 				"/>
			</g>
			<g>
				<polygon class="st6" points="305,236 303,238 303,210 305,212 				"/>
			</g>
			<g>
				<polygon class="st7" points="305,212 303,210 386,210 384,212 				"/>
			</g>
			<g>
				<polygon class="st1" points="384,212 386,210 386,238 384,236 				"/>
			</g>
			<g>
				<rect x="305" y="212" class="st4" width="79" height="24"/>
			</g>
		</g>
	</g>
</g>
<rect x="305" y="212" class="st11" width="79" height="24"/>
<g>
	<rect x="305" y="219.5" class="st12" width="79" height="9"/>
	<path d="M329,227.1h1.5v0.6h-8.1v-0.6h2.1c0.2-0.9,0.4-2,0.7-3.1h-1.8v-0.6h1.9c0.1-0.7,0.3-1.4,0.4-2.1H323v-0.6h7.1v0.6h-3.8
		c-0.1,0.7-0.2,1.4-0.4,2.1h3.1V227.1z M328.4,224h-2.6c-0.2,1.1-0.5,2.2-0.6,3.1h3.2V224z"/>
	<path d="M338.2,222.8l0.4,0.2c0,0.1-0.1,0.1-0.1,0.1c-0.4,1.4-1.1,2.5-2,3.3c0.8,0.6,1.8,1,2.9,1.3c-0.1,0.1-0.3,0.4-0.4,0.6
		c-1.2-0.3-2.2-0.8-3-1.4c-0.8,0.6-1.8,1.1-2.8,1.4c-0.1-0.2-0.2-0.4-0.4-0.6c1-0.3,1.9-0.7,2.7-1.3c-0.8-0.7-1.3-1.6-1.7-2.7
		l0.6-0.2c0.4,1,0.9,1.8,1.6,2.5c0.7-0.7,1.3-1.5,1.7-2.6h-4.6c0,1.5-0.2,3.4-1.2,4.8c-0.1-0.1-0.4-0.3-0.5-0.4
		c1-1.4,1.1-3.4,1.1-4.9v-2.5h6.7v0.6h-6v1.8h4.9L338.2,222.8z"/>
	<path d="M340.8,220.5h7.5v7.7h-0.6v-0.6h-6.2v0.6h-0.6V220.5z M344.2,221h-2.8v2.6h2.8V221z M341.4,224.3v2.7h2.8v-2.7H341.4z
		 M347.6,223.7V221h-2.9v2.6H347.6z M344.8,226.9h2.9v-2.7h-2.9V226.9z"/>
	<path d="M353.5,228.2c-2.3,0-4.2-1.9-4.2-4.2c0-2.3,1.9-4.2,4.2-4.2c2.3,0,4.2,1.9,4.2,4.2C357.7,226.3,355.8,228.2,353.5,228.2z
		 M349.6,224c0,2.2,1.7,3.9,3.9,3.9c2.2,0,3.9-1.7,3.9-3.9s-1.7-3.9-3.9-3.9C351.3,220.1,349.6,221.9,349.6,224z M351.9,226.3v-0.4
		l0.5-0.5c1.5-1.3,1.9-1.7,1.9-2.3c0-0.4-0.2-0.9-1-0.9c-0.4,0-0.8,0.2-1.1,0.4l-0.2-0.4c0.4-0.3,0.9-0.5,1.4-0.5
		c1.1,0,1.5,0.8,1.5,1.3c0,0.9-0.6,1.4-1.9,2.5l-0.3,0.3v0h2.3v0.5H351.9z"/>
	<path d="M366.5,222.1h-4.8c-0.2,0.6-0.5,1.3-0.9,1.8h5v4.2h-0.6v-0.5H361v0.5h-0.6v-3.6c-0.5,0.7-1.1,1.3-1.7,1.7
		c-0.1-0.1-0.3-0.4-0.4-0.5c1.3-0.9,2.2-2.3,2.8-3.8h-2.5v-0.6h2.7c0.2-0.6,0.4-1.2,0.5-1.7l0.8,0.2c0,0.1-0.1,0.1-0.2,0.1
		c-0.1,0.5-0.3,1-0.4,1.4h4.6V222.1z M365.2,224.6H361v2.5h4.2V224.6z"/>
</g>
<g>
	<rect x="180.5" y="159.5" class="st12" width="79" height="9"/>
	<path class="st11" d="M193,160l4.2,7.3h-8.5L193,160z"/>
	<path class="st11" d="M209.9,161.7l0.3,0.1l-0.1,0.1c-0.1,1.6-0.4,2.9-0.9,3.9c0.4,0.3,0.8,0.7,1.1,1l-0.4,0.5
		c-0.2-0.3-0.6-0.6-1-0.9c-0.5,0.8-1.1,1.4-1.8,1.9c-0.1-0.2-0.3-0.4-0.4-0.5c0.7-0.4,1.2-0.9,1.7-1.8c-0.3-0.3-0.7-0.5-1-0.7
		l-0.1,0.4l-0.5-0.3c0.2-0.8,0.5-1.9,0.8-3.1h-0.9v-0.6h1c0.1-0.7,0.3-1.3,0.4-1.9l0.7,0.1c0,0.1-0.1,0.1-0.2,0.1
		c-0.1,0.5-0.2,1.1-0.4,1.7h1.4L209.9,161.7z M208.3,162.3c-0.2,0.8-0.4,1.7-0.6,2.4c0.4,0.2,0.8,0.5,1.1,0.7
		c0.4-0.8,0.6-1.9,0.7-3.1H208.3z M213.8,161.3c0.6,0.7,1.2,1.7,1.4,2.4l-0.5,0.3c-0.1-0.2-0.2-0.4-0.3-0.6
		c-1.4,0.1-2.9,0.2-3.8,0.3c0,0.1-0.1,0.1-0.1,0.1l-0.3-0.7l0.7,0c0.4-0.9,0.8-2.2,1-3.2l0.8,0.2c0,0.1-0.1,0.1-0.2,0.1
		c-0.2,0.8-0.6,2-1,2.9l2.6-0.1c-0.3-0.4-0.6-0.9-0.9-1.3L213.8,161.3z M210.9,168.2v-3.7h3.8v3.7h-0.6v-0.4h-2.6v0.4H210.9z
		 M214.2,165.1h-2.6v2.1h2.6V165.1z"/>
	<path class="st11" d="M223,160.3c0,0-0.1,0.1-0.2,0.1c-0.3,0.3-0.9,0.7-1.3,1.1c0.2,0.3,0.4,0.5,0.6,0.8c0.5-0.4,1-0.9,1.4-1.2
		l0.5,0.4c0,0-0.1,0.1-0.2,0c-0.3,0.3-0.9,0.8-1.4,1.1c0.5,0.5,1.1,0.8,1.8,1.1c-0.1,0.1-0.3,0.4-0.4,0.5c-0.5-0.2-0.9-0.5-1.3-0.8
		v0.3h-1.1v1.4h2.2v0.6h-2.2v1.6c0,0.3,0.1,0.3,0.4,0.3h1.1c0.3,0,0.3-0.2,0.4-1.2c0.1,0.1,0.4,0.2,0.5,0.3
		c-0.1,1.2-0.2,1.5-0.9,1.5h-1.2c-0.7,0-0.9-0.2-0.9-0.9v-1.6h-1.7c-0.1,1-0.7,1.9-2.5,2.6c-0.1-0.1-0.3-0.4-0.4-0.5
		c1.6-0.5,2.1-1.3,2.3-2.1h-2.1v-0.6h2.2v-1.4h-1v-0.3c-0.4,0.3-0.9,0.6-1.4,0.8c-0.1-0.1-0.3-0.3-0.4-0.5c0.6-0.3,1.3-0.7,1.9-1.3
		c-0.3-0.3-0.8-0.7-1.2-1l0.4-0.3c0.4,0.3,0.9,0.6,1.1,0.9c0.4-0.4,0.7-0.9,0.9-1.4h-2.4v-0.5h2.7l0.1,0c0.2,0.1,0.3,0.2,0.4,0.2
		c0,0-0.1,0.1-0.1,0.1c-0.4,1-1.1,1.9-1.9,2.6h4.4c-0.9-0.8-1.6-1.9-2.1-3.1l0.5-0.2c0.2,0.4,0.4,0.8,0.6,1.2
		c0.4-0.3,0.9-0.8,1.2-1.1L223,160.3z M220.8,165.1v-1.4h-1.7v1.4H220.8z"/>
	<path class="st11" d="M225.6,165.5c0,0.8-0.1,1.7-0.5,2.2l-0.4-0.2c0.3-0.5,0.4-1.3,0.5-2.1L225.6,165.5z M228.4,164.3l0.3,0l0,0.2
		c-0.1,2.3-0.2,3.1-0.5,3.4c-0.2,0.2-0.4,0.2-0.8,0.2c-0.2,0-0.4,0-0.6,0c0-0.2-0.1-0.4-0.1-0.5c0.3,0,0.6,0,0.8,0
		c0.3,0,0.4,0,0.5-1.3l-0.3,0.1c-0.1-0.3-0.3-0.8-0.5-1.2l0.3-0.1c0.2,0.4,0.4,0.8,0.5,1.1h0c0-0.4,0.1-0.9,0.1-1.5h-2.4v0.2h-0.5
		v-4.9h3.4v0.5h-1.4v0.9h1.2v0.5h-1.2v0.9h1.2v0.5h-1.2v0.9h1L228.4,164.3z M226.7,160.7h-0.9v0.9h0.9V160.7z M226.7,163v-0.9h-0.9
		v0.9H226.7z M225.8,163.4v0.9h0.9v-0.9H225.8z M226,167.3c0-0.5,0-1.1-0.1-1.7l0.3,0c0.1,0.5,0.2,1.2,0.2,1.7L226,167.3z
		 M226.8,165.4c0.2,0.5,0.4,1.1,0.4,1.5l-0.3,0.1c0-0.4-0.2-1-0.4-1.5L226.8,165.4z M232.9,163.9h-1.5c0.3,1.7,0.8,3.2,1.9,3.8
		c-0.1,0.1-0.3,0.3-0.4,0.5c-1.2-0.8-1.7-2.4-2-4.3h-0.9c0,1.4-0.2,3.1-1,4.3c-0.1-0.1-0.4-0.3-0.5-0.3c0.9-1.2,1-2.9,1-4.2v-3.5
		h3.5V163.9z M232.3,160.8h-2.4v2.5h2.4V160.8z"/>
	<path class="st11" d="M247,160l4.2,7.3h-8.5L247,160z"/>
</g>
<g>
	<rect x="178.5" y="199.5" class="st12" width="79" height="9"/>
	<path class="st11" d="M191,200l4.2,7.3h-8.5L191,200z"/>
	<path class="st11" d="M206.8,203.6c0.3,0.3,1,1.1,1.2,1.3l-0.4,0.5c-0.1-0.3-0.5-0.8-0.8-1.2v4h-0.6v-4.1c-0.3,0.9-0.8,1.9-1.2,2.4
		c-0.1-0.2-0.2-0.4-0.3-0.5c0.5-0.7,1.1-1.9,1.4-3h-1.3v-0.6h1.4v-1.5c-0.4,0.1-0.8,0.2-1.2,0.3c0-0.1-0.1-0.3-0.2-0.4
		c1-0.2,2.1-0.6,2.7-1l0.5,0.5c-0.1,0-0.1,0-0.2,0c-0.3,0.2-0.6,0.3-1.1,0.4v1.7h1.2v0.6h-1.2V203.6z M210.7,207.5h2.4v0.5h-5.5
		v-0.5h2.5v-0.8h-2v-0.5h2v-0.6h-1.8v-2.9h1.8V202h-2.2v-0.5h2.2v-0.8c-0.6,0.1-1.3,0.1-1.9,0.2c0-0.1-0.1-0.3-0.2-0.5
		c1.5-0.1,3.3-0.4,4.2-0.7l0.5,0.5c0,0-0.1,0-0.1,0c0,0,0,0-0.1,0c-0.5,0.1-1.1,0.3-1.9,0.4v0.9h2.3v0.5h-2.3v0.6h1.9v2.9h-1.9v0.6
		h2.1v0.5h-2.1V207.5z M208.9,203.1v0.7h1.3v-0.7H208.9z M208.9,205.1h1.3v-0.8h-1.3V205.1z M212.1,203.1h-1.3v0.7h1.3V203.1z
		 M212.1,205.1v-0.8h-1.3v0.8H212.1z"/>
	<path class="st11" d="M226.5,204.3l0.1,0l0.3,0c0,0.1,0,0.1,0,0.2c-0.1,2.3-0.2,3.1-0.4,3.4c-0.2,0.2-0.4,0.3-1,0.3
		c-0.2,0-0.5,0-0.7,0c0-0.2-0.1-0.4-0.2-0.5c0.5,0,0.9,0,1.1,0c0.2,0,0.2,0,0.3-0.1c0.2-0.2,0.3-0.9,0.4-2.7h-1.6
		c-0.2,1.2-0.6,2.5-1.5,3.3c-0.1-0.1-0.3-0.3-0.4-0.4c1.2-1,1.4-3,1.5-4.6h-1v-3h3.6v3h-2c0,0.3-0.1,0.7-0.1,1.1H226.5z
		 M223.9,200.8v1.9h2.4v-1.9H223.9z M227.9,200.9l0.8,0c0,0.1-0.1,0.1-0.2,0.1v4.9h-0.6V200.9z M230.1,200l0.8,0
		c0,0.1-0.1,0.1-0.2,0.1v7.2c0,0.4-0.1,0.6-0.4,0.7c-0.3,0.1-0.8,0.1-1.6,0.1c0-0.2-0.1-0.4-0.2-0.6c0.3,0,0.6,0,0.9,0
		c0.7,0,0.8,0,0.8-0.2V200z"/>
	<path class="st11" d="M245,200l4.2,7.3h-8.5L245,200z"/>
</g>
<g>
	<g>
		<g class="st3">
			<g>
				<path class="st5" d="M54,238h83H54z"/>
			</g>
			<g>
				<polygon class="st1" points="135,264 137,266 54,266 56,264 				"/>
			</g>
			<g>
				<polygon class="st6" points="56,264 54,266 54,238 56,240 				"/>
			</g>
			<g>
				<polygon class="st7" points="56,240 54,238 137,238 135,240 				"/>
			</g>
			<g>
				<polygon class="st1" points="135,240 137,238 137,266 135,264 				"/>
			</g>
			<g>
				<rect x="56" y="240" class="st4" width="79" height="24"/>
			</g>
		</g>
	</g>
</g>
<rect x="56" y="240" class="st11" width="79" height="24"/>
<g>
	<rect x="56" y="247.5" class="st12" width="79" height="9"/>
	<path d="M78.1,251.4c0.5,0.2,1.2,0.5,1.6,0.8l-0.3,0.5c-0.3-0.3-1-0.6-1.6-0.9L78.1,251.4z M86.1,251h-2.7v0.7h2.2v3.9
		c0,0.6-0.3,0.6-1.3,0.6c0-0.1-0.1-0.4-0.2-0.5c0.2,0,0.4,0,0.5,0c0.4,0,0.4,0,0.4-0.1v-0.9h-1.6v1.5h-0.6v-1.5h-1.5v1.6h-0.6v-4.5
		h2.1V251h-2.5v-0.5h2.5v-0.9l0.4,0v-0.5h-2.5v0.6h-0.6v-0.6h-2.2v-0.5h2.2v-0.7l0.8,0c0,0.1-0.1,0.1-0.2,0.1v0.6h2.5v-0.7l0.8,0
		c0,0.1-0.1,0.1-0.2,0.1v0.6h2.3v0.5h-2.3v0.6h-0.3c0,0-0.1,0.1-0.2,0.1v0.7h2.7V251z M78,255.8c0.4-0.5,0.9-1.5,1.3-2.3l0.4,0.4
		c-0.4,0.7-0.8,1.6-1.1,2.1c0,0,0,0.1,0,0.1c0,0,0,0.1,0,0.1L78,255.8z M79.7,251c-0.3-0.3-1-0.7-1.5-0.9l0.3-0.4
		c0.5,0.2,1.2,0.6,1.5,0.8L79.7,251z M82.8,252.2h-1.5v0.7h1.5V252.2z M81.2,254.2h1.5v-0.8h-1.5V254.2z M84.9,252.2h-1.6v0.7h1.6
		V252.2z M83.4,254.2h1.6v-0.8h-1.6V254.2z M84.4,249.4c0.4,0.2,0.9,0.5,1.2,0.7l-0.3,0.4c-0.3-0.2-0.8-0.6-1.2-0.7L84.4,249.4z"/>
	<path d="M87.3,248.5h7.5v7.7h-0.6v-0.6h-6.2v0.6h-0.6V248.5z M90.7,249h-2.8v2.6h2.8V249z M87.9,252.3v2.7h2.8v-2.7H87.9z
		 M94.1,251.7V249h-2.9v2.6H94.1z M91.3,254.9h2.9v-2.7h-2.9V254.9z"/>
	<path d="M100,256.2c-2.3,0-4.2-1.9-4.2-4.2c0-2.3,1.9-4.2,4.2-4.2c2.3,0,4.2,1.9,4.2,4.2C104.2,254.3,102.3,256.2,100,256.2z
		 M96.1,252c0,2.2,1.7,3.9,3.9,3.9s3.9-1.7,3.9-3.9s-1.7-3.9-3.9-3.9C97.8,248.1,96.1,249.9,96.1,252z M98.6,253.5
		c0.2,0.1,0.7,0.3,1.1,0.3c1,0,1.2-0.6,1.2-0.9c0-0.7-0.8-0.9-1.4-0.9h-0.4v-0.5h0.4c0.5,0,1.1-0.2,1.1-0.7c0-0.3-0.2-0.7-0.9-0.7
		c-0.4,0-0.8,0.2-1,0.3l-0.2-0.4c0.3-0.2,0.8-0.4,1.3-0.4c1,0,1.4,0.6,1.4,1.1c0,0.5-0.3,0.9-0.9,1.1v0c0.6,0.1,1.1,0.6,1.1,1.2
		c0,0.7-0.6,1.4-1.8,1.4c-0.6,0-1.1-0.2-1.3-0.3L98.6,253.5z"/>
	<path d="M110.1,255.3h2.9v0.6h-6.5v-0.6h3v-2.9h-2.1V252c-0.5,1.4-1.2,2.6-2.3,3.6c-0.1-0.1-0.3-0.4-0.4-0.5
		c1.4-1.3,2.2-3.1,2.7-5.1h-2.3v-0.6h2.4c0.1-0.6,0.2-1.1,0.3-1.7l0.8,0.1c0,0.1-0.1,0.1-0.2,0.1c-0.1,0.5-0.2,0.9-0.3,1.4h4.7v0.6
		H108c-0.2,0.6-0.3,1.2-0.6,1.8h5.1v0.6h-2.5V255.3z"/>
</g>
<g>
	<g>
		<g class="st3">
			<g>
				<path class="st5" d="M137,238h83H137z"/>
			</g>
			<g>
				<polygon class="st1" points="218,264 220,266 137,266 139,264 				"/>
			</g>
			<g>
				<polygon class="st6" points="139,264 137,266 137,238 139,240 				"/>
			</g>
			<g>
				<polygon class="st7" points="139,240 137,238 220,238 218,240 				"/>
			</g>
			<g>
				<polygon class="st1" points="218,240 220,238 220,266 218,264 				"/>
			</g>
			<g>
				<rect x="139" y="240" class="st4" width="79" height="24"/>
			</g>
		</g>
	</g>
</g>
<rect x="139" y="240" class="st11" width="79" height="24"/>
<g>
	<rect x="139" y="247.5" class="st12" width="79" height="9"/>
	<path d="M161.1,251.4c0.5,0.2,1.2,0.5,1.6,0.8l-0.3,0.5c-0.3-0.3-1-0.6-1.6-0.9L161.1,251.4z M169.1,251h-2.7v0.7h2.2v3.9
		c0,0.6-0.3,0.6-1.3,0.6c0-0.1-0.1-0.4-0.2-0.5c0.2,0,0.4,0,0.5,0c0.4,0,0.4,0,0.4-0.1v-0.9h-1.6v1.5h-0.6v-1.5h-1.5v1.6h-0.6v-4.5
		h2.1V251h-2.5v-0.5h2.5v-0.9l0.4,0v-0.5h-2.5v0.6h-0.6v-0.6h-2.2v-0.5h2.2v-0.7l0.8,0c0,0.1-0.1,0.1-0.2,0.1v0.6h2.5v-0.7l0.8,0
		c0,0.1-0.1,0.1-0.2,0.1v0.6h2.3v0.5h-2.3v0.6h-0.3c0,0-0.1,0.1-0.2,0.1v0.7h2.7V251z M161,255.8c0.4-0.5,0.9-1.5,1.3-2.3l0.4,0.4
		c-0.4,0.7-0.8,1.6-1.1,2.1c0,0,0,0.1,0,0.1c0,0,0,0.1,0,0.1L161,255.8z M162.7,251c-0.3-0.3-1-0.7-1.5-0.9l0.3-0.4
		c0.5,0.2,1.2,0.6,1.5,0.8L162.7,251z M165.8,252.2h-1.5v0.7h1.5V252.2z M164.2,254.2h1.5v-0.8h-1.5V254.2z M167.9,252.2h-1.6v0.7
		h1.6V252.2z M166.4,254.2h1.6v-0.8h-1.6V254.2z M167.4,249.4c0.4,0.2,0.9,0.5,1.2,0.7l-0.3,0.4c-0.3-0.2-0.8-0.6-1.2-0.7
		L167.4,249.4z"/>
	<path d="M170.3,248.5h7.5v7.7h-0.6v-0.6h-6.2v0.6h-0.6V248.5z M173.7,249h-2.8v2.6h2.8V249z M170.9,252.3v2.7h2.8v-2.7H170.9z
		 M177.1,251.7V249h-2.9v2.6H177.1z M174.3,254.9h2.9v-2.7h-2.9V254.9z"/>
	<path d="M183,256.2c-2.3,0-4.2-1.9-4.2-4.2c0-2.3,1.9-4.2,4.2-4.2c2.3,0,4.2,1.9,4.2,4.2C187.2,254.3,185.3,256.2,183,256.2z
		 M179.1,252c0,2.2,1.7,3.9,3.9,3.9s3.9-1.7,3.9-3.9s-1.7-3.9-3.9-3.9C180.8,248.1,179.1,249.9,179.1,252z M183.4,254.3v-1.2H181
		v-0.4l2.4-3h0.6v2.9h0.7v0.5h-0.7v1.2H183.4z M183.4,252.6v-1.8c0-0.2,0-0.4,0-0.6l0,0c-0.1,0.2-0.2,0.4-0.3,0.5l-1.5,1.8v0H183.4z
		"/>
	<path d="M196,250.1h-4.8c-0.2,0.6-0.5,1.3-0.9,1.8h5v4.2h-0.6v-0.5h-4.2v0.5h-0.6v-3.6c-0.5,0.7-1.1,1.3-1.7,1.7
		c-0.1-0.1-0.3-0.4-0.4-0.5c1.3-0.9,2.2-2.3,2.8-3.8H188v-0.6h2.7c0.2-0.6,0.4-1.2,0.5-1.7l0.8,0.2c0,0.1-0.1,0.1-0.2,0.1
		c-0.1,0.5-0.3,1-0.4,1.4h4.6V250.1z M194.7,252.6h-4.2v2.5h4.2V252.6z"/>
</g>
<g>
	<g>
		<g class="st3">
			<g>
				<path class="st5" d="M220,238h83H220z"/>
			</g>
			<g>
				<polygon class="st1" points="301,264 303,266 220,266 222,264 				"/>
			</g>
			<g>
				<polygon class="st6" points="222,264 220,266 220,238 222,240 				"/>
			</g>
			<g>
				<polygon class="st7" points="222,240 220,238 303,238 301,240 				"/>
			</g>
			<g>
				<polygon class="st1" points="301,240 303,238 303,266 301,264 				"/>
			</g>
			<g>
				<rect x="222" y="240" class="st4" width="79" height="24"/>
			</g>
		</g>
	</g>
</g>
<rect x="222" y="240" class="st11" width="79" height="24"/>
<g>
	<rect x="222" y="247.5" class="st12" width="79" height="9"/>
	<path d="M245.7,248.6l0.4,0.2c0,0-0.1,0.1-0.1,0.1c-1.2,2-3.9,3.3-6.2,3.9c-0.1-0.2-0.2-0.4-0.3-0.5c1.2-0.2,2.4-0.7,3.5-1.3
		c-0.3-0.3-0.9-0.6-1.3-0.8l0.4-0.4c0.5,0.2,1.1,0.6,1.4,0.8c0.7-0.4,1.2-0.9,1.6-1.5h-2.7c-0.7,0.5-1.5,1-2.4,1.4
		c-0.1-0.1-0.3-0.4-0.4-0.5c1.6-0.6,2.8-1.5,3.4-2.2l0.8,0.2c0,0.1-0.1,0.1-0.2,0.1c-0.2,0.2-0.4,0.4-0.5,0.5L245.7,248.6
		L245.7,248.6z M247,251.8l0.1,0c0.3,0.2,0.4,0.2,0.4,0.2c0,0-0.1,0.1-0.1,0.1c-1.2,2.6-4,3.7-7,4.2c0-0.2-0.2-0.4-0.3-0.6
		c1.4-0.2,2.9-0.6,4.1-1.2c-0.4-0.4-1-0.8-1.5-1l0.4-0.3c0.5,0.3,1.2,0.7,1.6,1.1c0.8-0.5,1.4-1.1,1.8-1.9h-2.8
		c-0.8,0.5-1.8,1.1-2.9,1.5c-0.1-0.1-0.3-0.4-0.4-0.5c1.9-0.6,3.3-1.6,4-2.4l0.8,0.2c0,0.1-0.1,0.1-0.2,0.1
		c-0.2,0.2-0.4,0.4-0.6,0.6H247z"/>
	<path d="M256.6,249.1h-7v2.3c0,1.4-0.1,3.4-0.9,4.8c-0.1-0.1-0.3-0.3-0.5-0.4c0.7-1.3,0.8-3.1,0.8-4.4v-2.8h3.4v-0.7l0.8,0.1
		c0,0.1-0.1,0.1-0.2,0.1v0.5h3.6V249.1z M253.5,253.7v0.7h3.2v0.4h-3.2v0.8c0,0.4-0.1,0.5-0.4,0.6c-0.3,0.1-0.8,0.1-1.6,0.1
		c0-0.1-0.1-0.3-0.2-0.5c0.4,0,0.7,0,1,0c0.5,0,0.6,0,0.6-0.2v-0.8h-3.2v-0.4h3.2v-0.7h-2.7v-0.4h2.7v-0.6c-0.8,0.1-1.6,0.1-2.4,0.1
		c0-0.1-0.1-0.3-0.1-0.4c1.7,0,3.9-0.2,5-0.4l0.4,0.4c0,0-0.1,0-0.1,0c0,0,0,0-0.1,0c-0.5,0.1-1.3,0.2-2.1,0.3v0.6h2.7v0.4H253.5z
		 M253.1,250.3h-1.3v0.1c0.3,0.2,1.1,0.6,1.2,0.8l-0.3,0.4c-0.2-0.2-0.6-0.5-0.9-0.7v1.1h-0.5v-1.2c-0.4,0.5-0.8,0.9-1.3,1.1
		c-0.1-0.1-0.2-0.3-0.3-0.4c0.5-0.2,1.1-0.7,1.4-1.2h-1.2v-0.5h1.3v-0.7l0.6,0c0,0.1-0.1,0.1-0.2,0.1v0.5h1.3V250.3z M255.1,251.9
		h-0.5v-1.2c-0.4,0.5-0.8,0.9-1.3,1.1c-0.1-0.1-0.2-0.3-0.3-0.4c0.5-0.2,1-0.7,1.4-1.2h-1.1v-0.5h1.3v-0.7l0.6,0
		c0,0.1-0.1,0.1-0.2,0.1v0.5h1.4v0.5h-1.2c0.4,0.5,0.9,0.9,1.4,1.2c-0.1,0.1-0.3,0.3-0.3,0.4c-0.4-0.3-0.9-0.7-1.3-1.2V251.9z"/>
	<path d="M258.4,248.3l0.8,0.1c0,0.1-0.1,0.1-0.2,0.1v2.9c0,1.7-0.1,3.5-1.3,4.8c-0.1-0.1-0.4-0.3-0.5-0.4c1.1-1.3,1.2-2.8,1.2-4.4
		V248.3z M261.3,248.7l0.8,0c0,0.1-0.1,0.1-0.2,0.1v6.5h-0.6V248.7z M264.5,248.3l0.8,0.1c0,0.1-0.1,0.1-0.2,0.1v7.7h-0.6V248.3z"/>
	<path d="M270.5,256.2c-2.3,0-4.2-1.9-4.2-4.2c0-2.3,1.9-4.2,4.2-4.2c2.3,0,4.2,1.9,4.2,4.2C274.7,254.3,272.8,256.2,270.5,256.2z
		 M266.6,252c0,2.2,1.7,3.9,3.9,3.9c2.2,0,3.9-1.7,3.9-3.9s-1.7-3.9-3.9-3.9C268.3,248.1,266.6,249.9,266.6,252z M271.9,250.2H270
		l-0.2,1.2c0.1,0,0.3,0,0.5,0c0.9,0,1.7,0.5,1.7,1.4c0,0.9-0.7,1.5-1.8,1.5c-0.6,0-1-0.2-1.2-0.3l0.2-0.5c0.2,0.1,0.6,0.3,1.1,0.3
		c0.6,0,1.2-0.4,1.2-1c0-0.6-0.4-1-1.4-1c-0.3,0-0.5,0-0.7,0.1l0.3-2.2h2.3V250.2z"/>
	<path d="M280.6,255.3h2.9v0.6H277v-0.6h3v-2.9h-2.1V252c-0.5,1.4-1.2,2.6-2.3,3.6c-0.1-0.1-0.3-0.4-0.4-0.5
		c1.4-1.3,2.2-3.1,2.7-5.1h-2.3v-0.6h2.4c0.1-0.6,0.2-1.1,0.3-1.7l0.8,0.1c0,0.1-0.1,0.1-0.2,0.1c-0.1,0.5-0.2,0.9-0.3,1.4h4.7v0.6
		h-4.9c-0.2,0.6-0.3,1.2-0.6,1.8h5.1v0.6h-2.5V255.3z"/>
</g>
<g>
	<g>
		<g class="st3">
			<g>
				<path class="st5" d="M303,238h83H303z"/>
			</g>
			<g>
				<polygon class="st1" points="384,264 386,266 303,266 305,264 				"/>
			</g>
			<g>
				<polygon class="st6" points="305,264 303,266 303,238 305,240 				"/>
			</g>
			<g>
				<polygon class="st7" points="305,240 303,238 386,238 384,240 				"/>
			</g>
			<g>
				<polygon class="st1" points="384,240 386,238 386,266 384,264 				"/>
			</g>
			<g>
				<rect x="305" y="240" class="st4" width="79" height="24"/>
			</g>
		</g>
	</g>
</g>
<rect x="305" y="240" class="st11" width="79" height="24"/>
<g>
	<rect x="305" y="247.5" class="st12" width="79" height="9"/>
	<path d="M328.7,248.6l0.4,0.2c0,0-0.1,0.1-0.1,0.1c-1.2,2-3.9,3.3-6.2,3.9c-0.1-0.2-0.2-0.4-0.3-0.5c1.2-0.2,2.4-0.7,3.5-1.3
		c-0.3-0.3-0.9-0.6-1.3-0.8l0.4-0.4c0.5,0.2,1.1,0.6,1.4,0.8c0.7-0.4,1.2-0.9,1.6-1.5h-2.7c-0.7,0.5-1.5,1-2.4,1.4
		c-0.1-0.1-0.3-0.4-0.4-0.5c1.6-0.6,2.8-1.5,3.4-2.2l0.8,0.2c0,0.1-0.1,0.1-0.2,0.1c-0.2,0.2-0.4,0.4-0.5,0.5L328.7,248.6
		L328.7,248.6z M330,251.8l0.1,0c0.3,0.2,0.4,0.2,0.4,0.2c0,0-0.1,0.1-0.1,0.1c-1.2,2.6-4,3.7-7,4.2c0-0.2-0.2-0.4-0.3-0.6
		c1.4-0.2,2.9-0.6,4.1-1.2c-0.4-0.4-1-0.8-1.5-1l0.4-0.3c0.5,0.3,1.2,0.7,1.6,1.1c0.8-0.5,1.4-1.1,1.8-1.9h-2.8
		c-0.8,0.5-1.8,1.1-2.9,1.5c-0.1-0.1-0.3-0.4-0.4-0.5c1.9-0.6,3.3-1.6,4-2.4l0.8,0.2c0,0.1-0.1,0.1-0.2,0.1
		c-0.2,0.2-0.4,0.4-0.6,0.6H330z"/>
	<path d="M339.6,249.1h-7v2.3c0,1.4-0.1,3.4-0.9,4.8c-0.1-0.1-0.3-0.3-0.5-0.4c0.7-1.3,0.8-3.1,0.8-4.4v-2.8h3.4v-0.7l0.8,0.1
		c0,0.1-0.1,0.1-0.2,0.1v0.5h3.6V249.1z M336.5,253.7v0.7h3.2v0.4h-3.2v0.8c0,0.4-0.1,0.5-0.4,0.6c-0.3,0.1-0.8,0.1-1.6,0.1
		c0-0.1-0.1-0.3-0.2-0.5c0.4,0,0.7,0,1,0c0.5,0,0.6,0,0.6-0.2v-0.8h-3.2v-0.4h3.2v-0.7h-2.7v-0.4h2.7v-0.6c-0.8,0.1-1.6,0.1-2.4,0.1
		c0-0.1-0.1-0.3-0.1-0.4c1.7,0,3.9-0.2,5-0.4l0.4,0.4c0,0-0.1,0-0.1,0c0,0,0,0-0.1,0c-0.5,0.1-1.3,0.2-2.1,0.3v0.6h2.7v0.4H336.5z
		 M336.1,250.3h-1.3v0.1c0.3,0.2,1.1,0.6,1.2,0.8l-0.3,0.4c-0.2-0.2-0.6-0.5-0.9-0.7v1.1h-0.5v-1.2c-0.4,0.5-0.8,0.9-1.3,1.1
		c-0.1-0.1-0.2-0.3-0.3-0.4c0.5-0.2,1.1-0.7,1.4-1.2h-1.2v-0.5h1.3v-0.7l0.6,0c0,0.1-0.1,0.1-0.2,0.1v0.5h1.3V250.3z M338.1,251.9
		h-0.5v-1.2c-0.4,0.5-0.8,0.9-1.3,1.1c-0.1-0.1-0.2-0.3-0.3-0.4c0.5-0.2,1-0.7,1.4-1.2h-1.1v-0.5h1.3v-0.7l0.6,0
		c0,0.1-0.1,0.1-0.2,0.1v0.5h1.4v0.5h-1.2c0.4,0.5,0.9,0.9,1.4,1.2c-0.1,0.1-0.3,0.3-0.3,0.4c-0.4-0.3-0.9-0.7-1.3-1.2V251.9z"/>
	<path d="M341.4,248.3l0.8,0.1c0,0.1-0.1,0.1-0.2,0.1v2.9c0,1.7-0.1,3.5-1.3,4.8c-0.1-0.1-0.4-0.3-0.5-0.4c1.1-1.3,1.2-2.8,1.2-4.4
		V248.3z M344.3,248.7l0.8,0c0,0.1-0.1,0.1-0.2,0.1v6.5h-0.6V248.7z M347.5,248.3l0.8,0.1c0,0.1-0.1,0.1-0.2,0.1v7.7h-0.6V248.3z"/>
	<path d="M353.5,256.2c-2.3,0-4.2-1.9-4.2-4.2c0-2.3,1.9-4.2,4.2-4.2c2.3,0,4.2,1.9,4.2,4.2C357.7,254.3,355.8,256.2,353.5,256.2z
		 M349.6,252c0,2.2,1.7,3.9,3.9,3.9c2.2,0,3.9-1.7,3.9-3.9s-1.7-3.9-3.9-3.9C351.3,248.1,349.6,249.9,349.6,252z M354.7,250.2
		c-0.1,0-0.1,0-0.2,0c-0.1,0-0.3,0-0.4,0c-0.6,0.1-1.4,0.4-1.6,1.6l0,0c0.3-0.4,0.8-0.5,1.2-0.5c0.9,0,1.5,0.7,1.5,1.4
		c0,0.8-0.7,1.6-1.7,1.6c-0.9,0-1.6-0.6-1.6-2c0-1.5,0.9-2.5,2.2-2.7c0.3,0,0.5-0.1,0.7,0V250.2z M354.6,252.7c0-0.5-0.4-1-1-1
		c-0.5,0-1.1,0.4-1.1,0.8c0,0.5,0.2,1.4,1.1,1.4C354.2,253.9,354.6,253.3,354.6,252.7z"/>
	<path d="M366.5,250.1h-4.8c-0.2,0.6-0.5,1.3-0.9,1.8h5v4.2h-0.6v-0.5H361v0.5h-0.6v-3.6c-0.5,0.7-1.1,1.3-1.7,1.7
		c-0.1-0.1-0.3-0.4-0.4-0.5c1.3-0.9,2.2-2.3,2.8-3.8h-2.5v-0.6h2.7c0.2-0.6,0.4-1.2,0.5-1.7l0.8,0.2c0,0.1-0.1,0.1-0.2,0.1
		c-0.1,0.5-0.3,1-0.4,1.4h4.6V250.1z M365.2,252.6H361v2.5h4.2V252.6z"/>
</g>
<g>
	<g>
		<g class="st3">
			<g>
				<path class="st5" d="M54,266h83H54z"/>
			</g>
			<g>
				<polygon class="st1" points="135,292 137,294 54,294 56,292 				"/>
			</g>
			<g>
				<polygon class="st6" points="56,292 54,294 54,266 56,268 				"/>
			</g>
			<g>
				<polygon class="st7" points="56,268 54,266 137,266 135,268 				"/>
			</g>
			<g>
				<polygon class="st1" points="135,268 137,266 137,294 135,292 				"/>
			</g>
			<g>
				<rect x="56" y="268" class="st4" width="79" height="24"/>
			</g>
		</g>
	</g>
</g>
<rect x="56" y="268" class="st11" width="79" height="24"/>
<g>
	<rect x="56" y="275.5" class="st12" width="79" height="9"/>
	<path d="M77.8,277.4h3.6v2h-0.6v-1.5h-3v2.4h-0.6v-2.4h-3v1.5h-0.5v-2h3.5v-0.7h-3v-0.5h6.6v0.5h-3.1V277.4z M74.5,281.2v-0.5h5.9
		v3.4h-0.6v-0.4h-5.5v-0.5h5.5v-0.8h-5.1V282h5.1v-0.8H74.5z M74.5,280v-0.5h2.2v0.5H74.5z M74.7,278.5h2v0.5h-2V278.5z M78.3,278.5
		h2v0.5h-2V278.5z M78.3,280v-0.5h2.3v0.5H78.3z"/>
	<path d="M85.8,276.3c0,0.1-0.1,0.2-0.3,0.2c-0.1,0.5-0.3,1.4-0.4,1.9c0.4,0,0.8-0.1,1-0.1c1.4,0,1.8,0.9,1.8,2.2
		c0,0.7-0.1,1.5-0.3,2c-0.3,0.9-0.9,1.4-1.6,1.4c-0.4,0-0.9-0.2-1.6-0.8c0.1-0.2,0.2-0.4,0.2-0.5c0.7,0.6,1.1,0.7,1.4,0.7
		c0.5,0,0.8-0.3,1-0.9c0.2-0.6,0.3-1.4,0.3-1.8c0-1-0.3-1.6-1.2-1.6c-0.3,0-0.6,0-1.1,0.1c-0.5,1.8-1,3.4-1.8,4.9l-0.6-0.3
		c0.9-1.4,1.4-2.8,1.8-4.5c-0.5,0.1-1.1,0.1-1.6,0.2l-0.1-0.6c0.4-0.1,1.2-0.1,1.8-0.2c0.1-0.7,0.3-1.5,0.4-2.3L85.8,276.3z
		 M87.9,276c0.4,0.3,0.9,0.9,1.2,1.3l-0.4,0.3c-0.3-0.4-0.8-1-1.2-1.3L87.9,276z M89.9,281.2c-0.3-1.3-1-2.4-1.8-3.1l0.5-0.4
		c0.9,0.7,1.7,1.9,2,3.2L89.9,281.2z M89.2,275.6c0.4,0.3,1,0.9,1.2,1.3l-0.4,0.3c-0.3-0.4-0.8-1-1.2-1.3L89.2,275.6z"/>
	<path d="M93,280.7c-0.4,0.3-0.9,0.6-1.3,0.8c-0.1-0.1-0.2-0.3-0.4-0.5c1.6-0.8,3.1-2.3,3.8-3.5l0.9,0c0,0.1-0.1,0.1-0.2,0.1
		c0.9,1.3,2.5,2.6,3.9,3.3c-0.1,0.1-0.3,0.4-0.4,0.5c-0.4-0.2-0.8-0.5-1.3-0.8v3.5h-0.6v-0.4h-3.9v0.4H93V280.7z M94.7,276.3
		c0,0.1-0.1,0.1-0.2,0.1c-0.6,0.8-1.5,1.7-2.4,2.2c-0.1-0.1-0.3-0.3-0.5-0.4c0.8-0.5,1.8-1.3,2.3-2.2L94.7,276.3z M97.9,280.5
		c-1-0.7-1.9-1.6-2.4-2.4c-0.5,0.8-1.3,1.6-2.3,2.4H97.9z M93.6,283.3h3.9v-2.2h-3.9V283.3z M96.8,276c0.9,0.6,2,1.5,2.5,2.2
		l-0.5,0.4c-0.5-0.6-1.6-1.6-2.5-2.2L96.8,276z"/>
	<path d="M108.5,279.1H105c0.6,2.2,1.7,3.8,3.7,4.5c-0.2,0.1-0.4,0.4-0.5,0.6c-1.9-0.8-3-2.4-3.7-4.5c-0.4,1.8-1.4,3.5-3.7,4.5
		c-0.1-0.2-0.3-0.4-0.4-0.5c2.4-1,3.3-2.8,3.6-4.6h-3.5v-0.6h3.6c0.1-0.9,0.1-1.9,0.1-2.6l0.8,0c0,0.1-0.1,0.1-0.2,0.2
		c0,0.7,0,1.6-0.1,2.4h3.8V279.1z"/>
	<path d="M112.1,280.8l0.1,0.5c-0.9,0.3-1.9,0.6-2.5,0.8c0,0.1,0,0.1-0.1,0.2l-0.3-0.7c0.3-0.1,0.7-0.2,1.1-0.3v-2.6h-1V278h1v-2.2
		l0.8,0.1c0,0.1-0.1,0.1-0.2,0.1v2h1v0.6h-1v2.5L112.1,280.8z M115.3,278.5c0.1,0.6,0.3,1.2,0.5,1.7c0.5-0.3,1-0.8,1.3-1.2l0.5,0.5
		c0,0.1-0.1,0.1-0.2,0c-0.4,0.3-1,0.8-1.5,1.1c0.4,0.9,1,1.6,1.7,2c-0.1,0.1-0.3,0.4-0.4,0.5c-1.3-0.8-2-2.5-2.4-4.5
		c-0.3,0.2-0.6,0.5-1,0.7c1.2,0.9,1.6,2.1,1.6,3.1c0,0.6-0.2,1.1-0.6,1.4c-0.3,0.3-0.6,0.3-1.1,0.3c-0.2,0-0.4,0-0.6,0
		c0-0.2-0.1-0.4-0.2-0.6c0.3,0,0.6,0,0.8,0c0.9,0,1-0.8,1-1.2c0-0.3,0-0.5-0.1-0.8c-0.8,0.8-2.1,1.6-3.1,2.1
		c-0.1-0.1-0.2-0.4-0.3-0.5c1.1-0.4,2.5-1.3,3.3-2.1c-0.1-0.2-0.2-0.4-0.4-0.6c-0.6,0.5-1.6,1.2-2.3,1.5c-0.1-0.1-0.2-0.3-0.4-0.4
		c0.7-0.3,1.8-0.9,2.4-1.4c-0.1-0.2-0.3-0.3-0.5-0.5c-0.4,0.3-0.9,0.5-1.3,0.7c-0.1-0.1-0.2-0.3-0.4-0.4c0.8-0.3,1.8-0.9,2.5-1.4
		h-1.7V278h4.3v0.5H115.3z M112.8,276.7v1.2h-0.6v-1.7h5.2v1.7h-0.6v-1.2H112.8z"/>
</g>
<g>
	<g>
		<g class="st3">
			<g>
				<path class="st5" d="M137,266h83H137z"/>
			</g>
			<g>
				<polygon class="st1" points="218,292 220,294 137,294 139,292 				"/>
			</g>
			<g>
				<polygon class="st6" points="139,292 137,294 137,266 139,268 				"/>
			</g>
			<g>
				<polygon class="st7" points="139,268 137,266 220,266 218,268 				"/>
			</g>
			<g>
				<polygon class="st1" points="218,268 220,266 220,294 218,292 				"/>
			</g>
			<g>
				<rect x="139" y="268" class="st4" width="79" height="24"/>
			</g>
		</g>
	</g>
</g>
<rect x="139" y="268" class="st11" width="79" height="24"/>
<g>
	<rect x="139" y="275.5" class="st12" width="79" height="9"/>
	<path d="M143.1,279.4c0.5,0.2,1.2,0.5,1.6,0.8l-0.3,0.5c-0.3-0.3-1-0.6-1.6-0.9L143.1,279.4z M151.1,279h-2.7v0.7h2.2v3.9
		c0,0.6-0.3,0.6-1.3,0.6c0-0.1-0.1-0.4-0.2-0.5c0.2,0,0.4,0,0.5,0c0.4,0,0.4,0,0.4-0.1v-0.9h-1.6v1.5h-0.6v-1.5h-1.5v1.6h-0.6v-4.5
		h2.1V279h-2.5v-0.5h2.5v-0.9l0.4,0v-0.5h-2.5v0.6h-0.6v-0.6h-2.2v-0.5h2.2v-0.7l0.8,0c0,0.1-0.1,0.1-0.2,0.1v0.6h2.5v-0.7l0.8,0
		c0,0.1-0.1,0.1-0.2,0.1v0.6h2.3v0.5h-2.3v0.6h-0.3c0,0-0.1,0.1-0.2,0.1v0.7h2.7V279z M143,283.8c0.4-0.5,0.9-1.5,1.3-2.3l0.4,0.4
		c-0.4,0.7-0.8,1.6-1.1,2.1c0,0,0,0.1,0,0.1c0,0,0,0.1,0,0.1L143,283.8z M144.7,279c-0.3-0.3-1-0.7-1.5-0.9l0.3-0.4
		c0.5,0.2,1.2,0.6,1.5,0.8L144.7,279z M147.8,280.2h-1.5v0.7h1.5V280.2z M146.2,282.2h1.5v-0.8h-1.5V282.2z M149.9,280.2h-1.6v0.7
		h1.6V280.2z M148.4,282.2h1.6v-0.8h-1.6V282.2z M149.4,277.4c0.4,0.2,0.9,0.5,1.2,0.7l-0.3,0.4c-0.3-0.2-0.8-0.6-1.2-0.7
		L149.4,277.4z"/>
	<path d="M152.3,276.5h7.5v7.7h-0.6v-0.6h-6.2v0.6h-0.6V276.5z M155.7,277h-2.8v2.6h2.8V277z M152.9,280.3v2.7h2.8v-2.7H152.9z
		 M159.1,279.7V277h-2.9v2.6H159.1z M156.3,282.9h2.9v-2.7h-2.9V282.9z"/>
	<path d="M160.8,280.3v-0.6h7c-0.5-0.4-1.1-0.9-1.5-1.5l0.5-0.3c0.6,0.8,1.5,1.6,2.3,2.1c-0.8,0.5-1.7,1.3-2.3,2.1l-0.5-0.3
		c0.4-0.6,1-1.2,1.5-1.5H160.8z"/>
	<path d="M174.3,277.4h3.6v2h-0.6v-1.5h-3v2.4h-0.6v-2.4h-3v1.5h-0.5v-2h3.5v-0.7h-3v-0.5h6.6v0.5h-3.1V277.4z M171,281.2v-0.5h5.9
		v3.4h-0.6v-0.4h-5.5v-0.5h5.5v-0.8h-5.1V282h5.1v-0.8H171z M171,280v-0.5h2.2v0.5H171z M171.2,278.5h2v0.5h-2V278.5z M174.8,278.5
		h2v0.5h-2V278.5z M174.8,280v-0.5h2.3v0.5H174.8z"/>
	<path d="M182.3,276.3c0,0.1-0.1,0.2-0.3,0.2c-0.1,0.5-0.3,1.4-0.4,1.9c0.4,0,0.8-0.1,1-0.1c1.4,0,1.8,0.9,1.8,2.2
		c0,0.7-0.1,1.5-0.3,2c-0.3,0.9-0.9,1.4-1.6,1.4c-0.4,0-0.9-0.2-1.6-0.8c0.1-0.2,0.2-0.4,0.2-0.5c0.7,0.6,1.1,0.7,1.4,0.7
		c0.5,0,0.8-0.3,1-0.9c0.2-0.6,0.3-1.4,0.3-1.8c0-1-0.3-1.6-1.2-1.6c-0.3,0-0.6,0-1.1,0.1c-0.5,1.8-1,3.4-1.8,4.9l-0.6-0.3
		c0.9-1.4,1.4-2.8,1.8-4.5c-0.5,0.1-1.1,0.1-1.6,0.2l-0.1-0.6c0.4-0.1,1.2-0.1,1.8-0.2c0.1-0.7,0.3-1.5,0.4-2.3L182.3,276.3z
		 M184.4,276c0.4,0.3,0.9,0.9,1.2,1.3l-0.4,0.3c-0.3-0.4-0.8-1-1.2-1.3L184.4,276z M186.4,281.2c-0.3-1.3-1-2.4-1.8-3.1l0.5-0.4
		c0.9,0.7,1.7,1.9,2,3.2L186.4,281.2z M185.7,275.6c0.4,0.3,1,0.9,1.2,1.3l-0.4,0.3c-0.3-0.4-0.8-1-1.2-1.3L185.7,275.6z"/>
	<path d="M189.5,280.7c-0.4,0.3-0.9,0.6-1.3,0.8c-0.1-0.1-0.2-0.3-0.4-0.5c1.6-0.8,3.1-2.3,3.8-3.5l0.9,0c0,0.1-0.1,0.1-0.2,0.1
		c0.9,1.3,2.5,2.6,3.9,3.3c-0.1,0.1-0.3,0.4-0.4,0.5c-0.4-0.2-0.8-0.5-1.3-0.8v3.5H194v-0.4h-3.9v0.4h-0.6V280.7z M191.2,276.3
		c0,0.1-0.1,0.1-0.2,0.1c-0.6,0.8-1.5,1.7-2.4,2.2c-0.1-0.1-0.3-0.3-0.5-0.4c0.8-0.5,1.8-1.3,2.3-2.2L191.2,276.3z M194.4,280.5
		c-1-0.7-1.9-1.6-2.4-2.4c-0.5,0.8-1.3,1.6-2.3,2.4H194.4z M190.1,283.3h3.9v-2.2h-3.9V283.3z M193.3,276c0.9,0.6,2,1.5,2.5,2.2
		l-0.5,0.4c-0.5-0.6-1.6-1.6-2.5-2.2L193.3,276z"/>
	<path d="M205,279.1h-3.5c0.6,2.2,1.7,3.8,3.7,4.5c-0.2,0.1-0.4,0.4-0.5,0.6c-1.9-0.8-3-2.4-3.7-4.5c-0.4,1.8-1.4,3.5-3.7,4.5
		c-0.1-0.2-0.3-0.4-0.4-0.5c2.4-1,3.3-2.8,3.6-4.6H197v-0.6h3.6c0.1-0.9,0.1-1.9,0.1-2.6l0.8,0c0,0.1-0.1,0.1-0.2,0.2
		c0,0.7,0,1.6-0.1,2.4h3.8V279.1z"/>
	<path d="M208.6,280.8l0.1,0.5c-0.9,0.3-1.9,0.6-2.5,0.8c0,0.1,0,0.1-0.1,0.2l-0.3-0.7c0.3-0.1,0.7-0.2,1.1-0.3v-2.6h-1V278h1v-2.2
		l0.8,0.1c0,0.1-0.1,0.1-0.2,0.1v2h1v0.6h-1v2.5L208.6,280.8z M211.8,278.5c0.1,0.6,0.3,1.2,0.5,1.7c0.5-0.3,1-0.8,1.3-1.2l0.5,0.5
		c0,0.1-0.1,0.1-0.2,0c-0.4,0.3-1,0.8-1.5,1.1c0.4,0.9,1,1.6,1.7,2c-0.1,0.1-0.3,0.4-0.4,0.5c-1.3-0.8-2-2.5-2.4-4.5
		c-0.3,0.2-0.6,0.5-1,0.7c1.2,0.9,1.6,2.1,1.6,3.1c0,0.6-0.2,1.1-0.6,1.4c-0.3,0.3-0.6,0.3-1.1,0.3c-0.2,0-0.4,0-0.6,0
		c0-0.2-0.1-0.4-0.2-0.6c0.3,0,0.6,0,0.8,0c0.9,0,1-0.8,1-1.2c0-0.3,0-0.5-0.1-0.8c-0.8,0.8-2.1,1.6-3.1,2.1
		c-0.1-0.1-0.2-0.4-0.3-0.5c1.1-0.4,2.5-1.3,3.3-2.1c-0.1-0.2-0.2-0.4-0.4-0.6c-0.6,0.5-1.6,1.2-2.3,1.5c-0.1-0.1-0.2-0.3-0.4-0.4
		c0.7-0.3,1.8-0.9,2.4-1.4c-0.1-0.2-0.3-0.3-0.5-0.5c-0.4,0.3-0.9,0.5-1.3,0.7c-0.1-0.1-0.2-0.3-0.4-0.4c0.8-0.3,1.8-0.9,2.5-1.4
		h-1.7V278h4.3v0.5H211.8z M209.3,276.7v1.2h-0.6v-1.7h5.2v1.7h-0.6v-1.2H209.3z"/>
</g>
<g>
	<g>
		<g class="st3">
			<g>
				<path class="st5" d="M220,266h83H220z"/>
			</g>
			<g>
				<polygon class="st1" points="301,292 303,294 220,294 222,292 				"/>
			</g>
			<g>
				<polygon class="st6" points="222,292 220,294 220,266 222,268 				"/>
			</g>
			<g>
				<polygon class="st7" points="222,268 220,266 303,266 301,268 				"/>
			</g>
			<g>
				<polygon class="st1" points="301,268 303,266 303,294 301,292 				"/>
			</g>
			<g>
				<rect x="222" y="268" class="st4" width="79" height="24"/>
			</g>
		</g>
	</g>
</g>
<rect x="222" y="268" class="st11" width="79" height="24"/>
<g>
	<rect x="222" y="275.5" class="st12" width="79" height="9"/>
	<path d="M226.1,279.4c0.5,0.2,1.2,0.5,1.6,0.8l-0.3,0.5c-0.3-0.3-1-0.6-1.6-0.9L226.1,279.4z M234.1,279h-2.7v0.7h2.2v3.9
		c0,0.6-0.3,0.6-1.3,0.6c0-0.1-0.1-0.4-0.2-0.5c0.2,0,0.4,0,0.5,0c0.4,0,0.4,0,0.4-0.1v-0.9h-1.6v1.5h-0.6v-1.5h-1.5v1.6h-0.6v-4.5
		h2.1V279h-2.5v-0.5h2.5v-0.9l0.4,0v-0.5h-2.5v0.6h-0.6v-0.6h-2.2v-0.5h2.2v-0.7l0.8,0c0,0.1-0.1,0.1-0.2,0.1v0.6h2.5v-0.7l0.8,0
		c0,0.1-0.1,0.1-0.2,0.1v0.6h2.3v0.5h-2.3v0.6h-0.3c0,0-0.1,0.1-0.2,0.1v0.7h2.7V279z M226,283.8c0.4-0.5,0.9-1.5,1.3-2.3l0.4,0.4
		c-0.4,0.7-0.8,1.6-1.1,2.1c0,0,0,0.1,0,0.1c0,0,0,0.1,0,0.1L226,283.8z M227.7,279c-0.3-0.3-1-0.7-1.5-0.9l0.3-0.4
		c0.5,0.2,1.2,0.6,1.5,0.8L227.7,279z M230.8,280.2h-1.5v0.7h1.5V280.2z M229.2,282.2h1.5v-0.8h-1.5V282.2z M232.9,280.2h-1.6v0.7
		h1.6V280.2z M231.4,282.2h1.6v-0.8h-1.6V282.2z M232.4,277.4c0.4,0.2,0.9,0.5,1.2,0.7l-0.3,0.4c-0.3-0.2-0.8-0.6-1.2-0.7
		L232.4,277.4z"/>
	<path d="M235.3,276.5h7.5v7.7h-0.6v-0.6h-6.2v0.6h-0.6V276.5z M238.7,277h-2.8v2.6h2.8V277z M235.9,280.3v2.7h2.8v-2.7H235.9z
		 M242.1,279.7V277h-2.9v2.6H242.1z M239.3,282.9h2.9v-2.7h-2.9V282.9z"/>
	<path d="M243.8,280.3v-0.6h7c-0.5-0.4-1.1-0.9-1.5-1.5l0.5-0.3c0.6,0.8,1.5,1.6,2.3,2.1c-0.8,0.5-1.7,1.3-2.3,2.1l-0.5-0.3
		c0.4-0.6,1-1.2,1.5-1.5H243.8z"/>
	<path d="M259.5,283.1h1.5v0.6h-8.1v-0.6h2.1c0.2-0.9,0.4-2,0.7-3.1h-1.8v-0.6h1.9c0.1-0.7,0.3-1.4,0.4-2.1h-2.7v-0.6h7.1v0.6h-3.8
		c-0.1,0.7-0.2,1.4-0.4,2.1h3.1V283.1z M258.9,280h-2.6c-0.2,1.1-0.5,2.2-0.6,3.1h3.2V280z"/>
	<path d="M268.7,278.8l0.4,0.2c0,0.1-0.1,0.1-0.1,0.1c-0.4,1.4-1.1,2.5-2,3.3c0.8,0.6,1.8,1,2.9,1.3c-0.1,0.1-0.3,0.4-0.4,0.6
		c-1.2-0.3-2.2-0.8-3-1.4c-0.8,0.6-1.8,1.1-2.8,1.4c-0.1-0.2-0.2-0.4-0.4-0.6c1-0.3,1.9-0.7,2.7-1.3c-0.8-0.7-1.3-1.6-1.7-2.7
		l0.6-0.2c0.4,1,0.9,1.8,1.6,2.5c0.7-0.7,1.3-1.5,1.7-2.6h-4.6c0,1.5-0.2,3.4-1.2,4.8c-0.1-0.1-0.4-0.3-0.5-0.4
		c1-1.4,1.1-3.4,1.1-4.9v-2.5h6.7v0.6h-6v1.8h4.9L268.7,278.8z"/>
	<path d="M271.3,276.5h7.5v7.7h-0.6v-0.6h-6.2v0.6h-0.6V276.5z M274.7,277h-2.8v2.6h2.8V277z M271.9,280.3v2.7h2.8v-2.7H271.9z
		 M278.1,279.7V277h-2.9v2.6H278.1z M275.3,282.9h2.9v-2.7h-2.9V282.9z"/>
	<path d="M284,284.2c-2.3,0-4.2-1.9-4.2-4.2c0-2.3,1.9-4.2,4.2-4.2c2.3,0,4.2,1.9,4.2,4.2C288.2,282.3,286.3,284.2,284,284.2z
		 M280.1,280c0,2.2,1.7,3.9,3.9,3.9c2.2,0,3.9-1.7,3.9-3.9s-1.7-3.9-3.9-3.9C281.8,276.1,280.1,277.9,280.1,280z M283.8,278.2
		L283.8,278.2l-0.8,0.4l-0.1-0.5l0.9-0.5h0.6v4.6h-0.6V278.2z"/>
	<path d="M294.1,283.3h2.9v0.6h-6.5v-0.6h3v-2.9h-2.1V280c-0.5,1.4-1.2,2.6-2.3,3.6c-0.1-0.1-0.3-0.4-0.4-0.5
		c1.4-1.3,2.2-3.1,2.7-5.1h-2.3v-0.6h2.4c0.1-0.6,0.2-1.1,0.3-1.7l0.8,0.1c0,0.1-0.1,0.1-0.2,0.1c-0.1,0.5-0.2,0.9-0.3,1.4h4.7v0.6
		H292c-0.2,0.6-0.3,1.2-0.6,1.8h5.1v0.6h-2.5V283.3z"/>
</g>
<g>
	<g>
		<g class="st3">
			<g>
				<path class="st5" d="M303,266h83H303z"/>
			</g>
			<g>
				<polygon class="st1" points="384,292 386,294 303,294 305,292 				"/>
			</g>
			<g>
				<polygon class="st6" points="305,292 303,294 303,266 305,268 				"/>
			</g>
			<g>
				<polygon class="st7" points="305,268 303,266 386,266 384,268 				"/>
			</g>
			<g>
				<polygon class="st1" points="384,268 386,266 386,294 384,292 				"/>
			</g>
			<g>
				<rect x="305" y="268" class="st4" width="79" height="24"/>
			</g>
		</g>
	</g>
</g>
<rect x="305" y="268" class="st11" width="79" height="24"/>
<g>
	<rect x="305" y="275.5" class="st12" width="79" height="9"/>
	<path d="M309.1,279.4c0.5,0.2,1.2,0.5,1.6,0.8l-0.3,0.5c-0.3-0.3-1-0.6-1.6-0.9L309.1,279.4z M317.1,279h-2.7v0.7h2.2v3.9
		c0,0.6-0.3,0.6-1.3,0.6c0-0.1-0.1-0.4-0.2-0.5c0.2,0,0.4,0,0.5,0c0.4,0,0.4,0,0.4-0.1v-0.9h-1.6v1.5h-0.6v-1.5h-1.5v1.6h-0.6v-4.5
		h2.1V279h-2.5v-0.5h2.5v-0.9l0.4,0v-0.5h-2.5v0.6h-0.6v-0.6h-2.2v-0.5h2.2v-0.7l0.8,0c0,0.1-0.1,0.1-0.2,0.1v0.6h2.5v-0.7l0.8,0
		c0,0.1-0.1,0.1-0.2,0.1v0.6h2.3v0.5h-2.3v0.6h-0.3c0,0-0.1,0.1-0.2,0.1v0.7h2.7V279z M309,283.8c0.4-0.5,0.9-1.5,1.3-2.3l0.4,0.4
		c-0.4,0.7-0.8,1.6-1.1,2.1c0,0,0,0.1,0,0.1c0,0,0,0.1,0,0.1L309,283.8z M310.7,279c-0.3-0.3-1-0.7-1.5-0.9l0.3-0.4
		c0.5,0.2,1.2,0.6,1.5,0.8L310.7,279z M313.8,280.2h-1.5v0.7h1.5V280.2z M312.2,282.2h1.5v-0.8h-1.5V282.2z M315.9,280.2h-1.6v0.7
		h1.6V280.2z M314.4,282.2h1.6v-0.8h-1.6V282.2z M315.4,277.4c0.4,0.2,0.9,0.5,1.2,0.7l-0.3,0.4c-0.3-0.2-0.8-0.6-1.2-0.7
		L315.4,277.4z"/>
	<path d="M318.3,276.5h7.5v7.7h-0.6v-0.6h-6.2v0.6h-0.6V276.5z M321.7,277h-2.8v2.6h2.8V277z M318.9,280.3v2.7h2.8v-2.7H318.9z
		 M325.1,279.7V277h-2.9v2.6H325.1z M322.3,282.9h2.9v-2.7h-2.9V282.9z"/>
	<path d="M326.8,280.3v-0.6h7c-0.5-0.4-1.1-0.9-1.5-1.5l0.5-0.3c0.6,0.8,1.5,1.6,2.3,2.1c-0.8,0.5-1.7,1.3-2.3,2.1l-0.5-0.3
		c0.4-0.6,1-1.2,1.5-1.5H326.8z"/>
	<path d="M342.5,283.1h1.5v0.6h-8.1v-0.6h2.1c0.2-0.9,0.4-2,0.7-3.1h-1.8v-0.6h1.9c0.1-0.7,0.3-1.4,0.4-2.1h-2.7v-0.6h7.1v0.6h-3.8
		c-0.1,0.7-0.2,1.4-0.4,2.1h3.1V283.1z M341.9,280h-2.6c-0.2,1.1-0.5,2.2-0.6,3.1h3.2V280z"/>
	<path d="M351.7,278.8l0.4,0.2c0,0.1-0.1,0.1-0.1,0.1c-0.4,1.4-1.1,2.5-2,3.3c0.8,0.6,1.8,1,2.9,1.3c-0.1,0.1-0.3,0.4-0.4,0.6
		c-1.2-0.3-2.2-0.8-3-1.4c-0.8,0.6-1.8,1.1-2.8,1.4c-0.1-0.2-0.2-0.4-0.4-0.6c1-0.3,1.9-0.7,2.7-1.3c-0.8-0.7-1.3-1.6-1.7-2.7
		l0.6-0.2c0.4,1,0.9,1.8,1.6,2.5c0.7-0.7,1.3-1.5,1.7-2.6h-4.6c0,1.5-0.2,3.4-1.2,4.8c-0.1-0.1-0.4-0.3-0.5-0.4
		c1-1.4,1.1-3.4,1.1-4.9v-2.5h6.7v0.6h-6v1.8h4.9L351.7,278.8z"/>
	<path d="M354.3,276.5h7.5v7.7h-0.6v-0.6h-6.2v0.6h-0.6V276.5z M357.7,277h-2.8v2.6h2.8V277z M354.9,280.3v2.7h2.8v-2.7H354.9z
		 M361.1,279.7V277h-2.9v2.6H361.1z M358.3,282.9h2.9v-2.7h-2.9V282.9z"/>
	<path d="M367,284.2c-2.3,0-4.2-1.9-4.2-4.2c0-2.3,1.9-4.2,4.2-4.2c2.3,0,4.2,1.9,4.2,4.2C371.2,282.3,369.3,284.2,367,284.2z
		 M363.1,280c0,2.2,1.7,3.9,3.9,3.9c2.2,0,3.9-1.7,3.9-3.9s-1.7-3.9-3.9-3.9C364.8,276.1,363.1,277.9,363.1,280z M365.4,282.3v-0.4
		l0.5-0.5c1.5-1.3,1.9-1.7,1.9-2.3c0-0.4-0.2-0.9-1-0.9c-0.4,0-0.8,0.2-1.1,0.4l-0.2-0.4c0.4-0.3,0.9-0.5,1.4-0.5
		c1.1,0,1.5,0.8,1.5,1.3c0,0.9-0.6,1.4-1.9,2.5l-0.3,0.3v0h2.3v0.5H365.4z"/>
	<path d="M380,278.1h-4.8c-0.2,0.6-0.5,1.3-0.9,1.8h5v4.2h-0.6v-0.5h-4.2v0.5h-0.6v-3.6c-0.5,0.7-1.1,1.3-1.7,1.7
		c-0.1-0.1-0.3-0.4-0.4-0.5c1.3-0.9,2.2-2.3,2.8-3.8H372v-0.6h2.7c0.2-0.6,0.4-1.2,0.5-1.7l0.8,0.2c0,0.1-0.1,0.1-0.2,0.1
		c-0.1,0.5-0.3,1-0.4,1.4h4.6V278.1z M378.7,280.6h-4.2v2.5h4.2V280.6z"/>
</g>
<g>
	<g>
		<g class="st3">
			<g>
				<path class="st5" d="M54,350h83H54z"/>
			</g>
			<g>
				<polygon class="st1" points="135,376 137,378 54,378 56,376 				"/>
			</g>
			<g>
				<polygon class="st6" points="56,376 54,378 54,350 56,352 				"/>
			</g>
			<g>
				<polygon class="st7" points="56,352 54,350 137,350 135,352 				"/>
			</g>
			<g>
				<polygon class="st1" points="135,352 137,350 137,378 135,376 				"/>
			</g>
			<g>
				<rect x="56" y="352" class="st4" width="79" height="24"/>
			</g>
		</g>
	</g>
</g>
<rect x="56" y="352" class="st0" width="79" height="24"/>
<g>
	<rect x="56" y="359.5" class="st12" width="79" height="9"/>
	<path d="M77.7,365.9c0.5-0.3,1.2-0.7,2-1.1v-4.9l0.8,0c0,0.1-0.1,0.1-0.2,0.1v8.2h-0.6v-2.8c-0.6,0.4-1.1,0.7-1.5,1
		c0,0.1,0,0.1-0.1,0.2L77.7,365.9z M78.3,361c0.4,0.6,0.9,1.3,1.1,1.8c-0.3,0.2-0.4,0.2-0.5,0.3c-0.2-0.5-0.6-1.3-1-1.8L78.3,361z
		 M86.1,363.2h-2.4c0.4,2,1.2,3.7,2.5,4.5c-0.2,0.1-0.3,0.4-0.5,0.5c-1.3-0.8-2-2.3-2.4-4.1h0c-0.3,1.6-0.9,3.2-2.3,4.1
		c-0.1-0.1-0.3-0.3-0.5-0.4c1.5-1,2.1-2.8,2.3-4.6h-2.2v-0.6h2.3c0.1-0.9,0.1-1.8,0.1-2.7l0.8,0c0,0.1-0.1,0.1-0.2,0.2
		c0,0.8,0,1.6-0.1,2.5h2.6V363.2z M84.8,360.1c0.5,0.4,1,1.1,1.3,1.5l-0.5,0.3c-0.2-0.4-0.7-1.1-1.2-1.5L84.8,360.1z"/>
	<path d="M88.6,366.4c-0.2,0.7-0.6,1.3-1.3,1.6l-0.5-0.4c0.7-0.3,1.1-0.8,1.3-1.4L88.6,366.4z M90.6,362.1c-0.1-0.1-0.2-0.3-0.3-0.4
		c-1.2,0.1-2.4,0.2-3.2,0.2c0,0.1-0.1,0.1-0.1,0.1l-0.2-0.6l0.7,0c0.3-0.4,0.6-1.1,0.8-1.5l0.7,0.2c0,0.1-0.1,0.1-0.2,0.1
		c-0.2,0.3-0.5,0.8-0.7,1.2l1.9-0.1c-0.2-0.2-0.4-0.4-0.6-0.6l0.4-0.2c0.5,0.4,1,1,1.3,1.4L90.6,362.1z M90.5,362.3v2.9
		c0,0.5-0.2,0.6-1.2,0.6c0-0.1-0.1-0.3-0.2-0.5c0.8,0,0.8,0,0.8-0.1v-0.5h-2v1.2h-0.6v-3.6H90.5z M90,362.7h-2v0.5h2V362.7z
		 M87.9,364.2h2v-0.5h-2V364.2z M89.8,367.3c0,0.2,0.1,0.2,0.6,0.2h1.7c0.4,0,0.4-0.1,0.5-0.8c0.1,0.1,0.4,0.2,0.5,0.2
		c-0.1,0.9-0.3,1.1-0.9,1.1h-1.8c-0.9,0-1.1-0.1-1.1-0.8v-1.1l0.8,0c0,0.1-0.1,0.1-0.2,0.1V367.3z M91.4,366.9
		c-0.3-0.3-0.9-0.7-1.4-1l0.4-0.3c0.5,0.2,1.2,0.6,1.5,0.9L91.4,366.9z M94.1,362.1c0.3,0,0.4-0.1,0.4-0.8c0.1,0.1,0.4,0.2,0.5,0.2
		c-0.1,0.9-0.2,1.1-0.9,1.1h-1.6c-0.8,0-1-0.2-1-0.8v-1.9l0.7,0.1c0,0.1-0.1,0.1-0.2,0.1v0.9c0.8-0.2,1.6-0.5,2-0.7l0.5,0.4
		c0,0-0.1,0-0.2,0c-0.6,0.3-1.5,0.5-2.4,0.8v0.4c0,0.2,0.1,0.3,0.5,0.3H94.1z M94.1,365.2c0.3,0,0.4-0.1,0.4-0.8
		c0.1,0.1,0.4,0.2,0.5,0.2c-0.1,0.9-0.3,1.2-0.9,1.2h-1.7c-0.8,0-1-0.2-1-0.8v-2.1l0.7,0.1c0,0.1-0.1,0.1-0.2,0.1v0.9
		c0.8-0.2,1.6-0.5,2.1-0.8l0.5,0.4c0,0-0.1,0-0.1,0c0,0,0,0-0.1,0c-0.6,0.3-1.6,0.6-2.5,0.8v0.5c0,0.2,0.1,0.3,0.5,0.3H94.1z
		 M94.7,368c-0.3-0.5-1-1.1-1.6-1.5l0.5-0.3c0.6,0.4,1.4,1,1.7,1.5L94.7,368z"/>
	<path d="M96,360.4h8v0.6h-3.8v1.1h1.9v4.1h-4.4v-4.1h1.9V361H96V360.4z M103.2,367V362l0.8,0c0,0.1-0.1,0.1-0.2,0.1v6h-0.6v-0.6
		h-6.3v0.6h-0.6V362l0.8,0c0,0.1-0.1,0.1-0.2,0.1v4.9H103.2z M98.3,362.6v1.3h1.4v-1.3H98.3z M98.3,364.4v1.3h1.4v-1.3H98.3z
		 M101.6,363.9v-1.3h-1.4v1.3H101.6z M101.6,365.6v-1.3h-1.4v1.3H101.6z"/>
	<path d="M113,361h-3.7c0,0,0,0-0.1,0c-0.1,0.3-0.2,0.8-0.3,1.2h3.7v6H112v-0.5h-6v0.5h-0.6v-6h2.8c0.1-0.4,0.2-0.8,0.3-1.2H105
		v-0.6h8.1V361z M106,362.8v4.3h1.5v-4.3H106z M109.9,363.9v-1.1h-1.8v1.1H109.9z M109.9,365.5v-1.1h-1.8v1.1H109.9z M108.1,366v1.1
		h1.8V366H108.1z M112,367.1v-4.3h-1.6v4.3H112z"/>
</g>
<g>
	<g>
		<g class="st3">
			<g>
				<path class="st5" d="M303,350h83H303z"/>
			</g>
			<g>
				<polygon class="st1" points="384,376 386,378 303,378 305,376 				"/>
			</g>
			<g>
				<polygon class="st6" points="305,376 303,378 303,350 305,352 				"/>
			</g>
			<g>
				<polygon class="st7" points="305,352 303,350 386,350 384,352 				"/>
			</g>
			<g>
				<polygon class="st1" points="384,352 386,350 386,378 384,376 				"/>
			</g>
			<g>
				<rect x="305" y="352" class="st4" width="79" height="24"/>
			</g>
		</g>
	</g>
</g>
<rect x="305" y="352" class="st8" width="79" height="24"/>
<g>
	<rect x="305" y="359.5" class="st12" width="79" height="9"/>
	<path class="st11" d="M333.8,365.2v1.9c0.6,0.2,1.3,0.3,2.2,0.3c0.4,0,3.3,0,3.8,0c-0.1,0.1-0.2,0.4-0.3,0.6H336
		c-2,0-3.1-0.3-3.8-1.6c-0.1,0.8-0.3,1.5-0.6,1.9c-0.1-0.1-0.3-0.2-0.5-0.3c0.5-0.8,0.6-2.4,0.7-4l0.7,0.1c0,0.1-0.1,0.1-0.2,0.1
		c0,0.4,0,0.7-0.1,1.1c0.2,0.7,0.5,1.1,0.8,1.5v-3.4h-1.9v-0.5h1.9v-1.3h-1.6v-0.5h1.6v-1.1l0.7,0c0,0.1-0.1,0.1-0.2,0.1v1h1.5v0.5
		h-1.5v1.3h1.7v0.5h-1.7v1.3h1.5v0.5H333.8z M338.6,362.8v-2h-2.9v-0.5h3.5v3.4h-0.6v-0.3h-2.1v2.4c0,0.3,0.1,0.3,0.5,0.3h1.6
		c0.4,0,0.5-0.2,0.5-1.3c0.1,0.1,0.4,0.2,0.5,0.2c-0.1,1.3-0.3,1.6-1,1.6H337c-0.8,0-1.1-0.2-1.1-0.9v-2.9H338.6z"/>
	<path class="st11" d="M357.2,362l0.3,0c0,0.1,0,0.1,0,0.2c-0.1,4-0.2,5.2-0.5,5.6c-0.2,0.3-0.5,0.3-0.9,0.3c-0.2,0-0.5,0-0.7,0
		c0-0.2-0.1-0.4-0.2-0.6c0.5,0,0.9,0,1.1,0c0.1,0,0.2,0,0.3-0.1c0.2-0.3,0.3-1.5,0.4-4.9h-1.3c0,1.9-0.2,4.1-1.9,5.7
		c-0.1-0.1-0.3-0.3-0.5-0.4c0.2-0.2,0.3-0.3,0.5-0.5c-1.5,0.2-3,0.4-4,0.5c0,0.1-0.1,0.1-0.1,0.1l-0.2-0.6c0.5,0,1.2-0.1,2-0.2v-0.9
		h-1.7v-0.5h1.7v-0.6h-1.7v-2.7h1.7v-0.6h-2v-0.5h2v-0.6c-0.6,0.1-1.2,0.1-1.8,0.1c0-0.1-0.1-0.3-0.2-0.5c1.3-0.1,3-0.3,3.9-0.5
		l0.4,0.5c0,0,0,0-0.1,0c0,0-0.1,0-0.1,0c-0.4,0.1-0.9,0.2-1.5,0.3c0,0-0.1,0-0.1,0.1v0.7h2v0.5h-2v0.6h1.8v2.7h-1.8v0.6h1.8v0.5
		h-1.8v0.8c0.6-0.1,1.3-0.1,1.9-0.2l0,0.4c1.2-1.4,1.3-3.2,1.3-4.7h-1.1V362h1.1v-2.1l0.7,0.1c0,0.1-0.1,0.1-0.2,0.1v1.9H357.2z
		 M350.2,363v0.7h1.2V363H350.2z M350.2,364.7h1.2v-0.7h-1.2V364.7z M353.1,363h-1.2v0.7h1.2V363z M353.1,364.7v-0.7h-1.2v0.7H353.1
		z"/>
</g>
<g>
	<rect x="180.5" y="323.5" class="st12" width="79" height="9"/>
	<path class="st11" d="M193,324l4.2,7.3h-8.5L193,324z"/>
	<path class="st11" d="M209.6,324.1c0,0-0.1,0.1-0.2,0.1c-0.5,0.7-1.5,1.5-2.3,2.1c-0.1-0.1-0.2-0.4-0.4-0.5c0.8-0.5,1.6-1.3,2.1-2
		L209.6,324.1z M208.2,332.2v-4c-0.3,0.4-0.7,0.7-1,1c-0.1-0.1-0.3-0.4-0.4-0.5c0.9-0.7,1.8-1.9,2.5-3l0.7,0.3
		c0,0.1-0.1,0.1-0.2,0.1c-0.3,0.5-0.6,0.9-0.9,1.4l0.2,0.1c0,0.1-0.1,0.1-0.2,0.1v4.5H208.2z M215.2,327v0.6h-1.4v3.8
		c0,0.8-0.3,0.8-2.1,0.8c0-0.2-0.1-0.4-0.2-0.6c0.4,0,0.8,0,1,0c0.6,0,0.6,0,0.6-0.2v-3.8H210V327H215.2z M214.8,324.4v0.6h-4.5
		v-0.6H214.8z"/>
	<path class="st11" d="M228.2,328.6c0,0.1-0.1,0.1-0.2,0.1c-0.2,1.6-0.7,2.8-2.8,3.5c-0.1-0.2-0.2-0.4-0.4-0.5
		c2-0.6,2.4-1.7,2.5-3.2L228.2,328.6z M230.5,331.1c0,0.3,0.1,0.3,0.4,0.3h1.2c0.4,0,0.4-0.2,0.5-1.4c0.1,0.1,0.4,0.2,0.6,0.3
		c-0.1,1.4-0.2,1.7-1,1.7h-1.3c-0.8,0-1-0.2-1-0.9v-2.8H225v-0.6h3.7v-1.9h-2c-0.2,0.5-0.5,1-0.8,1.4c-0.1-0.1-0.4-0.2-0.5-0.3
		c0.6-0.8,1.1-2,1.3-3l0.8,0.2c0,0.1-0.1,0.1-0.2,0.1c-0.1,0.3-0.2,0.6-0.3,1h1.7v-1.5l0.8,0c0,0.1-0.1,0.1-0.2,0.1v1.3h3.1v0.6
		h-3.1v1.9h3.7v0.6h-2.5V331.1z"/>
	<path class="st11" d="M247,324l4.2,7.3h-8.5L247,324z"/>
</g>
<g>
	<g>
		<g class="st3">
			<g>
				<path class="st5" d="M54,294h83H54z"/>
			</g>
			<g>
				<polygon class="st1" points="135,320 137,322 54,322 56,320 				"/>
			</g>
			<g>
				<polygon class="st6" points="56,320 54,322 54,294 56,296 				"/>
			</g>
			<g>
				<polygon class="st7" points="56,296 54,294 137,294 135,296 				"/>
			</g>
			<g>
				<polygon class="st1" points="135,296 137,294 137,322 135,320 				"/>
			</g>
			<g>
				<rect x="56" y="296" class="st4" width="79" height="24"/>
			</g>
		</g>
	</g>
</g>
<rect x="56" y="296" class="st11" width="79" height="24"/>
<g>
	<rect x="56" y="303.5" class="st12" width="79" height="9"/>
	<path d="M60.1,307.4c0.5,0.2,1.2,0.5,1.6,0.8l-0.3,0.5c-0.3-0.3-1-0.6-1.6-0.9L60.1,307.4z M68.1,307h-2.7v0.7h2.2v3.9
		c0,0.6-0.3,0.6-1.3,0.6c0-0.1-0.1-0.4-0.2-0.5c0.2,0,0.4,0,0.5,0c0.4,0,0.4,0,0.4-0.1v-0.9h-1.6v1.5h-0.6v-1.5h-1.5v1.6h-0.6v-4.5
		h2.1V307h-2.5v-0.5h2.5v-0.9l0.4,0v-0.5h-2.5v0.6h-0.6v-0.6h-2.2v-0.5h2.2v-0.7l0.8,0c0,0.1-0.1,0.1-0.2,0.1v0.6h2.5v-0.7l0.8,0
		c0,0.1-0.1,0.1-0.2,0.1v0.6h2.3v0.5h-2.3v0.6h-0.3c0,0-0.1,0.1-0.2,0.1v0.7h2.7V307z M60,311.8c0.4-0.5,0.9-1.5,1.3-2.3l0.4,0.4
		c-0.4,0.7-0.8,1.6-1.1,2.1c0,0,0,0.1,0,0.1c0,0,0,0.1,0,0.1L60,311.8z M61.7,307c-0.3-0.3-1-0.7-1.5-0.9l0.3-0.4
		c0.5,0.2,1.2,0.6,1.5,0.8L61.7,307z M64.8,308.2h-1.5v0.7h1.5V308.2z M63.2,310.2h1.5v-0.8h-1.5V310.2z M66.9,308.2h-1.6v0.7h1.6
		V308.2z M65.4,310.2h1.6v-0.8h-1.6V310.2z M66.4,305.4c0.4,0.2,0.9,0.5,1.2,0.7l-0.3,0.4c-0.3-0.2-0.8-0.6-1.2-0.7L66.4,305.4z"/>
	<path d="M69.3,304.5h7.5v7.7h-0.6v-0.6h-6.2v0.6h-0.6V304.5z M72.7,305h-2.8v2.6h2.8V305z M69.9,308.3v2.7h2.8v-2.7H69.9z
		 M76.1,307.7V305h-2.9v2.6H76.1z M73.3,310.9h2.9v-2.7h-2.9V310.9z"/>
	<path d="M77.8,308.3v-0.6h7c-0.5-0.4-1.1-0.9-1.5-1.5l0.5-0.3c0.6,0.8,1.5,1.6,2.3,2.1c-0.8,0.5-1.7,1.3-2.3,2.1l-0.5-0.3
		c0.4-0.6,1-1.2,1.5-1.5H77.8z"/>
	<path d="M93.2,304.6l0.4,0.2c0,0-0.1,0.1-0.1,0.1c-1.2,2-3.9,3.3-6.2,3.9c-0.1-0.2-0.2-0.4-0.3-0.5c1.2-0.2,2.4-0.7,3.5-1.3
		c-0.3-0.3-0.9-0.6-1.3-0.8l0.4-0.4c0.5,0.2,1.1,0.6,1.4,0.8c0.7-0.4,1.2-0.9,1.6-1.5H90c-0.7,0.5-1.4,1-2.4,1.4
		c-0.1-0.1-0.3-0.4-0.4-0.5c1.6-0.6,2.8-1.5,3.4-2.2l0.8,0.2c0,0.1-0.1,0.1-0.2,0.1c-0.2,0.2-0.4,0.4-0.5,0.5L93.2,304.6L93.2,304.6
		z M94.5,307.8l0.1,0c0.3,0.2,0.4,0.2,0.4,0.2c0,0-0.1,0.1-0.1,0.1c-1.2,2.6-4,3.7-7,4.2c0-0.2-0.2-0.4-0.3-0.6
		c1.4-0.2,2.9-0.6,4.1-1.2c-0.4-0.4-1-0.8-1.5-1l0.5-0.3c0.5,0.3,1.2,0.7,1.6,1.1c0.8-0.5,1.4-1.1,1.8-1.9h-2.8
		c-0.8,0.5-1.8,1.1-2.9,1.5c-0.1-0.1-0.3-0.4-0.4-0.5c1.9-0.6,3.3-1.6,4-2.4l0.8,0.2c0,0.1-0.1,0.1-0.2,0.1
		c-0.2,0.2-0.4,0.4-0.6,0.6H94.5z"/>
	<path d="M104.1,305.1h-7v2.3c0,1.4-0.1,3.4-0.9,4.8c-0.1-0.1-0.3-0.3-0.5-0.4c0.7-1.3,0.8-3.1,0.8-4.4v-2.8h3.4v-0.7l0.8,0.1
		c0,0.1-0.1,0.1-0.2,0.1v0.5h3.6V305.1z M101,309.7v0.7h3.2v0.4H101v0.8c0,0.4-0.1,0.5-0.4,0.6c-0.3,0.1-0.8,0.1-1.6,0.1
		c0-0.1-0.1-0.3-0.2-0.5c0.4,0,0.7,0,1,0c0.5,0,0.6,0,0.6-0.2v-0.8h-3.2v-0.4h3.2v-0.7h-2.7v-0.4h2.7v-0.6c-0.8,0.1-1.6,0.1-2.4,0.1
		c0-0.1-0.1-0.3-0.1-0.4c1.7,0,3.9-0.2,5-0.4l0.4,0.4c0,0-0.1,0-0.1,0c0,0,0,0-0.1,0c-0.5,0.1-1.3,0.2-2.1,0.3v0.6h2.7v0.4H101z
		 M100.6,306.3h-1.3v0.1c0.3,0.2,1.1,0.6,1.2,0.8l-0.3,0.4c-0.2-0.2-0.6-0.5-0.9-0.7v1.1h-0.5v-1.2c-0.4,0.5-0.8,0.9-1.3,1.1
		c-0.1-0.1-0.2-0.3-0.3-0.4c0.5-0.2,1.1-0.7,1.4-1.2h-1.2v-0.5h1.3v-0.7l0.6,0c0,0.1-0.1,0.1-0.2,0.1v0.5h1.3V306.3z M102.6,307.9
		h-0.5v-1.2c-0.4,0.5-0.8,0.9-1.3,1.1c-0.1-0.1-0.2-0.3-0.3-0.4c0.5-0.2,1-0.7,1.4-1.2h-1.1v-0.5h1.3v-0.7l0.6,0
		c0,0.1-0.1,0.1-0.2,0.1v0.5h1.4v0.5h-1.2c0.4,0.5,0.9,0.9,1.4,1.2c-0.1,0.1-0.3,0.3-0.3,0.4c-0.4-0.3-0.9-0.7-1.3-1.2V307.9z"/>
	<path d="M105.9,304.3l0.8,0.1c0,0.1-0.1,0.1-0.2,0.1v2.9c0,1.7-0.1,3.5-1.3,4.8c-0.1-0.1-0.4-0.3-0.5-0.4c1.1-1.3,1.2-2.8,1.2-4.4
		V304.3z M108.8,304.7l0.8,0c0,0.1-0.1,0.1-0.2,0.1v6.5h-0.6V304.7z M112,304.3l0.8,0.1c0,0.1-0.1,0.1-0.2,0.1v7.7H112V304.3z"/>
	<path d="M118,312.2c-2.3,0-4.2-1.9-4.2-4.2c0-2.3,1.9-4.2,4.2-4.2c2.3,0,4.2,1.9,4.2,4.2C122.2,310.3,120.3,312.2,118,312.2z
		 M114.1,308c0,2.2,1.7,3.9,3.9,3.9s3.9-1.7,3.9-3.9s-1.7-3.9-3.9-3.9C115.8,304.1,114.1,305.9,114.1,308z M119.4,306.2h-1.9
		l-0.2,1.2c0.1,0,0.3,0,0.5,0c0.9,0,1.7,0.5,1.7,1.4c0,0.9-0.7,1.5-1.8,1.5c-0.6,0-1-0.2-1.2-0.3l0.2-0.5c0.2,0.1,0.6,0.3,1.1,0.3
		c0.6,0,1.2-0.4,1.2-1c0-0.6-0.4-1-1.4-1c-0.3,0-0.5,0-0.7,0.1l0.3-2.2h2.3V306.2z"/>
	<path d="M128.1,311.3h2.9v0.6h-6.5v-0.6h3v-2.9h-2.1V308c-0.5,1.4-1.2,2.6-2.3,3.6c-0.1-0.1-0.3-0.4-0.4-0.5
		c1.4-1.3,2.2-3.1,2.7-5.1h-2.3v-0.6h2.4c0.1-0.6,0.2-1.1,0.3-1.7l0.8,0.1c0,0.1-0.1,0.1-0.2,0.1c-0.1,0.5-0.2,0.9-0.3,1.4h4.7v0.6
		H126c-0.2,0.6-0.3,1.2-0.6,1.8h5.1v0.6h-2.5V311.3z"/>
</g>
<g>
	<g>
		<g class="st3">
			<g>
				<path class="st5" d="M137,294h83H137z"/>
			</g>
			<g>
				<polygon class="st1" points="218,320 220,322 137,322 139,320 				"/>
			</g>
			<g>
				<polygon class="st6" points="139,320 137,322 137,294 139,296 				"/>
			</g>
			<g>
				<polygon class="st7" points="139,296 137,294 220,294 218,296 				"/>
			</g>
			<g>
				<polygon class="st1" points="218,296 220,294 220,322 218,320 				"/>
			</g>
			<g>
				<rect x="139" y="296" class="st4" width="79" height="24"/>
			</g>
		</g>
	</g>
</g>
<rect x="139" y="296" class="st11" width="79" height="24"/>
<g>
	<rect x="139" y="303.5" class="st12" width="79" height="9"/>
	<path d="M143.1,307.4c0.5,0.2,1.2,0.5,1.6,0.8l-0.3,0.5c-0.3-0.3-1-0.6-1.6-0.9L143.1,307.4z M151.1,307h-2.7v0.7h2.2v3.9
		c0,0.6-0.3,0.6-1.3,0.6c0-0.1-0.1-0.4-0.2-0.5c0.2,0,0.4,0,0.5,0c0.4,0,0.4,0,0.4-0.1v-0.9h-1.6v1.5h-0.6v-1.5h-1.5v1.6h-0.6v-4.5
		h2.1V307h-2.5v-0.5h2.5v-0.9l0.4,0v-0.5h-2.5v0.6h-0.6v-0.6h-2.2v-0.5h2.2v-0.7l0.8,0c0,0.1-0.1,0.1-0.2,0.1v0.6h2.5v-0.7l0.8,0
		c0,0.1-0.1,0.1-0.2,0.1v0.6h2.3v0.5h-2.3v0.6h-0.3c0,0-0.1,0.1-0.2,0.1v0.7h2.7V307z M143,311.8c0.4-0.5,0.9-1.5,1.3-2.3l0.4,0.4
		c-0.4,0.7-0.8,1.6-1.1,2.1c0,0,0,0.1,0,0.1c0,0,0,0.1,0,0.1L143,311.8z M144.7,307c-0.3-0.3-1-0.7-1.5-0.9l0.3-0.4
		c0.5,0.2,1.2,0.6,1.5,0.8L144.7,307z M147.8,308.2h-1.5v0.7h1.5V308.2z M146.2,310.2h1.5v-0.8h-1.5V310.2z M149.9,308.2h-1.6v0.7
		h1.6V308.2z M148.4,310.2h1.6v-0.8h-1.6V310.2z M149.4,305.4c0.4,0.2,0.9,0.5,1.2,0.7l-0.3,0.4c-0.3-0.2-0.8-0.6-1.2-0.7
		L149.4,305.4z"/>
	<path d="M152.3,304.5h7.5v7.7h-0.6v-0.6h-6.2v0.6h-0.6V304.5z M155.7,305h-2.8v2.6h2.8V305z M152.9,308.3v2.7h2.8v-2.7H152.9z
		 M159.1,307.7V305h-2.9v2.6H159.1z M156.3,310.9h2.9v-2.7h-2.9V310.9z"/>
	<path d="M160.8,308.3v-0.6h7c-0.5-0.4-1.1-0.9-1.5-1.5l0.5-0.3c0.6,0.8,1.5,1.6,2.3,2.1c-0.8,0.5-1.7,1.3-2.3,2.1l-0.5-0.3
		c0.4-0.6,1-1.2,1.5-1.5H160.8z"/>
	<path d="M176.2,304.6l0.4,0.2c0,0-0.1,0.1-0.1,0.1c-1.2,2-3.9,3.3-6.2,3.9c-0.1-0.2-0.2-0.4-0.3-0.5c1.2-0.2,2.4-0.7,3.5-1.3
		c-0.3-0.3-0.9-0.6-1.3-0.8l0.4-0.4c0.5,0.2,1.1,0.6,1.4,0.8c0.7-0.4,1.2-0.9,1.6-1.5H173c-0.7,0.5-1.4,1-2.4,1.4
		c-0.1-0.1-0.3-0.4-0.4-0.5c1.6-0.6,2.8-1.5,3.4-2.2l0.8,0.2c0,0.1-0.1,0.1-0.2,0.1c-0.2,0.2-0.4,0.4-0.5,0.5L176.2,304.6
		L176.2,304.6z M177.5,307.8l0.1,0c0.3,0.2,0.4,0.2,0.4,0.2c0,0-0.1,0.1-0.1,0.1c-1.2,2.6-4,3.7-7,4.2c0-0.2-0.2-0.4-0.3-0.6
		c1.4-0.2,2.9-0.6,4.1-1.2c-0.4-0.4-1-0.8-1.5-1l0.5-0.3c0.5,0.3,1.2,0.7,1.6,1.1c0.8-0.5,1.4-1.1,1.8-1.9h-2.8
		c-0.8,0.5-1.8,1.1-2.9,1.5c-0.1-0.1-0.3-0.4-0.4-0.5c1.9-0.6,3.3-1.6,4-2.4l0.8,0.2c0,0.1-0.1,0.1-0.2,0.1
		c-0.2,0.2-0.4,0.4-0.6,0.6H177.5z"/>
	<path d="M187.1,305.1h-7v2.3c0,1.4-0.1,3.4-0.9,4.8c-0.1-0.1-0.3-0.3-0.5-0.4c0.7-1.3,0.8-3.1,0.8-4.4v-2.8h3.4v-0.7l0.8,0.1
		c0,0.1-0.1,0.1-0.2,0.1v0.5h3.6V305.1z M184,309.7v0.7h3.2v0.4H184v0.8c0,0.4-0.1,0.5-0.4,0.6c-0.3,0.1-0.8,0.1-1.6,0.1
		c0-0.1-0.1-0.3-0.2-0.5c0.4,0,0.7,0,1,0c0.5,0,0.6,0,0.6-0.2v-0.8h-3.2v-0.4h3.2v-0.7h-2.7v-0.4h2.7v-0.6c-0.8,0.1-1.6,0.1-2.4,0.1
		c0-0.1-0.1-0.3-0.1-0.4c1.7,0,3.9-0.2,5-0.4l0.4,0.4c0,0-0.1,0-0.1,0c0,0,0,0-0.1,0c-0.5,0.1-1.3,0.2-2.1,0.3v0.6h2.7v0.4H184z
		 M183.6,306.3h-1.3v0.1c0.3,0.2,1.1,0.6,1.2,0.8l-0.3,0.4c-0.2-0.2-0.6-0.5-0.9-0.7v1.1h-0.5v-1.2c-0.4,0.5-0.8,0.9-1.3,1.1
		c-0.1-0.1-0.2-0.3-0.3-0.4c0.5-0.2,1.1-0.7,1.4-1.2h-1.2v-0.5h1.3v-0.7l0.6,0c0,0.1-0.1,0.1-0.2,0.1v0.5h1.3V306.3z M185.6,307.9
		h-0.5v-1.2c-0.4,0.5-0.8,0.9-1.3,1.1c-0.1-0.1-0.2-0.3-0.3-0.4c0.5-0.2,1-0.7,1.4-1.2h-1.1v-0.5h1.3v-0.7l0.6,0
		c0,0.1-0.1,0.1-0.2,0.1v0.5h1.4v0.5h-1.2c0.4,0.5,0.9,0.9,1.4,1.2c-0.1,0.1-0.3,0.3-0.3,0.4c-0.4-0.3-0.9-0.7-1.3-1.2V307.9z"/>
	<path d="M188.9,304.3l0.8,0.1c0,0.1-0.1,0.1-0.2,0.1v2.9c0,1.7-0.1,3.5-1.3,4.8c-0.1-0.1-0.4-0.3-0.5-0.4c1.1-1.3,1.2-2.8,1.2-4.4
		V304.3z M191.8,304.7l0.8,0c0,0.1-0.1,0.1-0.2,0.1v6.5h-0.6V304.7z M195,304.3l0.8,0.1c0,0.1-0.1,0.1-0.2,0.1v7.7H195V304.3z"/>
	<path d="M201,312.2c-2.3,0-4.2-1.9-4.2-4.2c0-2.3,1.9-4.2,4.2-4.2c2.3,0,4.2,1.9,4.2,4.2C205.2,310.3,203.3,312.2,201,312.2z
		 M197.1,308c0,2.2,1.7,3.9,3.9,3.9s3.9-1.7,3.9-3.9s-1.7-3.9-3.9-3.9C198.8,304.1,197.1,305.9,197.1,308z M202.2,306.2
		c-0.1,0-0.1,0-0.2,0c-0.1,0-0.3,0-0.4,0c-0.6,0.1-1.4,0.4-1.6,1.6l0,0c0.3-0.4,0.8-0.5,1.2-0.5c0.9,0,1.5,0.7,1.5,1.4
		c0,0.8-0.7,1.6-1.7,1.6c-0.9,0-1.6-0.6-1.6-2c0-1.5,0.9-2.5,2.2-2.7c0.3,0,0.5-0.1,0.7,0V306.2z M202.1,308.7c0-0.5-0.4-1-1-1
		c-0.5,0-1.1,0.4-1.1,0.8c0,0.5,0.2,1.4,1.1,1.4C201.7,309.9,202.1,309.3,202.1,308.7z"/>
	<path d="M214,306.1h-4.8c-0.2,0.6-0.5,1.3-0.9,1.8h5v4.2h-0.6v-0.5h-4.2v0.5h-0.6v-3.6c-0.5,0.7-1.1,1.3-1.7,1.7
		c-0.1-0.1-0.3-0.4-0.4-0.5c1.3-0.9,2.2-2.3,2.8-3.8H206v-0.6h2.7c0.2-0.6,0.4-1.2,0.5-1.7l0.8,0.2c0,0.1-0.1,0.1-0.2,0.1
		c-0.1,0.5-0.3,1-0.4,1.4h4.6V306.1z M212.7,308.6h-4.2v2.5h4.2V308.6z"/>
</g>
<g>
	<g>
		<g class="st3">
			<g>
				<path class="st5" d="M220,294h83H220z"/>
			</g>
			<g>
				<polygon class="st1" points="301,320 303,322 220,322 222,320 				"/>
			</g>
			<g>
				<polygon class="st6" points="222,320 220,322 220,294 222,296 				"/>
			</g>
			<g>
				<polygon class="st7" points="222,296 220,294 303,294 301,296 				"/>
			</g>
			<g>
				<polygon class="st1" points="301,296 303,294 303,322 301,320 				"/>
			</g>
			<g>
				<rect x="222" y="296" class="st4" width="79" height="24"/>
			</g>
		</g>
	</g>
</g>
<rect x="222" y="296" class="st11" width="79" height="24"/>
<g>
	<g>
		<g class="st3">
			<g>
				<path class="st5" d="M303,294h83H303z"/>
			</g>
			<g>
				<polygon class="st1" points="384,320 386,322 303,322 305,320 				"/>
			</g>
			<g>
				<polygon class="st6" points="305,320 303,322 303,294 305,296 				"/>
			</g>
			<g>
				<polygon class="st7" points="305,296 303,294 386,294 384,296 				"/>
			</g>
			<g>
				<polygon class="st1" points="384,296 386,294 386,322 384,320 				"/>
			</g>
			<g>
				<rect x="305" y="296" class="st4" width="79" height="24"/>
			</g>
		</g>
	</g>
</g>
<rect x="305" y="296" class="st11" width="79" height="24"/>
<g>
	<g>
		<g class="st3">
			<g>
				<path class="st5" d="M137,350h83H137z"/>
			</g>
			<g>
				<polygon class="st1" points="218,376 220,378 137,378 139,376 				"/>
			</g>
			<g>
				<polygon class="st6" points="139,376 137,378 137,350 139,352 				"/>
			</g>
			<g>
				<polygon class="st7" points="139,352 137,350 220,350 218,352 				"/>
			</g>
			<g>
				<polygon class="st1" points="218,352 220,350 220,378 218,376 				"/>
			</g>
			<g>
				<rect x="139" y="352" class="st4" width="79" height="24"/>
			</g>
		</g>
	</g>
</g>
<rect x="139" y="352" class="st0" width="79" height="24"/>
<g>
	<rect x="139" y="359.5" class="st12" width="79" height="9"/>
	<path d="M165.5,360c0,0.1-0.1,0.1-0.2,0.1c-0.1,0.3-0.3,0.7-0.4,1h3.3v7.1h-0.6v-0.5h-4.9v0.5H162v-7.1h2.2
		c0.2-0.4,0.3-0.9,0.4-1.3L165.5,360z M167.5,361.7h-4.9v1.4h4.9V361.7z M167.5,363.7h-4.9v1.4h4.9V363.7z M162.6,367.1h4.9v-1.4
		h-4.9V367.1z"/>
	<path d="M177.7,362l0.3,0c0,0.1,0,0.1,0,0.2c-0.1,4-0.2,5.2-0.5,5.6c-0.2,0.3-0.5,0.3-0.9,0.3c-0.2,0-0.5,0-0.7,0
		c0-0.2-0.1-0.4-0.2-0.6c0.5,0,0.9,0,1.1,0c0.1,0,0.2,0,0.3-0.1c0.2-0.3,0.3-1.5,0.4-4.9h-1.3c0,1.9-0.2,4.1-1.9,5.7
		c-0.1-0.1-0.3-0.3-0.5-0.4c0.2-0.2,0.3-0.3,0.5-0.5c-1.5,0.2-3,0.4-4,0.5c0,0.1-0.1,0.1-0.1,0.1l-0.2-0.6c0.5,0,1.2-0.1,2-0.2v-0.9
		h-1.7v-0.5h1.7v-0.6h-1.7v-2.7h1.7v-0.6h-2v-0.5h2v-0.6c-0.6,0.1-1.2,0.1-1.8,0.1c0-0.1-0.1-0.3-0.2-0.5c1.3-0.1,3-0.3,3.9-0.5
		l0.5,0.5c0,0,0,0-0.1,0c0,0-0.1,0-0.1,0c-0.4,0.1-0.9,0.2-1.5,0.3c0,0-0.1,0-0.1,0.1v0.7h2v0.5h-2v0.6h1.8v2.7h-1.8v0.6h1.8v0.5
		h-1.8v0.8c0.6-0.1,1.3-0.1,1.9-0.2l0,0.4c1.2-1.4,1.3-3.2,1.3-4.7h-1.1V362h1.1v-2.1l0.7,0.1c0,0.1-0.1,0.1-0.2,0.1v1.9H177.7z
		 M170.7,363v0.7h1.2V363H170.7z M170.7,364.7h1.2v-0.7h-1.2V364.7z M173.6,363h-1.2v0.7h1.2V363z M173.6,364.7v-0.7h-1.2v0.7H173.6
		z"/>
	<path d="M182,363.2l0.3,0c0,0.1,0,0.1,0,0.2c-0.1,3.1-0.1,4.1-0.4,4.4c-0.2,0.3-0.4,0.3-0.9,0.3c-0.2,0-0.4,0-0.6,0
		c0-0.2-0.1-0.4-0.2-0.6c0.4,0,0.7,0,0.9,0c0.1,0,0.2,0,0.3-0.1c0.2-0.2,0.2-1.1,0.3-3.7h-1.3c-0.1,1.7-0.4,3.4-1.3,4.4
		c-0.1-0.1-0.3-0.3-0.5-0.4c1.1-1.3,1.2-3.6,1.2-5.9h-1.1v-0.6h1.7v-1.5l0.8,0c0,0.1-0.1,0.1-0.2,0.1v1.3h1.8v0.6h-2.3
		c0,0.4,0,0.9,0,1.3H182z M187.2,362.1h-0.7c-0.2,1.5-0.6,2.7-1.2,3.7c0.5,0.8,1.2,1.4,2,1.8c-0.1,0.1-0.3,0.4-0.4,0.5
		c-0.8-0.4-1.4-1-1.9-1.8c-0.6,0.8-1.3,1.4-2.3,1.8c-0.1-0.1-0.2-0.4-0.3-0.5c1-0.4,1.7-1,2.3-1.9c-0.4-0.8-0.7-1.7-1-2.7
		c-0.2,0.4-0.4,0.8-0.6,1.1c-0.1-0.1-0.3-0.3-0.5-0.4c0.7-0.9,1.2-2.5,1.4-4.1l0.8,0.2c0,0.1-0.1,0.1-0.2,0.1
		c-0.1,0.5-0.2,1-0.3,1.4h3V362.1z M184,362.1c0,0,0,0.1,0,0.1c0.2,1.1,0.5,2.1,0.9,3c0.5-0.9,0.8-1.9,1-3.2H184z"/>
	<path d="M189.8,363.4v2.9c0.7,1.1,2,1.1,3.6,1.1c1,0,2.1,0,2.8-0.1c-0.1,0.1-0.2,0.4-0.2,0.6c-0.6,0-1.6,0-2.5,0
		c-1.9,0-3.1,0-4-1.1c-0.4,0.4-0.9,0.8-1.3,1.1c0,0.1,0,0.1-0.1,0.1l-0.4-0.7c0.4-0.3,1-0.7,1.4-1.1V364h-1.3v-0.6H189.8z
		 M188.4,360c0.6,0.4,1.3,1,1.6,1.4l-0.5,0.4c-0.3-0.5-1-1.1-1.6-1.5L188.4,360z M196.1,364h-2.4c0.4,1.2,1.2,2,2.4,2.4
		c-0.1,0.1-0.3,0.3-0.4,0.5c-1.2-0.4-2-1.2-2.5-2.5c-0.3,0.8-0.9,1.7-2.4,2.4c-0.1-0.1-0.3-0.3-0.4-0.5c1.6-0.7,2.2-1.6,2.3-2.4
		h-2.4v-0.6h2.5c0-0.1,0-0.2,0-0.3v-1h-2.2v-0.6h3.6l-0.5-0.2c0.3-0.4,0.7-1.1,0.9-1.5l0.7,0.3c0,0.1-0.1,0.1-0.2,0.1
		c-0.2,0.4-0.6,1-0.9,1.4h1.6v0.6h-2.4v1c0,0.1,0,0.2,0,0.3h2.7V364z M191.8,361.6c-0.1-0.4-0.5-1.1-0.8-1.5l0.5-0.2
		c0.4,0.5,0.7,1.1,0.8,1.5L191.8,361.6z"/>
</g>
<g>
</g>
<g>
</g>
<g>
</g>
<g>
</g>
<g>
</g>
<g>
</g>
<g>
</g>
<g>
</g>
<g>
</g>
<g>
</g>
<g>
</g>
<g>
</g>
<g>
</g>
<g>
</g>
<g>
</g>
<g>
</g>
<g>
</g>
<g>
</g>
<g>
</g>
<g>
</g>
<g>
</g>
<g>
</g>
<g>
</g>
<g>
</g>
<g>
</g>
</svg>
