<?xml version="1.0" encoding="utf-8"?>
<!-- Generator: Adobe Illustrator 16.0.0, SVG Export Plug-In . SVG Version: 6.00 Build 0)  -->
<!DOCTYPE svg PUBLIC "-//W3C//DTD SVG 1.1//EN" "http://www.w3.org/Graphics/SVG/1.1/DTD/svg11.dtd">
<svg version="1.1" id="レイヤー_1" xmlns="http://www.w3.org/2000/svg" xmlns:xlink="http://www.w3.org/1999/xlink" x="0px"
	 y="0px" width="440px" height="975px" viewBox="0 0 440 975" style="enable-background:new 0 0 440 975;" xml:space="preserve">
<style type="text/css">
<![CDATA[
	.st0{fill:#FFFFCC;}
	.st1{fill:#FFFFFF;}
	.st2{fill:none;}
	.st3{fill:#CCCCCC;}
	.st4{fill:none;stroke:#000000;stroke-width:2;stroke-miterlimit:10;}
	.st5{fill:#DB0000;}
	.st6{fill:#EEEEEE;stroke:#000000;stroke-width:2;stroke-miterlimit:10;}
]]>
</style>
<rect class="st0" width="440" height="975"/>
<rect x="132" y="79" class="st6" width="44" height="72"/>
<rect x="176" y="79" class="st6" width="44" height="72"/>
<rect x="220" y="79" class="st6" width="44" height="72"/>
<rect x="264" y="79" class="st6" width="44" height="72"/>
<rect x="308" y="79" class="st6" width="44" height="72"/>
<rect x="352" y="79" class="st6" width="44" height="72"/>
<g>
	<rect x="191.5" y="86.2" class="st2" width="13" height="57.6"/>
	<path d="M198.2,93.8c0.4,0.8,0.8,1.4,1.4,2c1-0.5,2.2-1.3,2.9-1.8l0.8,0.6c-0.1,0.1-0.2,0.1-0.3,0.1c-0.8,0.5-1.9,1.2-2.9,1.7
		c1,0.8,2.3,1.4,3.9,1.7c-0.2,0.2-0.4,0.5-0.5,0.8c-3-0.7-5.1-2.4-6.2-5h-2v3.6c1.1-0.2,2.4-0.4,3.5-0.6l0,0.7
		c-2.1,0.4-4.3,0.8-5.6,1c0,0.1-0.1,0.2-0.2,0.2l-0.4-0.9c0.5-0.1,1.1-0.2,1.7-0.3v-3.8h-2.3V93h2.3v-5.8h8.2V88h-7.3v1.2h6.9v0.7
		h-6.9v1.2h6.9v0.7h-6.9V93h8.5v0.8H198.2z"/>
	<path d="M192.4,112.6c0.8,0.3,1.8,0.9,2.3,1.4l-0.5,0.7c-0.5-0.5-1.5-1.1-2.3-1.4L192.4,112.6z M192.3,120.3c0.6-1,1.6-2.8,2.2-4.2
		l0.7,0.5c-0.6,1.4-1.4,3-2,4c0.1,0.1,0.1,0.1,0.1,0.2c0,0.1,0,0.1-0.1,0.1L192.3,120.3z M193.1,109.1c0.8,0.4,1.8,1,2.3,1.5
		c-0.3,0.4-0.4,0.5-0.5,0.7c-0.5-0.5-1.5-1.1-2.3-1.5L193.1,109.1z M204,118.1v0.8h-4.3v2.1h-0.8v-2.1h-3.9v-0.8h3.9V117h-3.2v-0.8
		h3.2v-1.1H196v-0.8h2.9v-1.2h-3.7v-0.8h3.7v-1.2h-2.8v-0.7h2.8V109l1.1,0.1c0,0.1-0.1,0.1-0.2,0.2v1.2h3.1v2h1.2v0.8h-1.2v2h-3.1
		v1.1h3.5v0.8h-3.5v1.1H204z M199.7,111.1v1.2h2.2v-1.2H199.7z M199.7,113.1v1.2h2.2v-1.2H199.7z"/>
	<path d="M192.7,132.2h10.8v11.1h-0.9v-0.8h-9v0.8h-0.9V132.2z M197.5,133h-4v3.8h4V133z M193.5,137.7v3.9h4v-3.9H193.5z
		 M202.5,136.8V133h-4.1v3.8H202.5z M198.4,141.5h4.1v-3.9h-4.1V141.5z"/>
</g>
<rect x="132" y="172" class="st6" width="44" height="72"/>
<rect x="176" y="172" class="st6" width="44" height="72"/>
<rect x="220" y="172" class="st6" width="44" height="72"/>
<rect x="264" y="172" class="st6" width="44" height="72"/>
<rect x="308" y="172" class="st6" width="44" height="72"/>
<rect x="352" y="172" class="st6" width="44" height="72"/>
<rect x="132" y="421" class="st6" width="44" height="72"/>
<rect x="176" y="421" class="st6" width="44" height="72"/>
<rect x="220" y="421" class="st6" width="44" height="72"/>
<rect x="264" y="421" class="st6" width="44" height="72"/>
<rect x="308" y="421" class="st6" width="44" height="72"/>
<rect x="352" y="421" class="st6" width="44" height="72"/>
<rect x="44" y="421" class="st6" width="44" height="72"/>
<rect x="88" y="421" class="st6" width="44" height="72"/>
<rect x="44" y="514" class="st6" width="44" height="72"/>
<rect x="88" y="514" class="st6" width="44" height="72"/>
<rect x="132" y="514" class="st6" width="44" height="72"/>
<rect x="176" y="514" class="st6" width="44" height="72"/>
<rect x="220" y="514" class="st6" width="44" height="72"/>
<rect x="264" y="514" class="st6" width="44" height="72"/>
<rect x="308" y="514" class="st6" width="44" height="72"/>
<rect x="352" y="514" class="st6" width="44" height="72"/>
<g>
	<rect x="140.1" y="13.5" class="st2" width="159.9" height="24"/>
	<path d="M146,16.8v-1.3h10.6v1.3h-5.4c-0.3,1.1-0.6,2.2-1.1,3.4h4.7l0.3-0.1l0.9,0.4c0,0.1-0.1,0.2-0.2,0.2
		c-1.1,6.7-4.1,10.9-8,13.1c-0.2-0.3-0.7-0.8-1.1-1.1c2.1-1.1,3.9-2.8,5.3-5.1c-0.9-0.8-2.5-1.8-3.7-2.5l0.7-1
		c1.2,0.7,2.7,1.6,3.6,2.3c0.7-1.4,1.2-3.1,1.6-4.9h-4.7c-0.8,1.9-1.9,3.7-3.3,5c-0.2-0.3-0.7-0.7-1-0.9c2.3-2.2,3.7-5.7,4.4-8.8
		H146z M157.5,16.7l1.8,0.1c0,0.1-0.1,0.3-0.4,0.3v11.3h-1.4V16.7z M162.8,14.7l1.8,0.1c0,0.2-0.1,0.3-0.4,0.3v16.8
		c0,1.8-0.8,1.9-4.6,1.9c-0.1-0.4-0.3-1-0.5-1.4c0.9,0,1.7,0,2.3,0c1.3,0,1.4,0,1.4-0.5V14.7z"/>
	<path d="M186.5,29.3v1.3h-8.9v3.1h-1.4v-3.1h-8.7v-1.3h8.7v-1.8h-6.5v-8.3h6.5v-1.7H168v-1.3h8.1v-2l1.8,0.1c0,0.1-0.1,0.3-0.4,0.3
		v1.6h8.3v1.3h-8.3v1.7h6.7v8.3h-6.7v1.8H186.5z M171.1,20.4v2.3h5.1v-2.3H171.1z M171.1,26.3h5.1v-2.4h-5.1V26.3z M182.9,20.4h-5.3
		v2.3h5.3V20.4z M182.9,26.3v-2.4h-5.3v2.4H182.9z"/>
	<path d="M190.9,18.6c0,1.9-0.4,4.1-1.2,5.5c-0.8-0.5-0.9-0.5-1-0.6c0.8-1.2,1.1-3.3,1.1-5.1L190.9,18.6z M191.7,14.2l1.8,0.1
		c0,0.1-0.1,0.3-0.4,0.3v19.1h-1.4V14.2z M195,21c-0.3-0.8-0.9-2.1-1.5-3.1l1-0.5c0.6,0.9,1.3,2.2,1.6,3L195,21z M202.3,21.3h5.9
		v1.2h-13v-1.2h5.7v-1.5h-4.1v-1.1h4.1v-1.4h-4.9v-1.1h4.9v-1.9l1.9,0.1c0,0.1-0.1,0.3-0.4,0.3v1.5h5.1v1.1h-5.1v1.4h4.3v1.1h-4.3
		V21.3z M206.3,23.9v8.3c0,1.4-0.5,1.5-3.5,1.5c-0.1-0.4-0.3-0.9-0.4-1.2c0.6,0,1.1,0,1.5,0c0.9,0,1,0,1-0.3v-1.9h-6.5v3.3H197v-9.8
		H206.3z M204.9,25.1h-6.5v1.6h6.5V25.1z M198.4,29.3h6.5v-1.6h-6.5V29.3z"/>
	<path d="M215.8,17.6V20h4.2v1.2h-9.7V20h4.2v-2.4h-3.4v-1.2h3.4v-2.1l1.7,0.1c0,0.1-0.1,0.3-0.4,0.3v1.7h3.3v1.2H215.8z
		 M216.2,24.6c0.4-0.8,1-2.2,1.3-3.1l1.5,0.5c-0.1,0.1-0.2,0.2-0.4,0.2c-0.3,0.7-0.9,1.8-1.3,2.6h2.5V26h-3.9v2.4h3.6v1.2h-3.6v4.1
		h-1.3v-4.1h-3.6v-1.2h3.6V26h-3.9v-1.2h6L216.2,24.6z M212.8,24.6c-0.1-0.8-0.5-2-1-2.9l1.1-0.3c0.5,0.9,0.9,2.1,1,2.8L212.8,24.6z
		 M228.2,23.2l0.9,0.3c0,0.1-0.1,0.2-0.1,0.3c-0.4,2.2-1.2,4.4-2.3,6.3c0.9,1,2,1.9,3.2,2.4c-0.3,0.3-0.8,0.8-1,1.2
		c-1.1-0.6-2.1-1.4-3-2.5c-0.7,0.9-1.5,1.7-2.5,2.3c-0.2-0.3-0.6-0.7-1-0.9c1-0.7,1.8-1.5,2.6-2.5c-1-1.4-1.8-3.2-2.4-5l1.1-0.3
		c0.5,1.4,1.2,2.9,2,4.1c0.8-1.4,1.3-2.9,1.7-4.5H222v9.3h-1.3V15.3h8.2v5.3c0,1.5-0.8,1.5-3.6,1.5c0-0.4-0.3-0.9-0.4-1.2
		c0.5,0,1.1,0,1.5,0c1.2,0,1.2,0,1.2-0.3v-3.9H222v6.7h5.9L228.2,23.2z"/>
	<path d="M239.8,17.8V19h-8v-1.2H239.8z M239,26.4v6.2H234v1h-1.3v-7.2H239z M232.7,21.8v-1.2h6.3v1.2H232.7z M232.7,24.7v-1.2h6.3
		v1.2H232.7z M239,15v1.2h-6.1V15H239z M237.8,27.6H234v3.8h3.8V27.6z M242.8,16.2v1.3c0,1.8-0.5,4.1-2.7,5.5
		c-0.2-0.3-0.7-0.8-1-0.9c2.1-1.3,2.4-3.1,2.4-4.6v-2.6h6.6v5.3c0,0.5,0.1,0.5,0.4,0.5h1.2c0.4,0,0.5-0.3,0.5-2.4
		c0.3,0.2,0.8,0.4,1.2,0.5c-0.1,2.5-0.5,3.1-1.6,3.1h-1.5c-1.2,0-1.6-0.4-1.6-1.8v-4H242.8z M249.3,23.4l0.9,0.4
		c0,0.1-0.1,0.2-0.2,0.2c-0.7,2.5-2,4.5-3.6,6.1c1.4,1.1,3.1,1.9,5,2.4c-0.3,0.3-0.7,0.9-0.9,1.2c-2-0.6-3.7-1.5-5.2-2.7
		c-1.6,1.3-3.5,2.2-5.5,2.7c-0.1-0.4-0.5-0.9-0.8-1.2c1.9-0.5,3.7-1.3,5.2-2.4c-1.3-1.4-2.4-3-3.1-4.9l1.3-0.4
		c0.7,1.7,1.6,3.1,2.9,4.4c1.3-1.2,2.3-2.7,3-4.4h-8.3v-1.3h9L249.3,23.4z"/>
	<path d="M263.7,27.2v4.6c1.1,0.2,2.3,0.3,3.7,0.3c0.7,0,4.4,0,5.4,0c-0.2,0.4-0.5,1-0.5,1.4h-4.9c-4.5,0-7.8-0.8-9.7-4.5
		c-0.8,2.1-1.8,3.8-3.3,4.9c-0.2-0.3-0.7-0.7-1.1-0.9c2.3-1.7,3.5-4.9,4-8.8l1.8,0.3c0,0.1-0.2,0.3-0.4,0.3
		c-0.1,0.8-0.3,1.7-0.5,2.5c0.9,2.4,2.3,3.6,4.2,4.3v-9.2h-5.4v-1.3h12.3v1.3h-5.5v3.7h6.4v1.3H263.7z M255.6,18.2v3.2h-1.4v-4.5h8
		v-2.6l1.9,0.1c0,0.1-0.1,0.3-0.4,0.3v2.2h8.1v4.5h-1.4v-3.2H255.6z"/>
	<path d="M294.1,24H288c1.7,1.5,4.2,2.8,6.7,3.4c-0.3,0.3-0.7,0.8-0.9,1.2c-0.5-0.1-1-0.3-1.5-0.5v5.7H291V33h-4.1v0.8h-1.3v-6.9
		h4.2c-1.4-0.8-2.7-1.8-3.6-2.9h-3.3c-1,1.1-2.2,2.1-3.7,2.9h4.3v6.8h-1.3V33h-4.1v0.8h-1.3V28c-0.5,0.2-0.9,0.4-1.4,0.5
		c-0.2-0.3-0.6-0.8-0.9-1c2.6-0.9,4.8-2,6.4-3.5h-6v-1.3h7.2c0.4-0.5,0.8-1.1,1.1-1.7h-6.8v-5.8h6.8v5.7l0.2-0.4l1.7,0.5
		c0,0.1-0.2,0.2-0.5,0.2c-0.3,0.5-0.5,1-0.9,1.5h10.2V24z M282.1,19.9v-3.5h-4.2v3.5H282.1z M282.2,31.8v-3.6h-4.1v3.6H282.2z
		 M292.7,15.2V21h-6.9v-5.8H292.7z M286.9,31.8h4.1v-3.6h-4.1V31.8z M291.3,19.9v-3.5h-4.2v3.5H291.3z"/>
</g>
<rect x="44" y="292" class="st6" width="44" height="72"/>
<rect x="88" y="292" class="st6" width="44" height="72"/>
<rect x="132" y="292" class="st6" width="44" height="72"/>
<rect x="176" y="292" class="st6" width="44" height="72"/>
<rect x="220" y="292" class="st6" width="44" height="72"/>
<rect x="264" y="292" class="st6" width="44" height="72"/>
<rect x="308" y="292" class="st6" width="44" height="72"/>
<rect x="352" y="292" class="st6" width="44" height="72"/>
<rect x="44" y="607" class="st6" width="44" height="72"/>
<rect x="88" y="607" class="st6" width="44" height="72"/>
<rect x="132" y="607" class="st6" width="44" height="72"/>
<rect x="176" y="607" class="st6" width="44" height="72"/>
<rect x="220" y="607" class="st6" width="44" height="72"/>
<rect x="264" y="607" class="st6" width="44" height="72"/>
<rect x="308" y="607" class="st6" width="44" height="72"/>
<rect x="352" y="607" class="st6" width="44" height="72"/>
<rect x="44" y="700" class="st6" width="44" height="72"/>
<rect x="88" y="700" class="st6" width="44" height="72"/>
<rect x="132" y="700" class="st6" width="44" height="72"/>
<rect x="176" y="700" class="st6" width="44" height="72"/>
<rect x="220" y="700" class="st6" width="44" height="72"/>
<rect x="264" y="700" class="st6" width="44" height="72"/>
<rect x="308" y="700" class="st6" width="44" height="72"/>
<rect x="352" y="700" class="st6" width="44" height="72"/>
<rect x="44" y="793" class="st6" width="44" height="72"/>
<rect x="88" y="793" class="st6" width="44" height="72"/>
<rect x="132" y="793" class="st6" width="44" height="72"/>
<rect x="176" y="793" class="st6" width="44" height="72"/>
<rect x="220" y="793" class="st6" width="44" height="72"/>
<rect x="264" y="793" class="st6" width="44" height="72"/>
<rect x="308" y="793" class="st6" width="44" height="72"/>
<rect x="352" y="793" class="st6" width="44" height="72"/>
<rect x="176" y="911" width="88" height="14"/>
<g>
	<rect x="176.1" y="912.5" class="st2" width="87.9" height="14"/>
	<path class="st3" d="M189.9,915.1h-4.2v7.1h-3.3v-7.1h-4.2v-1.4h11.6V915.1z"/>
	<path class="st3" d="M204.1,917.9c0,2.9-3,4.5-7.2,4.5c-4.5,0-7-1.9-7-4.3c0-2.5,2.8-4.4,7.2-4.4
		C201.8,913.6,204.1,915.6,204.1,917.9z M193.3,918c0,1.7,1.3,3,3.7,3c2.4,0,3.7-1.4,3.7-3.1c0-1.6-1.2-3-3.7-3
		C194.5,914.9,193.3,916.4,193.3,918z"/>
	<path class="st3" d="M213.7,915.3c-0.6-0.2-1.6-0.4-3-0.4c-1.7,0-2.5,0.5-2.5,0.9c0,0.6,0.8,0.9,2.9,1.4c2.7,0.6,3.9,1.4,3.9,2.5
		c0,1.5-2.2,2.6-6.2,2.6c-1.7,0-3.4-0.2-4.2-0.5l0.6-1.4c0.9,0.3,2.3,0.5,3.7,0.5c1.8,0,2.8-0.4,2.8-1.1c0-0.6-0.8-1-2.7-1.4
		c-2.6-0.5-4.1-1.3-4.1-2.4c0-1.4,2.2-2.5,5.8-2.5c1.6,0,2.8,0.2,3.6,0.4L213.7,915.3z"/>
	<path class="st3" d="M228.7,922.2h-3.3v-3.6h-5.8v3.6h-3.3v-8.5h3.3v3.4h5.8v-3.4h3.3V922.2z"/>
	<path class="st3" d="M230.9,913.7h3.3v8.5h-3.3V913.7z"/>
	<path class="st3" d="M244.3,917.7c1.9,0.2,3.3,1,3.3,2.1c0,0.7-0.5,1.3-1.5,1.7c-1.1,0.5-3,0.8-6.1,0.8c-1.6,0-2.8-0.1-3.6-0.1
		v-8.3c1-0.1,2.6-0.2,4.3-0.2c2,0,3.5,0.1,4.7,0.5c1,0.3,1.7,0.9,1.7,1.6C247,916.6,246.1,917.3,244.3,917.7L244.3,917.7z
		 M240.8,917.2c1.8,0,2.9-0.5,2.9-1.2c0-0.8-1.3-1.1-2.7-1.1c-0.7,0-1.1,0-1.4,0.1v2.2H240.8z M239.6,921c0.3,0,0.7,0,1.3,0
		c1.8,0,3.3-0.4,3.3-1.4c0-1-1.7-1.3-3.3-1.3h-1.2V921z"/>
	<path class="st3" d="M261.4,922.2H258l-1.2-2.2h-4.5l-1.2,2.2h-3.3l4.8-8.5h4.1L261.4,922.2z M256.3,918.7l-1-1.9
		c-0.3-0.5-0.6-1.2-0.8-1.7h-0.1c-0.2,0.5-0.5,1.2-0.7,1.7l-1,1.9H256.3z"/>
</g>
<g>
	<path class="st4" d="M396,291v-14.5c0-2.8-2.3-4.5-5-4.5H49.5c-2.8,0-5.5,1.8-5.5,4.5V292"/>
</g>
<rect x="202" y="262" class="st0" width="36" height="20"/>
<g>
	<rect x="191.6" y="264.3" class="st2" width="56.8" height="14.3"/>
	<path d="M209.7,270.7c0.4,0.4,1.6,1.7,1.9,2l-0.6,0.7c-0.2-0.4-0.8-1.2-1.3-1.8v6.2h-0.9v-6.3c-0.5,1.5-1.2,2.9-1.8,3.8
		c-0.1-0.3-0.3-0.6-0.5-0.8c0.8-1.1,1.7-3,2.2-4.6h-2v-0.9h2.2v-2.4c-0.6,0.2-1.3,0.4-1.9,0.5c0-0.2-0.2-0.5-0.3-0.7
		c1.5-0.4,3.3-0.9,4.2-1.5l0.8,0.7c-0.1,0.1-0.1,0.1-0.3,0.1c-0.4,0.2-1,0.5-1.6,0.7v2.7h1.8v0.9h-1.8V270.7z M215.7,276.7h3.8v0.8
		H211v-0.8h3.9v-1.2h-3.1v-0.8h3.1v-1H212v-4.5h2.8v-1h-3.5v-0.8h3.5v-1.2c-1,0.1-2,0.2-3,0.3c0-0.2-0.1-0.5-0.2-0.7
		c2.3-0.2,5.1-0.6,6.5-1l0.8,0.7c0,0-0.1,0.1-0.2,0.1c0,0-0.1,0-0.1,0c-0.8,0.2-1.8,0.4-2.9,0.6v1.3h3.6v0.8h-3.6v1h3v4.5h-3v1h3.2
		v0.8h-3.2V276.7z M212.8,270v1.2h2V270H212.8z M212.8,273h2v-1.2h-2V273z M217.8,270h-2.1v1.2h2.1V270z M217.8,273v-1.2h-2.1v1.2
		H217.8z"/>
	<path d="M226.2,271.8l0.2,0l0.5,0.1c0,0.1,0,0.2,0,0.3c-0.2,3.6-0.3,4.9-0.7,5.3c-0.3,0.4-0.5,0.4-1.6,0.4c-0.3,0-0.7,0-1.1,0
		c0-0.3-0.1-0.6-0.3-0.8c0.7,0.1,1.4,0.1,1.7,0.1c0.3,0,0.4,0,0.5-0.2c0.3-0.3,0.4-1.4,0.5-4.3h-2.5c-0.3,1.9-1,3.9-2.4,5.2
		c-0.1-0.2-0.4-0.5-0.7-0.6c1.8-1.6,2.3-4.7,2.4-7.1h-1.6v-4.6h5.6v4.6h-3c-0.1,0.5-0.1,1.1-0.2,1.7H226.2z M222.2,266.3v2.9h3.8
		v-2.9H222.2z M228.4,266.5l1.2,0.1c0,0.1-0.1,0.2-0.3,0.2v7.6h-0.9V266.5z M231.9,265.1l1.2,0.1c0,0.1-0.1,0.2-0.3,0.2v11.2
		c0,0.7-0.2,1-0.6,1.1c-0.4,0.2-1.2,0.2-2.5,0.2c-0.1-0.3-0.2-0.7-0.4-1c0.5,0,1,0,1.4,0c1.1,0,1.2,0,1.2-0.4V265.1z"/>
</g>
<g>
	<path class="st4" d="M396,421v-16.5c0-2.8-2.3-4.5-5-4.5H49.5c-2.8,0-5.5,1.8-5.5,4.5V422"/>
</g>
<rect x="202" y="389" class="st0" width="36" height="20"/>
<g>
	<rect x="191.6" y="392.3" class="st2" width="56.8" height="14.3"/>
	<path d="M210.8,393.3c0,0.1-0.1,0.1-0.3,0.1c-0.8,1-2.3,2.4-3.5,3.2c-0.1-0.2-0.4-0.6-0.5-0.8c1.2-0.8,2.6-2,3.3-3L210.8,393.3z
		 M208.7,405.8v-6.2c-0.5,0.6-1.1,1.1-1.6,1.6c-0.1-0.2-0.4-0.6-0.6-0.7c1.3-1.1,2.9-2.9,3.8-4.7l1.1,0.4c0,0.1-0.2,0.1-0.3,0.1
		c-0.4,0.7-0.9,1.4-1.4,2.1l0.3,0.1c0,0.1-0.1,0.2-0.3,0.2v7.1H208.7z M219.5,397.8v0.9h-2.2v5.9c0,1.2-0.4,1.2-3.3,1.2
		c0-0.3-0.2-0.6-0.3-0.9c0.6,0,1.2,0,1.6,0c0.9,0,1,0,1-0.3v-5.9h-4.9v-0.9H219.5z M219,393.7v0.9h-7v-0.9H219z"/>
	<path d="M225.8,400.2c0,0.1-0.1,0.2-0.3,0.2c-0.4,2.5-1.1,4.4-4.3,5.4c-0.1-0.2-0.4-0.6-0.6-0.8c3.1-0.9,3.7-2.6,4-5L225.8,400.2z
		 M229.3,404.2c0,0.4,0.1,0.5,0.7,0.5h1.9c0.5,0,0.6-0.3,0.7-2.2c0.2,0.2,0.6,0.3,0.9,0.4c-0.1,2.1-0.4,2.7-1.5,2.7h-2.1
		c-1.2,0-1.5-0.3-1.5-1.4v-4.3h-7.6V399h5.7v-3h-3c-0.4,0.8-0.8,1.6-1.3,2.2c-0.2-0.1-0.6-0.4-0.8-0.4c1-1.2,1.7-3.1,2.1-4.6
		l1.2,0.3c0,0.1-0.1,0.1-0.3,0.1c-0.1,0.4-0.3,1-0.5,1.5h2.7v-2.3l1.2,0.1c0,0.1-0.1,0.2-0.3,0.2v2h4.7v0.9h-4.7v3h5.8v0.9h-3.9
		V404.2z"/>
</g>
<g>
	<path class="st4" d="M396,78V62.5c0-2.8-2.3-4.5-5-4.5H137c-2.8,0-5,1.8-5,4.5V79"/>
</g>
<rect x="239" y="48" class="st0" width="50" height="20"/>
<rect x="228" y="427" class="st1" width="28" height="60"/>
<rect x="184" y="427" class="st1" width="28" height="60"/>
<g>
	<rect x="243.1" y="50.8" class="st2" width="42.1" height="14.3"/>
	<path d="M248.4,54.2l0.5,0.1l-0.1,0.2c-0.2,2.5-0.6,4.5-1.3,6c0.7,0.5,1.3,1.1,1.7,1.5l-0.6,0.8c-0.4-0.4-0.9-1-1.5-1.5
		c-0.7,1.3-1.7,2.3-2.8,2.9c-0.1-0.2-0.4-0.6-0.6-0.8c1.1-0.6,1.9-1.5,2.6-2.7c-0.5-0.4-1.1-0.8-1.6-1.1l-0.2,0.6l-0.8-0.4
		c0.4-1.2,0.8-3,1.2-4.8h-1.4v-0.9h1.6c0.2-1.1,0.4-2.1,0.6-3l1.1,0.1c0,0.1-0.1,0.2-0.3,0.2c-0.2,0.8-0.3,1.7-0.6,2.6h2.2
		L248.4,54.2z M245.9,55.2c-0.3,1.3-0.6,2.6-0.9,3.8c0.6,0.3,1.2,0.7,1.8,1.1c0.6-1.3,1-2.9,1.2-4.9H245.9z M254.5,53.6
		c0.9,1.1,1.9,2.7,2.2,3.7l-0.8,0.4c-0.1-0.3-0.2-0.6-0.4-1c-2.2,0.2-4.5,0.3-6,0.4c0,0.1-0.1,0.2-0.2,0.2l-0.4-1.1l1.1,0
		c0.6-1.4,1.2-3.5,1.6-5l1.2,0.3c0,0.1-0.2,0.2-0.3,0.2c-0.4,1.3-1,3.1-1.6,4.5l4.1-0.2c-0.4-0.7-0.9-1.4-1.4-2L254.5,53.6z
		 M250,64.3v-5.7h5.9v5.7H255v-0.6h-4.1v0.7H250z M255,59.5h-4.1v3.3h4.1V59.5z"/>
	<path d="M268.7,52.1c0,0.1-0.2,0.1-0.3,0.1c-0.5,0.5-1.3,1.2-2,1.7c0.3,0.4,0.6,0.8,1,1.2c0.7-0.5,1.6-1.3,2.1-1.9l0.9,0.6
		c-0.1,0.1-0.2,0.1-0.3,0.1c-0.5,0.5-1.4,1.2-2.1,1.7c0.8,0.7,1.8,1.3,2.7,1.7c-0.2,0.2-0.5,0.5-0.6,0.8c-0.7-0.3-1.4-0.7-2.1-1.2
		v0.5h-1.8v2.2h3.4v0.9h-3.4v2.4c0,0.4,0.1,0.5,0.6,0.5h1.7c0.5,0,0.5-0.3,0.6-1.8c0.2,0.2,0.6,0.3,0.9,0.4
		c-0.1,1.8-0.3,2.3-1.4,2.3h-1.9c-1.1,0-1.4-0.3-1.4-1.4v-2.4h-2.7c-0.2,1.6-1.1,3-3.9,4c-0.1-0.2-0.4-0.6-0.6-0.7
		c2.5-0.8,3.3-2,3.5-3.2h-3.3v-0.9h3.3v-2.2h-1.6v-0.4c-0.7,0.5-1.4,1-2.1,1.3c-0.1-0.2-0.4-0.5-0.6-0.7c1-0.4,2-1.1,2.9-1.9
		c-0.4-0.5-1.2-1.1-1.8-1.6l0.6-0.5c0.6,0.4,1.3,1,1.8,1.5c0.6-0.6,1.1-1.3,1.4-2.1h-3.7v-0.8h4.2l0.2-0.1c0.4,0.2,0.5,0.3,0.7,0.3
		c0,0.1-0.1,0.1-0.2,0.2c-0.6,1.6-1.7,3-2.9,4h6.9c-1.4-1.2-2.6-2.9-3.3-4.8l0.8-0.3c0.3,0.6,0.6,1.3,0.9,1.8
		c0.6-0.5,1.4-1.2,1.8-1.8L268.7,52.1z M265.3,59.5v-2.2h-2.6v2.2H265.3z"/>
	<path d="M272.7,60.1c-0.1,1.3-0.2,2.7-0.8,3.5l-0.5-0.3c0.5-0.7,0.7-2,0.7-3.3L272.7,60.1z M277.1,58.3l0.4,0.1l0,0.3
		c-0.2,3.6-0.4,4.9-0.7,5.3c-0.3,0.3-0.5,0.4-1.2,0.4c-0.3,0-0.6,0-0.9,0c0-0.2-0.1-0.6-0.2-0.8c0.5,0,1,0.1,1.2,0.1
		c0.4,0,0.6-0.1,0.8-2l-0.5,0.2c-0.1-0.5-0.5-1.3-0.9-1.9l0.5-0.2c0.3,0.5,0.7,1.3,0.8,1.8h0c0.1-0.6,0.1-1.4,0.2-2.3h-3.7v0.4h-0.8
		v-7.6h5.2v0.8h-2.1v1.3h1.8v0.8h-1.8v1.4h1.8V57h-1.8v1.4h1.6L277.1,58.3z M274.5,52.7h-1.5v1.3h1.5V52.7z M274.5,56.2v-1.4h-1.5
		v1.4H274.5z M273.1,57v1.4h1.5V57H273.1z M273.3,62.9c0-0.7-0.1-1.8-0.2-2.6l0.5-0.1c0.2,0.8,0.3,1.9,0.3,2.6L273.3,62.9z
		 M274.7,60c0.3,0.7,0.6,1.7,0.6,2.3l-0.5,0.1c-0.1-0.6-0.3-1.6-0.6-2.3L274.7,60z M284.1,57.6h-2.3c0.4,2.7,1.3,4.9,3,6
		c-0.2,0.2-0.5,0.5-0.6,0.8c-1.8-1.3-2.7-3.7-3.2-6.8h-1.4c0,2.1-0.3,4.9-1.6,6.7c-0.2-0.2-0.5-0.4-0.8-0.5c1.4-1.8,1.5-4.5,1.5-6.6
		v-5.4h5.5V57.6z M283.2,52.8h-3.7v4h3.7V52.8z"/>
</g>
<g>
	<rect x="147.5" y="86.2" class="st2" width="13" height="57.6"/>
	<path d="M154.4,89h4.9v6.1h-0.9v-0.8h-4v4.3h-0.9v-4.3h-3.9v0.8h-0.9V89h4.8v-2.4l1.2,0.1c0,0.1-0.1,0.2-0.3,0.2V89z M149.6,93.5
		h3.9v-3.6h-3.9V93.5z M154.4,93.5h4v-3.6h-4V93.5z"/>
	<path d="M159.9,108.5h-5.1c0.9,2.2,2.7,3.7,5.4,4.3c-0.2,0.2-0.5,0.6-0.6,0.8c-2.8-0.7-4.6-2.3-5.6-4.7c-0.6,1.9-2,3.7-5.6,4.8
		c-0.1-0.2-0.3-0.6-0.5-0.8c3.4-1.1,4.7-2.6,5.2-4.4h-5.1v-0.9h1.5v-4.3h3.9v-1.9l1.2,0.1c0,0.1-0.1,0.2-0.3,0.2v1.6h4.1v4.3h1.4
		V108.5z M150.4,107.7h2.9c0.1-0.5,0.1-1.1,0.1-1.7v-1.8h-3V107.7z M157.6,104.2h-3.2v1.8c0,0.6,0,1.1-0.1,1.7h3.3V104.2z"/>
	<path d="M151.4,121.3c0.5,0.4,1.7,1.8,2.1,2.1l-0.6,0.7c-0.3-0.4-0.9-1.2-1.5-1.9v6.1h-0.9v-6.7c-0.6,1.7-1.4,3.3-2.2,4.3
		c-0.1-0.3-0.3-0.6-0.5-0.8c1-1.1,2.1-3.2,2.6-5.1h-2.3v-0.8h2.4v-2.9l1.1,0.1c0,0.1-0.1,0.2-0.2,0.2v2.6h2.1v0.8h-2.1V121.3z
		 M160,120.1h-2.5c0.6,2.2,1.7,4.4,2.7,5.5c-0.2,0.2-0.5,0.5-0.7,0.7c-0.9-1.1-1.8-3-2.4-4.9v7.1h-0.9v-6.8c-0.8,1.9-1.8,3.8-3,4.8
		c-0.1-0.2-0.4-0.6-0.5-0.8c1.3-1.2,2.7-3.5,3.3-5.7h-2.3v-0.8h2.5v-2.9l1.1,0.1c0,0.1-0.1,0.2-0.3,0.2v2.6h2.8V120.1z"/>
	<path d="M153.4,136.3h-3.9v7h-0.9v-11.5h4.7V136.3z M152.5,132.5h-3v1.2h3V132.5z M149.5,135.6h3v-1.2h-3V135.6z M156.4,142.1h-4.1
		v0.7h-0.8v-5.4h4.9V142.1z M155.6,138.1h-3.3v1.3h3.3V138.1z M152.3,141.4h3.3V140h-3.3V141.4z M159.4,131.8v10.3
		c0,1.2-0.5,1.2-2.8,1.2c0-0.2-0.2-0.7-0.3-0.9c0.4,0,0.8,0,1.2,0c0.9,0,1,0,1-0.3v-5.8h-4v-4.5H159.4z M158.6,132.5h-3.1v1.2h3.1
		V132.5z M155.4,135.6h3.1v-1.3h-3.1V135.6z"/>
</g>
<g>
	<rect x="235.5" y="86.2" class="st2" width="13" height="57.6"/>
	<path d="M241.5,90.6l0,0.5c-1.9,0.1-3.8,0.3-5,0.4c0,0.1-0.1,0.1-0.2,0.2l-0.3-0.8l0.9,0v-1.6l0.9,0.1c0,0.1-0.1,0.1-0.2,0.2v1.4
		l1-0.1v-2h-1.8V87h4.3v1.8h-1.8v0.6h2V90h-2v0.7L241.5,90.6z M238.3,97.1c-0.2,0.7-0.6,1.2-1.4,1.6l-0.6-0.5
		c0.7-0.2,1.1-0.8,1.3-1.3L238.3,97.1z M237.6,87.6v0.8h2.8v-0.8H237.6z M239.1,94.7v0.5h8.9v0.5h-8.9v0.5h7.3l0.2,0l0.5,0.1
		l-0.1,0.2c-0.2,1.7-0.4,2.2-1.2,2.2c-0.3,0-0.8,0-1.4,0c0-0.2-0.1-0.4-0.2-0.6l0.1,0c-0.2-0.3-0.5-0.7-0.9-0.9l0.6-0.3
		c0.4,0.3,0.7,0.6,0.9,0.9l-0.6,0.3c0.5,0.1,0.9,0.1,1.1,0.1c0.5,0,0.6-0.3,0.7-1.5h-8v-4.7h2.8c0.2-0.3,0.4-0.6,0.5-0.9l1,0.2
		c0,0.1-0.1,0.1-0.2,0.1c-0.1,0.2-0.2,0.3-0.4,0.5h3.8v2.6H239.1z M244.8,92.6h-5.7v0.5h5.7V92.6z M239.1,94.1h5.7v-0.6h-5.7V94.1z
		 M239.7,98.6c0-0.4-0.2-0.9-0.4-1.4L240,97c0.2,0.4,0.4,1,0.4,1.3L239.7,98.6z M242.1,98.4c-0.1-0.3-0.5-0.9-0.8-1.2L242,97
		c0.3,0.4,0.7,0.9,0.8,1.2L242.1,98.4z M246.6,87.2l0.5,0.2c0,0.1-0.1,0.1-0.1,0.1c-0.4,0.5-0.8,0.9-1.4,1.3
		c0.9,0.3,1.8,0.5,2.8,0.7c-0.2,0.1-0.3,0.4-0.4,0.6c-0.4-0.1-0.8-0.1-1.1-0.2v1.8h-4v-1.7c-0.3,0.1-0.7,0.2-1,0.2
		c-0.1-0.2-0.2-0.4-0.4-0.6c0.9-0.1,1.9-0.4,2.8-0.7c-0.4-0.2-0.8-0.5-1.1-0.7c-0.3,0.2-0.7,0.4-1.2,0.6c-0.1-0.2-0.3-0.4-0.5-0.4
		c1.1-0.5,1.9-1.1,2.4-1.6l0.8,0.1c0,0.1-0.1,0.1-0.2,0.1c-0.1,0.1-0.2,0.2-0.3,0.3h2.2L246.6,87.2z M246.5,89.7
		c-0.6-0.2-1.1-0.3-1.6-0.6c-0.5,0.2-1,0.4-1.6,0.6H246.5z M246,91.1v-0.8h-2.5v0.8H246z M243.6,87.7c0.3,0.3,0.7,0.5,1.2,0.8
		c0.4-0.2,0.8-0.5,1.1-0.8H243.6z"/>
	<path d="M236.4,134.9c0.8,0.3,1.9,0.9,2.4,1.3l-0.5,0.7c-0.5-0.4-1.6-1-2.4-1.4L236.4,134.9z M236.3,142.6c0.7-1,1.6-2.8,2.4-4.3
		l0.7,0.5c-0.6,1.4-1.5,3-2.1,4.1c0.1,0.1,0.1,0.1,0.1,0.2c0,0.1,0,0.1,0,0.1L236.3,142.6z M237.1,131.4c0.8,0.4,1.9,1,2.4,1.4
		l-0.5,0.7c-0.5-0.5-1.5-1.1-2.4-1.5L237.1,131.4z M247.1,131.9l0.5,0.1c0,0.1,0,0.2,0,0.3c-0.1,3-0.3,4.1-0.6,4.5
		c-0.3,0.3-0.6,0.4-1.5,0.4c-0.3,0-0.7,0-1.1,0c0-0.2-0.1-0.6-0.3-0.8c0.7,0.1,1.4,0.1,1.6,0.1c0.2,0,0.4,0,0.5-0.1
		c0.2-0.2,0.3-1.1,0.5-3.5h-3c-0.4,2-1,3.9-3.7,5c-0.1-0.2-0.4-0.5-0.5-0.7c2.3-0.9,3-2.5,3.3-4.3h-2.6v-0.8h6.7L247.1,131.9z
		 M240.5,143.3v-5.3h6.6v5.2h-0.9v-0.6h-4.8v0.6H240.5z M246.2,138.9h-4.8v3.1h4.8V138.9z"/>
</g>
<g>
	<rect x="367.5" y="86.4" class="st2" width="13" height="57.6"/>
	<path d="M379.9,94.4v0.9h-5.5v3.7h-0.9v-3.7h-5.4v-0.9h5.4V92H369v-0.9h4.5v-4.2l1.2,0.1c0,0.1-0.1,0.2-0.3,0.2v4h4.7V92h-4.7v2.4
		H379.9z M370.2,87.2c0.7,0.9,1.3,2.2,1.6,3l-0.8,0.4c-0.3-0.8-0.9-2.1-1.6-3L370.2,87.2z M378.8,87.6c0,0.1-0.1,0.1-0.3,0.1
		c-0.4,0.9-1.2,2.1-1.8,2.9c0,0-0.7-0.3-0.7-0.3c0.6-0.8,1.3-2.1,1.7-3.1L378.8,87.6z"/>
	<path d="M376.4,113.4c0.1,1.6,0.3,2.9,0.6,4c0.5-0.9,0.9-2,1.2-3.2l1.1,0.3c0,0.1-0.1,0.1-0.3,0.1c-0.4,1.4-0.9,2.7-1.7,3.9
		c0.5,1.3,1,1.9,1.5,1.9c0.3,0,0.4-0.3,0.5-1.7c0.2,0.2,0.5,0.4,0.7,0.4c-0.2,1.8-0.5,2.1-1.3,2.1c-0.8,0-1.5-0.7-2-2
		c-0.6,0.8-1.4,1.5-2.3,2c-0.1-0.2-0.4-0.4-0.6-0.6c0.4-0.2,0.7-0.4,1-0.7h-3.6v0.7h-0.7v-6.5h4.7v0.6h-1.8v1h1.8v2.4h-1.8v1h1.9
		v0.2c0.4-0.4,0.7-0.8,1.1-1.2c-0.4-1.3-0.7-2.9-0.8-4.9h-5.7v2.5c0,1.6-0.2,3.8-1.3,5.3c-0.1-0.1-0.5-0.4-0.7-0.5
		c1.1-1.4,1.2-3.4,1.2-4.9v-3.3h6.5c0-0.4,0-0.8-0.1-1.2l0.3,0V111h-3.6v0.9h-0.9V111h-3.1v-0.8h3.1v-1l1.1,0.1
		c0,0.1-0.1,0.2-0.3,0.2v0.8h3.6v-1l1.1,0.1c0,0.1-0.1,0.2-0.3,0.2v0.8h3.2v0.8h-3.2v0.8h-0.3c0,0.3,0,0.6,0,0.9h2.4
		c-0.3-0.4-0.9-0.8-1.4-1.1l0.5-0.4c0.5,0.3,1.2,0.8,1.5,1.1l-0.5,0.4h1v0.8H376.4z M372.8,114.9h-1.5v1h1.5V114.9z M374.5,117.7
		v-1.2h-3.3v1.2H374.5z M371.3,118.3v1h1.5v-1H371.3z"/>
	<path d="M373.3,132.1v4.8h-3.8v6.7h-0.9v-11.4H373.3z M372.5,132.8h-3v1.2h3V132.8z M369.5,136.1h3v-1.4h-3V136.1z M379.4,132.1
		v10.2c0,1.2-0.5,1.2-3,1.2c0-0.2-0.2-0.6-0.3-0.9c0.6,0,1.1,0,1.5,0c0.8,0,0.9,0,0.9-0.3v-5.4h-4v-4.8H379.4z M378.5,132.8h-3.1
		v1.2h3.1V132.8z M375.4,136.2h3.1v-1.4h-3.1V136.2z"/>
</g>
<g>
	<rect x="323.5" y="86.2" class="st2" width="13" height="57.6"/>
	<path d="M324.4,90.3c0.8,0.3,1.9,0.9,2.4,1.3l-0.5,0.7c-0.5-0.4-1.6-1-2.4-1.4L324.4,90.3z M324.3,98c0.7-1,1.6-2.8,2.4-4.3
		l0.7,0.5c-0.6,1.4-1.5,3-2.1,4.1c0.1,0.1,0.1,0.1,0.1,0.2c0,0.1,0,0.1,0,0.1L324.3,98z M325.1,86.8c0.8,0.4,1.9,1,2.4,1.4l-0.5,0.7
		c-0.5-0.5-1.5-1.1-2.4-1.5L325.1,86.8z M332.4,91.2h3.7v0.8h-8.8v-0.8h1.6v-3.5l1.1,0.1c0,0.1-0.1,0.1-0.3,0.2v3.2h1.8v-4.6
		l1.1,0.1c0,0.1-0.1,0.2-0.2,0.2v1.7h3.2v0.8h-3.2V91.2z M327.3,97.9c0.9-0.5,2.3-1.3,3.6-2.1l0.3,0.8c-1.1,0.7-2.4,1.5-3.1,2
		c0,0.1,0,0.2-0.1,0.2L327.3,97.9z M328.7,92.5c0.8,0.6,1.7,1.5,2.1,2.1l-0.7,0.5c-0.4-0.6-1.3-1.5-2-2.1L328.7,92.5z M335.4,98.7
		c-0.7-0.7-2.1-1.8-3.2-2.5l0.6-0.6c1.1,0.7,2.6,1.7,3.3,2.4L335.4,98.7z M332.5,94.7c0.7-0.6,1.7-1.6,2.2-2.3l0.9,0.6
		c-0.1,0.1-0.2,0.1-0.3,0.1c-0.6,0.6-1.5,1.5-2.2,2.1L332.5,94.7z"/>
	<path d="M326.4,138.3c-0.6,0.4-1.2,0.9-1.9,1.2c-0.1-0.2-0.3-0.5-0.5-0.7c2.3-1.2,4.5-3.3,5.5-5.1l1.2,0.1c0,0.1-0.1,0.2-0.3,0.2
		c1.3,1.8,3.6,3.7,5.6,4.7c-0.2,0.2-0.4,0.5-0.6,0.8c-0.6-0.3-1.2-0.7-1.8-1.1v5h-0.9v-0.5h-5.6v0.6h-0.9V138.3z M328.8,132
		c0,0.1-0.2,0.1-0.3,0.1c-0.9,1.2-2.2,2.4-3.4,3.2c-0.2-0.2-0.5-0.4-0.6-0.6c1.2-0.7,2.5-1.9,3.4-3.1L328.8,132z M333.4,138.1
		c-1.4-1-2.7-2.3-3.5-3.5c-0.7,1.1-1.9,2.4-3.3,3.5H333.4z M327.2,142h5.6v-3.1h-5.6V142z M331.9,131.5c1.3,0.9,2.8,2.2,3.6,3.1
		l-0.7,0.5c-0.7-0.9-2.2-2.2-3.5-3.2L331.9,131.5z"/>
</g>
<g>
	<rect x="323.5" y="299.2" class="st2" width="13" height="57.6"/>
	<path class="st5" d="M331.6,300c0,0.1-0.1,0.1-0.3,0.1c-0.1,0.3-0.2,0.7-0.3,1h5v0.8h-5.3c-0.4,0.8-0.8,1.6-1.2,2.2
		c-0.1-0.2-0.4-0.4-0.6-0.5v3.8h-1.6v2.3h1.9v0.8h-3.9v0.8h-0.8v-10.8h4.7v0.8h-1.9v2h1.6v0.2c0.7-0.9,1.3-2.4,1.7-3.8L331.6,300z
		 M326.4,301.2h-1.2v2h1.2V301.2z M328.1,306.6v-2.5h-2.9v2.5H328.1z M326.4,309.6v-2.3h-1.2v2.3H326.4z M329.4,311.7v-4.6h2.7v4.4
		h-0.7V311h-1.3v0.7H329.4z M331.4,307.9h-1.3v2.4h1.3V307.9z M334.8,303v3.2h-4.5V303H334.8z M334,305.4v-1.7h-2.9v1.7H334z
		 M332.9,311.7v-4.6h2.8v4.4H335V311h-1.4v0.7H332.9z M335,307.9h-1.4v2.4h1.4V307.9z"/>
	<path class="st5" d="M328.1,345.1v8.6h-2.9v1.1h-0.8v-9.7H328.1z M327.3,345.9h-2v3.1h2V345.9z M325.3,352.9h2v-3.1h-2V352.9z
		 M332.6,348.5h3.4v0.8h-7.7v-0.8h3.4v-1.8h-2.8v-0.8h2.8v-1.6l1.1,0.1c0,0.1-0.1,0.2-0.3,0.2v1.4h2.9v0.8h-2.9V348.5z M334.7,349.6
		c0,0.1-0.1,0.2-0.2,0.2v1.1h1.6v0.8h-1.6v3.6c0,0.5-0.1,0.8-0.5,0.9c-0.4,0.1-1.1,0.1-2.1,0.1c0-0.2-0.2-0.6-0.3-0.8
		c0.5,0,1,0,1.3,0c0.7,0,0.8,0,0.8-0.3v-3.6h-5.2v-0.8h5.2v-1.4L334.7,349.6z M331,355c-0.3-0.6-1-1.6-1.7-2.3l0.7-0.4
		c0.7,0.7,1.4,1.6,1.8,2.3L331,355z"/>
</g>
<g>
	<rect x="278.7" y="299.2" class="st2" width="13" height="57.6"/>
	<path class="st5" d="M279.8,300.5h10.8v11.2h-0.9v-0.9h-9v0.9h-0.9V300.5z M280.7,309.9h9v-8.6h-9V309.9z M282.7,303.4h4.9v4.4
		h-4.9V303.4z M286.8,307.1v-2.9h-3.3v2.9H286.8z"/>
	<path class="st5" d="M282,349.5v4.3c1,1.5,2.9,1.5,5.2,1.5c1.4,0,3.1,0,4.1-0.1c-0.1,0.2-0.3,0.6-0.3,0.9c-0.9,0-2.3,0.1-3.6,0.1
		c-2.7,0-4.5,0-5.8-1.6c-0.6,0.6-1.3,1.2-1.9,1.6c0,0.1,0,0.2-0.1,0.2l-0.5-1c0.6-0.4,1.4-1,2.1-1.6v-3.5h-1.9v-0.8H282z
		 M280.1,344.6c0.9,0.6,1.9,1.4,2.3,2.1l-0.7,0.6c-0.4-0.6-1.4-1.5-2.3-2.1L280.1,344.6z M291.1,350.4h-3.5c0.5,1.7,1.7,2.9,3.5,3.4
		c-0.2,0.2-0.4,0.5-0.6,0.7c-1.8-0.6-2.9-1.8-3.5-3.6c-0.4,1.2-1.3,2.5-3.5,3.5c-0.1-0.2-0.4-0.5-0.6-0.7c2.4-1,3.1-2.3,3.4-3.4
		h-3.5v-0.8h3.6c0-0.2,0-0.3,0-0.5v-1.5h-3.2v-0.8h5.2l-0.7-0.3c0.4-0.6,1-1.6,1.3-2.2l1,0.4c0,0.1-0.1,0.1-0.3,0.1
		c-0.3,0.6-0.9,1.5-1.4,2h2.3v0.8h-3.4v1.5c0,0.1,0,0.3,0,0.5h3.8V350.4z M284.9,346.8c-0.2-0.6-0.7-1.5-1.2-2.2l0.7-0.3
		c0.5,0.7,1.1,1.5,1.2,2.1L284.9,346.8z"/>
</g>
<g>
	<rect x="235.5" y="299.2" class="st2" width="13" height="57.6"/>
	<path class="st5" d="M235.9,302.6v-0.7h4.6v0.7H235.9z M240.2,307.2v3.8h-3v0.6h-0.8v-4.4H240.2z M240.2,303.6v0.7h-3.7v-0.7H240.2
		z M236.5,306.1v-0.7h3.7v0.7H236.5z M240.2,300.1v0.7h-3.6v-0.7H240.2z M239.5,307.9h-2.2v2.3h2.2V307.9z M243.2,309.5l1.7-0.4
		l0.1,0.7c-1.4,0.3-2.8,0.7-3.7,0.9c0,0.1-0.1,0.2-0.2,0.2l-0.4-0.9c0.5-0.1,1.1-0.2,1.7-0.4v-3.9H241V305h3.6v0.8h-1.4V309.5z
		 M247.9,303.1h-2.1c0.1,4.1,0.4,7.5,1.3,7.7h0c0.2,0,0.4-0.8,0.4-1.9c0.2,0.2,0.4,0.4,0.6,0.5c-0.2,1.6-0.5,2.3-1.1,2.3
		c-0.1,0-0.2,0-0.3-0.1c-1.4-0.4-1.7-4.1-1.8-8.6h-4.2v-0.8h4.2l0-2.6l1.2,0.1c0,0.1-0.1,0.2-0.3,0.2c0,0.8,0,1.6,0,2.4h2.1V303.1z
		 M246.7,299.7c0.5,0.5,1.1,1.2,1.4,1.7l-0.6,0.4c-0.3-0.5-0.8-1.2-1.4-1.8L246.7,299.7z"/>
	<path class="st5" d="M238.6,327.2v4.3c1,1.5,2.9,1.5,5.4,1.5c1.4,0,3.1,0,4.1-0.1c-0.1,0.2-0.2,0.6-0.3,0.9c-0.9,0-2.3,0.1-3.6,0.1
		c-2.9,0-4.7,0-5.9-1.6c-0.6,0.6-1.2,1.2-1.7,1.6c0,0.1,0,0.2-0.1,0.2l-0.5-0.9c0.6-0.4,1.2-1,1.8-1.5V328H236v-0.8H238.6z
		 M236.8,322.3c0.8,0.6,1.7,1.5,2.1,2.2l-0.7,0.5c-0.4-0.7-1.3-1.6-2.1-2.2L236.8,322.3z M243.1,332.6v-1.4h-3.9v-0.7h3.9v-0.9h-2.9
		V326h2.9v-0.9h-3.4v-0.7h3.4v-1l1.1,0.1c0,0.1-0.1,0.2-0.3,0.2v0.8h3.4v0.7h-3.4v0.9h2.9v3.7h-2.9v0.9h3.9v0.7h-3.9v1.4H243.1z
		 M240.3,323.1v1h-0.8v-1.7h8.1v1.7h-0.8v-1H240.3z M241,326.6v0.9h2.1v-0.9H241z M241,329.1h2.1v-0.9H241V329.1z M246,326.6h-2.1
		v0.9h2.1V326.6z M246,329.1v-0.9h-2.1v0.9H246z"/>
	<path class="st5" d="M241.9,354h-2.6v2.3h-0.8V354H236v-0.8h2.6v-1.1h-2.1v-4.6h2.1v-1h-2.4v-0.8h2.4v-1.5l1.1,0.1
		c0,0.1-0.1,0.2-0.2,0.2v1.2h2.4v0.8h-2.4v1h2.2v4.6h-2.2v1.1h2.6V354z M237.2,348.2v1.3h1.4v-1.3H237.2z M237.2,350.1v1.3h1.4v-1.3
		H237.2z M240.8,349.5v-1.3h-1.5v1.3H240.8z M240.8,351.4v-1.3h-1.5v1.3H240.8z M246.4,351.9c0.8,1.3,1.5,3,1.8,4.1l-0.8,0.3
		c-0.1-0.3-0.2-0.6-0.3-0.9c-1.9,0.2-3.7,0.4-5,0.5c0,0.1-0.1,0.2-0.2,0.2l-0.3-1c0.3,0,0.7,0,1.1-0.1c0.4-1.3,0.8-3.3,1.1-4.8h-1.9
		v-0.8h6.2v0.8h-3.4c-0.3,1.4-0.7,3.3-1.2,4.7c1-0.1,2.2-0.2,3.3-0.2c-0.3-0.8-0.8-1.7-1.2-2.5L246.4,351.9z M247.5,345.2v0.8h-5.1
		v-0.8H247.5z"/>
</g>
<g>
	<rect x="103.5" y="299.2" class="st2" width="13" height="57.6"/>
	<path class="st5" d="M105.7,303.6v-0.2c-0.3,0.3-0.7,0.6-1.1,0.8c-0.1-0.2-0.4-0.5-0.6-0.6c1.7-1.1,3-2.6,3.6-3.9l1.1,0.2
		c0,0.1-0.1,0.2-0.3,0.2c-0.1,0.2-0.3,0.5-0.4,0.7h3.8l0.1-0.1l0.7,0.4c0,0.1-0.1,0.1-0.2,0.1c-0.3,0.5-0.7,1.1-1.1,1.6h2.9v4.6h-5
		c0.8,0.3,1.6,0.8,2.1,1.2l-0.6,0.6c-0.5-0.5-1.5-1.1-2.4-1.4l0.4-0.4h-3.3v-0.8h7.9v-1.2h-7.5v-0.7h7.5v-1.2H105.7z M106.6,308.5
		c-0.3,1.1-0.9,2.1-1.9,2.7l-0.7-0.5c0.9-0.6,1.5-1.5,1.8-2.5L106.6,308.5z M110.3,302.8c0.3-0.4,0.7-0.9,0.9-1.4h-3.8
		c-0.3,0.5-0.7,0.9-1.2,1.4H110.3z M108.3,310.4c0,0.3,0.1,0.4,0.8,0.4h2.3c0.6,0,0.7-0.2,0.7-1.5c0.2,0.1,0.5,0.3,0.8,0.3
		c-0.1,1.6-0.4,2-1.4,2H109c-1.3,0-1.6-0.2-1.6-1.1v-2l1.1,0.1c0,0.1-0.1,0.2-0.2,0.2V310.4z M115.3,311.3c-0.4-0.8-1.5-1.9-2.4-2.7
		l0.7-0.4c0.9,0.8,2,1.9,2.5,2.7L115.3,311.3z"/>
	<path class="st5" d="M107.9,344.7c0,0.1-0.1,0.1-0.3,0.1c-0.8,0.9-2.1,2.2-3.3,3c-0.1-0.2-0.4-0.5-0.5-0.7c1.1-0.7,2.4-1.9,3-2.8
		L107.9,344.7z M106,356.3v-5.7c-0.5,0.5-1,1.1-1.5,1.5c-0.1-0.2-0.4-0.5-0.6-0.7c1.2-1,2.7-2.7,3.6-4.4l1,0.4
		c0,0.1-0.1,0.1-0.3,0.1c-0.4,0.6-0.8,1.3-1.3,1.9l0.2,0.1c0,0.1-0.1,0.1-0.3,0.2v6.6H106z M116,348.9v0.8h-2.1v5.5
		c0,1.1-0.4,1.1-3,1.1c0-0.2-0.2-0.6-0.3-0.9c0.6,0,1.1,0,1.5,0c0.8,0,0.9,0,0.9-0.3v-5.5h-4.5v-0.8H116z M115.5,345.1v0.8H109v-0.8
		H115.5z"/>
</g>
<g>
	<rect x="59.5" y="299.2" class="st2" width="13" height="57.6"/>
	<path d="M67.7,304.9h4.2v0.7H60.1v-0.7h4.1v-2.7h-3.4v-0.7h2.6c-0.2-0.5-0.7-1.1-1.1-1.5l0.7-0.4c0.5,0.5,1,1.2,1.2,1.8l-0.2,0.1
		h3.5l-0.2-0.1c0.4-0.5,0.9-1.3,1.1-1.8l1,0.4c0,0.1-0.1,0.1-0.3,0.1c-0.2,0.4-0.6,0.9-1,1.4h2.9v0.7h-3.6V304.9z M62.6,304.8
		c-0.2-0.6-0.6-1.5-1.1-2.1l0.7-0.3c0.5,0.6,0.9,1.5,1.1,2L62.6,304.8z M62.2,311.7v-5.2h7.7v5.1H69v-0.4H63v0.5H62.2z M69,307.3H63
		v1.3H69V307.3z M63,310.5H69v-1.3H63V310.5z M65,302.3v2.7h1.8v-2.7H65z M70.7,302.8c-0.1,0.1-0.1,0.1-0.3,0.1
		c-0.3,0.6-0.9,1.4-1.3,2l-0.6-0.3c0.4-0.6,0.9-1.5,1.2-2.2L70.7,302.8z"/>
	<path d="M62.8,349.5v4.3c1,1.5,2.8,1.5,5.3,1.5c1.4,0,3.1,0,4.1-0.1c-0.1,0.2-0.2,0.6-0.3,0.9c-0.9,0-2.3,0.1-3.6,0.1
		c-2.8,0-4.6,0-5.9-1.6c-0.7,0.6-1.4,1.2-2,1.6c0,0.1,0,0.2-0.1,0.2l-0.5-0.9c0.6-0.4,1.4-1,2.1-1.6v-3.5h-2v-0.8H62.8z M60.8,344.6
		c0.8,0.6,1.8,1.5,2.2,2.2l-0.6,0.6c-0.4-0.7-1.4-1.6-2.2-2.2L60.8,344.6z M68.1,347.6c-0.8-0.4-1.8-0.8-2.7-1.2l0.6-0.5
		c0.6,0.2,1.2,0.5,1.9,0.8c0.7-0.3,1.4-0.7,2-1.1h-5.7v-0.7h6.6l0.1,0l0.7,0.4c0,0.1-0.1,0.1-0.2,0.1c-0.7,0.6-1.7,1.2-2.7,1.7
		c0.4,0.2,0.8,0.4,1.1,0.5h1.7v5.9c0,0.9-0.3,0.9-2.2,0.9c0-0.2-0.1-0.5-0.2-0.7c0.4,0,0.7,0,1,0c0.6,0,0.6,0,0.6-0.2v-1.3h-2.4v2.2
		h-0.8v-2.2H65v2.2h-0.8v-6.8H68.1z M67.4,348.3H65v1.2h2.4V348.3z M65,351.5h2.4v-1.3H65V351.5z M70.6,349.5v-1.2h-2.4v1.2H70.6z
		 M68.2,351.5h2.4v-1.3h-2.4V351.5z"/>
</g>
<g>
	<rect x="192.1" y="428.3" class="st2" width="11.8" height="57.6"/>
	<path d="M202.4,434.5l1.1,0.7c-0.1,0.2-0.2,0.3-0.6,0.3h-4.6v3c0,0.6-0.2,1-1.3,1.1c0-0.6-0.4-0.7-1.5-0.8v-0.2h1.8
		c0.2,0,0.3,0,0.3-0.2v-3h-5l-0.1-0.3h5.1v-2.3H194l-0.1-0.3h6.8l0.5-0.6l0.4,0.2c0.2-0.3,0.4-0.9,0.5-1.3h-8c0,0.9-0.6,1.5-1.2,1.5
		c-0.3,0-0.5-0.1-0.5-0.3c0-0.2,0.2-0.4,0.3-0.5c0.5-0.2,1-0.8,1-1.6l0.2,0c0.1,0.2,0.1,0.4,0.1,0.6h3.4V429l1.4,0.1
		c0,0.2-0.1,0.3-0.6,0.3v1.3h3.7l0.5-0.5l0.9,0.9c-0.1,0.1-0.2,0.1-0.5,0.1c-0.3,0.4-0.8,0.9-1.2,1.2l0.5,0.3
		c-0.1,0.2-0.2,0.2-0.6,0.2h-3.4v2.3h3.5L202.4,434.5z"/>
	<path d="M203.4,442.2c-0.1,0.2-0.2,0.2-0.6,0.2h-3.7c0.8,1.5,2.6,2.5,4.4,3l0,0.1c-0.3,0.1-0.6,0.3-0.7,0.6c-1.8-0.7-3.2-2-4-3.8
		h-1.8c-0.9,1.6-2.4,3.1-4.7,4l-0.1-0.2c1.8-0.9,3.1-2.3,3.9-3.9h-3.7l-0.1-0.3h3.9c0.3-0.6,0.5-1.3,0.7-1.9l1.3,0.3
		c-0.1,0.2-0.2,0.2-0.5,0.2c-0.2,0.5-0.4,0.9-0.6,1.4h4.4l0.6-0.7L203.4,442.2z M192.5,450.2c1.1-0.7,2.2-1.8,2.7-2.6l1.1,0.6
		c0,0.1-0.1,0.1-0.3,0.1c0,0-0.1,0-0.2,0c-0.7,0.7-1.9,1.6-3.2,2.2L192.5,450.2z M202.4,446.7c-0.1,0.2-0.2,0.2-0.6,0.2h-3.5v3
		c0,0.6-0.2,1-1.3,1.1c0-0.6-0.3-0.7-1.3-0.8V450h1.5c0.2,0,0.3,0,0.3-0.2v-2.9h-4.1l-0.1-0.3h7.4l0.5-0.6L202.4,446.7z
		 M199.3,444.4l1,0.6c-0.1,0.2-0.2,0.2-0.6,0.2h-4.3l-0.1-0.3h3.5L199.3,444.4z M199.7,447.7c2.4,0.5,3.2,1.5,3.2,2.1
		c0,0.3-0.2,0.4-0.4,0.4c-0.1,0-0.2,0-0.3-0.1c-0.4-0.8-1.6-1.8-2.5-2.3L199.7,447.7z"/>
	<path d="M200.7,452.2l1.1,0.7c-0.1,0.1-0.3,0.2-0.5,0.2v8.1c0,0.6-0.2,1-1.4,1.1c0-0.6-0.6-0.7-1.5-0.8v-0.2h1.8
		c0.2,0,0.3,0,0.3-0.2v-3h-5c-0.2,1.6-0.9,3.1-2.8,4.1l-0.2-0.1c2-1.6,2.3-3.6,2.3-5.9v-4l0.9,0.4h4.6L200.7,452.2z M195.6,456.3
		c0,0.5,0,1.1-0.1,1.6h4.9v-2.4h-4.8V456.3z M200.4,452.9h-4.8v2.3h4.8V452.9z"/>
	<path d="M192.4,466.2c1.4,0.2,1.8,0.7,1.8,1.1c0,0.3-0.2,0.4-0.4,0.4c-0.1,0-0.2,0-0.3-0.1c-0.2-0.5-0.7-1-1.2-1.3L192.4,466.2z
		 M193,470.5c0.1,0,0.2,0,0.3-0.2c0-0.1,0.2-0.4,2.2-4.9l0.2,0c-0.5,1.4-1.5,4.1-1.6,4.6c-0.1,0.4-0.2,0.7-0.2,1
		c0,0.5,0.3,1,0.3,1.8c0,0.2,0,1-0.6,1c-0.2,0-0.3-0.2-0.4-0.6c0.1-0.4,0.1-0.8,0.1-1.2c0-1.2-0.3-1.2-0.9-1.3v-0.3
		C192.8,470.5,193,470.5,193,470.5L193,470.5z M192.9,463.3c1.5,0.2,1.9,0.8,1.9,1.2c0,0.3-0.2,0.4-0.4,0.4c-0.1,0-0.2,0-0.3-0.1
		c-0.2-0.5-0.8-1.1-1.3-1.4L192.9,463.3z M202.8,472.4l0.9,0.7c-0.1,0.2-0.2,0.2-0.6,0.2h-8.3l-0.1-0.3h1.2V469l0.9,0.4h4.7l0.4-0.5
		l1,0.7c-0.1,0.1-0.3,0.2-0.6,0.2v3.2L202.8,472.4z M197.1,467.8v0.4c0,0.1-0.2,0.3-0.6,0.3h-0.1v-5l0.9,0.4h3.9l0.4-0.4l0.9,0.7
		c-0.1,0.1-0.2,0.1-0.4,0.2v3.9c0,0-0.1,0.2-0.8,0.2v-0.6H197.1z M196.7,469.6v3.5h1.2v-3.5H196.7z M201.3,464.2h-4.2v1.5h4.2V464.2
		z M197.1,467.5h4.2V466h-4.2V467.5z M199.7,469.6h-1.2v3.5h1.2V469.6z M201.6,469.6h-1.2v3.5h1.2V469.6z"/>
	<path d="M196.1,480.5l0.9,0.7c-0.1,0.1-0.2,0.1-0.5,0.1c-0.7,1.4-2.1,2.7-4.1,3.5l-0.1-0.2c1.5-0.8,2.7-2.1,3.3-3.4h-3.2l-0.1-0.3
		h3.2L196.1,480.5z M198.7,479.6c-0.1,0.1-0.2,0.1-0.4,0.1c0,0.3,0.6,1.5,1.6,2.3c0.9-0.6,1.9-1.5,2.4-2.1l1,0.6
		c-0.1,0.1-0.1,0.1-0.2,0.1c0,0-0.1,0-0.2,0c-0.6,0.5-1.7,1.2-2.7,1.6c1,0.8,2.3,1.4,3.4,1.7l0,0.1c-0.3,0-0.6,0.3-0.7,0.6
		c-2-0.9-3.7-2.1-4.6-4.5v3.8c0,0.6-0.2,1-1.3,1.1c0-0.6-0.4-0.7-1.4-0.7v-0.2h1.7c0.2,0,0.3-0.1,0.3-0.2v-4.4H195v0.3
		c0,0-0.1,0.3-0.8,0.3v-4.5l0.9,0.4h2c0.1-0.4,0.3-1,0.4-1.4l1.4,0.3c0,0.2-0.2,0.2-0.5,0.2c-0.2,0.3-0.6,0.6-0.8,0.9h3.2l0.4-0.5
		l1.1,0.7c-0.1,0.1-0.3,0.2-0.5,0.2v3.4c0,0-0.3,0.3-0.8,0.3v-0.4H198.7z M200.8,476.2H195v1.4h5.8V476.2z M195,477.9v1.4h5.8v-1.4
		H195z"/>
</g>
<g>
	<rect x="367.5" y="179.2" class="st2" width="13" height="57.6"/>
	<path d="M372.2,185.4l0.1,0.7c-0.5,0.2-1.1,0.4-1.6,0.6v3.9c0,1-0.4,1.1-2.1,1.1c0-0.2-0.2-0.6-0.3-0.8c0.6,0,1.2,0,1.3,0
		c0.2,0,0.2-0.1,0.2-0.2V187l-1.6,0.6c0,0.1-0.1,0.2-0.2,0.2l-0.3-1l2.1-0.6v-3h-2v-0.8h2v-2.7l1.1,0.1c0,0.1-0.1,0.2-0.2,0.2v2.4
		h1.5v0.8h-1.5v2.7L372.2,185.4z M372.8,180.3h6.7v7.5h-0.8v-0.6h-2.1v4.6h-0.9v-4.6h-2.1v0.7h-0.8V180.3z M375.7,181.1h-2.1v2.2
		h2.1V181.1z M373.6,186.3h2.1v-2.2h-2.1V186.3z M378.7,183.3v-2.2h-2.1v2.2H378.7z M376.6,186.3h2.1v-2.2h-2.1V186.3z"/>
	<path d="M374,234.8h5.9v0.9h-11.8v-0.9h5v-10.4l1.2,0.1c0,0.1-0.1,0.2-0.3,0.2v3.8h5v0.9h-5V234.8z"/>
</g>
<g>
	<rect x="323.5" y="179.2" class="st2" width="13" height="57.6"/>
	<path d="M327.1,180c0.8,0.7,1.8,1.6,2.2,2.1l-0.5,0.7c-0.4-0.6-1.3-1.4-2.1-2.1c-0.4,0.7-0.8,1.5-1.4,2.2h3.3v0.8H327v1.5h1.9v0.8
		H327v3.7c0.7-0.1,1.4-0.2,2.1-0.3l0.1,0.7c-1.7,0.3-3.6,0.6-4.7,0.8c0,0.1-0.1,0.2-0.2,0.2l-0.3-1l2.3-0.3V186h-2.1v-0.8h2.1v-1.5
		h-1.4v-0.3c-0.1,0.2-0.3,0.3-0.4,0.4c-0.1-0.2-0.4-0.5-0.6-0.6c1.1-1.1,2-2.6,2.5-3.7l1.1,0.2C327.3,179.9,327.3,180,327.1,180
		L327.1,180z M325,189.3c0-0.7-0.3-1.7-0.6-2.5l0.6-0.2c0.3,0.8,0.5,1.8,0.6,2.4L325,189.3z M329,186.9c0,0.1-0.1,0.1-0.3,0.1
		c-0.2,0.6-0.4,1.6-0.7,2.2l-0.6-0.2c0.2-0.6,0.5-1.7,0.7-2.4L329,186.9z M335.7,186.5v3.3c0,0.8-0.4,0.9-1.7,0.9
		c0-0.2-0.2-0.6-0.3-0.8c0.2,0,0.5,0,0.6,0c0.5,0,0.5,0,0.5-0.2v-2.5h-2v4.5h-0.8v-4.5h-1.8v3.5h-0.8v-4.2h2.6v-1.1h-2.4V181h2.1
		c0.2-0.4,0.3-1,0.4-1.3l1.1,0.3c0,0.1-0.1,0.1-0.3,0.1c-0.1,0.3-0.2,0.6-0.4,0.9h2.8v4.4h-2.3c0,0.1-0.1,0.1-0.2,0.1v1H335.7z
		 M330.5,181.7v1.1h4.1v-1.1H330.5z M330.5,183.5v1.1h4.1v-1.1H330.5z"/>
	<path d="M332.8,206c1.2,1.1,2.6,2.6,3.3,3.6l-0.8,0.5c-0.2-0.3-0.5-0.7-0.8-1.1c-1.3,0-2.7,0.1-4,0.1v4.9h-0.9v-4.9
		c-1.9,0-3.6,0.1-4.9,0.1c0,0.1-0.1,0.2-0.2,0.2l-0.3-1.1h2.8c0.5-0.3,0.9-0.7,1.4-1.1c-0.8-0.7-2.2-1.7-3.4-2.4l0.6-0.6
		c0.3,0.2,0.6,0.4,1,0.6c0.8-0.8,1.8-2,2.4-2.9l1,0.5c-0.1,0.1-0.2,0.1-0.3,0.1c-0.6,0.8-1.6,1.9-2.5,2.7c0.7,0.5,1.3,0.9,1.8,1.4
		c1.2-1.1,2.5-2.3,3.3-3.4l1,0.6c0,0.1-0.2,0.1-0.3,0.1c-1.3,1.4-3.2,3.1-4.9,4.4c1.7,0,3.7,0,5.6-0.1c-0.5-0.6-1.2-1.2-1.7-1.8
		L332.8,206z M328.1,210.5c-0.1,0.1-0.2,0.1-0.3,0.1c-0.8,1.1-1.9,2.2-2.9,3c-0.2-0.2-0.5-0.4-0.7-0.5c1-0.7,2.2-1.9,2.9-3
		L328.1,210.5z M335.1,213.6c-0.6-0.8-2-2.1-3.1-3.1l0.7-0.4c1.1,0.9,2.5,2.2,3.2,3L335.1,213.6z"/>
	<path d="M330.1,224.9v8.9h-4.9v1h-0.8v-9.9H330.1z M326.8,225.7h-1.7v3.2h1.7V225.7z M325.2,229.7v3.4h1.7v-3.4H325.2z
		 M329.3,228.9v-3.2h-1.7v3.2H329.3z M327.6,233.1h1.7v-3.4h-1.7V233.1z M336.1,225.9v0.8h-1.9v8.4c0,1.2-0.5,1.2-3.1,1.2
		c-0.1-0.2-0.2-0.6-0.3-0.9c0.5,0,1,0,1.4,0c1.2,0,1.2,0,1.2-0.4v-8.4h-3.1v-0.8H336.1z"/>
</g>
<g>
	<rect x="279.5" y="179.2" class="st2" width="13" height="57.6"/>
	<path d="M281.7,184.3c-0.5,0.8-1,1.5-1.6,2.2c-0.1-0.2-0.3-0.6-0.5-0.8c1.2-1.4,2.5-3.6,3.3-5.9l1,0.4c-0.1,0.1-0.1,0.1-0.3,0.1
		c-0.3,0.9-0.7,1.8-1.2,2.7l0.4,0.1c0,0.1-0.1,0.1-0.3,0.2v8.6h-0.8V184.3z M288.3,190.4h3.8v0.8h-8.5v-0.8h3.9V187h-3.1v-0.8h3.1
		v-3h-3.5v-0.8h4.7c-0.6-0.6-1.9-1.5-2.8-2.1l0.6-0.6c1,0.6,2.3,1.4,2.9,2l-0.6,0.7h3.3v0.8h-3.6v3h3.2v0.8h-3.2V190.4z"/>
	<path d="M291.9,227h-5.5v2h4.7v0.8h-10V229h4.5v-2h-5.4v-0.8h5.4v-2l1.2,0.1c0,0.1-0.1,0.2-0.3,0.2v1.7h5.5V227z M281.9,236.4v-5.1
		h8.2v5.1h-0.9v-0.6h-6.4v0.6H281.9z M289.2,232.1h-6.4v2.9h6.4V232.1z"/>
</g>
<g>
	<rect x="235.5" y="179.2" class="st2" width="13" height="57.6"/>
	<path d="M236.4,183.3c0.8,0.3,1.9,0.9,2.4,1.3l-0.5,0.7c-0.5-0.4-1.6-1-2.4-1.4L236.4,183.3z M236.3,191c0.7-1,1.6-2.8,2.4-4.3
		l0.7,0.5c-0.6,1.4-1.5,3-2.1,4.1c0.1,0.1,0.1,0.1,0.1,0.2c0,0.1,0,0.1,0,0.1L236.3,191z M237.1,179.8c0.8,0.4,1.9,1,2.4,1.4
		l-0.5,0.7c-0.5-0.5-1.5-1.1-2.4-1.5L237.1,179.8z M244.1,183.9h4v0.7h-8.8v-0.7h3.9v-1h-3v-0.7h3v-0.9h-3.3v-0.7h3.3v-1l1.1,0.1
		c0,0.1-0.1,0.2-0.2,0.2v0.7h3.5v0.7h-3.5v0.9h3.1v0.7h-3.1V183.9z M246.9,185.5v5.3c0,0.9-0.4,0.9-2.3,0.9
		c-0.1-0.2-0.2-0.5-0.3-0.7c0.3,0,0.6,0,0.8,0c0.9,0,0.9,0,0.9-0.2v-1.2h-4.5v2.1h-0.8v-6.3H246.9z M246.1,186.2h-4.5v1h4.5V186.2z
		 M241.5,189h4.5v-1.1h-4.5V189z"/>
	<path d="M236.4,198.2c0.8,0.3,1.8,0.9,2.3,1.3l-0.5,0.7c-0.5-0.4-1.5-1-2.3-1.4L236.4,198.2z M236.3,205.9c0.6-1,1.6-2.8,2.2-4.3
		l0.7,0.5c-0.6,1.4-1.4,3.1-2,4.1c0.1,0.1,0.1,0.1,0.1,0.2c0,0.1,0,0.1,0,0.1L236.3,205.9z M237.1,194.7c0.8,0.4,1.8,1,2.3,1.4
		l-0.5,0.7c-0.5-0.5-1.5-1.1-2.3-1.5L237.1,194.7z M242.6,195c0.1,0,0.1,0.1,0.5,0.2c0,0.1-0.1,0.1-0.1,0.1c-0.6,2.3-2,4.2-3.6,5.2
		c-0.1-0.2-0.4-0.5-0.5-0.6c0.7-0.4,1.4-1,2-1.8c-0.3-0.4-0.9-0.9-1.3-1.2l0.5-0.5c0.4,0.3,0.9,0.7,1.2,1.1c0.3-0.5,0.5-1.1,0.7-1.6
		h-2.2v-0.8h2.6L242.6,195z M244.2,205.2c0.3-0.6,0.6-1.4,0.8-2.1l1.1,0.4c0,0.1-0.1,0.1-0.3,0.1c-0.2,0.5-0.5,1.3-0.8,1.8h3v0.8
		h-8.9v-0.8h5.7L244.2,205.2z M246.4,200.1v3.1h-5.9v-3.1H246.4z M241.9,205.4c-0.1-0.5-0.4-1.3-0.7-1.9l0.8-0.2
		c0.4,0.6,0.6,1.4,0.7,1.9L241.9,205.4z M245.6,202.4v-1.6h-4.2v1.6H245.6z M241.7,199.2v-0.8h3.6v0.8H241.7z M247.1,195.5
		c0,0-0.1,0.1-0.2,0.1c0,0-0.1,0-0.1,0c-0.4,0.3-1.1,0.8-1.6,1.2c0.2,0.3,0.3,0.6,0.5,0.9c0.5-0.4,1.2-1,1.6-1.4l0.7,0.7
		c0,0-0.1,0.1-0.2,0.1c0,0-0.1,0-0.1,0c-0.4,0.3-1,0.8-1.6,1.2c0.6,0.7,1.2,1.2,2,1.6c-0.2,0.2-0.5,0.5-0.6,0.7
		c-1.8-1.1-3-2.5-4-5.7l0.8-0.2c0.2,0.6,0.4,1.1,0.6,1.6c0.5-0.4,1.1-0.9,1.5-1.3L247.1,195.5z"/>
	<path d="M242.6,209.7c0,0.1-0.1,0.1-0.3,0.1c-0.2,0.5-0.5,1.2-0.8,1.8h5.4v9.8h-0.9v-0.9h-7.9v0.9h-0.9v-9.8h3.3
		c0.3-0.7,0.7-1.6,0.8-2.3L242.6,209.7z M245.9,212.5h-7.9v3.1h7.9V212.5z M238.1,219.7h7.9v-3.2h-7.9V219.7z"/>
	<path d="M236.3,228c0.8,0.3,1.8,0.9,2.3,1.3l-0.5,0.7c-0.5-0.4-1.5-1-2.3-1.4L236.3,228z M236.2,235.7c0.7-1,1.7-2.6,2.4-4l0.7,0.6
		c-0.7,1.3-1.5,2.8-2.2,3.8c0,0.1,0.1,0.1,0.1,0.2c0,0.1,0,0.1-0.1,0.2L236.2,235.7z M238.8,226.6c-0.5-0.5-1.4-1.1-2.2-1.5l0.5-0.6
		c0.8,0.3,1.8,0.9,2.2,1.4L238.8,226.6z M248.2,225.1v0.9h-1.1v9.2c0,1.2-0.5,1.3-3.1,1.2c-0.1-0.2-0.2-0.7-0.3-0.9
		c0.6,0,1.1,0,1.5,0c1,0,1.1,0,1.1-0.4v-9.2h-6.8v-0.9H248.2z M244.4,232.8h-3.3v0.9h-0.8V228h4.1V232.8z M243.6,228.8h-2.5v3.2h2.5
		V228.8z"/>
</g>
<g>
	<rect x="147.5" y="179.2" class="st2" width="13" height="57.6"/>
	<path d="M152.2,183.1l0.6,0.3c0,0.1-0.1,0.1-0.1,0.2c-0.7,3.3-2.3,5.7-4.2,7c-0.2-0.2-0.5-0.6-0.7-0.7c1.8-1.1,3.2-3.1,3.9-5.8
		h-3.5v-0.9h3.9L152.2,183.1z M154.5,182.1c0.3,1.1,0.7,2.1,1.1,3.1c1.1-0.9,2.4-2.3,3.2-3.3l0.9,0.7c-0.1,0.1-0.2,0.1-0.3,0.1
		c-0.9,1-2.4,2.4-3.5,3.3c1,1.8,2.4,3.3,4.2,4c-0.2,0.2-0.5,0.5-0.7,0.8c-2.4-1.1-4-3.4-5.1-6.3v6c0,1.2-0.5,1.3-3,1.3
		c-0.1-0.3-0.2-0.7-0.4-0.9c0.5,0,0.9,0,1.3,0c1.1,0,1.1,0,1.1-0.4v-10.8l1.2,0.1c0,0.1-0.1,0.2-0.3,0.2V182.1z"/>
	<path d="M159.4,200.6h-4.8c0.9,2.7,2.6,4.5,5.4,5.2c-0.2,0.2-0.5,0.6-0.6,0.8c-2.7-0.8-4.4-2.5-5.4-5.1c-0.5,1.9-1.9,3.8-5.6,5.1
		c-0.1-0.2-0.4-0.6-0.5-0.8c3.8-1.4,5-3.3,5.4-5.3h-4.7v-0.9h4.8c0-0.3,0-0.5,0-0.8v-2.4h-5.2v-0.9h11.6v0.9h-5.4v2.4
		c0,0.3,0,0.5,0,0.8h5.1V200.6z"/>
	<path d="M154.4,210.9h5.1v3h-0.9v-2.2h-9.2v2.2h-0.9v-3h5v-1.5l1.2,0.1c0,0.1-0.1,0.2-0.3,0.2V210.9z M157.3,216.2h-2.9
		c0,0.3-0.1,0.8-0.2,1.2h4.2v4.1h-0.9V221h-6.9v0.5h-0.9v-4.1h3.5c0.1-0.4,0.1-0.8,0.2-1.2h-2.8v-3.4h6.6V216.2z M157.5,220.2v-2
		h-6.9v2H157.5z M151.5,213.6v1.9h4.9v-1.9H151.5z"/>
	<path d="M158.1,224.6c-0.1,0.1-0.1,0.1-0.3,0.1c-0.4,0.5-1,1.2-1.5,1.7h3.5v0.8h-11.8v-0.8h3.6c-0.3-0.5-0.9-1.3-1.5-1.8l0.8-0.4
		c0.6,0.5,1.3,1.3,1.6,1.8l-0.8,0.4h4.5l-0.7-0.3c0.5-0.5,1.1-1.3,1.5-1.9L158.1,224.6z M153.1,228.5L153.1,228.5l0.4,0v6.8
		c0,0.9-0.4,1-2.3,1c-0.1-0.2-0.2-0.6-0.3-0.8c0.3,0,0.6,0,0.8,0c0.9,0,0.9,0,0.9-0.2v-1.8h-2.8v2.9H149v-7.9H153.1z M152.7,229.2
		h-2.8v1.4h2.8V229.2z M149.8,232.8h2.8v-1.4h-2.8V232.8z M155,228.6l1.1,0.1c0,0.1-0.1,0.1-0.3,0.2v5.2H155V228.6z M158.9,235.3
		c0,1-0.4,1.1-2.6,1.1c0-0.2-0.2-0.6-0.3-0.8c0.5,0,0.9,0,1.3,0c0.7,0,0.8,0,0.8-0.3v-7.1l1.1,0.1c0,0.1-0.1,0.2-0.3,0.2V235.3z"/>
</g>
<g>
	<rect x="279.5" y="86.2" class="st2" width="13" height="57.6"/>
	<path d="M280.2,96.4h11.7v0.9h-11.7V96.4z M281.3,88.6h9.5v0.9h-9.5V88.6z"/>
	<path d="M292,107.5v0.9h-5.5v4.1c0,0.6-0.2,0.9-0.6,1c-0.5,0.1-1.3,0.2-2.6,0.2c-0.1-0.3-0.2-0.6-0.4-0.9c0.7,0,1.3,0,1.8,0
		c0.8,0,0.9,0,0.9-0.3v-4.1H280v-0.9h5.5v-2.1l0.5,0c1-0.5,2.1-1.3,3-2h-7.7v-0.9h8.6l0.2-0.1l0.8,0.5c0,0.1-0.1,0.1-0.2,0.1
		c-1.1,1-2.8,2.2-4.3,3v1.4H292z"/>
	<path d="M286.4,127.1h5.5v0.9h-11.8v-0.9h5.4v-4.3h-4.1v-0.8h4.1v-3.7h-4.7v-0.9h10.5v0.9h-4.9v3.7h4.4v0.8h-4.4V127.1z
		 M290.1,126.4c-0.5-0.7-1.6-1.8-2.5-2.5l0.7-0.5c0.9,0.7,2,1.7,2.5,2.4L290.1,126.4z"/>
	<path d="M281.5,132l1.1,0.1c0,0.1-0.1,0.2-0.3,0.2v4.2c0,2.5-0.2,5-1.9,7c-0.2-0.2-0.5-0.5-0.7-0.6c1.6-1.8,1.7-4.1,1.7-6.4V132z
		 M285.7,132.5l1.1,0.1c0,0.1-0.1,0.2-0.3,0.2v9.4h-0.9V132.5z M290.3,131.9l1.2,0.1c0,0.1-0.1,0.1-0.3,0.2v11.1h-0.9V131.9z"/>
</g>
<rect x="272" y="427" class="st1" width="28" height="60"/>
<g>
	<rect x="280.1" y="428.3" class="st2" width="11.8" height="57.6"/>
	<path d="M290.7,435.2l0.9,0.9c-0.1,0.1-0.2,0.1-0.4,0.1c-0.2,0.3-0.7,0.8-1,1.1l-0.2-0.1c0.1-0.3,0.2-0.8,0.3-1.2h-4.1v2.9
		c0,0.1-0.3,0.2-0.6,0.2h-0.1V436h-3.8c0,0.7-0.3,1.4-0.9,1.4c-0.3,0-0.5-0.1-0.5-0.4c0-0.2,0.2-0.4,0.4-0.5
		c0.4-0.2,0.7-0.7,0.6-1.3l0.2,0c0.1,0.2,0.1,0.3,0.1,0.5h3.8v-1.1h-3.9l-0.1-0.3h7.4l0.6-0.7l1.1,0.7c-0.1,0.2-0.2,0.3-0.6,0.3
		h-3.6v1.1h4L290.7,435.2z M284.1,437.7l0.8,0.5c-0.1,0.2-0.2,0.3-0.5,0.3h-2.7l-0.1-0.3h2.1L284.1,437.7z M284.1,436.5l0.8,0.5
		c-0.1,0.2-0.2,0.2-0.5,0.2h-2.4l-0.1-0.3h1.9L284.1,436.5z M291,442.5v1.1c0.4,0.1,0.4,0.2,0.4,0.3c0,0.3-0.3,0.5-1.5,0.5h-3.2
		c-1.1,0-1.4-0.1-1.4-1.1v-0.7h-2.9v0.4c0,0-0.1,0.3-0.8,0.3v-4.1l0.8,0.4h6.4l0.4-0.5l1,0.7c-0.1,0.1-0.3,0.2-0.5,0.2v2.8
		c0,0-0.2,0.3-0.8,0.3v-0.5h-3v0.8c0,0.4,0,0.4,0.6,0.4h3.2c0.6,0,0.6,0,0.9-1.2H291z M285.5,439.7h-2.9v1.1h2.9V439.7z
		 M282.6,442.2h2.9v-1.1h-2.9V442.2z M289.2,439.7h-3v1.1h3V439.7z M286.2,442.2h3v-1.1h-3V442.2z M286.9,438.5l-0.1-0.3h2.2
		l0.4-0.5l0.8,0.5c-0.1,0.2-0.2,0.3-0.5,0.3H286.9z M289.1,436.5l0.8,0.5c-0.1,0.2-0.2,0.2-0.5,0.2h-2.6l-0.1-0.3h2L289.1,436.5z"/>
	<path d="M283.1,454.8c0.6-0.1,1.3-0.2,2-0.3l0,0.2c-1,0.3-2.3,0.7-4.1,1.3c-0.1,0.1-0.2,0.2-0.3,0.3l-0.4-1.1c0.4,0,1.2-0.1,2-0.3
		v-3.7h-1.9l-0.1-0.3h2v-1.8h-1.3l0-0.2c-0.2,0.2-0.4,0.4-0.6,0.5l-0.2-0.1c0.9-1,1.7-2.7,2-3.9l1.3,0.1c0,0.1-0.1,0.2-0.5,0.2
		c1.6,0.7,2.1,1.4,2.1,1.9c0,0.3-0.2,0.5-0.4,0.5c-0.1,0-0.2,0-0.3-0.1c-0.2-0.6-0.7-1.4-1.4-2.1c-0.4,0.9-1.1,2-1.9,2.9h2.4
		l0.5-0.6l0.9,0.7c-0.1,0.2-0.2,0.3-0.6,0.3h-1.3v1.8h0.6l0.5-0.7l1,0.7c-0.1,0.2-0.2,0.3-0.6,0.3h-1.5V454.8z M280.8,451.9
		c0.8,0.7,1,1.4,1,1.9c0,0.4-0.2,0.7-0.4,0.7c-0.1,0-0.2-0.1-0.3-0.2c0.1-0.7-0.2-1.7-0.5-2.3L280.8,451.9z M285.2,452
		c0,0.1-0.1,0.2-0.4,0.2c-0.3,0.7-0.7,1.5-1.1,2l-0.2-0.1c0.2-0.6,0.4-1.6,0.6-2.4L285.2,452z M291.5,451.3
		c-0.1,0.2-0.2,0.3-0.6,0.3h-2.4c0.4,2,1.4,3.5,3,4.2v0.1c-0.4,0.1-0.6,0.4-0.7,0.7c-1.5-1-2.3-2.8-2.6-5.1
		c-0.4,2.2-1.4,3.8-3.9,5.1l-0.2-0.2c2.1-1.3,2.9-2.9,3.3-4.9h-2.3l-0.1-0.3h2.4c0.1-0.9,0.2-1.8,0.2-2.8h-1.4
		c-0.3,0.8-0.7,1.5-1.1,2l-0.2-0.1c0.5-1,0.9-2.6,1.1-4.2l1.2,0.2c0,0.1-0.1,0.2-0.4,0.2c-0.1,0.5-0.3,1.1-0.4,1.6h1.3v-2.6l1.3,0.1
		c0,0.2-0.1,0.3-0.5,0.3c0,0.8,0,1.5,0,2.2h1l0.5-0.7l1,0.7c-0.1,0.2-0.2,0.3-0.6,0.3h-2c0,1-0.1,2-0.2,2.8h1.6l0.5-0.7L291.5,451.3
		z"/>
	<path d="M280.3,465.2h5.2v-1.4h-3.8l-0.1-0.3h3.9v-1.4h-2.8v0.4c0,0-0.1,0.3-0.8,0.3v-5l0.9,0.4h6.2l0.4-0.5l1,0.7
		c-0.1,0.1-0.3,0.2-0.5,0.2v3.6c0,0-0.2,0.3-0.8,0.3v-0.4h-2.9v1.4h2.5l0.6-0.7l1.1,0.7c-0.1,0.2-0.2,0.3-0.6,0.3h-3.6v1.4h3.6
		l0.6-0.7l1.1,0.8c-0.1,0.2-0.2,0.3-0.6,0.3h-10.5L280.3,465.2z M282.2,466.1c0,0.2,0.1,0.4,0.1,0.6c0,1.2-0.8,1.9-1.5,1.9
		c-0.3,0-0.5-0.1-0.5-0.3c0-0.2,0.2-0.4,0.4-0.5c0.6-0.2,1.2-0.9,1.3-1.7H282.2z M285.5,458.5h-2.8v1.5h2.8V458.5z M282.7,461.9h2.8
		v-1.5h-2.8V461.9z M284,466.1c0.7,0.6,1,1.2,1,1.6c0,0.4-0.2,0.7-0.5,0.7c-0.1,0-0.3-0.1-0.4-0.2c0-0.1,0-0.3,0-0.4
		c0-0.6-0.1-1.2-0.3-1.7L284,466.1z M286.3,466.1c1.2,0.6,1.6,1.3,1.6,1.8c0,0.3-0.2,0.6-0.4,0.6c-0.1,0-0.2-0.1-0.4-0.2
		c-0.1-0.7-0.5-1.5-0.9-2.1L286.3,466.1z M289.1,458.5h-2.9v1.5h2.9V458.5z M286.2,461.9h2.9v-1.5h-2.9V461.9z M288.7,466
		c2.1,0.6,2.7,1.6,2.7,2.1c0,0.3-0.2,0.5-0.4,0.5c-0.1,0-0.2,0-0.3-0.1c-0.3-0.8-1.2-1.8-2.1-2.4L288.7,466z"/>
	<path d="M285.4,474.5l0.6-0.7l1,0.7c-0.1,0.2-0.2,0.3-0.6,0.3h-6.1l-0.1-0.3h3.7c0.3-0.8,0.6-1.8,0.8-2.6l1.2,0.4
		c0,0.1-0.2,0.2-0.5,0.2c-0.3,0.6-0.8,1.4-1.3,2H285.4z M280.6,471.6l-0.1-0.3h2.5v-1.8l1.3,0.1c0,0.2-0.1,0.3-0.6,0.3v1.4h1.3
		l0.5-0.7l1,0.7c-0.1,0.2-0.2,0.3-0.6,0.3H280.6z M284.9,476.1l0.4-0.5l1,0.7c-0.1,0.1-0.3,0.2-0.5,0.3v3.2c0,0-0.2,0.3-0.7,0.3
		v-0.7h-3.1v0.9c0,0-0.1,0.3-0.8,0.3v-4.8l0.8,0.4H284.9z M281.5,472c0.9,0.6,1.2,1.2,1.2,1.7c0,0.4-0.2,0.6-0.4,0.6
		c-0.1,0-0.2,0-0.3-0.2c0-0.6-0.3-1.5-0.6-2L281.5,472z M281.9,479.1h3.1v-2.7h-3.1V479.1z M290.7,469.9l0.9,1
		c-0.1,0.1-0.3,0.1-0.6,0.1c-0.4,0.8-1.2,2.3-1.8,3c2.1,1.4,2.2,2.5,2.2,3.1c0,1.2-0.5,1.8-1.8,1.9c0-0.5-0.2-0.6-1-0.7v-0.2h1.2
		c0.6,0,0.7-0.6,0.7-1.1c0-1-0.5-1.9-1.6-2.9c0.3-0.8,0.9-2.3,1.2-3.3H288v9.6c0,0.1-0.3,0.3-0.6,0.3h-0.1v-10.6l0.9,0.4h2
		L290.7,469.9z"/>
</g>
<rect x="316" y="427" class="st1" width="28" height="60"/>
<g>
	<rect x="324.1" y="428.3" class="st2" width="11.8" height="57.6"/>
	<path d="M334.3,455l1.2,0.8c-0.1,0.2-0.3,0.3-0.6,0.3h-10.5l-0.1-0.3h6.4c0.6-1.9,1.2-4.6,1.6-6.5l1.4,0.3c0,0.2-0.2,0.2-0.5,0.2
		c-0.5,1.7-1.3,4.1-2.2,6h2.7L334.3,455z M324.9,448.5l-0.1-0.3h4.6v-2.7l1.4,0.1c0,0.2-0.2,0.3-0.6,0.3v2.3h3l0.6-0.8l1.1,0.8
		c-0.1,0.2-0.2,0.3-0.6,0.3H324.9z M326.7,449.4c1.2,1.7,1.6,3.2,1.6,4.3c0,0.8-0.2,1.2-0.5,1.2c-0.1,0-0.2-0.1-0.4-0.2
		c0-0.2,0-0.4,0-0.6c0-1.5-0.5-3.4-1-4.6L326.7,449.4z"/>
	<path d="M333.9,460.4l1.3,0.1c0,0.2-0.1,0.3-0.5,0.3v7.3c0,0-0.1,0.3-0.8,0.3v-1.3h-8v1.2c0,0-0.1,0.3-0.8,0.3v-8.1l1.3,0.1
		c0,0.2-0.1,0.3-0.5,0.3v5.9h3.6v-9.1l1.4,0.1c0,0.2-0.2,0.3-0.6,0.3v8.7h3.6V460.4z"/>
</g>
<rect x="354" y="427" class="st1" width="28" height="60"/>
<g>
	<rect x="362.1" y="428.3" class="st2" width="11.8" height="57.6"/>
	<path d="M372.3,436.7l1.2,0.8c-0.1,0.2-0.2,0.3-0.6,0.3h-10.5l-0.1-0.3h5.2v-2h-3.9l-0.1-0.3h4v-1.7l1.3,0.1c0,0.2-0.1,0.3-0.5,0.3
		v1.3h2.4l0.6-0.8l1.1,0.8c-0.1,0.2-0.2,0.3-0.6,0.3h-3.5v2h3.5L372.3,436.7z M371.4,439.7l0.6-0.8l1.2,0.8
		c-0.1,0.2-0.2,0.3-0.6,0.3h-2.3v3.4c0,0.6-0.2,1.1-1.4,1.2c0-0.6-0.6-0.7-1.6-0.8v-0.2h1.9c0.3,0,0.3-0.1,0.3-0.3V440h-6.9
		l-0.1-0.3h6.9V438l1.3,0.1c0,0.2-0.1,0.3-0.5,0.3v1.3H371.4z M364.3,440.5c1.7,0.6,2.2,1.4,2.2,2c0,0.3-0.2,0.6-0.5,0.6
		c-0.1,0-0.2,0-0.4-0.2c-0.2-0.8-0.9-1.8-1.5-2.3L364.3,440.5z"/>
	<path d="M372,446.5l1,0.8c-0.1,0.1-0.3,0.2-0.5,0.3v8.5c0,0-0.2,0.3-0.8,0.3v-0.9H364v0.7c0,0-0.1,0.3-0.8,0.3v-9.7l0.9,0.4h7.5
		L372,446.5z M367.4,447.3H364v3.7h3.4V447.3z M364,451.3v3.8h3.4v-3.8H364z M371.7,447.3h-3.5v3.7h3.5V447.3z M368.2,455.1h3.5
		v-3.8h-3.5V455.1z"/>
	<path d="M362.4,459.5c0.4,0.1,0.7,0.2,0.9,0.4c0.3-0.7,0.6-1.6,0.9-2.4l1.2,0.5c0,0.1-0.1,0.2-0.4,0.2c-0.4,0.6-0.9,1.4-1.4,1.9
		c0.3,0.3,0.5,0.6,0.5,0.8c0,0.3-0.2,0.5-0.4,0.5c-0.1,0-0.2,0-0.3-0.1c-0.1-0.5-0.6-1.2-1.1-1.6L362.4,459.5z M364.1,464.6
		c0,0.1-0.1,0.2-0.4,0.2c-0.3,1-0.7,2.1-1.2,2.8l-0.2-0.1c0.3-0.8,0.6-2,0.7-3.1L364.1,464.6z M373.5,463.1c-0.3,0-0.6,0.2-0.7,0.6
		c-1.1-0.4-2-0.9-2.7-1.6c-0.8,0.7-1.9,1.4-3.1,1.8l-0.1-0.2c-0.1,0.1-0.2,0.2-0.3,0.2c-0.1,0-0.2,0-0.3-0.2c0-0.2-0.1-0.5-0.2-0.8
		l-0.9,0.2v5.2c0,0.1-0.3,0.3-0.6,0.3h-0.1v-5.3l-1.3,0.2c-0.1,0.2-0.2,0.2-0.3,0.2l-0.3-0.9c0.3,0,0.7,0,1.1,0
		c0.7-1.2,1.6-2.8,2.1-3.9l1.2,0.5c0,0.1-0.1,0.1-0.3,0.1c-0.1,0-0.1,0-0.2,0c-0.6,0.9-1.6,2.2-2.5,3.2c0.6,0,1.3,0,2.1-0.1
		c-0.2-0.4-0.4-0.7-0.6-0.9l0.1-0.1c1.2,0.6,1.5,1.2,1.5,1.7c0,0.1,0,0.2,0,0.3c1.1-0.5,2-1.2,2.7-2c-0.8-0.8-1.4-1.9-1.8-3.1H367
		l-0.1-0.3h4.7l0.5-0.5l0.9,0.8c-0.1,0.1-0.2,0.1-0.5,0.1c-0.4,1-1.1,2-1.9,2.9c0.9,0.6,1.9,1.1,3,1.4L373.5,463.1z M365.6,464.4
		c0.9,0.6,1.2,1.3,1.2,1.7c0,0.4-0.2,0.6-0.5,0.6c-0.1,0-0.2-0.1-0.3-0.2c0-0.7-0.3-1.6-0.6-2.1L365.6,464.4z M372.5,467.2l1,0.7
		c-0.1,0.2-0.2,0.3-0.6,0.3h-6.4l-0.1-0.3h3.1v-2.7h-2.2l-0.1-0.3h2.3v-2l1.2,0.1c0,0.2-0.1,0.2-0.4,0.3v1.6h1.1l0.5-0.7l1,0.7
		c-0.1,0.2-0.2,0.3-0.6,0.3h-2.1v2.7h1.6L372.5,467.2z M368.1,458.5c0.4,1,1.1,1.9,2,2.6c0.7-0.8,1.2-1.7,1.5-2.6H368.1z"/>
	<path d="M372,471.9l1.1,0.8c-0.1,0.1-0.3,0.2-0.6,0.3v7.2c0,0-0.3,0.3-0.8,0.3v-0.8H364v0.6c0,0-0.1,0.3-0.8,0.3V472l0.9,0.4h3.3
		v-2.9l1.3,0.1c0,0.2-0.2,0.3-0.6,0.3v2.5h3.4L372,471.9z M367.4,472.7H364v3.1h3.4V472.7z M364,476.1v3.3h3.4v-3.3H364z
		 M371.7,472.7h-3.5v3.1h3.5V472.7z M368.2,479.4h3.5v-3.3h-3.5V479.4z"/>
</g>
<rect x="383" y="441" class="st1" width="12" height="32"/>
<g>
	<rect x="383.9" y="441.8" class="st2" width="10" height="30"/>
	<path d="M392.6,445.4l0.9,0.6c-0.1,0.1-0.2,0.2-0.5,0.2h-5.1c-0.3,0.6-0.6,1.1-1,1.7l0.1,0.1h4.6l0.3-0.4l0.9,0.6
		c-0.1,0.1-0.2,0.2-0.4,0.2v2.8c0,0-0.2,0.2-0.7,0.2v-0.6h-4.8v0.4c0,0.1-0.2,0.2-0.5,0.2h-0.1v-2.8c-0.6,0.6-1.2,1.1-1.9,1.5
		l-0.1-0.2c1.2-1,2.3-2.4,2.8-3.8h-2.8l-0.1-0.2h7.9L392.6,445.4z M385.8,444.8v0.4c0,0-0.1,0.2-0.6,0.2v-2.7l1.1,0.1
		c0,0.1-0.1,0.2-0.4,0.3v1.6h2.7v-2.4l1.1,0.1c0,0.2-0.1,0.2-0.5,0.3v2h2.7v-1.9l1.1,0.1c0,0.1-0.1,0.2-0.4,0.2v2.1
		c0,0-0.1,0.2-0.7,0.2v-0.4H385.8z M391.7,448.3h-4.8v2.3h4.8V448.3z"/>
	<path d="M387.1,459.1h-2v1.1c0,0-0.1,0.2-0.6,0.2v-6.3l1,0.1c0,0.1-0.1,0.2-0.4,0.2v4.4h0.7v-6.5l1,0.1c0,0.2-0.1,0.2-0.4,0.3v6.1
		h0.7v-4.8l1,0.1c0,0.1-0.1,0.2-0.4,0.2v5.3c0,0-0.1,0.2-0.6,0.2V459.1z M392.8,456.9l0.8,0.6c-0.1,0.1-0.2,0.2-0.5,0.2h-1.3v3.5
		c0,0-0.1,0.2-0.6,0.2v-3.8h-1.5c-0.1,1.4-0.7,2.9-2.7,3.8l-0.1-0.1c1.6-0.9,2.1-2.3,2.2-3.6h-1.2l-0.1-0.2h1.3c0-0.2,0-0.4,0-0.5
		v-1.3l1,0.1c0,0.1-0.1,0.2-0.4,0.2v1c0,0.2,0,0.3,0,0.5h1.5v-1.9l1.1,0.1c0,0.1-0.1,0.2-0.4,0.3v1.5h0.5L392.8,456.9z M391.2,453.6
		c1.6,0.5,2.1,1.3,2.1,1.8c0,0.3-0.1,0.4-0.3,0.4c-0.1,0-0.2,0-0.3-0.1c-0.1-0.3-0.2-0.5-0.4-0.8c-1,0.1-2.3,0.3-4,0.5
		c-0.1,0.1-0.2,0.2-0.3,0.2l-0.3-0.8c0.2,0,0.6,0,0.9,0c0.4-0.8,0.8-1.9,1.1-2.6l1,0.4c0,0.1-0.1,0.1-0.3,0.1c0,0-0.1,0-0.1,0
		c-0.3,0.6-0.9,1.4-1.4,2.1c0.9,0,2-0.1,3.1-0.1c-0.3-0.4-0.7-0.8-1.1-1L391.2,453.6z"/>
	<path d="M392.6,464.9l1,0.7c-0.1,0.1-0.2,0.2-0.5,0.2h-8.8l-0.1-0.2h4.3v-1.6h-3.2l-0.1-0.2h3.3v-1.4l1.1,0.1
		c0,0.1-0.1,0.2-0.4,0.3v1.1h2l0.5-0.6l0.9,0.7c-0.1,0.1-0.2,0.2-0.5,0.2h-3v1.6h2.9L392.6,464.9z M391.9,467.4l0.5-0.7l1,0.7
		c-0.1,0.1-0.2,0.2-0.5,0.2H391v2.9c0,0.5-0.1,0.9-1.2,1c0-0.5-0.5-0.6-1.3-0.6v-0.1h1.6c0.2,0,0.3-0.1,0.3-0.2v-2.9h-5.7l-0.1-0.2
		h5.8V466l1.1,0.1c0,0.1-0.1,0.2-0.4,0.3v1.1H391.9z M385.9,468c1.4,0.5,1.9,1.2,1.9,1.7c0,0.3-0.2,0.5-0.4,0.5
		c-0.1,0-0.2,0-0.3-0.1C387,469.4,386.4,468.6,385.9,468L385.9,468z"/>
</g>
<rect x="52" y="520" class="st1" width="28" height="60"/>
<g>
	<rect x="60.1" y="521.3" class="st2" width="11.8" height="57.6"/>
	<path d="M70.3,533.8l1.1,0.8c-0.1,0.2-0.2,0.3-0.6,0.3h-6.1c-0.3,0.6-0.6,1.2-1,1.8l0.3,0.1h4.6l0.4-0.5L70,537
		c-0.1,0.1-0.3,0.2-0.6,0.3v5.2c0,0.6-0.2,1.1-1.3,1.2c0-0.6-0.4-0.8-1.3-0.8v-0.2h1.6c0.2,0,0.3,0,0.3-0.2v-1.6h-4.8v2.6
		c0,0.1-0.3,0.3-0.6,0.3h-0.1v-6.1c-0.7,0.9-1.6,1.8-2.7,2.4l-0.1-0.2c1.6-1.3,2.8-3.1,3.6-5h-3.4l-0.1-0.3H64
		c0.3-0.7,0.5-1.4,0.7-2.1l1.3,0.4c0,0.2-0.2,0.2-0.5,0.2c-0.2,0.5-0.4,1-0.6,1.5h4.9L70.3,533.8z M68.7,537h-4.8v1.6h4.8V537z
		 M63.8,540.5h4.8v-1.6h-4.8V540.5z"/>
	<path d="M63.6,546.8l1.2,0.1c0,0.2-0.1,0.3-0.5,0.3v6.3c0,0-0.1,0.3-0.7,0.3v-0.9h-2.1v1.3c0,0-0.1,0.3-0.7,0.3v-7.6l1.2,0.1
		c0,0.2-0.1,0.3-0.5,0.3v5.3h0.7v-7.8l1.2,0.1c0,0.2-0.1,0.3-0.5,0.3v7.4h0.8V546.8z M69.8,545.2l0.8,0.8c-0.1,0.1-0.2,0.1-0.5,0.1
		c-0.4,0.7-0.9,1.4-1.6,2c0.8,0.5,1.8,0.9,3.1,1.1l0,0.1c-0.3,0.1-0.5,0.3-0.6,0.6c-1.2-0.4-2.1-0.9-2.9-1.5c-1,0.8-2.2,1.4-3.7,1.8
		l-0.1-0.2c1.3-0.5,2.4-1.2,3.3-2c-0.5-0.5-0.8-1-1.2-1.5c-0.5,0.7-1.1,1.2-1.7,1.6l-0.2-0.2c0.8-0.7,1.6-2,2-3.5l1.1,0.4
		c-0.1,0.1-0.2,0.2-0.4,0.2c-0.1,0.2-0.2,0.5-0.3,0.7h2.3L69.8,545.2z M69.8,553.5l0.5-0.7l1,0.7c-0.1,0.2-0.2,0.3-0.6,0.3h-2.4v1.5
		c0,0-0.1,0.3-0.8,0.3v-1.8h-2.9l-0.1-0.3h3v-1.2h-2l-0.1-0.3h2.1V551h-2.3l-0.1-0.3h2.4v-1.1l1.2,0.1c0,0.2-0.1,0.3-0.5,0.3v0.7
		h0.9l0.5-0.6l1,0.7c-0.1,0.2-0.2,0.3-0.6,0.3h-1.9v1.1h0.8l0.5-0.6l0.9,0.7c-0.1,0.2-0.2,0.3-0.6,0.3h-1.6v1.2H69.8z M66.9,546
		c-0.1,0.1-0.2,0.2-0.2,0.3c0.4,0.5,0.8,1,1.4,1.4c0.5-0.5,0.9-1.1,1.3-1.8H66.9z"/>
	<path d="M69.9,557.9l1.2,0.9c-0.1,0.1-0.3,0.2-0.6,0.3v7.9c0,0-0.3,0.3-0.8,0.3V566h-7.4v1c0,0-0.1,0.3-0.8,0.3v-9.2l0.9,0.4h7.2
		L69.9,557.9z M62.2,565.8h7.4v-7h-7.4V565.8z"/>
</g>
<rect x="96" y="520" class="st1" width="28" height="60"/>
<g>
	<rect x="104.1" y="521.3" class="st2" width="11.8" height="57.6"/>
	<path d="M114.7,528.2l0.9,0.9c-0.1,0.1-0.2,0.1-0.4,0.1c-0.2,0.3-0.7,0.8-1,1.1l-0.2-0.1c0.1-0.3,0.2-0.8,0.3-1.2h-4.1v2.9
		c0,0.1-0.3,0.2-0.6,0.2h-0.1V529h-3.8c0,0.7-0.3,1.4-0.9,1.4c-0.3,0-0.5-0.1-0.5-0.4c0-0.2,0.2-0.4,0.4-0.5
		c0.4-0.2,0.7-0.7,0.6-1.3l0.2,0c0.1,0.2,0.1,0.3,0.1,0.5h3.8v-1.1h-3.9l-0.1-0.3h7.4l0.6-0.7l1.1,0.7c-0.1,0.2-0.2,0.3-0.6,0.3
		h-3.6v1.1h4L114.7,528.2z M108.1,530.7l0.8,0.5c-0.1,0.2-0.2,0.3-0.5,0.3h-2.7l-0.1-0.3h2.1L108.1,530.7z M108.1,529.5l0.8,0.5
		c-0.1,0.2-0.2,0.2-0.5,0.2h-2.4l-0.1-0.3h1.9L108.1,529.5z M115,535.5v1.1c0.4,0.1,0.4,0.2,0.4,0.3c0,0.3-0.3,0.5-1.5,0.5h-3.2
		c-1.1,0-1.4-0.1-1.4-1.1v-0.7h-2.9v0.4c0,0-0.1,0.3-0.8,0.3v-4.1l0.8,0.4h6.4l0.4-0.5l1,0.7c-0.1,0.1-0.3,0.2-0.5,0.2v2.8
		c0,0-0.2,0.3-0.8,0.3v-0.5h-3v0.8c0,0.4,0,0.4,0.6,0.4h3.2c0.6,0,0.6,0,0.9-1.2H115z M109.5,532.7h-2.9v1.1h2.9V532.7z
		 M106.6,535.2h2.9v-1.1h-2.9V535.2z M113.2,532.7h-3v1.1h3V532.7z M110.2,535.2h3v-1.1h-3V535.2z M110.9,531.5l-0.1-0.3h2.2
		l0.4-0.5l0.8,0.5c-0.1,0.2-0.2,0.3-0.5,0.3H110.9z M113.1,529.5l0.8,0.5c-0.1,0.2-0.2,0.2-0.5,0.2h-2.6l-0.1-0.3h2L113.1,529.5z"/>
	<path d="M107.1,547.8c0.6-0.1,1.3-0.2,2-0.3l0,0.2c-1,0.3-2.3,0.7-4.1,1.3c-0.1,0.1-0.2,0.2-0.3,0.3l-0.4-1.1c0.4,0,1.2-0.1,2-0.3
		v-3.7h-1.9l-0.1-0.3h2v-1.8h-1.3l0-0.2c-0.2,0.2-0.4,0.4-0.6,0.5l-0.2-0.1c0.9-1,1.7-2.7,2-3.9l1.3,0.1c0,0.1-0.1,0.2-0.5,0.2
		c1.6,0.7,2.1,1.4,2.1,1.9c0,0.3-0.2,0.5-0.4,0.5c-0.1,0-0.2,0-0.3-0.1c-0.2-0.6-0.7-1.4-1.4-2.1c-0.4,0.9-1.1,2-1.9,2.9h2.4
		l0.5-0.6l0.9,0.7c-0.1,0.2-0.2,0.3-0.6,0.3h-1.3v1.8h0.6l0.5-0.7l1,0.7c-0.1,0.2-0.2,0.3-0.6,0.3h-1.5V547.8z M104.8,544.9
		c0.8,0.7,1,1.4,1,1.9c0,0.4-0.2,0.7-0.4,0.7c-0.1,0-0.2-0.1-0.3-0.2c0.1-0.7-0.2-1.7-0.5-2.3L104.8,544.9z M109.2,545
		c0,0.1-0.1,0.2-0.4,0.2c-0.3,0.7-0.7,1.5-1.1,2l-0.2-0.1c0.2-0.6,0.4-1.6,0.6-2.4L109.2,545z M115.5,544.3
		c-0.1,0.2-0.2,0.3-0.6,0.3h-2.4c0.4,2,1.4,3.5,3,4.2v0.1c-0.4,0.1-0.6,0.4-0.7,0.7c-1.5-1-2.3-2.8-2.6-5.1
		c-0.4,2.2-1.4,3.8-3.9,5.1l-0.2-0.2c2.1-1.3,2.9-2.9,3.3-4.9h-2.3l-0.1-0.3h2.4c0.1-0.9,0.2-1.8,0.2-2.8h-1.4
		c-0.3,0.8-0.7,1.5-1.1,2l-0.2-0.1c0.5-1,0.9-2.6,1.1-4.2l1.2,0.2c0,0.1-0.1,0.2-0.4,0.2c-0.1,0.5-0.3,1.1-0.4,1.6h1.3v-2.6l1.3,0.1
		c0,0.2-0.1,0.3-0.5,0.3c0,0.8,0,1.5,0,2.2h1l0.5-0.7l1,0.7c-0.1,0.2-0.2,0.3-0.6,0.3h-2c0,1-0.1,2-0.2,2.8h1.6l0.5-0.7L115.5,544.3
		z"/>
	<path d="M114.5,551.4l0.9,0.9c-0.1,0.1-0.2,0.1-0.5,0.1c-0.3,0.4-0.8,1-1.2,1.3l-0.2-0.1c0.1-0.3,0.3-1,0.4-1.4h-8
		c0,1-0.6,1.6-1.2,1.6c-0.2,0-0.4-0.1-0.4-0.3c0-0.2,0.2-0.4,0.3-0.5c0.5-0.2,1-0.9,1-1.7l0.2,0c0.1,0.2,0.1,0.4,0.1,0.6h3.4v-1.5
		l1.3,0.1c0,0.2-0.1,0.3-0.5,0.3v1.1h3.8L114.5,551.4z M113.1,557.5l0.4-0.5l1,0.7c-0.1,0.1-0.3,0.2-0.5,0.3v3.3
		c0,0-0.2,0.3-0.8,0.3V561h-6.7v0.4c0,0-0.1,0.3-0.8,0.3v-4.5l0.9,0.4H113.1z M112.6,552.6l1,0.6c-0.1,0.2-0.2,0.3-0.6,0.3h-6.7
		l-0.1-0.3h5.9L112.6,552.6z M109.5,557.7h-2.9v1.3h2.9V557.7z M106.5,559.3v1.3h2.9v-1.3H106.5z M113,556.6c0,0.1-0.4,0.2-0.7,0.2
		h-0.1v-0.4h-4.6v0.3c0,0-0.1,0.3-0.8,0.3V554l0.8,0.4h4.4l0.3-0.4l1,0.7c-0.1,0.1-0.3,0.2-0.5,0.2V556.6z M107.6,556.1h4.6v-1.4
		h-4.6V556.1z M113.2,557.7h-3v1.3h3V557.7z M110.2,560.7h3v-1.3h-3V560.7z"/>
	<path d="M113.9,565.4l1.3,0.1c0,0.2-0.1,0.3-0.5,0.3v7.3c0,0-0.1,0.3-0.8,0.3v-1.3h-8v1.2c0,0-0.1,0.3-0.8,0.3v-8.1l1.3,0.1
		c0,0.2-0.1,0.3-0.5,0.3v5.9h3.6v-9.1l1.4,0.1c0,0.2-0.2,0.3-0.6,0.3v8.7h3.6V565.4z"/>
</g>
<rect x="140" y="520" class="st1" width="28" height="60"/>
<g>
	<rect x="148.1" y="521.3" class="st2" width="11.8" height="57.6"/>
	<path d="M151.3,533.4v2.6c1,0.5,2.2,0.6,4,0.6c1,0,3.2,0,4.3,0v0.2c-0.3,0-0.5,0.3-0.5,0.6h-3.8c-3,0-4.6-0.5-5.7-2.7
		c-0.2,1.1-0.5,2.2-1.1,3l-0.2-0.2c0.7-1.3,0.7-3.7,0.8-5.3l1.1,0.1c0,0.2-0.1,0.2-0.4,0.3c0,0.6-0.1,1.1-0.1,1.7
		c0.3,0.6,0.6,1,1,1.3v-4.6h-2.2l-0.1-0.3h2.2v-2h-1.8l-0.1-0.3h1.9v-1.8l1.3,0.1c0,0.2-0.1,0.3-0.6,0.3v1.4h0.7l0.5-0.7l0.9,0.7
		c-0.1,0.2-0.2,0.3-0.6,0.3h-1.6v2h0.9l0.5-0.7l1,0.7c-0.1,0.2-0.2,0.3-0.6,0.3h-1.5c-0.1,0-0.2,0-0.3,0.1v2.1h0.8l0.5-0.7l0.9,0.7
		c-0.1,0.2-0.2,0.3-0.6,0.3H151.3z M156.4,532.8c-0.6,0.4-1.5,1-2.7,1.7c0,0.1-0.1,0.3-0.2,0.3l-0.7-0.8c0.3-0.1,0.6-0.2,1.1-0.4
		v-5.3l0.9,0.4h1.4c0-0.7-0.1-1.5-0.1-2.2l1.2,0.1c0,0.2-0.1,0.2-0.4,0.3c0,0.6,0,1.2,0,1.8h1.1l0.5-0.7l1,0.7
		c-0.1,0.2-0.3,0.3-0.6,0.3h-2c0.1,1.1,0.2,2.2,0.4,3.2c0.4-0.7,0.6-1.6,0.8-2.4l1.1,0.3c0,0.1-0.2,0.2-0.4,0.2
		c-0.3,1.1-0.7,2-1.3,2.8c0.2,0.7,0.6,1.3,1,1.5c0.1,0,0.1,0.1,0.1,0.1c0.1,0,0.5-0.9,0.6-1.3l0.1,0l-0.2,1.5
		c0.2,0.2,0.3,0.4,0.3,0.6c0,0.1-0.1,0.2-0.3,0.2c-0.2,0-1.3-0.2-2.1-2.1c-0.8,0.9-1.7,1.6-2.8,2.1l-0.1-0.2c1.1-0.6,2-1.5,2.7-2.6
		c-0.3-1.2-0.5-2.7-0.6-4.1h-1.6v4.3l1.7-0.7L156.4,532.8z M157.7,526.6c1.2,0.1,1.6,0.6,1.6,0.9c0,0.2-0.1,0.4-0.3,0.4
		c-0.1,0-0.2,0-0.3-0.1c-0.2-0.4-0.6-0.9-1-1.1L157.7,526.6z"/>
	<path d="M158,540.5l1.1,0.8c-0.1,0.1-0.3,0.2-0.5,0.2v4.7c0,0-0.2,0.3-0.8,0.3v-1.1h-3.5v4c0,0-0.1,0.3-0.8,0.3v-4.3H150v0.9
		c0,0-0.1,0.3-0.8,0.3v-5.9l0.9,0.4h3.3v-2.5l1.3,0.1c0,0.2-0.1,0.3-0.5,0.3v2.1h3.4L158,540.5z M150,545h3.4v-3.7H150V545z
		 M154.2,545h3.5v-3.7h-3.5V545z"/>
	<path d="M148.2,558.1c1-1,2-2.9,2.6-4.8l1.2,0.4c0,0.1-0.2,0.2-0.4,0.2c-0.2,0.6-0.5,1.1-0.8,1.6l0.4,0.1c0,0.1-0.2,0.2-0.4,0.2
		v5.5c0,0.1-0.3,0.3-0.6,0.3h-0.1v-5c-0.5,0.6-1,1.2-1.6,1.6L148.2,558.1z M151.5,552.1h-3.1l-0.1-0.3h3.2v-1.4l1.2,0.1
		c0,0.2-0.1,0.3-0.5,0.3v1h3.1v-1.4l1.2,0.1c0,0.2-0.1,0.2-0.5,0.3v1h1.6l0.5-0.7l1.1,0.8c-0.1,0.2-0.2,0.2-0.6,0.2h-2.7v0.9
		c0,0-0.1,0.3-0.8,0.3v-1.2h-3.1v1c0,0-0.1,0.2-0.8,0.2V552.1z M159.6,557.2c-0.1,0.2-0.3,0.3-0.6,0.3h-3.1v3.4h1.7l0.6-0.8l1.1,0.8
		c-0.1,0.2-0.2,0.3-0.6,0.3h-6.7l-0.1-0.3h3.3v-3.4h-3.6l-0.1-0.3h3.7v-2.6c-1,0.1-2,0.2-3,0.3l-0.1-0.2c2-0.3,4.5-0.9,5.8-1.4
		l0.9,0.8c0,0-0.1,0.1-0.2,0.1c-0.1,0-0.2,0-0.4-0.1c-0.6,0.1-1.4,0.3-2.2,0.4v2.7h2.1l0.6-0.7L159.6,557.2z"/>
	<path d="M158.3,562.7l1.1,0.8c-0.1,0.2-0.2,0.3-0.6,0.3h-3.7c-0.2,0.5-0.5,1.2-0.7,1.6h2.7l0.4-0.5l1,0.7c-0.1,0.1-0.3,0.2-0.5,0.3
		v3.5c0,0-0.2,0.3-0.8,0.3v-0.4h-2.1v3.3c0,0.6-0.2,1-1.3,1.1c0-0.6-0.4-0.7-1.4-0.8v-0.2h1.7c0.2,0,0.3,0,0.3-0.2v-3.3h-2.1v0.3
		c0,0-0.1,0.3-0.8,0.3V565l0.8,0.4h1.5c0.1-0.5,0.2-1.1,0.2-1.6h-3.9v2.7c0,2.1-0.1,5.1-1.9,7.1l-0.2-0.1c1.2-2.1,1.3-4.7,1.3-7
		v-3.4l0.9,0.4h7.3L158.3,562.7z M149.8,573c1.1-0.8,2.1-2,2.5-2.9l1.1,0.5c0,0.1-0.1,0.2-0.3,0.2c0,0-0.1,0-0.2,0
		c-0.6,0.9-1.8,1.9-3,2.5L149.8,573z M157.3,565.7h-4.9v1.4h4.9V565.7z M157.3,568.9v-1.5h-4.9v1.5H157.3z M156.3,570.2
		c2.2,0.7,2.8,1.7,2.8,2.3c0,0.3-0.2,0.5-0.4,0.5c-0.1,0-0.2,0-0.3-0.1c-0.3-0.9-1.4-2-2.2-2.6L156.3,570.2z"/>
</g>
<rect x="184" y="520" class="st1" width="28" height="60"/>
<g>
	<rect x="192.1" y="521.3" class="st2" width="11.8" height="57.6"/>
	<path d="M195.3,533.4v2.6c1,0.5,2.2,0.6,4,0.6c1,0,3.2,0,4.3,0v0.2c-0.3,0-0.5,0.3-0.5,0.6h-3.8c-3,0-4.6-0.5-5.7-2.7
		c-0.2,1.1-0.5,2.2-1.1,3l-0.2-0.2c0.7-1.3,0.7-3.7,0.8-5.3l1.1,0.1c0,0.2-0.1,0.2-0.4,0.3c0,0.6-0.1,1.1-0.1,1.7
		c0.3,0.6,0.6,1,1,1.3v-4.6h-2.2l-0.1-0.3h2.2v-2h-1.8l-0.1-0.3h1.9v-1.8l1.3,0.1c0,0.2-0.1,0.3-0.6,0.3v1.4h0.7l0.5-0.7l0.9,0.7
		c-0.1,0.2-0.2,0.3-0.6,0.3h-1.6v2h0.9l0.5-0.7l1,0.7c-0.1,0.2-0.2,0.3-0.6,0.3h-1.5c-0.1,0-0.2,0-0.3,0.1v2.1h0.8l0.5-0.7l0.9,0.7
		c-0.1,0.2-0.2,0.3-0.6,0.3H195.3z M200.4,532.8c-0.6,0.4-1.5,1-2.7,1.7c0,0.1-0.1,0.3-0.2,0.3l-0.7-0.8c0.3-0.1,0.6-0.2,1.1-0.4
		v-5.3l0.9,0.4h1.4c0-0.7-0.1-1.5-0.1-2.2l1.2,0.1c0,0.2-0.1,0.2-0.4,0.3c0,0.6,0,1.2,0,1.8h1.1l0.5-0.7l1,0.7
		c-0.1,0.2-0.3,0.3-0.6,0.3h-2c0.1,1.1,0.2,2.2,0.4,3.2c0.4-0.7,0.6-1.6,0.8-2.4l1.1,0.3c0,0.1-0.2,0.2-0.4,0.2
		c-0.3,1.1-0.7,2-1.3,2.8c0.2,0.7,0.6,1.3,1,1.5c0.1,0,0.1,0.1,0.1,0.1c0.1,0,0.5-0.9,0.6-1.3l0.1,0l-0.2,1.5
		c0.2,0.2,0.3,0.4,0.3,0.6c0,0.1-0.1,0.2-0.3,0.2c-0.2,0-1.3-0.2-2.1-2.1c-0.8,0.9-1.7,1.6-2.8,2.1l-0.1-0.2c1.1-0.6,2-1.5,2.7-2.6
		c-0.3-1.2-0.5-2.7-0.6-4.1h-1.6v4.3l1.7-0.7L200.4,532.8z M201.7,526.6c1.2,0.1,1.6,0.6,1.6,0.9c0,0.2-0.1,0.4-0.3,0.4
		c-0.1,0-0.2,0-0.3-0.1c-0.2-0.4-0.6-0.9-1-1.1L201.7,526.6z"/>
	<path d="M202,540.5l1.1,0.8c-0.1,0.1-0.3,0.2-0.5,0.2v4.7c0,0-0.2,0.3-0.8,0.3v-1.1h-3.5v4c0,0-0.1,0.3-0.8,0.3v-4.3H194v0.9
		c0,0-0.1,0.3-0.8,0.3v-5.9l0.9,0.4h3.3v-2.5l1.3,0.1c0,0.2-0.1,0.3-0.5,0.3v2.1h3.4L202,540.5z M194,545h3.4v-3.7H194V545z
		 M198.2,545h3.5v-3.7h-3.5V545z"/>
	<path d="M202.5,555.1l1,0.7c-0.1,0.2-0.2,0.3-0.6,0.3h-1.9v4.4c0,0.6-0.2,1.1-1.2,1.2c0-0.6-0.3-0.8-1.2-0.8v-0.2h1.5
		c0.2,0,0.2,0,0.2-0.2v-4.3h-4.8c-0.1,2-0.6,4.1-2.9,5.5l-0.2-0.2c1.7-1.5,2.2-3.3,2.2-5.3h-2.4l-0.1-0.3h2.5v-4.1l0.9,0.4h1.4
		c0.1-0.5,0.3-1.2,0.3-1.6l1.4,0.2c0,0.2-0.2,0.3-0.5,0.3c-0.2,0.3-0.5,0.8-0.7,1.1h2.6l0.4-0.5l1.1,0.8c-0.1,0.1-0.3,0.2-0.6,0.3
		v3.2h0.9L202.5,555.1z M195.5,555.8h4.8v-3.4h-4.8V555.8z M196.7,553.1c1.5,0.4,2,1.2,2,1.7c0,0.3-0.2,0.5-0.4,0.5
		c-0.1,0-0.2,0-0.3-0.1c-0.1-0.7-0.8-1.5-1.4-1.9L196.7,553.1z M198.1,560.3c0,0-0.1,0.3-0.7,0.3v-3.9l1.2,0.1
		c0,0.1-0.1,0.2-0.4,0.3V560.3z"/>
	<path d="M194.7,565.6v1.7c1.2,0.5,1.5,1.1,1.5,1.6c0,0.3-0.2,0.5-0.4,0.5c-0.1,0-0.2,0-0.3-0.2c-0.1-0.5-0.5-1.2-0.8-1.7v5.8
		c0,0-0.1,0.3-0.8,0.3V568c-0.4,1-0.9,2-1.6,2.8l-0.2-0.2c0.8-1.4,1.3-3.2,1.6-5h-1.4l-0.1-0.3h1.6v-2.8l1.3,0.1
		c0,0.2-0.1,0.3-0.5,0.3v2.4h0.3l0.5-0.7l1,0.7c-0.1,0.2-0.2,0.3-0.6,0.3H194.7z M203.4,564.8c-0.1,0.2-0.2,0.3-0.6,0.3h-2.1
		c0.7,0.7,1.8,1.3,2.8,1.5v0.1c-0.3,0-0.5,0.3-0.6,0.6c-0.5-0.2-0.9-0.5-1.3-0.8c0,0-0.1,0-0.1,0v1.8c0,0-0.2,0.3-0.7,0.3V568h-2.4
		v0.4c0,0-0.1,0.2-0.7,0.2v-2.3c-0.5,0.4-1.1,0.8-1.8,1.1l-0.1-0.2c0.9-0.5,1.7-1.3,2.2-2.2h-1.8l-0.1-0.3h2
		c0.2-0.3,0.3-0.6,0.4-0.9c-0.7,0.1-1.4,0.1-2.1,0.1l0-0.2c1.8-0.2,4-0.7,5.1-1.2l0.8,0.8c0,0-0.1,0.1-0.2,0.1c-0.1,0-0.2,0-0.4-0.1
		c-0.6,0.1-1.3,0.3-2.1,0.4l0.1,0c0,0.1-0.1,0.2-0.4,0.2c-0.1,0.3-0.3,0.6-0.4,0.9h2.9l0.5-0.7L203.4,564.8z M202,569l0.4-0.5l1,0.7
		c-0.1,0.1-0.3,0.2-0.5,0.2v3.2c0,0.5-0.1,0.9-1.1,1c0-0.5-0.3-0.6-0.9-0.7v-0.2h1.1c0.2,0,0.2,0,0.2-0.2v-3.4h-5.1v4.1
		c0,0-0.1,0.3-0.7,0.3v-5l0.8,0.4H202z M201.5,570.3c-0.1,0.1-0.2,0.2-0.4,0.2v1.7c0,0-0.2,0.3-0.6,0.3V572h-1.8v0.6
		c0,0-0.1,0.2-0.6,0.2v-3l0.7,0.3h1.6l0.3-0.4L201.5,570.3z M200.9,565.8c-0.2-0.2-0.3-0.5-0.5-0.7h-1.6c-0.2,0.3-0.5,0.6-0.7,0.9
		l0.4,0.2h2.2L200.9,565.8z M198.4,567.7h2.4v-1.4h-2.4V567.7z M198.7,571.7h1.8v-1.3h-1.8V571.7z"/>
</g>
<rect x="228" y="520" class="st1" width="28" height="60"/>
<g>
	<rect x="236.1" y="521.3" class="st2" width="11.8" height="57.6"/>
	<path d="M246.3,548l1.2,0.8c-0.1,0.2-0.2,0.3-0.6,0.3h-10.5l-0.1-0.3h4.8v-10.2l1.4,0.1c0,0.2-0.2,0.3-0.6,0.3v3.9h2.8l0.6-0.8
		l1.2,0.8c-0.1,0.2-0.3,0.3-0.6,0.3h-4v5.5h3.8L246.3,548z"/>
	<path d="M246.3,551.8l1.2,0.8c-0.1,0.2-0.2,0.3-0.6,0.3h-4.2c0,0.1-0.1,0.2-0.4,0.2v1.7h3l0.4-0.5l1,0.8c-0.1,0.1-0.3,0.2-0.5,0.2
		v3.9c0,0.6-0.1,0.9-1.3,1.1c0-0.6-0.5-0.7-1.3-0.7v-0.2h1.6c0.2,0,0.3,0,0.3-0.2v-4.1h-3.1v6.2c0,0-0.1,0.3-0.8,0.3v-6.5h-3.1v4.9
		c0,0-0.1,0.3-0.8,0.3v-5.8l0.9,0.4h3v-2h-5.1l-0.1-0.3h5.1v-2l1.4,0.1c0,0.2-0.2,0.3-0.6,0.3v1.6h3.4L246.3,551.8z"/>
</g>
<rect x="272" y="520" class="st1" width="28" height="60"/>
<g>
	<rect x="280.1" y="521.3" class="st2" width="11.8" height="57.6"/>
	<path d="M290,534.5l1.1,0.8c-0.1,0.1-0.3,0.2-0.5,0.2v4.7c0,0-0.2,0.3-0.8,0.3v-1.1h-3.5v4c0,0-0.1,0.3-0.8,0.3v-4.3H282v0.9
		c0,0-0.1,0.3-0.8,0.3v-5.9l0.9,0.4h3.3v-2.5l1.3,0.1c0,0.2-0.1,0.3-0.5,0.3v2.1h3.4L290,534.5z M282,539h3.4v-3.7H282V539z
		 M286.2,539h3.5v-3.7h-3.5V539z"/>
	<path d="M280.3,547.8c1.5,0.2,1.9,0.8,1.9,1.2c0,0.3-0.2,0.5-0.4,0.5c-0.1,0-0.2,0-0.3-0.1c-0.2-0.5-0.7-1.1-1.3-1.4L280.3,547.8z
		 M281,552.3c0.1,0,0.2,0,0.3-0.3c0.1-0.1,0.2-0.4,2.4-5.4l0.2,0.1c-0.5,1.5-1.6,4.4-1.8,5c-0.1,0.4-0.2,0.8-0.2,1.1
		c0,0.5,0.3,1,0.3,1.9c0,0.2,0,1-0.7,1c-0.2,0-0.4-0.2-0.4-0.6c0.1-0.4,0.1-0.9,0.1-1.2c0-1.2-0.3-1.3-0.9-1.3v-0.3
		C280.8,552.3,281,552.3,281,552.3L281,552.3z M280.8,544.7c1.5,0.2,2,0.8,2,1.3c0,0.3-0.2,0.5-0.4,0.5c-0.1,0-0.2,0-0.3-0.1
		c-0.2-0.6-0.8-1.2-1.3-1.5L280.8,544.7z M290.7,547.9l0.8,0.8c-0.1,0.1-0.2,0.1-0.5,0.1c-0.2,0.3-0.6,0.7-0.9,1l-0.2-0.1
		c0.1-0.3,0.2-0.7,0.3-1.1h-5.8c0,1-0.4,1.3-0.8,1.3c-0.2,0-0.4-0.1-0.4-0.4c0-0.1,0-0.2,0.1-0.3c0.4-0.2,0.7-0.7,0.8-1.4l0.2,0
		c0,0.2,0.1,0.4,0.1,0.5h0.6v-3.6l0.9,0.4h2.9l0.4-0.5l1,0.7c-0.1,0.1-0.3,0.2-0.6,0.2v2.8h0.6L290.7,547.9z M289,549.9l0.4-0.5
		l1,0.7c-0.1,0.1-0.3,0.2-0.5,0.2v4.1c0,0.6-0.2,1-1.2,1.1c0-0.7-0.3-0.7-1.3-0.8v-0.2h1.5c0.2,0,0.3,0,0.3-0.2v-1.2h-3.6v2.1
		c0,0-0.1,0.3-0.8,0.3v-6.1l0.8,0.4H289z M289.2,550.2h-3.6v1.2h3.6V550.2z M285.6,553h3.6v-1.3h-3.6V553z M285.8,545.4v3h1.2v-2.1
		l0.8,0.3h1.2v-1.2H285.8z M287.6,546.9v1.5h1.4v-1.5H287.6z"/>
	<path d="M281.8,557.1l1.3,0.1c0,0.2-0.1,0.3-0.5,0.3v3c0,2.4-0.3,5.3-2.1,7.1l-0.2-0.1c1.3-1.9,1.5-4.6,1.5-7V557.1z M285.5,557.7
		l1.3,0.1c0,0.2-0.1,0.3-0.5,0.3v8.2c0,0-0.1,0.3-0.8,0.3V557.7z M289.6,557.1l1.3,0.1c0,0.2-0.1,0.3-0.5,0.3v9.8
		c0,0-0.1,0.3-0.8,0.3V557.1z"/>
</g>
<rect x="316" y="520" class="st1" width="28" height="60"/>
<g>
	<rect x="324.1" y="521.3" class="st2" width="11.8" height="57.6"/>
	<path d="M324.3,541.8c1.5,0.2,1.9,0.8,1.9,1.2c0,0.3-0.2,0.5-0.4,0.5c-0.1,0-0.2,0-0.3-0.1c-0.2-0.5-0.7-1.1-1.3-1.4L324.3,541.8z
		 M325,546.3c0.1,0,0.2,0,0.3-0.3c0.1-0.1,0.2-0.4,2.4-5.4l0.2,0.1c-0.5,1.5-1.6,4.4-1.8,5c-0.1,0.4-0.2,0.8-0.2,1.1
		c0,0.5,0.3,1,0.3,1.9c0,0.2,0,1-0.7,1c-0.2,0-0.4-0.2-0.4-0.6c0.1-0.4,0.1-0.9,0.1-1.2c0-1.2-0.3-1.3-0.9-1.3v-0.3
		C324.8,546.3,325,546.3,325,546.3L325,546.3z M324.8,538.7c1.5,0.2,2,0.8,2,1.3c0,0.3-0.2,0.5-0.4,0.5c-0.1,0-0.2,0-0.3-0.1
		c-0.2-0.6-0.8-1.2-1.3-1.5L324.8,538.7z M334.7,541.9l0.8,0.8c-0.1,0.1-0.2,0.1-0.5,0.1c-0.2,0.3-0.6,0.7-0.9,1l-0.2-0.1
		c0.1-0.3,0.2-0.7,0.3-1.1h-5.8c0,1-0.4,1.3-0.8,1.3c-0.2,0-0.4-0.1-0.4-0.4c0-0.1,0-0.2,0.1-0.3c0.4-0.2,0.7-0.7,0.8-1.4l0.2,0
		c0,0.2,0.1,0.4,0.1,0.5h0.6v-3.6l0.9,0.4h2.9l0.4-0.5l1,0.7c-0.1,0.1-0.3,0.2-0.6,0.2v2.8h0.6L334.7,541.9z M333,543.9l0.4-0.5
		l1,0.7c-0.1,0.1-0.3,0.2-0.5,0.2v4.1c0,0.6-0.2,1-1.2,1.1c0-0.7-0.3-0.7-1.3-0.8v-0.2h1.5c0.2,0,0.3,0,0.3-0.2v-1.2h-3.6v2.1
		c0,0-0.1,0.3-0.8,0.3v-6.1l0.8,0.4H333z M333.2,544.2h-3.6v1.2h3.6V544.2z M329.6,547h3.6v-1.3h-3.6V547z M329.8,539.4v3h1.2v-2.1
		l0.8,0.3h1.2v-1.2H329.8z M331.6,540.9v1.5h1.4v-1.5H331.6z"/>
	<path d="M325.8,551.1l1.3,0.1c0,0.2-0.1,0.3-0.5,0.3v3c0,2.4-0.3,5.3-2.1,7.1l-0.2-0.1c1.3-1.9,1.5-4.6,1.5-7V551.1z M329.5,551.7
		l1.3,0.1c0,0.2-0.1,0.3-0.5,0.3v8.2c0,0-0.1,0.3-0.8,0.3V551.7z M333.6,551.1l1.3,0.1c0,0.2-0.1,0.3-0.5,0.3v9.8
		c0,0-0.1,0.3-0.8,0.3V551.1z"/>
</g>
<rect x="360" y="520" class="st1" width="28" height="60"/>
<g>
	<rect x="368.1" y="521.3" class="st2" width="11.8" height="57.6"/>
	<path d="M379.4,534.3c-0.1,0.2-0.2,0.3-0.6,0.3h-4.6v1.7h3.2l0.4-0.5l1,0.8c-0.1,0.1-0.3,0.2-0.5,0.2v5.8c0,0.6-0.1,1-1.3,1.1
		c0-0.6-0.5-0.7-1.3-0.8v-0.2h1.6c0.2,0,0.3,0,0.3-0.2v-6h-7.4v6.8c0,0-0.1,0.3-0.8,0.3v-7.8l0.9,0.4h3.2v-1.7h-5l-0.1-0.3h5.1v-1.8
		l1.3,0.1c0,0.2-0.2,0.3-0.6,0.3v1.3h3.5l0.6-0.8L379.4,534.3z M377,540.7c-0.1,0.2-0.2,0.3-0.6,0.3h-2.3v2.3c0,0.1-0.3,0.2-0.6,0.2
		h-0.1v-2.5h-2.6l-0.1-0.3h2.6v-1.5H371l-0.1-0.3h3.4c0.3-0.6,0.6-1.4,0.8-2l1.2,0.4c0,0.1-0.1,0.1-0.3,0.1c0,0-0.1,0-0.2,0
		c-0.3,0.4-0.7,1-1.2,1.4h0.9l0.5-0.6l0.9,0.6c-0.1,0.2-0.2,0.3-0.6,0.3h-2.2v1.5h1.3l0.5-0.6L377,540.7z M371.8,536.9
		c1,0.4,1.3,0.9,1.3,1.3c0,0.3-0.2,0.5-0.4,0.5c-0.1,0-0.2,0-0.3-0.2c0-0.5-0.3-1.2-0.6-1.5L371.8,536.9z"/>
	<path d="M378.5,545.4l0.9,0.9c-0.1,0.1-0.2,0.1-0.5,0.1c-0.3,0.4-0.8,1-1.2,1.3l-0.2-0.1c0.1-0.3,0.3-1,0.4-1.4h-8
		c0,1-0.6,1.6-1.2,1.6c-0.2,0-0.4-0.1-0.4-0.3c0-0.2,0.2-0.4,0.3-0.5c0.5-0.2,1-0.9,1-1.7l0.2,0c0.1,0.2,0.1,0.4,0.1,0.6h3.4v-1.5
		l1.3,0.1c0,0.2-0.1,0.3-0.5,0.3v1.1h3.8L378.5,545.4z M377.1,551.5l0.4-0.5l1,0.7c-0.1,0.1-0.3,0.2-0.5,0.3v3.3
		c0,0-0.2,0.3-0.8,0.3V555h-6.7v0.4c0,0-0.1,0.3-0.8,0.3v-4.5l0.9,0.4H377.1z M376.6,546.6l1,0.6c-0.1,0.2-0.2,0.3-0.6,0.3h-6.7
		l-0.1-0.3h5.9L376.6,546.6z M373.5,551.7h-2.9v1.3h2.9V551.7z M370.5,553.3v1.3h2.9v-1.3H370.5z M377,550.6c0,0.1-0.4,0.2-0.7,0.2
		h-0.1v-0.4h-4.6v0.3c0,0-0.1,0.3-0.8,0.3V548l0.8,0.4h4.4l0.3-0.4l1,0.7c-0.1,0.1-0.3,0.2-0.5,0.2V550.6z M371.6,550.1h4.6v-1.4
		h-4.6V550.1z M377.2,551.7h-3v1.3h3V551.7z M374.2,554.7h3v-1.3h-3V554.7z"/>
	<path d="M377.9,559.4l1.3,0.1c0,0.2-0.1,0.3-0.5,0.3v7.3c0,0-0.1,0.3-0.8,0.3v-1.3h-8v1.2c0,0-0.1,0.3-0.8,0.3v-8.1l1.3,0.1
		c0,0.2-0.1,0.3-0.5,0.3v5.9h3.6v-9.1l1.4,0.1c0,0.2-0.2,0.3-0.6,0.3v8.7h3.6V559.4z"/>
</g>
<rect x="52" y="613" class="st1" width="28" height="60"/>
<g>
	<rect x="60.1" y="614.3" class="st2" width="11.8" height="57.6"/>
	<path d="M70.7,621.2l0.9,0.9c-0.1,0.1-0.2,0.1-0.4,0.1c-0.2,0.3-0.7,0.8-1,1.1l-0.2-0.1c0.1-0.3,0.2-0.8,0.3-1.2h-4.1v2.9
		c0,0.1-0.3,0.2-0.6,0.2h-0.1V622h-3.8c0,0.7-0.3,1.4-0.9,1.4c-0.3,0-0.5-0.1-0.5-0.4c0-0.2,0.2-0.4,0.4-0.5
		c0.4-0.2,0.7-0.7,0.6-1.3l0.2,0c0.1,0.2,0.1,0.3,0.1,0.5h3.8v-1.1h-3.9l-0.1-0.3h7.4l0.6-0.7l1.1,0.7c-0.1,0.2-0.2,0.3-0.6,0.3
		h-3.6v1.1h4L70.7,621.2z M64.1,623.7l0.8,0.5c-0.1,0.2-0.2,0.3-0.5,0.3h-2.7l-0.1-0.3h2.1L64.1,623.7z M64.1,622.5l0.8,0.5
		c-0.1,0.2-0.2,0.2-0.5,0.2h-2.4l-0.1-0.3h1.9L64.1,622.5z M71,628.5v1.1c0.4,0.1,0.4,0.2,0.4,0.3c0,0.3-0.3,0.5-1.5,0.5h-3.2
		c-1.1,0-1.4-0.1-1.4-1.1v-0.7h-2.9v0.4c0,0-0.1,0.3-0.8,0.3v-4.1l0.8,0.4h6.4l0.4-0.5l1,0.7c-0.1,0.1-0.3,0.2-0.5,0.2v2.8
		c0,0-0.2,0.3-0.8,0.3v-0.5h-3v0.8c0,0.4,0,0.4,0.6,0.4H70c0.6,0,0.6,0,0.9-1.2H71z M65.5,625.7h-2.9v1.1h2.9V625.7z M62.6,628.2
		h2.9v-1.1h-2.9V628.2z M69.2,625.7h-3v1.1h3V625.7z M66.2,628.2h3v-1.1h-3V628.2z M66.9,624.5l-0.1-0.3H69l0.4-0.5l0.8,0.5
		c-0.1,0.2-0.2,0.3-0.5,0.3H66.9z M69.1,622.5L70,623c-0.1,0.2-0.2,0.2-0.5,0.2h-2.6l-0.1-0.3h2L69.1,622.5z"/>
	<path d="M63.1,640.8c0.6-0.1,1.3-0.2,2-0.3l0,0.2c-1,0.3-2.3,0.7-4.1,1.3c-0.1,0.1-0.2,0.2-0.3,0.3l-0.4-1.1c0.4,0,1.2-0.1,2-0.3
		v-3.7h-1.9l-0.1-0.3h2v-1.8h-1.3l0-0.2c-0.2,0.2-0.4,0.4-0.6,0.5l-0.2-0.1c0.9-1,1.7-2.7,2-3.9l1.3,0.1c0,0.1-0.1,0.2-0.5,0.2
		c1.6,0.7,2.1,1.4,2.1,1.9c0,0.3-0.2,0.5-0.4,0.5c-0.1,0-0.2,0-0.3-0.1c-0.2-0.6-0.7-1.4-1.4-2.1c-0.4,0.9-1.1,2-1.9,2.9h2.4
		l0.5-0.6l0.9,0.7c-0.1,0.2-0.2,0.3-0.6,0.3h-1.3v1.8h0.6l0.5-0.7l1,0.7c-0.1,0.2-0.2,0.3-0.6,0.3h-1.5V640.8z M60.8,637.9
		c0.8,0.7,1,1.4,1,1.9c0,0.4-0.2,0.7-0.4,0.7c-0.1,0-0.2-0.1-0.3-0.2c0.1-0.7-0.2-1.7-0.5-2.3L60.8,637.9z M65.2,638
		c0,0.1-0.1,0.2-0.4,0.2c-0.3,0.7-0.7,1.5-1.1,2l-0.2-0.1c0.2-0.6,0.4-1.6,0.6-2.4L65.2,638z M71.5,637.3c-0.1,0.2-0.2,0.3-0.6,0.3
		h-2.4c0.4,2,1.4,3.5,3,4.2v0.1c-0.4,0.1-0.6,0.4-0.7,0.7c-1.5-1-2.3-2.8-2.6-5.1c-0.4,2.2-1.4,3.8-3.9,5.1l-0.2-0.2
		c2.1-1.3,2.9-2.9,3.3-4.9h-2.3l-0.1-0.3h2.4c0.1-0.9,0.2-1.8,0.2-2.8h-1.4c-0.3,0.8-0.7,1.5-1.1,2l-0.2-0.1c0.5-1,0.9-2.6,1.1-4.2
		l1.2,0.2c0,0.1-0.1,0.2-0.4,0.2c-0.1,0.5-0.3,1.1-0.4,1.6h1.3v-2.6l1.3,0.1c0,0.2-0.1,0.3-0.5,0.3c0,0.8,0,1.5,0,2.2h1l0.5-0.7
		l1,0.7c-0.1,0.2-0.2,0.3-0.6,0.3h-2c0,1-0.1,2-0.2,2.8h1.6l0.5-0.7L71.5,637.3z"/>
	<path d="M69.1,651.1h-6.3v0.2c0,0.1-0.3,0.3-0.6,0.3H62V647c-0.5,0.5-1.1,0.9-1.7,1.2l-0.1-0.2c1.5-1.1,2.9-3,3.6-4.6l1.3,0.4
		c0,0.1-0.1,0.2-0.3,0.2c0,0-0.1,0-0.2,0c-0.2,0.3-0.3,0.6-0.5,0.8h2.9l0.5-0.5l0.9,0.9c-0.1,0.1-0.2,0.1-0.5,0.1
		c-0.4,0.4-1,1-1.5,1.4h2.6l0.4-0.5l1,0.8c-0.1,0.1-0.3,0.2-0.5,0.2v4.1c0,0-0.3,0.3-0.8,0.3V651.1z M62.3,651.9
		c0,0.2,0.1,0.4,0.1,0.6c0,1.3-0.9,2.1-1.6,2.1c-0.3,0-0.4-0.1-0.4-0.4c0-0.2,0.1-0.4,0.3-0.5c0.6-0.3,1.3-1,1.4-1.9H62.3z
		 M66,646.6c0.3-0.5,0.7-1.1,0.9-1.6h-3.1c-0.4,0.5-0.8,1-1.2,1.4l0.4,0.2H66z M65.5,646.9h-2.7v1.8h2.7V646.9z M62.8,649v1.8h2.7
		V649H62.8z M64,651.9c0.8,0.6,1.1,1.3,1.1,1.8c0,0.5-0.3,0.8-0.5,0.8c-0.1,0-0.3-0.1-0.4-0.2c0-0.1,0-0.3,0-0.4
		c0-0.6-0.2-1.3-0.4-1.8L64,651.9z M66.3,651.9c1.3,0.6,1.7,1.4,1.7,1.9c0,0.4-0.2,0.6-0.4,0.6c-0.1,0-0.2-0.1-0.3-0.2
		c-0.1-0.7-0.6-1.7-1.1-2.3L66.3,651.9z M69.1,646.9h-2.8v1.8h2.8V646.9z M66.3,650.8h2.8V649h-2.8V650.8z M68.7,651.8
		c2.1,0.7,2.7,1.7,2.7,2.3c0,0.3-0.2,0.5-0.4,0.5c-0.1,0-0.2,0-0.3-0.1c-0.3-0.9-1.2-2-2-2.6L68.7,651.8z"/>
	<path d="M60.3,658.7c1.4,0.2,1.9,0.8,1.9,1.2c0,0.3-0.2,0.5-0.4,0.5c-0.1,0-0.2,0-0.3-0.1c-0.2-0.5-0.7-1.1-1.2-1.4L60.3,658.7z
		 M61,663.3c0.1,0,0.2,0,0.3-0.3c0-0.1,0.2-0.4,2.3-5.4l0.2,0.1c-0.5,1.5-1.5,4.4-1.7,5c-0.1,0.4-0.2,0.8-0.2,1.1
		c0,0.5,0.3,1,0.3,1.9c0,0.3,0,1-0.6,1c-0.2,0-0.4-0.2-0.4-0.6c0.1-0.5,0.1-0.9,0.1-1.2c0-1.2-0.3-1.3-0.9-1.3v-0.3
		C60.9,663.3,61,663.2,61,663.3L61,663.3z M60.8,655.6c1.5,0.2,1.9,0.9,1.9,1.3c0,0.3-0.2,0.5-0.4,0.5c-0.1,0-0.2,0-0.3-0.1
		c-0.2-0.6-0.8-1.2-1.3-1.5L60.8,655.6z M70.4,663.4l1,0.7c-0.1,0.2-0.2,0.3-0.6,0.3h-3.7v2c0,0-0.1,0.3-0.8,0.3v-2.3h-3.6l-0.1-0.3
		h3.6v-1.5h-3l-0.1-0.3h3.1v-1.4h-2.5l-0.1-0.3h2.6v-1.4h-2.8l-0.1-0.3h2.9v-1.4H64l-0.1-0.3h2.5v-1.7l1.3,0.1
		c0,0.2-0.1,0.3-0.5,0.3v1.2h1.9l0.4-0.5l1,0.7c-0.1,0.1-0.3,0.2-0.5,0.3v1.2H70l0.5-0.7l0.9,0.7c-0.1,0.2-0.2,0.3-0.6,0.3h-1v2
		c0,0-0.3,0.3-0.8,0.3v-0.6h-2v1.4h2.1l0.5-0.7l1,0.7c-0.1,0.2-0.2,0.3-0.6,0.3h-3.1v1.5h2.7L70.4,663.4z M67.2,657.5v1.4h2v-1.4
		H67.2z M67.2,659.1v1.4h2v-1.4H67.2z"/>
</g>
<rect x="96" y="613" class="st1" width="28" height="60"/>
<g>
	<rect x="104.1" y="614.3" class="st2" width="11.8" height="57.6"/>
	<path d="M115.5,626.6c-0.1,0.2-0.2,0.3-0.6,0.3h-3.5v2.5h2.3l0.4-0.5l1,0.8c-0.1,0.1-0.2,0.2-0.5,0.2v6.4c0,0-0.1,0.3-0.8,0.3v-0.8
		H106v0.6c0,0.1-0.3,0.3-0.6,0.3h-0.1V629l0.9,0.4h1.8v-2.5h-3.6l-0.1-0.3h9.4l0.6-0.8L115.5,626.6z M113.7,629.7h-2.4v2.3
		c0,0.4,0,0.4,0.2,0.4h0.8c0.2,0,0.3,0,0.5-0.7h0.1l0,0.7c0.3,0.1,0.3,0.2,0.3,0.3c0,0.3-0.3,0.4-0.9,0.4h-0.9
		c-0.8,0-0.9-0.1-0.9-1.1v-2.3h-1.9c0,1.5-0.3,3.2-2.1,4.3l-0.1-0.2c1.3-1.2,1.5-2.7,1.5-4.2H106v5.8h7.7V629.7z M110.6,629.4v-2.5
		h-1.9v2.5H110.6z"/>
	<path d="M113.1,645.1h-6.3v0.2c0,0.1-0.3,0.3-0.6,0.3H106V641c-0.5,0.5-1.1,0.9-1.7,1.2l-0.1-0.2c1.5-1.1,2.9-3,3.6-4.6l1.3,0.4
		c0,0.1-0.1,0.2-0.3,0.2c0,0-0.1,0-0.2,0c-0.2,0.3-0.3,0.6-0.5,0.8h2.9l0.5-0.5l0.9,0.9c-0.1,0.1-0.2,0.1-0.5,0.1
		c-0.4,0.4-1,1-1.5,1.4h2.6l0.4-0.5l1,0.8c-0.1,0.1-0.3,0.2-0.5,0.2v4.1c0,0-0.3,0.3-0.8,0.3V645.1z M106.3,645.9
		c0,0.2,0.1,0.4,0.1,0.6c0,1.3-0.9,2.1-1.6,2.1c-0.3,0-0.4-0.1-0.4-0.4c0-0.2,0.1-0.4,0.3-0.5c0.6-0.3,1.3-1,1.4-1.9H106.3z
		 M110,640.6c0.3-0.5,0.7-1.1,0.9-1.6h-3.1c-0.4,0.5-0.8,1-1.2,1.4l0.4,0.2H110z M109.5,640.9h-2.7v1.8h2.7V640.9z M106.8,643v1.8
		h2.7V643H106.8z M108,645.9c0.8,0.6,1.1,1.3,1.1,1.8c0,0.5-0.3,0.8-0.5,0.8c-0.1,0-0.3-0.1-0.4-0.2c0-0.1,0-0.3,0-0.4
		c0-0.6-0.2-1.3-0.4-1.8L108,645.9z M110.3,645.9c1.3,0.6,1.7,1.4,1.7,1.9c0,0.4-0.2,0.6-0.4,0.6c-0.1,0-0.2-0.1-0.3-0.2
		c-0.1-0.7-0.6-1.7-1.1-2.3L110.3,645.9z M113.1,640.9h-2.8v1.8h2.8V640.9z M110.3,644.8h2.8V643h-2.8V644.8z M112.7,645.8
		c2.1,0.7,2.7,1.7,2.7,2.3c0,0.3-0.2,0.5-0.4,0.5c-0.1,0-0.2,0-0.3-0.1c-0.3-0.9-1.2-2-2-2.6L112.7,645.8z"/>
	<path d="M104.3,652.7c1.4,0.2,1.9,0.8,1.9,1.2c0,0.3-0.2,0.5-0.4,0.5c-0.1,0-0.2,0-0.3-0.1c-0.2-0.5-0.7-1.1-1.2-1.4L104.3,652.7z
		 M105,657.3c0.1,0,0.2,0,0.3-0.3c0-0.1,0.2-0.4,2.3-5.4l0.2,0.1c-0.5,1.5-1.5,4.4-1.7,5c-0.1,0.4-0.2,0.8-0.2,1.1
		c0,0.5,0.3,1,0.3,1.9c0,0.3,0,1-0.6,1c-0.2,0-0.4-0.2-0.4-0.6c0.1-0.5,0.1-0.9,0.1-1.2c0-1.2-0.3-1.3-0.9-1.3v-0.3
		C104.9,657.3,105,657.2,105,657.3L105,657.3z M104.8,649.6c1.5,0.2,1.9,0.9,1.9,1.3c0,0.3-0.2,0.5-0.4,0.5c-0.1,0-0.2,0-0.3-0.1
		c-0.2-0.6-0.8-1.2-1.3-1.5L104.8,649.6z M114.4,657.4l1,0.7c-0.1,0.2-0.2,0.3-0.6,0.3h-3.7v2c0,0-0.1,0.3-0.8,0.3v-2.3h-3.6
		l-0.1-0.3h3.6v-1.5h-3l-0.1-0.3h3.1v-1.4h-2.5l-0.1-0.3h2.6v-1.4h-2.8l-0.1-0.3h2.9v-1.4H108l-0.1-0.3h2.5v-1.7l1.3,0.1
		c0,0.2-0.1,0.3-0.5,0.3v1.2h1.9l0.4-0.5l1,0.7c-0.1,0.1-0.3,0.2-0.5,0.3v1.2h0.1l0.5-0.7l0.9,0.7c-0.1,0.2-0.2,0.3-0.6,0.3h-1v2
		c0,0-0.3,0.3-0.8,0.3v-0.6h-2v1.4h2.1l0.5-0.7l1,0.7c-0.1,0.2-0.2,0.3-0.6,0.3h-3.1v1.5h2.7L114.4,657.4z M111.2,651.5v1.4h2v-1.4
		H111.2z M111.2,653.1v1.4h2v-1.4H111.2z"/>
</g>
<rect x="140" y="613" class="st1" width="28" height="60"/>
<g>
	<rect x="148.1" y="614.3" class="st2" width="11.8" height="57.6"/>
	<path d="M158.3,634.6l1.1,0.8c-0.1,0.2-0.2,0.3-0.6,0.3h-4.6v2.5h2.3l0.4-0.5l1.1,0.8c-0.1,0.1-0.3,0.2-0.5,0.2v3.7
		c0,0-0.2,0.2-0.8,0.2v-0.7h-5.6v0.5c0,0-0.1,0.3-0.8,0.3v-4.9l0.9,0.4h2.3v-2.5h-5.1l-0.1-0.3h5.1v-2.3c-1.3,0.2-2.8,0.4-4.1,0.4
		l0-0.2c2.7-0.3,5.9-1.1,7.6-1.8l0.9,0.9c0,0-0.1,0.1-0.2,0.1s-0.3,0-0.4-0.1c-0.9,0.2-1.9,0.4-3,0.6v2.4h3.4L158.3,634.6z
		 M156.7,638.4h-5.6v3.2h5.6V638.4z"/>
	<path d="M157.9,646.4l1.3,0.1c0,0.2-0.1,0.3-0.5,0.3v7.3c0,0-0.1,0.3-0.8,0.3v-1.3h-8v1.2c0,0-0.1,0.3-0.8,0.3v-8.1l1.3,0.1
		c0,0.2-0.1,0.3-0.5,0.3v5.9h3.6v-9.1l1.4,0.1c0,0.2-0.2,0.3-0.6,0.3v8.7h3.6V646.4z"/>
</g>
<g>
</g>
<rect x="316" y="706" class="st1" width="28" height="60"/>
<g>
	<rect x="324.1" y="707.3" class="st2" width="11.8" height="57.6"/>
	<path d="M327.5,725.7L327.5,725.7c1.5,0.4,2,1,2,1.5c0,0.3-0.2,0.5-0.4,0.5c-0.1,0-0.2,0-0.3-0.1c-0.2-0.6-0.8-1.3-1.3-1.7v3.5
		c0,0-0.1,0.3-0.8,0.3v-3.4c-0.6,1-1.4,1.8-2.4,2.5l-0.2-0.2c1-1,1.8-2.2,2.2-3.5h-1.9l-0.1-0.3h2.3v-1.6h-2.4l-0.1-0.3h3.3
		c0.2-0.7,0.5-1.6,0.6-2.3l1.2,0.3c0,0.1-0.2,0.2-0.4,0.2c-0.3,0.5-0.7,1.2-1.1,1.8h0.9l0.5-0.7l1,0.7c-0.1,0.2-0.2,0.3-0.6,0.3
		h-1.8c-0.1,0.1-0.2,0.1-0.4,0.1v1.4h1.1l0.5-0.7l0.9,0.7c-0.1,0.2-0.2,0.3-0.6,0.3h-2V725.7z M324.6,720.4l-0.1-0.3h2.3v-1.6
		l1.3,0.1c0,0.2-0.1,0.3-0.5,0.3v1.2h1l0.5-0.7l1,0.7c-0.1,0.2-0.2,0.3-0.6,0.3H324.6z M325.5,720.6c0.8,0.6,1.1,1.2,1.1,1.6
		c0,0.4-0.2,0.6-0.5,0.6c-0.1,0-0.2-0.1-0.3-0.2c0-0.6-0.2-1.5-0.4-2L325.5,720.6z M334.6,722l1.1,0.8c-0.1,0.2-0.2,0.3-0.6,0.3H334
		v6.3c0,0.1-0.3,0.3-0.6,0.3h-0.1V723h-1.8v0.4c0,2.2-0.3,4.6-2.7,6.2l-0.2-0.2c1.8-1.6,2.1-3.7,2.1-6v-4l0.9,0.3
		c1-0.3,2.2-0.9,2.8-1.3l0.9,0.8c0,0.1-0.1,0.1-0.2,0.1s-0.2,0-0.3-0.1c-0.8,0.3-2.1,0.6-3.3,0.8v2.7h2.6L334.6,722z"/>
	<path d="M324.3,738.2h5.2v-1.4h-3.8l-0.1-0.3h3.9v-1.4h-2.8v0.4c0,0-0.1,0.3-0.8,0.3v-5l0.9,0.4h6.2l0.4-0.5l1,0.7
		c-0.1,0.1-0.3,0.2-0.5,0.2v3.6c0,0-0.2,0.3-0.8,0.3v-0.4h-2.9v1.4h2.5l0.6-0.7l1.1,0.7c-0.1,0.2-0.2,0.3-0.6,0.3h-3.6v1.4h3.6
		l0.6-0.7l1.1,0.8c-0.1,0.2-0.2,0.3-0.6,0.3h-10.5L324.3,738.2z M326.2,739.1c0,0.2,0.1,0.4,0.1,0.6c0,1.2-0.8,1.9-1.5,1.9
		c-0.3,0-0.5-0.1-0.5-0.3c0-0.2,0.2-0.4,0.4-0.5c0.6-0.2,1.2-0.9,1.3-1.7H326.2z M329.5,731.5h-2.8v1.5h2.8V731.5z M326.7,734.9h2.8
		v-1.5h-2.8V734.9z M328,739.1c0.7,0.6,1,1.2,1,1.6c0,0.4-0.2,0.7-0.5,0.7c-0.1,0-0.3-0.1-0.4-0.2c0-0.1,0-0.3,0-0.4
		c0-0.6-0.1-1.2-0.3-1.7L328,739.1z M330.3,739.1c1.2,0.6,1.6,1.3,1.6,1.8c0,0.3-0.2,0.6-0.4,0.6c-0.1,0-0.2-0.1-0.4-0.2
		c-0.1-0.7-0.5-1.5-0.9-2.1L330.3,739.1z M333.1,731.5h-2.9v1.5h2.9V731.5z M330.2,734.9h2.9v-1.5h-2.9V734.9z M332.7,739
		c2.1,0.6,2.7,1.6,2.7,2.1c0,0.3-0.2,0.5-0.4,0.5c-0.1,0-0.2,0-0.3-0.1c-0.3-0.8-1.2-1.8-2.1-2.4L332.7,739z"/>
	<path d="M329.4,747.5l0.6-0.7l1,0.7c-0.1,0.2-0.2,0.3-0.6,0.3h-6.1l-0.1-0.3h3.7c0.3-0.8,0.6-1.8,0.8-2.6l1.2,0.4
		c0,0.1-0.2,0.2-0.5,0.2c-0.3,0.6-0.8,1.4-1.3,2H329.4z M324.6,744.6l-0.1-0.3h2.5v-1.8l1.3,0.1c0,0.2-0.1,0.3-0.6,0.3v1.4h1.3
		l0.5-0.7l1,0.7c-0.1,0.2-0.2,0.3-0.6,0.3H324.6z M328.9,749.1l0.4-0.5l1,0.7c-0.1,0.1-0.3,0.2-0.5,0.3v3.2c0,0-0.2,0.3-0.7,0.3
		v-0.7h-3.1v0.9c0,0-0.1,0.3-0.8,0.3v-4.8l0.8,0.4H328.9z M325.5,745c0.9,0.6,1.2,1.2,1.2,1.7c0,0.4-0.2,0.6-0.4,0.6
		c-0.1,0-0.2,0-0.3-0.2c0-0.6-0.3-1.5-0.6-2L325.5,745z M325.9,752.1h3.1v-2.7h-3.1V752.1z M334.7,742.9l0.9,1
		c-0.1,0.1-0.3,0.1-0.6,0.1c-0.4,0.8-1.2,2.3-1.8,3c2.1,1.4,2.2,2.5,2.2,3.1c0,1.2-0.5,1.8-1.8,1.9c0-0.5-0.2-0.6-1-0.7v-0.2h1.2
		c0.6,0,0.7-0.6,0.7-1.1c0-1-0.5-1.9-1.6-2.9c0.3-0.8,0.9-2.3,1.2-3.3H332v9.6c0,0.1-0.3,0.3-0.6,0.3h-0.1v-10.6l0.9,0.4h2
		L334.7,742.9z"/>
</g>
<rect x="52" y="799" class="st1" width="28" height="60"/>
<g>
	<rect x="60.1" y="800.3" class="st2" width="11.8" height="57.6"/>
	<path d="M71.4,820.4c-0.1,0.2-0.2,0.3-0.6,0.3h-4.3c1.1,2.2,3.1,4.1,5.1,5l0,0.1c-0.3,0-0.7,0.3-0.8,0.7c-1.8-1.1-3.5-3.2-4.5-5.7
		v5h1.1l0.6-0.8l1.1,0.8c-0.1,0.2-0.2,0.3-0.6,0.3h-2.2v2.3c0,0-0.1,0.3-0.8,0.3V826h-2.6l-0.1-0.3h2.7v-4.4
		c-1.1,2.1-2.8,3.9-5.1,5.2l-0.1-0.2c2-1.4,3.7-3.6,4.6-5.7h-4.3l-0.1-0.3h5.1v-2.9l1.3,0.1c0,0.2-0.1,0.3-0.5,0.3v2.5h3.4l0.6-0.8
		L71.4,820.4z"/>
	<path d="M70.5,830.4l0.9,0.9c-0.1,0.1-0.2,0.1-0.5,0.1c-0.3,0.4-0.8,0.9-1.3,1.2l-0.2-0.1c0.1-0.3,0.3-0.9,0.5-1.4H62
		c0,0.8-0.5,1.5-1.1,1.5c-0.4,0-0.4-0.2-0.4-0.3c0-0.2,0.1-0.4,0.3-0.5c0.5-0.2,0.9-0.8,0.9-1.5l0.2,0c0.1,0.2,0.1,0.4,0.1,0.5h3.5
		v-1.5l1.4,0.1c0,0.2-0.1,0.3-0.6,0.3v1.1H70L70.5,830.4z M69,836.9l0.4-0.5l1.1,0.8c-0.1,0.1-0.3,0.2-0.6,0.3v2.9
		c0,0-0.2,0.3-0.8,0.3v-0.6h-6.5v0.4c0,0-0.1,0.3-0.8,0.3v-4.2l0.8,0.4h2.4c0.1-0.5,0.2-1.1,0.3-1.6h-1.9v0.3c0,0-0.1,0.3-0.8,0.3
		v-3.6l0.8,0.4h4.6l0.4-0.5l1,0.7c-0.1,0.1-0.3,0.2-0.5,0.2v2.4c0,0-0.2,0.3-0.8,0.3v-0.5h-2c-0.2,0.5-0.5,1.1-0.7,1.6H69z
		 M62.6,839.6h6.5v-2.5h-6.5V839.6z M63.5,835h4.8v-2.1h-4.8V835z"/>
</g>
<rect x="96" y="799" class="st1" width="28" height="60"/>
<rect x="140" y="799" class="st1" width="28" height="60"/>
<g>
	<rect x="148.1" y="800.3" class="st2" width="11.8" height="57.6"/>
	<path d="M151.5,818.7L151.5,818.7c1.5,0.4,2,1,2,1.5c0,0.3-0.2,0.5-0.4,0.5c-0.1,0-0.2,0-0.3-0.1c-0.2-0.6-0.8-1.3-1.3-1.7v3.5
		c0,0-0.1,0.3-0.8,0.3v-3.4c-0.6,1-1.4,1.8-2.4,2.5l-0.2-0.2c1-1,1.8-2.2,2.2-3.5h-1.9l-0.1-0.3h2.3v-1.6h-2.4l-0.1-0.3h3.3
		c0.2-0.7,0.5-1.6,0.6-2.3l1.2,0.3c0,0.1-0.2,0.2-0.4,0.2c-0.3,0.5-0.7,1.2-1.1,1.8h0.9l0.5-0.7l1,0.7c-0.1,0.2-0.2,0.3-0.6,0.3
		h-1.8c-0.1,0.1-0.2,0.1-0.4,0.1v1.4h1.1l0.5-0.7l0.9,0.7c-0.1,0.2-0.2,0.3-0.6,0.3h-2V818.7z M148.6,813.4l-0.1-0.3h2.3v-1.6
		l1.3,0.1c0,0.2-0.1,0.3-0.5,0.3v1.2h1l0.5-0.7l1,0.7c-0.1,0.2-0.2,0.3-0.6,0.3H148.6z M149.5,813.6c0.8,0.6,1.1,1.2,1.1,1.6
		c0,0.4-0.2,0.6-0.5,0.6c-0.1,0-0.2-0.1-0.3-0.2c0-0.6-0.2-1.5-0.4-2L149.5,813.6z M158.6,815l1.1,0.8c-0.1,0.2-0.2,0.3-0.6,0.3H158
		v6.3c0,0.1-0.3,0.3-0.6,0.3h-0.1V816h-1.8v0.4c0,2.2-0.3,4.6-2.7,6.2l-0.2-0.2c1.8-1.6,2.1-3.7,2.1-6v-4l0.9,0.3
		c1-0.3,2.2-0.9,2.8-1.3l0.9,0.8c0,0.1-0.1,0.1-0.2,0.1c-0.1,0-0.2,0-0.3-0.1c-0.8,0.3-2.1,0.6-3.3,0.8v2.7h2.6L158.6,815z"/>
	<path d="M157.1,831.1h-6.3v0.2c0,0.1-0.3,0.3-0.6,0.3H150V827c-0.5,0.5-1.1,0.9-1.7,1.2l-0.1-0.2c1.5-1.1,2.9-3,3.6-4.6l1.3,0.4
		c0,0.1-0.1,0.2-0.3,0.2c0,0-0.1,0-0.2,0c-0.2,0.3-0.3,0.6-0.5,0.8h2.9l0.5-0.5l0.9,0.9c-0.1,0.1-0.2,0.1-0.5,0.1
		c-0.4,0.4-1,1-1.5,1.4h2.6l0.4-0.5l1,0.8c-0.1,0.1-0.3,0.2-0.5,0.2v4.1c0,0-0.3,0.3-0.8,0.3V831.1z M150.3,831.9
		c0,0.2,0.1,0.4,0.1,0.6c0,1.3-0.9,2.1-1.6,2.1c-0.3,0-0.4-0.1-0.4-0.4c0-0.2,0.1-0.4,0.3-0.5c0.6-0.3,1.3-1,1.4-1.9H150.3z
		 M154,826.6c0.3-0.5,0.7-1.1,0.9-1.6h-3.1c-0.4,0.5-0.8,1-1.2,1.4l0.4,0.2H154z M153.5,826.9h-2.7v1.8h2.7V826.9z M150.8,829v1.8
		h2.7V829H150.8z M152,831.9c0.8,0.6,1.1,1.3,1.1,1.8c0,0.5-0.3,0.8-0.5,0.8c-0.1,0-0.3-0.1-0.4-0.2c0-0.1,0-0.3,0-0.4
		c0-0.6-0.2-1.3-0.4-1.8L152,831.9z M154.3,831.9c1.3,0.6,1.7,1.4,1.7,1.9c0,0.4-0.2,0.6-0.4,0.6c-0.1,0-0.2-0.1-0.3-0.2
		c-0.1-0.7-0.6-1.7-1.1-2.3L154.3,831.9z M157.1,826.9h-2.8v1.8h2.8V826.9z M154.3,830.8h2.8V829h-2.8V830.8z M156.7,831.8
		c2.1,0.7,2.7,1.7,2.7,2.3c0,0.3-0.2,0.5-0.4,0.5c-0.1,0-0.2,0-0.3-0.1c-0.3-0.9-1.2-2-2-2.6L156.7,831.8z"/>
	<path d="M148.3,838.7c1.4,0.2,1.9,0.8,1.9,1.2c0,0.3-0.2,0.5-0.4,0.5c-0.1,0-0.2,0-0.3-0.1c-0.2-0.5-0.7-1.1-1.2-1.4L148.3,838.7z
		 M149,843.3c0.1,0,0.2,0,0.3-0.3c0-0.1,0.2-0.4,2.3-5.4l0.2,0.1c-0.5,1.5-1.5,4.4-1.7,5c-0.1,0.4-0.2,0.8-0.2,1.1
		c0,0.5,0.3,1,0.3,1.9c0,0.3,0,1-0.6,1c-0.2,0-0.4-0.2-0.4-0.6c0.1-0.5,0.1-0.9,0.1-1.2c0-1.2-0.3-1.3-0.9-1.3v-0.3
		C148.9,843.3,149,843.2,149,843.3L149,843.3z M148.8,835.6c1.5,0.2,1.9,0.9,1.9,1.3c0,0.3-0.2,0.5-0.4,0.5c-0.1,0-0.2,0-0.3-0.1
		c-0.2-0.6-0.8-1.2-1.3-1.5L148.8,835.6z M158.4,843.4l1,0.7c-0.1,0.2-0.2,0.3-0.6,0.3h-3.7v2c0,0-0.1,0.3-0.8,0.3v-2.3h-3.6
		l-0.1-0.3h3.6v-1.5h-3l-0.1-0.3h3.1v-1.4h-2.5l-0.1-0.3h2.6v-1.4h-2.8l-0.1-0.3h2.9v-1.4H152l-0.1-0.3h2.5v-1.7l1.3,0.1
		c0,0.2-0.1,0.3-0.5,0.3v1.2h1.9l0.4-0.5l1,0.7c-0.1,0.1-0.3,0.2-0.5,0.3v1.2h0.1l0.5-0.7l0.9,0.7c-0.1,0.2-0.2,0.3-0.6,0.3h-1v2
		c0,0-0.3,0.3-0.8,0.3v-0.6h-2v1.4h2.1l0.5-0.7l1,0.7c-0.1,0.2-0.2,0.3-0.6,0.3h-3.1v1.5h2.7L158.4,843.4z M155.2,837.5v1.4h2v-1.4
		H155.2z M155.2,839.1v1.4h2v-1.4H155.2z"/>
</g>
<rect x="354" y="706" class="st1" width="28" height="60"/>
<g>
	<rect x="362.1" y="707.3" class="st2" width="11.8" height="57.6"/>
	<path d="M373.4,709.7c-0.1,0.2-0.2,0.2-0.6,0.2h-4.6v1.6h3.2l0.4-0.5l1,0.7c-0.1,0.1-0.3,0.2-0.5,0.2v5.5c0,0.6-0.1,0.9-1.3,1.1
		c0-0.6-0.5-0.7-1.3-0.8v-0.2h1.6c0.2,0,0.3,0,0.3-0.2v-5.7h-7.4v6.4c0,0-0.1,0.3-0.8,0.3v-7.4l0.9,0.4h3.2v-1.6h-5l-0.1-0.3h5.1
		V708l1.3,0.1c0,0.2-0.2,0.3-0.6,0.3v1.3h3.5l0.6-0.7L373.4,709.7z M371,715.7c-0.1,0.2-0.2,0.2-0.6,0.2h-2.3v2.2
		c0,0.1-0.3,0.2-0.6,0.2h-0.1V716h-2.6l-0.1-0.3h2.6v-1.4H365L365,714h3.4c0.3-0.6,0.6-1.3,0.8-1.9l1.2,0.4c0,0.1-0.1,0.1-0.3,0.1
		c0,0-0.1,0-0.2,0c-0.3,0.4-0.7,0.9-1.2,1.4h0.9l0.5-0.6l0.9,0.6c-0.1,0.2-0.2,0.2-0.6,0.2h-2.2v1.4h1.3l0.5-0.6L371,715.7z
		 M365.8,712.1c1,0.4,1.3,0.9,1.3,1.2c0,0.3-0.2,0.5-0.4,0.5c-0.1,0-0.2,0-0.3-0.2c0-0.5-0.3-1.1-0.6-1.4L365.8,712.1z"/>
	<path d="M372.5,720.2l0.9,0.8c-0.1,0.1-0.2,0.1-0.5,0.1c-0.3,0.4-0.8,0.9-1.2,1.2l-0.2-0.1c0.1-0.3,0.3-0.9,0.4-1.4h-8
		c0,0.9-0.6,1.5-1.2,1.5c-0.2,0-0.4-0.1-0.4-0.3c0-0.2,0.2-0.4,0.3-0.5c0.5-0.2,1-0.8,1-1.6l0.2,0c0.1,0.2,0.1,0.4,0.1,0.6h3.4v-1.4
		l1.3,0.1c0,0.2-0.1,0.2-0.5,0.3v1h3.8L372.5,720.2z M371.1,726l0.4-0.5l1,0.7c-0.1,0.1-0.3,0.2-0.5,0.2v3.1c0,0-0.2,0.2-0.8,0.2
		v-0.5h-6.7v0.4c0,0-0.1,0.3-0.8,0.3v-4.3l0.9,0.4H371.1z M370.6,721.4l1,0.6c-0.1,0.2-0.2,0.2-0.6,0.2h-6.7l-0.1-0.3h5.9
		L370.6,721.4z M367.5,726.3h-2.9v1.2h2.9V726.3z M364.5,727.8v1.3h2.9v-1.3H364.5z M371,725.2c0,0.1-0.4,0.2-0.7,0.2h-0.1V725h-4.6
		v0.2c0,0-0.1,0.2-0.8,0.2v-2.7l0.8,0.4h4.4l0.3-0.4l1,0.7c-0.1,0.1-0.3,0.2-0.5,0.2V725.2z M365.6,724.7h4.6v-1.4h-4.6V724.7z
		 M371.2,726.3h-3v1.2h3V726.3z M368.2,729.1h3v-1.3h-3V729.1z"/>
	<path d="M371.9,733.5l1.3,0.1c0,0.2-0.1,0.3-0.5,0.3v6.9c0,0-0.1,0.3-0.8,0.3v-1.3h-8v1.2c0,0-0.1,0.3-0.8,0.3v-7.7l1.3,0.1
		c0,0.2-0.1,0.3-0.5,0.3v5.6h3.6v-8.7l1.4,0.1c0,0.2-0.2,0.3-0.6,0.3v8.2h3.6V733.5z"/>
	<path d="M362.4,744.1c0.4,0.1,0.7,0.2,0.9,0.4c0.3-0.6,0.6-1.5,0.9-2.3l1.2,0.4c0,0.1-0.1,0.2-0.4,0.2c-0.4,0.6-0.9,1.3-1.4,1.8
		c0.3,0.3,0.5,0.5,0.5,0.8c0,0.3-0.2,0.4-0.4,0.4c-0.1,0-0.2,0-0.3-0.1c-0.1-0.5-0.6-1.2-1.1-1.5L362.4,744.1z M364.1,748.9
		c0,0.1-0.1,0.2-0.4,0.2c-0.3,1-0.7,2-1.2,2.6l-0.2-0.1c0.3-0.7,0.6-1.9,0.7-3L364.1,748.9z M373.5,747.5c-0.3,0-0.6,0.2-0.7,0.6
		c-1.1-0.4-2-0.9-2.7-1.5c-0.8,0.7-1.9,1.3-3.1,1.7l-0.1-0.2c-0.1,0.1-0.2,0.2-0.3,0.2c-0.1,0-0.2,0-0.3-0.2c0-0.2-0.1-0.5-0.2-0.7
		l-0.9,0.2v5c0,0.1-0.3,0.2-0.6,0.2h-0.1v-5.1l-1.3,0.2c-0.1,0.1-0.2,0.2-0.3,0.2l-0.3-0.9c0.3,0,0.7,0,1.1,0
		c0.7-1.1,1.6-2.6,2.1-3.7l1.2,0.5c0,0.1-0.1,0.1-0.3,0.1c-0.1,0-0.1,0-0.2,0c-0.6,0.9-1.6,2.1-2.5,3.1c0.6,0,1.3,0,2.1-0.1
		c-0.2-0.3-0.4-0.7-0.6-0.9l0.1-0.1c1.2,0.5,1.5,1.2,1.5,1.6c0,0.1,0,0.2,0,0.3c1.1-0.5,2-1.1,2.7-1.9c-0.8-0.8-1.4-1.8-1.8-3H367
		l-0.1-0.3h4.7l0.5-0.5l0.9,0.7c-0.1,0.1-0.2,0.1-0.5,0.1c-0.4,1-1.1,1.9-1.9,2.7c0.9,0.6,1.9,1,3,1.3L373.5,747.5z M365.6,748.7
		c0.9,0.6,1.2,1.2,1.2,1.7c0,0.4-0.2,0.6-0.5,0.6c-0.1,0-0.2-0.1-0.3-0.2c0-0.6-0.3-1.5-0.6-2L365.6,748.7z M372.5,751.4l1,0.7
		c-0.1,0.2-0.2,0.2-0.6,0.2h-6.4l-0.1-0.3h3.1v-2.6h-2.2l-0.1-0.3h2.3v-1.9l1.2,0.1c0,0.1-0.1,0.2-0.4,0.3v1.5h1.1l0.5-0.7l1,0.7
		c-0.1,0.2-0.2,0.2-0.6,0.2h-2.1v2.6h1.6L372.5,751.4z M368.1,743.2c0.4,1,1.1,1.8,2,2.5c0.7-0.8,1.2-1.6,1.5-2.5H368.1z"/>
	<path d="M372,755.8l1.1,0.8c-0.1,0.1-0.3,0.2-0.6,0.3v6.8c0,0-0.3,0.3-0.8,0.3v-0.8H364v0.6c0,0-0.1,0.3-0.8,0.3V756l0.9,0.4h3.3
		v-2.8l1.3,0.1c0,0.2-0.2,0.3-0.6,0.3v2.3h3.4L372,755.8z M367.4,756.6H364v3h3.4V756.6z M364,759.9v3.1h3.4v-3.1H364z M371.7,756.6
		h-3.5v3h3.5V756.6z M368.2,763h3.5v-3.1h-3.5V763z"/>
</g>
<rect x="383" y="720" class="st1" width="12" height="32"/>
<g>
	<rect x="383.9" y="720.8" class="st2" width="10" height="30"/>
	<path d="M392.6,724.4l0.9,0.6c-0.1,0.1-0.2,0.2-0.5,0.2h-5.1c-0.3,0.6-0.6,1.2-1,1.7l0.1,0.1h4.6l0.3-0.4l0.9,0.6
		c-0.1,0.1-0.2,0.2-0.4,0.2v2.8c0,0-0.2,0.2-0.7,0.2v-0.6h-4.8v0.5c0,0-0.2,0.2-0.5,0.2h-0.1v-2.8c-0.6,0.6-1.2,1.1-1.9,1.5
		l-0.1-0.2c1.2-1,2.3-2.4,2.8-3.8h-2.8l-0.1-0.2h7.9L392.6,724.4z M385.8,723.8v0.4c0,0-0.1,0.2-0.6,0.2v-2.7l1.1,0.1
		c0,0.1-0.1,0.2-0.4,0.3v1.6h2.7v-2.4l1.1,0.1c0,0.2-0.1,0.2-0.5,0.3v2h2.7v-1.9l1.1,0.1c0,0.1-0.1,0.2-0.4,0.2v2.1
		c0,0-0.1,0.2-0.7,0.2v-0.4H385.8z M391.7,727.3h-4.8v2.3h4.8V727.3z"/>
	<path d="M387.1,738.1h-2v1.1c0,0-0.1,0.2-0.6,0.2v-6.3l1,0.1c0,0.1-0.1,0.2-0.4,0.2v4.4h0.7v-6.5l1,0.1c0,0.2-0.1,0.2-0.4,0.3v6.1
		h0.7v-4.8l1,0.1c0,0.1-0.1,0.2-0.4,0.2v5.3c0,0-0.1,0.2-0.6,0.2V738.1z M392.8,735.9l0.8,0.6c-0.1,0.1-0.2,0.2-0.5,0.2h-1.3v3.5
		c0,0-0.1,0.2-0.6,0.2v-3.8h-1.5c-0.1,1.4-0.7,2.9-2.7,3.8l-0.1-0.1c1.6-0.9,2.1-2.3,2.2-3.6h-1.2l-0.1-0.2h1.3c0-0.2,0-0.4,0-0.5
		v-1.3l1,0.1c0,0.1-0.1,0.2-0.4,0.2v1c0,0.2,0,0.3,0,0.5h1.5v-1.9l1.1,0.1c0,0.1-0.1,0.2-0.4,0.3v1.5h0.5L392.8,735.9z M391.2,732.6
		c1.6,0.5,2.1,1.3,2.1,1.8c0,0.3-0.1,0.4-0.3,0.4c-0.1,0-0.2,0-0.3-0.1c-0.1-0.3-0.2-0.5-0.4-0.8c-1,0.1-2.3,0.3-4,0.5
		c-0.1,0.1-0.2,0.2-0.3,0.2l-0.3-0.8c0.2,0,0.6,0,0.9,0c0.4-0.8,0.8-1.9,1.1-2.6l1,0.4c0,0.1-0.1,0.1-0.3,0.1c0,0-0.1,0-0.1,0
		c-0.3,0.6-0.9,1.4-1.4,2.1c0.9,0,2-0.1,3.1-0.1c-0.3-0.4-0.7-0.8-1.1-1L391.2,732.6z"/>
	<path d="M392.6,743.9l1,0.7c-0.1,0.1-0.2,0.2-0.5,0.2h-8.8l-0.1-0.2h4.3v-1.6h-3.2l-0.1-0.2h3.3v-1.4l1.1,0.1
		c0,0.1-0.1,0.2-0.4,0.3v1.1h2l0.5-0.6l0.9,0.7c-0.1,0.1-0.2,0.2-0.5,0.2h-3v1.6h2.9L392.6,743.9z M391.9,746.4l0.5-0.7l1,0.7
		c-0.1,0.1-0.2,0.2-0.5,0.2H391v2.9c0,0.5-0.1,0.9-1.2,1c0-0.5-0.5-0.6-1.3-0.6v-0.1h1.6c0.2,0,0.3-0.1,0.3-0.2v-2.9h-5.7l-0.1-0.2
		h5.8V745l1.1,0.1c0,0.1-0.1,0.2-0.4,0.3v1.1H391.9z M385.9,747c1.4,0.5,1.9,1.2,1.9,1.7c0,0.3-0.2,0.5-0.4,0.5
		c-0.1,0-0.2,0-0.3-0.1C387,748.4,386.4,747.6,385.9,747L385.9,747z"/>
</g>
<rect x="398" y="699" class="st1" width="20" height="73"/>
<g>
	<rect x="400.8" y="700.1" class="st2" width="14.4" height="70.7"/>
	<path d="M414.7,703.1c-0.1,0.2-0.3,0.3-0.7,0.3h-5.4v2h3.8l0.4-0.6l1.2,0.9c-0.1,0.1-0.3,0.2-0.6,0.3v6.7c0,0.7-0.2,1.1-1.5,1.3
		c0-0.7-0.5-0.8-1.5-0.9v-0.2h1.8c0.2,0,0.3,0,0.3-0.2v-7h-8.6v7.9c0,0-0.1,0.3-0.9,0.3v-9.1l1,0.5h3.7v-2h-5.9l-0.1-0.3h6V701
		l1.6,0.1c0,0.2-0.2,0.3-0.7,0.4v1.6h4l0.7-0.9L414.7,703.1z M411.9,710.5c-0.1,0.2-0.3,0.3-0.7,0.3h-2.6v2.7c0,0.1-0.3,0.3-0.8,0.3
		h-0.1v-2.9h-3l-0.1-0.3h3.1v-1.8h-2.8l-0.1-0.3h4c0.3-0.7,0.7-1.6,0.9-2.3l1.4,0.5c-0.1,0.1-0.2,0.2-0.3,0.2c-0.1,0-0.1,0-0.2,0
		c-0.3,0.5-0.9,1.1-1.4,1.7h1l0.5-0.7l1.1,0.7c-0.1,0.2-0.3,0.3-0.6,0.3h-2.6v1.8h1.5l0.6-0.8L411.9,710.5z M405.7,706.1
		c1.1,0.4,1.5,1.1,1.5,1.5c0,0.3-0.2,0.6-0.5,0.6c-0.1,0-0.3-0.1-0.4-0.2c0-0.6-0.4-1.3-0.8-1.8L405.7,706.1z"/>
	<path d="M413.6,716.1l1.1,1c-0.1,0.1-0.3,0.1-0.5,0.2c-0.3,0.5-0.9,1.1-1.4,1.5l-0.2-0.1c0.2-0.4,0.4-1.1,0.5-1.7h-9.4
		c0,1.1-0.7,1.8-1.4,1.8c-0.2,0-0.5-0.1-0.5-0.4c0-0.2,0.2-0.4,0.4-0.6c0.6-0.3,1.2-1,1.1-1.9l0.3,0c0.1,0.3,0.1,0.5,0.1,0.7h4v-1.8
		l1.5,0.1c0,0.2-0.1,0.3-0.6,0.4v1.3h4.4L413.6,716.1z M412,723.1l0.4-0.6l1.2,0.9c-0.1,0.1-0.3,0.2-0.6,0.3v3.8
		c0,0-0.3,0.3-0.9,0.3v-0.6h-7.8v0.4c0,0-0.1,0.3-0.9,0.3v-5.3l1,0.4H412z M411.4,717.4l1.1,0.8c-0.1,0.2-0.3,0.3-0.7,0.3h-7.8
		l-0.1-0.3h6.8L411.4,717.4z M407.7,723.5h-3.4v1.5h3.4V723.5z M404.3,725.3v1.6h3.4v-1.6H404.3z M411.8,722.1
		c0,0.1-0.5,0.3-0.8,0.3h-0.1v-0.5h-5.4v0.3c0,0-0.2,0.3-0.9,0.3v-3.4l1,0.4h5.2l0.4-0.5l1.2,0.8c-0.1,0.1-0.3,0.2-0.5,0.3V722.1z
		 M405.5,721.6h5.4v-1.7h-5.4V721.6z M412.1,723.5h-3.5v1.5h3.5V723.5z M408.6,726.9h3.5v-1.6h-3.5V726.9z"/>
	<path d="M412.8,732.4l1.5,0.1c0,0.2-0.2,0.3-0.6,0.4v8.5c0,0-0.1,0.4-0.9,0.4v-1.6h-9.3v1.5c0,0-0.1,0.3-0.9,0.3v-9.5l1.5,0.1
		c0,0.2-0.2,0.3-0.6,0.3v6.9h4.2v-10.6l1.6,0.1c0,0.2-0.2,0.3-0.7,0.4v10.1h4.2V732.4z"/>
	<path d="M401.8,745.3c0.4,0.1,0.8,0.3,1.1,0.4c0.3-0.8,0.7-1.8,1-2.8l1.4,0.5c-0.1,0.2-0.2,0.2-0.5,0.2c-0.5,0.8-1.1,1.6-1.6,2.2
		c0.4,0.3,0.5,0.7,0.5,0.9c0,0.3-0.2,0.5-0.5,0.5c-0.1,0-0.2,0-0.4-0.1c-0.1-0.6-0.7-1.4-1.2-1.8L401.8,745.3z M403.8,751.3
		c0,0.2-0.1,0.3-0.4,0.3c-0.3,1.2-0.8,2.5-1.4,3.3l-0.2-0.1c0.4-0.9,0.7-2.3,0.9-3.7L403.8,751.3z M414.7,749.5
		c-0.4,0-0.7,0.3-0.8,0.7c-1.2-0.5-2.3-1.1-3.2-1.9c-1,0.9-2.2,1.6-3.6,2.1l-0.1-0.2c-0.1,0.2-0.2,0.3-0.4,0.3
		c-0.1,0-0.3-0.1-0.4-0.2c0-0.3-0.1-0.6-0.2-0.9l-1.1,0.2v6.1c0,0.1-0.3,0.3-0.7,0.3H404v-6.2l-1.6,0.3c-0.1,0.2-0.2,0.3-0.4,0.3
		l-0.4-1.1c0.3,0,0.8,0,1.3,0c0.8-1.4,1.8-3.2,2.5-4.6l1.4,0.6c-0.1,0.1-0.2,0.2-0.3,0.2c-0.1,0-0.2,0-0.3,0
		c-0.7,1.1-1.8,2.6-2.9,3.8c0.7,0,1.5-0.1,2.4-0.1c-0.2-0.4-0.4-0.8-0.7-1.1l0.1-0.1c1.3,0.7,1.8,1.4,1.8,1.9c0,0.1,0,0.2-0.1,0.3
		c1.2-0.6,2.3-1.4,3.2-2.3c-1-1-1.7-2.2-2.1-3.6h-1l-0.1-0.3h5.4l0.6-0.6l1,0.9c-0.1,0.1-0.3,0.2-0.6,0.2c-0.5,1.2-1.2,2.3-2.2,3.3
		c1,0.7,2.2,1.2,3.5,1.6L414.7,749.5z M405.6,751.1c1.1,0.7,1.5,1.5,1.5,2c0,0.4-0.3,0.8-0.5,0.8c-0.1,0-0.3-0.1-0.4-0.2
		c0-0.8-0.3-1.8-0.7-2.5L405.6,751.1z M413.5,754.3l1.2,0.9c-0.1,0.2-0.3,0.3-0.7,0.3h-7.5l-0.1-0.3h3.6V752h-2.6l-0.1-0.3h2.7v-2.3
		l1.4,0.1c0,0.2-0.1,0.3-0.5,0.3v1.9h1.2l0.6-0.8l1.2,0.9c-0.1,0.2-0.3,0.3-0.7,0.3h-2.4v3.2h1.8L413.5,754.3z M408.4,744.2
		c0.5,1.2,1.3,2.3,2.3,3.1c0.8-0.9,1.4-2,1.8-3.1H408.4z"/>
	<path d="M413,759.8l1.3,1c-0.1,0.2-0.4,0.3-0.7,0.4v8.4c0,0-0.3,0.3-0.9,0.3v-0.9h-9v0.7c0,0-0.1,0.4-0.9,0.4v-10l1,0.5h3.9V757
		l1.6,0.1c0,0.2-0.2,0.3-0.7,0.4v2.9h3.9L413,759.8z M407.7,760.8h-4v3.6h4V760.8z M403.7,764.7v3.9h4v-3.9H403.7z M412.7,760.8
		h-4.1v3.6h4.1V760.8z M408.6,768.6h4.1v-3.9h-4.1V768.6z"/>
</g>
<rect x="398" y="421" class="st1" width="20" height="73"/>
<g>
	<rect x="400.8" y="422.1" class="st2" width="14.4" height="70.7"/>
	<path d="M413.4,433.8l1.4,1c-0.1,0.2-0.3,0.3-0.7,0.3h-12.3l-0.1-0.3h6v-2.3h-4.6l-0.1-0.3h4.7v-2l1.5,0.1c0,0.2-0.2,0.3-0.6,0.4
		v1.6h2.8l0.7-0.9l1.3,0.9c-0.1,0.2-0.3,0.3-0.7,0.3h-4.1v2.3h4L413.4,433.8z M412.4,437.2l0.7-0.9l1.3,1c-0.1,0.2-0.3,0.3-0.7,0.3
		h-2.6v4c0,0.7-0.2,1.3-1.7,1.4c0-0.7-0.7-0.8-1.9-0.9v-0.2h2.2c0.3,0,0.4-0.1,0.4-0.3v-4h-8l-0.1-0.3h8.1v-2l1.5,0.1
		c0,0.2-0.1,0.3-0.6,0.4v1.5H412.4z M404,438.2c2,0.7,2.6,1.7,2.6,2.3c0,0.4-0.2,0.7-0.5,0.7c-0.1,0-0.3-0.1-0.4-0.2
		c-0.2-0.9-1-2.1-1.8-2.7L404,438.2z"/>
	<path d="M413,445.2l1.2,0.9c-0.1,0.1-0.3,0.2-0.6,0.3v9.9c0,0-0.3,0.4-0.9,0.4v-1.1h-9v0.8c0,0-0.1,0.4-0.9,0.4v-11.4l1,0.5h8.8
		L413,445.2z M407.7,446.1h-4v4.3h4V446.1z M403.7,450.8v4.4h4v-4.4H403.7z M412.7,446.1h-4.1v4.3h4.1V446.1z M408.6,455.2h4.1v-4.4
		h-4.1V455.2z"/>
	<path d="M401.8,460.3c0.4,0.1,0.8,0.3,1.1,0.4c0.3-0.8,0.7-1.8,1-2.8l1.4,0.5c-0.1,0.2-0.2,0.2-0.5,0.2c-0.5,0.8-1.1,1.6-1.6,2.2
		c0.4,0.3,0.5,0.7,0.5,0.9c0,0.3-0.2,0.5-0.5,0.5c-0.1,0-0.2,0-0.4-0.1c-0.1-0.6-0.7-1.4-1.2-1.8L401.8,460.3z M403.8,466.3
		c0,0.2-0.1,0.3-0.4,0.3c-0.3,1.2-0.8,2.5-1.4,3.2l-0.2-0.1c0.4-0.9,0.7-2.3,0.9-3.7L403.8,466.3z M414.7,464.5
		c-0.4,0-0.7,0.3-0.8,0.7c-1.2-0.5-2.3-1.1-3.2-1.9c-1,0.9-2.2,1.6-3.6,2.1l-0.1-0.2c-0.1,0.2-0.2,0.3-0.4,0.3
		c-0.1,0-0.3-0.1-0.4-0.2c0-0.3-0.1-0.6-0.2-0.9l-1.1,0.2v6.1c0,0.1-0.3,0.3-0.7,0.3H404v-6.2l-1.6,0.3c-0.1,0.2-0.2,0.3-0.4,0.3
		l-0.4-1.1c0.3,0,0.8,0,1.3,0c0.8-1.4,1.8-3.2,2.5-4.6l1.4,0.6c-0.1,0.1-0.2,0.2-0.3,0.2c-0.1,0-0.2,0-0.3,0
		c-0.7,1.1-1.8,2.6-2.9,3.8c0.7,0,1.5-0.1,2.4-0.1c-0.2-0.4-0.4-0.8-0.7-1.1l0.1-0.1c1.3,0.7,1.8,1.4,1.8,1.9c0,0.1,0,0.2-0.1,0.3
		c1.2-0.6,2.3-1.4,3.2-2.3c-1-1-1.7-2.2-2.1-3.6h-1l-0.1-0.3h5.4l0.6-0.6l1,0.9c-0.1,0.1-0.3,0.2-0.6,0.2c-0.5,1.2-1.2,2.3-2.2,3.3
		c1,0.7,2.2,1.2,3.5,1.6L414.7,464.5z M405.6,466.1c1.1,0.7,1.5,1.5,1.5,2c0,0.4-0.3,0.8-0.5,0.8c-0.1,0-0.3-0.1-0.4-0.2
		c0-0.8-0.3-1.8-0.7-2.5L405.6,466.1z M413.5,469.3l1.2,0.9c-0.1,0.2-0.3,0.3-0.7,0.3h-7.5l-0.1-0.3h3.6V467h-2.6l-0.1-0.3h2.7v-2.3
		l1.4,0.1c0,0.2-0.1,0.3-0.5,0.3v1.9h1.2l0.6-0.8l1.2,0.9c-0.1,0.2-0.3,0.3-0.7,0.3h-2.4v3.2h1.8L413.5,469.3z M408.4,459.2
		c0.5,1.2,1.3,2.3,2.3,3.1c0.8-0.9,1.4-2,1.8-3.1H408.4z"/>
	<path d="M413,474.8l1.3,1c-0.1,0.2-0.4,0.3-0.7,0.4v8.4c0,0-0.3,0.3-0.9,0.3v-0.9h-9v0.7c0,0-0.1,0.4-0.9,0.4v-10l1,0.5h3.9V472
		l1.6,0.1c0,0.2-0.2,0.3-0.7,0.4v2.9h3.9L413,474.8z M407.7,475.8h-4v3.6h4V475.8z M403.7,479.7v3.9h4v-3.9H403.7z M412.7,475.8
		h-4.1v3.6h4.1V475.8z M408.6,483.6h4.1v-3.9h-4.1V483.6z"/>
</g>
<rect x="360" y="298" class="st1" width="28" height="60"/>
<rect x="140" y="298" class="st1" width="28" height="60"/>
<g>
	<rect x="147.1" y="299.3" class="st2" width="13.9" height="57.6"/>
	<path d="M150.8,321.4l2.2-0.5l0,0.2c-0.6,0.3-1.4,0.6-2.3,0.9v5.1c0,0-0.1,0.4-0.9,0.4v-5.2c-0.5,0.2-1.1,0.4-1.7,0.6
		c-0.1,0.2-0.2,0.3-0.3,0.3l-0.5-1.2c0.5-0.1,1.4-0.3,2.5-0.5v-3.4h-1.3c-0.2,0.9-0.5,1.8-0.9,2.5l-0.2-0.1c0.4-1.2,0.6-3.2,0.6-5
		l1.3,0.2c0,0.2-0.1,0.3-0.4,0.3c-0.1,0.6-0.2,1.2-0.3,1.8h1.2v-3.4l1.5,0.1c0,0.2-0.2,0.3-0.6,0.4v2.9h0.5l0.6-0.9l1.2,0.9
		c-0.1,0.2-0.3,0.3-0.7,0.3h-1.6V321.4z M159.4,318.5l1.2,0.9c-0.1,0.2-0.3,0.3-0.7,0.3h-7.8l-0.1-0.3h3.5V317h-2.7l-0.1-0.3h2.8
		v-2.1l1.6,0.1c0,0.2-0.2,0.3-0.7,0.4v1.6h1.6l0.6-0.8l1.2,0.9c-0.1,0.2-0.3,0.3-0.7,0.3h-2.8v2.3h2.3L159.4,318.5z M158.7,321.8
		l0.6-0.8l1.2,0.9c-0.1,0.2-0.3,0.3-0.7,0.3H158v4c0,0.8-0.2,1.3-1.5,1.4c0-0.7-0.5-0.8-1.6-0.9v-0.2h1.8c0.3,0,0.3-0.1,0.3-0.3v-4
		h-4.9l-0.1-0.3h5V320l1.5,0.1c0,0.2-0.1,0.3-0.6,0.4v1.4H158.7z M153,322.8c1.6,0.6,2.1,1.5,2.1,2c0,0.4-0.2,0.7-0.5,0.7
		c-0.1,0-0.3-0.1-0.4-0.2c-0.1-0.8-0.7-1.8-1.3-2.4L153,322.8z"/>
	<path d="M149.8,337.7c0.1,0.3,0.1,0.5,0.1,0.7c0,1.5-1.1,2.4-1.9,2.4c-0.4,0-0.5-0.2-0.5-0.4c0-0.2,0.2-0.4,0.4-0.5
		c0.8-0.3,1.6-1,1.7-2.2H149.8z M157.7,332.2h-8.3c-0.5,0.4-1.1,0.9-1.7,1.2l-0.2-0.2c1.5-1.1,2.9-3,3.6-4.7l1.5,0.4
		c-0.1,0.2-0.2,0.2-0.5,0.2c-0.1,0.2-0.3,0.5-0.4,0.7h3.8l0.6-0.6l1.1,1c-0.1,0.1-0.3,0.1-0.5,0.1c-0.4,0.4-1.1,1.1-1.6,1.5h2.7
		l0.4-0.6l1.2,0.9c-0.1,0.1-0.3,0.2-0.6,0.3v4c0,0-0.3,0.3-0.9,0.3v-0.6h-8.8l-0.1-0.3h8.9v-1.7h-8.3l-0.1-0.3h8.4V332.2z
		 M154.5,331.8c0.3-0.5,0.7-1.2,0.9-1.7h-4c-0.4,0.6-1,1.2-1.6,1.7H154.5z M156.8,338.8l0,1.6c0.4,0.1,0.5,0.2,0.5,0.3
		c0,0.4-0.4,0.5-1.7,0.5h-3.1c-1.2,0-1.5-0.2-1.5-1.1v-2.8l1.4,0.1c0,0.2-0.1,0.2-0.5,0.3v2.4c0,0.3,0,0.3,0.6,0.3h3.1
		c0.3,0,0.4,0,0.5-0.2c0.1-0.2,0.3-0.8,0.5-1.5H156.8z M152.3,336.5c2.2,0.2,2.9,1.1,2.9,1.7c0,0.3-0.2,0.5-0.4,0.5
		c-0.1,0-0.2,0-0.3-0.1c-0.4-0.7-1.4-1.6-2.2-1.9L152.3,336.5z M157.2,337.5c2.5,0.7,3.2,1.9,3.2,2.6c0,0.4-0.2,0.7-0.5,0.7
		c-0.1,0-0.3,0-0.4-0.2c-0.2-1.1-1.4-2.4-2.4-3L157.2,337.5z"/>
</g>
<g>
</g>
<g>
</g>
<g>
</g>
<g>
</g>
<g>
</g>
<g>
</g>
<g>
</g>
<g>
</g>
<g>
</g>
<g>
</g>
<g>
</g>
<g>
</g>
<g>
</g>
<g>
</g>
<g>
</g>
<g>
</g>
<g>
</g>
<g>
</g>
</svg>
