<?xml version="1.0" encoding="utf-8"?>
<!-- Generator: Adobe Illustrator 16.0.0, SVG Export Plug-In . SVG Version: 6.00 Build 0)  -->
<!DOCTYPE svg PUBLIC "-//W3C//DTD SVG 1.1//EN" "http://www.w3.org/Graphics/SVG/1.1/DTD/svg11.dtd">
<svg version="1.1" id="レイヤー_1" xmlns="http://www.w3.org/2000/svg" xmlns:xlink="http://www.w3.org/1999/xlink" x="0px"
	 y="0px" width="946px" height="48.6px" viewBox="0 0 946 48.6" style="enable-background:new 0 0 946 48.6;" xml:space="preserve">
<style type="text/css">
<![CDATA[
	.st0{fill:#FFFFFF;stroke:#0000FF;stroke-miterlimit:10;}
	.st1{fill:#BBBBBB;}
	.st2{fill:#2B95FF;}
	.st3{fill:#FF0000;}
	.st4{fill:none;stroke:#000000;stroke-miterlimit:10;}
	.st5{fill:none;}
	.st6{fill:#BBEEEE;stroke:#000000;stroke-miterlimit:10;}
	.st7{fill:#0000FF;}
	.st8{fill:#99EE99;stroke:#000000;stroke-miterlimit:10;}
]]>
</style>
<rect x="0.5" y="18.1" class="st6" width="90" height="30"/>
<rect x="9" y="11.6" class="st3" width="11" height="6"/>
<rect x="95.5" y="18.1" class="st6" width="90" height="30"/>
<rect x="190.5" y="18.1" class="st8" width="90" height="30"/>
<g>
	<rect x="95.3" y="24.6" class="st5" width="62.1" height="17.2"/>
	<path d="M107.4,33.3v-0.1c-1.4-0.8-2.1-1.7-2.1-3c0-1,0.4-1.8,1.2-2.5s1.8-1,3.1-1c1.3,0,2.3,0.3,3.1,0.9s1.2,1.4,1.2,2.4
		c0,0.6-0.2,1.2-0.6,1.8s-0.9,1-1.6,1.3v0.1c1.7,0.7,2.6,1.8,2.6,3.3c0,1.1-0.4,2.1-1.3,2.8s-2,1.1-3.3,1.1c-1.4,0-2.5-0.4-3.4-1.1
		s-1.3-1.7-1.3-2.8C104.9,35.2,105.7,34.1,107.4,33.3z M108.4,33.7c-1.2,0.7-1.9,1.7-1.9,3c0,0.8,0.3,1.5,0.8,2.1s1.3,0.8,2.2,0.8
		c0.9,0,1.6-0.2,2.1-0.7s0.8-1.1,0.8-1.9c0-0.5-0.1-1-0.4-1.3s-0.6-0.6-1.1-0.8S109.7,34.1,108.4,33.7z M112.2,30.2
		c0-0.6-0.2-1.2-0.7-1.6s-1.1-0.6-2-0.6c-0.8,0-1.4,0.2-1.9,0.6s-0.7,0.9-0.7,1.5c0,0.7,0.3,1.2,0.9,1.7s1.5,0.8,2.8,1.2
		C111.7,32.3,112.2,31.3,112.2,30.2z"/>
	<path d="M125.3,29l-5.9,11.4h-1.8l6.3-11.8h-7.6v-1.4h9V29z"/>
	<path d="M128.5,40.4v-1.6h0.1c0.5,0.2,1.1,0.4,1.7,0.4c2.7,0,4.2-1.6,4.5-4.7c-1.2,0.7-2.3,1.1-3.2,1.1c-1.3,0-2.4-0.4-3.2-1.1
		s-1.2-1.8-1.2-3c0-1.3,0.4-2.4,1.3-3.3s1.9-1.3,3.2-1.3c1.5,0,2.6,0.5,3.5,1.5s1.3,2.5,1.3,4.6c0,2.4-0.6,4.3-1.7,5.7s-2.7,2-4.8,2
		C129.4,40.6,128.9,40.6,128.5,40.4z M134.8,33.4l0-0.8c0-1.4-0.3-2.5-0.8-3.3s-1.3-1.1-2.3-1.1c-0.9,0-1.6,0.3-2.1,0.8
		s-0.8,1.3-0.8,2.3c0,0.8,0.2,1.5,0.7,2.1s1.3,0.8,2.4,0.8C132.8,34.2,133.8,34,134.8,33.4z"/>
	<path d="M147.7,29l-5.9,11.4H140l6.3-11.8h-7.6v-1.4h9V29z"/>
</g>
<rect x="152.5" y="25.1" class="st0" width="31" height="17"/>
<g>
	<rect x="152.2" y="26.4" class="st5" width="31.1" height="14.4"/>
	<path class="st7" d="M154.7,37.9l-0.3-0.8c1.3-0.3,2.6-0.7,4-1.3l0.2,0.7C157.7,36.9,156.4,37.4,154.7,37.9z M156.7,39.5l-0.1-0.9
		h1.3c0.6,0,1-0.3,1.1-0.8c0.1-0.5,0.2-1.8,0.2-3.7v-0.9H155l0.3-3.2h3.6v-1.5h-4v-0.8h5v3.1h-3.7l-0.2,1.7h4.1v2
		c0,0.7,0,1.4-0.1,2.1c0,0.7-0.1,1.2-0.2,1.6c-0.1,0.4-0.2,0.7-0.3,0.8c-0.1,0.1-0.3,0.3-0.5,0.4c-0.2,0.1-0.5,0.2-0.8,0.2H156.7z
		 M156.7,35.7l-1.4-1.7l0.8-0.5l1.4,1.6L156.7,35.7z M160.9,37.9l-0.3-0.8c1.4-0.4,2.8-0.8,4-1.3l0.2,0.8c-0.4,0.2-1,0.4-1.9,0.7
		C162.2,37.6,161.5,37.8,160.9,37.9z M162.9,39.5l-0.1-0.9h1.3c0.6,0,1-0.3,1.1-0.8c0.1-0.5,0.2-1.8,0.2-3.7v-0.9h-4.2l0.3-3.2h3.7
		v-1.5h-4v-0.8h5.1v3.1h-3.7l-0.2,1.7h4.2v1.4c0,1.4,0,2.5-0.1,3.2c-0.1,0.7-0.2,1.2-0.2,1.5c-0.1,0.3-0.3,0.6-0.6,0.7
		c-0.3,0.2-0.7,0.3-1,0.3H162.9z M163,35.7l-1.4-1.7l0.8-0.5l1.4,1.6L163,35.7z"/>
	<path class="st2" d="M169.1,38.4l-1-0.6c0.3-0.5,0.7-1.2,1.2-2.1c0.4-0.9,0.8-1.7,1-2.4l0.9,0.4c-0.2,0.7-0.6,1.5-1,2.5
		S169.4,38,169.1,38.4z M170.3,30.8c-0.6-0.8-1.2-1.6-1.9-2.3l0.9-0.6c0.6,0.6,1.3,1.3,1.9,2.2L170.3,30.8z M176.7,27.1
		c0.5,0.9,1.3,1.7,2.2,2.4s1.8,1.3,2.6,1.7l-0.7,0.8c-0.8-0.4-1.7-1.1-2.7-1.8c-0.9-0.8-1.7-1.6-2.2-2.3c-0.5,0.8-1.2,1.6-2.1,2.4
		c-0.9,0.8-1.8,1.4-2.6,1.8l-0.5-0.7c0.8-0.4,1.6-1,2.4-1.8s1.6-1.6,2.1-2.5H176.7z M174.6,39.6v-5.3H172v-0.9h8.3v4
		c0,0.3-0.1,0.6-0.4,0.8c-0.2,0.2-0.5,0.3-0.9,0.3h-1.7l-0.1-0.9h1.4c0.2,0,0.3-0.1,0.4-0.2c0.1-0.1,0.2-0.2,0.2-0.4v-2.8h-3.5v5.3
		H174.6z M173.3,31.8v-0.8h5.8v0.8H173.3z"/>
</g>
<g>
	<rect x="190.1" y="24.6" class="st5" width="90.3" height="17.2"/>
	<path d="M216.3,33.3v-0.1c-1.4-0.8-2.1-1.7-2.1-3c0-1,0.4-1.8,1.2-2.5s1.8-1,3.1-1c1.3,0,2.3,0.3,3.1,0.9s1.2,1.4,1.2,2.4
		c0,0.6-0.2,1.2-0.6,1.8s-0.9,1-1.6,1.3v0.1c1.7,0.7,2.6,1.8,2.6,3.3c0,1.1-0.4,2.1-1.3,2.8s-2,1.1-3.3,1.1c-1.4,0-2.5-0.4-3.4-1.1
		s-1.3-1.7-1.3-2.8C213.8,35.2,214.6,34.1,216.3,33.3z M217.3,33.7c-1.2,0.7-1.9,1.7-1.9,3c0,0.8,0.3,1.5,0.8,2.1s1.3,0.8,2.2,0.8
		c0.9,0,1.6-0.2,2.1-0.7s0.8-1.1,0.8-1.9c0-0.5-0.1-1-0.4-1.3s-0.6-0.6-1.1-0.8S218.7,34.1,217.3,33.7z M221.1,30.2
		c0-0.6-0.2-1.2-0.7-1.6s-1.1-0.6-2-0.6c-0.8,0-1.4,0.2-1.9,0.6s-0.7,0.9-0.7,1.5c0,0.7,0.3,1.2,0.9,1.7s1.5,0.8,2.8,1.2
		C220.6,32.3,221.1,31.3,221.1,30.2z"/>
	<path d="M226.2,40.4v-1.6h0.1c0.5,0.2,1.1,0.4,1.7,0.4c2.7,0,4.2-1.6,4.5-4.7c-1.2,0.7-2.3,1.1-3.2,1.1c-1.3,0-2.4-0.4-3.2-1.1
		s-1.2-1.8-1.2-3c0-1.3,0.4-2.4,1.3-3.3s1.9-1.3,3.2-1.3c1.5,0,2.6,0.5,3.5,1.5s1.3,2.5,1.3,4.6c0,2.4-0.6,4.3-1.7,5.7s-2.7,2-4.8,2
		C227.1,40.6,226.6,40.6,226.2,40.4z M232.5,33.4l0-0.8c0-1.4-0.3-2.5-0.8-3.3s-1.3-1.1-2.3-1.1c-0.9,0-1.6,0.3-2.1,0.8
		s-0.8,1.3-0.8,2.3c0,0.8,0.2,1.5,0.7,2.1s1.3,0.8,2.4,0.8C230.6,34.2,231.5,34,232.5,33.4z"/>
	<path d="M245.4,29l-5.9,11.4h-1.8l6.3-11.8h-7.6v-1.4h9V29z"/>
	<path d="M247.7,39.8V38h0.1c1.2,0.8,2.4,1.2,3.7,1.2c0.9,0,1.7-0.3,2.3-0.8s0.8-1.2,0.8-2.1c0-0.8-0.2-1.5-0.7-1.9
		s-1.3-0.6-2.4-0.6h-0.8v-1.4h0.6c0.9,0,1.7-0.2,2.2-0.6s0.8-1,0.8-1.7c0-0.6-0.2-1.1-0.7-1.4s-1.1-0.5-1.9-0.5
		c-1.2,0-2.4,0.4-3.5,1.2h-0.1v-1.7c1.2-0.6,2.4-0.8,3.7-0.8c1.4,0,2.4,0.3,3.2,0.9s1.1,1.3,1.1,2.3c0,0.7-0.2,1.4-0.7,1.9
		s-1.1,0.9-1.9,1.1v0.1c1.9,0.3,2.9,1.5,2.9,3.3c0,1.2-0.4,2.2-1.3,3s-2,1.2-3.4,1.2C250.3,40.6,249,40.4,247.7,39.8z"/>
</g>
<g>
	<rect x="0.2" y="24.6" class="st5" width="90.3" height="17.2"/>
	<path d="M26.4,33.3v-0.1c-1.4-0.8-2.1-1.7-2.1-3c0-1,0.4-1.8,1.2-2.5s1.8-1,3.1-1c1.3,0,2.3,0.3,3.1,0.9s1.2,1.4,1.2,2.4
		c0,0.6-0.2,1.2-0.6,1.8s-0.9,1-1.6,1.3v0.1c1.7,0.7,2.6,1.8,2.6,3.3c0,1.1-0.4,2.1-1.3,2.8s-2,1.1-3.3,1.1c-1.4,0-2.5-0.4-3.4-1.1
		s-1.3-1.7-1.3-2.8C23.9,35.2,24.7,34.1,26.4,33.3z M27.4,33.7c-1.2,0.7-1.9,1.7-1.9,3c0,0.8,0.3,1.5,0.8,2.1s1.3,0.8,2.2,0.8
		c0.9,0,1.6-0.2,2.1-0.7s0.8-1.1,0.8-1.9c0-0.5-0.1-1-0.4-1.3s-0.6-0.6-1.1-0.8S28.7,34.1,27.4,33.7z M31.2,30.2
		c0-0.6-0.2-1.2-0.7-1.6s-1.1-0.6-2-0.6c-0.8,0-1.4,0.2-1.9,0.6s-0.7,0.9-0.7,1.5c0,0.7,0.3,1.2,0.9,1.7s1.5,0.8,2.8,1.2
		C30.7,32.3,31.2,31.3,31.2,30.2z"/>
	<path d="M43.2,27.1v1.6h-0.1c-0.5-0.2-1.1-0.4-1.7-0.4c-1.3,0-2.3,0.4-3.1,1.2s-1.2,2-1.4,3.4c1.1-0.7,2.2-1,3.2-1
		c1.3,0,2.3,0.4,3.1,1.1s1.2,1.7,1.2,3.1c0,1.3-0.4,2.4-1.3,3.3s-1.9,1.3-3.2,1.3c-1.5,0-2.7-0.5-3.5-1.6s-1.2-2.5-1.2-4.5
		c0-2.4,0.6-4.3,1.7-5.7s2.7-2,4.8-2C42.3,26.9,42.8,26.9,43.2,27.1z M36.9,34.1c0,0.5,0,0.8,0,0.9c0,1.4,0.3,2.5,0.8,3.2
		s1.3,1.1,2.3,1.1c0.9,0,1.6-0.3,2.1-0.8s0.8-1.3,0.8-2.3c0-0.8-0.2-1.5-0.7-2s-1.3-0.8-2.4-0.8C38.8,33.3,37.8,33.6,36.9,34.1z"/>
	<path d="M46.7,39.8V38h0.1c1.2,0.8,2.4,1.2,3.7,1.2c0.9,0,1.7-0.3,2.3-0.8s0.8-1.2,0.8-2.1c0-0.8-0.2-1.5-0.7-1.9s-1.3-0.6-2.4-0.6
		h-0.8v-1.4h0.6c0.9,0,1.7-0.2,2.2-0.6s0.8-1,0.8-1.7c0-0.6-0.2-1.1-0.7-1.4s-1.1-0.5-1.9-0.5c-1.2,0-2.4,0.4-3.5,1.2H47v-1.7
		c1.2-0.6,2.4-0.8,3.7-0.8c1.4,0,2.4,0.3,3.2,0.9S55,29,55,30c0,0.7-0.2,1.4-0.7,1.9s-1.1,0.9-1.9,1.1v0.1c1.9,0.3,2.9,1.5,2.9,3.3
		c0,1.2-0.4,2.2-1.3,3s-2,1.2-3.4,1.2C49.2,40.6,47.9,40.4,46.7,39.8z"/>
	<path d="M66.7,29l-5.9,11.4H59l6.3-11.8h-7.6v-1.4h9V29z"/>
</g>
<line class="st4" x1="104.7" y1="9.8" x2="97.7" y2="13.8"/>
<line class="st4" x1="104.7" y1="9.8" x2="111.5" y2="13.8"/>
<line class="st4" x1="111.5" y1="13.8" x2="106.4" y2="16.8"/>
<line class="st4" x1="97.7" y1="13.8" x2="102.9" y2="16.8"/>
<rect x="75" y="11.6" class="st1" width="11" height="6"/>
<rect x="53" y="11.6" class="st1" width="11" height="6"/>
<rect x="31" y="11.6" class="st1" width="11" height="6"/>
<rect x="126" y="11.6" class="st1" width="11" height="6"/>
<rect x="148" y="11.6" class="st1" width="11" height="6"/>
<rect x="170" y="11.6" class="st1" width="11" height="6"/>
<rect x="114" y="11.6" class="st1" width="11" height="6"/>
<rect x="199" y="11.6" class="st1" width="11" height="6"/>
<rect x="221" y="11.6" class="st1" width="11" height="6"/>
<rect x="243" y="11.6" class="st1" width="11" height="6"/>
<rect x="265" y="11.6" class="st3" width="11" height="6"/>
<rect x="285.5" y="18.1" class="st6" width="90" height="30"/>
<rect x="294" y="11.6" class="st3" width="11" height="6"/>
<rect x="380.5" y="18.1" class="st6" width="90" height="30"/>
<g>
	<rect x="285.2" y="24.6" class="st5" width="90.3" height="17.2"/>
	<path d="M313.6,40.6c-1.6,0-2.7-0.6-3.4-1.7s-1.1-2.9-1.1-5.2s0.4-4.1,1.1-5.2s1.9-1.7,3.4-1.7c1.5,0,2.7,0.6,3.4,1.7
		s1.1,2.9,1.1,5.2c0,2.4-0.4,4.1-1.1,5.2S315.1,40.6,313.6,40.6z M313.6,28.2c-1,0-1.7,0.4-2.2,1.2s-0.7,2.2-0.7,4.4
		c0,2.1,0.2,3.5,0.7,4.3s1.2,1.2,2.2,1.2s1.7-0.4,2.2-1.2s0.7-2.3,0.7-4.4c0-2.1-0.2-3.5-0.7-4.3S314.6,28.2,313.6,28.2z"/>
	<path d="M322.5,33.3v-0.1c-1.4-0.8-2.1-1.7-2.1-3c0-1,0.4-1.8,1.2-2.5s1.8-1,3.1-1c1.3,0,2.3,0.3,3.1,0.9s1.2,1.4,1.2,2.4
		c0,0.6-0.2,1.2-0.6,1.8s-0.9,1-1.6,1.3v0.1c1.7,0.7,2.6,1.8,2.6,3.3c0,1.1-0.4,2.1-1.3,2.8s-2,1.1-3.3,1.1c-1.4,0-2.5-0.4-3.4-1.1
		s-1.3-1.7-1.3-2.8C320.1,35.2,320.9,34.1,322.5,33.3z M323.6,33.7c-1.2,0.7-1.9,1.7-1.9,3c0,0.8,0.3,1.5,0.8,2.1s1.3,0.8,2.2,0.8
		c0.9,0,1.6-0.2,2.1-0.7s0.8-1.1,0.8-1.9c0-0.5-0.1-1-0.4-1.3s-0.6-0.6-1.1-0.8S324.9,34.1,323.6,33.7z M327.4,30.2
		c0-0.6-0.2-1.2-0.7-1.6s-1.1-0.6-2-0.6c-0.8,0-1.4,0.2-1.9,0.6s-0.7,0.9-0.7,1.5c0,0.7,0.3,1.2,0.9,1.7s1.5,0.8,2.8,1.2
		C326.9,32.3,327.4,31.3,327.4,30.2z"/>
	<path d="M335.9,40.6c-1.6,0-2.7-0.6-3.4-1.7s-1.1-2.9-1.1-5.2s0.4-4.1,1.1-5.2s1.9-1.7,3.4-1.7c1.5,0,2.7,0.6,3.4,1.7
		s1.1,2.9,1.1,5.2c0,2.4-0.4,4.1-1.1,5.2S337.5,40.6,335.9,40.6z M335.9,28.2c-1,0-1.7,0.4-2.2,1.2s-0.7,2.2-0.7,4.4
		c0,2.1,0.2,3.5,0.7,4.3s1.2,1.2,2.2,1.2s1.7-0.4,2.2-1.2s0.7-2.3,0.7-4.4c0-2.1-0.2-3.5-0.7-4.3S336.9,28.2,335.9,28.2z"/>
	<path d="M350.9,40.4h-7v-1.2h2.8V30h-2.8V29c1.1,0,1.8-0.2,2.3-0.5s0.7-0.8,0.8-1.4h1.2v12.1h2.7V40.4z"/>
</g>
<line class="st4" x1="389.7" y1="9.8" x2="382.7" y2="13.8"/>
<line class="st4" x1="389.7" y1="9.8" x2="396.5" y2="13.8"/>
<line class="st4" x1="396.5" y1="13.8" x2="391.4" y2="16.8"/>
<line class="st4" x1="382.7" y1="13.8" x2="387.9" y2="16.8"/>
<rect x="360" y="11.6" class="st3" width="11" height="6"/>
<rect x="338" y="11.6" class="st1" width="11" height="6"/>
<rect x="316" y="11.6" class="st1" width="11" height="6"/>
<rect x="411" y="11.6" class="st1" width="11" height="6"/>
<rect x="433" y="11.6" class="st1" width="11" height="6"/>
<rect x="455" y="11.6" class="st3" width="11" height="6"/>
<rect x="399" y="11.6" class="st3" width="11" height="6"/>
<g>
	<rect x="380.3" y="24.6" class="st5" width="90.3" height="17.2"/>
	<path d="M406.5,33.3v-0.1c-1.4-0.8-2.1-1.7-2.1-3c0-1,0.4-1.8,1.2-2.5s1.8-1,3.1-1c1.3,0,2.3,0.3,3.1,0.9s1.2,1.4,1.2,2.4
		c0,0.6-0.2,1.2-0.6,1.8c-0.4,0.6-0.9,1-1.6,1.3v0.1c1.7,0.7,2.6,1.8,2.6,3.3c0,1.1-0.4,2.1-1.3,2.8s-2,1.1-3.3,1.1
		c-1.4,0-2.5-0.4-3.4-1.1s-1.3-1.7-1.3-2.8C404.1,35.2,404.9,34.1,406.5,33.3z M407.6,33.7c-1.2,0.7-1.9,1.7-1.9,3
		c0,0.8,0.3,1.5,0.8,2.1s1.3,0.8,2.2,0.8c0.9,0,1.6-0.2,2.1-0.7s0.8-1.1,0.8-1.9c0-0.5-0.1-1-0.4-1.3s-0.6-0.6-1.1-0.8
		C409.8,34.5,408.9,34.1,407.6,33.7z M411.4,30.2c0-0.6-0.2-1.2-0.7-1.6s-1.1-0.6-2-0.6c-0.8,0-1.4,0.2-1.9,0.6
		c-0.5,0.4-0.7,0.9-0.7,1.5c0,0.7,0.3,1.2,0.9,1.7s1.5,0.8,2.8,1.2C410.9,32.3,411.4,31.3,411.4,30.2z"/>
	<path d="M424.5,29l-5.9,11.4h-1.8l6.3-11.8h-7.6v-1.4h9V29z"/>
	<path d="M427.6,40.4v-1.6h0.1c0.5,0.2,1.1,0.4,1.7,0.4c2.7,0,4.2-1.6,4.5-4.7c-1.2,0.7-2.3,1.1-3.2,1.1c-1.3,0-2.4-0.4-3.2-1.1
		c-0.8-0.7-1.2-1.8-1.2-3c0-1.3,0.4-2.4,1.3-3.3s1.9-1.3,3.2-1.3c1.5,0,2.6,0.5,3.5,1.5c0.8,1,1.3,2.5,1.3,4.6
		c0,2.4-0.6,4.3-1.7,5.7s-2.7,2-4.8,2C428.6,40.6,428.1,40.6,427.6,40.4z M433.9,33.4l0-0.8c0-1.4-0.3-2.5-0.8-3.3s-1.3-1.1-2.3-1.1
		c-0.9,0-1.6,0.3-2.1,0.8s-0.8,1.3-0.8,2.3c0,0.8,0.2,1.5,0.7,2.1s1.3,0.8,2.4,0.8C432,34.2,432.9,34,433.9,33.4z"/>
	<path d="M440.1,33.3v-0.1c-1.4-0.8-2.1-1.7-2.1-3c0-1,0.4-1.8,1.2-2.5s1.8-1,3.1-1c1.3,0,2.3,0.3,3.1,0.9s1.2,1.4,1.2,2.4
		c0,0.6-0.2,1.2-0.6,1.8c-0.4,0.6-0.9,1-1.6,1.3v0.1c1.7,0.7,2.6,1.8,2.6,3.3c0,1.1-0.4,2.1-1.3,2.8s-2,1.1-3.3,1.1
		c-1.4,0-2.5-0.4-3.4-1.1s-1.3-1.7-1.3-2.8C437.6,35.2,438.4,34.1,440.1,33.3z M441.1,33.7c-1.2,0.7-1.9,1.7-1.9,3
		c0,0.8,0.3,1.5,0.8,2.1s1.3,0.8,2.2,0.8c0.9,0,1.6-0.2,2.1-0.7s0.8-1.1,0.8-1.9c0-0.5-0.1-1-0.4-1.3s-0.6-0.6-1.1-0.8
		C443.3,34.5,442.5,34.1,441.1,33.7z M444.9,30.2c0-0.6-0.2-1.2-0.7-1.6s-1.1-0.6-2-0.6c-0.8,0-1.4,0.2-1.9,0.6
		c-0.5,0.4-0.7,0.9-0.7,1.5c0,0.7,0.3,1.2,0.9,1.7s1.5,0.8,2.8,1.2C444.4,32.3,444.9,31.3,444.9,30.2z"/>
</g>
<rect x="475.5" y="18.1" class="st6" width="90" height="30"/>
<rect x="484" y="11.6" class="st3" width="11" height="6"/>
<rect x="570.5" y="18.1" class="st6" width="90" height="30"/>
<g>
	<rect x="475.2" y="24.6" class="st5" width="90.3" height="17.2"/>
	<path d="M503.6,40.6c-1.6,0-2.7-0.6-3.4-1.7s-1.1-2.9-1.1-5.2s0.4-4.1,1.1-5.2c0.7-1.1,1.9-1.7,3.4-1.7c1.5,0,2.7,0.6,3.4,1.7
		s1.1,2.9,1.1,5.2c0,2.4-0.4,4.1-1.1,5.2S505.1,40.6,503.6,40.6z M503.6,28.2c-1,0-1.7,0.4-2.2,1.2s-0.7,2.2-0.7,4.4
		c0,2.1,0.2,3.5,0.7,4.3s1.2,1.2,2.2,1.2s1.7-0.4,2.2-1.2c0.4-0.8,0.7-2.3,0.7-4.4c0-2.1-0.2-3.5-0.7-4.3S504.6,28.2,503.6,28.2z"/>
	<path d="M512.5,33.3v-0.1c-1.4-0.8-2.1-1.7-2.1-3c0-1,0.4-1.8,1.2-2.5s1.8-1,3.1-1c1.3,0,2.3,0.3,3.1,0.9s1.2,1.4,1.2,2.4
		c0,0.6-0.2,1.2-0.6,1.8c-0.4,0.6-0.9,1-1.6,1.3v0.1c1.7,0.7,2.6,1.8,2.6,3.3c0,1.1-0.4,2.1-1.3,2.8s-2,1.1-3.3,1.1
		c-1.4,0-2.5-0.4-3.4-1.1s-1.3-1.7-1.3-2.8C510.1,35.2,510.9,34.1,512.5,33.3z M513.6,33.7c-1.2,0.7-1.9,1.7-1.9,3
		c0,0.8,0.3,1.5,0.8,2.1s1.3,0.8,2.2,0.8c0.9,0,1.6-0.2,2.1-0.7s0.8-1.1,0.8-1.9c0-0.5-0.1-1-0.4-1.3s-0.6-0.6-1.1-0.8
		C515.8,34.5,514.9,34.1,513.6,33.7z M517.4,30.2c0-0.6-0.2-1.2-0.7-1.6s-1.1-0.6-2-0.6c-0.8,0-1.4,0.2-1.9,0.6
		c-0.5,0.4-0.7,0.9-0.7,1.5c0,0.7,0.3,1.2,0.9,1.7s1.5,0.8,2.8,1.2C516.9,32.3,517.4,31.3,517.4,30.2z"/>
	<path d="M525.9,40.6c-1.6,0-2.7-0.6-3.4-1.7s-1.1-2.9-1.1-5.2s0.4-4.1,1.1-5.2c0.7-1.1,1.9-1.7,3.4-1.7c1.5,0,2.7,0.6,3.4,1.7
		s1.1,2.9,1.1,5.2c0,2.4-0.4,4.1-1.1,5.2S527.5,40.6,525.9,40.6z M525.9,28.2c-1,0-1.7,0.4-2.2,1.2s-0.7,2.2-0.7,4.4
		c0,2.1,0.2,3.5,0.7,4.3s1.2,1.2,2.2,1.2s1.7-0.4,2.2-1.2c0.4-0.8,0.7-2.3,0.7-4.4c0-2.1-0.2-3.5-0.7-4.3S526.9,28.2,525.9,28.2z"/>
	<path d="M534.9,33.3v-0.1c-1.4-0.8-2.1-1.7-2.1-3c0-1,0.4-1.8,1.2-2.5s1.8-1,3.1-1c1.3,0,2.3,0.3,3.1,0.9s1.2,1.4,1.2,2.4
		c0,0.6-0.2,1.2-0.6,1.8c-0.4,0.6-0.9,1-1.6,1.3v0.1c1.7,0.7,2.6,1.8,2.6,3.3c0,1.1-0.4,2.1-1.3,2.8s-2,1.1-3.3,1.1
		c-1.4,0-2.5-0.4-3.4-1.1s-1.3-1.7-1.3-2.8C532.4,35.2,533.3,34.1,534.9,33.3z M536,33.7c-1.2,0.7-1.9,1.7-1.9,3
		c0,0.8,0.3,1.5,0.8,2.1s1.3,0.8,2.2,0.8c0.9,0,1.6-0.2,2.1-0.7s0.8-1.1,0.8-1.9c0-0.5-0.1-1-0.4-1.3s-0.6-0.6-1.1-0.8
		C538.2,34.5,537.3,34.1,536,33.7z M539.8,30.2c0-0.6-0.2-1.2-0.7-1.6s-1.1-0.6-2-0.6c-0.8,0-1.4,0.2-1.9,0.6
		c-0.5,0.4-0.7,0.9-0.7,1.5c0,0.7,0.3,1.2,0.9,1.7s1.5,0.8,2.8,1.2C539.2,32.3,539.8,31.3,539.8,30.2z"/>
</g>
<line class="st4" x1="579.7" y1="9.8" x2="572.7" y2="13.8"/>
<line class="st4" x1="579.7" y1="9.8" x2="586.5" y2="13.8"/>
<line class="st4" x1="586.5" y1="13.8" x2="581.4" y2="16.8"/>
<line class="st4" x1="572.7" y1="13.8" x2="577.9" y2="16.8"/>
<rect x="550" y="11.6" class="st1" width="11" height="6"/>
<rect x="528" y="11.6" width="11" height="6"/>
<rect x="506" y="11.6" class="st1" width="11" height="6"/>
<rect x="601" y="11.6" class="st1" width="11" height="6"/>
<rect x="623" y="11.6" class="st1" width="11" height="6"/>
<rect x="645" y="11.6" class="st3" width="11" height="6"/>
<rect x="589" y="11.6" class="st3" width="11" height="6"/>
<g>
	<rect x="570.3" y="24.6" class="st5" width="90.3" height="17.2"/>
	<path d="M598.7,40.6c-1.6,0-2.7-0.6-3.4-1.7s-1.1-2.9-1.1-5.2s0.4-4.1,1.1-5.2c0.7-1.1,1.9-1.7,3.4-1.7c1.5,0,2.7,0.6,3.4,1.7
		s1.1,2.9,1.1,5.2c0,2.4-0.4,4.1-1.1,5.2S600.3,40.6,598.7,40.6z M598.7,28.2c-1,0-1.7,0.4-2.2,1.2s-0.7,2.2-0.7,4.4
		c0,2.1,0.2,3.5,0.7,4.3s1.2,1.2,2.2,1.2s1.7-0.4,2.2-1.2c0.4-0.8,0.7-2.3,0.7-4.4c0-2.1-0.2-3.5-0.7-4.3S599.7,28.2,598.7,28.2z"/>
	<path d="M614.5,29l-5.9,11.4h-1.8l6.3-11.8h-7.6v-1.4h9V29z"/>
	<path d="M624.9,40.4h-7v-1.2h2.8V30h-2.8V29c1.1,0,1.8-0.2,2.3-0.5s0.7-0.8,0.8-1.4h1.2v12.1h2.7V40.4z"/>
	<path d="M636.1,40.4h-7v-1.2h2.8V30H629V29c1.1,0,1.8-0.2,2.3-0.5s0.7-0.8,0.8-1.4h1.2v12.1h2.7V40.4z"/>
</g>
<rect x="665.5" y="18.1" class="st8" width="90" height="30"/>
<g>
	<rect x="665.1" y="24.6" class="st5" width="90.3" height="17.2"/>
	<path d="M691.3,33.3v-0.1c-1.4-0.8-2.1-1.7-2.1-3c0-1,0.4-1.8,1.2-2.5s1.8-1,3.1-1c1.3,0,2.3,0.3,3.1,0.9s1.2,1.4,1.2,2.4
		c0,0.6-0.2,1.2-0.6,1.8c-0.4,0.6-0.9,1-1.6,1.3v0.1c1.7,0.7,2.6,1.8,2.6,3.3c0,1.1-0.4,2.1-1.3,2.8s-2,1.1-3.3,1.1
		c-1.4,0-2.5-0.4-3.4-1.1s-1.3-1.7-1.3-2.8C688.8,35.2,689.6,34.1,691.3,33.3z M692.3,33.7c-1.2,0.7-1.9,1.7-1.9,3
		c0,0.8,0.3,1.5,0.8,2.1s1.3,0.8,2.2,0.8c0.9,0,1.6-0.2,2.1-0.7s0.8-1.1,0.8-1.9c0-0.5-0.1-1-0.4-1.3s-0.6-0.6-1-0.8
		C694.5,34.5,693.7,34.1,692.3,33.7z M696.1,30.2c0-0.6-0.2-1.2-0.7-1.6s-1.1-0.6-2-0.6c-0.8,0-1.4,0.2-1.9,0.6
		c-0.5,0.4-0.7,0.9-0.7,1.5c0,0.7,0.3,1.2,0.9,1.7s1.5,0.8,2.8,1.2C695.6,32.3,696.1,31.3,696.1,30.2z"/>
	<path d="M701.2,40.4v-1.6h0.1c0.5,0.2,1.1,0.4,1.7,0.4c2.7,0,4.2-1.6,4.5-4.7c-1.2,0.7-2.3,1.1-3.2,1.1c-1.3,0-2.4-0.4-3.2-1.1
		c-0.8-0.7-1.2-1.8-1.2-3c0-1.3,0.4-2.4,1.3-3.3s1.9-1.3,3.2-1.3c1.5,0,2.6,0.5,3.5,1.5c0.8,1,1.3,2.5,1.3,4.6
		c0,2.4-0.6,4.3-1.7,5.7s-2.7,2-4.8,2C702.1,40.6,701.6,40.6,701.2,40.4z M707.5,33.4l0-0.8c0-1.4-0.3-2.5-0.8-3.3s-1.3-1.1-2.3-1.1
		c-0.9,0-1.6,0.3-2.1,0.8s-0.8,1.3-0.8,2.3c0,0.8,0.2,1.5,0.7,2.1s1.3,0.8,2.4,0.8C705.6,34.2,706.5,34,707.5,33.4z"/>
	<path d="M713.6,33.3v-0.1c-1.4-0.8-2.1-1.7-2.1-3c0-1,0.4-1.8,1.2-2.5s1.8-1,3.1-1c1.3,0,2.3,0.3,3.1,0.9s1.2,1.4,1.2,2.4
		c0,0.6-0.2,1.2-0.6,1.8c-0.4,0.6-0.9,1-1.6,1.3v0.1c1.7,0.7,2.6,1.8,2.6,3.3c0,1.1-0.4,2.1-1.3,2.8s-2,1.1-3.3,1.1
		c-1.4,0-2.5-0.4-3.4-1.1s-1.3-1.7-1.3-2.8C711.2,35.2,712,34.1,713.6,33.3z M714.7,33.7c-1.2,0.7-1.9,1.7-1.9,3
		c0,0.8,0.3,1.5,0.8,2.1s1.3,0.8,2.2,0.8c0.9,0,1.6-0.2,2.1-0.7s0.8-1.1,0.8-1.9c0-0.5-0.1-1-0.4-1.3s-0.6-0.6-1-0.8
		C716.9,34.5,716,34.1,714.7,33.7z M718.5,30.2c0-0.6-0.2-1.2-0.7-1.6s-1.1-0.6-2-0.6c-0.8,0-1.4,0.2-1.9,0.6
		c-0.5,0.4-0.7,0.9-0.7,1.5c0,0.7,0.3,1.2,0.9,1.7s1.5,0.8,2.8,1.2C718,32.3,718.5,31.3,718.5,30.2z"/>
	<path d="M727,40.6c-1.6,0-2.7-0.6-3.4-1.7s-1.1-2.9-1.1-5.2s0.4-4.1,1.1-5.2c0.7-1.1,1.9-1.7,3.4-1.7c1.5,0,2.7,0.6,3.4,1.7
		s1.1,2.9,1.1,5.2c0,2.4-0.4,4.1-1.1,5.2S728.6,40.6,727,40.6z M727,28.2c-1,0-1.7,0.4-2.2,1.2s-0.7,2.2-0.7,4.4
		c0,2.1,0.2,3.5,0.7,4.3s1.2,1.2,2.2,1.2s1.7-0.4,2.2-1.2c0.4-0.8,0.7-2.3,0.7-4.4c0-2.1-0.2-3.5-0.7-4.3S728,28.2,727,28.2z"/>
</g>
<rect x="674" y="11.6" class="st3" width="11" height="6"/>
<rect x="696" y="11.6" width="11" height="6"/>
<rect x="718" y="11.6" width="11" height="6"/>
<rect x="740" y="11.6" class="st3" width="11" height="6"/>
<rect x="760.5" y="18.1" class="st6" width="90" height="30"/>
<rect x="769" y="11.6" class="st1" width="11" height="6"/>
<rect x="855.5" y="18.1" class="st6" width="90" height="30"/>
<g>
	<rect x="760.2" y="24.6" class="st5" width="90.3" height="17.2"/>
	<path d="M788.6,40.6c-1.6,0-2.7-0.6-3.4-1.7s-1.1-2.9-1.1-5.2s0.4-4.1,1.1-5.2c0.7-1.1,1.9-1.7,3.4-1.7c1.5,0,2.7,0.6,3.4,1.7
		s1.1,2.9,1.1,5.2c0,2.4-0.4,4.1-1.1,5.2S790.1,40.6,788.6,40.6z M788.6,28.2c-1,0-1.7,0.4-2.2,1.2s-0.7,2.2-0.7,4.4
		c0,2.1,0.2,3.5,0.7,4.3s1.2,1.2,2.2,1.2s1.7-0.4,2.2-1.2c0.4-0.8,0.7-2.3,0.7-4.4c0-2.1-0.2-3.5-0.7-4.3S789.6,28.2,788.6,28.2z"/>
	<path d="M797.5,33.3v-0.1c-1.4-0.8-2.1-1.7-2.1-3c0-1,0.4-1.8,1.2-2.5s1.8-1,3.1-1c1.3,0,2.3,0.3,3.1,0.9s1.2,1.4,1.2,2.4
		c0,0.6-0.2,1.2-0.6,1.8c-0.4,0.6-0.9,1-1.6,1.3v0.1c1.7,0.7,2.6,1.8,2.6,3.3c0,1.1-0.4,2.1-1.3,2.8s-2,1.1-3.3,1.1
		c-1.4,0-2.5-0.4-3.4-1.1s-1.3-1.7-1.3-2.8C795.1,35.2,795.9,34.1,797.5,33.3z M798.6,33.7c-1.2,0.7-1.9,1.7-1.9,3
		c0,0.8,0.3,1.5,0.8,2.1s1.3,0.8,2.2,0.8c0.9,0,1.6-0.2,2.1-0.7s0.8-1.1,0.8-1.9c0-0.5-0.1-1-0.4-1.3s-0.6-0.6-1.1-0.8
		C800.8,34.5,799.9,34.1,798.6,33.7z M802.4,30.2c0-0.6-0.2-1.2-0.7-1.6s-1.1-0.6-2-0.6c-0.8,0-1.4,0.2-1.9,0.6
		c-0.5,0.4-0.7,0.9-0.7,1.5c0,0.7,0.3,1.2,0.9,1.7s1.5,0.8,2.8,1.2C801.9,32.3,802.4,31.3,802.4,30.2z"/>
	<path d="M810.9,40.6c-1.6,0-2.7-0.6-3.4-1.7s-1.1-2.9-1.1-5.2s0.4-4.1,1.1-5.2c0.7-1.1,1.9-1.7,3.4-1.7c1.5,0,2.7,0.6,3.4,1.7
		s1.1,2.9,1.1,5.2c0,2.4-0.4,4.1-1.1,5.2S812.5,40.6,810.9,40.6z M810.9,28.2c-1,0-1.7,0.4-2.2,1.2s-0.7,2.2-0.7,4.4
		c0,2.1,0.2,3.5,0.7,4.3s1.2,1.2,2.2,1.2s1.7-0.4,2.2-1.2c0.4-0.8,0.7-2.3,0.7-4.4c0-2.1-0.2-3.5-0.7-4.3S811.9,28.2,810.9,28.2z"/>
	<path d="M817.8,39.8V38h0.1c1.2,0.8,2.4,1.2,3.7,1.2c0.9,0,1.7-0.3,2.3-0.8c0.6-0.5,0.8-1.2,0.8-2.1c0-0.8-0.2-1.5-0.7-1.9
		s-1.3-0.6-2.4-0.6h-0.8v-1.4h0.6c0.9,0,1.7-0.2,2.2-0.6s0.8-1,0.8-1.7c0-0.6-0.2-1.1-0.7-1.4c-0.5-0.3-1.1-0.5-1.9-0.5
		c-1.2,0-2.4,0.4-3.5,1.2h-0.1v-1.7c1.2-0.6,2.4-0.8,3.7-0.8c1.4,0,2.4,0.3,3.2,0.9c0.7,0.6,1.1,1.3,1.1,2.3c0,0.7-0.2,1.4-0.7,1.9
		s-1.1,0.9-1.9,1.1v0.1c1.9,0.3,2.9,1.5,2.9,3.3c0,1.2-0.4,2.2-1.3,3s-2,1.2-3.4,1.2C820.4,40.6,819.1,40.4,817.8,39.8z"/>
</g>
<line class="st4" x1="864.7" y1="9.8" x2="857.7" y2="13.8"/>
<line class="st4" x1="864.7" y1="9.8" x2="871.5" y2="13.8"/>
<line class="st4" x1="871.5" y1="13.8" x2="866.4" y2="16.8"/>
<line class="st4" x1="857.7" y1="13.8" x2="862.9" y2="16.8"/>
<rect x="835" y="11.6" class="st1" width="11" height="6"/>
<rect x="813" y="11.6" class="st1" width="11" height="6"/>
<rect x="791" y="11.6" class="st1" width="11" height="6"/>
<rect x="886" y="11.6" class="st1" width="11" height="6"/>
<rect x="904" y="11.6" class="st1" width="11" height="6"/>
<rect x="926" y="11.6" class="st3" width="11" height="6"/>
<rect x="874" y="11.6" class="st1" width="11" height="6"/>
<g>
	<rect x="855.3" y="24.6" class="st5" width="90.3" height="17.2"/>
	<path d="M881.5,33.3v-0.1c-1.4-0.8-2.1-1.7-2.1-3c0-1,0.4-1.8,1.2-2.5s1.8-1,3.1-1c1.3,0,2.3,0.3,3.1,0.9s1.2,1.4,1.2,2.4
		c0,0.6-0.2,1.2-0.6,1.8c-0.4,0.6-0.9,1-1.6,1.3v0.1c1.7,0.7,2.6,1.8,2.6,3.3c0,1.1-0.4,2.1-1.3,2.8s-2,1.1-3.3,1.1
		c-1.4,0-2.5-0.4-3.4-1.1s-1.3-1.7-1.3-2.8C879.1,35.2,879.9,34.1,881.5,33.3z M882.6,33.7c-1.2,0.7-1.9,1.7-1.9,3
		c0,0.8,0.3,1.5,0.8,2.1s1.3,0.8,2.2,0.8c0.9,0,1.6-0.2,2.1-0.7s0.8-1.1,0.8-1.9c0-0.5-0.1-1-0.4-1.3s-0.6-0.6-1.1-0.8
		C884.8,34.5,883.9,34.1,882.6,33.7z M886.4,30.2c0-0.6-0.2-1.2-0.7-1.6s-1.1-0.6-2-0.6c-0.8,0-1.4,0.2-1.9,0.6
		c-0.5,0.4-0.7,0.9-0.7,1.5c0,0.7,0.3,1.2,0.9,1.7s1.5,0.8,2.8,1.2C885.9,32.3,886.4,31.3,886.4,30.2z"/>
	<path d="M890.8,39.9v-1.8h0.1c1.1,0.7,2.3,1.1,3.6,1.1c0.9,0,1.7-0.3,2.3-0.8c0.6-0.5,0.9-1.3,0.9-2.2c0-1.7-1.2-2.6-3.6-2.6
		c-0.7,0-1.6,0.1-2.7,0.4v-6.8h7.9v1.4H893v3.8c0.8-0.1,1.3-0.1,1.6-0.1c1.6,0,2.8,0.3,3.6,1s1.2,1.7,1.2,3c0,1.3-0.4,2.4-1.3,3.2
		c-0.9,0.8-2,1.2-3.5,1.2C893.2,40.6,891.9,40.4,890.8,39.9z"/>
	<path d="M901.8,39.8V38h0.1c1.2,0.8,2.4,1.2,3.7,1.2c0.9,0,1.7-0.3,2.3-0.8c0.6-0.5,0.8-1.2,0.8-2.1c0-0.8-0.2-1.5-0.7-1.9
		s-1.3-0.6-2.4-0.6h-0.8v-1.4h0.6c0.9,0,1.7-0.2,2.2-0.6s0.8-1,0.8-1.7c0-0.6-0.2-1.1-0.7-1.4c-0.5-0.3-1.1-0.5-1.9-0.5
		c-1.2,0-2.4,0.4-3.5,1.2h-0.1v-1.7c1.2-0.6,2.4-0.8,3.7-0.8c1.4,0,2.4,0.3,3.2,0.9c0.7,0.6,1.1,1.3,1.1,2.3c0,0.7-0.2,1.4-0.7,1.9
		s-1.1,0.9-1.9,1.1v0.1c1.9,0.3,2.9,1.5,2.9,3.3c0,1.2-0.4,2.2-1.3,3s-2,1.2-3.4,1.2C904.4,40.6,903.1,40.4,901.8,39.8z"/>
	<path d="M921.9,29l-5.9,11.4h-1.8l6.3-11.8h-7.6v-1.4h9V29z"/>
</g>
<g>
	<rect x="740" class="st5" width="10.9" height="11.8"/>
	<path d="M740.9,8.7l-0.4-0.4c0.3-0.3,0.7-0.6,1.2-1.1c0.4-0.5,0.8-0.9,1-1.3h-1.8V5.2h1.8v-1h-1.9V3.6h1l-0.4-1.5H741V1.5h1.8V0.5
		h0.7v0.9h1.8v0.6h-0.5l-0.5,1.5h1v0.6h-1.9v1h1.6v0.6h-1.6v0.2c0.4,0.4,0.9,0.8,1.5,1.2l-0.4,0.6c-0.5-0.4-0.9-0.7-1.2-1v2.7h-0.8
		V6.8C742.1,7.7,741.5,8.3,740.9,8.7z M742.2,2.1l0.4,1.5h1.1l0.4-1.5H742.2z M748.3,9.3V4.2h-1.6v0.5c0,1.9-0.5,3.5-1.5,4.6
		L744.7,9c0.4-0.5,0.7-1.1,0.9-1.8s0.3-1.5,0.3-2.3V1.4c1.6-0.2,2.8-0.5,3.7-0.8l0.4,0.6c-0.9,0.3-2,0.5-3.3,0.7v1.8h3.6v0.6H749
		v5.1H748.3z"/>
</g>
<g>
	<rect x="674" class="st5" width="10.9" height="11.8"/>
	<path d="M674.9,8.7l-0.4-0.4c0.3-0.3,0.7-0.6,1.2-1.1c0.4-0.5,0.8-0.9,1-1.3h-1.8V5.2h1.8v-1h-1.9V3.6h1l-0.4-1.5H675V1.5h1.8V0.5
		h0.7v0.9h1.8v0.6h-0.5l-0.5,1.5h1v0.6h-1.9v1h1.6v0.6h-1.6v0.2c0.4,0.4,0.9,0.8,1.5,1.2l-0.4,0.6c-0.5-0.4-0.9-0.7-1.2-1v2.7h-0.8
		V6.8C676.1,7.7,675.5,8.3,674.9,8.7z M676.2,2.1l0.4,1.5h1.1l0.4-1.5H676.2z M682.3,9.3V4.2h-1.6v0.5c0,1.9-0.5,3.5-1.5,4.6
		L678.7,9c0.4-0.5,0.7-1.1,0.9-1.8s0.3-1.5,0.3-2.3V1.4c1.6-0.2,2.8-0.5,3.7-0.8l0.4,0.6c-0.9,0.3-2,0.5-3.3,0.7v1.8h3.6v0.6H683
		v5.1H682.3z"/>
</g>
<g>
	<rect x="455" class="st5" width="10.9" height="11.8"/>
	<path d="M455.9,8.7l-0.4-0.4c0.3-0.3,0.7-0.6,1.2-1.1c0.4-0.5,0.8-0.9,1-1.3h-1.8V5.2h1.8v-1h-1.9V3.6h1l-0.4-1.5H456V1.5h1.8V0.5
		h0.7v0.9h1.8v0.6h-0.5l-0.5,1.5h1v0.6h-1.9v1h1.6v0.6h-1.6v0.2c0.4,0.4,0.9,0.8,1.5,1.2l-0.4,0.6c-0.5-0.4-0.9-0.7-1.2-1v2.7h-0.8
		V6.8C457.1,7.7,456.5,8.3,455.9,8.7z M457.2,2.1l0.4,1.5h1.1l0.4-1.5H457.2z M463.3,9.3V4.2h-1.6v0.5c0,1.9-0.5,3.5-1.5,4.6
		L459.7,9c0.4-0.5,0.7-1.1,0.9-1.8s0.3-1.5,0.3-2.3V1.4c1.6-0.2,2.8-0.5,3.7-0.8l0.4,0.6c-0.9,0.3-2,0.5-3.3,0.7v1.8h3.6v0.6H464
		v5.1H463.3z"/>
</g>
<g>
	<rect x="589" class="st5" width="10.9" height="11.8"/>
	<path d="M589.9,8.7l-0.4-0.4c0.3-0.3,0.7-0.6,1.2-1.1c0.4-0.5,0.8-0.9,1-1.3h-1.8V5.2h1.8v-1h-1.9V3.6h1l-0.4-1.5H590V1.5h1.8V0.5
		h0.7v0.9h1.8v0.6h-0.5l-0.5,1.5h1v0.6h-1.9v1h1.6v0.6h-1.6v0.2c0.4,0.4,0.9,0.8,1.5,1.2l-0.4,0.6c-0.5-0.4-0.9-0.7-1.2-1v2.7h-0.8
		V6.8C591.1,7.7,590.5,8.3,589.9,8.7z M591.2,2.1l0.4,1.5h1.1l0.4-1.5H591.2z M597.3,9.3V4.2h-1.6v0.5c0,1.9-0.5,3.5-1.5,4.6
		L593.7,9c0.4-0.5,0.7-1.1,0.9-1.8s0.3-1.5,0.3-2.3V1.4c1.6-0.2,2.8-0.5,3.7-0.8l0.4,0.6c-0.9,0.3-2,0.5-3.3,0.7v1.8h3.6v0.6H598
		v5.1H597.3z"/>
</g>
<g>
	<rect x="645" class="st5" width="10.9" height="11.8"/>
	<path d="M645.9,8.7l-0.4-0.4c0.3-0.3,0.7-0.6,1.2-1.1c0.4-0.5,0.8-0.9,1-1.3h-1.8V5.2h1.8v-1h-1.9V3.6h1l-0.4-1.5H646V1.5h1.8V0.5
		h0.7v0.9h1.8v0.6h-0.5l-0.5,1.5h1v0.6h-1.9v1h1.6v0.6h-1.6v0.2c0.4,0.4,0.9,0.8,1.5,1.2l-0.4,0.6c-0.5-0.4-0.9-0.7-1.2-1v2.7h-0.8
		V6.8C647.1,7.7,646.5,8.3,645.9,8.7z M647.2,2.1l0.4,1.5h1.1l0.4-1.5H647.2z M653.3,9.3V4.2h-1.6v0.5c0,1.9-0.5,3.5-1.5,4.6
		L649.7,9c0.4-0.5,0.7-1.1,0.9-1.8s0.3-1.5,0.3-2.3V1.4c1.6-0.2,2.8-0.5,3.7-0.8l0.4,0.6c-0.9,0.3-2,0.5-3.3,0.7v1.8h3.6v0.6H654
		v5.1H653.3z"/>
</g>
<g>
	<rect x="484" class="st5" width="10.9" height="11.8"/>
	<path d="M484.9,8.7l-0.4-0.4c0.3-0.3,0.7-0.6,1.2-1.1c0.4-0.5,0.8-0.9,1-1.3h-1.8V5.2h1.8v-1h-1.9V3.6h1l-0.4-1.5H485V1.5h1.8V0.5
		h0.7v0.9h1.8v0.6h-0.5l-0.5,1.5h1v0.6h-1.9v1h1.6v0.6h-1.6v0.2c0.4,0.4,0.9,0.8,1.5,1.2l-0.4,0.6c-0.5-0.4-0.9-0.7-1.2-1v2.7h-0.8
		V6.8C486.1,7.7,485.5,8.3,484.9,8.7z M486.2,2.1l0.4,1.5h1.1l0.4-1.5H486.2z M492.3,9.3V4.2h-1.6v0.5c0,1.9-0.5,3.5-1.5,4.6
		L488.7,9c0.4-0.5,0.7-1.1,0.9-1.8s0.3-1.5,0.3-2.3V1.4c1.6-0.2,2.8-0.5,3.7-0.8l0.4,0.6c-0.9,0.3-2,0.5-3.3,0.7v1.8h3.6v0.6H493
		v5.1H492.3z"/>
</g>
<g>
	<rect x="926" class="st5" width="10.9" height="11.8"/>
	<path d="M926.9,8.7l-0.4-0.4c0.3-0.3,0.7-0.6,1.2-1.1c0.4-0.5,0.8-0.9,1-1.3h-1.8V5.2h1.8v-1h-1.9V3.6h1l-0.4-1.5H927V1.5h1.8V0.5
		h0.7v0.9h1.8v0.6h-0.5l-0.5,1.5h1v0.6h-1.9v1h1.6v0.6h-1.6v0.2c0.4,0.4,0.9,0.8,1.5,1.2l-0.4,0.6c-0.5-0.4-0.9-0.7-1.2-1v2.7h-0.8
		V6.8C928.1,7.7,927.5,8.3,926.9,8.7z M928.2,2.1l0.4,1.5h1.1l0.4-1.5H928.2z M934.3,9.3V4.2h-1.6v0.5c0,1.9-0.5,3.5-1.5,4.6
		L930.7,9c0.4-0.5,0.7-1.1,0.9-1.8s0.3-1.5,0.3-2.3V1.4c1.6-0.2,2.8-0.5,3.7-0.8l0.4,0.6c-0.9,0.3-2,0.5-3.3,0.7v1.8h3.6v0.6H935
		v5.1H934.3z"/>
</g>
<g>
	<rect x="360" class="st5" width="10.9" height="11.8"/>
	<path d="M360.9,8.7l-0.4-0.4c0.3-0.3,0.7-0.6,1.2-1.1c0.4-0.5,0.8-0.9,1-1.3h-1.8V5.2h1.8v-1h-1.9V3.6h1l-0.4-1.5H361V1.5h1.8V0.5
		h0.7v0.9h1.8v0.6h-0.5l-0.5,1.5h1v0.6h-1.9v1h1.6v0.6h-1.6v0.2c0.4,0.4,0.9,0.8,1.5,1.2l-0.4,0.6c-0.5-0.4-0.9-0.7-1.2-1v2.7h-0.8
		V6.8C362.1,7.7,361.5,8.3,360.9,8.7z M362.2,2.1l0.4,1.5h1.1l0.4-1.5H362.2z M368.3,9.3V4.2h-1.6v0.5c0,1.9-0.5,3.5-1.5,4.6
		L364.7,9c0.4-0.5,0.7-1.1,0.9-1.8s0.3-1.5,0.3-2.3V1.4c1.6-0.2,2.8-0.5,3.7-0.8l0.4,0.6c-0.9,0.3-2,0.5-3.3,0.7v1.8h3.6v0.6H369
		v5.1H368.3z"/>
</g>
<g>
	<rect x="294" class="st5" width="10.9" height="11.8"/>
	<path d="M294.9,8.7l-0.4-0.4c0.3-0.3,0.7-0.6,1.2-1.1c0.4-0.5,0.8-0.9,1-1.3h-1.8V5.2h1.8v-1h-1.9V3.6h1l-0.4-1.5H295V1.5h1.8V0.5
		h0.7v0.9h1.8v0.6h-0.5l-0.5,1.5h1v0.6h-1.9v1h1.6v0.6h-1.6v0.2c0.4,0.4,0.9,0.8,1.5,1.2l-0.4,0.6c-0.5-0.4-0.9-0.7-1.2-1v2.7h-0.8
		V6.8C296.1,7.7,295.5,8.3,294.9,8.7z M296.2,2.1l0.4,1.5h1.1l0.4-1.5H296.2z M302.3,9.3V4.2h-1.6v0.5c0,1.9-0.5,3.5-1.5,4.6
		L298.7,9c0.4-0.5,0.7-1.1,0.9-1.8s0.3-1.5,0.3-2.3V1.4c1.6-0.2,2.8-0.5,3.7-0.8l0.4,0.6c-0.9,0.3-2,0.5-3.3,0.7v1.8h3.6v0.6H303
		v5.1H302.3z"/>
</g>
<g>
	<rect x="265" class="st5" width="10.9" height="11.8"/>
	<path d="M265.9,8.7l-0.4-0.4c0.3-0.3,0.7-0.6,1.2-1.1c0.4-0.5,0.8-0.9,1-1.3h-1.8V5.2h1.8v-1h-1.9V3.6h1l-0.4-1.5H266V1.5h1.8V0.5
		h0.7v0.9h1.8v0.6h-0.5l-0.5,1.5h1v0.6h-1.9v1h1.6v0.6h-1.6v0.2c0.4,0.4,0.9,0.8,1.5,1.2l-0.4,0.6c-0.5-0.4-0.9-0.7-1.2-1v2.7h-0.8
		V6.8C267.1,7.7,266.5,8.3,265.9,8.7z M267.2,2.1l0.4,1.5h1.1l0.4-1.5H267.2z M273.3,9.3V4.2h-1.6v0.5c0,1.9-0.5,3.5-1.5,4.6
		L269.7,9c0.4-0.5,0.7-1.1,0.9-1.8s0.3-1.5,0.3-2.3V1.4c1.6-0.2,2.8-0.5,3.7-0.8l0.4,0.6c-0.9,0.3-2,0.5-3.3,0.7v1.8h3.6v0.6H274
		v5.1H273.3z"/>
</g>
<g>
	<rect x="9" class="st5" width="10.9" height="11.8"/>
	<path d="M9.9,8.7L9.6,8.2c0.3-0.3,0.7-0.6,1.2-1.1c0.4-0.5,0.8-0.9,1-1.3H9.9V5.2h1.8v-1H9.8V3.6h1l-0.4-1.5H10V1.5h1.8V0.5h0.7
		v0.9h1.8v0.6h-0.5l-0.5,1.5h1v0.6h-1.9v1h1.6v0.6h-1.6v0.2c0.4,0.4,0.9,0.8,1.5,1.2l-0.4,0.6c-0.5-0.4-0.9-0.7-1.2-1v2.7h-0.8V6.8
		C11.1,7.7,10.5,8.3,9.9,8.7z M11.2,2.1l0.4,1.5h1.1l0.4-1.5H11.2z M17.3,9.3V4.2h-1.6v0.5c0,1.9-0.5,3.5-1.5,4.6L13.7,9
		c0.4-0.5,0.7-1.1,0.9-1.8s0.3-1.5,0.3-2.3V1.4c1.6-0.2,2.8-0.5,3.7-0.8L19,1.2c-0.9,0.3-2,0.5-3.3,0.7v1.8h3.6v0.6H18v5.1H17.3z"/>
</g>
<g>
	<rect x="399" class="st5" width="10.9" height="11.8"/>
	<path d="M399.9,8.7l-0.4-0.4c0.3-0.3,0.7-0.6,1.2-1.1c0.4-0.5,0.8-0.9,1-1.3h-1.8V5.2h1.8v-1h-1.9V3.6h1l-0.4-1.5H400V1.5h1.8V0.5
		h0.7v0.9h1.8v0.6h-0.5l-0.5,1.5h1v0.6h-1.9v1h1.6v0.6h-1.6v0.2c0.4,0.4,0.9,0.8,1.5,1.2l-0.4,0.6c-0.5-0.4-0.9-0.7-1.2-1v2.7h-0.8
		V6.8C401.1,7.7,400.5,8.3,399.9,8.7z M401.2,2.1l0.4,1.5h1.1l0.4-1.5H401.2z M407.3,9.3V4.2h-1.6v0.5c0,1.9-0.5,3.5-1.5,4.6
		L403.7,9c0.4-0.5,0.7-1.1,0.9-1.8s0.3-1.5,0.3-2.3V1.4c1.6-0.2,2.8-0.5,3.7-0.8l0.4,0.6c-0.9,0.3-2,0.5-3.3,0.7v1.8h3.6v0.6H408
		v5.1H407.3z"/>
</g>
<g>
</g>
<g>
</g>
<g>
</g>
<g>
</g>
<g>
</g>
<g>
</g>
<g>
</g>
<g>
</g>
<g>
</g>
<g>
</g>
<g>
</g>
<g>
</g>
<g>
</g>
<g>
</g>
<g>
</g>
<g>
</g>
<g>
</g>
<g>
</g>
</svg>
