<?xml version="1.0" encoding="utf-8"?>
<!-- Generator: Adobe Illustrator 16.0.0, SVG Export Plug-In . SVG Version: 6.00 Build 0)  -->
<!DOCTYPE svg PUBLIC "-//W3C//DTD SVG 1.1//EN" "http://www.w3.org/Graphics/SVG/1.1/DTD/svg11.dtd">
<svg version="1.1" id="レイヤー_1" xmlns="http://www.w3.org/2000/svg" xmlns:xlink="http://www.w3.org/1999/xlink" x="0px"
	 y="0px" width="471px" height="48.6px" viewBox="0 0 471 48.6" style="enable-background:new 0 0 471 48.6;" xml:space="preserve">
<style type="text/css">
<![CDATA[
	.st0{fill:#FFFFFF;stroke:#0000FF;stroke-miterlimit:10;}
	.st1{fill:#2B95FF;}
	.st2{fill:#FF0000;}
	.st3{fill:none;stroke:#000000;stroke-miterlimit:10;}
	.st4{fill:none;}
	.st5{fill:#FFBB99;stroke:#000000;stroke-miterlimit:10;}
	.st6{fill:#0000FF;}
	.st7{fill:#99EE99;stroke:#000000;stroke-miterlimit:10;}
]]>
</style>
<rect x="0.5" y="18.1" class="st7" width="90" height="30"/>
<rect x="9" y="11.6" class="st2" width="11" height="6"/>
<rect x="95.5" y="18.1" class="st5" width="90" height="30"/>
<rect x="190.5" y="18.1" class="st5" width="90" height="30"/>
<rect x="285.5" y="18.1" class="st5" width="90" height="30"/>
<rect x="380.5" y="18.1" class="st7" width="90" height="30"/>
<g>
	<rect x="95.3" y="24.6" class="st4" width="62.1" height="17.2"/>
	<path d="M106.1,40.4v-1.6h0.1c0.5,0.2,1.1,0.4,1.7,0.4c2.7,0,4.2-1.6,4.5-4.7c-1.2,0.7-2.3,1.1-3.2,1.1c-1.3,0-2.4-0.4-3.2-1.1
		c-0.8-0.7-1.2-1.8-1.2-3c0-1.3,0.4-2.4,1.3-3.3s1.9-1.3,3.2-1.3c1.5,0,2.6,0.5,3.5,1.5c0.8,1,1.3,2.5,1.3,4.6
		c0,2.4-0.6,4.3-1.7,5.7s-2.7,2-4.8,2C107.1,40.6,106.5,40.6,106.1,40.4z M112.4,33.4l0-0.8c0-1.4-0.3-2.5-0.8-3.3
		c-0.5-0.8-1.3-1.1-2.3-1.1c-0.9,0-1.6,0.3-2.1,0.8c-0.5,0.6-0.8,1.3-0.8,2.3c0,0.8,0.2,1.5,0.7,2.1c0.5,0.5,1.3,0.8,2.4,0.8
		C110.5,34.2,111.4,34,112.4,33.4z"/>
	<path d="M125.3,40.4h-8.9v-1.7c0.9-0.8,2-1.7,3.2-2.8s2-2,2.6-2.8s0.9-1.6,0.9-2.4c0-0.7-0.2-1.3-0.7-1.7s-1.1-0.6-1.9-0.6
		c-1.2,0-2.4,0.4-3.5,1.1h-0.1v-1.7c1.2-0.6,2.4-0.8,3.7-0.8c1.3,0,2.4,0.3,3.2,1c0.8,0.6,1.2,1.5,1.2,2.6c0,0.6-0.1,1.2-0.3,1.7
		s-0.5,1.1-0.9,1.6s-0.9,1.1-1.5,1.6s-1.9,1.8-4,3.5h7.3V40.4z"/>
	<path d="M131.9,40.6c-1.6,0-2.7-0.6-3.4-1.7s-1.1-2.9-1.1-5.2s0.4-4.1,1.1-5.2s1.9-1.7,3.4-1.7c1.5,0,2.7,0.6,3.4,1.7
		c0.7,1.1,1.1,2.9,1.1,5.2c0,2.4-0.4,4.1-1.1,5.2C134.6,40.1,133.5,40.6,131.9,40.6z M131.9,28.2c-1,0-1.7,0.4-2.2,1.2
		c-0.5,0.8-0.7,2.2-0.7,4.4c0,2.1,0.2,3.5,0.7,4.3s1.2,1.2,2.2,1.2s1.7-0.4,2.2-1.2s0.7-2.3,0.7-4.4c0-2.1-0.2-3.5-0.7-4.3
		C133.7,28.6,132.9,28.2,131.9,28.2z"/>
	<path d="M139,39.9v-1.8h0.1c1.1,0.7,2.3,1.1,3.6,1.1c0.9,0,1.7-0.3,2.3-0.8c0.6-0.5,0.9-1.3,0.9-2.2c0-1.7-1.2-2.6-3.6-2.6
		c-0.7,0-1.6,0.1-2.7,0.4v-6.8h7.9v1.4h-6.3v3.8c0.8-0.1,1.3-0.1,1.6-0.1c1.6,0,2.8,0.3,3.6,1s1.2,1.7,1.2,3c0,1.3-0.4,2.4-1.3,3.2
		s-2,1.2-3.5,1.2C141.4,40.6,140.1,40.4,139,39.9z"/>
</g>
<rect x="152.5" y="25.1" class="st0" width="31" height="17"/>
<g>
	<rect x="152.2" y="26.4" class="st4" width="31.1" height="14.4"/>
	<path class="st6" d="M154.7,37.9l-0.3-0.8c1.3-0.3,2.6-0.7,4-1.3l0.2,0.7C157.7,36.9,156.4,37.4,154.7,37.9z M156.7,39.5l-0.1-0.9
		h1.3c0.6,0,1-0.3,1.1-0.8c0.1-0.5,0.2-1.8,0.2-3.7v-0.9H155l0.3-3.2h3.6v-1.5h-4v-0.8h5v3.1h-3.7l-0.2,1.7h4.1v2
		c0,0.7,0,1.4-0.1,2.1c0,0.7-0.1,1.2-0.2,1.6c-0.1,0.4-0.2,0.7-0.3,0.8c-0.1,0.1-0.3,0.3-0.5,0.4c-0.2,0.1-0.5,0.2-0.8,0.2H156.7z
		 M156.7,35.7l-1.4-1.7l0.8-0.5l1.4,1.6L156.7,35.7z M160.9,37.9l-0.3-0.8c1.4-0.4,2.8-0.8,4-1.3l0.2,0.8c-0.4,0.2-1,0.4-1.9,0.7
		C162.2,37.6,161.5,37.8,160.9,37.9z M162.9,39.5l-0.1-0.9h1.3c0.6,0,1-0.3,1.1-0.8c0.1-0.5,0.2-1.8,0.2-3.7v-0.9h-4.2l0.3-3.2h3.7
		v-1.5h-4v-0.8h5.1v3.1h-3.7l-0.2,1.7h4.2v1.4c0,1.4,0,2.5-0.1,3.2c-0.1,0.7-0.2,1.2-0.2,1.5c-0.1,0.3-0.3,0.6-0.6,0.7
		c-0.3,0.2-0.7,0.3-1,0.3H162.9z M163,35.7l-1.4-1.7l0.8-0.5l1.4,1.6L163,35.7z"/>
	<path class="st1" d="M169.1,38.4l-1-0.6c0.3-0.5,0.7-1.2,1.2-2.1c0.4-0.9,0.8-1.7,1-2.4l0.9,0.4c-0.2,0.7-0.6,1.5-1,2.5
		S169.4,38,169.1,38.4z M170.3,30.8c-0.6-0.8-1.2-1.6-1.9-2.3l0.9-0.6c0.6,0.6,1.3,1.3,1.9,2.2L170.3,30.8z M176.7,27.1
		c0.5,0.9,1.3,1.7,2.2,2.4s1.8,1.3,2.6,1.7l-0.7,0.8c-0.8-0.4-1.7-1.1-2.7-1.8c-0.9-0.8-1.7-1.6-2.2-2.3c-0.5,0.8-1.2,1.6-2.1,2.4
		c-0.9,0.8-1.8,1.4-2.6,1.8l-0.5-0.7c0.8-0.4,1.6-1,2.4-1.8s1.6-1.6,2.1-2.5H176.7z M174.6,39.6v-5.3H172v-0.9h8.3v4
		c0,0.3-0.1,0.6-0.4,0.8c-0.2,0.2-0.5,0.3-0.9,0.3h-1.7l-0.1-0.9h1.4c0.2,0,0.3-0.1,0.4-0.2c0.1-0.1,0.2-0.2,0.2-0.4v-2.8h-3.5v5.3
		H174.6z M173.3,31.8v-0.8h5.8v0.8H173.3z"/>
</g>
<g>
	<rect x="380.1" y="24.6" class="st4" width="90.3" height="17.2"/>
	<path d="M405,40.4v-1.6h0.1c0.5,0.2,1.1,0.4,1.7,0.4c2.7,0,4.2-1.6,4.5-4.7c-1.2,0.7-2.3,1.1-3.2,1.1c-1.3,0-2.4-0.4-3.2-1.1
		c-0.8-0.7-1.2-1.8-1.2-3c0-1.3,0.4-2.4,1.3-3.3s1.9-1.3,3.2-1.3c1.5,0,2.6,0.5,3.5,1.5c0.8,1,1.3,2.5,1.3,4.6
		c0,2.4-0.6,4.3-1.7,5.7s-2.7,2-4.8,2C406,40.6,405.4,40.6,405,40.4z M411.3,33.4l0-0.8c0-1.4-0.3-2.5-0.8-3.3
		c-0.5-0.8-1.3-1.1-2.3-1.1c-0.9,0-1.6,0.3-2.1,0.8c-0.5,0.6-0.8,1.3-0.8,2.3c0,0.8,0.2,1.5,0.7,2.1c0.5,0.5,1.3,0.8,2.4,0.8
		C409.4,34.2,410.3,34,411.3,33.4z"/>
	<path d="M423.4,40.4h-7v-1.2h2.8V30h-2.8V29c1.1,0,1.8-0.2,2.3-0.5c0.5-0.3,0.7-0.8,0.8-1.4h1.2v12.1h2.7V40.4z"/>
	<path d="M430.8,40.6c-1.6,0-2.7-0.6-3.4-1.7s-1.1-2.9-1.1-5.2s0.4-4.1,1.1-5.2c0.7-1.1,1.9-1.7,3.4-1.7c1.5,0,2.7,0.6,3.4,1.7
		c0.7,1.1,1.1,2.9,1.1,5.2c0,2.4-0.4,4.1-1.1,5.2C433.5,40.1,432.4,40.6,430.8,40.6z M430.8,28.2c-1,0-1.7,0.4-2.2,1.2
		c-0.5,0.8-0.7,2.2-0.7,4.4c0,2.1,0.2,3.5,0.7,4.3s1.2,1.2,2.2,1.2s1.7-0.4,2.2-1.2c0.4-0.8,0.7-2.3,0.7-4.4c0-2.1-0.2-3.5-0.7-4.3
		C432.6,28.6,431.8,28.2,430.8,28.2z"/>
	<path d="M437.9,39.9v-1.8h0.1c1.1,0.7,2.3,1.1,3.6,1.1c0.9,0,1.7-0.3,2.3-0.8c0.6-0.5,0.9-1.3,0.9-2.2c0-1.7-1.2-2.6-3.6-2.6
		c-0.7,0-1.6,0.1-2.7,0.4v-6.8h7.9v1.4h-6.3v3.8c0.8-0.1,1.3-0.1,1.6-0.1c1.6,0,2.8,0.3,3.6,1s1.2,1.7,1.2,3c0,1.3-0.4,2.4-1.3,3.2
		c-0.9,0.8-2,1.2-3.5,1.2C440.3,40.6,439,40.4,437.9,39.9z"/>
</g>
<g>
	<rect x="285.2" y="24.6" class="st4" width="90.3" height="17.2"/>
	<path d="M310.1,40.4v-1.6h0.1c0.5,0.2,1.1,0.4,1.7,0.4c2.7,0,4.2-1.6,4.5-4.7c-1.2,0.7-2.3,1.1-3.2,1.1c-1.3,0-2.4-0.4-3.2-1.1
		c-0.8-0.7-1.2-1.8-1.2-3c0-1.3,0.4-2.4,1.3-3.3s1.9-1.3,3.2-1.3c1.5,0,2.6,0.5,3.5,1.5c0.8,1,1.3,2.5,1.3,4.6
		c0,2.4-0.6,4.3-1.7,5.7s-2.7,2-4.8,2C311.1,40.6,310.5,40.6,310.1,40.4z M316.4,33.4l0-0.8c0-1.4-0.3-2.5-0.8-3.3
		c-0.5-0.8-1.3-1.1-2.3-1.1c-0.9,0-1.6,0.3-2.1,0.8c-0.5,0.6-0.8,1.3-0.8,2.3c0,0.8,0.2,1.5,0.7,2.1c0.5,0.5,1.3,0.8,2.4,0.8
		C314.5,34.2,315.4,34,316.4,33.4z"/>
	<path d="M328.2,27.1v1.6h-0.1c-0.5-0.2-1.1-0.4-1.7-0.4c-1.3,0-2.3,0.4-3.1,1.2c-0.8,0.8-1.2,2-1.4,3.4c1.1-0.7,2.2-1,3.2-1
		c1.3,0,2.3,0.4,3.1,1.1c0.8,0.7,1.2,1.7,1.2,3.1c0,1.3-0.4,2.4-1.3,3.3s-1.9,1.3-3.2,1.3c-1.5,0-2.7-0.5-3.5-1.6
		c-0.8-1-1.2-2.5-1.2-4.5c0-2.4,0.6-4.3,1.7-5.7c1.1-1.3,2.7-2,4.8-2C327.3,26.9,327.8,26.9,328.2,27.1z M321.9,34.1
		c0,0.5,0,0.8,0,0.9c0,1.4,0.3,2.5,0.8,3.2c0.5,0.8,1.3,1.1,2.3,1.1c0.9,0,1.6-0.3,2.1-0.8c0.5-0.6,0.8-1.3,0.8-2.3
		c0-0.8-0.2-1.5-0.7-2s-1.3-0.8-2.4-0.8C323.8,33.3,322.8,33.6,321.9,34.1z"/>
	<path d="M335.9,40.6c-1.6,0-2.7-0.6-3.4-1.7s-1.1-2.9-1.1-5.2s0.4-4.1,1.1-5.2s1.9-1.7,3.4-1.7c1.5,0,2.7,0.6,3.4,1.7
		c0.7,1.1,1.1,2.9,1.1,5.2c0,2.4-0.4,4.1-1.1,5.2C338.6,40.1,337.5,40.6,335.9,40.6z M335.9,28.2c-1,0-1.7,0.4-2.2,1.2
		c-0.5,0.8-0.7,2.2-0.7,4.4c0,2.1,0.2,3.5,0.7,4.3s1.2,1.2,2.2,1.2s1.7-0.4,2.2-1.2s0.7-2.3,0.7-4.4c0-2.1-0.2-3.5-0.7-4.3
		C337.7,28.6,336.9,28.2,335.9,28.2z"/>
	<path d="M343,39.9v-1.8h0.1c1.1,0.7,2.3,1.1,3.6,1.1c0.9,0,1.7-0.3,2.3-0.8c0.6-0.5,0.9-1.3,0.9-2.2c0-1.7-1.2-2.6-3.6-2.6
		c-0.7,0-1.6,0.1-2.7,0.4v-6.8h7.9v1.4h-6.3v3.8c0.8-0.1,1.3-0.1,1.6-0.1c1.6,0,2.8,0.3,3.6,1s1.2,1.7,1.2,3c0,1.3-0.4,2.4-1.3,3.2
		s-2,1.2-3.5,1.2C345.4,40.6,344.1,40.4,343,39.9z"/>
</g>
<g>
	<rect x="0.2" y="24.6" class="st4" width="90.3" height="17.2"/>
	<path d="M25.1,40.4v-1.6h0.1c0.5,0.2,1.1,0.4,1.7,0.4c2.7,0,4.2-1.6,4.5-4.7c-1.2,0.7-2.3,1.1-3.2,1.1c-1.3,0-2.4-0.4-3.2-1.1
		c-0.8-0.7-1.2-1.8-1.2-3c0-1.3,0.4-2.4,1.3-3.3s1.9-1.3,3.2-1.3c1.5,0,2.6,0.5,3.5,1.5c0.8,1,1.3,2.5,1.3,4.6
		c0,2.4-0.6,4.3-1.7,5.7s-2.7,2-4.8,2C26.1,40.6,25.5,40.6,25.1,40.4z M31.4,33.4l0-0.8c0-1.4-0.3-2.5-0.8-3.3
		c-0.5-0.8-1.3-1.1-2.3-1.1c-0.9,0-1.6,0.3-2.1,0.8c-0.5,0.6-0.8,1.3-0.8,2.3c0,0.8,0.2,1.5,0.7,2.1c0.5,0.5,1.3,0.8,2.4,0.8
		C29.5,34.2,30.4,34,31.4,33.4z"/>
	<path d="M39.7,40.6c-1.6,0-2.7-0.6-3.4-1.7s-1.1-2.9-1.1-5.2s0.4-4.1,1.1-5.2s1.9-1.7,3.4-1.7c1.5,0,2.7,0.6,3.4,1.7
		c0.7,1.1,1.1,2.9,1.1,5.2c0,2.4-0.4,4.1-1.1,5.2C42.4,40.1,41.3,40.6,39.7,40.6z M39.7,28.2c-1,0-1.7,0.4-2.2,1.2
		c-0.5,0.8-0.7,2.2-0.7,4.4c0,2.1,0.2,3.5,0.7,4.3s1.2,1.2,2.2,1.2s1.7-0.4,2.2-1.2s0.7-2.3,0.7-4.4c0-2.1-0.2-3.5-0.7-4.3
		C41.5,28.6,40.8,28.2,39.7,28.2z"/>
	<path d="M50.9,40.6c-1.6,0-2.7-0.6-3.4-1.7s-1.1-2.9-1.1-5.2s0.4-4.1,1.1-5.2s1.9-1.7,3.4-1.7c1.5,0,2.7,0.6,3.4,1.7
		c0.7,1.1,1.1,2.9,1.1,5.2c0,2.4-0.4,4.1-1.1,5.2C53.6,40.1,52.5,40.6,50.9,40.6z M50.9,28.2c-1,0-1.7,0.4-2.2,1.2
		c-0.5,0.8-0.7,2.2-0.7,4.4c0,2.1,0.2,3.5,0.7,4.3s1.2,1.2,2.2,1.2s1.7-0.4,2.2-1.2s0.7-2.3,0.7-4.4c0-2.1-0.2-3.5-0.7-4.3
		C52.7,28.6,51.9,28.2,50.9,28.2z"/>
	<path d="M58,39.9v-1.8h0.1c1.1,0.7,2.3,1.1,3.6,1.1c0.9,0,1.7-0.3,2.3-0.8c0.6-0.5,0.9-1.3,0.9-2.2c0-1.7-1.2-2.6-3.6-2.6
		c-0.7,0-1.6,0.1-2.7,0.4v-6.8h7.9v1.4h-6.3v3.8c0.8-0.1,1.3-0.1,1.6-0.1c1.6,0,2.8,0.3,3.6,1s1.2,1.7,1.2,3c0,1.3-0.4,2.4-1.3,3.2
		s-2,1.2-3.5,1.2C60.4,40.6,59.1,40.4,58,39.9z"/>
</g>
<g>
	<rect x="190" y="24.6" class="st4" width="90.3" height="17.2"/>
	<path d="M214.9,40.4v-1.6h0.1c0.5,0.2,1.1,0.4,1.7,0.4c2.7,0,4.2-1.6,4.5-4.7c-1.2,0.7-2.3,1.1-3.2,1.1c-1.3,0-2.4-0.4-3.2-1.1
		c-0.8-0.7-1.2-1.8-1.2-3c0-1.3,0.4-2.4,1.3-3.3s1.9-1.3,3.2-1.3c1.5,0,2.6,0.5,3.5,1.5c0.8,1,1.3,2.5,1.3,4.6
		c0,2.4-0.6,4.3-1.7,5.7s-2.7,2-4.8,2C215.9,40.6,215.4,40.6,214.9,40.4z M221.2,33.4l0-0.8c0-1.4-0.3-2.5-0.8-3.3
		c-0.5-0.8-1.3-1.1-2.3-1.1c-0.9,0-1.6,0.3-2.1,0.8c-0.5,0.6-0.8,1.3-0.8,2.3c0,0.8,0.2,1.5,0.7,2.1c0.5,0.5,1.3,0.8,2.4,0.8
		C219.3,34.2,220.3,34,221.2,33.4z"/>
	<path d="M234.4,36.6h-1.9v3.8h-1.6v-3.8h-6.4v-1.8l6.4-7.6h1.5v8.1h1.9V36.6z M230.9,35.3v-6.2l-5.3,6.2H230.9z"/>
	<path d="M240.8,40.6c-1.6,0-2.7-0.6-3.4-1.7s-1.1-2.9-1.1-5.2s0.4-4.1,1.1-5.2s1.9-1.7,3.4-1.7c1.5,0,2.7,0.6,3.4,1.7
		c0.7,1.1,1.1,2.9,1.1,5.2c0,2.4-0.4,4.1-1.1,5.2C243.5,40.1,242.3,40.6,240.8,40.6z M240.8,28.2c-1,0-1.7,0.4-2.2,1.2
		c-0.5,0.8-0.7,2.2-0.7,4.4c0,2.1,0.2,3.5,0.7,4.3s1.2,1.2,2.2,1.2s1.7-0.4,2.2-1.2s0.7-2.3,0.7-4.4c0-2.1-0.2-3.5-0.7-4.3
		C242.5,28.6,241.8,28.2,240.8,28.2z"/>
	<path d="M247.9,39.9v-1.8h0.1c1.1,0.7,2.3,1.1,3.6,1.1c0.9,0,1.7-0.3,2.3-0.8c0.6-0.5,0.9-1.3,0.9-2.2c0-1.7-1.2-2.6-3.6-2.6
		c-0.7,0-1.6,0.1-2.7,0.4v-6.8h7.9v1.4H250v3.8c0.8-0.1,1.3-0.1,1.6-0.1c1.6,0,2.8,0.3,3.6,1s1.2,1.7,1.2,3c0,1.3-0.4,2.4-1.3,3.2
		s-2,1.2-3.5,1.2C250.2,40.6,249,40.4,247.9,39.9z"/>
</g>
<rect x="75" y="11.6" class="st2" width="11" height="6"/>
<rect x="53" y="11.6" width="11" height="6"/>
<rect x="31" y="11.6" width="11" height="6"/>
<rect x="304" y="11.6" class="st2" width="11" height="6"/>
<rect x="316" y="11.6" width="11" height="6"/>
<rect x="338" y="11.6" class="st2" width="11" height="6"/>
<rect x="360" y="11.6" class="st2" width="11" height="6"/>
<rect x="385" y="11.6" class="st2" width="11" height="6"/>
<rect x="407" y="11.6" width="11" height="6"/>
<rect x="429" y="11.6" width="11" height="6"/>
<rect x="451" y="11.6" class="st2" width="11" height="6"/>
<line class="st3" x1="294.7" y1="9.8" x2="287.7" y2="13.8"/>
<line class="st3" x1="287.7" y1="13.8" x2="293.7" y2="16.8"/>
<line class="st3" x1="199.7" y1="9.8" x2="192.7" y2="13.8"/>
<line class="st3" x1="192.7" y1="13.8" x2="198.7" y2="16.8"/>
<line class="st3" x1="104.7" y1="9.8" x2="97.7" y2="13.8"/>
<line class="st3" x1="97.7" y1="13.8" x2="103.7" y2="16.8"/>
<rect x="126" y="11.6" width="11" height="6"/>
<rect x="148" y="11.6" width="11" height="6"/>
<rect x="170" y="11.6" width="11" height="6"/>
<rect x="114" y="11.6" width="11" height="6"/>
<rect x="209" y="11.6" class="st2" width="11" height="6"/>
<rect x="221" y="11.6" width="11" height="6"/>
<rect x="243" y="11.6" width="11" height="6"/>
<rect x="265" y="11.6" class="st2" width="11" height="6"/>
<g>
	<rect x="338" class="st4" width="10.9" height="11.8"/>
	<path d="M338.9,8.7l-0.4-0.4c0.3-0.3,0.7-0.6,1.2-1.1c0.4-0.5,0.8-0.9,1-1.3h-1.8V5.2h1.8v-1h-1.9V3.6h1l-0.4-1.5H339V1.5h1.8V0.5
		h0.7v0.9h1.8v0.6h-0.5l-0.5,1.5h1v0.6h-1.9v1h1.6v0.6h-1.6v0.2c0.4,0.4,0.9,0.8,1.5,1.2l-0.4,0.6c-0.5-0.4-0.9-0.7-1.2-1v2.7h-0.8
		V6.8C340.1,7.7,339.5,8.3,338.9,8.7z M340.2,2.1l0.4,1.5h1.1l0.4-1.5H340.2z M346.3,9.3V4.2h-1.6v0.5c0,1.9-0.5,3.5-1.5,4.6
		L342.7,9c0.4-0.5,0.7-1.1,0.9-1.8c0.2-0.7,0.3-1.5,0.3-2.3V1.4c1.6-0.2,2.8-0.5,3.7-0.8l0.4,0.6c-0.9,0.3-2,0.5-3.3,0.7v1.8h3.6
		v0.6H347v5.1H346.3z"/>
</g>
<g>
	<rect x="304" class="st4" width="10.9" height="11.8"/>
	<path d="M304.9,8.7l-0.4-0.4c0.3-0.3,0.7-0.6,1.2-1.1c0.4-0.5,0.8-0.9,1-1.3h-1.8V5.2h1.8v-1h-1.9V3.6h1l-0.4-1.5H305V1.5h1.8V0.5
		h0.7v0.9h1.8v0.6h-0.5l-0.5,1.5h1v0.6h-1.9v1h1.6v0.6h-1.6v0.2c0.4,0.4,0.9,0.8,1.5,1.2l-0.4,0.6c-0.5-0.4-0.9-0.7-1.2-1v2.7h-0.8
		V6.8C306.1,7.7,305.5,8.3,304.9,8.7z M306.2,2.1l0.4,1.5h1.1l0.4-1.5H306.2z M312.3,9.3V4.2h-1.6v0.5c0,1.9-0.5,3.5-1.5,4.6
		L308.7,9c0.4-0.5,0.7-1.1,0.9-1.8c0.2-0.7,0.3-1.5,0.3-2.3V1.4c1.6-0.2,2.8-0.5,3.7-0.8l0.4,0.6c-0.9,0.3-2,0.5-3.3,0.7v1.8h3.6
		v0.6H313v5.1H312.3z"/>
</g>
<g>
	<rect x="265" class="st4" width="10.9" height="11.8"/>
	<path d="M265.9,8.7l-0.4-0.4c0.3-0.3,0.7-0.6,1.2-1.1c0.4-0.5,0.8-0.9,1-1.3h-1.8V5.2h1.8v-1h-1.9V3.6h1l-0.4-1.5H266V1.5h1.8V0.5
		h0.7v0.9h1.8v0.6h-0.5l-0.5,1.5h1v0.6h-1.9v1h1.6v0.6h-1.6v0.2c0.4,0.4,0.9,0.8,1.5,1.2l-0.4,0.6c-0.5-0.4-0.9-0.7-1.2-1v2.7h-0.8
		V6.8C267.1,7.7,266.5,8.3,265.9,8.7z M267.2,2.1l0.4,1.5h1.1l0.4-1.5H267.2z M273.3,9.3V4.2h-1.6v0.5c0,1.9-0.5,3.5-1.5,4.6
		L269.7,9c0.4-0.5,0.7-1.1,0.9-1.8c0.2-0.7,0.3-1.5,0.3-2.3V1.4c1.6-0.2,2.8-0.5,3.7-0.8l0.4,0.6c-0.9,0.3-2,0.5-3.3,0.7v1.8h3.6
		v0.6H274v5.1H273.3z"/>
</g>
<g>
	<rect x="209" class="st4" width="10.9" height="11.8"/>
	<path d="M209.9,8.7l-0.4-0.4c0.3-0.3,0.7-0.6,1.2-1.1c0.4-0.5,0.8-0.9,1-1.3h-1.8V5.2h1.8v-1h-1.9V3.6h1l-0.4-1.5H210V1.5h1.8V0.5
		h0.7v0.9h1.8v0.6h-0.5l-0.5,1.5h1v0.6h-1.9v1h1.6v0.6h-1.6v0.2c0.4,0.4,0.9,0.8,1.5,1.2l-0.4,0.6c-0.5-0.4-0.9-0.7-1.2-1v2.7h-0.8
		V6.8C211.1,7.7,210.5,8.3,209.9,8.7z M211.2,2.1l0.4,1.5h1.1l0.4-1.5H211.2z M217.3,9.3V4.2h-1.6v0.5c0,1.9-0.5,3.5-1.5,4.6
		L213.7,9c0.4-0.5,0.7-1.1,0.9-1.8c0.2-0.7,0.3-1.5,0.3-2.3V1.4c1.6-0.2,2.8-0.5,3.7-0.8l0.4,0.6c-0.9,0.3-2,0.5-3.3,0.7v1.8h3.6
		v0.6H218v5.1H217.3z"/>
</g>
<g>
	<rect x="75" class="st4" width="10.9" height="11.8"/>
	<path d="M75.9,8.7l-0.4-0.4c0.3-0.3,0.7-0.6,1.2-1.1c0.4-0.5,0.8-0.9,1-1.3h-1.8V5.2h1.8v-1h-1.9V3.6h1l-0.4-1.5H76V1.5h1.8V0.5
		h0.7v0.9h1.8v0.6h-0.5l-0.5,1.5h1v0.6h-1.9v1h1.6v0.6h-1.6v0.2c0.4,0.4,0.9,0.8,1.5,1.2l-0.4,0.6c-0.5-0.4-0.9-0.7-1.2-1v2.7h-0.8
		V6.8C77.1,7.7,76.5,8.3,75.9,8.7z M77.2,2.1l0.4,1.5h1.1l0.4-1.5H77.2z M83.3,9.3V4.2h-1.6v0.5c0,1.9-0.5,3.5-1.5,4.6L79.7,9
		c0.4-0.5,0.7-1.1,0.9-1.8c0.2-0.7,0.3-1.5,0.3-2.3V1.4c1.6-0.2,2.8-0.5,3.7-0.8L85,1.2c-0.9,0.3-2,0.5-3.3,0.7v1.8h3.6v0.6H84v5.1
		H83.3z"/>
</g>
<g>
	<rect x="9" class="st4" width="10.9" height="11.8"/>
	<path d="M9.9,8.7L9.6,8.2c0.3-0.3,0.7-0.6,1.2-1.1c0.4-0.5,0.8-0.9,1-1.3H9.9V5.2h1.8v-1H9.8V3.6h1l-0.4-1.5H10V1.5h1.8V0.5h0.7
		v0.9h1.8v0.6h-0.5l-0.5,1.5h1v0.6h-1.9v1h1.6v0.6h-1.6v0.2c0.4,0.4,0.9,0.8,1.5,1.2l-0.4,0.6c-0.5-0.4-0.9-0.7-1.2-1v2.7h-0.8V6.8
		C11.1,7.7,10.5,8.3,9.9,8.7z M11.2,2.1l0.4,1.5h1.1l0.4-1.5H11.2z M17.3,9.3V4.2h-1.6v0.5c0,1.9-0.5,3.5-1.5,4.6L13.7,9
		c0.4-0.5,0.7-1.1,0.9-1.8c0.2-0.7,0.3-1.5,0.3-2.3V1.4c1.6-0.2,2.8-0.5,3.7-0.8L19,1.2c-0.9,0.3-2,0.5-3.3,0.7v1.8h3.6v0.6H18v5.1
		H17.3z"/>
</g>
<g>
	<rect x="451" class="st4" width="10.9" height="11.8"/>
	<path d="M451.9,8.7l-0.4-0.4c0.3-0.3,0.7-0.6,1.2-1.1c0.4-0.5,0.8-0.9,1-1.3h-1.8V5.2h1.8v-1h-1.9V3.6h1l-0.4-1.5H452V1.5h1.8V0.5
		h0.7v0.9h1.8v0.6h-0.5l-0.5,1.5h1v0.6h-1.9v1h1.6v0.6h-1.6v0.2c0.4,0.4,0.9,0.8,1.5,1.2l-0.4,0.6c-0.5-0.4-0.9-0.7-1.2-1v2.7h-0.8
		V6.8C453.1,7.7,452.5,8.3,451.9,8.7z M453.2,2.1l0.4,1.5h1.1l0.4-1.5H453.2z M459.3,9.3V4.2h-1.6v0.5c0,1.9-0.5,3.5-1.5,4.6
		L455.7,9c0.4-0.5,0.7-1.1,0.9-1.8c0.2-0.7,0.3-1.5,0.3-2.3V1.4c1.6-0.2,2.8-0.5,3.7-0.8l0.4,0.6c-0.9,0.3-2,0.5-3.3,0.7v1.8h3.6
		v0.6H460v5.1H459.3z"/>
</g>
<g>
	<rect x="385" class="st4" width="10.9" height="11.8"/>
	<path d="M385.9,8.7l-0.4-0.4c0.3-0.3,0.7-0.6,1.2-1.1c0.4-0.5,0.8-0.9,1-1.3h-1.8V5.2h1.8v-1h-1.9V3.6h1l-0.4-1.5H386V1.5h1.8V0.5
		h0.7v0.9h1.8v0.6h-0.5l-0.5,1.5h1v0.6h-1.9v1h1.6v0.6h-1.6v0.2c0.4,0.4,0.9,0.8,1.5,1.2l-0.4,0.6c-0.5-0.4-0.9-0.7-1.2-1v2.7h-0.8
		V6.8C387.1,7.7,386.5,8.3,385.9,8.7z M387.2,2.1l0.4,1.5h1.1l0.4-1.5H387.2z M393.3,9.3V4.2h-1.6v0.5c0,1.9-0.5,3.5-1.5,4.6
		L389.7,9c0.4-0.5,0.7-1.1,0.9-1.8c0.2-0.7,0.3-1.5,0.3-2.3V1.4c1.6-0.2,2.8-0.5,3.7-0.8l0.4,0.6c-0.9,0.3-2,0.5-3.3,0.7v1.8h3.6
		v0.6H394v5.1H393.3z"/>
</g>
<g>
	<rect x="360" class="st4" width="10.9" height="11.8"/>
	<path d="M360.9,8.7l-0.4-0.4c0.3-0.3,0.7-0.6,1.2-1.1c0.4-0.5,0.8-0.9,1-1.3h-1.8V5.2h1.8v-1h-1.9V3.6h1l-0.4-1.5H361V1.5h1.8V0.5
		h0.7v0.9h1.8v0.6h-0.5l-0.5,1.5h1v0.6h-1.9v1h1.6v0.6h-1.6v0.2c0.4,0.4,0.9,0.8,1.5,1.2l-0.4,0.6c-0.5-0.4-0.9-0.7-1.2-1v2.7h-0.8
		V6.8C362.1,7.7,361.5,8.3,360.9,8.7z M362.2,2.1l0.4,1.5h1.1l0.4-1.5H362.2z M368.3,9.3V4.2h-1.6v0.5c0,1.9-0.5,3.5-1.5,4.6
		L364.7,9c0.4-0.5,0.7-1.1,0.9-1.8c0.2-0.7,0.3-1.5,0.3-2.3V1.4c1.6-0.2,2.8-0.5,3.7-0.8l0.4,0.6c-0.9,0.3-2,0.5-3.3,0.7v1.8h3.6
		v0.6H369v5.1H368.3z"/>
</g>
<g>
</g>
<g>
</g>
<g>
</g>
<g>
</g>
<g>
</g>
<g>
</g>
<g>
</g>
<g>
</g>
<g>
</g>
<g>
</g>
<g>
</g>
<g>
</g>
<g>
</g>
<g>
</g>
<g>
</g>
<g>
</g>
<g>
</g>
<g>
</g>
</svg>
