<?xml version="1.0" encoding="utf-8"?>
<!-- Generator: Adobe Illustrator 16.0.0, SVG Export Plug-In . SVG Version: 6.00 Build 0)  -->
<!DOCTYPE svg PUBLIC "-//W3C//DTD SVG 1.1//EN" "http://www.w3.org/Graphics/SVG/1.1/DTD/svg11.dtd">
<svg version="1.1" id="レイヤー_1" xmlns="http://www.w3.org/2000/svg" xmlns:xlink="http://www.w3.org/1999/xlink" x="0px"
	 y="0px" width="471px" height="39.3px" viewBox="0 0 471 39.3" style="enable-background:new 0 0 471 39.3;" xml:space="preserve">
<style type="text/css">
<![CDATA[
	.st0{fill:#FFFFFF;stroke:#0000FF;stroke-miterlimit:10;}
	.st1{fill:#BBBBBB;}
	.st2{fill:#2B95FF;}
	.st3{fill:none;stroke:#000000;stroke-miterlimit:10;}
	.st4{fill:none;}
	.st5{fill:#BBEEEE;stroke:#000000;stroke-miterlimit:10;}
	.st6{fill:#0000FF;}
	.st7{fill:#99EE99;stroke:#000000;stroke-miterlimit:10;}
]]>
</style>
<rect x="0.5" y="8.8" class="st5" width="90" height="30"/>
<rect x="9" y="2.3" class="st1" width="11" height="6"/>
<rect x="95.5" y="8.8" class="st5" width="90" height="30"/>
<rect x="380.5" y="8.8" class="st5" width="90" height="30"/>
<g>
	<rect x="95.3" y="15.2" class="st4" width="62.1" height="17.2"/>
	<path d="M109.6,31.3c-1.6,0-2.7-0.6-3.4-1.7s-1.1-2.9-1.1-5.2s0.4-4.1,1.1-5.2s1.9-1.7,3.4-1.7c1.5,0,2.7,0.6,3.4,1.7
		c0.7,1.1,1.1,2.9,1.1,5.2c0,2.4-0.4,4.1-1.1,5.2C112.3,30.8,111.1,31.3,109.6,31.3z M109.6,18.9c-1,0-1.7,0.4-2.2,1.2
		c-0.5,0.8-0.7,2.2-0.7,4.4c0,2.1,0.2,3.5,0.7,4.3s1.2,1.2,2.2,1.2s1.7-0.4,2.2-1.2s0.7-2.3,0.7-4.4c0-2.1-0.2-3.5-0.7-4.3
		C111.3,19.3,110.6,18.9,109.6,18.9z"/>
	<path d="M125.3,19.6L119.4,31h-1.8l6.3-11.8h-7.6v-1.4h9V19.6z"/>
	<path d="M131.9,31.3c-1.6,0-2.7-0.6-3.4-1.7s-1.1-2.9-1.1-5.2s0.4-4.1,1.1-5.2s1.9-1.7,3.4-1.7c1.5,0,2.7,0.6,3.4,1.7
		c0.7,1.1,1.1,2.9,1.1,5.2c0,2.4-0.4,4.1-1.1,5.2C134.6,30.8,133.5,31.3,131.9,31.3z M131.9,18.9c-1,0-1.7,0.4-2.2,1.2
		c-0.5,0.8-0.7,2.2-0.7,4.4c0,2.1,0.2,3.5,0.7,4.3s1.2,1.2,2.2,1.2s1.7-0.4,2.2-1.2s0.7-2.3,0.7-4.4c0-2.1-0.2-3.5-0.7-4.3
		C133.7,19.3,132.9,18.9,131.9,18.9z"/>
	<path d="M138.8,30.5v-1.8h0.1c1.2,0.8,2.4,1.2,3.7,1.2c0.9,0,1.7-0.3,2.3-0.8s0.8-1.2,0.8-2.1c0-0.8-0.2-1.5-0.7-1.9
		s-1.3-0.6-2.4-0.6h-0.8v-1.4h0.6c0.9,0,1.7-0.2,2.2-0.6s0.8-1,0.8-1.7c0-0.6-0.2-1.1-0.7-1.4c-0.5-0.3-1.1-0.5-1.9-0.5
		c-1.2,0-2.4,0.4-3.5,1.2h-0.1v-1.7c1.2-0.6,2.4-0.8,3.7-0.8c1.4,0,2.4,0.3,3.2,0.9c0.7,0.6,1.1,1.3,1.1,2.3c0,0.7-0.2,1.4-0.7,1.9
		s-1.1,0.9-1.9,1.1v0.1c1.9,0.3,2.9,1.5,2.9,3.3c0,1.2-0.4,2.2-1.3,3s-2,1.2-3.4,1.2C141.4,31.3,140.1,31,138.8,30.5z"/>
</g>
<rect x="152.5" y="15.8" class="st0" width="31" height="17"/>
<g>
	<rect x="152.2" y="17.1" class="st4" width="31.1" height="14.4"/>
	<path class="st6" d="M154.7,28.6l-0.3-0.8c1.3-0.3,2.6-0.7,4-1.3l0.2,0.7C157.7,27.6,156.4,28.1,154.7,28.6z M156.7,30.2l-0.1-0.9
		h1.3c0.6,0,1-0.3,1.1-0.8c0.1-0.5,0.2-1.8,0.2-3.7v-0.9H155l0.3-3.2h3.6v-1.5h-4v-0.8h5v3.1h-3.7l-0.2,1.7h4.1v2
		c0,0.7,0,1.4-0.1,2.1c0,0.7-0.1,1.2-0.2,1.6c-0.1,0.4-0.2,0.7-0.3,0.8c-0.1,0.1-0.3,0.3-0.5,0.4c-0.2,0.1-0.5,0.2-0.8,0.2H156.7z
		 M156.7,26.3l-1.4-1.7l0.8-0.5l1.4,1.6L156.7,26.3z M160.9,28.6l-0.3-0.8c1.4-0.4,2.8-0.8,4-1.3l0.2,0.8c-0.4,0.2-1,0.4-1.9,0.7
		C162.2,28.3,161.5,28.5,160.9,28.6z M162.9,30.2l-0.1-0.9h1.3c0.6,0,1-0.3,1.1-0.8c0.1-0.5,0.2-1.8,0.2-3.7v-0.9h-4.2l0.3-3.2h3.7
		v-1.5h-4v-0.8h5.1v3.1h-3.7l-0.2,1.7h4.2v1.4c0,1.4,0,2.5-0.1,3.2c-0.1,0.7-0.2,1.2-0.2,1.5c-0.1,0.3-0.3,0.6-0.6,0.7
		c-0.3,0.2-0.7,0.3-1,0.3H162.9z M163,26.3l-1.4-1.7l0.8-0.5l1.4,1.6L163,26.3z"/>
	<path class="st2" d="M169.1,29.1l-1-0.6c0.3-0.5,0.7-1.2,1.2-2.1c0.4-0.9,0.8-1.7,1-2.4l0.9,0.4c-0.2,0.7-0.6,1.5-1,2.5
		S169.4,28.6,169.1,29.1z M170.3,21.5c-0.6-0.8-1.2-1.6-1.9-2.3l0.9-0.6c0.6,0.6,1.3,1.3,1.9,2.2L170.3,21.5z M176.7,17.8
		c0.5,0.9,1.3,1.7,2.2,2.4s1.8,1.3,2.6,1.7l-0.7,0.8c-0.8-0.4-1.7-1.1-2.7-1.8c-0.9-0.8-1.7-1.6-2.2-2.3c-0.5,0.8-1.2,1.6-2.1,2.4
		c-0.9,0.8-1.8,1.4-2.6,1.8l-0.5-0.7c0.8-0.4,1.6-1,2.4-1.8s1.6-1.6,2.1-2.5H176.7z M174.6,30.2v-5.3H172v-0.9h8.3v4
		c0,0.3-0.1,0.6-0.4,0.8c-0.2,0.2-0.5,0.3-0.9,0.3h-1.7l-0.1-0.9h1.4c0.2,0,0.3-0.1,0.4-0.2c0.1-0.1,0.2-0.2,0.2-0.4v-2.8h-3.5v5.3
		H174.6z M173.3,22.5v-0.8h5.8v0.8H173.3z"/>
</g>
<g>
	<rect x="0.2" y="15.2" class="st4" width="90.3" height="17.2"/>
	<path d="M26.4,24v-0.1c-1.4-0.8-2.1-1.7-2.1-3c0-1,0.4-1.8,1.2-2.5s1.8-1,3.1-1c1.3,0,2.3,0.3,3.1,0.9s1.2,1.4,1.2,2.4
		c0,0.6-0.2,1.2-0.6,1.8c-0.4,0.6-0.9,1-1.6,1.3v0.1c1.7,0.7,2.6,1.8,2.6,3.3c0,1.1-0.4,2.1-1.3,2.8c-0.9,0.8-2,1.1-3.3,1.1
		c-1.4,0-2.5-0.4-3.4-1.1c-0.8-0.7-1.3-1.7-1.3-2.8C23.9,25.9,24.7,24.8,26.4,24z M27.4,24.3c-1.2,0.7-1.9,1.7-1.9,3
		c0,0.8,0.3,1.5,0.8,2.1c0.6,0.5,1.3,0.8,2.2,0.8c0.9,0,1.6-0.2,2.1-0.7c0.5-0.5,0.8-1.1,0.8-1.9c0-0.5-0.1-1-0.4-1.3
		c-0.2-0.3-0.6-0.6-1.1-0.8S28.7,24.8,27.4,24.3z M31.2,20.8c0-0.6-0.2-1.2-0.7-1.6s-1.1-0.6-2-0.6c-0.8,0-1.4,0.2-1.9,0.6
		c-0.5,0.4-0.7,0.9-0.7,1.5c0,0.7,0.3,1.2,0.9,1.7s1.5,0.8,2.8,1.2C30.7,23,31.2,22,31.2,20.8z"/>
	<path d="M43.2,17.8v1.6h-0.1C42.6,19.1,42,19,41.4,19c-1.3,0-2.3,0.4-3.1,1.2c-0.8,0.8-1.2,2-1.4,3.4c1.1-0.7,2.2-1,3.2-1
		c1.3,0,2.3,0.4,3.1,1.1c0.8,0.7,1.2,1.7,1.2,3.1c0,1.3-0.4,2.4-1.3,3.3s-1.9,1.3-3.2,1.3c-1.5,0-2.7-0.5-3.5-1.6
		c-0.8-1-1.2-2.5-1.2-4.5c0-2.4,0.6-4.3,1.7-5.7c1.1-1.3,2.7-2,4.8-2C42.3,17.5,42.8,17.6,43.2,17.8z M36.9,24.7c0,0.5,0,0.8,0,0.9
		c0,1.4,0.3,2.5,0.8,3.2C38.3,29.6,39,30,40,30c0.9,0,1.6-0.3,2.1-0.8c0.5-0.6,0.8-1.3,0.8-2.3c0-0.8-0.2-1.5-0.7-2S40.8,24,39.7,24
		C38.8,24,37.8,24.2,36.9,24.7z"/>
	<path d="M55.8,27.2h-1.9V31h-1.6v-3.8h-6.4v-1.8l6.4-7.6h1.5v8.1h1.9V27.2z M52.2,25.9v-6.2L47,25.9H52.2z"/>
	<path d="M65.9,31h-7v-1.2h2.8v-9.1h-2.8v-1.1c1.1,0,1.8-0.2,2.3-0.5c0.5-0.3,0.7-0.8,0.8-1.4h1.2v12.1h2.7V31z"/>
</g>
<g>
	<rect x="380" y="15.2" class="st4" width="90.3" height="17.2"/>
	<path d="M406.2,24v-0.1c-1.4-0.8-2.1-1.7-2.1-3c0-1,0.4-1.8,1.2-2.5s1.8-1,3.1-1c1.3,0,2.3,0.3,3.1,0.9s1.2,1.4,1.2,2.4
		c0,0.6-0.2,1.3-0.6,1.8c-0.4,0.6-0.9,1-1.6,1.3v0.1c1.7,0.7,2.6,1.8,2.6,3.3c0,1.1-0.4,2.1-1.3,2.8c-0.9,0.8-2,1.1-3.3,1.1
		c-1.4,0-2.5-0.4-3.4-1.1c-0.8-0.7-1.3-1.7-1.3-2.8C403.8,25.9,404.6,24.8,406.2,24z M407.3,24.3c-1.2,0.7-1.9,1.7-1.9,3
		c0,0.8,0.3,1.5,0.8,2.1c0.6,0.5,1.3,0.8,2.2,0.8c0.9,0,1.6-0.2,2.1-0.7c0.5-0.5,0.8-1.1,0.8-1.9c0-0.5-0.1-1-0.4-1.3
		c-0.2-0.3-0.6-0.6-1-0.8C409.5,25.2,408.6,24.8,407.3,24.3z M411.1,20.8c0-0.6-0.2-1.2-0.7-1.6s-1.1-0.6-2-0.6
		c-0.8,0-1.4,0.2-1.9,0.6c-0.5,0.4-0.7,0.9-0.7,1.5c0,0.7,0.3,1.2,0.9,1.7s1.5,0.8,2.8,1.2C410.5,23,411.1,22,411.1,20.8z"/>
	<path d="M415.5,30.5v-1.8h0.1c1.1,0.7,2.3,1.1,3.6,1.1c0.9,0,1.7-0.3,2.3-0.8c0.6-0.5,0.9-1.3,0.9-2.2c0-1.7-1.2-2.6-3.6-2.6
		c-0.7,0-1.6,0.1-2.7,0.4v-6.8h7.9v1.4h-6.3V23c0.8-0.1,1.3-0.1,1.6-0.1c1.6,0,2.8,0.3,3.6,1s1.2,1.7,1.2,3c0,1.3-0.4,2.4-1.3,3.2
		c-0.9,0.8-2,1.2-3.5,1.2C417.9,31.3,416.6,31.1,415.5,30.5z"/>
	<path d="M435.6,27.2h-1.9V31h-1.6v-3.8h-6.4v-1.8l6.4-7.6h1.5v8.1h1.9V27.2z M432.1,25.9v-6.2l-5.3,6.2H432.1z"/>
	<path d="M445.7,31h-7v-1.2h2.8v-9.1h-2.8v-1.1c1.1,0,1.8-0.2,2.3-0.5c0.5-0.3,0.7-0.8,0.8-1.4h1.2v12.1h2.7V31z"/>
</g>
<rect x="75" y="2.3" class="st1" width="11" height="6"/>
<rect x="53" y="2.3" class="st1" width="11" height="6"/>
<rect x="31" y="2.3" class="st1" width="11" height="6"/>
<line class="st3" x1="389.7" y1="0.4" x2="382.7" y2="4.5"/>
<line class="st3" x1="382.7" y1="4.5" x2="388.7" y2="7.5"/>
<line class="st3" x1="104.7" y1="0.4" x2="97.7" y2="4.5"/>
<line class="st3" x1="97.7" y1="4.5" x2="103.7" y2="7.5"/>
<rect x="126" y="2.3" class="st1" width="11" height="6"/>
<rect x="148" y="2.3" class="st1" width="11" height="6"/>
<rect x="170" y="2.3" class="st1" width="11" height="6"/>
<rect x="114" y="2.3" class="st1" width="11" height="6"/>
<rect x="399" y="2.3" width="11" height="6"/>
<rect x="411" y="2.3" width="11" height="6"/>
<rect x="429" y="2.3" width="11" height="6"/>
<rect x="451" y="2.3" class="st1" width="11" height="6"/>
<rect x="285.5" y="8.8" class="st5" width="90" height="30"/>
<rect x="294" y="2.3" class="st1" width="11" height="6"/>
<g>
	<rect x="285.2" y="15.2" class="st4" width="90.3" height="17.2"/>
	<path d="M313.6,31.3c-1.6,0-2.7-0.6-3.4-1.7s-1.1-2.9-1.1-5.2s0.4-4.1,1.1-5.2s1.9-1.7,3.4-1.7c1.5,0,2.7,0.6,3.4,1.7
		c0.7,1.1,1.1,2.9,1.1,5.2c0,2.4-0.4,4.1-1.1,5.2C316.3,30.8,315.1,31.3,313.6,31.3z M313.6,18.9c-1,0-1.7,0.4-2.2,1.2
		c-0.5,0.8-0.7,2.2-0.7,4.4c0,2.1,0.2,3.5,0.7,4.3s1.2,1.2,2.2,1.2s1.7-0.4,2.2-1.2s0.7-2.3,0.7-4.4c0-2.1-0.2-3.5-0.7-4.3
		C315.3,19.3,314.6,18.9,313.6,18.9z"/>
	<path d="M322.5,24v-0.1c-1.4-0.8-2.1-1.7-2.1-3c0-1,0.4-1.8,1.2-2.5s1.8-1,3.1-1c1.3,0,2.3,0.3,3.1,0.9s1.2,1.4,1.2,2.4
		c0,0.6-0.2,1.2-0.6,1.8c-0.4,0.6-0.9,1-1.6,1.3v0.1c1.7,0.7,2.6,1.8,2.6,3.3c0,1.1-0.4,2.1-1.3,2.8c-0.9,0.8-2,1.1-3.3,1.1
		c-1.4,0-2.5-0.4-3.4-1.1c-0.8-0.7-1.3-1.7-1.3-2.8C320.1,25.9,320.9,24.8,322.5,24z M323.6,24.3c-1.2,0.7-1.9,1.7-1.9,3
		c0,0.8,0.3,1.5,0.8,2.1c0.6,0.5,1.3,0.8,2.2,0.8c0.9,0,1.6-0.2,2.1-0.7c0.5-0.5,0.8-1.1,0.8-1.9c0-0.5-0.1-1-0.4-1.3
		c-0.2-0.3-0.6-0.6-1.1-0.8S324.9,24.8,323.6,24.3z M327.4,20.8c0-0.6-0.2-1.2-0.7-1.6s-1.1-0.6-2-0.6c-0.8,0-1.4,0.2-1.9,0.6
		c-0.5,0.4-0.7,0.9-0.7,1.5c0,0.7,0.3,1.2,0.9,1.7s1.5,0.8,2.8,1.2C326.9,23,327.4,22,327.4,20.8z"/>
	<path d="M335.9,31.3c-1.6,0-2.7-0.6-3.4-1.7s-1.1-2.9-1.1-5.2s0.4-4.1,1.1-5.2s1.9-1.7,3.4-1.7c1.5,0,2.7,0.6,3.4,1.7
		c0.7,1.1,1.1,2.9,1.1,5.2c0,2.4-0.4,4.1-1.1,5.2C338.6,30.8,337.5,31.3,335.9,31.3z M335.9,18.9c-1,0-1.7,0.4-2.2,1.2
		c-0.5,0.8-0.7,2.2-0.7,4.4c0,2.1,0.2,3.5,0.7,4.3s1.2,1.2,2.2,1.2s1.7-0.4,2.2-1.2s0.7-2.3,0.7-4.4c0-2.1-0.2-3.5-0.7-4.3
		C337.7,19.3,336.9,18.9,335.9,18.9z"/>
	<path d="M351.7,19.6L345.7,31H344l6.3-11.8h-7.6v-1.4h9V19.6z"/>
</g>
<rect x="360" y="2.3" class="st1" width="11" height="6"/>
<rect x="338" y="2.3" class="st1" width="11" height="6"/>
<rect x="316" y="2.3" class="st1" width="11" height="6"/>
<rect x="190.5" y="8.8" class="st7" width="90" height="30"/>
<rect x="199" y="2.3" class="st1" width="11" height="6"/>
<g>
	<rect x="190.2" y="15.2" class="st4" width="90.3" height="17.2"/>
	<path d="M216.4,24v-0.1c-1.4-0.8-2.1-1.7-2.1-3c0-1,0.4-1.8,1.2-2.5s1.8-1,3.1-1c1.3,0,2.3,0.3,3.1,0.9s1.2,1.4,1.2,2.4
		c0,0.6-0.2,1.2-0.6,1.8c-0.4,0.6-0.9,1-1.6,1.3v0.1c1.7,0.7,2.6,1.8,2.6,3.3c0,1.1-0.4,2.1-1.3,2.8c-0.9,0.8-2,1.1-3.3,1.1
		c-1.4,0-2.5-0.4-3.4-1.1c-0.8-0.7-1.3-1.7-1.3-2.8C213.9,25.9,214.7,24.8,216.4,24z M217.4,24.3c-1.2,0.7-1.9,1.7-1.9,3
		c0,0.8,0.3,1.5,0.8,2.1c0.6,0.5,1.3,0.8,2.2,0.8c0.9,0,1.6-0.2,2.1-0.7c0.5-0.5,0.8-1.1,0.8-1.9c0-0.5-0.1-1-0.4-1.3
		c-0.2-0.3-0.6-0.6-1.1-0.8S218.7,24.8,217.4,24.3z M221.2,20.8c0-0.6-0.2-1.2-0.7-1.6s-1.1-0.6-2-0.6c-0.8,0-1.4,0.2-1.9,0.6
		c-0.5,0.4-0.7,0.9-0.7,1.5c0,0.7,0.3,1.2,0.9,1.7s1.5,0.8,2.8,1.2C220.7,23,221.2,22,221.2,20.8z"/>
	<path d="M226.3,31.1v-1.6h0.1c0.5,0.2,1.1,0.4,1.7,0.4c2.7,0,4.2-1.6,4.5-4.7c-1.2,0.7-2.3,1.1-3.2,1.1c-1.3,0-2.4-0.4-3.2-1.1
		c-0.8-0.7-1.2-1.8-1.2-3c0-1.3,0.4-2.4,1.3-3.3s1.9-1.3,3.2-1.3c1.5,0,2.6,0.5,3.5,1.5c0.8,1,1.3,2.5,1.3,4.6
		c0,2.4-0.6,4.3-1.7,5.7s-2.7,2-4.8,2C227.2,31.3,226.7,31.2,226.3,31.1z M232.6,24.1l0-0.8c0-1.4-0.3-2.5-0.8-3.3
		c-0.5-0.8-1.3-1.1-2.3-1.1c-0.9,0-1.6,0.3-2.1,0.8c-0.5,0.6-0.8,1.3-0.8,2.3c0,0.8,0.2,1.5,0.7,2.1c0.5,0.5,1.3,0.8,2.4,0.8
		C230.7,24.9,231.6,24.6,232.6,24.1z"/>
	<path d="M245.5,19.6L239.6,31h-1.8l6.3-11.8h-7.6v-1.4h9V19.6z"/>
	<path d="M249.9,24v-0.1c-1.4-0.8-2.1-1.7-2.1-3c0-1,0.4-1.8,1.2-2.5s1.8-1,3.1-1c1.3,0,2.3,0.3,3.1,0.9s1.2,1.4,1.2,2.4
		c0,0.6-0.2,1.2-0.6,1.8c-0.4,0.6-0.9,1-1.6,1.3v0.1c1.7,0.7,2.6,1.8,2.6,3.3c0,1.1-0.4,2.1-1.3,2.8c-0.9,0.8-2,1.1-3.3,1.1
		c-1.4,0-2.5-0.4-3.4-1.1c-0.8-0.7-1.3-1.7-1.3-2.8C247.4,25.9,248.3,24.8,249.9,24z M251,24.3c-1.2,0.7-1.9,1.7-1.9,3
		c0,0.8,0.3,1.5,0.8,2.1c0.6,0.5,1.3,0.8,2.2,0.8c0.9,0,1.6-0.2,2.1-0.7c0.5-0.5,0.8-1.1,0.8-1.9c0-0.5-0.1-1-0.4-1.3
		c-0.2-0.3-0.6-0.6-1.1-0.8S252.3,24.8,251,24.3z M254.8,20.8c0-0.6-0.2-1.2-0.7-1.6s-1.1-0.6-2-0.6c-0.8,0-1.4,0.2-1.9,0.6
		c-0.5,0.4-0.7,0.9-0.7,1.5c0,0.7,0.3,1.2,0.9,1.7s1.5,0.8,2.8,1.2C254.2,23,254.8,22,254.8,20.8z"/>
</g>
<rect x="265" y="2.3" width="11" height="6"/>
<rect x="243" y="2.3" class="st1" width="11" height="6"/>
<rect x="221" y="2.3" class="st1" width="11" height="6"/>
<g>
</g>
<g>
</g>
<g>
</g>
<g>
</g>
<g>
</g>
<g>
</g>
<g>
</g>
<g>
</g>
<g>
</g>
<g>
</g>
<g>
</g>
<g>
</g>
<g>
</g>
<g>
</g>
<g>
</g>
<g>
</g>
<g>
</g>
<g>
</g>
</svg>
