<?xml version="1.0" encoding="utf-8"?>
<!-- Generator: Adobe Illustrator 16.0.0, SVG Export Plug-In . SVG Version: 6.00 Build 0)  -->
<!DOCTYPE svg PUBLIC "-//W3C//DTD SVG 1.1//EN" "http://www.w3.org/Graphics/SVG/1.1/DTD/svg11.dtd">
<svg version="1.1" id="レイヤー_1" xmlns="http://www.w3.org/2000/svg" xmlns:xlink="http://www.w3.org/1999/xlink" x="0px"
	 y="0px" width="376px" height="48.6px" viewBox="0 0 376 48.6" style="enable-background:new 0 0 376 48.6;" xml:space="preserve">
<style type="text/css">
<![CDATA[
	.st0{fill:#FFFFFF;stroke:#0000FF;stroke-miterlimit:10;}
	.st1{fill:#2B95FF;}
	.st2{fill:#FF0000;}
	.st3{fill:none;stroke:#000000;stroke-miterlimit:10;}
	.st4{fill:none;}
	.st5{fill:#BBEEEE;stroke:#000000;stroke-miterlimit:10;}
	.st6{fill:#0000FF;}
	.st7{fill:#99EE99;stroke:#000000;stroke-miterlimit:10;}
]]>
</style>
<rect x="0.5" y="18.1" class="st5" width="90" height="30"/>
<rect x="9" y="11.6" class="st2" width="11" height="6"/>
<rect x="95.5" y="18.1" class="st5" width="90" height="30"/>
<g>
	<rect x="95.3" y="24.6" class="st4" width="62.1" height="17.2"/>
	<path d="M107.4,33.3v-0.1c-1.4-0.8-2.1-1.7-2.1-3c0-1,0.4-1.8,1.2-2.5s1.8-1,3.1-1c1.3,0,2.3,0.3,3.1,0.9s1.2,1.4,1.2,2.4
		c0,0.6-0.2,1.3-0.6,1.8c-0.4,0.6-0.9,1-1.6,1.3v0.1c1.7,0.7,2.6,1.8,2.6,3.3c0,1.1-0.4,2.1-1.3,2.8c-0.9,0.8-2,1.1-3.3,1.1
		c-1.4,0-2.5-0.4-3.4-1.1c-0.8-0.7-1.3-1.7-1.3-2.8C104.9,35.2,105.7,34.1,107.4,33.3z M108.4,33.6c-1.2,0.7-1.9,1.7-1.9,3
		c0,0.8,0.3,1.5,0.8,2.1c0.6,0.5,1.3,0.8,2.2,0.8c0.9,0,1.6-0.2,2.1-0.7c0.5-0.5,0.8-1.1,0.8-1.9c0-0.5-0.1-1-0.4-1.3
		c-0.2-0.3-0.6-0.6-1.1-0.8S109.7,34.1,108.4,33.6z M112.2,30.2c0-0.6-0.2-1.2-0.7-1.6s-1.1-0.6-2-0.6c-0.8,0-1.4,0.2-1.9,0.6
		c-0.5,0.4-0.7,0.9-0.7,1.5c0,0.7,0.3,1.2,0.9,1.7s1.5,0.8,2.8,1.2C111.7,32.3,112.2,31.3,112.2,30.2z"/>
	<path d="M125.3,28.9l-5.9,11.4h-1.8l6.3-11.8h-7.6v-1.4h9V28.9z"/>
	<path d="M128.5,40.4v-1.6h0.1c0.5,0.2,1.1,0.4,1.7,0.4c2.7,0,4.2-1.6,4.5-4.7c-1.2,0.7-2.3,1.1-3.2,1.1c-1.3,0-2.4-0.4-3.2-1.1
		c-0.8-0.7-1.2-1.8-1.2-3c0-1.3,0.4-2.4,1.3-3.3s1.9-1.3,3.2-1.3c1.5,0,2.6,0.5,3.5,1.5c0.8,1,1.3,2.5,1.3,4.6
		c0,2.4-0.6,4.3-1.7,5.7s-2.7,2-4.8,2C129.4,40.6,128.9,40.5,128.5,40.4z M134.8,33.4l0-0.8c0-1.4-0.3-2.5-0.8-3.3
		c-0.5-0.8-1.3-1.1-2.3-1.1c-0.9,0-1.6,0.3-2.1,0.8c-0.5,0.6-0.8,1.3-0.8,2.3c0,0.8,0.2,1.5,0.7,2.1c0.5,0.5,1.3,0.8,2.4,0.8
		C132.8,34.2,133.8,33.9,134.8,33.4z"/>
	<path d="M147.7,28.9l-5.9,11.4H140l6.3-11.8h-7.6v-1.4h9V28.9z"/>
</g>
<rect x="152.5" y="25.1" class="st0" width="31" height="17"/>
<g>
	<rect x="152.2" y="26.4" class="st4" width="31.1" height="14.4"/>
	<path class="st6" d="M154.7,37.9l-0.3-0.8c1.3-0.3,2.6-0.7,4-1.3l0.2,0.7C157.7,36.9,156.4,37.4,154.7,37.9z M156.7,39.5l-0.1-0.9
		h1.3c0.6,0,1-0.3,1.1-0.8c0.1-0.5,0.2-1.8,0.2-3.7v-0.9H155l0.3-3.2h3.6v-1.5h-4v-0.8h5v3.1h-3.7l-0.2,1.7h4.1v2
		c0,0.7,0,1.4-0.1,2.1c0,0.7-0.1,1.2-0.2,1.6c-0.1,0.4-0.2,0.7-0.3,0.8c-0.1,0.1-0.3,0.3-0.5,0.4c-0.2,0.1-0.5,0.2-0.8,0.2H156.7z
		 M156.7,35.6l-1.4-1.7l0.8-0.5l1.4,1.6L156.7,35.6z M161,37.9l-0.3-0.8c1.4-0.4,2.8-0.8,4-1.3l0.2,0.8c-0.4,0.2-1,0.4-1.9,0.7
		C162.2,37.6,161.5,37.8,161,37.9z M162.9,39.5l-0.1-0.9h1.3c0.6,0,1-0.3,1.1-0.8c0.1-0.5,0.2-1.8,0.2-3.7v-0.9h-4.2l0.3-3.2h3.7
		v-1.5h-4v-0.8h5.1v3.1h-3.7l-0.2,1.7h4.2v1.4c0,1.4,0,2.5-0.1,3.2c-0.1,0.7-0.2,1.2-0.2,1.5c-0.1,0.3-0.3,0.6-0.6,0.7
		c-0.3,0.2-0.7,0.3-1,0.3H162.9z M163,35.6l-1.4-1.7l0.8-0.5l1.4,1.6L163,35.6z"/>
	<path class="st1" d="M169.1,38.4l-1-0.6c0.3-0.5,0.7-1.2,1.2-2.1c0.4-0.9,0.8-1.7,1-2.4l0.9,0.4c-0.2,0.7-0.6,1.5-1,2.5
		S169.4,37.9,169.1,38.4z M170.3,30.8c-0.6-0.8-1.2-1.6-1.9-2.3l0.9-0.6c0.6,0.6,1.3,1.3,1.9,2.2L170.3,30.8z M176.7,27.1
		c0.5,0.9,1.3,1.7,2.2,2.4s1.8,1.3,2.6,1.7l-0.7,0.8c-0.8-0.4-1.7-1.1-2.7-1.8c-0.9-0.8-1.7-1.6-2.2-2.3c-0.5,0.8-1.2,1.6-2.1,2.4
		c-0.9,0.8-1.8,1.4-2.6,1.8l-0.5-0.7c0.8-0.4,1.6-1,2.4-1.8s1.6-1.6,2.1-2.5H176.7z M174.6,39.6v-5.3H172v-0.9h8.3v4
		c0,0.3-0.1,0.6-0.4,0.8c-0.2,0.2-0.5,0.3-0.9,0.3h-1.7l-0.1-0.9h1.4c0.2,0,0.3-0.1,0.4-0.2c0.1-0.1,0.2-0.2,0.2-0.4v-2.8h-3.5v5.3
		H174.6z M173.3,31.8v-0.8h5.8v0.8H173.3z"/>
</g>
<g>
	<rect x="0.2" y="24.6" class="st4" width="90.3" height="17.2"/>
	<path d="M26.4,33.3v-0.1c-1.4-0.8-2.1-1.7-2.1-3c0-1,0.4-1.8,1.2-2.5s1.8-1,3.1-1c1.3,0,2.3,0.3,3.1,0.9s1.2,1.4,1.2,2.4
		c0,0.6-0.2,1.2-0.6,1.8c-0.4,0.6-0.9,1-1.6,1.3v0.1c1.7,0.7,2.6,1.8,2.6,3.3c0,1.1-0.4,2.1-1.3,2.8c-0.9,0.8-2,1.1-3.3,1.1
		c-1.4,0-2.5-0.4-3.4-1.1c-0.8-0.7-1.3-1.7-1.3-2.8C23.9,35.2,24.7,34.1,26.4,33.3z M27.4,33.6c-1.2,0.7-1.9,1.7-1.9,3
		c0,0.8,0.3,1.5,0.8,2.1c0.6,0.5,1.3,0.8,2.2,0.8c0.9,0,1.6-0.2,2.1-0.7c0.5-0.5,0.8-1.1,0.8-1.9c0-0.5-0.1-1-0.4-1.3
		c-0.2-0.3-0.6-0.6-1.1-0.8S28.7,34.1,27.4,33.6z M31.2,30.2c0-0.6-0.2-1.2-0.7-1.6s-1.1-0.6-2-0.6c-0.8,0-1.4,0.2-1.9,0.6
		c-0.5,0.4-0.7,0.9-0.7,1.5c0,0.7,0.3,1.2,0.9,1.7s1.5,0.8,2.8,1.2C30.7,32.3,31.2,31.3,31.2,30.2z"/>
	<path d="M43.2,27.1v1.6h-0.1c-0.5-0.2-1.1-0.4-1.7-0.4c-1.3,0-2.3,0.4-3.1,1.2c-0.8,0.8-1.2,2-1.4,3.4c1.1-0.7,2.2-1,3.2-1
		c1.3,0,2.3,0.4,3.1,1.1c0.8,0.7,1.2,1.7,1.2,3.1c0,1.3-0.4,2.4-1.3,3.3s-1.9,1.3-3.2,1.3c-1.5,0-2.7-0.5-3.5-1.6
		c-0.8-1-1.2-2.5-1.2-4.5c0-2.4,0.6-4.3,1.7-5.7c1.1-1.3,2.7-2,4.8-2C42.3,26.9,42.8,26.9,43.2,27.1z M36.9,34.1c0,0.5,0,0.8,0,0.9
		c0,1.4,0.3,2.5,0.8,3.2c0.5,0.8,1.3,1.1,2.3,1.1c0.9,0,1.6-0.3,2.1-0.8c0.5-0.6,0.8-1.3,0.8-2.3c0-0.8-0.2-1.5-0.7-2
		s-1.3-0.8-2.4-0.8C38.8,33.3,37.8,33.5,36.9,34.1z"/>
	<path d="M46.7,39.8V38h0.1c1.2,0.8,2.4,1.2,3.7,1.2c0.9,0,1.7-0.3,2.3-0.8s0.8-1.2,0.8-2.1c0-0.8-0.2-1.5-0.7-1.9s-1.3-0.6-2.4-0.6
		h-0.8v-1.4h0.6c0.9,0,1.7-0.2,2.2-0.6s0.8-1,0.8-1.7c0-0.6-0.2-1.1-0.7-1.4c-0.5-0.3-1.1-0.5-1.9-0.5c-1.2,0-2.4,0.4-3.5,1.2H47
		v-1.7c1.2-0.6,2.4-0.8,3.7-0.8c1.4,0,2.4,0.3,3.2,0.9C54.6,28.3,55,29,55,30c0,0.7-0.2,1.4-0.7,1.9s-1.1,0.9-1.9,1.1v0.1
		c1.9,0.3,2.9,1.5,2.9,3.3c0,1.2-0.4,2.2-1.3,3s-2,1.2-3.4,1.2C49.2,40.6,47.9,40.4,46.7,39.8z"/>
	<path d="M66.7,28.9l-5.9,11.4H59l6.3-11.8h-7.6v-1.4h9V28.9z"/>
</g>
<line class="st3" x1="104.7" y1="9.7" x2="97.7" y2="13.8"/>
<line class="st3" x1="104.7" y1="9.7" x2="111.5" y2="13.8"/>
<line class="st3" x1="111.5" y1="13.8" x2="106.4" y2="16.8"/>
<line class="st3" x1="97.7" y1="13.8" x2="102.9" y2="16.8"/>
<rect x="75" y="11.6" width="11" height="6"/>
<rect x="53" y="11.6" width="11" height="6"/>
<rect x="31" y="11.6" width="11" height="6"/>
<rect x="126" y="11.6" width="11" height="6"/>
<rect x="148" y="11.6" width="11" height="6"/>
<rect x="170" y="11.6" width="11" height="6"/>
<rect x="114" y="11.6" width="11" height="6"/>
<rect x="190.5" y="18.1" class="st7" width="90" height="30"/>
<g>
	<rect x="190.1" y="24.6" class="st4" width="90.3" height="17.2"/>
	<path d="M216.3,33.3v-0.1c-1.4-0.8-2.1-1.7-2.1-3c0-1,0.4-1.8,1.2-2.5s1.8-1,3.1-1c1.3,0,2.3,0.3,3.1,0.9s1.2,1.4,1.2,2.4
		c0,0.6-0.2,1.3-0.6,1.8c-0.4,0.6-0.9,1-1.6,1.3v0.1c1.7,0.7,2.6,1.8,2.6,3.3c0,1.1-0.4,2.1-1.3,2.8c-0.9,0.8-2,1.1-3.3,1.1
		c-1.4,0-2.5-0.4-3.4-1.1c-0.8-0.7-1.3-1.7-1.3-2.8C213.8,35.2,214.6,34.1,216.3,33.3z M217.3,33.6c-1.2,0.7-1.9,1.7-1.9,3
		c0,0.8,0.3,1.5,0.8,2.1c0.6,0.5,1.3,0.8,2.2,0.8c0.9,0,1.6-0.2,2.1-0.7c0.5-0.5,0.8-1.1,0.8-1.9c0-0.5-0.1-1-0.4-1.3
		c-0.2-0.3-0.6-0.6-1.1-0.8S218.7,34.1,217.3,33.6z M221.1,30.2c0-0.6-0.2-1.2-0.7-1.6s-1.1-0.6-2-0.6c-0.8,0-1.4,0.2-1.9,0.6
		c-0.5,0.4-0.7,0.9-0.7,1.5c0,0.7,0.3,1.2,0.9,1.7s1.5,0.8,2.8,1.2C220.6,32.3,221.1,31.3,221.1,30.2z"/>
	<path d="M226.2,40.4v-1.6h0.1c0.5,0.2,1.1,0.4,1.7,0.4c2.7,0,4.2-1.6,4.5-4.7c-1.2,0.7-2.3,1.1-3.2,1.1c-1.3,0-2.4-0.4-3.2-1.1
		c-0.8-0.7-1.2-1.8-1.2-3c0-1.3,0.4-2.4,1.3-3.3s1.9-1.3,3.2-1.3c1.5,0,2.6,0.5,3.5,1.5c0.8,1,1.3,2.5,1.3,4.6
		c0,2.4-0.6,4.3-1.7,5.7s-2.7,2-4.8,2C227.1,40.6,226.6,40.5,226.2,40.4z M232.5,33.4l0-0.8c0-1.4-0.3-2.5-0.8-3.3
		c-0.5-0.8-1.3-1.1-2.3-1.1c-0.9,0-1.6,0.3-2.1,0.8c-0.5,0.6-0.8,1.3-0.8,2.3c0,0.8,0.2,1.5,0.7,2.1c0.5,0.5,1.3,0.8,2.4,0.8
		C230.6,34.2,231.5,33.9,232.5,33.4z"/>
	<path d="M238.6,33.3v-0.1c-1.4-0.8-2.1-1.7-2.1-3c0-1,0.4-1.8,1.2-2.5s1.8-1,3.1-1c1.3,0,2.3,0.3,3.1,0.9s1.2,1.4,1.2,2.4
		c0,0.6-0.2,1.3-0.6,1.8c-0.4,0.6-0.9,1-1.6,1.3v0.1c1.7,0.7,2.6,1.8,2.6,3.3c0,1.1-0.4,2.1-1.3,2.8c-0.9,0.8-2,1.1-3.3,1.1
		c-1.4,0-2.5-0.4-3.4-1.1c-0.8-0.7-1.3-1.7-1.3-2.8C236.2,35.2,237,34.1,238.6,33.3z M239.7,33.6c-1.2,0.7-1.9,1.7-1.9,3
		c0,0.8,0.3,1.5,0.8,2.1c0.6,0.5,1.3,0.8,2.2,0.8c0.9,0,1.6-0.2,2.1-0.7c0.5-0.5,0.8-1.1,0.8-1.9c0-0.5-0.1-1-0.4-1.3
		c-0.2-0.3-0.6-0.6-1.1-0.8S241,34.1,239.7,33.6z M243.5,30.2c0-0.6-0.2-1.2-0.7-1.6s-1.1-0.6-2-0.6c-0.8,0-1.4,0.2-1.9,0.6
		c-0.5,0.4-0.7,0.9-0.7,1.5c0,0.7,0.3,1.2,0.9,1.7s1.5,0.8,2.8,1.2C243,32.3,243.5,31.3,243.5,30.2z"/>
	<path d="M252,40.6c-1.6,0-2.7-0.6-3.4-1.7s-1.1-2.9-1.1-5.2s0.4-4.1,1.1-5.2s1.9-1.7,3.4-1.7c1.5,0,2.7,0.6,3.4,1.7
		c0.7,1.1,1.1,2.9,1.1,5.2c0,2.4-0.4,4.1-1.1,5.2C254.7,40.1,253.6,40.6,252,40.6z M252,28.2c-1,0-1.7,0.4-2.2,1.2
		c-0.5,0.8-0.7,2.2-0.7,4.4c0,2.1,0.2,3.5,0.7,4.3s1.2,1.2,2.2,1.2s1.7-0.4,2.2-1.2s0.7-2.3,0.7-4.4c0-2.1-0.2-3.5-0.7-4.3
		C253.7,28.6,253,28.2,252,28.2z"/>
</g>
<rect x="199" y="11.6" class="st2" width="11" height="6"/>
<rect x="221" y="11.6" width="11" height="6"/>
<rect x="243" y="11.6" width="11" height="6"/>
<rect x="265" y="11.6" class="st2" width="11" height="6"/>
<rect x="285.5" y="18.1" class="st5" width="90" height="30"/>
<line class="st3" x1="294.7" y1="9.7" x2="287.7" y2="13.8"/>
<line class="st3" x1="294.7" y1="9.7" x2="301.5" y2="13.8"/>
<line class="st3" x1="301.5" y1="13.8" x2="296.4" y2="16.8"/>
<line class="st3" x1="287.7" y1="13.8" x2="292.9" y2="16.8"/>
<rect x="316" y="11.6" width="11" height="6"/>
<rect x="334" y="11.6" width="11" height="6"/>
<rect x="356" y="11.6" class="st2" width="11" height="6"/>
<rect x="304" y="11.6" width="11" height="6"/>
<g>
	<rect x="285.3" y="24.6" class="st4" width="90.3" height="17.2"/>
	<path d="M311.5,33.3v-0.1c-1.4-0.8-2.1-1.7-2.1-3c0-1,0.4-1.8,1.2-2.5s1.8-1,3.1-1c1.3,0,2.3,0.3,3.1,0.9s1.2,1.4,1.2,2.4
		c0,0.6-0.2,1.3-0.6,1.8c-0.4,0.6-0.9,1-1.6,1.3v0.1c1.7,0.7,2.6,1.8,2.6,3.3c0,1.1-0.4,2.1-1.3,2.8c-0.9,0.8-2,1.1-3.3,1.1
		c-1.4,0-2.5-0.4-3.4-1.1c-0.8-0.7-1.3-1.7-1.3-2.8C309.1,35.2,309.9,34.1,311.5,33.3z M312.6,33.6c-1.2,0.7-1.9,1.7-1.9,3
		c0,0.8,0.3,1.5,0.8,2.1c0.6,0.5,1.3,0.8,2.2,0.8c0.9,0,1.6-0.2,2.1-0.7c0.5-0.5,0.8-1.1,0.8-1.9c0-0.5-0.1-1-0.4-1.3
		c-0.2-0.3-0.6-0.6-1.1-0.8S313.9,34.1,312.6,33.6z M316.4,30.2c0-0.6-0.2-1.2-0.7-1.6s-1.1-0.6-2-0.6c-0.8,0-1.4,0.2-1.9,0.6
		c-0.5,0.4-0.7,0.9-0.7,1.5c0,0.7,0.3,1.2,0.9,1.7s1.5,0.8,2.8,1.2C315.9,32.3,316.4,31.3,316.4,30.2z"/>
	<path d="M320.8,39.9v-1.8h0.1c1.1,0.7,2.3,1.1,3.6,1.1c0.9,0,1.7-0.3,2.3-0.8c0.6-0.5,0.9-1.3,0.9-2.2c0-1.7-1.2-2.6-3.6-2.6
		c-0.7,0-1.6,0.1-2.7,0.4v-6.8h7.9v1.4H323v3.8c0.8-0.1,1.3-0.1,1.6-0.1c1.6,0,2.8,0.3,3.6,1s1.2,1.7,1.2,3c0,1.3-0.4,2.4-1.3,3.2
		s-2,1.2-3.5,1.2C323.2,40.6,321.9,40.4,320.8,39.9z"/>
	<path d="M331.8,39.8V38h0.1c1.2,0.8,2.4,1.2,3.7,1.2c0.9,0,1.7-0.3,2.3-0.8s0.8-1.2,0.8-2.1c0-0.8-0.2-1.5-0.7-1.9
		s-1.3-0.6-2.4-0.6h-0.8v-1.4h0.6c0.9,0,1.7-0.2,2.2-0.6s0.8-1,0.8-1.7c0-0.6-0.2-1.1-0.7-1.4c-0.5-0.3-1.1-0.5-1.9-0.5
		c-1.2,0-2.4,0.4-3.5,1.2h-0.1v-1.7c1.2-0.6,2.4-0.8,3.7-0.8c1.4,0,2.4,0.3,3.2,0.9c0.7,0.6,1.1,1.3,1.1,2.3c0,0.7-0.2,1.4-0.7,1.9
		s-1.1,0.9-1.9,1.1v0.1c1.9,0.3,2.9,1.5,2.9,3.3c0,1.2-0.4,2.2-1.3,3s-2,1.2-3.4,1.2C334.4,40.6,333.1,40.4,331.8,39.8z"/>
	<path d="M351.9,28.9l-5.9,11.4h-1.8l6.3-11.8h-7.6v-1.4h9V28.9z"/>
</g>
<g>
	<rect x="265" y="0" class="st4" width="10.9" height="11.8"/>
	<path d="M265.9,8.7l-0.4-0.4c0.3-0.3,0.7-0.6,1.2-1.1c0.4-0.5,0.8-0.9,1-1.3h-1.8V5.2h1.8v-1h-1.9V3.6h1l-0.4-1.5H266V1.4h1.8V0.5
		h0.7v0.9h1.8v0.6h-0.5l-0.5,1.5h1v0.6h-1.9v1h1.6v0.6h-1.6v0.2c0.4,0.4,0.9,0.8,1.5,1.2l-0.4,0.6c-0.5-0.4-0.9-0.7-1.2-1v2.7h-0.8
		V6.8C267.1,7.7,266.5,8.3,265.9,8.7z M267.2,2.1l0.4,1.5h1.1l0.4-1.5H267.2z M273.3,9.3V4.2h-1.6v0.5c0,1.9-0.5,3.5-1.5,4.6
		L269.7,9c0.4-0.5,0.7-1.1,0.9-1.8c0.2-0.7,0.3-1.5,0.3-2.3V1.3c1.6-0.2,2.8-0.5,3.7-0.8l0.4,0.6c-0.9,0.3-2,0.5-3.3,0.7v1.8h3.6
		v0.6H274v5.1H273.3z"/>
</g>
<g>
	<rect x="199" y="0" class="st4" width="10.9" height="11.8"/>
	<path d="M199.9,8.7l-0.4-0.4c0.3-0.3,0.7-0.6,1.2-1.1c0.4-0.5,0.8-0.9,1-1.3h-1.8V5.2h1.8v-1h-1.9V3.6h1l-0.4-1.5H200V1.4h1.8V0.5
		h0.7v0.9h1.8v0.6h-0.5l-0.5,1.5h1v0.6h-1.9v1h1.6v0.6h-1.6v0.2c0.4,0.4,0.9,0.8,1.5,1.2l-0.4,0.6c-0.5-0.4-0.9-0.7-1.2-1v2.7h-0.8
		V6.8C201.1,7.7,200.5,8.3,199.9,8.7z M201.2,2.1l0.4,1.5h1.1l0.4-1.5H201.2z M207.3,9.3V4.2h-1.6v0.5c0,1.9-0.5,3.5-1.5,4.6
		L203.7,9c0.4-0.5,0.7-1.1,0.9-1.8c0.2-0.7,0.3-1.5,0.3-2.3V1.3c1.6-0.2,2.8-0.5,3.7-0.8l0.4,0.6c-0.9,0.3-2,0.5-3.3,0.7v1.8h3.6
		v0.6H208v5.1H207.3z"/>
</g>
<g>
	<rect x="356" y="0" class="st4" width="10.9" height="11.8"/>
	<path d="M356.9,8.7l-0.4-0.4c0.3-0.3,0.7-0.6,1.2-1.1c0.4-0.5,0.8-0.9,1-1.3h-1.8V5.2h1.8v-1h-1.9V3.6h1l-0.4-1.5H357V1.4h1.8V0.5
		h0.7v0.9h1.8v0.6h-0.5l-0.5,1.5h1v0.6h-1.9v1h1.6v0.6h-1.6v0.2c0.4,0.4,0.9,0.8,1.5,1.2l-0.4,0.6c-0.5-0.4-0.9-0.7-1.2-1v2.7h-0.8
		V6.8C358.1,7.7,357.5,8.3,356.9,8.7z M358.2,2.1l0.4,1.5h1.1l0.4-1.5H358.2z M364.3,9.3V4.2h-1.6v0.5c0,1.9-0.5,3.5-1.5,4.6
		L360.7,9c0.4-0.5,0.7-1.1,0.9-1.8c0.2-0.7,0.3-1.5,0.3-2.3V1.3c1.6-0.2,2.8-0.5,3.7-0.8l0.4,0.6c-0.9,0.3-2,0.5-3.3,0.7v1.8h3.6
		v0.6H365v5.1H364.3z"/>
</g>
<g>
	<rect x="9" y="0" class="st4" width="10.9" height="11.8"/>
	<path d="M9.9,8.7L9.6,8.2c0.3-0.3,0.7-0.6,1.2-1.1c0.4-0.5,0.8-0.9,1-1.3H9.9V5.2h1.8v-1H9.8V3.6h1l-0.4-1.5H10V1.4h1.8V0.5h0.7
		v0.9h1.8v0.6h-0.5l-0.5,1.5h1v0.6h-1.9v1h1.6v0.6h-1.6v0.2c0.4,0.4,0.9,0.8,1.5,1.2l-0.4,0.6c-0.5-0.4-0.9-0.7-1.2-1v2.7h-0.8V6.8
		C11.1,7.7,10.5,8.3,9.9,8.7z M11.2,2.1l0.4,1.5h1.1l0.4-1.5H11.2z M17.3,9.3V4.2h-1.6v0.5c0,1.9-0.5,3.5-1.5,4.6L13.7,9
		c0.4-0.5,0.7-1.1,0.9-1.8c0.2-0.7,0.3-1.5,0.3-2.3V1.3c1.6-0.2,2.8-0.5,3.7-0.8L19,1.2c-0.9,0.3-2,0.5-3.3,0.7v1.8h3.6v0.6H18v5.1
		H17.3z"/>
</g>
<g>
</g>
<g>
</g>
<g>
</g>
<g>
</g>
<g>
</g>
<g>
</g>
<g>
</g>
<g>
</g>
<g>
</g>
<g>
</g>
<g>
</g>
<g>
</g>
<g>
</g>
<g>
</g>
<g>
</g>
<g>
</g>
<g>
</g>
<g>
</g>
</svg>
