<?xml version="1.0" encoding="utf-8"?>
<!-- Generator: Adobe Illustrator 16.0.0, SVG Export Plug-In . SVG Version: 6.00 Build 0)  -->
<!DOCTYPE svg PUBLIC "-//W3C//DTD SVG 1.1//EN" "http://www.w3.org/Graphics/SVG/1.1/DTD/svg11.dtd">
<svg version="1.1" id="レイヤー_1" xmlns="http://www.w3.org/2000/svg" xmlns:xlink="http://www.w3.org/1999/xlink" x="0px"
	 y="0px" width="440px" height="975px" viewBox="0 0 440 975" style="enable-background:new 0 0 440 975;" xml:space="preserve">
<style type="text/css">
<![CDATA[
	.st0{fill:#F6F6F6;}
	.st1{fill:#FF4600;}
	.st2{fill:#FFFFCC;}
	.st3{fill:none;}
	.st4{fill:#CCCCCC;}
	.st5{fill:#0055FF;}
	.st6{fill:none;stroke:#000000;stroke-width:2;stroke-miterlimit:10;}
	.st7{fill:#DC0000;}
	.st8{fill:#EEEEEE;stroke:#000000;stroke-width:2;stroke-miterlimit:10;}
]]>
</style>
<rect class="st2" width="440" height="975"/>
<rect x="132" y="79" class="st8" width="44" height="72"/>
<rect x="176" y="79" class="st8" width="44" height="72"/>
<rect x="220" y="79" class="st8" width="44" height="72"/>
<rect x="264" y="79" class="st8" width="44" height="72"/>
<rect x="308" y="79" class="st8" width="44" height="72"/>
<rect x="352" y="79" class="st8" width="44" height="72"/>
<g>
	<rect x="191.5" y="86.2" class="st3" width="13" height="57.6"/>
	<path d="M192.7,87.6h10.8v11.1h-0.9v-0.8h-9v0.8h-0.9V87.6z M197.5,88.4h-4v3.8h4V88.4z M193.5,93.1V97h4v-3.9H193.5z M202.5,92.2
		v-3.8h-4.1v3.8H202.5z M198.4,97h4.1v-3.9h-4.1V97z"/>
	<path d="M192.5,102.1h11v11.5h-0.9V113h-9.3v0.6h-0.8V102.1z M193.3,112.2h9.3v-9.3h-9.3V112.2z M198.4,108.9
		c0.3,0.3,0.7,0.7,1.1,1c0.6-0.4,1.2-0.8,1.6-1.2l0.7,0.4c0,0.1-0.1,0.1-0.3,0.1c-0.4,0.3-1,0.7-1.6,1c0.7,0.4,1.4,0.7,2.2,0.9
		c-0.2,0.1-0.4,0.4-0.5,0.6c-1.3-0.4-2.7-1.2-3.6-2.2v2.3h-0.8v-2c-0.9,0.6-2,1.2-3.1,1.5c-0.1-0.1-0.3-0.4-0.5-0.5
		c1.2-0.4,2.6-1.1,3.6-1.9h-2.3v-2.2h5.7v2.2H198.4z M201.9,105.5v0.6H194v-0.6h3.5v-0.9h-2.7V104h2.7v-0.8l1.1,0.1
		c0,0.1-0.1,0.1-0.2,0.2v0.5h2.8v0.6h-2.8v0.9H201.9z M195.9,107.2v1.1h4.2v-1.1H195.9z"/>
	<path d="M196.2,118.6v0.7h-4.2v-0.7H196.2z M195.8,127.7h-2.6v0.6h-0.7v-4.4h3.4V127.7z M195.8,120.4v0.7h-3.4v-0.7H195.8z
		 M192.5,122.8v-0.7h3.4v0.7H192.5z M195.8,116.9v0.7h-3.2v-0.7H195.8z M195.1,124.6h-1.9v2.3h1.9V124.6z M203.6,117v10.4
		c0,1.1-0.5,1.1-2.5,1.1c0-0.2-0.1-0.6-0.3-0.9c0.4,0,0.7,0,1,0h0.6c0.2,0,0.3-0.1,0.3-0.3v-9.6h-5.1v3.9c0,2.1-0.1,5-1.3,6.9
		c-0.1-0.2-0.5-0.4-0.7-0.5c1.1-1.9,1.1-4.5,1.1-6.4V117H203.6z M198.3,121.3h1.6v-1.4h-1.4v-0.7h1.4V118l1,0.1
		c0,0.1-0.1,0.1-0.2,0.2v1h1.5v0.7h-1.5v1.4h1.7v0.7h-4V121.3z M202,126.4h-2.8v0.5h-0.7v-3.9h3.4V126.4z M201.3,123.7h-2.1v2h2.1
		V123.7z"/>
	<path d="M203.8,134.2h-7.2c-0.4,0.9-0.9,1.7-1.4,2.5h3v-1.8l1.1,0.1c0,0.1-0.1,0.2-0.3,0.2v1.6h4.1v4.3c0,1-0.5,1-2.8,1
		c-0.1-0.2-0.2-0.5-0.3-0.8c0.4,0,0.9,0,1.2,0h0.7c0.2,0,0.3-0.1,0.3-0.3v-3.4H199v5.9h-0.9v-5.9h-2.9v4.6h-0.9v-4.5
		c-0.6,0.7-1.2,1.3-2,1.8c-0.1-0.2-0.4-0.5-0.5-0.7c1.6-1.1,2.9-2.8,3.8-4.6h-3.4v-0.8h3.8c0.3-0.7,0.5-1.4,0.7-2.1l1.1,0.3
		c-0.1,0.1-0.1,0.1-0.3,0.1c-0.2,0.5-0.4,1.1-0.6,1.6h6.8V134.2z"/>
</g>
<rect x="132" y="172" class="st8" width="44" height="72"/>
<rect x="176" y="172" class="st8" width="44" height="72"/>
<rect x="220" y="172" class="st8" width="44" height="72"/>
<rect x="264" y="172" class="st8" width="44" height="72"/>
<rect x="308" y="172" class="st8" width="44" height="72"/>
<rect x="352" y="172" class="st8" width="44" height="72"/>
<rect x="132" y="421" class="st8" width="44" height="72"/>
<rect x="176" y="421" class="st8" width="44" height="72"/>
<rect x="220" y="421" class="st8" width="44" height="72"/>
<rect x="264" y="421" class="st8" width="44" height="72"/>
<rect x="308" y="421" class="st8" width="44" height="72"/>
<rect x="352" y="421" class="st8" width="44" height="72"/>
<rect x="44" y="421" class="st8" width="44" height="72"/>
<rect x="88" y="421" class="st8" width="44" height="72"/>
<rect x="44" y="514" class="st8" width="44" height="72"/>
<rect x="88" y="514" class="st8" width="44" height="72"/>
<rect x="132" y="514" class="st8" width="44" height="72"/>
<rect x="176" y="514" class="st8" width="44" height="72"/>
<rect x="220" y="514" class="st8" width="44" height="72"/>
<rect x="264" y="514" class="st8" width="44" height="72"/>
<rect x="308" y="514" class="st8" width="44" height="72"/>
<rect x="352" y="514" class="st8" width="44" height="72"/>
<g>
	<rect x="140.1" y="13.5" class="st3" width="159.9" height="24"/>
	<path d="M146,16.8v-1.3h10.6v1.3h-5.4c-0.3,1.1-0.6,2.2-1.1,3.4h4.7l0.3-0.1l0.9,0.4c0,0.1-0.1,0.2-0.2,0.2
		c-1.1,6.7-4.1,10.9-8,13.1c-0.2-0.3-0.7-0.8-1.1-1.1c2.1-1.1,3.9-2.8,5.3-5.1c-0.9-0.8-2.5-1.8-3.7-2.5l0.7-1
		c1.2,0.7,2.7,1.6,3.6,2.3c0.7-1.4,1.2-3.1,1.6-4.9h-4.7c-0.8,1.9-1.9,3.7-3.3,5c-0.2-0.3-0.7-0.7-1-0.9c2.3-2.2,3.7-5.7,4.4-8.8
		H146z M157.5,16.7l1.8,0.1c0,0.1-0.1,0.3-0.4,0.3v11.3h-1.4V16.7z M162.8,14.7l1.8,0.1c0,0.2-0.1,0.3-0.4,0.3v16.8
		c0,1.8-0.8,1.9-4.6,1.9c-0.1-0.4-0.3-1-0.5-1.4c0.9,0,1.7,0,2.3,0c1.3,0,1.4,0,1.4-0.5V14.7z"/>
	<path d="M186.5,29.3v1.3h-8.9v3.1h-1.4v-3.1h-8.7v-1.3h8.7v-1.8h-6.5v-8.3h6.5v-1.7H168v-1.3h8.1v-2l1.8,0.1c0,0.1-0.1,0.3-0.4,0.3
		v1.6h8.3v1.3h-8.3v1.7h6.7v8.3h-6.7v1.8H186.5z M171.1,20.4v2.3h5.1v-2.3H171.1z M171.1,26.3h5.1v-2.4h-5.1V26.3z M182.9,20.4h-5.3
		v2.3h5.3V20.4z M182.9,26.3v-2.4h-5.3v2.4H182.9z"/>
	<path d="M190.9,18.6c0,1.9-0.4,4.1-1.2,5.5c-0.8-0.5-0.9-0.5-1-0.6c0.8-1.2,1.1-3.3,1.1-5.1L190.9,18.6z M191.7,14.2l1.8,0.1
		c0,0.1-0.1,0.3-0.4,0.3v19.1h-1.4V14.2z M195,21c-0.3-0.8-0.9-2.1-1.5-3.1l1-0.5c0.6,0.9,1.3,2.2,1.6,3L195,21z M202.3,21.3h5.9
		v1.2h-13v-1.2h5.7v-1.5h-4.1v-1.1h4.1v-1.4h-4.9v-1.1h4.9v-1.9l1.9,0.1c0,0.1-0.1,0.3-0.4,0.3v1.5h5.1v1.1h-5.1v1.4h4.3v1.1h-4.3
		V21.3z M206.3,23.9v8.3c0,1.4-0.5,1.5-3.5,1.5c-0.1-0.4-0.3-0.9-0.4-1.2c0.6,0,1.1,0,1.5,0c0.9,0,1,0,1-0.3v-1.9h-6.5v3.3H197v-9.8
		H206.3z M204.9,25.1h-6.5v1.6h6.5V25.1z M198.4,29.3h6.5v-1.6h-6.5V29.3z"/>
	<path d="M215.8,17.6V20h4.2v1.2h-9.7V20h4.2v-2.4h-3.4v-1.2h3.4v-2.1l1.7,0.1c0,0.1-0.1,0.3-0.4,0.3v1.7h3.3v1.2H215.8z
		 M216.2,24.6c0.4-0.8,1-2.2,1.3-3.1l1.5,0.5c-0.1,0.1-0.2,0.2-0.4,0.2c-0.3,0.7-0.9,1.8-1.3,2.6h2.5V26h-3.9v2.4h3.6v1.2h-3.6v4.1
		h-1.3v-4.1h-3.6v-1.2h3.6V26h-3.9v-1.2h6L216.2,24.6z M212.8,24.6c-0.1-0.8-0.5-2-1-2.9l1.1-0.3c0.5,0.9,0.9,2.1,1,2.8L212.8,24.6z
		 M228.2,23.2l0.9,0.3c0,0.1-0.1,0.2-0.1,0.3c-0.4,2.2-1.2,4.4-2.3,6.3c0.9,1,2,1.9,3.2,2.4c-0.3,0.3-0.8,0.8-1,1.2
		c-1.1-0.6-2.1-1.4-3-2.5c-0.7,0.9-1.5,1.7-2.5,2.3c-0.2-0.3-0.6-0.7-1-0.9c1-0.7,1.8-1.5,2.6-2.5c-1-1.4-1.8-3.2-2.4-5l1.1-0.3
		c0.5,1.4,1.2,2.9,2,4.1c0.8-1.4,1.3-2.9,1.7-4.5H222v9.3h-1.3V15.3h8.2v5.3c0,1.5-0.8,1.5-3.6,1.5c0-0.4-0.3-0.9-0.4-1.2
		c0.5,0,1.1,0,1.5,0c1.2,0,1.2,0,1.2-0.3v-3.9H222v6.7h5.9L228.2,23.2z"/>
	<path d="M239.8,17.8V19h-8v-1.2H239.8z M239,26.4v6.2H234v1h-1.3v-7.2H239z M232.7,21.8v-1.2h6.3v1.2H232.7z M232.7,24.7v-1.2h6.3
		v1.2H232.7z M239,15v1.2h-6.1V15H239z M237.8,27.6H234v3.8h3.8V27.6z M242.8,16.2v1.3c0,1.8-0.5,4.1-2.7,5.5
		c-0.2-0.3-0.7-0.8-1-0.9c2.1-1.3,2.4-3.1,2.4-4.6v-2.6h6.6v5.3c0,0.5,0.1,0.5,0.4,0.5h1.2c0.4,0,0.5-0.3,0.5-2.4
		c0.3,0.2,0.8,0.4,1.2,0.5c-0.1,2.5-0.5,3.1-1.6,3.1h-1.5c-1.2,0-1.6-0.4-1.6-1.8v-4H242.8z M249.3,23.4l0.9,0.4
		c0,0.1-0.1,0.2-0.2,0.2c-0.7,2.5-2,4.5-3.6,6.1c1.4,1.1,3.1,1.9,5,2.4c-0.3,0.3-0.7,0.9-0.9,1.2c-2-0.6-3.7-1.5-5.2-2.7
		c-1.6,1.3-3.5,2.2-5.5,2.7c-0.1-0.4-0.5-0.9-0.8-1.2c1.9-0.5,3.7-1.3,5.2-2.4c-1.3-1.4-2.4-3-3.1-4.9l1.3-0.4
		c0.7,1.7,1.6,3.1,2.9,4.4c1.3-1.2,2.3-2.7,3-4.4h-8.3v-1.3h9L249.3,23.4z"/>
	<path d="M263.7,27.2v4.6c1.1,0.2,2.3,0.3,3.7,0.3c0.7,0,4.4,0,5.4,0c-0.2,0.4-0.5,1-0.5,1.4h-4.9c-4.5,0-7.8-0.8-9.7-4.5
		c-0.8,2.1-1.8,3.8-3.3,4.9c-0.2-0.3-0.7-0.7-1.1-0.9c2.3-1.7,3.5-4.9,4-8.8l1.8,0.3c0,0.1-0.2,0.3-0.4,0.3
		c-0.1,0.8-0.3,1.7-0.5,2.5c0.9,2.4,2.3,3.6,4.2,4.3v-9.2h-5.4v-1.3h12.3v1.3h-5.5v3.7h6.4v1.3H263.7z M255.6,18.2v3.2h-1.4v-4.5h8
		v-2.6l1.9,0.1c0,0.1-0.1,0.3-0.4,0.3v2.2h8.1v4.5h-1.4v-3.2H255.6z"/>
	<path d="M294.1,24H288c1.7,1.5,4.2,2.8,6.7,3.4c-0.3,0.3-0.7,0.8-0.9,1.2c-0.5-0.1-1-0.3-1.5-0.5v5.7H291V33h-4.1v0.8h-1.3v-6.9
		h4.2c-1.4-0.8-2.7-1.8-3.6-2.9h-3.3c-1,1.1-2.2,2.1-3.7,2.9h4.3v6.8h-1.3V33h-4.1v0.8h-1.3V28c-0.5,0.2-0.9,0.4-1.4,0.5
		c-0.2-0.3-0.6-0.8-0.9-1c2.6-0.9,4.8-2,6.4-3.5h-6v-1.3h7.2c0.4-0.5,0.8-1.1,1.1-1.7h-6.8v-5.8h6.8v5.7l0.2-0.4l1.7,0.5
		c0,0.1-0.2,0.2-0.5,0.2c-0.3,0.5-0.5,1-0.9,1.5h10.2V24z M282.1,19.9v-3.5h-4.2v3.5H282.1z M282.2,31.8v-3.6h-4.1v3.6H282.2z
		 M292.7,15.2V21h-6.9v-5.8H292.7z M286.9,31.8h4.1v-3.6h-4.1V31.8z M291.3,19.9v-3.5h-4.2v3.5H291.3z"/>
</g>
<rect x="44" y="292" class="st8" width="44" height="72"/>
<rect x="88" y="292" class="st8" width="44" height="72"/>
<rect x="132" y="292" class="st8" width="44" height="72"/>
<rect x="176" y="292" class="st8" width="44" height="72"/>
<rect x="220" y="292" class="st8" width="44" height="72"/>
<rect x="264" y="292" class="st8" width="44" height="72"/>
<rect x="308" y="292" class="st8" width="44" height="72"/>
<rect x="352" y="292" class="st8" width="44" height="72"/>
<rect x="44" y="607" class="st8" width="44" height="72"/>
<rect x="88" y="607" class="st8" width="44" height="72"/>
<rect x="132" y="607" class="st8" width="44" height="72"/>
<rect x="176" y="607" class="st8" width="44" height="72"/>
<rect x="220" y="607" class="st8" width="44" height="72"/>
<rect x="264" y="607" class="st8" width="44" height="72"/>
<rect x="308" y="607" class="st8" width="44" height="72"/>
<rect x="352" y="607" class="st8" width="44" height="72"/>
<rect x="44" y="700" class="st8" width="44" height="72"/>
<rect x="88" y="700" class="st8" width="44" height="72"/>
<rect x="132" y="700" class="st8" width="44" height="72"/>
<rect x="176" y="700" class="st8" width="44" height="72"/>
<rect x="220" y="700" class="st8" width="44" height="72"/>
<rect x="264" y="700" class="st8" width="44" height="72"/>
<rect x="308" y="700" class="st8" width="44" height="72"/>
<rect x="352" y="700" class="st8" width="44" height="72"/>
<rect x="44" y="793" class="st8" width="44" height="72"/>
<rect x="88" y="793" class="st8" width="44" height="72"/>
<rect x="132" y="793" class="st8" width="44" height="72"/>
<rect x="176" y="793" class="st8" width="44" height="72"/>
<rect x="220" y="793" class="st8" width="44" height="72"/>
<rect x="264" y="793" class="st8" width="44" height="72"/>
<rect x="308" y="793" class="st8" width="44" height="72"/>
<rect x="352" y="793" class="st8" width="44" height="72"/>
<rect x="176" y="911" width="88" height="14"/>
<g>
	<rect x="176.1" y="912.5" class="st3" width="87.9" height="14"/>
	<path class="st4" d="M189.9,915.1h-4.2v7.1h-3.3v-7.1h-4.2v-1.4h11.6V915.1z"/>
	<path class="st4" d="M204.1,917.9c0,2.9-3,4.5-7.2,4.5c-4.5,0-7-1.9-7-4.3c0-2.5,2.8-4.4,7.2-4.4
		C201.8,913.6,204.1,915.6,204.1,917.9z M193.3,918c0,1.7,1.3,3,3.7,3c2.4,0,3.7-1.4,3.7-3.1c0-1.6-1.2-3-3.7-3
		C194.5,914.9,193.3,916.4,193.3,918z"/>
	<path class="st4" d="M213.7,915.3c-0.6-0.2-1.6-0.4-3-0.4c-1.7,0-2.5,0.5-2.5,0.9c0,0.6,0.8,0.9,2.9,1.4c2.7,0.6,3.9,1.4,3.9,2.5
		c0,1.5-2.2,2.6-6.2,2.6c-1.7,0-3.4-0.2-4.2-0.5l0.6-1.4c0.9,0.3,2.3,0.5,3.7,0.5c1.8,0,2.8-0.4,2.8-1.1c0-0.6-0.8-1-2.7-1.4
		c-2.6-0.5-4.1-1.3-4.1-2.4c0-1.4,2.2-2.5,5.8-2.5c1.6,0,2.8,0.2,3.6,0.4L213.7,915.3z"/>
	<path class="st4" d="M228.7,922.2h-3.3v-3.6h-5.8v3.6h-3.3v-8.5h3.3v3.4h5.8v-3.4h3.3V922.2z"/>
	<path class="st4" d="M230.9,913.7h3.3v8.5h-3.3V913.7z"/>
	<path class="st4" d="M244.3,917.7c1.9,0.2,3.3,1,3.3,2.1c0,0.7-0.5,1.3-1.5,1.7c-1.1,0.5-3,0.8-6.1,0.8c-1.6,0-2.8-0.1-3.6-0.1
		v-8.3c1-0.1,2.6-0.2,4.3-0.2c2,0,3.5,0.1,4.7,0.5c1,0.3,1.7,0.9,1.7,1.6C247,916.6,246.1,917.3,244.3,917.7L244.3,917.7z
		 M240.8,917.2c1.8,0,2.9-0.5,2.9-1.2c0-0.8-1.3-1.1-2.7-1.1c-0.7,0-1.1,0-1.4,0.1v2.2H240.8z M239.6,921c0.3,0,0.7,0,1.3,0
		c1.8,0,3.3-0.4,3.3-1.4c0-1-1.7-1.3-3.3-1.3h-1.2V921z"/>
	<path class="st4" d="M261.4,922.2H258l-1.2-2.2h-4.5l-1.2,2.2h-3.3l4.8-8.5h4.1L261.4,922.2z M256.3,918.7l-1-1.9
		c-0.3-0.5-0.6-1.2-0.8-1.7h-0.1c-0.2,0.5-0.5,1.2-0.7,1.7l-1,1.9H256.3z"/>
</g>
<g>
	<path class="st6" d="M396,291v-14.5c0-2.8-2.3-4.5-5-4.5H49.5c-2.8,0-5.5,1.8-5.5,4.5V292"/>
</g>
<rect x="202" y="262" class="st2" width="36" height="20"/>
<g>
	<rect x="191.6" y="264.3" class="st3" width="56.8" height="14.3"/>
	<path d="M209.7,270.7c0.4,0.4,1.6,1.7,1.9,2l-0.6,0.7c-0.2-0.4-0.8-1.2-1.3-1.8v6.2h-0.9v-6.3c-0.5,1.5-1.2,2.9-1.8,3.8
		c-0.1-0.3-0.3-0.6-0.5-0.8c0.8-1.1,1.7-3,2.2-4.6h-2v-0.9h2.2v-2.4c-0.6,0.2-1.3,0.4-1.9,0.5c0-0.2-0.2-0.5-0.3-0.7
		c1.5-0.4,3.3-0.9,4.2-1.5l0.8,0.7c-0.1,0.1-0.1,0.1-0.3,0.1c-0.4,0.2-1,0.5-1.6,0.7v2.7h1.8v0.9h-1.8V270.7z M215.7,276.7h3.8v0.8
		H211v-0.8h3.9v-1.2h-3.1v-0.8h3.1v-1H212v-4.5h2.8v-1h-3.5v-0.8h3.5v-1.2c-1,0.1-2,0.2-3,0.3c0-0.2-0.1-0.5-0.2-0.7
		c2.3-0.2,5.1-0.6,6.5-1l0.8,0.7c0,0-0.1,0.1-0.2,0.1c0,0-0.1,0-0.1,0c-0.8,0.2-1.8,0.4-2.9,0.6v1.3h3.6v0.8h-3.6v1h3v4.5h-3v1h3.2
		v0.8h-3.2V276.7z M212.8,270v1.2h2V270H212.8z M212.8,273h2v-1.2h-2V273z M217.8,270h-2.1v1.2h2.1V270z M217.8,273v-1.2h-2.1v1.2
		H217.8z"/>
	<path d="M226.2,271.8l0.2,0l0.5,0.1c0,0.1,0,0.2,0,0.3c-0.2,3.6-0.3,4.9-0.7,5.3c-0.3,0.4-0.5,0.4-1.6,0.4c-0.3,0-0.7,0-1.1,0
		c0-0.3-0.1-0.6-0.3-0.8c0.7,0.1,1.4,0.1,1.7,0.1c0.3,0,0.4,0,0.5-0.2c0.3-0.3,0.4-1.4,0.5-4.3h-2.5c-0.3,1.9-1,3.9-2.4,5.2
		c-0.1-0.2-0.4-0.5-0.7-0.6c1.8-1.6,2.3-4.7,2.4-7.1h-1.6v-4.6h5.6v4.6h-3c-0.1,0.5-0.1,1.1-0.2,1.7H226.2z M222.2,266.3v2.9h3.8
		v-2.9H222.2z M228.4,266.5l1.2,0.1c0,0.1-0.1,0.2-0.3,0.2v7.6h-0.9V266.5z M231.9,265.1l1.2,0.1c0,0.1-0.1,0.2-0.3,0.2v11.2
		c0,0.7-0.2,1-0.6,1.1c-0.4,0.2-1.2,0.2-2.5,0.2c-0.1-0.3-0.2-0.7-0.4-1c0.5,0,1,0,1.4,0c1.1,0,1.2,0,1.2-0.4V265.1z"/>
</g>
<g>
	<path class="st6" d="M396,421v-16.5c0-2.8-2.3-4.5-5-4.5H49.5c-2.8,0-5.5,1.8-5.5,4.5V422"/>
</g>
<rect x="202" y="389" class="st2" width="36" height="20"/>
<g>
	<rect x="191.6" y="392.3" class="st3" width="56.8" height="14.3"/>
	<path d="M210.8,393.3c0,0.1-0.1,0.1-0.3,0.1c-0.8,1-2.3,2.4-3.5,3.2c-0.1-0.2-0.4-0.6-0.5-0.8c1.2-0.8,2.6-2,3.3-3L210.8,393.3z
		 M208.7,405.8v-6.2c-0.5,0.6-1.1,1.1-1.6,1.6c-0.1-0.2-0.4-0.6-0.6-0.7c1.3-1.1,2.9-2.9,3.8-4.7l1.1,0.4c0,0.1-0.2,0.1-0.3,0.1
		c-0.4,0.7-0.9,1.4-1.4,2.1l0.3,0.1c0,0.1-0.1,0.2-0.3,0.2v7.1H208.7z M219.5,397.8v0.9h-2.2v5.9c0,1.2-0.4,1.2-3.3,1.2
		c0-0.3-0.2-0.6-0.3-0.9c0.6,0,1.2,0,1.6,0c0.9,0,1,0,1-0.3v-5.9h-4.9v-0.9H219.5z M219,393.7v0.9h-7v-0.9H219z"/>
	<path d="M225.8,400.2c0,0.1-0.1,0.2-0.3,0.2c-0.4,2.5-1.1,4.4-4.3,5.4c-0.1-0.2-0.4-0.6-0.6-0.8c3.1-0.9,3.7-2.6,4-5L225.8,400.2z
		 M229.3,404.2c0,0.4,0.1,0.5,0.7,0.5h1.9c0.5,0,0.6-0.3,0.7-2.2c0.2,0.2,0.6,0.3,0.9,0.4c-0.1,2.1-0.4,2.7-1.5,2.7h-2.1
		c-1.2,0-1.5-0.3-1.5-1.4v-4.3h-7.6V399h5.7v-3h-3c-0.4,0.8-0.8,1.6-1.3,2.2c-0.2-0.1-0.6-0.4-0.8-0.4c1-1.2,1.7-3.1,2.1-4.6
		l1.2,0.3c0,0.1-0.1,0.1-0.3,0.1c-0.1,0.4-0.3,1-0.5,1.5h2.7v-2.3l1.2,0.1c0,0.1-0.1,0.2-0.3,0.2v2h4.7v0.9h-4.7v3h5.8v0.9h-3.9
		V404.2z"/>
</g>
<g>
	<path class="st6" d="M396,78V62.5c0-2.8-2.3-4.5-5-4.5H137c-2.8,0-5,1.8-5,4.5V79"/>
</g>
<rect x="239" y="48" class="st2" width="50" height="20"/>
<g>
	<rect x="243.1" y="50.8" class="st3" width="42.1" height="14.3"/>
	<path d="M248.4,54.2l0.5,0.1l-0.1,0.2c-0.2,2.5-0.6,4.5-1.3,6c0.7,0.5,1.3,1.1,1.7,1.5l-0.6,0.8c-0.4-0.4-0.9-1-1.5-1.5
		c-0.7,1.3-1.7,2.3-2.8,2.9c-0.1-0.2-0.4-0.6-0.6-0.8c1.1-0.6,1.9-1.5,2.6-2.7c-0.5-0.4-1.1-0.8-1.6-1.1l-0.2,0.6l-0.8-0.4
		c0.4-1.2,0.8-3,1.2-4.8h-1.4v-0.9h1.6c0.2-1.1,0.4-2.1,0.6-3l1.1,0.1c0,0.1-0.1,0.2-0.3,0.2c-0.2,0.8-0.3,1.7-0.6,2.6h2.2
		L248.4,54.2z M245.9,55.2c-0.3,1.3-0.6,2.6-0.9,3.8c0.6,0.3,1.2,0.7,1.8,1.1c0.6-1.3,1-2.9,1.2-4.9H245.9z M254.5,53.6
		c0.9,1.1,1.9,2.7,2.2,3.7l-0.8,0.4c-0.1-0.3-0.2-0.6-0.4-1c-2.2,0.2-4.5,0.3-6,0.4c0,0.1-0.1,0.2-0.2,0.2l-0.4-1.1l1.1,0
		c0.6-1.4,1.2-3.5,1.6-5l1.2,0.3c0,0.1-0.2,0.2-0.3,0.2c-0.4,1.3-1,3.1-1.6,4.5l4.1-0.2c-0.4-0.7-0.9-1.4-1.4-2L254.5,53.6z
		 M250,64.3v-5.7h5.9v5.7H255v-0.6h-4.1v0.7H250z M255,59.5h-4.1v3.3h4.1V59.5z"/>
	<path d="M268.7,52.1c0,0.1-0.2,0.1-0.3,0.1c-0.5,0.5-1.3,1.2-2,1.7c0.3,0.4,0.6,0.8,1,1.2c0.7-0.5,1.6-1.3,2.1-1.9l0.9,0.6
		c-0.1,0.1-0.2,0.1-0.3,0.1c-0.5,0.5-1.4,1.2-2.1,1.7c0.8,0.7,1.8,1.3,2.7,1.7c-0.2,0.2-0.5,0.5-0.6,0.8c-0.7-0.3-1.4-0.7-2.1-1.2
		v0.5h-1.8v2.2h3.4v0.9h-3.4v2.4c0,0.4,0.1,0.5,0.6,0.5h1.7c0.5,0,0.5-0.3,0.6-1.8c0.2,0.2,0.6,0.3,0.9,0.4
		c-0.1,1.8-0.3,2.3-1.4,2.3h-1.9c-1.1,0-1.4-0.3-1.4-1.4v-2.4h-2.7c-0.2,1.6-1.1,3-3.9,4c-0.1-0.2-0.4-0.6-0.6-0.7
		c2.5-0.8,3.3-2,3.5-3.2h-3.3v-0.9h3.3v-2.2h-1.6v-0.4c-0.7,0.5-1.4,1-2.1,1.3c-0.1-0.2-0.4-0.5-0.6-0.7c1-0.4,2-1.1,2.9-1.9
		c-0.4-0.5-1.2-1.1-1.8-1.6l0.6-0.5c0.6,0.4,1.3,1,1.8,1.5c0.6-0.6,1.1-1.3,1.4-2.1h-3.7v-0.8h4.2l0.2-0.1c0.4,0.2,0.5,0.3,0.7,0.3
		c0,0.1-0.1,0.1-0.2,0.2c-0.6,1.6-1.7,3-2.9,4h6.9c-1.4-1.2-2.6-2.9-3.3-4.8l0.8-0.3c0.3,0.6,0.6,1.3,0.9,1.8
		c0.6-0.5,1.4-1.2,1.8-1.8L268.7,52.1z M265.3,59.5v-2.2h-2.6v2.2H265.3z"/>
	<path d="M272.7,60.1c-0.1,1.3-0.2,2.7-0.8,3.5l-0.5-0.3c0.5-0.7,0.7-2,0.7-3.3L272.7,60.1z M277.1,58.3l0.4,0.1l0,0.3
		c-0.2,3.6-0.4,4.9-0.7,5.3c-0.3,0.3-0.5,0.4-1.2,0.4c-0.3,0-0.6,0-0.9,0c0-0.2-0.1-0.6-0.2-0.8c0.5,0,1,0.1,1.2,0.1
		c0.4,0,0.6-0.1,0.8-2l-0.5,0.2c-0.1-0.5-0.5-1.3-0.9-1.9l0.5-0.2c0.3,0.5,0.7,1.3,0.8,1.8h0c0.1-0.6,0.1-1.4,0.2-2.3h-3.7v0.4h-0.8
		v-7.6h5.2v0.8h-2.1v1.3h1.8v0.8h-1.8v1.4h1.8V57h-1.8v1.4h1.6L277.1,58.3z M274.5,52.7h-1.5v1.3h1.5V52.7z M274.5,56.2v-1.4h-1.5
		v1.4H274.5z M273.1,57v1.4h1.5V57H273.1z M273.3,62.9c0-0.7-0.1-1.8-0.2-2.6l0.5-0.1c0.2,0.8,0.3,1.9,0.3,2.6L273.3,62.9z
		 M274.7,60c0.3,0.7,0.6,1.7,0.6,2.3l-0.5,0.1c-0.1-0.6-0.3-1.6-0.6-2.3L274.7,60z M284.1,57.6h-2.3c0.4,2.7,1.3,4.9,3,6
		c-0.2,0.2-0.5,0.5-0.6,0.8c-1.8-1.3-2.7-3.7-3.2-6.8h-1.4c0,2.1-0.3,4.9-1.6,6.7c-0.2-0.2-0.5-0.4-0.8-0.5c1.4-1.8,1.5-4.5,1.5-6.6
		v-5.4h5.5V57.6z M283.2,52.8h-3.7v4h3.7V52.8z"/>
</g>
<g>
	<rect x="147.5" y="86.2" class="st3" width="13" height="57.6"/>
	<path d="M148.4,90.3c0.8,0.3,1.9,0.9,2.4,1.3l-0.5,0.7c-0.5-0.4-1.6-1-2.4-1.4L148.4,90.3z M148.3,98c0.7-1,1.6-2.8,2.4-4.3
		l0.7,0.5c-0.6,1.4-1.5,3-2.1,4.1c0.1,0.1,0.1,0.1,0.1,0.2c0,0.1,0,0.1,0,0.1L148.3,98z M149.1,86.8c0.8,0.4,1.9,1,2.4,1.4l-0.5,0.7
		c-0.5-0.5-1.5-1.1-2.4-1.5L149.1,86.8z M156.4,91.2h3.7v0.8h-8.8v-0.8h1.6v-3.5l1.1,0.1c0,0.1-0.1,0.1-0.3,0.2v3.2h1.8v-4.6
		l1.1,0.1c0,0.1-0.1,0.2-0.2,0.2v1.7h3.2v0.8h-3.2V91.2z M151.3,97.9c0.9-0.5,2.3-1.3,3.6-2.1l0.3,0.8c-1.1,0.7-2.4,1.5-3.1,2
		c0,0.1,0,0.2-0.1,0.2L151.3,97.9z M152.7,92.5c0.8,0.6,1.7,1.5,2.1,2.1l-0.7,0.5c-0.4-0.6-1.3-1.5-2-2.1L152.7,92.5z M159.4,98.7
		c-0.7-0.7-2.1-1.8-3.2-2.5l0.6-0.6c1.1,0.7,2.6,1.7,3.3,2.4L159.4,98.7z M156.5,94.7c0.7-0.6,1.7-1.6,2.2-2.3l0.9,0.6
		c-0.1,0.1-0.2,0.1-0.3,0.1c-0.6,0.6-1.5,1.5-2.2,2.1L156.5,94.7z"/>
	<path d="M150.4,138.3c-0.6,0.4-1.2,0.9-1.9,1.2c-0.1-0.2-0.3-0.5-0.5-0.7c2.3-1.2,4.5-3.3,5.5-5.1l1.2,0.1c0,0.1-0.1,0.2-0.3,0.2
		c1.3,1.8,3.6,3.7,5.6,4.7c-0.2,0.2-0.4,0.5-0.6,0.8c-0.6-0.3-1.2-0.7-1.8-1.1v5h-0.9v-0.5h-5.6v0.6h-0.9V138.3z M152.8,132
		c0,0.1-0.2,0.1-0.3,0.1c-0.9,1.2-2.2,2.4-3.4,3.2c-0.2-0.2-0.5-0.4-0.6-0.6c1.2-0.7,2.5-1.9,3.4-3.1L152.8,132z M157.4,138.1
		c-1.4-1-2.7-2.3-3.5-3.5c-0.7,1.1-1.9,2.4-3.3,3.5H157.4z M151.2,142h5.6v-3.1h-5.6V142z M155.9,131.5c1.3,0.9,2.8,2.2,3.6,3.1
		l-0.7,0.5c-0.7-0.9-2.2-2.2-3.5-3.2L155.9,131.5z"/>
</g>
<g>
	<rect x="235.5" y="86.2" class="st3" width="13" height="57.6"/>
	<path d="M240.8,92.6c0,0.1-0.1,0.2-0.3,0.2c-0.3,2.5-0.8,4.8-3.9,6c-0.1-0.2-0.4-0.5-0.5-0.7c2.9-1,3.4-3.1,3.6-5.6L240.8,92.6z
		 M244.1,97.3c0,0.4,0.1,0.5,0.6,0.5h1.8c0.6,0,0.6-0.4,0.7-2.4c0.2,0.2,0.6,0.3,0.8,0.4c-0.1,2.2-0.3,2.8-1.4,2.8h-2
		c-1.1,0-1.4-0.3-1.4-1.4v-5h-7.1v-0.9h11.6v0.9h-3.6l-0.1,0V97.3z M246.7,87.6v0.8h-9.3v-0.8H246.7z"/>
	<path d="M237.7,113.6c-0.5,0.8-1,1.5-1.6,2.2c-0.1-0.2-0.3-0.6-0.5-0.8c1.2-1.4,2.5-3.6,3.3-5.9l1,0.4c-0.1,0.1-0.1,0.1-0.3,0.1
		c-0.3,0.9-0.7,1.8-1.2,2.7l0.4,0.1c0,0.1-0.1,0.1-0.3,0.2v8.6h-0.8V113.6z M244.3,119.7h3.8v0.8h-8.5v-0.8h3.9v-3.5h-3.1v-0.8h3.1
		v-3h-3.5v-0.8h4.7c-0.6-0.6-1.9-1.5-2.8-2.1l0.6-0.6c1,0.6,2.3,1.4,2.9,2l-0.6,0.7h3.3v0.8h-3.6v3h3.2v0.8h-3.2V119.7z"/>
	<path d="M247.9,134h-5.5v2h4.7v0.8h-10V136h4.5v-2h-5.4v-0.8h5.4v-2l1.2,0.1c0,0.1-0.1,0.2-0.3,0.2v1.7h5.5V134z M237.9,143.4v-5.1
		h8.2v5.1h-0.9v-0.6h-6.4v0.6H237.9z M245.2,139.1h-6.4v2.9h6.4V139.1z"/>
</g>
<g>
	<rect x="323.5" y="86.2" class="st3" width="13" height="57.6"/>
	<path d="M332.6,89.7h-0.9v-1.1h-3.7v1.1h-0.7c-0.1,0.2-0.2,0.5-0.4,0.8h7.5l0.5,0c0,0.1,0,0.2,0,0.3c-0.2,5.2-0.4,7-0.8,7.5
		c-0.3,0.4-0.6,0.5-1.4,0.5c-0.3,0-0.7,0-1,0c0-0.2-0.1-0.6-0.2-0.8c0.6,0,1.2,0.1,1.5,0.1c0.2,0,0.3,0,0.5-0.2
		c0.3-0.4,0.5-2,0.7-6.5h-7.5c-0.5,0.9-1.2,1.8-2.1,2.6c-0.1-0.2-0.4-0.4-0.7-0.6c1.4-1.2,2.3-2.8,2.8-4.1l0.6,0.1v-0.6h-3v-0.8h3
		v-1.1l1.1,0.1c0,0.1-0.1,0.2-0.3,0.2v0.9h3.7v-1.1l1.1,0.1c0,0.1-0.1,0.2-0.3,0.2v0.9h3.1v0.8h-3.1V89.7z M329.7,95.1
		c0.6,0.3,2.6,1.5,3,1.8l-0.5,0.7c-0.4-0.4-1.7-1.2-2.5-1.8v2.7h-0.8v-3.1c-0.9,1.2-2.3,2.3-3.5,2.9c-0.1-0.2-0.4-0.5-0.6-0.7
		c1.2-0.5,2.6-1.6,3.5-2.7h-2.9v-0.8h3.5v-2.5l1.1,0.1c0,0.1-0.1,0.2-0.2,0.2v2.2h3.5v0.8h-3.5V95.1z M327.1,94.1
		c-0.1-0.5-0.5-1.3-0.9-1.8l0.7-0.2c0.4,0.5,0.8,1.3,1,1.8L327.1,94.1z M332.7,92.3c0,0.1-0.1,0.1-0.3,0.1c-0.3,0.5-0.7,1.2-1.1,1.7
		c-0.1-0.1-0.5-0.2-0.6-0.3c0.4-0.5,0.8-1.3,1.1-1.9L332.7,92.3z"/>
	<path d="M335.1,137.8v5.6h-0.9v-0.5h-5.6v0.5h-0.9v-4.3c-1.1,0.7-2.2,1.2-3.4,1.5c-0.1-0.2-0.3-0.6-0.5-0.8c1.7-0.5,3.4-1.4,5-2.6
		c-0.5-0.6-1.4-1.3-2.1-1.8l0.6-0.5c0.7,0.5,1.6,1.2,2.1,1.8c1-0.9,1.9-2,2.5-3.3h-4.1c-0.9,1-2,2-3.3,2.8c-0.1-0.2-0.4-0.5-0.6-0.7
		c2.1-1.2,3.6-2.9,4.4-4.3l1.2,0.2c0,0.1-0.1,0.2-0.3,0.2c-0.2,0.3-0.4,0.7-0.7,1h4l0.2-0.1l0.6,0.3c0,0.1-0.1,0.1-0.2,0.1
		c-0.8,1.9-2.1,3.5-3.7,4.8H335.1z M328.6,142h5.6v-3.4h-5.6V142z"/>
</g>
<g>
	<rect x="147.5" y="179.2" class="st3" width="13" height="57.6"/>
	<path d="M159.8,184.4h-5.1c0.8,3.1,2.5,5.5,5.3,6.5c-0.2,0.2-0.5,0.6-0.6,0.8c-2.7-1.1-4.4-3.4-5.3-6.6c-0.6,2.6-2,5.1-5.4,6.6
		c-0.1-0.2-0.4-0.5-0.6-0.7c3.4-1.4,4.7-4,5.2-6.6h-5v-0.9h5.2c0.2-1.4,0.2-2.7,0.2-3.8l1.2,0.1c0,0.1-0.1,0.2-0.3,0.2
		c0,1,0,2.2-0.2,3.5h5.5V184.4z"/>
	<path d="M159.9,209v0.9h-3.1v4.2h-0.9v-4.2h-4c-0.3,1.7-1,3.2-2.9,4.3c-0.1-0.2-0.5-0.5-0.7-0.6c1.6-1,2.3-2.3,2.6-3.7h-2.8V209h3
		c0.1-0.6,0.1-1.1,0.1-1.7v-1.7h-2.6v-0.9h2.6V202l1.2,0.1c0,0.1-0.1,0.2-0.3,0.2v2.4h3.9V202l1.2,0.1c0,0.1-0.1,0.2-0.3,0.2v2.5
		h2.7v0.9h-2.7v3.4H159.9z M152.1,207.3c0,0.6,0,1.1-0.1,1.7h3.9v-3.4h-3.9V207.3z"/>
	<path d="M154.1,224.9v8.9h-4.9v1h-0.8v-9.9H154.1z M150.8,225.7h-1.7v3.2h1.7V225.7z M149.2,229.7v3.4h1.7v-3.4H149.2z
		 M153.3,228.9v-3.2h-1.7v3.2H153.3z M151.6,233.1h1.7v-3.4h-1.7V233.1z M160.1,225.9v0.8h-1.9v8.4c0,1.2-0.5,1.2-3.1,1.2
		c-0.1-0.2-0.2-0.6-0.3-0.9c0.5,0,1,0,1.4,0c1.2,0,1.2,0,1.2-0.4v-8.4h-3.1v-0.8H160.1z"/>
</g>
<g>
	<rect x="147.5" y="428.2" class="st3" width="13" height="57.6"/>
	<path d="M152.8,434.6c0,0.1-0.1,0.2-0.3,0.2c-0.3,2.5-0.8,4.8-3.9,6c-0.1-0.2-0.4-0.5-0.5-0.7c2.9-1,3.4-3.1,3.6-5.6L152.8,434.6z
		 M156.1,439.3c0,0.4,0.1,0.5,0.6,0.5h1.8c0.6,0,0.6-0.4,0.7-2.4c0.2,0.2,0.6,0.3,0.8,0.4c-0.1,2.2-0.3,2.8-1.4,2.8h-2
		c-1.1,0-1.4-0.3-1.4-1.4v-5h-7.1v-0.9h11.6v0.9h-3.6l-0.1,0V439.3z M158.7,429.6v0.8h-9.3v-0.8H158.7z"/>
	<path d="M149.7,455.6c-0.5,0.8-1,1.5-1.6,2.2c-0.1-0.2-0.3-0.6-0.5-0.8c1.2-1.4,2.5-3.6,3.3-5.9l1,0.4c-0.1,0.1-0.1,0.1-0.3,0.1
		c-0.3,0.9-0.7,1.8-1.2,2.7l0.4,0.1c0,0.1-0.1,0.1-0.3,0.2v8.6h-0.8V455.6z M156.3,461.7h3.8v0.8h-8.5v-0.8h3.9v-3.5h-3.1v-0.8h3.1
		v-3h-3.5v-0.8h4.7c-0.6-0.6-1.9-1.5-2.8-2.1l0.6-0.6c1,0.6,2.3,1.4,2.9,2l-0.6,0.7h3.3v0.8h-3.6v3h3.2v0.8h-3.2V461.7z"/>
	<path d="M159.9,476h-5.5v2h4.7v0.8h-10V478h4.5v-2h-5.4v-0.8h5.4v-2l1.2,0.1c0,0.1-0.1,0.2-0.3,0.2v1.7h5.5V476z M149.9,485.4v-5.1
		h8.2v5.1h-0.9v-0.6h-6.4v0.6H149.9z M157.2,481.1h-6.4v2.9h6.4V481.1z"/>
</g>
<g>
	<rect x="103.5" y="428.2" class="st3" width="13" height="57.6"/>
	<path d="M104.7,429.6h10.8v11.1h-0.9v-0.8h-9v0.8h-0.9V429.6z M109.5,430.4h-4v3.8h4V430.4z M105.5,435.1v3.9h4v-3.9H105.5z
		 M114.5,434.2v-3.8h-4.1v3.8H114.5z M110.4,439h4.1v-3.9h-4.1V439z"/>
	<path d="M104.5,444.1h11v11.5h-0.9V455h-9.3v0.6h-0.8V444.1z M105.3,454.2h9.3v-9.3h-9.3V454.2z M110.4,450.9
		c0.3,0.3,0.7,0.7,1.1,1c0.6-0.4,1.2-0.8,1.6-1.2l0.7,0.4c0,0.1-0.1,0.1-0.3,0.1c-0.4,0.3-1,0.7-1.6,1c0.7,0.4,1.4,0.7,2.2,0.9
		c-0.2,0.1-0.4,0.4-0.5,0.6c-1.3-0.4-2.7-1.2-3.6-2.2v2.3h-0.8v-2c-0.9,0.6-2,1.2-3.1,1.5c-0.1-0.1-0.3-0.4-0.5-0.5
		c1.2-0.4,2.6-1.1,3.6-1.9h-2.3v-2.2h5.7v2.2H110.4z M113.9,447.5v0.6H106v-0.6h3.5v-0.9h-2.7V446h2.7v-0.8l1.1,0.1
		c0,0.1-0.1,0.1-0.2,0.2v0.5h2.8v0.6h-2.8v0.9H113.9z M107.9,449.2v1.1h4.2v-1.1H107.9z"/>
	<path d="M108.2,460.6v0.7h-4.2v-0.7H108.2z M107.8,469.7h-2.6v0.6h-0.7v-4.4h3.4V469.7z M107.8,462.4v0.7h-3.4v-0.7H107.8z
		 M104.5,464.8v-0.7h3.4v0.7H104.5z M107.8,458.9v0.7h-3.2v-0.7H107.8z M107.1,466.6h-1.9v2.3h1.9V466.6z M115.6,459v10.4
		c0,1.1-0.5,1.1-2.5,1.1c0-0.2-0.1-0.6-0.3-0.9c0.4,0,0.7,0,1,0h0.6c0.2,0,0.3-0.1,0.3-0.3v-9.6h-5.1v3.9c0,2.1-0.1,5-1.3,6.9
		c-0.1-0.2-0.5-0.4-0.7-0.5c1.1-1.9,1.1-4.5,1.1-6.4V459H115.6z M110.3,463.3h1.6v-1.4h-1.4v-0.7h1.4V460l1,0.1
		c0,0.1-0.1,0.1-0.2,0.2v1h1.5v0.7h-1.5v1.4h1.7v0.7h-4V463.3z M114,468.4h-2.8v0.5h-0.7v-3.9h3.4V468.4z M113.3,465.7h-2.1v2h2.1
		V465.7z"/>
	<path d="M115.8,476.2h-7.2c-0.4,0.9-0.9,1.7-1.4,2.5h3v-1.8l1.1,0.1c0,0.1-0.1,0.2-0.3,0.2v1.6h4.1v4.3c0,1-0.5,1-2.8,1
		c-0.1-0.2-0.2-0.5-0.3-0.8c0.4,0,0.9,0,1.2,0h0.7c0.2,0,0.3-0.1,0.3-0.3v-3.4H111v5.9h-0.9v-5.9h-2.9v4.6h-0.9v-4.5
		c-0.6,0.7-1.2,1.3-2,1.8c-0.1-0.2-0.4-0.5-0.5-0.7c1.6-1.1,2.9-2.8,3.8-4.6h-3.4v-0.8h3.8c0.3-0.7,0.5-1.4,0.7-2.1l1.1,0.3
		c-0.1,0.1-0.1,0.1-0.3,0.1c-0.2,0.5-0.4,1.1-0.6,1.6h6.8V476.2z"/>
</g>
<g>
	<rect x="323.5" y="299.2" class="st3" width="13" height="57.6"/>
	<path class="st7" d="M331.6,300c0,0.1-0.1,0.1-0.3,0.1c-0.1,0.3-0.2,0.7-0.3,1h5v0.8h-5.3c-0.4,0.8-0.8,1.6-1.2,2.2
		c-0.1-0.2-0.4-0.4-0.6-0.5v3.8h-1.6v2.3h1.9v0.8h-3.9v0.8h-0.8v-10.8h4.7v0.8h-1.9v2h1.6v0.2c0.7-0.9,1.3-2.4,1.7-3.8L331.6,300z
		 M326.4,301.2h-1.2v2h1.2V301.2z M328.1,306.6v-2.5h-2.9v2.5H328.1z M326.4,309.6v-2.3h-1.2v2.3H326.4z M329.4,311.7v-4.6h2.7v4.4
		h-0.7V311h-1.3v0.7H329.4z M331.4,307.9h-1.3v2.4h1.3V307.9z M334.8,303v3.2h-4.5V303H334.8z M334,305.4v-1.7h-2.9v1.7H334z
		 M332.9,311.7v-4.6h2.8v4.4H335V311h-1.4v0.7H332.9z M335,307.9h-1.4v2.4h1.4V307.9z"/>
	<path class="st7" d="M328.1,345.1v8.6h-2.9v1.1h-0.8v-9.7H328.1z M327.3,345.9h-2v3.1h2V345.9z M325.3,352.9h2v-3.1h-2V352.9z
		 M332.6,348.5h3.4v0.8h-7.7v-0.8h3.4v-1.8h-2.8v-0.8h2.8v-1.6l1.1,0.1c0,0.1-0.1,0.2-0.3,0.2v1.4h2.9v0.8h-2.9V348.5z M334.7,349.6
		c0,0.1-0.1,0.2-0.2,0.2v1.1h1.6v0.8h-1.6v3.6c0,0.5-0.1,0.8-0.5,0.9c-0.4,0.1-1.1,0.1-2.1,0.1c0-0.2-0.2-0.6-0.3-0.8
		c0.5,0,1,0,1.3,0c0.7,0,0.8,0,0.8-0.3v-3.6h-5.2v-0.8h5.2v-1.4L334.7,349.6z M331,355c-0.3-0.6-1-1.6-1.7-2.3l0.7-0.4
		c0.7,0.7,1.4,1.6,1.8,2.3L331,355z"/>
</g>
<g>
	<rect x="278.7" y="299.2" class="st3" width="13" height="57.6"/>
	<path class="st7" d="M279.8,300.5h10.8v11.2h-0.9v-0.9h-9v0.9h-0.9V300.5z M280.7,309.9h9v-8.6h-9V309.9z M282.7,303.4h4.9v4.4
		h-4.9V303.4z M286.8,307.1v-2.9h-3.3v2.9H286.8z"/>
	<path class="st7" d="M282,349.5v4.3c1,1.5,2.9,1.5,5.2,1.5c1.4,0,3.1,0,4.1-0.1c-0.1,0.2-0.3,0.6-0.3,0.9c-0.9,0-2.3,0.1-3.6,0.1
		c-2.7,0-4.5,0-5.8-1.6c-0.6,0.6-1.3,1.2-1.9,1.6c0,0.1,0,0.2-0.1,0.2l-0.5-1c0.6-0.4,1.4-1,2.1-1.6v-3.5h-1.9v-0.8H282z
		 M280.1,344.6c0.9,0.6,1.9,1.4,2.3,2.1l-0.7,0.6c-0.4-0.6-1.4-1.5-2.3-2.1L280.1,344.6z M291.1,350.4h-3.5c0.5,1.7,1.7,2.9,3.5,3.4
		c-0.2,0.2-0.4,0.5-0.6,0.7c-1.8-0.6-2.9-1.8-3.5-3.6c-0.4,1.2-1.3,2.5-3.5,3.5c-0.1-0.2-0.4-0.5-0.6-0.7c2.4-1,3.1-2.3,3.4-3.4
		h-3.5v-0.8h3.6c0-0.2,0-0.3,0-0.5v-1.5h-3.2v-0.8h5.2l-0.7-0.3c0.4-0.6,1-1.6,1.3-2.2l1,0.4c0,0.1-0.1,0.1-0.3,0.1
		c-0.3,0.6-0.9,1.5-1.4,2h2.3v0.8h-3.4v1.5c0,0.1,0,0.3,0,0.5h3.8V350.4z M284.9,346.8c-0.2-0.6-0.7-1.5-1.2-2.2l0.7-0.3
		c0.5,0.7,1.1,1.5,1.2,2.1L284.9,346.8z"/>
</g>
<g>
	<rect x="235.5" y="299.2" class="st3" width="13" height="57.6"/>
	<path class="st7" d="M235.9,302.6v-0.7h4.6v0.7H235.9z M240.2,307.2v3.8h-3v0.6h-0.8v-4.4H240.2z M240.2,303.6v0.7h-3.7v-0.7H240.2
		z M236.5,306.1v-0.7h3.7v0.7H236.5z M240.2,300.1v0.7h-3.6v-0.7H240.2z M239.5,307.9h-2.2v2.3h2.2V307.9z M243.2,309.5l1.7-0.4
		l0.1,0.7c-1.4,0.3-2.8,0.7-3.7,0.9c0,0.1-0.1,0.2-0.2,0.2l-0.4-0.9c0.5-0.1,1.1-0.2,1.7-0.4v-3.9H241V305h3.6v0.8h-1.4V309.5z
		 M247.9,303.1h-2.1c0.1,4.1,0.4,7.5,1.3,7.7h0c0.2,0,0.4-0.8,0.4-1.9c0.2,0.2,0.4,0.4,0.6,0.5c-0.2,1.6-0.5,2.3-1.1,2.3
		c-0.1,0-0.2,0-0.3-0.1c-1.4-0.4-1.7-4.1-1.8-8.6h-4.2v-0.8h4.2l0-2.6l1.2,0.1c0,0.1-0.1,0.2-0.3,0.2c0,0.8,0,1.6,0,2.4h2.1V303.1z
		 M246.7,299.7c0.5,0.5,1.1,1.2,1.4,1.7l-0.6,0.4c-0.3-0.5-0.8-1.2-1.4-1.8L246.7,299.7z"/>
	<path class="st7" d="M238.6,327.2v4.3c1,1.5,2.9,1.5,5.4,1.5c1.4,0,3.1,0,4.1-0.1c-0.1,0.2-0.2,0.6-0.3,0.9c-0.9,0-2.3,0.1-3.6,0.1
		c-2.9,0-4.7,0-5.9-1.6c-0.6,0.6-1.2,1.2-1.7,1.6c0,0.1,0,0.2-0.1,0.2l-0.5-0.9c0.6-0.4,1.2-1,1.8-1.5V328H236v-0.8H238.6z
		 M236.8,322.3c0.8,0.6,1.7,1.5,2.1,2.2l-0.7,0.5c-0.4-0.7-1.3-1.6-2.1-2.2L236.8,322.3z M243.1,332.6v-1.4h-3.9v-0.7h3.9v-0.9h-2.9
		V326h2.9v-0.9h-3.4v-0.7h3.4v-1l1.1,0.1c0,0.1-0.1,0.2-0.3,0.2v0.8h3.4v0.7h-3.4v0.9h2.9v3.7h-2.9v0.9h3.9v0.7h-3.9v1.4H243.1z
		 M240.3,323.1v1h-0.8v-1.7h8.1v1.7h-0.8v-1H240.3z M241,326.6v0.9h2.1v-0.9H241z M241,329.1h2.1v-0.9H241V329.1z M246,326.6h-2.1
		v0.9h2.1V326.6z M246,329.1v-0.9h-2.1v0.9H246z"/>
	<path class="st7" d="M241.9,354h-2.6v2.3h-0.8V354H236v-0.8h2.6v-1.1h-2.1v-4.6h2.1v-1h-2.4v-0.8h2.4v-1.5l1.1,0.1
		c0,0.1-0.1,0.2-0.2,0.2v1.2h2.4v0.8h-2.4v1h2.2v4.6h-2.2v1.1h2.6V354z M237.2,348.2v1.3h1.4v-1.3H237.2z M237.2,350.1v1.3h1.4v-1.3
		H237.2z M240.8,349.5v-1.3h-1.5v1.3H240.8z M240.8,351.4v-1.3h-1.5v1.3H240.8z M246.4,351.9c0.8,1.3,1.5,3,1.8,4.1l-0.8,0.3
		c-0.1-0.3-0.2-0.6-0.3-0.9c-1.9,0.2-3.7,0.4-5,0.5c0,0.1-0.1,0.2-0.2,0.2l-0.3-1c0.3,0,0.7,0,1.1-0.1c0.4-1.3,0.8-3.3,1.1-4.8h-1.9
		v-0.8h6.2v0.8h-3.4c-0.3,1.4-0.7,3.3-1.2,4.7c1-0.1,2.2-0.2,3.3-0.2c-0.3-0.8-0.8-1.7-1.2-2.5L246.4,351.9z M247.5,345.2v0.8h-5.1
		v-0.8H247.5z"/>
</g>
<g>
	<rect x="147.5" y="299.2" class="st3" width="13" height="57.6"/>
	<path class="st1" d="M149.3,302.3c0,1.1-0.2,2.6-0.7,3.4l-0.7-0.4c0.4-0.8,0.7-2.1,0.7-3.2L149.3,302.3z M149.9,299.7l1.1,0.1
		c0,0.1-0.1,0.2-0.3,0.2v11.8h-0.9V299.7z M151.6,301.7c0.4,0.7,0.9,1.5,1.1,2.1l-0.6,0.4c-0.2-0.6-0.7-1.5-1.1-2.1L151.6,301.7z
		 M160.1,306.6h-3.7c0.7,2,2,3.7,3.9,4.4c-0.2,0.2-0.5,0.5-0.6,0.8c-1.9-0.8-3.2-2.5-4-4.7c-0.4,1.7-1.4,3.4-3.5,4.7
		c-0.1-0.2-0.4-0.5-0.6-0.6c2.2-1.3,3-2.9,3.4-4.5h-3v-0.8h3.1c0.1-0.7,0.1-1.5,0.1-2.1v-1h-2.4v-0.8h2.4v-2.2l1.1,0.1
		c0,0.1-0.1,0.2-0.3,0.2v1.9h2.9v3.9h1.2V306.6z M156,302.6v1c0,0.7,0,1.4-0.1,2.1h2.1v-3.1H156z"/>
	<path class="st1" d="M150.8,349.5v4.3c1,1.5,2.9,1.5,5.2,1.5c1.4,0,3.1,0,4.1-0.1c-0.1,0.2-0.3,0.6-0.3,0.9c-0.9,0-2.3,0.1-3.6,0.1
		c-2.7,0-4.5,0-5.8-1.6c-0.6,0.6-1.3,1.2-1.9,1.6c0,0.1,0,0.2-0.1,0.2l-0.5-1c0.6-0.4,1.4-1,2.1-1.6v-3.5H148v-0.8H150.8z
		 M148.9,344.6c0.9,0.6,1.9,1.4,2.3,2.1l-0.7,0.6c-0.4-0.6-1.4-1.5-2.3-2.1L148.9,344.6z M155.2,354.7v-3.4
		c-0.8,1.2-2.1,2.3-3.2,2.9c-0.1-0.2-0.4-0.5-0.6-0.7c1.2-0.5,2.5-1.6,3.3-2.8h-2.4v-3.2h2.9v-1.1h-3.6v-0.8h3.6v-1.5l1.1,0.1
		c0,0.1-0.1,0.2-0.2,0.2v1.3h3.9v0.8H156v1.1h3v3.2h-2.5c0.8,1.1,2.2,2.2,3.4,2.7c-0.2,0.2-0.5,0.5-0.6,0.7
		c-1.1-0.6-2.4-1.8-3.3-2.9v3.4H155.2z M153.1,348.4v1.8h2.1v-1.8H153.1z M158.2,348.4H156v1.8h2.2V348.4z"/>
</g>
<g>
	<rect x="103.5" y="299.2" class="st3" width="13" height="57.6"/>
	<path class="st7" d="M105.7,303.6v-0.2c-0.3,0.3-0.7,0.6-1.1,0.8c-0.1-0.2-0.4-0.5-0.6-0.6c1.7-1.1,3-2.6,3.6-3.9l1.1,0.2
		c0,0.1-0.1,0.2-0.3,0.2c-0.1,0.2-0.3,0.5-0.4,0.7h3.8l0.1-0.1l0.7,0.4c0,0.1-0.1,0.1-0.2,0.1c-0.3,0.5-0.7,1.1-1.1,1.6h2.9v4.6h-5
		c0.8,0.3,1.6,0.8,2.1,1.2l-0.6,0.6c-0.5-0.5-1.5-1.1-2.4-1.4l0.4-0.4h-3.3v-0.8h7.9v-1.2h-7.5v-0.7h7.5v-1.2H105.7z M106.6,308.5
		c-0.3,1.1-0.9,2.1-1.9,2.7l-0.7-0.5c0.9-0.6,1.5-1.5,1.8-2.5L106.6,308.5z M110.3,302.8c0.3-0.4,0.7-0.9,0.9-1.4h-3.8
		c-0.3,0.5-0.7,0.9-1.2,1.4H110.3z M108.3,310.4c0,0.3,0.1,0.4,0.8,0.4h2.3c0.6,0,0.7-0.2,0.7-1.5c0.2,0.1,0.5,0.3,0.8,0.3
		c-0.1,1.6-0.4,2-1.4,2H109c-1.3,0-1.6-0.2-1.6-1.1v-2l1.1,0.1c0,0.1-0.1,0.2-0.2,0.2V310.4z M115.3,311.3c-0.4-0.8-1.5-1.9-2.4-2.7
		l0.7-0.4c0.9,0.8,2,1.9,2.5,2.7L115.3,311.3z"/>
	<path class="st7" d="M107.9,344.7c0,0.1-0.1,0.1-0.3,0.1c-0.8,0.9-2.1,2.2-3.3,3c-0.1-0.2-0.4-0.5-0.5-0.7c1.1-0.7,2.4-1.9,3-2.8
		L107.9,344.7z M106,356.3v-5.7c-0.5,0.5-1,1.1-1.5,1.5c-0.1-0.2-0.4-0.5-0.6-0.7c1.2-1,2.7-2.7,3.6-4.4l1,0.4
		c0,0.1-0.1,0.1-0.3,0.1c-0.4,0.6-0.8,1.3-1.3,1.9l0.2,0.1c0,0.1-0.1,0.1-0.3,0.2v6.6H106z M116,348.9v0.8h-2.1v5.5
		c0,1.1-0.4,1.1-3,1.1c0-0.2-0.2-0.6-0.3-0.9c0.6,0,1.1,0,1.5,0c0.8,0,0.9,0,0.9-0.3v-5.5h-4.5v-0.8H116z M115.5,345.1v0.8H109v-0.8
		H115.5z"/>
</g>
<g>
	<rect x="191.5" y="428.2" class="st3" width="13" height="57.6"/>
	<path d="M193.8,429.5h8.4v10.9h-0.9v-0.8h-6.6v0.9h-0.9V429.5z M201.4,430.4h-6.6v3.7h6.6V430.4z M194.7,438.8h6.6V435h-6.6V438.8z
		"/>
	<path d="M203.9,476h-5.5v2h4.7v0.8h-10V478h4.5v-2h-5.4v-0.8h5.4v-2l1.2,0.1c0,0.1-0.1,0.2-0.3,0.2v1.7h5.5V476z M193.9,485.4v-5.1
		h8.2v5.1h-0.9v-0.6h-6.4v0.6H193.9z M201.2,481.1h-6.4v2.9h6.4V481.1z"/>
</g>
<rect x="182" y="621" class="st0" width="13" height="51"/>
<g>
	<rect x="236.6" y="179.2" class="st3" width="13" height="57.6"/>
	<path d="M242.6,183.6l0,0.5c-1.9,0.1-3.8,0.3-5,0.4c0,0.1-0.1,0.1-0.2,0.2l-0.3-0.8l0.9,0v-1.6l0.9,0.1c0,0.1-0.1,0.1-0.2,0.2v1.4
		l1-0.1v-2h-1.8V180h4.3v1.8h-1.8v0.6h2v0.6h-2v0.7L242.6,183.6z M239.4,190.1c-0.2,0.7-0.6,1.2-1.4,1.6l-0.6-0.5
		c0.7-0.2,1.1-0.8,1.3-1.3L239.4,190.1z M238.6,180.6v0.8h2.8v-0.8H238.6z M240.2,187.7v0.5h8.9v0.5h-8.9v0.5h7.3l0.2,0l0.5,0.1
		l-0.1,0.2c-0.2,1.7-0.4,2.2-1.2,2.2c-0.3,0-0.8,0-1.4,0c0-0.2-0.1-0.4-0.2-0.6l0.1,0c-0.2-0.3-0.5-0.7-0.9-0.9l0.6-0.3
		c0.4,0.3,0.7,0.6,0.9,0.9l-0.6,0.3c0.5,0.1,0.9,0.1,1.1,0.1c0.5,0,0.6-0.3,0.7-1.5h-8v-4.7h2.8c0.2-0.3,0.4-0.6,0.5-0.9l1,0.2
		c0,0.1-0.1,0.1-0.2,0.1c-0.1,0.2-0.2,0.3-0.4,0.5h3.8v2.6H240.2z M245.9,185.6h-5.7v0.5h5.7V185.6z M240.2,187.1h5.7v-0.6h-5.7
		V187.1z M240.7,191.6c0-0.4-0.2-0.9-0.4-1.4l0.7-0.2c0.2,0.4,0.4,1,0.4,1.3L240.7,191.6z M243.2,191.4c-0.1-0.3-0.5-0.9-0.8-1.2
		l0.7-0.2c0.3,0.4,0.7,0.9,0.8,1.2L243.2,191.4z M247.6,180.2l0.5,0.2c0,0.1-0.1,0.1-0.1,0.1c-0.4,0.5-0.8,0.9-1.4,1.3
		c0.9,0.3,1.8,0.5,2.8,0.7c-0.2,0.1-0.3,0.4-0.4,0.6c-0.4-0.1-0.8-0.1-1.1-0.2v1.8h-4v-1.7c-0.3,0.1-0.7,0.2-1,0.2
		c-0.1-0.2-0.2-0.4-0.4-0.6c0.9-0.1,1.9-0.4,2.8-0.7c-0.4-0.2-0.8-0.5-1.1-0.7c-0.3,0.2-0.7,0.4-1.2,0.6c-0.1-0.2-0.3-0.4-0.5-0.4
		c1.1-0.5,1.9-1.1,2.4-1.6l0.8,0.1c0,0.1-0.1,0.1-0.2,0.1c-0.1,0.1-0.2,0.2-0.3,0.3h2.2L247.6,180.2z M247.6,182.7
		c-0.6-0.2-1.1-0.3-1.6-0.6c-0.5,0.2-1,0.4-1.6,0.6H247.6z M247.1,184.1v-0.8h-2.5v0.8H247.1z M244.7,180.7c0.3,0.3,0.7,0.5,1.2,0.8
		c0.4-0.2,0.8-0.5,1.1-0.8H244.7z"/>
	<path d="M237.5,227.9c0.8,0.3,1.9,0.9,2.4,1.3l-0.5,0.7c-0.5-0.4-1.6-1-2.4-1.4L237.5,227.9z M237.4,235.6c0.7-1,1.6-2.8,2.4-4.3
		l0.7,0.5c-0.6,1.4-1.5,3-2.1,4.1c0.1,0.1,0.1,0.1,0.1,0.2c0,0.1,0,0.1,0,0.1L237.4,235.6z M238.2,224.4c0.8,0.4,1.9,1,2.4,1.4
		l-0.5,0.7c-0.5-0.5-1.5-1.1-2.4-1.5L238.2,224.4z M248.1,224.9l0.5,0.1c0,0.1,0,0.2,0,0.3c-0.1,3-0.3,4.1-0.6,4.5
		c-0.3,0.3-0.6,0.4-1.5,0.4c-0.3,0-0.7,0-1.1,0c0-0.2-0.1-0.6-0.3-0.8c0.7,0.1,1.4,0.1,1.6,0.1c0.2,0,0.4,0,0.5-0.1
		c0.2-0.2,0.3-1.1,0.5-3.5h-3c-0.4,2-1,3.9-3.7,5c-0.1-0.2-0.4-0.5-0.5-0.7c2.3-0.9,3-2.5,3.3-4.3h-2.6v-0.8h6.7L248.1,224.9z
		 M241.5,236.3v-5.3h6.6v5.2h-0.9v-0.6h-4.8v0.6H241.5z M247.2,231.9h-4.8v3.1h4.8V231.9z"/>
</g>
<g>
	<rect x="191.5" y="178.4" class="st3" width="13" height="57.6"/>
	<path d="M198.7,179.1c0,0.1-0.1,0.1-0.3,0.1c-0.1,0.4-0.4,1-0.6,1.5h4.7v10.2h-0.9v-0.7h-7.1v0.8h-0.9v-10.3h3.2
		c0.2-0.6,0.5-1.3,0.6-1.8L198.7,179.1z M201.6,181.5h-7.1v2.1h7.1V181.5z M201.6,184.4h-7.1v2.1h7.1V184.4z M194.5,189.4h7.1v-2.1
		h-7.1V189.4z"/>
	<path d="M198.4,196.3h4.7v9.5h-0.9V205h-8.5v0.8h-0.9v-9.5h4.7v-2.6l1.1,0.1c0,0.1-0.1,0.2-0.2,0.2V196.3z M197.5,197.2h-3.8v3h3.8
		V197.2z M193.7,201v3.1h3.8V201H193.7z M202.2,197.2h-3.8v3h3.8V197.2z M198.4,204.1h3.8V201h-3.8V204.1z"/>
	<path d="M197,209.2c0,0.2-0.2,0.2-0.4,0.2c-0.1,0.7-0.4,2-0.5,2.8c0.6-0.1,1.1-0.1,1.4-0.1c2,0,2.7,1.3,2.7,3.2
		c0,1-0.2,2.1-0.4,2.9c-0.4,1.3-1.2,2-2.3,2c-0.5,0-1.2-0.2-2.4-1.1c0.1-0.2,0.2-0.5,0.4-0.8c1,0.8,1.6,1,2,1c0.7,0,1.2-0.5,1.4-1.3
		c0.3-0.8,0.4-2,0.4-2.7c0-1.5-0.5-2.4-1.8-2.4c-0.4,0-0.9,0.1-1.6,0.1c-0.7,2.7-1.4,4.9-2.7,7l-0.9-0.4c1.3-2,2-4,2.6-6.5
		c-0.7,0.1-1.6,0.2-2.3,0.3l-0.1-0.9c0.6-0.1,1.7-0.2,2.6-0.3c0.2-0.9,0.4-2.1,0.6-3.3L197,209.2z M200,208.8
		c0.6,0.5,1.4,1.3,1.7,1.8l-0.5,0.4c-0.4-0.6-1.1-1.4-1.7-1.8L200,208.8z M202.9,216.4c-0.4-1.9-1.5-3.4-2.7-4.4l0.8-0.5
		c1.3,1.1,2.4,2.7,2.8,4.6L202.9,216.4z M202,208.3c0.6,0.5,1.4,1.2,1.8,1.8l-0.5,0.4c-0.4-0.6-1.1-1.4-1.7-1.8L202,208.3z"/>
	<path d="M200.8,234.1h3.2v0.9h-11.8v-0.9h2.1v-9.2l0.8,0.2c2.4-0.3,5-0.8,6.5-1.4l0.8,0.8c0,0-0.1,0.1-0.2,0.1c0,0-0.1,0-0.1,0
		c-1.7,0.6-4.4,1.1-6.9,1.4v2.3h8.2v0.9h-2.5V234.1z M195.1,229.1v5h4.8v-5H195.1z"/>
</g>
<g>
	<rect x="279.5" y="179.2" class="st3" width="13" height="57.6"/>
	<path d="M286.2,186.8c0.4,0.8,0.8,1.4,1.4,2c1-0.5,2.2-1.3,2.9-1.8l0.8,0.6c-0.1,0.1-0.2,0.1-0.3,0.1c-0.8,0.5-1.9,1.2-2.9,1.7
		c1,0.8,2.3,1.4,3.9,1.7c-0.2,0.2-0.4,0.5-0.5,0.8c-3-0.7-5.1-2.4-6.2-5h-2v3.6c1.1-0.2,2.4-0.4,3.5-0.6l0,0.7
		c-2.1,0.4-4.3,0.8-5.6,1c0,0.1-0.1,0.2-0.2,0.2l-0.4-0.9c0.5-0.1,1.1-0.2,1.7-0.3v-3.8h-2.3V186h2.3v-5.8h8.2v0.8h-7.3v1.2h6.9v0.7
		h-6.9v1.2h6.9v0.7h-6.9v1.2h8.5v0.8H286.2z"/>
	<path d="M280.4,205.6c0.8,0.3,1.8,0.9,2.3,1.4l-0.5,0.7c-0.5-0.5-1.5-1.1-2.3-1.4L280.4,205.6z M280.3,213.3c0.6-1,1.6-2.8,2.2-4.2
		l0.7,0.5c-0.6,1.4-1.4,3-2,4c0.1,0.1,0.1,0.1,0.1,0.2c0,0.1,0,0.1-0.1,0.1L280.3,213.3z M281.1,202.1c0.8,0.4,1.8,1,2.3,1.5
		c-0.3,0.4-0.4,0.5-0.5,0.7c-0.5-0.5-1.5-1.1-2.3-1.5L281.1,202.1z M292,211.1v0.8h-4.3v2.1h-0.8v-2.1h-3.9v-0.8h3.9V210h-3.2v-0.8
		h3.2v-1.1H284v-0.8h2.9v-1.2h-3.7v-0.8h3.7v-1.2h-2.8v-0.7h2.8V202l1.1,0.1c0,0.1-0.1,0.1-0.2,0.2v1.2h3.1v2h1.2v0.8h-1.2v2h-3.1
		v1.1h3.5v0.8h-3.5v1.1H292z M287.7,204.1v1.2h2.2v-1.2H287.7z M287.7,206.1v1.2h2.2v-1.2H287.7z"/>
	<path d="M280.7,225.2h10.8v11.1h-0.9v-0.8h-9v0.8h-0.9V225.2z M285.5,226h-4v3.8h4V226z M281.5,230.7v3.9h4v-3.9H281.5z
		 M290.5,229.8V226h-4.1v3.8H290.5z M286.4,234.5h4.1v-3.9h-4.1V234.5z"/>
</g>
<g>
	<rect x="279.5" y="86.4" class="st3" width="13" height="57.6"/>
	<path d="M281.8,87.7h8.4v10.9h-0.9v-0.8h-6.6v0.9h-0.9V87.7z M289.4,88.6h-6.6v3.7h6.6V88.6z M282.7,97h6.6v-3.8h-6.6V97z"/>
	<path d="M291.9,134.2h-5.5v2h4.7v0.8h-10v-0.8h4.5v-2h-5.4v-0.8h5.4v-2l1.2,0.1c0,0.1-0.1,0.2-0.3,0.2v1.7h5.5V134.2z M281.9,143.6
		v-5.1h8.2v5.1h-0.9V143h-6.4v0.6H281.9z M289.2,139.3h-6.4v2.9h6.4V139.3z"/>
</g>
<g>
	<rect x="235.5" y="428.2" class="st3" width="13" height="57.6"/>
	<path d="M244.6,431.7h-0.9v-1.1h-3.7v1.1h-0.7c-0.1,0.2-0.2,0.5-0.4,0.8h7.5l0.5,0c0,0.1,0,0.2,0,0.3c-0.2,5.2-0.4,7-0.8,7.5
		c-0.3,0.4-0.6,0.5-1.4,0.5c-0.3,0-0.7,0-1,0c0-0.2-0.1-0.6-0.2-0.8c0.6,0,1.2,0.1,1.5,0.1c0.2,0,0.3,0,0.5-0.2
		c0.3-0.4,0.5-2,0.7-6.5h-7.5c-0.5,0.9-1.2,1.8-2.1,2.6c-0.1-0.2-0.4-0.4-0.7-0.6c1.4-1.2,2.3-2.8,2.8-4.1l0.6,0.1v-0.6h-3v-0.8h3
		v-1.1l1.1,0.1c0,0.1-0.1,0.2-0.3,0.2v0.9h3.7v-1.1l1.1,0.1c0,0.1-0.1,0.2-0.3,0.2v0.9h3.1v0.8h-3.1V431.7z M241.7,437.1
		c0.6,0.3,2.6,1.5,3,1.8l-0.5,0.7c-0.4-0.4-1.7-1.2-2.5-1.8v2.7h-0.8v-3.1c-0.9,1.2-2.3,2.3-3.5,2.9c-0.1-0.2-0.4-0.5-0.6-0.7
		c1.2-0.5,2.6-1.6,3.5-2.7h-2.9v-0.8h3.5v-2.5l1.1,0.1c0,0.1-0.1,0.2-0.2,0.2v2.2h3.5v0.8h-3.5V437.1z M239.1,436.1
		c-0.1-0.5-0.5-1.3-0.9-1.8l0.7-0.2c0.4,0.5,0.8,1.3,1,1.8L239.1,436.1z M244.7,434.3c0,0.1-0.1,0.1-0.3,0.1
		c-0.3,0.5-0.7,1.2-1.1,1.7c-0.1-0.1-0.5-0.2-0.6-0.3c0.4-0.5,0.8-1.3,1.1-1.9L244.7,434.3z"/>
	<path d="M247.1,479.8v5.6h-0.9v-0.5h-5.6v0.5h-0.9v-4.3c-1.1,0.7-2.2,1.2-3.4,1.5c-0.1-0.2-0.3-0.6-0.5-0.8c1.7-0.5,3.4-1.4,5-2.6
		c-0.5-0.6-1.4-1.3-2.1-1.8l0.7-0.5c0.7,0.5,1.6,1.2,2.1,1.8c1-0.9,1.9-2,2.5-3.3h-4.1c-0.9,1-2,2-3.3,2.8c-0.1-0.2-0.4-0.5-0.6-0.7
		c2.1-1.2,3.6-2.9,4.4-4.3l1.2,0.2c0,0.1-0.1,0.2-0.3,0.2c-0.2,0.3-0.4,0.7-0.7,1h4l0.2-0.1l0.6,0.3c0,0.1-0.1,0.1-0.2,0.1
		c-0.8,1.9-2.1,3.5-3.7,4.8H247.1z M240.6,484h5.6v-3.4h-5.6V484z"/>
</g>
<g>
	<rect x="59.5" y="428.2" class="st3" width="13" height="57.6"/>
	<path d="M60.4,432.3c0.8,0.3,1.9,0.9,2.4,1.3l-0.5,0.7c-0.5-0.4-1.6-1-2.4-1.4L60.4,432.3z M60.3,440c0.7-1,1.6-2.8,2.4-4.3
		l0.7,0.5c-0.6,1.4-1.5,3-2.1,4.1c0.1,0.1,0.1,0.1,0.1,0.2c0,0.1,0,0.1,0,0.1L60.3,440z M61.1,428.8c0.8,0.4,1.9,1,2.4,1.4l-0.5,0.7
		c-0.5-0.5-1.5-1.1-2.4-1.5L61.1,428.8z M68.4,433.2H72v0.8h-8.8v-0.8h1.6v-3.5l1.1,0.1c0,0.1-0.1,0.1-0.3,0.2v3.2h1.8v-4.6l1.1,0.1
		c0,0.1-0.1,0.2-0.2,0.2v1.7h3.2v0.8h-3.2V433.2z M63.3,439.9c0.9-0.5,2.3-1.3,3.6-2.1l0.3,0.8c-1.1,0.7-2.4,1.5-3.1,2
		c0,0.1,0,0.2-0.1,0.2L63.3,439.9z M64.7,434.5c0.8,0.6,1.7,1.5,2.1,2.1l-0.7,0.5c-0.4-0.6-1.3-1.5-2-2.1L64.7,434.5z M71.4,440.7
		c-0.7-0.7-2.1-1.8-3.2-2.5l0.6-0.6c1.1,0.7,2.6,1.7,3.3,2.4L71.4,440.7z M68.5,436.7c0.7-0.6,1.7-1.6,2.2-2.3l0.9,0.6
		c-0.1,0.1-0.2,0.1-0.3,0.1c-0.6,0.6-1.5,1.5-2.2,2.1L68.5,436.7z"/>
	<path d="M62.4,480.3c-0.6,0.4-1.2,0.9-1.9,1.2c-0.1-0.2-0.3-0.5-0.5-0.7c2.3-1.2,4.5-3.3,5.5-5.1l1.2,0.1c0,0.1-0.1,0.2-0.3,0.2
		c1.3,1.8,3.6,3.7,5.6,4.7c-0.2,0.2-0.4,0.5-0.6,0.8c-0.6-0.3-1.2-0.7-1.8-1.1v5h-0.9v-0.5h-5.6v0.6h-0.9V480.3z M64.8,474
		c0,0.1-0.2,0.1-0.3,0.1c-0.9,1.2-2.2,2.4-3.4,3.2c-0.2-0.2-0.5-0.4-0.6-0.6c1.2-0.7,2.5-1.9,3.4-3.1L64.8,474z M69.4,480.1
		c-1.4-1-2.7-2.3-3.5-3.5c-0.7,1.1-1.9,2.4-3.3,3.5H69.4z M63.2,484h5.6v-3.1h-5.6V484z M67.9,473.5c1.3,0.9,2.8,2.2,3.6,3.1
		l-0.7,0.5c-0.7-0.9-2.2-2.2-3.5-3.2L67.9,473.5z"/>
</g>
<g>
	<rect x="59.5" y="614.6" class="st3" width="13" height="57.6"/>
	<path d="M71.8,619.8h-5.1c0.8,3.1,2.5,5.5,5.3,6.5c-0.2,0.2-0.5,0.6-0.6,0.8c-2.7-1.1-4.4-3.4-5.3-6.6c-0.6,2.6-2,5.1-5.4,6.6
		c-0.1-0.2-0.4-0.5-0.6-0.7c3.4-1.4,4.7-4,5.2-6.6h-5v-0.9h5.2c0.2-1.4,0.2-2.7,0.2-3.8l1.2,0.1c0,0.1-0.1,0.2-0.3,0.2
		c0,1,0,2.3-0.2,3.5h5.5V619.8z"/>
	<path d="M71.9,644.4v0.9h-3.1v4.2h-0.9v-4.2h-4c-0.3,1.7-1,3.2-2.9,4.3c-0.1-0.2-0.5-0.5-0.7-0.7c1.6-1,2.3-2.3,2.6-3.7h-2.8v-0.9
		h3c0.1-0.6,0.1-1.1,0.1-1.7V641h-2.6v-0.9h2.6v-2.7l1.2,0.1c0,0.1-0.1,0.2-0.3,0.2v2.4h3.9v-2.7l1.2,0.1c0,0.1-0.1,0.2-0.3,0.2v2.5
		h2.7v0.9h-2.7v3.4H71.9z M64.1,642.7c0,0.6,0,1.1-0.1,1.7h3.9V641h-3.9V642.7z"/>
	<path d="M66.1,660.3v8.9h-4.9v1h-0.8v-9.9H66.1z M62.8,661.1h-1.7v3.2h1.7V661.1z M61.2,665.1v3.4h1.7v-3.4H61.2z M65.3,664.3v-3.2
		h-1.7v3.2H65.3z M63.6,668.5h1.7v-3.4h-1.7V668.5z M72.1,661.3v0.8h-1.9v8.4c0,1.2-0.5,1.2-3.1,1.2c-0.1-0.2-0.2-0.6-0.3-0.9
		c0.5,0,1,0,1.4,0c1.2,0,1.2,0,1.2-0.4v-8.4h-3.1v-0.8H72.1z"/>
</g>
<g>
	<rect x="280" y="613.8" class="st3" width="13" height="57.6"/>
	<path d="M286,618.3l0,0.5c-1.9,0.1-3.8,0.3-5,0.4c0,0.1-0.1,0.1-0.2,0.2l-0.3-0.8l0.9,0v-1.6l0.9,0.1c0,0.1-0.1,0.1-0.2,0.2v1.4
		l1-0.1v-2h-1.8v-1.8h4.3v1.8h-1.8v0.6h2v0.6h-2v0.7L286,618.3z M282.9,624.8c-0.2,0.7-0.6,1.2-1.4,1.6l-0.6-0.5
		c0.7-0.2,1.1-0.8,1.3-1.3L282.9,624.8z M282.1,615.2v0.8h2.8v-0.8H282.1z M283.7,622.3v0.5h8.9v0.5h-8.9v0.5h7.3l0.2,0l0.5,0.1
		l-0.1,0.2c-0.2,1.7-0.4,2.2-1.2,2.2c-0.3,0-0.8,0-1.4,0c0-0.2-0.1-0.4-0.2-0.6l0.1,0c-0.2-0.3-0.5-0.7-0.9-0.9l0.6-0.3
		c0.4,0.3,0.7,0.7,0.9,0.9l-0.6,0.3c0.5,0.1,0.9,0.1,1.1,0.1c0.5,0,0.6-0.3,0.7-1.5h-8v-4.7h2.8c0.2-0.3,0.4-0.7,0.5-0.9l1,0.2
		c0,0.1-0.1,0.1-0.2,0.1c-0.1,0.2-0.2,0.3-0.4,0.5h3.8v2.6H283.7z M289.4,620.2h-5.7v0.5h5.7V620.2z M283.7,621.7h5.7v-0.6h-5.7
		V621.7z M284.2,626.2c0-0.4-0.2-0.9-0.4-1.4l0.7-0.2c0.2,0.4,0.4,1,0.4,1.3L284.2,626.2z M286.6,626c-0.1-0.3-0.5-0.9-0.8-1.2
		l0.7-0.2c0.3,0.4,0.7,0.9,0.8,1.2L286.6,626z M291.1,614.8l0.5,0.2c0,0.1-0.1,0.1-0.1,0.1c-0.4,0.5-0.8,0.9-1.4,1.3
		c0.9,0.3,1.8,0.5,2.8,0.7c-0.2,0.1-0.3,0.4-0.4,0.6c-0.4-0.1-0.8-0.1-1.1-0.2v1.8h-4v-1.7c-0.3,0.1-0.7,0.2-1,0.2
		c-0.1-0.2-0.2-0.4-0.4-0.6c0.9-0.1,1.9-0.4,2.8-0.7c-0.4-0.2-0.8-0.5-1.1-0.7c-0.3,0.2-0.7,0.4-1.2,0.6c-0.1-0.2-0.3-0.4-0.5-0.4
		c1.1-0.5,1.9-1.1,2.4-1.6l0.8,0.1c0,0.1-0.1,0.1-0.2,0.1c-0.1,0.1-0.2,0.2-0.3,0.3h2.2L291.1,614.8z M291,617.3
		c-0.6-0.2-1.1-0.3-1.6-0.6c-0.5,0.2-1,0.4-1.6,0.6H291z M290.5,618.7v-0.8H288v0.8H290.5z M288.1,615.4c0.3,0.3,0.7,0.5,1.2,0.8
		c0.4-0.2,0.8-0.5,1.1-0.8H288.1z"/>
	<path d="M280.9,662.5c0.8,0.3,1.9,0.9,2.4,1.3l-0.5,0.7c-0.5-0.4-1.6-1-2.4-1.4L280.9,662.5z M280.8,670.2c0.7-1,1.6-2.8,2.4-4.3
		l0.7,0.5c-0.6,1.4-1.5,3-2.1,4.1c0.1,0.1,0.1,0.1,0.1,0.2c0,0.1,0,0.1,0,0.1L280.8,670.2z M281.6,659c0.8,0.4,1.9,1,2.4,1.4
		l-0.5,0.7c-0.5-0.5-1.5-1.1-2.4-1.5L281.6,659z M291.6,659.5l0.5,0.1c0,0.1,0,0.2,0,0.3c-0.1,3-0.3,4.1-0.6,4.5
		c-0.3,0.3-0.6,0.4-1.5,0.4c-0.3,0-0.7,0-1.1,0c0-0.2-0.1-0.6-0.3-0.8c0.7,0.1,1.4,0.1,1.6,0.1c0.2,0,0.4,0,0.5-0.1
		c0.2-0.2,0.3-1.1,0.5-3.5h-3c-0.4,2-1,3.9-3.7,5c-0.1-0.2-0.4-0.5-0.5-0.7c2.3-0.9,3-2.5,3.3-4.3h-2.6v-0.8h6.7L291.6,659.5z
		 M285,670.9v-5.3h6.6v5.2h-0.9v-0.6h-4.8v0.6H285z M290.7,666.5h-4.8v3.1h4.8V666.5z"/>
</g>
<g>
	<rect x="103.5" y="613.8" class="st3" width="13" height="57.6"/>
	<path d="M115.8,619h-5.1c0.8,3.1,2.5,5.5,5.3,6.5c-0.2,0.2-0.5,0.6-0.6,0.8c-2.7-1.1-4.4-3.4-5.3-6.6c-0.6,2.6-2,5.1-5.4,6.6
		c-0.1-0.2-0.4-0.5-0.6-0.7c3.4-1.4,4.7-4,5.2-6.6h-5v-0.9h5.2c0.2-1.4,0.2-2.7,0.2-3.8l1.2,0.1c0,0.1-0.1,0.2-0.3,0.2
		c0,1,0,2.3-0.2,3.5h5.5V619z"/>
	<path d="M115.5,637.3v10.3c0,1.1-0.6,1.1-2.6,1.1c0-0.2-0.2-0.6-0.3-0.8c0.3,0,0.7,0,0.9,0c0.4,0,0.7,0,0.8,0
		c0.2,0,0.3-0.1,0.3-0.3v-9.4h-9.1v10.5h-0.8v-11.4H115.5z M113,647h-0.8v-0.7h-4.6v0.9h-0.8v-4.4l1,0.1c0,0.1-0.1,0.2-0.2,0.2v2.5
		h1.9v-3.8h-3.4v-0.8h7.9v0.8h-3.5c0,0.1-0.1,0.1-0.2,0.1v3.7h1.9v-2.8l1,0.1c0,0.1-0.1,0.2-0.2,0.2V647z M108.1,640.8
		c-0.1-0.6-0.5-1.5-1-2.1l0.7-0.3c0.5,0.6,0.9,1.5,1.1,2.1L108.1,640.8z M113,638.7c0,0.1-0.1,0.1-0.3,0.1c-0.3,0.6-0.7,1.5-1.1,2
		c-0.1-0.1-0.5-0.2-0.7-0.3c0.4-0.6,0.8-1.6,1-2.2L113,638.7z"/>
	<path d="M114.3,662l1.2,0.1c0,0.1-0.1,0.2-0.3,0.2v8.5h-0.9v-1.1h-8.6v1.1h-0.9V662l1.1,0.1c0,0.1-0.1,0.2-0.3,0.2v6.5h3.8v-9.7
		l1.2,0.1c0,0.1-0.1,0.2-0.3,0.2v9.4h3.9V662z"/>
</g>
<g>
	<rect x="323" y="613.8" class="st3" width="13" height="57.6"/>
	<path d="M329.7,621.4c0.4,0.8,0.8,1.4,1.4,2c1-0.5,2.2-1.3,2.9-1.8l0.8,0.6c-0.1,0.1-0.2,0.1-0.3,0.1c-0.8,0.5-1.9,1.2-2.9,1.7
		c1,0.8,2.3,1.4,3.9,1.7c-0.2,0.2-0.4,0.5-0.5,0.8c-3-0.7-5.1-2.4-6.2-5h-2v3.6c1.1-0.2,2.4-0.4,3.5-0.6l0,0.7
		c-2.1,0.4-4.3,0.8-5.6,1c0,0.1-0.1,0.2-0.2,0.2l-0.4-0.9c0.5-0.1,1.1-0.2,1.7-0.3v-3.8h-2.3v-0.8h2.3v-5.8h8.2v0.8h-7.3v1.2h6.9
		v0.7h-6.9v1.2h6.9v0.7h-6.9v1.2h8.5v0.8H329.7z"/>
	<path d="M323.9,640.2c0.8,0.3,1.8,0.9,2.3,1.4l-0.5,0.7c-0.5-0.5-1.5-1.1-2.3-1.4L323.9,640.2z M323.8,647.9c0.6-1,1.6-2.8,2.2-4.2
		l0.7,0.5c-0.6,1.4-1.4,3-2,4c0.1,0.1,0.1,0.1,0.1,0.2c0,0.1,0,0.1-0.1,0.1L323.8,647.9z M324.6,636.7c0.8,0.4,1.8,1,2.3,1.5
		c-0.3,0.4-0.4,0.5-0.5,0.7c-0.5-0.5-1.5-1.1-2.3-1.5L324.6,636.7z M335.5,645.7v0.8h-4.3v2.1h-0.8v-2.1h-3.9v-0.8h3.9v-1.1h-3.2
		v-0.8h3.2v-1.1h-2.9v-0.8h2.9v-1.2h-3.7v-0.8h3.7v-1.2h-2.8V638h2.8v-1.4l1.1,0.1c0,0.1-0.1,0.1-0.2,0.2v1.2h3.1v2h1.2v0.8h-1.2v2
		h-3.1v1.1h3.5v0.8h-3.5v1.1H335.5z M331.2,638.7v1.2h2.2v-1.2H331.2z M331.2,640.7v1.2h2.2v-1.2H331.2z"/>
	<path d="M324.1,659.8h10.8v11.1H334V670h-9v0.8h-0.9V659.8z M329,660.6h-4v3.8h4V660.6z M325,665.3v3.9h4v-3.9H325z M334,664.4
		v-3.8h-4.1v3.8H334z M329.9,669.1h4.1v-3.9h-4.1V669.1z"/>
</g>
<g>
	<rect x="147.5" y="613.8" class="st3" width="13" height="57.6"/>
	<path d="M154.7,614.5c0,0.1-0.1,0.1-0.3,0.1c-0.1,0.4-0.4,1-0.6,1.5h4.7v10.2h-0.9v-0.7h-7.1v0.8h-0.9v-10.3h3.2
		c0.2-0.6,0.5-1.3,0.6-1.8L154.7,614.5z M157.6,616.9h-7.1v2.1h7.1V616.9z M157.6,619.8h-7.1v2.1h7.1V619.8z M150.5,624.8h7.1v-2.1
		h-7.1V624.8z"/>
	<path d="M154.4,631.7h4.7v9.5h-0.9v-0.8h-8.5v0.8h-0.9v-9.5h4.7v-2.6l1.1,0.1c0,0.1-0.1,0.2-0.2,0.2V631.7z M153.5,632.6h-3.8v3
		h3.8V632.6z M149.7,636.4v3.1h3.8v-3.1H149.7z M158.2,632.6h-3.8v3h3.8V632.6z M154.4,639.5h3.8v-3.1h-3.8V639.5z"/>
	<path d="M153,644.6c0,0.2-0.2,0.2-0.4,0.2c-0.1,0.7-0.4,2-0.5,2.8c0.6-0.1,1.1-0.1,1.4-0.1c2,0,2.7,1.3,2.7,3.2
		c0,1-0.2,2.1-0.4,2.9c-0.4,1.3-1.2,2-2.3,2c-0.5,0-1.2-0.2-2.4-1.1c0.1-0.2,0.2-0.5,0.4-0.8c1,0.8,1.6,1,2,1c0.7,0,1.2-0.5,1.4-1.3
		c0.3-0.8,0.4-2,0.4-2.7c0-1.5-0.5-2.4-1.8-2.4c-0.4,0-0.9,0.1-1.6,0.1c-0.7,2.7-1.4,4.9-2.7,7l-0.9-0.4c1.3-2,2-4,2.6-6.5
		c-0.7,0.1-1.6,0.2-2.3,0.3l-0.1-0.9c0.6-0.1,1.7-0.2,2.6-0.3c0.2-0.9,0.4-2.1,0.6-3.3L153,644.6z M156,644.2
		c0.6,0.5,1.4,1.3,1.7,1.8l-0.5,0.4c-0.4-0.6-1.1-1.4-1.7-1.8L156,644.2z M158.9,651.8c-0.4-1.9-1.5-3.4-2.7-4.4l0.8-0.5
		c1.3,1.1,2.4,2.7,2.8,4.6L158.9,651.8z M158,643.7c0.6,0.5,1.4,1.2,1.8,1.8l-0.5,0.4c-0.4-0.6-1.1-1.4-1.7-1.8L158,643.7z"/>
	<path d="M156.8,669.5h3.2v0.9h-11.8v-0.9h2.1v-9.2l0.8,0.2c2.4-0.3,5-0.8,6.5-1.4l0.8,0.8c0,0-0.1,0.1-0.2,0.1c0,0-0.1,0-0.1,0
		c-1.7,0.6-4.4,1.1-6.9,1.4v2.3h8.2v0.9h-2.5V669.5z M151.1,664.5v5h4.8v-5H151.1z"/>
</g>
<g>
	<rect x="182.5" y="622" class="st3" width="11.9" height="49.4"/>
	<path d="M183.1,631.4h10.8v0.8h-10.8V631.4z M184.1,624.2h8.7v0.8h-8.7V624.2z"/>
	<path d="M194,640.4v0.8h-5.1v3.8c0,0.6-0.2,0.8-0.6,1c-0.4,0.1-1.2,0.1-2.4,0.1c-0.1-0.2-0.2-0.6-0.3-0.8c0.6,0,1.2,0,1.7,0
		c0.8,0,0.9,0,0.9-0.3v-3.8H183v-0.8h5.1v-2l0.5,0c0.9-0.5,2-1.2,2.7-1.9h-7.1v-0.8h8l0.1-0.1l0.7,0.5c0,0.1-0.1,0.1-0.2,0.1
		c-1,0.9-2.6,2.1-3.9,2.8v1.3H194z"/>
	<path d="M188.8,657.2h5.1v0.8H183v-0.8h4.9v-4h-3.8v-0.8h3.8V649h-4.3v-0.8h9.7v0.8h-4.5v3.5h4v0.8h-4V657.2z M192.2,656.6
		c-0.5-0.6-1.4-1.6-2.3-2.3l0.6-0.5c0.8,0.6,1.8,1.6,2.3,2.2L192.2,656.6z"/>
	<path d="M184.3,660.5l1,0.1c0,0.1-0.1,0.1-0.2,0.2v3.9c0,2.3-0.2,4.6-1.8,6.4c-0.2-0.2-0.5-0.4-0.7-0.6c1.4-1.7,1.6-3.8,1.6-5.9
		V660.5z M188.2,661l1,0.1c0,0.1-0.1,0.1-0.2,0.2v8.7h-0.8V661z M192.5,660.5l1.1,0.1c0,0.1-0.1,0.1-0.2,0.2V671h-0.8V660.5z"/>
</g>
<g>
	<rect x="59.5" y="299.2" class="st3" width="13" height="57.6"/>
	<path class="st5" d="M69.5,300.9l0.7,0.4c0,0.1-0.1,0.1-0.2,0.1c-0.8,1.3-1.9,2.4-3.2,3.3c1.6,1,3.5,1.7,5.4,2.1
		c-0.2,0.2-0.4,0.6-0.6,0.8c-0.6-0.1-1.1-0.3-1.6-0.5v4.5h-0.9v-0.5H63v0.6h-0.9v-4.5c-0.6,0.2-1.2,0.4-1.8,0.6
		c-0.1-0.2-0.3-0.6-0.5-0.8c1.8-0.4,3.7-1.2,5.4-2.2c-0.9-0.7-1.7-1.4-2.3-2.2c-0.7,0.7-1.5,1.2-2.3,1.7c-0.1-0.2-0.4-0.5-0.6-0.6
		c1.6-0.9,3.4-2.4,4.4-4.1l1,0.4c0,0.1-0.2,0.1-0.3,0.1c-0.2,0.3-0.4,0.6-0.7,0.9h4.9L69.5,300.9z M69.3,307c-1.2-0.5-2.3-1-3.3-1.7
		c-1,0.7-2.2,1.2-3.3,1.7H69.3z M63,310.4h6.1v-2.6H63V310.4z M63.8,301.8l-0.2,0.2c0.7,0.8,1.5,1.6,2.5,2.3c1.1-0.7,2-1.6,2.7-2.5
		H63.8z"/>
	<path class="st5" d="M61.6,348.9c-0.5,0.8-1,1.5-1.5,2.1c-0.1-0.2-0.3-0.6-0.5-0.8c1.2-1.4,2.4-3.6,3.1-5.9l1,0.3
		c0,0.1-0.1,0.1-0.3,0.1c-0.3,0.9-0.7,1.7-1.1,2.6l0.3,0.1c0,0.1-0.1,0.1-0.3,0.2v8.7h-0.8V348.9z M63.3,350.5h8.8v2.2h-0.8v-1.5
		h-7.2v1.5h-0.8V350.5z M63.5,345.6h3.8v-1.2l1.1,0.1c0,0.1-0.1,0.2-0.2,0.2v1H72v0.8h-8.5V345.6z M70.9,349.7h-6.3v-2.6h6.3V349.7z
		 M64.8,352.9v-0.7h6v0.7h-2.6v2.4c0,0.5-0.1,0.8-0.6,0.9c-0.4,0.1-0.9,0.1-2.4,0.1c0-0.2-0.2-0.6-0.3-0.8c0.5,0,0.9,0,1.3,0
		c1,0,1.1,0,1.1-0.2v-2.4H64.8z M65.4,347.8v1.3H70v-1.3H65.4z"/>
</g>
<g>
	<rect x="323.5" y="179.2" class="st3" width="13" height="57.6"/>
	<path d="M324.2,189.4h11.7v0.9h-11.7V189.4z M325.3,181.6h9.5v0.9h-9.5V181.6z"/>
	<path d="M336,200.5v0.9h-5.5v4.1c0,0.6-0.2,0.9-0.6,1c-0.5,0.1-1.3,0.2-2.6,0.2c-0.1-0.3-0.2-0.6-0.4-0.9c0.7,0,1.3,0,1.8,0
		c0.8,0,0.9,0,0.9-0.3v-4.1H324v-0.9h5.5v-2.1l0.5,0c1-0.5,2.1-1.3,3-2h-7.7v-0.9h8.6l0.2-0.1l0.8,0.5c0,0.1-0.1,0.1-0.2,0.1
		c-1.1,1-2.8,2.2-4.3,3v1.4H336z"/>
	<path d="M330.4,220.1h5.5v0.9h-11.8v-0.9h5.4v-4.3h-4.1v-0.8h4.1v-3.7h-4.7v-0.9h10.5v0.9h-4.9v3.7h4.4v0.8h-4.4V220.1z
		 M334.1,219.4c-0.5-0.7-1.6-1.8-2.5-2.5l0.7-0.5c0.9,0.7,2,1.7,2.5,2.4L334.1,219.4z"/>
	<path d="M325.5,225l1.1,0.1c0,0.1-0.1,0.2-0.3,0.2v4.2c0,2.5-0.2,5-1.9,7c-0.2-0.2-0.5-0.5-0.7-0.6c1.6-1.8,1.7-4.1,1.7-6.4V225z
		 M329.7,225.5l1.1,0.1c0,0.1-0.1,0.2-0.3,0.2v9.4h-0.9V225.5z M334.3,224.9l1.2,0.1c0,0.1-0.1,0.1-0.3,0.2v11.1h-0.9V224.9z"/>
</g>
<g>
</g>
<g>
</g>
<g>
</g>
<g>
</g>
<g>
</g>
<g>
</g>
<g>
</g>
<g>
</g>
<g>
</g>
<g>
</g>
<g>
</g>
<g>
</g>
<g>
</g>
<g>
</g>
<g>
</g>
<g>
</g>
<g>
</g>
<g>
</g>
</svg>
