<?xml version="1.0" encoding="utf-8"?>
<!-- Generator: Adobe Illustrator 16.0.0, SVG Export Plug-In . SVG Version: 6.00 Build 0)  -->
<!DOCTYPE svg PUBLIC "-//W3C//DTD SVG 1.1//EN" "http://www.w3.org/Graphics/SVG/1.1/DTD/svg11.dtd">
<svg version="1.1" id="レイヤー_1" xmlns="http://www.w3.org/2000/svg" xmlns:xlink="http://www.w3.org/1999/xlink" x="0px"
	 y="0px" width="440px" height="975px" viewBox="0 0 440 975" style="enable-background:new 0 0 440 975;" xml:space="preserve">
<style type="text/css">
<![CDATA[
	.st0{fill:#808080;}
	.st1{fill:#1A1A1A;stroke:#000000;stroke-width:4;stroke-miterlimit:10;}
	.st2{enable-background:new    ;}
	.st3{fill:#8B8B8B;}
	.st4{fill:#BEBEBE;}
	.st5{fill:#C0C0C0;}
	.st6{fill:#C9C9C9;}
	.st7{fill:#FF0000;}
	.st8{fill:#FFFF00;}
	.st9{fill:#FFFFCC;}
	.st10{fill:#FFFFFF;}
	.st11{fill:none;}
	.st12{fill:#CCCCCC;}
	.st13{fill:#0000FF;}
	.st14{fill:#009245;}
]]>
</style>
<rect class="st9" width="440" height="975"/>
<rect x="155" y="569" width="131" height="45"/>
<g>
	<rect x="155" y="570.5" class="st11" width="131" height="37"/>
	<path class="st12" d="M163.5,607.5l0.5-2c3.4,0,3.8-0.5,4.6-3.6l4.7-20.3c0.2-0.9,0.3-1.6,0.3-2.1c0-1.3-0.8-1.6-3.5-1.6l0.5-2.1
		h15.2l-0.5,2.1c-3.2,0-3.6,0.5-4.3,3.7l-2.2,9.3h0.2l12-10.6c0.6-0.5,1.1-1.1,1.1-1.5c0-0.5-0.6-0.8-2.1-0.8l0.5-2.1h11.8l-0.5,2.1
		c-2.2,0-4.6,0.6-7.4,2.9l-8.8,7.5l7.6,14.5c1.2,2.2,1.8,2.6,4.1,2.6l-0.5,2h-10l-6.9-14.5l-2,1.7l-1.6,7.2
		c-0.2,0.9-0.3,1.5-0.3,2.1c0,1.3,0.8,1.6,3.4,1.6l-0.5,2H163.5z"/>
	<path class="st12" d="M217.5,596.5c0,5.4-3.2,11.4-11.3,11.4c-4.6,0-7.4-2.7-7.4-7.3c0-4.7,3.1-11.4,11.1-11.4
		C214.8,589.2,217.5,592.3,217.5,596.5z M203.5,601.8c0,2.8,0.8,5,3.2,5c3.9,0,6-6.2,6-11.7c0-1.8-0.4-4.6-3.1-4.6
		C205.8,590.4,203.5,596.7,203.5,601.8z"/>
	<path class="st12" d="M216,607.6l0.3-1.2c2,0,2.3-0.3,2.7-2.1l2.7-11.6c0.1-0.5,0.2-0.9,0.2-1.2c0-0.8-0.5-0.9-2.1-0.9l0.3-1.2h9.1
		l-0.3,1.2c-2,0-2.3,0.3-2.7,2.1l-2.7,11.6c-0.1,0.4-0.2,0.8-0.2,1.1c0,0.8,0.6,1,2.2,1l-0.2,1.2H216z"/>
	<path class="st12" d="M230.8,607.5l0.5-2c4,0,4.5-0.5,5.3-3.6l5.7-23.6h-3.3c-2.8,0-3.5,0.5-6.4,5.9h-2.8l2.8-8.3h28.3l-1.5,8.3h-3
		c0.1-0.9,0.1-1.7,0.1-2.3c0-3.4-1.1-3.6-3.8-3.6h-3l-5.3,23.6c-0.2,0.8-0.3,1.5-0.3,2c0,1.3,0.9,1.6,4,1.6l-0.5,2H230.8z"/>
	<path class="st12" d="M275.5,596.5c0,5.4-3.2,11.4-11.3,11.4c-4.6,0-7.4-2.7-7.4-7.3c0-4.7,3.1-11.4,11.1-11.4
		C272.8,589.2,275.5,592.3,275.5,596.5z M261.5,601.8c0,2.8,0.8,5,3.2,5c3.9,0,6-6.2,6-11.7c0-1.8-0.4-4.6-3.1-4.6
		C263.8,590.4,261.5,596.7,261.5,601.8z"/>
</g>
<rect x="53" y="101" class="st1" width="334" height="278"/>
<g>
	<g>
		<g class="st2">
			<g>
				<path class="st4" d="M54,102h83H54z"/>
			</g>
			<g>
				<polygon class="st0" points="135,128 137,130 54,130 56,128 				"/>
			</g>
			<g>
				<polygon class="st5" points="56,128 54,130 54,102 56,104 				"/>
			</g>
			<g>
				<polygon class="st6" points="56,104 54,102 137,102 135,104 				"/>
			</g>
			<g>
				<polygon class="st0" points="135,104 137,102 137,130 135,128 				"/>
			</g>
			<g>
				<rect x="56" y="104" class="st3" width="79" height="24"/>
			</g>
		</g>
	</g>
</g>
<rect x="56" y="104" class="st8" width="79" height="24"/>
<g>
	<rect x="56" y="111.5" class="st11" width="79" height="9"/>
	<path d="M90.5,115.1H87c0.6,2.2,1.7,3.8,3.7,4.5c-0.2,0.1-0.4,0.4-0.5,0.6c-1.9-0.8-3-2.4-3.7-4.5c-0.4,1.8-1.4,3.5-3.7,4.5
		c-0.1-0.2-0.3-0.4-0.4-0.5c2.4-1,3.3-2.8,3.6-4.6h-3.5v-0.6h3.6c0.1-0.9,0.1-1.9,0.1-2.6l0.8,0c0,0.1-0.1,0.1-0.2,0.2
		c0,0.7,0,1.6-0.1,2.4h3.8V115.1z"/>
	<path d="M99.6,116.7v0.6h-2.1v2.9h-0.6v-2.9H94c-0.2,1.2-0.7,2.2-2,3c-0.1-0.1-0.3-0.4-0.5-0.5c1.1-0.7,1.6-1.6,1.8-2.5h-2v-0.6
		h2.1c0-0.4,0.1-0.8,0.1-1.2v-1.2h-1.8v-0.6h1.8v-1.9l0.8,0.1c0,0.1-0.1,0.1-0.2,0.1v1.7h2.7v-1.9l0.8,0.1c0,0.1-0.1,0.1-0.2,0.1
		v1.7h1.9v0.6h-1.9v2.4H99.6z M94.2,115.5c0,0.4,0,0.8,0,1.2h2.7v-2.4h-2.7V115.5z"/>
	<path d="M104.5,112.3v6.2h-3.4v0.7h-0.5v-6.9H104.5z M102.3,112.8h-1.2v2.2h1.2V112.8z M101.1,115.6v2.3h1.2v-2.3H101.1z M104,115
		v-2.2h-1.2v2.2H104z M102.8,117.9h1.2v-2.3h-1.2V117.9z M108.7,112.9v0.6h-1.3v5.8c0,0.8-0.4,0.8-2.2,0.8c0-0.2-0.1-0.4-0.2-0.6
		c0.3,0,0.7,0,1,0c0.8,0,0.8,0,0.8-0.2v-5.8h-2.1v-0.6H108.7z"/>
</g>
<g>
	<g>
		<g class="st2">
			<g>
				<path class="st4" d="M137,102h83H137z"/>
			</g>
			<g>
				<polygon class="st0" points="218,128 220,130 137,130 139,128 				"/>
			</g>
			<g>
				<polygon class="st5" points="139,128 137,130 137,102 139,104 				"/>
			</g>
			<g>
				<polygon class="st6" points="139,104 137,102 220,102 218,104 				"/>
			</g>
			<g>
				<polygon class="st0" points="218,104 220,102 220,130 218,128 				"/>
			</g>
			<g>
				<rect x="139" y="104" class="st3" width="79" height="24"/>
			</g>
		</g>
	</g>
</g>
<rect x="139" y="104" class="st10" width="79" height="24"/>
<g>
	<rect x="139" y="111.5" class="st11" width="79" height="9"/>
	<path d="M165.6,114.4c0.6,0.2,1.2,0.6,1.6,0.9l-0.4,0.5c-0.3-0.3-1-0.7-1.6-1L165.6,114.4z M165.5,119.7c0.4-0.7,1-1.9,1.5-3
		l0.5,0.4c-0.4,1-1,2.1-1.4,2.8c0,0,0,0.1,0,0.1c0,0,0,0.1,0,0.1L165.5,119.7z M166.1,111.9c0.5,0.3,1.2,0.7,1.6,1
		c-0.2,0.3-0.3,0.4-0.4,0.5c-0.3-0.3-1-0.8-1.5-1L166.1,111.9z M173.7,118.2v0.5h-0.8v0.9c0,0.6-0.3,0.6-1.7,0.6
		c0-0.1-0.1-0.4-0.2-0.5c0.5,0,1,0,1.1,0c0.1,0,0.2,0,0.2-0.2v-0.9h-3.4v1.5h-0.6v-1.5h-0.9v-0.5h0.9v-2.3h1.9v-0.6h-2.7v-0.5h1.6
		v-0.6h-1.1v-0.5h1.1v-0.6h-1.3v-0.5h1.3v-0.8l0.8,0c0,0.1-0.1,0.1-0.2,0.1v0.6h1.6v-0.8l0.8,0c0,0.1-0.1,0.1-0.2,0.1v0.6h1.4v0.5
		H172v0.6h1.2v0.5H172v0.6h1.7v0.5h-2.8v0.6h2v2.3H173.7z M170.3,116.4h-1.4v0.6h1.4V116.4z M168.9,117.5v0.7h1.4v-0.7H168.9z
		 M169.8,113.1v0.6h1.6v-0.6H169.8z M169.8,114.2v0.6h1.6v-0.6H169.8z M172.3,116.4h-1.5v0.6h1.5V116.4z M170.8,118.2h1.5v-0.7h-1.5
		V118.2z"/>
	<path d="M179,113.5c0,0.1-0.1,0.1-0.2,0.1c-0.3,2.8-1.3,5.2-2.8,5.2c-0.8,0-1.4-0.8-1.4-2.2c0-2.2,1.7-4,4.1-4
		c2.6,0,3.7,1.6,3.7,3.4c0,2.1-1.2,3.2-3.4,3.7c-0.1-0.1-0.2-0.4-0.4-0.5c2.1-0.4,3.1-1.4,3.1-3.1c0-1.5-1-2.8-3.1-2.8
		c-0.1,0-0.2,0-0.3,0L179,113.5z M178.1,113.3c-1.8,0.2-2.9,1.7-2.9,3.3c0,1,0.4,1.6,0.8,1.6C177.1,118.2,177.9,115.8,178.1,113.3z"
		/>
	<path d="M184,112.6h7.1v7.5h-0.6v-0.8h-5.8v0.8H184V112.6z M184.6,118.7h5.8v-5.5h-5.8V118.7z"/>
</g>
<g>
	<g>
		<g class="st2">
			<g>
				<path class="st4" d="M220,102h83H220z"/>
			</g>
			<g>
				<polygon class="st0" points="301,128 303,130 220,130 222,128 				"/>
			</g>
			<g>
				<polygon class="st5" points="222,128 220,130 220,102 222,104 				"/>
			</g>
			<g>
				<polygon class="st6" points="222,104 220,102 303,102 301,104 				"/>
			</g>
			<g>
				<polygon class="st0" points="301,104 303,102 303,130 301,128 				"/>
			</g>
			<g>
				<rect x="222" y="104" class="st3" width="79" height="24"/>
			</g>
		</g>
	</g>
</g>
<rect x="222" y="104" class="st10" width="79" height="24"/>
<g>
	<rect x="222" y="111.5" class="st11" width="79" height="9"/>
	<path d="M256.5,115.1H253c0.6,2.2,1.7,3.8,3.7,4.5c-0.2,0.1-0.4,0.4-0.5,0.6c-1.9-0.8-3-2.4-3.7-4.5c-0.4,1.8-1.4,3.5-3.7,4.5
		c-0.1-0.2-0.3-0.4-0.4-0.5c2.4-1,3.3-2.8,3.6-4.6h-3.5v-0.6h3.6c0.1-0.9,0.1-1.9,0.1-2.6l0.8,0c0,0.1-0.1,0.1-0.2,0.2
		c0,0.7,0,1.6-0.1,2.4h3.8V115.1z"/>
	<path d="M265.3,112.3v7.1c0,0.8-0.4,0.8-1.8,0.8c0-0.2-0.1-0.4-0.2-0.6c0.2,0,0.5,0,0.7,0c0.3,0,0.5,0,0.6,0c0.2,0,0.2,0,0.2-0.2
		v-6.5h-6.3v7.3h-0.6v-7.9H265.3z M263.6,119h-0.5v-0.5h-3.2v0.6h-0.5v-3.1l0.7,0c0,0.1-0.1,0.1-0.2,0.1v1.8h1.3v-2.6h-2.4v-0.5h5.5
		v0.5h-2.4c0,0-0.1,0.1-0.2,0.1v2.6h1.3v-1.9l0.7,0c0,0.1-0.1,0.1-0.2,0.1V119z M260.2,114.7c-0.1-0.4-0.4-1-0.7-1.4l0.5-0.2
		c0.3,0.4,0.6,1,0.7,1.4L260.2,114.7z M263.6,113.3c0,0.1-0.1,0.1-0.2,0.1c-0.2,0.4-0.5,1-0.8,1.4c-0.1,0-0.4-0.1-0.5-0.2
		c0.3-0.4,0.6-1.1,0.7-1.5L263.6,113.3z"/>
	<path d="M273.5,114l0.8,0.1c0,0.1-0.1,0.1-0.2,0.1v5.9h-0.6v-0.7h-6v0.8h-0.6V114l0.8,0.1c0,0.1-0.1,0.1-0.2,0.1v4.5h2.6V112
		l0.8,0.1c0,0.1-0.1,0.1-0.2,0.1v6.5h2.7V114z"/>
</g>
<g>
	<g>
		<g class="st2">
			<g>
				<path class="st4" d="M303,102h83H303z"/>
			</g>
			<g>
				<polygon class="st0" points="384,128 386,130 303,130 305,128 				"/>
			</g>
			<g>
				<polygon class="st5" points="305,128 303,130 303,102 305,104 				"/>
			</g>
			<g>
				<polygon class="st6" points="305,104 303,102 386,102 384,104 				"/>
			</g>
			<g>
				<polygon class="st0" points="384,104 386,102 386,130 384,128 				"/>
			</g>
			<g>
				<rect x="305" y="104" class="st3" width="79" height="24"/>
			</g>
		</g>
	</g>
</g>
<rect x="305" y="104" class="st10" width="79" height="24"/>
<g>
	<rect x="305" y="111.5" class="st11" width="79" height="9"/>
	<path d="M331.5,112c0,0.1-0.1,0.1-0.2,0.1c-0.1,0.3-0.3,0.7-0.4,1h3.3v7.1h-0.6v-0.5h-4.9v0.5H328v-7.1h2.2
		c0.2-0.4,0.3-0.9,0.4-1.3L331.5,112z M333.5,113.7h-4.9v1.4h4.9V113.7z M333.5,115.7h-4.9v1.4h4.9V115.7z M328.6,119.1h4.9v-1.4
		h-4.9V119.1z"/>
	<path d="M340.3,113.6h3.3v6.5h-0.6v-0.5H337v0.6h-0.6v-6.6h3.2v-1.8l0.8,0c0,0.1-0.1,0.1-0.2,0.1V113.6z M339.7,114.2H337v2.1h2.6
		V114.2z M337,116.9v2.1h2.6v-2.1H337z M342.9,114.2h-2.7v2.1h2.7V114.2z M340.3,119h2.7v-2.1h-2.7V119z"/>
	<path d="M348.3,112.3c0,0.1-0.1,0.2-0.3,0.2c-0.1,0.5-0.3,1.4-0.4,1.9c0.4,0,0.8-0.1,1-0.1c1.4,0,1.8,0.9,1.8,2.2
		c0,0.7-0.1,1.5-0.3,2c-0.3,0.9-0.9,1.4-1.6,1.4c-0.4,0-0.9-0.2-1.6-0.8c0.1-0.2,0.2-0.4,0.2-0.5c0.7,0.6,1.1,0.7,1.4,0.7
		c0.5,0,0.8-0.3,1-0.9c0.2-0.6,0.3-1.4,0.3-1.8c0-1-0.3-1.6-1.2-1.6c-0.3,0-0.6,0-1.1,0.1c-0.5,1.8-1,3.4-1.8,4.9l-0.6-0.3
		c0.9-1.4,1.4-2.8,1.8-4.5c-0.5,0.1-1.1,0.1-1.6,0.2l-0.1-0.6c0.4-0.1,1.2-0.1,1.8-0.2c0.1-0.7,0.3-1.5,0.4-2.3L348.3,112.3z
		 M350.4,112c0.4,0.3,0.9,0.9,1.2,1.3l-0.4,0.3c-0.3-0.4-0.8-1-1.2-1.3L350.4,112z M352.4,117.2c-0.3-1.3-1-2.4-1.8-3.1l0.5-0.4
		c0.9,0.7,1.7,1.9,2,3.2L352.4,117.2z M351.7,111.6c0.4,0.3,1,0.9,1.2,1.3l-0.4,0.3c-0.3-0.4-0.8-1-1.2-1.3L351.7,111.6z"/>
	<path d="M359.9,119.2h2.2v0.6h-8.2v-0.6h1.5v-6.4l0.5,0.1c1.7-0.2,3.5-0.6,4.5-1l0.5,0.5c0,0-0.1,0-0.1,0c0,0,0,0-0.1,0
		c-1.2,0.4-3.1,0.7-4.8,1v1.6h5.7v0.6h-1.7V119.2z M356,115.7v3.5h3.3v-3.5H356z"/>
</g>
<g>
	<g>
		<g class="st2">
			<g>
				<path class="st4" d="M54,130h83H54z"/>
			</g>
			<g>
				<polygon class="st0" points="135,156 137,158 54,158 56,156 				"/>
			</g>
			<g>
				<polygon class="st5" points="56,156 54,158 54,130 56,132 				"/>
			</g>
			<g>
				<polygon class="st6" points="56,132 54,130 137,130 135,132 				"/>
			</g>
			<g>
				<polygon class="st0" points="135,132 137,130 137,158 135,156 				"/>
			</g>
			<g>
				<rect x="56" y="132" class="st3" width="79" height="24"/>
			</g>
		</g>
	</g>
</g>
<rect x="56" y="132" class="st10" width="79" height="24"/>
<g>
	<rect x="56" y="139.5" class="st11" width="79" height="9"/>
	<path d="M82.3,141.5h3.4v4.2H85v-0.5h-2.7v3h-0.6v-3h-2.7v0.6h-0.6v-4.3h3.3v-1.6l0.8,0.1c0,0.1-0.1,0.1-0.2,0.1V141.5z
		 M78.9,144.6h2.7v-2.5h-2.7V144.6z M82.3,144.6H85v-2.5h-2.7V144.6z"/>
	<path d="M95.1,144.7h-3.5c0.6,1.5,1.8,2.6,3.7,3c-0.1,0.1-0.3,0.4-0.4,0.6c-1.9-0.5-3.2-1.6-3.9-3.3c-0.4,1.3-1.4,2.5-3.8,3.3
		c-0.1-0.2-0.2-0.4-0.4-0.5c2.3-0.7,3.3-1.8,3.6-3h-3.5v-0.6h1v-3h2.7v-1.3l0.8,0.1c0,0.1-0.1,0.1-0.2,0.1v1.1h2.9v3h1V144.7z
		 M88.5,144.1h2c0.1-0.4,0.1-0.8,0.1-1.1v-1.2h-2.1V144.1z M93.5,141.7h-2.2v1.2c0,0.4,0,0.8-0.1,1.1h2.3V141.7z"/>
	<path d="M98.2,143.2c0.3,0.3,1.2,1.3,1.4,1.5l-0.4,0.5c-0.2-0.3-0.7-0.9-1-1.3v4.2h-0.6v-4.6c-0.4,1.1-1,2.3-1.6,2.9
		c-0.1-0.2-0.2-0.4-0.3-0.6c0.7-0.8,1.4-2.2,1.8-3.5h-1.6v-0.6h1.7v-2l0.8,0.1c0,0.1-0.1,0.1-0.2,0.1v1.8h1.4v0.6h-1.4V143.2z
		 M104.1,142.4h-1.7c0.4,1.5,1.1,3,1.9,3.8c-0.1,0.1-0.4,0.3-0.5,0.5c-0.6-0.8-1.2-2.1-1.6-3.4v4.9h-0.6v-4.7
		c-0.5,1.3-1.3,2.6-2.1,3.3c-0.1-0.2-0.3-0.4-0.4-0.5c0.9-0.8,1.8-2.4,2.3-3.9h-1.6v-0.6h1.7v-2l0.8,0.1c0,0.1-0.1,0.1-0.2,0.1v1.8
		h1.9V142.4z"/>
	<path d="M108.5,143.3h-2.7v4.9h-0.6v-8h3.3V143.3z M108,140.7h-2.1v0.8h2.1V140.7z M105.9,142.8h2.1V142h-2.1V142.8z M110.7,147.3
		h-2.8v0.5h-0.6V144h3.4V147.3z M110.1,144.5h-2.3v0.9h2.3V144.5z M107.8,146.8h2.3v-0.9h-2.3V146.8z M112.8,140.2v7.1
		c0,0.8-0.4,0.8-1.9,0.8c0-0.2-0.1-0.5-0.2-0.6c0.3,0,0.6,0,0.8,0c0.7,0,0.7,0,0.7-0.2v-4h-2.8v-3.1H112.8z M112.2,140.7H110v0.8
		h2.2V140.7z M110,142.9h2.2V142H110V142.9z"/>
</g>
<g>
	<g>
		<g class="st2">
			<g>
				<path class="st4" d="M137,130h83H137z"/>
			</g>
			<g>
				<polygon class="st0" points="218,156 220,158 137,158 139,156 				"/>
			</g>
			<g>
				<polygon class="st5" points="139,156 137,158 137,130 139,132 				"/>
			</g>
			<g>
				<polygon class="st6" points="139,132 137,130 220,130 218,132 				"/>
			</g>
			<g>
				<polygon class="st0" points="218,132 220,130 220,158 218,156 				"/>
			</g>
			<g>
				<rect x="139" y="132" class="st3" width="79" height="24"/>
			</g>
		</g>
	</g>
</g>
<rect x="139" y="132" class="st10" width="79" height="24"/>
<g>
	<rect x="139" y="139.5" class="st11" width="79" height="9"/>
	<path d="M169.6,144.8c0.3,0.5,0.6,1,1,1.4c0.7-0.4,1.5-0.9,2-1.3l0.6,0.4c0,0-0.1,0.1-0.2,0c-0.5,0.4-1.3,0.8-2,1.2
		c0.7,0.6,1.6,1,2.7,1.2c-0.1,0.1-0.3,0.4-0.4,0.5c-2.1-0.5-3.5-1.7-4.3-3.4h-1.4v2.5c0.8-0.1,1.6-0.3,2.5-0.4l0,0.5
		c-1.4,0.3-3,0.5-3.9,0.7c0,0.1-0.1,0.1-0.1,0.1l-0.3-0.7c0.3-0.1,0.7-0.1,1.2-0.2v-2.6h-1.6v-0.6h1.6v-4h5.7v0.5h-5v0.8h4.8v0.5
		h-4.8v0.8h4.8v0.5h-4.8v0.8h5.9v0.6H169.6z"/>
	<path d="M174.6,142.4c0.6,0.2,1.3,0.6,1.6,0.9l-0.4,0.5c-0.3-0.3-1-0.7-1.6-1L174.6,142.4z M174.6,147.7c0.4-0.7,1.1-1.9,1.5-2.9
		l0.5,0.4c-0.4,1-1,2.1-1.4,2.8c0,0,0,0.1,0,0.1c0,0,0,0.1,0,0.1L174.6,147.7z M175.1,139.9c0.6,0.3,1.3,0.7,1.6,1
		c-0.2,0.3-0.3,0.4-0.4,0.5c-0.3-0.3-1-0.8-1.6-1.1L175.1,139.9z M182.7,146.2v0.5h-3v1.5h-0.6v-1.5h-2.7v-0.5h2.7v-0.8h-2.2v-0.5
		h2.2v-0.8h-2v-0.5h2v-0.8h-2.5v-0.5h2.5v-0.8h-1.9v-0.5h1.9v-1l0.8,0.1c0,0.1-0.1,0.1-0.2,0.1v0.8h2.1v1.4h0.8v0.5h-0.8v1.4h-2.1
		v0.8h2.4v0.5h-2.4v0.8H182.7z M179.7,141.3v0.8h1.5v-0.8H179.7z M179.7,142.7v0.8h1.5v-0.8H179.7z"/>
	<path d="M183.8,140.5h7.5v7.7h-0.6v-0.6h-6.2v0.6h-0.6V140.5z M187.2,141h-2.8v2.6h2.8V141z M184.4,144.3v2.7h2.8v-2.7H184.4z
		 M190.6,143.7V141h-2.9v2.6H190.6z M187.8,146.9h2.9v-2.7h-2.9V146.9z"/>
</g>
<g>
	<g>
		<g class="st2">
			<g>
				<path class="st4" d="M220,130h83H220z"/>
			</g>
			<g>
				<polygon class="st0" points="301,156 303,158 220,158 222,156 				"/>
			</g>
			<g>
				<polygon class="st5" points="222,156 220,158 220,130 222,132 				"/>
			</g>
			<g>
				<polygon class="st6" points="222,132 220,130 303,130 301,132 				"/>
			</g>
			<g>
				<polygon class="st0" points="301,132 303,130 303,158 301,156 				"/>
			</g>
			<g>
				<rect x="222" y="132" class="st3" width="79" height="24"/>
			</g>
		</g>
	</g>
</g>
<rect x="222" y="132" class="st10" width="79" height="24"/>
<g>
	<rect x="222" y="139.5" class="st11" width="79" height="9"/>
	<path d="M252.1,142.6l0,0.4c-1.3,0.1-2.6,0.2-3.5,0.3c0,0.1-0.1,0.1-0.1,0.1l-0.2-0.5l0.6,0v-1.1l0.6,0c0,0.1-0.1,0.1-0.2,0.1v0.9
		l0.7,0v-1.4h-1.2v-1.3h3v1.3h-1.3v0.4h1.4v0.4h-1.4v0.5L252.1,142.6z M250,147.1c-0.2,0.5-0.4,0.9-1,1.1l-0.4-0.3
		c0.5-0.2,0.8-0.5,0.9-0.9L250,147.1z M249.4,140.4v0.5h1.9v-0.5H249.4z M250.5,145.3v0.4h6.1v0.4h-6.1v0.4h5.1l0.1,0l0.4,0.1
		l-0.1,0.2c-0.1,1.2-0.3,1.5-0.8,1.5c-0.2,0-0.6,0-1,0c0-0.1-0.1-0.3-0.1-0.4l0.1,0c-0.1-0.2-0.4-0.5-0.6-0.7l0.4-0.2
		c0.3,0.2,0.5,0.5,0.6,0.6l-0.4,0.2c0.3,0,0.6,0,0.8,0c0.3,0,0.4-0.2,0.5-1h-5.5v-3.3h1.9c0.1-0.2,0.2-0.5,0.3-0.6l0.7,0.2
		c0,0.1-0.1,0.1-0.2,0.1c-0.1,0.1-0.2,0.2-0.3,0.4h2.6v1.8H250.5z M254.4,143.9h-3.9v0.4h3.9V143.9z M250.5,145h3.9v-0.4h-3.9V145z
		 M250.9,148.1c0-0.3-0.1-0.6-0.2-1l0.5-0.1c0.1,0.3,0.2,0.7,0.3,0.9L250.9,148.1z M252.6,148c-0.1-0.2-0.3-0.6-0.5-0.8l0.5-0.2
		c0.2,0.3,0.4,0.6,0.5,0.8L252.6,148z M255.7,140.2l0.3,0.2c0,0-0.1,0.1-0.1,0.1c-0.2,0.3-0.6,0.6-1,0.9c0.6,0.2,1.3,0.4,1.9,0.5
		c-0.1,0.1-0.2,0.3-0.3,0.4c-0.3,0-0.5-0.1-0.8-0.2v1.2H253V142c-0.2,0.1-0.5,0.1-0.7,0.1c-0.1-0.1-0.2-0.3-0.3-0.4
		c0.7-0.1,1.3-0.3,1.9-0.5c-0.3-0.2-0.5-0.3-0.7-0.5c-0.2,0.2-0.5,0.3-0.8,0.4c-0.1-0.1-0.2-0.3-0.3-0.3c0.8-0.3,1.3-0.7,1.6-1.1
		l0.6,0.1c0,0.1-0.1,0.1-0.2,0.1c-0.1,0.1-0.1,0.1-0.2,0.2L255.7,140.2L255.7,140.2z M255.6,141.9c-0.4-0.1-0.8-0.2-1.1-0.4
		c-0.3,0.2-0.7,0.3-1.1,0.4H255.6z M255.3,142.9v-0.6h-1.7v0.6H255.3z M253.6,140.6c0.2,0.2,0.5,0.4,0.8,0.5
		c0.3-0.2,0.5-0.3,0.7-0.5H253.6z"/>
	<path d="M266.6,142.4c0.6,0.2,1.3,0.6,1.7,0.9l-0.3,0.5c-0.4-0.3-1.1-0.7-1.7-1L266.6,142.4z M266.6,147.7c0.5-0.7,1.1-1.9,1.6-3
		l0.5,0.4c-0.5,1-1,2.1-1.5,2.8c0,0,0,0.1,0,0.1c0,0,0,0.1,0,0.1L266.6,147.7z M267.1,139.9c0.6,0.3,1.3,0.7,1.6,1l-0.4,0.5
		c-0.3-0.3-1-0.8-1.6-1L267.1,139.9z M274,140.3l0.3,0c0,0.1,0,0.1,0,0.2c-0.1,2.1-0.2,2.9-0.4,3.1c-0.2,0.2-0.4,0.3-1,0.3
		c-0.2,0-0.5,0-0.7,0c0-0.2-0.1-0.4-0.2-0.6c0.5,0,0.9,0.1,1.1,0.1c0.2,0,0.3,0,0.3-0.1c0.2-0.2,0.2-0.8,0.3-2.4h-2.1
		c-0.3,1.4-0.7,2.7-2.5,3.4c-0.1-0.1-0.2-0.4-0.4-0.5c1.6-0.6,2.1-1.7,2.3-3h-1.8v-0.6h4.7L274,140.3z M269.4,148.2v-3.7h4.5v3.6
		h-0.6v-0.4H270v0.4H269.4z M273.4,145.1H270v2.1h3.3V145.1z"/>
</g>
<g>
	<g>
		<g class="st2">
			<g>
				<path class="st4" d="M303,130h83H303z"/>
			</g>
			<g>
				<polygon class="st0" points="384,156 386,158 303,158 305,156 				"/>
			</g>
			<g>
				<polygon class="st5" points="305,156 303,158 303,130 305,132 				"/>
			</g>
			<g>
				<polygon class="st6" points="305,132 303,130 386,130 384,132 				"/>
			</g>
			<g>
				<polygon class="st0" points="384,132 386,130 386,158 384,156 				"/>
			</g>
			<g>
				<rect x="305" y="132" class="st3" width="79" height="24"/>
			</g>
		</g>
	</g>
</g>
<rect x="305" y="132" class="st10" width="79" height="24"/>
<g>
	<rect x="305" y="139.5" class="st11" width="79" height="9"/>
	<path d="M333.4,143.1c0.3,0.3,1.1,1.4,1.2,1.6l-0.4,0.5c-0.2-0.3-0.6-0.9-0.9-1.4v4.4h-0.6v-4.4c-0.3,1.1-0.8,2.1-1.2,2.7
		c-0.1-0.2-0.2-0.4-0.3-0.5c0.6-0.8,1.2-2.2,1.5-3.5h-1.3v-0.6h1.4v-2l0.7,0.1c0,0.1-0.1,0.1-0.2,0.1v1.8h1.1v0.6h-1.1V143.1z
		 M335.4,142.4v0.7c0,1.5-0.1,3.6-1.1,5c-0.1-0.1-0.3-0.3-0.5-0.4c0.9-1.4,1-3.2,1-4.7v-2.9h4.6v2.1H335.4z M337.5,147.2
		c0,0.3,0.1,0.3,0.4,0.3h1.1c0.3,0,0.3-0.1,0.3-0.9c0.1,0.1,0.3,0.2,0.5,0.2c-0.1,1-0.2,1.3-0.8,1.3h-1.2c-0.7,0-0.8-0.2-0.8-0.8
		v-0.9c-1,0.2-1.2,0.2-1.5,0.2c0-0.1,0-0.2-0.1-0.5l1.6-0.2V145l-1.2,0.2l-0.1-0.5l1.3-0.2v-0.9c-0.4,0.1-0.8,0.2-1.2,0.3
		c0-0.1-0.1-0.3-0.2-0.4c1.1-0.2,2.3-0.6,2.9-0.9l0.6,0.4c0,0,0,0-0.2,0c-0.4,0.2-0.9,0.3-1.4,0.5v0.9l1.8-0.3l0.1,0.5l-1.9,0.3v0.9
		l2.1-0.3l0.1,0.5l-2.2,0.4V147.2z M338.8,140.8h-3.4v1.1h3.4V140.8z"/>
	<path d="M343.8,140.3c0,0.1-0.1,0.2-0.3,0.2c-0.1,0.5-0.3,1.4-0.4,1.9c0.4,0,0.8-0.1,1-0.1c1.4,0,1.8,0.9,1.8,2.2
		c0,0.7-0.1,1.5-0.3,2c-0.3,0.9-0.9,1.4-1.6,1.4c-0.4,0-0.9-0.2-1.6-0.8c0.1-0.2,0.2-0.4,0.2-0.5c0.7,0.6,1.1,0.7,1.4,0.7
		c0.5,0,0.8-0.3,1-0.9c0.2-0.6,0.3-1.4,0.3-1.8c0-1-0.3-1.6-1.2-1.6c-0.3,0-0.6,0-1.1,0.1c-0.5,1.8-1,3.4-1.8,4.9l-0.6-0.3
		c0.9-1.4,1.4-2.8,1.8-4.5c-0.5,0.1-1.1,0.1-1.6,0.2l-0.1-0.6c0.4-0.1,1.2-0.1,1.8-0.2c0.1-0.7,0.3-1.5,0.4-2.3L343.8,140.3z
		 M345.9,140c0.4,0.3,0.9,0.9,1.2,1.3l-0.4,0.3c-0.3-0.4-0.8-1-1.2-1.3L345.9,140z M347.9,145.2c-0.3-1.3-1-2.4-1.8-3.1l0.5-0.4
		c0.9,0.7,1.7,1.9,2,3.2L347.9,145.2z M347.2,139.6c0.4,0.3,1,0.9,1.2,1.3l-0.4,0.3c-0.3-0.4-0.8-1-1.2-1.3L347.2,139.6z"/>
	<path d="M351,144.7c-0.4,0.3-0.9,0.6-1.3,0.8c-0.1-0.1-0.2-0.3-0.4-0.5c1.6-0.8,3.1-2.3,3.8-3.5l0.9,0c0,0.1-0.1,0.1-0.2,0.1
		c0.9,1.3,2.5,2.6,3.9,3.3c-0.1,0.1-0.3,0.4-0.4,0.5c-0.4-0.2-0.8-0.5-1.3-0.8v3.5h-0.6v-0.4h-3.9v0.4H351V144.7z M352.7,140.3
		c0,0.1-0.1,0.1-0.2,0.1c-0.6,0.8-1.5,1.7-2.4,2.2c-0.1-0.1-0.3-0.3-0.5-0.4c0.8-0.5,1.8-1.3,2.3-2.2L352.7,140.3z M355.9,144.5
		c-1-0.7-1.9-1.6-2.4-2.4c-0.5,0.8-1.3,1.6-2.3,2.4H355.9z M351.6,147.3h3.9v-2.2h-3.9V147.3z M354.8,140c0.9,0.6,2,1.5,2.5,2.2
		l-0.5,0.4c-0.5-0.6-1.6-1.6-2.5-2.2L354.8,140z"/>
</g>
<g>
	<g>
		<g class="st2">
			<g>
				<path class="st4" d="M54,158h83H54z"/>
			</g>
			<g>
				<polygon class="st0" points="135,184 137,186 54,186 56,184 				"/>
			</g>
			<g>
				<polygon class="st5" points="56,184 54,186 54,158 56,160 				"/>
			</g>
			<g>
				<polygon class="st6" points="56,160 54,158 137,158 135,160 				"/>
			</g>
			<g>
				<polygon class="st0" points="135,160 137,158 137,186 135,184 				"/>
			</g>
			<g>
				<rect x="56" y="160" class="st3" width="79" height="24"/>
			</g>
		</g>
	</g>
</g>
<rect x="56" y="160" class="st10" width="79" height="24"/>
<g>
	<rect x="56" y="167.5" class="st11" width="79" height="9"/>
	<path d="M77.9,174.5H86v0.6h-8.1V174.5z M78.7,169.1h6.5v0.6h-6.5V169.1z"/>
	<path d="M95.1,171.9v0.6h-3.8v2.9c0,0.4-0.1,0.6-0.4,0.7c-0.3,0.1-0.9,0.1-1.8,0.1c0-0.2-0.2-0.5-0.3-0.6c0.5,0,0.9,0,1.2,0
		c0.6,0,0.6,0,0.6-0.2v-2.8h-3.8v-0.6h3.8v-1.5l0.4,0c0.7-0.4,1.5-0.9,2.1-1.4h-5.3v-0.6h6l0.1,0l0.5,0.4c0,0-0.1,0.1-0.2,0.1
		c-0.7,0.7-1.9,1.5-3,2.1v1H95.1z"/>
	<path d="M100.2,175.2h3.8v0.6h-8.2v-0.6h3.7v-3h-2.9v-0.6h2.9V169h-3.3v-0.6h7.2v0.6h-3.4v2.6h3v0.6h-3V175.2z M102.8,174.8
		c-0.3-0.5-1.1-1.2-1.7-1.7l0.5-0.3c0.6,0.5,1.4,1.2,1.7,1.7L102.8,174.8z"/>
	<path d="M105.9,168.3l0.8,0.1c0,0.1-0.1,0.1-0.2,0.1v2.9c0,1.7-0.1,3.5-1.3,4.8c-0.1-0.1-0.4-0.3-0.5-0.4c1.1-1.3,1.2-2.8,1.2-4.4
		V168.3z M108.8,168.7l0.8,0c0,0.1-0.1,0.1-0.2,0.1v6.5h-0.6V168.7z M112,168.3l0.8,0.1c0,0.1-0.1,0.1-0.2,0.1v7.7H112V168.3z"/>
</g>
<g>
	<g>
		<g class="st2">
			<g>
				<path class="st4" d="M137,158h83H137z"/>
			</g>
			<g>
				<polygon class="st0" points="218,184 220,186 137,186 139,184 				"/>
			</g>
			<g>
				<polygon class="st5" points="139,184 137,186 137,158 139,160 				"/>
			</g>
			<g>
				<polygon class="st6" points="139,160 137,158 220,158 218,160 				"/>
			</g>
			<g>
				<polygon class="st0" points="218,160 220,158 220,186 218,184 				"/>
			</g>
			<g>
				<rect x="139" y="160" class="st3" width="79" height="24"/>
			</g>
		</g>
	</g>
</g>
<rect x="139" y="160" class="st10" width="79" height="24"/>
<g>
	<rect x="139" y="167.5" class="st11" width="79" height="9"/>
	<path d="M166.6,170.8c0,0.1-0.1,0.2-0.1,0.3c1.6,0.3,2.2,1.3,2.2,2.3c0,1.4-1.2,2.3-3.5,2.5c0-0.1-0.2-0.4-0.2-0.5
		c1.9-0.2,3.1-0.8,3.1-2v-0.1c0-1-0.7-1.6-1.7-1.7c-0.4,1-1,2-1.8,2.6c0.1,0.2,0.1,0.4,0.2,0.5l-0.5,0.3c-0.1-0.1-0.2-0.3-0.2-0.5
		c-0.7,0.5-1.3,0.7-1.7,0.7c-0.7,0-1.1-0.5-1.1-1.2c0-1.2,1-2.2,2.3-2.8c0-0.5,0-1,0-1.5c-1.5,0-1.7,0-2,0l0-0.6c0.5,0,1.2,0,2,0
		c0-0.4,0-0.9,0-1.3l0.9,0.1c0,0.1-0.1,0.2-0.2,0.2c0,0.3,0,0.7-0.1,1.1c1,0,2.7-0.1,3.6-0.4l0.1,0.6c-1,0.2-2.7,0.3-3.7,0.4
		c0,0.5,0,0.9,0,1.3c0.6-0.2,1.2-0.2,1.4-0.2c0.1,0,0.3,0,0.4,0c0-0.1,0.1-0.3,0.1-0.4L166.6,170.8z M163.8,174.1
		c-0.1-0.6-0.2-1.3-0.3-2.1c-1,0.4-1.7,1.2-1.7,2.1c0,0.5,0.3,0.7,0.6,0.7C162.9,174.8,163.4,174.5,163.8,174.1z M165.7,171.6
		c-0.1,0-0.8,0-1.5,0.2c0,0.7,0.1,1.4,0.2,1.9C164.9,173.1,165.4,172.4,165.7,171.6z"/>
	<path d="M177.6,169.9c-0.8,0.2-1.9,0.4-3,0.5c0.3,1.2,0.7,2,1.7,2.4l-0.4,0.5c-0.5-0.4-1.1-0.6-2-0.6l-0.1-0.5c0.4,0,0.8,0.1,1,0.1
		c-0.3-0.3-0.6-1.1-0.8-1.9c-0.4,0-1,0.1-1.5,0.1c-0.6,0-1.5,0-2.1,0v-0.6c0.5,0,1.3,0,2.1,0c0.5,0,1,0,1.3,0
		c-0.1-0.5-0.2-1.1-0.3-1.8l1,0c0,0.1-0.1,0.2-0.2,0.2c0,0.5,0.1,1.1,0.2,1.6c1.1-0.1,2.2-0.3,3-0.5L177.6,169.9z M176,175.9
		c-0.4,0-0.9,0-1.7,0c-1.9,0-3.2-0.6-3.2-1.8c0-0.5,0.3-1,0.8-1.5l0.5,0.4c-0.4,0.3-0.6,0.8-0.6,1.1c0,0.9,1.2,1.2,2.6,1.2
		c0.8,0,1.2,0,1.7,0L176,175.9z M175.8,167.7c0.4,0.4,0.8,0.8,1.1,1.2l-0.4,0.3c-0.3-0.4-0.7-0.9-1-1.2L175.8,167.7z M177.1,167.5
		c0.4,0.4,0.8,0.8,1.1,1.2l-0.4,0.3c-0.2-0.4-0.6-0.9-1-1.2L177.1,167.5z"/>
	<path d="M186.3,170.4c0,0.1-0.1,0.2-0.3,0.2c-0.1,0.6-0.2,1.3-0.4,1.8c0.5,0.2,1,0.4,1.5,0.7l-0.3,0.6c-0.5-0.2-1-0.5-1.4-0.7
		c-0.4,1.3-1.1,2.2-2,2.9c-0.1-0.1-0.4-0.3-0.5-0.4c0.9-0.6,1.5-1.5,1.9-2.8c-0.9-0.4-1.7-0.6-2.4-0.7c-0.6,2.3-1.2,2.9-2.3,2.9
		s-1.3-0.9-1.3-1.4c0-1.4,1.4-2,3.1-2.1c0.2-0.7,0.4-1.6,0.5-2.5c-0.4,0-1.9,0.1-2.5,0.2c0,0.1-0.1,0.1-0.2,0.1l-0.1-0.7
		c0.8,0,2.4-0.1,3-0.2c0.1,0,0.1-0.1,0.2-0.1l0.6,0.3c0,0.1-0.1,0.1-0.2,0.1c-0.1,1-0.4,2-0.6,2.8c0.7,0.1,1.5,0.3,2.4,0.6
		c0.2-0.5,0.3-1.2,0.4-2L186.3,170.4z M181.8,172.1c-1.3,0-2.3,0.5-2.3,1.5c0,0.5,0.2,0.8,0.7,0.8
		C180.8,174.4,181.3,174.2,181.8,172.1z"/>
	<path d="M195.9,171.2l0.3,0c-0.1,0.5-0.6,1.7-0.9,2.2c-0.4-0.1-0.4-0.1-0.5-0.2c0.2-0.4,0.4-1,0.6-1.5h-1.2v3.6
		c0,0.7-0.3,0.7-1.8,0.7c0-0.2-0.1-0.4-0.2-0.6c0.4,0,0.7,0,0.9,0c0.4,0,0.5,0,0.5-0.2v-3.6h-1.6v0.2h-1.7v1h1.7v0.6h-1.7v1.3
		l1.9-0.3l0,0.5c-1.5,0.3-3.2,0.5-4.2,0.7c0,0.1-0.1,0.1-0.1,0.1l-0.2-0.7c0.5-0.1,1.2-0.2,2-0.3v-1.4h-1.7V173h1.7v-1h-1.7v-3.7h4
		v2.9h2.6c-0.5-0.5-1.3-1.1-2-1.4l0.4-0.4c0.3,0.2,0.7,0.4,1,0.6c0.4-0.3,0.8-0.7,1.1-1.2h-2.8v-0.5h3.3l0.1,0l0.5,0.3
		c0,0-0.1,0.1-0.1,0.1c-0.4,0.5-1,1.2-1.6,1.7c0.3,0.2,0.6,0.5,0.8,0.7l-0.2,0.2h0.8L195.9,171.2z M188.6,168.8v1.1h1.2v-1.1H188.6z
		 M188.6,170.4v1.1h1.2v-1.1H188.6z M191.5,169.9v-1.1h-1.2v1.1H191.5z M191.5,171.5v-1.1h-1.2v1.1H191.5z"/>
</g>
<g>
	<g>
		<g class="st2">
			<g>
				<path class="st4" d="M220,158h83H220z"/>
			</g>
			<g>
				<polygon class="st0" points="301,184 303,186 220,186 222,184 				"/>
			</g>
			<g>
				<polygon class="st5" points="222,184 220,186 220,158 222,160 				"/>
			</g>
			<g>
				<polygon class="st6" points="222,160 220,158 303,158 301,160 				"/>
			</g>
			<g>
				<polygon class="st0" points="301,160 303,158 303,186 301,184 				"/>
			</g>
			<g>
				<rect x="222" y="160" class="st3" width="79" height="24"/>
			</g>
		</g>
	</g>
</g>
<rect x="222" y="160" class="st10" width="79" height="24"/>
<g>
	<g>
		<g class="st2">
			<g>
				<path class="st4" d="M303,158h83H303z"/>
			</g>
			<g>
				<polygon class="st0" points="384,184 386,186 303,186 305,184 				"/>
			</g>
			<g>
				<polygon class="st5" points="305,184 303,186 303,158 305,160 				"/>
			</g>
			<g>
				<polygon class="st6" points="305,160 303,158 386,158 384,160 				"/>
			</g>
			<g>
				<polygon class="st0" points="384,160 386,158 386,186 384,184 				"/>
			</g>
			<g>
				<rect x="305" y="160" class="st3" width="79" height="24"/>
			</g>
		</g>
	</g>
</g>
<rect x="305" y="160" class="st10" width="79" height="24"/>
<g>
	<g>
		<g class="st2">
			<g>
				<path class="st4" d="M54,198h83H54z"/>
			</g>
			<g>
				<polygon class="st0" points="135,224 137,226 54,226 56,224 				"/>
			</g>
			<g>
				<polygon class="st5" points="56,224 54,226 54,198 56,200 				"/>
			</g>
			<g>
				<polygon class="st6" points="56,200 54,198 137,198 135,200 				"/>
			</g>
			<g>
				<polygon class="st0" points="135,200 137,198 137,226 135,224 				"/>
			</g>
			<g>
				<rect x="56" y="200" class="st3" width="79" height="24"/>
			</g>
		</g>
	</g>
</g>
<rect x="56" y="200" class="st10" width="79" height="24"/>
<g>
	<rect x="56" y="207.5" class="st11" width="79" height="9"/>
	<path class="st13" d="M84,208.7c0.5-0.1,1.3-0.2,2-0.2c1,0,1.8,0.1,2.3,0.6c0.4,0.3,0.5,0.7,0.5,1.2c0,0.6-0.5,1.3-1.3,1.5v0
		c0.6,0.1,1.6,0.6,1.6,1.6c0,0.6-0.2,1-0.5,1.3c-0.5,0.5-1.4,0.7-3,0.7c-0.6,0-1.2,0-1.6-0.1V208.7z M84.7,211.6h1.6
		c1.2,0,1.8-0.6,1.8-1.2c0-1.1-1-1.3-2.1-1.3c-0.7,0-1.1,0.1-1.3,0.1V211.6z M84.7,214.8c0.3,0.1,0.7,0.1,1.2,0.1
		c1,0,2.5-0.2,2.5-1.4c0-1-1-1.4-2.3-1.4h-1.4V214.8z"/>
	<path class="st13" d="M97.9,208.7l0.5,0.3c0,0-0.1,0.1-0.1,0.1c-0.5,0.9-1.3,1.7-2.2,2.3c1.1,0.7,2.4,1.2,3.7,1.5
		c-0.1,0.1-0.3,0.4-0.4,0.5c-0.4-0.1-0.8-0.2-1.1-0.3v3.1h-0.6v-0.4h-4.2v0.4h-0.6V213c-0.4,0.2-0.8,0.3-1.3,0.4
		c-0.1-0.2-0.2-0.4-0.3-0.5c1.2-0.3,2.6-0.8,3.7-1.5c-0.6-0.5-1.2-1-1.6-1.5c-0.5,0.5-1,0.9-1.6,1.2c-0.1-0.1-0.3-0.3-0.4-0.4
		c1.1-0.6,2.3-1.7,3-2.8l0.7,0.3c0,0.1-0.1,0.1-0.2,0.1c-0.1,0.2-0.3,0.4-0.5,0.6h3.4L97.9,208.7z M97.8,212.9
		c-0.8-0.3-1.6-0.7-2.3-1.2c-0.7,0.5-1.5,0.9-2.3,1.2H97.8z M93.4,215.2h4.2v-1.8h-4.2V215.2z M93.9,209.3l-0.2,0.2
		c0.5,0.6,1,1.1,1.7,1.6c0.7-0.5,1.4-1.1,1.9-1.8H93.9z"/>
	<path class="st13" d="M101.4,211c-0.3,0.5-0.7,1.1-1,1.5c-0.1-0.1-0.2-0.4-0.3-0.6c0.8-0.9,1.6-2.5,2.1-4.1l0.7,0.2
		c0,0.1-0.1,0.1-0.2,0.1c-0.2,0.6-0.5,1.2-0.8,1.8l0.2,0.1c0,0.1-0.1,0.1-0.2,0.1v6h-0.6V211z M102.6,212.2h6.1v1.5h-0.6v-1h-5v1
		h-0.5V212.2z M102.8,208.7h2.6v-0.9l0.8,0c0,0.1-0.1,0.1-0.2,0.1v0.7h2.7v0.5h-5.9V208.7z M107.9,211.6h-4.4v-1.8h4.4V211.6z
		 M103.6,213.8v-0.5h4.2v0.5H106v1.7c0,0.4-0.1,0.5-0.4,0.6c-0.3,0.1-0.6,0.1-1.6,0.1c0-0.2-0.1-0.4-0.2-0.6c0.3,0,0.7,0,0.9,0
		c0.7,0,0.7,0,0.7-0.2v-1.6H103.6z M104.1,210.2v0.9h3.2v-0.9H104.1z"/>
</g>
<g>
	<g>
		<g class="st2">
			<g>
				<path class="st4" d="M137,198h83H137z"/>
			</g>
			<g>
				<polygon class="st0" points="218,224 220,226 137,226 139,224 				"/>
			</g>
			<g>
				<polygon class="st5" points="139,224 137,226 137,198 139,200 				"/>
			</g>
			<g>
				<polygon class="st6" points="139,200 137,198 220,198 218,200 				"/>
			</g>
			<g>
				<polygon class="st0" points="218,200 220,198 220,226 218,224 				"/>
			</g>
			<g>
				<rect x="139" y="200" class="st3" width="79" height="24"/>
			</g>
		</g>
	</g>
</g>
<rect x="139" y="200" class="st10" width="79" height="24"/>
<g>
	<rect x="139" y="207.5" class="st11" width="79" height="9"/>
	<path class="st7" d="M166.5,210.5v-0.2c-0.2,0.2-0.5,0.4-0.8,0.6c-0.1-0.1-0.3-0.3-0.4-0.4c1.2-0.8,2-1.8,2.5-2.7l0.8,0.1
		c0,0.1-0.1,0.1-0.2,0.1c-0.1,0.2-0.2,0.3-0.3,0.5h2.6l0.1,0l0.5,0.3c0,0-0.1,0.1-0.1,0.1c-0.2,0.3-0.5,0.8-0.8,1.1h2v3.2h-3.5
		c0.5,0.2,1.1,0.6,1.4,0.9l-0.4,0.4c-0.3-0.3-1.1-0.8-1.7-1l0.3-0.3h-2.3v-0.5h5.5v-0.8h-5.2v-0.5h5.2v-0.8H166.5z M167.2,214
		c-0.2,0.7-0.6,1.5-1.3,1.9l-0.5-0.4c0.6-0.4,1.1-1.1,1.3-1.7L167.2,214z M169.7,210c0.2-0.3,0.5-0.6,0.7-1h-2.6
		c-0.2,0.3-0.5,0.6-0.8,1H169.7z M168.3,215.2c0,0.2,0.1,0.3,0.5,0.3h1.6c0.4,0,0.5-0.1,0.5-1.1c0.1,0.1,0.4,0.2,0.5,0.2
		c-0.1,1.1-0.3,1.4-1,1.4h-1.7c-0.9,0-1.1-0.2-1.1-0.8v-1.4l0.8,0c0,0.1-0.1,0.1-0.2,0.1V215.2z M173.1,215.9
		c-0.3-0.5-1-1.3-1.7-1.9l0.5-0.3c0.6,0.5,1.4,1.3,1.7,1.8L173.1,215.9z"/>
	<path class="st7" d="M186.1,208.1c0,0-0.1,0.1-0.2,0.1c-0.5,0.7-1.5,1.5-2.3,2.1c-0.1-0.1-0.2-0.4-0.4-0.5c0.8-0.5,1.6-1.3,2.1-2
		L186.1,208.1z M184.7,216.2v-4c-0.3,0.4-0.7,0.7-1,1c-0.1-0.1-0.3-0.4-0.4-0.5c0.9-0.7,1.8-1.9,2.5-3l0.7,0.3
		c0,0.1-0.1,0.1-0.2,0.1c-0.3,0.5-0.6,0.9-0.9,1.4l0.2,0.1c0,0.1-0.1,0.1-0.2,0.1v4.5H184.7z M191.7,211v0.6h-1.4v3.8
		c0,0.8-0.3,0.8-2.1,0.8c0-0.2-0.1-0.4-0.2-0.6c0.4,0,0.8,0,1,0c0.6,0,0.6,0,0.6-0.2v-3.8h-3.1V211H191.7z M191.3,208.4v0.6h-4.5
		v-0.6H191.3z"/>
</g>
<g>
	<g>
		<g class="st2">
			<g>
				<path class="st4" d="M220,198h83H220z"/>
			</g>
			<g>
				<polygon class="st0" points="301,224 303,226 220,226 222,224 				"/>
			</g>
			<g>
				<polygon class="st5" points="222,224 220,226 220,198 222,200 				"/>
			</g>
			<g>
				<polygon class="st6" points="222,200 220,198 303,198 301,200 				"/>
			</g>
			<g>
				<polygon class="st0" points="301,200 303,198 303,226 301,224 				"/>
			</g>
			<g>
				<rect x="222" y="200" class="st3" width="79" height="24"/>
			</g>
		</g>
	</g>
</g>
<rect x="222" y="200" class="st14" width="79" height="24"/>
<g>
	<rect x="222" y="207.5" class="st11" width="79" height="9"/>
	<path class="st10" d="M253.1,211.9h2.3v3.2c-0.4,0.2-1.2,0.4-2.2,0.4c-2.7,0-3.7-1.9-3.7-3.5c0-1.9,1.3-3.5,3.9-3.5
		c0.8,0,1.5,0.2,1.8,0.3l-0.2,0.6c-0.4-0.2-0.9-0.3-1.6-0.3c-1.9,0-3.1,1.2-3.1,2.9c0,1.7,1.1,2.9,2.9,2.9c0.7,0,1.2-0.1,1.5-0.3
		v-2.2h-1.6V211.9z"/>
	<path class="st10" d="M263.9,208.7l0.5,0.3c0,0-0.1,0.1-0.1,0.1c-0.5,0.9-1.3,1.7-2.2,2.3c1.1,0.7,2.4,1.2,3.7,1.5
		c-0.1,0.1-0.3,0.4-0.4,0.5c-0.4-0.1-0.8-0.2-1.1-0.3v3.1h-0.6v-0.4h-4.2v0.4h-0.6V213c-0.4,0.2-0.8,0.3-1.3,0.4
		c-0.1-0.2-0.2-0.4-0.3-0.5c1.2-0.3,2.6-0.8,3.7-1.5c-0.6-0.5-1.2-1-1.6-1.5c-0.5,0.5-1,0.9-1.6,1.2c-0.1-0.1-0.3-0.3-0.4-0.4
		c1.1-0.6,2.3-1.7,3-2.8l0.7,0.3c0,0.1-0.1,0.1-0.2,0.1c-0.1,0.2-0.3,0.4-0.5,0.6h3.4L263.9,208.7z M263.8,212.9
		c-0.8-0.3-1.6-0.7-2.3-1.2c-0.7,0.5-1.5,0.9-2.3,1.2H263.8z M259.4,215.2h4.2v-1.8h-4.2V215.2z M259.9,209.3l-0.2,0.2
		c0.5,0.6,1,1.1,1.7,1.6c0.7-0.5,1.4-1.1,1.9-1.8H259.9z"/>
	<path class="st10" d="M267.4,211c-0.3,0.5-0.7,1.1-1,1.5c-0.1-0.1-0.2-0.4-0.3-0.6c0.8-0.9,1.6-2.5,2.1-4.1l0.7,0.2
		c0,0.1-0.1,0.1-0.2,0.1c-0.2,0.6-0.5,1.2-0.8,1.8l0.2,0.1c0,0.1-0.1,0.1-0.2,0.1v6h-0.6V211z M268.6,212.2h6.1v1.5h-0.6v-1h-5v1
		h-0.5V212.2z M268.8,208.7h2.6v-0.9l0.8,0c0,0.1-0.1,0.1-0.2,0.1v0.7h2.7v0.5h-5.9V208.7z M273.9,211.6h-4.4v-1.8h4.4V211.6z
		 M269.6,213.8v-0.5h4.2v0.5H272v1.7c0,0.4-0.1,0.5-0.4,0.6c-0.3,0.1-0.6,0.1-1.6,0.1c0-0.2-0.1-0.4-0.2-0.6c0.3,0,0.7,0,0.9,0
		c0.7,0,0.7,0,0.7-0.2v-1.6H269.6z M270.1,210.2v0.9h3.2v-0.9H270.1z"/>
</g>
<g>
	<g>
		<g class="st2">
			<g>
				<path class="st4" d="M303,198h83H303z"/>
			</g>
			<g>
				<polygon class="st0" points="384,224 386,226 303,226 305,224 				"/>
			</g>
			<g>
				<polygon class="st5" points="305,224 303,226 303,198 305,200 				"/>
			</g>
			<g>
				<polygon class="st6" points="305,200 303,198 386,198 384,200 				"/>
			</g>
			<g>
				<polygon class="st0" points="384,200 386,198 386,226 384,224 				"/>
			</g>
			<g>
				<rect x="305" y="200" class="st3" width="79" height="24"/>
			</g>
		</g>
	</g>
</g>
<rect x="305" y="200" class="st10" width="79" height="24"/>
<g>
	<rect x="305" y="207.5" class="st11" width="79" height="9"/>
	<path class="st7" d="M334.7,209.3v0.5h-3.4v-0.5H334.7z M334.4,215.7h-2.2v0.4h-0.5V213h2.7V215.7z M334.4,210.6v0.5h-2.7v-0.5
		H334.4z M331.7,212.3v-0.5h2.7v0.5H331.7z M334.4,208.1v0.5h-2.6v-0.5H334.4z M333.9,213.5h-1.6v1.6h1.6V213.5z M335.9,211.4
		c0,1.7-0.1,3.4-1,4.8c-0.1-0.1-0.3-0.3-0.5-0.4c0.8-1.3,0.9-2.8,0.9-4.4v-3.3l0.7,0.1c0,0.1,0,0.1-0.2,0.1V211.4z M337,215.2v-6.7
		l0.7,0.1c0,0.1-0.1,0.1-0.2,0.1v6.6H337z M338.7,208l0.8,0.1c0,0.1-0.1,0.1-0.2,0.1v8h-0.6V208z"/>
	<path class="st7" d="M343.3,212.8c0-0.2-0.1-0.4-0.2-0.6l-0.8,0v3.9h-0.5v-3.8c-0.5,0-0.9,0-1.3,0.1c0,0.1-0.1,0.1-0.1,0.1
		l-0.2-0.7h0.6c0.2-0.3,0.4-0.5,0.6-0.8c-0.3-0.4-0.7-1-1.2-1.4c0.2-0.2,0.3-0.3,0.3-0.4c0.1,0.1,0.2,0.2,0.3,0.3
		c0.3-0.5,0.6-1.2,0.8-1.7l0.6,0.3c0,0.1-0.1,0.1-0.2,0.1c-0.2,0.5-0.6,1.2-0.9,1.7c0.2,0.2,0.4,0.4,0.5,0.6c0.4-0.6,0.7-1.2,1-1.7
		l0.6,0.3c0,0-0.1,0.1-0.2,0.1c-0.4,0.8-1.2,1.8-1.8,2.6l1.5,0c-0.2-0.3-0.3-0.6-0.5-0.9l0.5-0.2c0.4,0.6,0.8,1.4,1,1.9L343.3,212.8
		z M341.4,213.2c0,0.1-0.1,0.1-0.2,0.1c-0.1,0.8-0.3,1.6-0.6,2.2c-0.1-0.1-0.3-0.2-0.4-0.2c0.3-0.5,0.4-1.4,0.5-2.2L341.4,213.2z
		 M343.1,213c0.3,0.5,0.5,1.2,0.6,1.7l-0.5,0.2c-0.1-0.5-0.3-1.2-0.5-1.7L343.1,213z M348.3,213.3h-1.7c0.5,0.8,1.4,1.7,2.2,2.1
		c-0.1,0.1-0.3,0.3-0.4,0.5c-0.7-0.5-1.5-1.3-2-2.1v2.5h-0.6v-2.4c-0.6,0.9-1.4,1.6-2.2,2.1c-0.1-0.1-0.3-0.4-0.4-0.5
		c0.9-0.4,1.8-1.3,2.4-2.1h-1.6v-3.2h1.9v-0.8h-2.2v-0.5h2.2v-1l0.8,0c0,0.1-0.1,0.1-0.2,0.1v0.8h2.2v0.5h-2.2v0.8h2V213.3z
		 M344.4,210.6v0.9h1.4v-0.9H344.4z M344.4,211.9v0.9h1.4v-0.9H344.4z M347.8,211.5v-0.9h-1.5v0.9H347.8z M347.8,212.8v-0.9h-1.5
		v0.9H347.8z"/>
	<path class="st7" d="M357.6,214.3v0.6h-3.8v1.3h-0.6v-1.3h-3.7v-0.6h3.7v-0.8h-2.8V210h2.8v-0.7h-3.5v-0.6h3.5v-0.9l0.8,0.1
		c0,0.1-0.1,0.1-0.2,0.1v0.7h3.5v0.6h-3.5v0.7h2.9v3.5h-2.9v0.8H357.6z M351,210.5v1h2.2v-1H351z M351,213h2.2v-1H351V213z
		 M356,210.5h-2.3v1h2.3V210.5z M356,213v-1h-2.3v1H356z"/>
</g>
<g>
	<g>
		<g class="st2">
			<g>
				<path class="st4" d="M54,266h83H54z"/>
			</g>
			<g>
				<polygon class="st0" points="135,292 137,294 54,294 56,292 				"/>
			</g>
			<g>
				<polygon class="st5" points="56,292 54,294 54,266 56,268 				"/>
			</g>
			<g>
				<polygon class="st6" points="56,268 54,266 137,266 135,268 				"/>
			</g>
			<g>
				<polygon class="st0" points="135,268 137,266 137,294 135,292 				"/>
			</g>
			<g>
				<rect x="56" y="268" class="st3" width="79" height="24"/>
			</g>
		</g>
	</g>
</g>
<rect x="56" y="268" class="st10" width="79" height="24"/>
<g>
	<rect x="56" y="275.5" class="st11" width="79" height="9"/>
	<path d="M90.5,279.1H87c0.6,2.2,1.7,3.8,3.7,4.5c-0.2,0.1-0.4,0.4-0.5,0.6c-1.9-0.8-3-2.4-3.7-4.5c-0.4,1.8-1.4,3.5-3.7,4.5
		c-0.1-0.2-0.3-0.4-0.4-0.5c2.4-1,3.3-2.8,3.6-4.6h-3.5v-0.6h3.6c0.1-0.9,0.1-1.9,0.1-2.6l0.8,0c0,0.1-0.1,0.1-0.2,0.2
		c0,0.7,0,1.6-0.1,2.4h3.8V279.1z"/>
	<path d="M99.6,280.7v0.6h-2.1v2.9h-0.6v-2.9H94c-0.2,1.2-0.7,2.2-2,3c-0.1-0.1-0.3-0.4-0.5-0.5c1.1-0.7,1.6-1.6,1.8-2.5h-2v-0.6
		h2.1c0-0.4,0.1-0.8,0.1-1.2v-1.2h-1.8v-0.6h1.8v-1.9l0.8,0.1c0,0.1-0.1,0.1-0.2,0.1v1.7h2.7v-1.9l0.8,0.1c0,0.1-0.1,0.1-0.2,0.1
		v1.7h1.9v0.6h-1.9v2.4H99.6z M94.2,279.5c0,0.4,0,0.8,0,1.2h2.7v-2.4h-2.7V279.5z"/>
	<path d="M104.5,276.3v6.2h-3.4v0.7h-0.5v-6.9H104.5z M102.3,276.8h-1.2v2.2h1.2V276.8z M101.1,279.6v2.3h1.2v-2.3H101.1z M104,279
		v-2.2h-1.2v2.2H104z M102.8,281.9h1.2v-2.3h-1.2V281.9z M108.7,276.9v0.6h-1.3v5.8c0,0.8-0.4,0.8-2.2,0.8c0-0.2-0.1-0.4-0.2-0.6
		c0.3,0,0.7,0,1,0c0.8,0,0.8,0,0.8-0.2v-5.8h-2.1v-0.6H108.7z"/>
</g>
<g>
	<g>
		<g class="st2">
			<g>
				<path class="st4" d="M137,266h83H137z"/>
			</g>
			<g>
				<polygon class="st0" points="218,292 220,294 137,294 139,292 				"/>
			</g>
			<g>
				<polygon class="st5" points="139,292 137,294 137,266 139,268 				"/>
			</g>
			<g>
				<polygon class="st6" points="139,268 137,266 220,266 218,268 				"/>
			</g>
			<g>
				<polygon class="st0" points="218,268 220,266 220,294 218,292 				"/>
			</g>
			<g>
				<rect x="139" y="268" class="st3" width="79" height="24"/>
			</g>
		</g>
	</g>
</g>
<rect x="139" y="268" class="st8" width="79" height="24"/>
<g>
	<rect x="139" y="275.5" class="st11" width="79" height="9"/>
	<path d="M165.6,278.4c0.6,0.2,1.2,0.6,1.6,0.9l-0.4,0.5c-0.3-0.3-1-0.7-1.6-1L165.6,278.4z M165.5,283.7c0.4-0.7,1-1.9,1.5-3
		l0.5,0.4c-0.4,1-1,2.1-1.4,2.8c0,0,0,0.1,0,0.1c0,0,0,0.1,0,0.1L165.5,283.7z M166.1,275.9c0.5,0.3,1.2,0.7,1.6,1
		c-0.2,0.3-0.3,0.4-0.4,0.5c-0.3-0.3-1-0.8-1.5-1L166.1,275.9z M173.7,282.2v0.5h-0.8v0.9c0,0.6-0.3,0.6-1.7,0.6
		c0-0.1-0.1-0.4-0.2-0.5c0.5,0,1,0,1.1,0c0.1,0,0.2,0,0.2-0.2v-0.9h-3.4v1.5h-0.6v-1.5h-0.9v-0.5h0.9v-2.3h1.9v-0.6h-2.7v-0.5h1.6
		v-0.6h-1.1v-0.5h1.1v-0.6h-1.3v-0.5h1.3v-0.8l0.8,0c0,0.1-0.1,0.1-0.2,0.1v0.6h1.6v-0.8l0.8,0c0,0.1-0.1,0.1-0.2,0.1v0.6h1.4v0.5
		H172v0.6h1.2v0.5H172v0.6h1.7v0.5h-2.8v0.6h2v2.3H173.7z M170.3,280.4h-1.4v0.6h1.4V280.4z M168.9,281.5v0.7h1.4v-0.7H168.9z
		 M169.8,277.1v0.6h1.6v-0.6H169.8z M169.8,278.2v0.6h1.6v-0.6H169.8z M172.3,280.4h-1.5v0.6h1.5V280.4z M170.8,282.2h1.5v-0.7h-1.5
		V282.2z"/>
	<path d="M179,277.5c0,0.1-0.1,0.1-0.2,0.1c-0.3,2.8-1.3,5.2-2.8,5.2c-0.8,0-1.4-0.8-1.4-2.2c0-2.2,1.7-4,4.1-4
		c2.6,0,3.7,1.6,3.7,3.4c0,2.1-1.2,3.2-3.4,3.7c-0.1-0.1-0.2-0.4-0.4-0.5c2.1-0.4,3.1-1.4,3.1-3.1c0-1.5-1-2.8-3.1-2.8
		c-0.1,0-0.2,0-0.3,0L179,277.5z M178.1,277.3c-1.8,0.2-2.9,1.7-2.9,3.3c0,1,0.4,1.6,0.8,1.6C177.1,282.2,177.9,279.8,178.1,277.3z"
		/>
	<path d="M184,276.6h7.1v7.5h-0.6v-0.8h-5.8v0.8H184V276.6z M184.6,282.7h5.8v-5.5h-5.8V282.7z"/>
</g>
<g>
	<g>
		<g class="st2">
			<g>
				<path class="st4" d="M220,266h83H220z"/>
			</g>
			<g>
				<polygon class="st0" points="301,292 303,294 220,294 222,292 				"/>
			</g>
			<g>
				<polygon class="st5" points="222,292 220,294 220,266 222,268 				"/>
			</g>
			<g>
				<polygon class="st6" points="222,268 220,266 303,266 301,268 				"/>
			</g>
			<g>
				<polygon class="st0" points="301,268 303,266 303,294 301,292 				"/>
			</g>
			<g>
				<rect x="222" y="268" class="st3" width="79" height="24"/>
			</g>
		</g>
	</g>
</g>
<rect x="222" y="268" class="st10" width="79" height="24"/>
<g>
	<rect x="222" y="275.5" class="st11" width="79" height="9"/>
	<path d="M256.5,279.1H253c0.6,2.2,1.7,3.8,3.7,4.5c-0.2,0.1-0.4,0.4-0.5,0.6c-1.9-0.8-3-2.4-3.7-4.5c-0.4,1.8-1.4,3.5-3.7,4.5
		c-0.1-0.2-0.3-0.4-0.4-0.5c2.4-1,3.3-2.8,3.6-4.6h-3.5v-0.6h3.6c0.1-0.9,0.1-1.9,0.1-2.6l0.8,0c0,0.1-0.1,0.1-0.2,0.2
		c0,0.7,0,1.6-0.1,2.4h3.8V279.1z"/>
	<path d="M265.3,276.3v7.1c0,0.8-0.4,0.8-1.8,0.8c0-0.2-0.1-0.4-0.2-0.6c0.2,0,0.5,0,0.7,0c0.3,0,0.5,0,0.6,0c0.2,0,0.2,0,0.2-0.2
		v-6.5h-6.3v7.3h-0.6v-7.9H265.3z M263.6,283h-0.5v-0.5h-3.2v0.6h-0.5v-3.1l0.7,0c0,0.1-0.1,0.1-0.2,0.1v1.8h1.3v-2.6h-2.4v-0.5h5.5
		v0.5h-2.4c0,0-0.1,0.1-0.2,0.1v2.6h1.3v-1.9l0.7,0c0,0.1-0.1,0.1-0.2,0.1V283z M260.2,278.7c-0.1-0.4-0.4-1-0.7-1.4l0.5-0.2
		c0.3,0.4,0.6,1,0.7,1.4L260.2,278.7z M263.6,277.3c0,0.1-0.1,0.1-0.2,0.1c-0.2,0.4-0.5,1-0.8,1.4c-0.1,0-0.4-0.1-0.5-0.2
		c0.3-0.4,0.6-1.1,0.7-1.5L263.6,277.3z"/>
	<path d="M273.5,278l0.8,0.1c0,0.1-0.1,0.1-0.2,0.1v5.9h-0.6v-0.7h-6v0.8h-0.6V278l0.8,0.1c0,0.1-0.1,0.1-0.2,0.1v4.5h2.6V276
		l0.8,0.1c0,0.1-0.1,0.1-0.2,0.1v6.5h2.7V278z"/>
</g>
<g>
	<g>
		<g class="st2">
			<g>
				<path class="st4" d="M303,266h83H303z"/>
			</g>
			<g>
				<polygon class="st0" points="384,292 386,294 303,294 305,292 				"/>
			</g>
			<g>
				<polygon class="st5" points="305,292 303,294 303,266 305,268 				"/>
			</g>
			<g>
				<polygon class="st6" points="305,268 303,266 386,266 384,268 				"/>
			</g>
			<g>
				<polygon class="st0" points="384,268 386,266 386,294 384,292 				"/>
			</g>
			<g>
				<rect x="305" y="268" class="st3" width="79" height="24"/>
			</g>
		</g>
	</g>
</g>
<rect x="305" y="268" class="st10" width="79" height="24"/>
<g>
	<rect x="305" y="275.5" class="st11" width="79" height="9"/>
	<path d="M331.5,276c0,0.1-0.1,0.1-0.2,0.1c-0.1,0.3-0.3,0.7-0.4,1h3.3v7.1h-0.6v-0.5h-4.9v0.5H328v-7.1h2.2
		c0.2-0.4,0.3-0.9,0.4-1.3L331.5,276z M333.5,277.7h-4.9v1.4h4.9V277.7z M333.5,279.7h-4.9v1.4h4.9V279.7z M328.6,283.1h4.9v-1.4
		h-4.9V283.1z"/>
	<path d="M340.3,277.6h3.3v6.5h-0.6v-0.5H337v0.6h-0.6v-6.6h3.2v-1.8l0.8,0c0,0.1-0.1,0.1-0.2,0.1V277.6z M339.7,278.2H337v2.1h2.6
		V278.2z M337,280.9v2.1h2.6v-2.1H337z M342.9,278.2h-2.7v2.1h2.7V278.2z M340.3,283h2.7v-2.1h-2.7V283z"/>
	<path d="M348.3,276.3c0,0.1-0.1,0.2-0.3,0.2c-0.1,0.5-0.3,1.4-0.4,1.9c0.4,0,0.8-0.1,1-0.1c1.4,0,1.8,0.9,1.8,2.2
		c0,0.7-0.1,1.5-0.3,2c-0.3,0.9-0.9,1.4-1.6,1.4c-0.4,0-0.9-0.2-1.6-0.8c0.1-0.2,0.2-0.4,0.2-0.5c0.7,0.6,1.1,0.7,1.4,0.7
		c0.5,0,0.8-0.3,1-0.9c0.2-0.6,0.3-1.4,0.3-1.8c0-1-0.3-1.6-1.2-1.6c-0.3,0-0.6,0-1.1,0.1c-0.5,1.8-1,3.4-1.8,4.9l-0.6-0.3
		c0.9-1.4,1.4-2.8,1.8-4.5c-0.5,0.1-1.1,0.1-1.6,0.2l-0.1-0.6c0.4-0.1,1.2-0.1,1.8-0.2c0.1-0.7,0.3-1.5,0.4-2.3L348.3,276.3z
		 M350.4,276c0.4,0.3,0.9,0.9,1.2,1.3l-0.4,0.3c-0.3-0.4-0.8-1-1.2-1.3L350.4,276z M352.4,281.2c-0.3-1.3-1-2.4-1.8-3.1l0.5-0.4
		c0.9,0.7,1.7,1.9,2,3.2L352.4,281.2z M351.7,275.6c0.4,0.3,1,0.9,1.2,1.3l-0.4,0.3c-0.3-0.4-0.8-1-1.2-1.3L351.7,275.6z"/>
	<path d="M359.9,283.2h2.2v0.6h-8.2v-0.6h1.5v-6.4l0.5,0.1c1.7-0.2,3.5-0.6,4.5-1l0.5,0.5c0,0-0.1,0-0.1,0c0,0,0,0-0.1,0
		c-1.2,0.4-3.1,0.7-4.8,1v1.6h5.7v0.6h-1.7V283.2z M356,279.7v3.5h3.3v-3.5H356z"/>
</g>
<g>
	<rect x="180.5" y="187.5" class="st11" width="79" height="9"/>
	<path class="st10" d="M193,188l4.2,7.3h-8.5L193,188z"/>
	<path class="st10" d="M209.9,189.7l0.3,0.1l-0.1,0.1c-0.1,1.6-0.4,2.9-0.9,3.9c0.4,0.3,0.8,0.7,1.1,1l-0.4,0.5
		c-0.2-0.3-0.6-0.6-1-0.9c-0.5,0.8-1.1,1.4-1.8,1.9c-0.1-0.2-0.3-0.4-0.4-0.5c0.7-0.4,1.2-0.9,1.7-1.8c-0.3-0.3-0.7-0.5-1-0.7
		l-0.1,0.4l-0.5-0.3c0.2-0.8,0.5-1.9,0.8-3.1h-0.9v-0.6h1c0.1-0.7,0.3-1.3,0.4-1.9l0.7,0.1c0,0.1-0.1,0.1-0.2,0.1
		c-0.1,0.5-0.2,1.1-0.4,1.7h1.4L209.9,189.7z M208.3,190.3c-0.2,0.8-0.4,1.7-0.6,2.4c0.4,0.2,0.8,0.5,1.1,0.7
		c0.4-0.8,0.6-1.9,0.7-3.1H208.3z M213.8,189.3c0.6,0.7,1.2,1.7,1.4,2.4l-0.5,0.3c-0.1-0.2-0.2-0.4-0.3-0.6
		c-1.4,0.1-2.9,0.2-3.8,0.3c0,0.1-0.1,0.1-0.1,0.1l-0.3-0.7l0.7,0c0.4-0.9,0.8-2.2,1-3.2l0.8,0.2c0,0.1-0.1,0.1-0.2,0.1
		c-0.2,0.8-0.6,2-1,2.9l2.6-0.1c-0.3-0.4-0.6-0.9-0.9-1.3L213.8,189.3z M210.9,196.2v-3.7h3.8v3.7h-0.6v-0.4h-2.6v0.4H210.9z
		 M214.2,193.1h-2.6v2.1h2.6V193.1z"/>
	<path class="st10" d="M223,188.3c0,0-0.1,0.1-0.2,0.1c-0.3,0.3-0.9,0.7-1.3,1.1c0.2,0.3,0.4,0.5,0.6,0.8c0.5-0.4,1-0.9,1.4-1.2
		l0.5,0.4c0,0-0.1,0.1-0.2,0c-0.3,0.3-0.9,0.8-1.4,1.1c0.5,0.5,1.1,0.8,1.8,1.1c-0.1,0.1-0.3,0.4-0.4,0.5c-0.5-0.2-0.9-0.5-1.3-0.8
		v0.3h-1.1v1.4h2.2v0.6h-2.2v1.6c0,0.3,0.1,0.3,0.4,0.3h1.1c0.3,0,0.3-0.2,0.4-1.2c0.1,0.1,0.4,0.2,0.5,0.3
		c-0.1,1.2-0.2,1.5-0.9,1.5h-1.2c-0.7,0-0.9-0.2-0.9-0.9v-1.6h-1.7c-0.1,1-0.7,1.9-2.5,2.6c-0.1-0.1-0.3-0.4-0.4-0.5
		c1.6-0.5,2.1-1.3,2.3-2.1h-2.1v-0.6h2.2v-1.4h-1v-0.3c-0.4,0.3-0.9,0.6-1.4,0.8c-0.1-0.1-0.3-0.3-0.4-0.5c0.6-0.3,1.3-0.7,1.9-1.3
		c-0.3-0.3-0.8-0.7-1.2-1l0.4-0.3c0.4,0.3,0.9,0.6,1.1,0.9c0.4-0.4,0.7-0.9,0.9-1.4h-2.4v-0.5h2.7l0.1,0c0.2,0.1,0.3,0.2,0.4,0.2
		c0,0-0.1,0.1-0.1,0.1c-0.4,1-1.1,1.9-1.9,2.6h4.4c-0.9-0.8-1.6-1.9-2.1-3.1l0.5-0.2c0.2,0.4,0.4,0.8,0.6,1.2
		c0.4-0.3,0.9-0.8,1.2-1.1L223,188.3z M220.8,193.1v-1.4h-1.7v1.4H220.8z"/>
	<path class="st10" d="M225.6,193.5c0,0.8-0.1,1.7-0.5,2.2l-0.4-0.2c0.3-0.5,0.4-1.3,0.5-2.1L225.6,193.5z M228.4,192.3l0.3,0l0,0.2
		c-0.1,2.3-0.2,3.1-0.5,3.4c-0.2,0.2-0.4,0.2-0.8,0.2c-0.2,0-0.4,0-0.6,0c0-0.2-0.1-0.4-0.1-0.5c0.3,0,0.6,0,0.8,0
		c0.3,0,0.4,0,0.5-1.3l-0.3,0.1c-0.1-0.3-0.3-0.8-0.5-1.2l0.3-0.1c0.2,0.4,0.4,0.8,0.5,1.1h0c0-0.4,0.1-0.9,0.1-1.5h-2.4v0.2h-0.5
		v-4.9h3.4v0.5h-1.4v0.9h1.2v0.5h-1.2v0.9h1.2v0.5h-1.2v0.9h1L228.4,192.3z M226.7,188.7h-0.9v0.9h0.9V188.7z M226.7,191v-0.9h-0.9
		v0.9H226.7z M225.8,191.4v0.9h0.9v-0.9H225.8z M226,195.3c0-0.5,0-1.1-0.1-1.7l0.3,0c0.1,0.5,0.2,1.2,0.2,1.7L226,195.3z
		 M226.8,193.4c0.2,0.5,0.4,1.1,0.4,1.5l-0.3,0.1c0-0.4-0.2-1-0.4-1.5L226.8,193.4z M232.9,191.9h-1.5c0.3,1.7,0.8,3.2,1.9,3.8
		c-0.1,0.1-0.3,0.3-0.4,0.5c-1.2-0.8-1.7-2.4-2-4.3h-0.9c0,1.4-0.2,3.1-1,4.3c-0.1-0.1-0.4-0.3-0.5-0.3c0.9-1.2,1-2.9,1-4.2v-3.5
		h3.5V191.9z M232.3,188.8h-2.4v2.5h2.4V188.8z"/>
	<path class="st10" d="M247,188l4.2,7.3h-8.5L247,188z"/>
</g>
<g>
	<rect x="178.5" y="255.5" class="st11" width="79" height="9"/>
	<path class="st10" d="M191,256l4.2,7.3h-8.5L191,256z"/>
	<path class="st10" d="M206.8,259.6c0.3,0.3,1,1.1,1.2,1.3l-0.4,0.5c-0.1-0.3-0.5-0.8-0.8-1.2v4h-0.6v-4.1c-0.3,0.9-0.8,1.9-1.2,2.4
		c-0.1-0.2-0.2-0.4-0.3-0.5c0.5-0.7,1.1-1.9,1.4-3h-1.3v-0.6h1.4v-1.5c-0.4,0.1-0.8,0.2-1.2,0.3c0-0.1-0.1-0.3-0.2-0.4
		c1-0.2,2.1-0.6,2.7-1l0.5,0.5c-0.1,0-0.1,0-0.2,0c-0.3,0.2-0.6,0.3-1.1,0.4v1.7h1.2v0.6h-1.2V259.6z M210.7,263.5h2.4v0.5h-5.5
		v-0.5h2.5v-0.8h-2v-0.5h2v-0.6h-1.8v-2.9h1.8V258h-2.2v-0.5h2.2v-0.8c-0.6,0.1-1.3,0.1-1.9,0.2c0-0.1-0.1-0.3-0.2-0.5
		c1.5-0.1,3.3-0.4,4.2-0.7l0.5,0.5c0,0-0.1,0-0.1,0c0,0,0,0-0.1,0c-0.5,0.1-1.1,0.3-1.9,0.4v0.9h2.3v0.5h-2.3v0.6h1.9v2.9h-1.9v0.6
		h2.1v0.5h-2.1V263.5z M208.9,259.1v0.7h1.3v-0.7H208.9z M208.9,261.1h1.3v-0.8h-1.3V261.1z M212.1,259.1h-1.3v0.7h1.3V259.1z
		 M212.1,261.1v-0.8h-1.3v0.8H212.1z"/>
	<path class="st10" d="M226.5,260.3l0.1,0l0.3,0c0,0.1,0,0.1,0,0.2c-0.1,2.3-0.2,3.1-0.4,3.4c-0.2,0.2-0.4,0.3-1,0.3
		c-0.2,0-0.5,0-0.7,0c0-0.2-0.1-0.4-0.2-0.5c0.5,0,0.9,0,1.1,0c0.2,0,0.2,0,0.3-0.1c0.2-0.2,0.3-0.9,0.4-2.7h-1.6
		c-0.2,1.2-0.6,2.5-1.5,3.3c-0.1-0.1-0.3-0.3-0.4-0.4c1.2-1,1.4-3,1.5-4.6h-1v-3h3.6v3h-2c0,0.3-0.1,0.7-0.1,1.1H226.5z
		 M223.9,256.8v1.9h2.4v-1.9H223.9z M227.9,256.9l0.8,0c0,0.1-0.1,0.1-0.2,0.1v4.9h-0.6V256.9z M230.1,256l0.8,0
		c0,0.1-0.1,0.1-0.2,0.1v7.2c0,0.4-0.1,0.6-0.4,0.7c-0.3,0.1-0.8,0.1-1.6,0.1c0-0.2-0.1-0.4-0.2-0.6c0.3,0,0.6,0,0.9,0
		c0.7,0,0.8,0,0.8-0.2V256z"/>
	<path class="st10" d="M245,256l4.2,7.3h-8.5L245,256z"/>
</g>
<g>
	<g>
		<g class="st2">
			<g>
				<path class="st4" d="M54,294h83H54z"/>
			</g>
			<g>
				<polygon class="st0" points="135,320 137,322 54,322 56,320 				"/>
			</g>
			<g>
				<polygon class="st5" points="56,320 54,322 54,294 56,296 				"/>
			</g>
			<g>
				<polygon class="st6" points="56,296 54,294 137,294 135,296 				"/>
			</g>
			<g>
				<polygon class="st0" points="135,296 137,294 137,322 135,320 				"/>
			</g>
			<g>
				<rect x="56" y="296" class="st3" width="79" height="24"/>
			</g>
		</g>
	</g>
</g>
<rect x="56" y="296" class="st10" width="79" height="24"/>
<g>
	<rect x="56" y="303.5" class="st11" width="79" height="9"/>
	<path d="M82.3,305.5h3.4v4.2H85v-0.5h-2.7v3h-0.6v-3h-2.7v0.6h-0.6v-4.3h3.3v-1.6l0.8,0.1c0,0.1-0.1,0.1-0.2,0.1V305.5z
		 M78.9,308.6h2.7v-2.5h-2.7V308.6z M82.3,308.6H85v-2.5h-2.7V308.6z"/>
	<path d="M95.1,308.7h-3.5c0.6,1.5,1.8,2.6,3.7,3c-0.1,0.1-0.3,0.4-0.4,0.6c-1.9-0.5-3.2-1.6-3.9-3.3c-0.4,1.3-1.4,2.5-3.8,3.3
		c-0.1-0.2-0.2-0.4-0.4-0.5c2.3-0.7,3.3-1.8,3.6-3h-3.5v-0.6h1v-3h2.7v-1.3l0.8,0.1c0,0.1-0.1,0.1-0.2,0.1v1.1h2.9v3h1V308.7z
		 M88.5,308.1h2c0.1-0.4,0.1-0.8,0.1-1.1v-1.2h-2.1V308.1z M93.5,305.7h-2.2v1.2c0,0.4,0,0.8-0.1,1.1h2.3V305.7z"/>
	<path d="M98.2,307.2c0.3,0.3,1.2,1.3,1.4,1.5l-0.4,0.5c-0.2-0.3-0.7-0.9-1-1.3v4.2h-0.6v-4.6c-0.4,1.1-1,2.3-1.6,2.9
		c-0.1-0.2-0.2-0.4-0.3-0.6c0.7-0.8,1.4-2.2,1.8-3.5h-1.6v-0.6h1.7v-2l0.8,0.1c0,0.1-0.1,0.1-0.2,0.1v1.8h1.4v0.6h-1.4V307.2z
		 M104.1,306.4h-1.7c0.4,1.5,1.1,3,1.9,3.8c-0.1,0.1-0.4,0.3-0.5,0.5c-0.6-0.8-1.2-2.1-1.6-3.4v4.9h-0.6v-4.7
		c-0.5,1.3-1.3,2.6-2.1,3.3c-0.1-0.2-0.3-0.4-0.4-0.5c0.9-0.8,1.8-2.4,2.3-3.9h-1.6v-0.6h1.7v-2l0.8,0.1c0,0.1-0.1,0.1-0.2,0.1v1.8
		h1.9V306.4z"/>
	<path d="M108.5,307.3h-2.7v4.9h-0.6v-8h3.3V307.3z M108,304.7h-2.1v0.8h2.1V304.7z M105.9,306.8h2.1V306h-2.1V306.8z M110.7,311.3
		h-2.8v0.5h-0.6V308h3.4V311.3z M110.1,308.5h-2.3v0.9h2.3V308.5z M107.8,310.8h2.3v-0.9h-2.3V310.8z M112.8,304.2v7.1
		c0,0.8-0.4,0.8-1.9,0.8c0-0.2-0.1-0.5-0.2-0.6c0.3,0,0.6,0,0.8,0c0.7,0,0.7,0,0.7-0.2v-4h-2.8v-3.1H112.8z M112.2,304.7H110v0.8
		h2.2V304.7z M110,306.9h2.2V306H110V306.9z"/>
</g>
<g>
	<g>
		<g class="st2">
			<g>
				<path class="st4" d="M137,294h83H137z"/>
			</g>
			<g>
				<polygon class="st0" points="218,320 220,322 137,322 139,320 				"/>
			</g>
			<g>
				<polygon class="st5" points="139,320 137,322 137,294 139,296 				"/>
			</g>
			<g>
				<polygon class="st6" points="139,296 137,294 220,294 218,296 				"/>
			</g>
			<g>
				<polygon class="st0" points="218,296 220,294 220,322 218,320 				"/>
			</g>
			<g>
				<rect x="139" y="296" class="st3" width="79" height="24"/>
			</g>
		</g>
	</g>
</g>
<rect x="139" y="296" class="st10" width="79" height="24"/>
<g>
	<rect x="139" y="303.5" class="st11" width="79" height="9"/>
	<path d="M169.6,308.8c0.3,0.5,0.6,1,1,1.4c0.7-0.4,1.5-0.9,2-1.3l0.6,0.4c0,0-0.1,0.1-0.2,0c-0.5,0.4-1.3,0.8-2,1.2
		c0.7,0.6,1.6,1,2.7,1.2c-0.1,0.1-0.3,0.4-0.4,0.5c-2.1-0.5-3.5-1.7-4.3-3.4h-1.4v2.5c0.8-0.1,1.6-0.3,2.5-0.4l0,0.5
		c-1.4,0.3-3,0.5-3.9,0.7c0,0.1-0.1,0.1-0.1,0.1l-0.3-0.7c0.3-0.1,0.7-0.1,1.2-0.2v-2.6h-1.6v-0.6h1.6v-4h5.7v0.5h-5v0.8h4.8v0.5
		h-4.8v0.8h4.8v0.5h-4.8v0.8h5.9v0.6H169.6z"/>
	<path d="M174.6,306.4c0.6,0.2,1.3,0.6,1.6,0.9l-0.4,0.5c-0.3-0.3-1-0.7-1.6-1L174.6,306.4z M174.6,311.7c0.4-0.7,1.1-1.9,1.5-2.9
		l0.5,0.4c-0.4,1-1,2.1-1.4,2.8c0,0,0,0.1,0,0.1c0,0,0,0.1,0,0.1L174.6,311.7z M175.1,303.9c0.6,0.3,1.3,0.7,1.6,1
		c-0.2,0.3-0.3,0.4-0.4,0.5c-0.3-0.3-1-0.8-1.6-1.1L175.1,303.9z M182.7,310.2v0.5h-3v1.5h-0.6v-1.5h-2.7v-0.5h2.7v-0.8h-2.2v-0.5
		h2.2v-0.8h-2v-0.5h2v-0.8h-2.5v-0.5h2.5v-0.8h-1.9v-0.5h1.9v-1l0.8,0.1c0,0.1-0.1,0.1-0.2,0.1v0.8h2.1v1.4h0.8v0.5h-0.8v1.4h-2.1
		v0.8h2.4v0.5h-2.4v0.8H182.7z M179.7,305.3v0.8h1.5v-0.8H179.7z M179.7,306.7v0.8h1.5v-0.8H179.7z"/>
	<path d="M183.8,304.5h7.5v7.7h-0.6v-0.6h-6.2v0.6h-0.6V304.5z M187.2,305h-2.8v2.6h2.8V305z M184.4,308.3v2.7h2.8v-2.7H184.4z
		 M190.6,307.7V305h-2.9v2.6H190.6z M187.8,310.9h2.9v-2.7h-2.9V310.9z"/>
</g>
<g>
	<g>
		<g class="st2">
			<g>
				<path class="st4" d="M220,294h83H220z"/>
			</g>
			<g>
				<polygon class="st0" points="301,320 303,322 220,322 222,320 				"/>
			</g>
			<g>
				<polygon class="st5" points="222,320 220,322 220,294 222,296 				"/>
			</g>
			<g>
				<polygon class="st6" points="222,296 220,294 303,294 301,296 				"/>
			</g>
			<g>
				<polygon class="st0" points="301,296 303,294 303,322 301,320 				"/>
			</g>
			<g>
				<rect x="222" y="296" class="st3" width="79" height="24"/>
			</g>
		</g>
	</g>
</g>
<rect x="222" y="296" class="st10" width="79" height="24"/>
<g>
	<rect x="222" y="303.5" class="st11" width="79" height="9"/>
	<path d="M252.1,306.6l0,0.4c-1.3,0.1-2.6,0.2-3.5,0.3c0,0.1-0.1,0.1-0.1,0.1l-0.2-0.5l0.6,0v-1.1l0.6,0c0,0.1-0.1,0.1-0.2,0.1v0.9
		l0.7,0v-1.4h-1.2v-1.3h3v1.3h-1.3v0.4h1.4v0.4h-1.4v0.5L252.1,306.6z M250,311.1c-0.2,0.5-0.4,0.9-1,1.1l-0.4-0.3
		c0.5-0.2,0.8-0.5,0.9-0.9L250,311.1z M249.4,304.4v0.5h1.9v-0.5H249.4z M250.5,309.3v0.4h6.1v0.4h-6.1v0.4h5.1l0.1,0l0.4,0.1
		l-0.1,0.2c-0.1,1.2-0.3,1.5-0.8,1.5c-0.2,0-0.6,0-1,0c0-0.1-0.1-0.3-0.1-0.4l0.1,0c-0.1-0.2-0.4-0.5-0.6-0.7l0.4-0.2
		c0.3,0.2,0.5,0.5,0.6,0.6l-0.4,0.2c0.3,0,0.6,0,0.8,0c0.3,0,0.4-0.2,0.5-1h-5.5v-3.3h1.9c0.1-0.2,0.2-0.5,0.3-0.6l0.7,0.2
		c0,0.1-0.1,0.1-0.2,0.1c-0.1,0.1-0.2,0.2-0.3,0.4h2.6v1.8H250.5z M254.4,307.9h-3.9v0.4h3.9V307.9z M250.5,309h3.9v-0.4h-3.9V309z
		 M250.9,312.1c0-0.3-0.1-0.6-0.2-1l0.5-0.1c0.1,0.3,0.2,0.7,0.3,0.9L250.9,312.1z M252.6,312c-0.1-0.2-0.3-0.6-0.5-0.8l0.5-0.2
		c0.2,0.3,0.4,0.6,0.5,0.8L252.6,312z M255.7,304.2l0.3,0.2c0,0-0.1,0.1-0.1,0.1c-0.2,0.3-0.6,0.6-1,0.9c0.6,0.2,1.3,0.4,1.9,0.5
		c-0.1,0.1-0.2,0.3-0.3,0.4c-0.3,0-0.5-0.1-0.8-0.2v1.2H253V306c-0.2,0.1-0.5,0.1-0.7,0.1c-0.1-0.1-0.2-0.3-0.3-0.4
		c0.7-0.1,1.3-0.3,1.9-0.5c-0.3-0.2-0.5-0.3-0.7-0.5c-0.2,0.2-0.5,0.3-0.8,0.4c-0.1-0.1-0.2-0.3-0.3-0.3c0.8-0.3,1.3-0.7,1.6-1.1
		l0.6,0.1c0,0.1-0.1,0.1-0.2,0.1c-0.1,0.1-0.1,0.1-0.2,0.2L255.7,304.2L255.7,304.2z M255.6,305.9c-0.4-0.1-0.8-0.2-1.1-0.4
		c-0.3,0.2-0.7,0.3-1.1,0.4H255.6z M255.3,306.9v-0.6h-1.7v0.6H255.3z M253.6,304.6c0.2,0.2,0.5,0.4,0.8,0.5
		c0.3-0.2,0.5-0.3,0.7-0.5H253.6z"/>
	<path d="M266.6,306.4c0.6,0.2,1.3,0.6,1.7,0.9l-0.3,0.5c-0.4-0.3-1.1-0.7-1.7-1L266.6,306.4z M266.6,311.7c0.5-0.7,1.1-1.9,1.6-3
		l0.5,0.4c-0.5,1-1,2.1-1.5,2.8c0,0,0,0.1,0,0.1c0,0,0,0.1,0,0.1L266.6,311.7z M267.1,303.9c0.6,0.3,1.3,0.7,1.6,1l-0.4,0.5
		c-0.3-0.3-1-0.8-1.6-1L267.1,303.9z M274,304.3l0.3,0c0,0.1,0,0.1,0,0.2c-0.1,2.1-0.2,2.9-0.4,3.1c-0.2,0.2-0.4,0.3-1,0.3
		c-0.2,0-0.5,0-0.7,0c0-0.2-0.1-0.4-0.2-0.6c0.5,0,0.9,0.1,1.1,0.1c0.2,0,0.3,0,0.3-0.1c0.2-0.2,0.2-0.8,0.3-2.4h-2.1
		c-0.3,1.4-0.7,2.7-2.5,3.4c-0.1-0.1-0.2-0.4-0.4-0.5c1.6-0.6,2.1-1.7,2.3-3h-1.8v-0.6h4.7L274,304.3z M269.4,312.2v-3.7h4.5v3.6
		h-0.6v-0.4H270v0.4H269.4z M273.4,309.1H270v2.1h3.3V309.1z"/>
</g>
<g>
	<g>
		<g class="st2">
			<g>
				<path class="st4" d="M303,294h83H303z"/>
			</g>
			<g>
				<polygon class="st0" points="384,320 386,322 303,322 305,320 				"/>
			</g>
			<g>
				<polygon class="st5" points="305,320 303,322 303,294 305,296 				"/>
			</g>
			<g>
				<polygon class="st6" points="305,296 303,294 386,294 384,296 				"/>
			</g>
			<g>
				<polygon class="st0" points="384,296 386,294 386,322 384,320 				"/>
			</g>
			<g>
				<rect x="305" y="296" class="st3" width="79" height="24"/>
			</g>
		</g>
	</g>
</g>
<rect x="305" y="296" class="st10" width="79" height="24"/>
<g>
	<rect x="305" y="303.5" class="st11" width="79" height="9"/>
	<path d="M333.4,307.1c0.3,0.3,1.1,1.4,1.2,1.6l-0.4,0.5c-0.2-0.3-0.6-0.9-0.9-1.4v4.4h-0.6v-4.4c-0.3,1.1-0.8,2.1-1.2,2.7
		c-0.1-0.2-0.2-0.4-0.3-0.5c0.6-0.8,1.2-2.2,1.5-3.5h-1.3v-0.6h1.4v-2l0.7,0.1c0,0.1-0.1,0.1-0.2,0.1v1.8h1.1v0.6h-1.1V307.1z
		 M335.4,306.4v0.7c0,1.5-0.1,3.6-1.1,5c-0.1-0.1-0.3-0.3-0.5-0.4c0.9-1.4,1-3.2,1-4.7v-2.9h4.6v2.1H335.4z M337.5,311.2
		c0,0.3,0.1,0.3,0.4,0.3h1.1c0.3,0,0.3-0.1,0.3-0.9c0.1,0.1,0.3,0.2,0.5,0.2c-0.1,1-0.2,1.3-0.8,1.3h-1.2c-0.7,0-0.8-0.2-0.8-0.8
		v-0.9c-1,0.2-1.2,0.2-1.5,0.2c0-0.1,0-0.2-0.1-0.5l1.6-0.2V309l-1.2,0.2l-0.1-0.5l1.3-0.2v-0.9c-0.4,0.1-0.8,0.2-1.2,0.3
		c0-0.1-0.1-0.3-0.2-0.4c1.1-0.2,2.3-0.6,2.9-0.9l0.6,0.4c0,0,0,0-0.2,0c-0.4,0.2-0.9,0.3-1.4,0.5v0.9l1.8-0.3l0.1,0.5l-1.9,0.3v0.9
		l2.1-0.3l0.1,0.5l-2.2,0.4V311.2z M338.8,304.8h-3.4v1.1h3.4V304.8z"/>
	<path d="M343.8,304.3c0,0.1-0.1,0.2-0.3,0.2c-0.1,0.5-0.3,1.4-0.4,1.9c0.4,0,0.8-0.1,1-0.1c1.4,0,1.8,0.9,1.8,2.2
		c0,0.7-0.1,1.5-0.3,2c-0.3,0.9-0.9,1.4-1.6,1.4c-0.4,0-0.9-0.2-1.6-0.8c0.1-0.2,0.2-0.4,0.2-0.5c0.7,0.6,1.1,0.7,1.4,0.7
		c0.5,0,0.8-0.3,1-0.9c0.2-0.6,0.3-1.4,0.3-1.8c0-1-0.3-1.6-1.2-1.6c-0.3,0-0.6,0-1.1,0.1c-0.5,1.8-1,3.4-1.8,4.9l-0.6-0.3
		c0.9-1.4,1.4-2.8,1.8-4.5c-0.5,0.1-1.1,0.1-1.6,0.2l-0.1-0.6c0.4-0.1,1.2-0.1,1.8-0.2c0.1-0.7,0.3-1.5,0.4-2.3L343.8,304.3z
		 M345.9,304c0.4,0.3,0.9,0.9,1.2,1.3l-0.4,0.3c-0.3-0.4-0.8-1-1.2-1.3L345.9,304z M347.9,309.2c-0.3-1.3-1-2.4-1.8-3.1l0.5-0.4
		c0.9,0.7,1.7,1.9,2,3.2L347.9,309.2z M347.2,303.6c0.4,0.3,1,0.9,1.2,1.3l-0.4,0.3c-0.3-0.4-0.8-1-1.2-1.3L347.2,303.6z"/>
	<path d="M351,308.7c-0.4,0.3-0.9,0.6-1.3,0.8c-0.1-0.1-0.2-0.3-0.4-0.5c1.6-0.8,3.1-2.3,3.8-3.5l0.9,0c0,0.1-0.1,0.1-0.2,0.1
		c0.9,1.3,2.5,2.6,3.9,3.3c-0.1,0.1-0.3,0.4-0.4,0.5c-0.4-0.2-0.8-0.5-1.3-0.8v3.5h-0.6v-0.4h-3.9v0.4H351V308.7z M352.7,304.3
		c0,0.1-0.1,0.1-0.2,0.1c-0.6,0.8-1.5,1.7-2.4,2.2c-0.1-0.1-0.3-0.3-0.5-0.4c0.8-0.5,1.8-1.3,2.3-2.2L352.7,304.3z M355.9,308.5
		c-1-0.7-1.9-1.6-2.4-2.4c-0.5,0.8-1.3,1.6-2.3,2.4H355.9z M351.6,311.3h3.9v-2.2h-3.9V311.3z M354.8,304c0.9,0.6,2,1.5,2.5,2.2
		l-0.5,0.4c-0.5-0.6-1.6-1.6-2.5-2.2L354.8,304z"/>
</g>
<g>
	<g>
		<g class="st2">
			<g>
				<path class="st4" d="M54,322h83H54z"/>
			</g>
			<g>
				<polygon class="st0" points="135,348 137,350 54,350 56,348 				"/>
			</g>
			<g>
				<polygon class="st5" points="56,348 54,350 54,322 56,324 				"/>
			</g>
			<g>
				<polygon class="st6" points="56,324 54,322 137,322 135,324 				"/>
			</g>
			<g>
				<polygon class="st0" points="135,324 137,322 137,350 135,348 				"/>
			</g>
			<g>
				<rect x="56" y="324" class="st3" width="79" height="24"/>
			</g>
		</g>
	</g>
</g>
<rect x="56" y="324" class="st10" width="79" height="24"/>
<g>
	<rect x="56" y="331.5" class="st11" width="79" height="9"/>
	<path d="M77.9,338.5H86v0.6h-8.1V338.5z M78.7,333.1h6.5v0.6h-6.5V333.1z"/>
	<path d="M95.1,335.9v0.6h-3.8v2.9c0,0.4-0.1,0.6-0.4,0.7c-0.3,0.1-0.9,0.1-1.8,0.1c0-0.2-0.2-0.5-0.3-0.6c0.5,0,0.9,0,1.2,0
		c0.6,0,0.6,0,0.6-0.2v-2.8h-3.8v-0.6h3.8v-1.5l0.4,0c0.7-0.4,1.5-0.9,2.1-1.4h-5.3v-0.6h6l0.1,0l0.5,0.4c0,0-0.1,0.1-0.2,0.1
		c-0.7,0.7-1.9,1.5-3,2.1v1H95.1z"/>
	<path d="M100.2,339.2h3.8v0.6h-8.2v-0.6h3.7v-3h-2.9v-0.6h2.9V333h-3.3v-0.6h7.2v0.6h-3.4v2.6h3v0.6h-3V339.2z M102.8,338.8
		c-0.3-0.5-1.1-1.2-1.7-1.7l0.5-0.3c0.6,0.5,1.4,1.2,1.7,1.7L102.8,338.8z"/>
	<path d="M105.9,332.3l0.8,0.1c0,0.1-0.1,0.1-0.2,0.1v2.9c0,1.7-0.1,3.5-1.3,4.8c-0.1-0.1-0.4-0.3-0.5-0.4c1.1-1.3,1.2-2.8,1.2-4.4
		V332.3z M108.8,332.7l0.8,0c0,0.1-0.1,0.1-0.2,0.1v6.5h-0.6V332.7z M112,332.3l0.8,0.1c0,0.1-0.1,0.1-0.2,0.1v7.7H112V332.3z"/>
</g>
<g>
	<g>
		<g class="st2">
			<g>
				<path class="st4" d="M137,322h83H137z"/>
			</g>
			<g>
				<polygon class="st0" points="218,348 220,350 137,350 139,348 				"/>
			</g>
			<g>
				<polygon class="st5" points="139,348 137,350 137,322 139,324 				"/>
			</g>
			<g>
				<polygon class="st6" points="139,324 137,322 220,322 218,324 				"/>
			</g>
			<g>
				<polygon class="st0" points="218,324 220,322 220,350 218,348 				"/>
			</g>
			<g>
				<rect x="139" y="324" class="st3" width="79" height="24"/>
			</g>
		</g>
	</g>
</g>
<rect x="139" y="324" class="st10" width="79" height="24"/>
<g>
	<rect x="139" y="331.5" class="st11" width="79" height="9"/>
	<path d="M166.6,334.8c0,0.1-0.1,0.2-0.1,0.3c1.6,0.3,2.2,1.3,2.2,2.3c0,1.4-1.2,2.3-3.5,2.5c0-0.1-0.2-0.4-0.2-0.5
		c1.9-0.2,3.1-0.8,3.1-2v-0.1c0-1-0.7-1.6-1.7-1.7c-0.4,1-1,2-1.8,2.6c0.1,0.2,0.1,0.4,0.2,0.5l-0.5,0.3c-0.1-0.1-0.2-0.3-0.2-0.5
		c-0.7,0.5-1.3,0.7-1.7,0.7c-0.7,0-1.1-0.5-1.1-1.2c0-1.2,1-2.2,2.3-2.8c0-0.5,0-1,0-1.5c-1.5,0-1.7,0-2,0l0-0.6c0.5,0,1.2,0,2,0
		c0-0.4,0-0.9,0-1.3l0.9,0.1c0,0.1-0.1,0.2-0.2,0.2c0,0.3,0,0.7-0.1,1.1c1,0,2.7-0.1,3.6-0.4l0.1,0.6c-1,0.2-2.7,0.3-3.7,0.4
		c0,0.5,0,0.9,0,1.3c0.6-0.2,1.2-0.2,1.4-0.2c0.1,0,0.3,0,0.4,0c0-0.1,0.1-0.3,0.1-0.4L166.6,334.8z M163.8,338.1
		c-0.1-0.6-0.2-1.3-0.3-2.1c-1,0.4-1.7,1.2-1.7,2.1c0,0.5,0.3,0.7,0.6,0.7C162.9,338.8,163.4,338.5,163.8,338.1z M165.7,335.6
		c-0.1,0-0.8,0-1.5,0.2c0,0.7,0.1,1.4,0.2,1.9C164.9,337.1,165.4,336.4,165.7,335.6z"/>
	<path d="M177.6,333.9c-0.8,0.2-1.9,0.4-3,0.5c0.3,1.2,0.7,2,1.7,2.4l-0.4,0.5c-0.5-0.4-1.1-0.6-2-0.6l-0.1-0.5c0.4,0,0.8,0.1,1,0.1
		c-0.3-0.3-0.6-1.1-0.8-1.9c-0.4,0-1,0.1-1.5,0.1c-0.6,0-1.5,0-2.1,0v-0.6c0.5,0,1.3,0,2.1,0c0.5,0,1,0,1.3,0
		c-0.1-0.5-0.2-1.1-0.3-1.8l1,0c0,0.1-0.1,0.2-0.2,0.2c0,0.5,0.1,1.1,0.2,1.6c1.1-0.1,2.2-0.3,3-0.5L177.6,333.9z M176,339.9
		c-0.4,0-0.9,0-1.7,0c-1.9,0-3.2-0.6-3.2-1.8c0-0.5,0.3-1,0.8-1.5l0.5,0.4c-0.4,0.3-0.6,0.8-0.6,1.1c0,0.9,1.2,1.2,2.6,1.2
		c0.8,0,1.2,0,1.7,0L176,339.9z M175.8,331.7c0.4,0.4,0.8,0.8,1.1,1.2l-0.4,0.3c-0.3-0.4-0.7-0.9-1-1.2L175.8,331.7z M177.1,331.5
		c0.4,0.4,0.8,0.8,1.1,1.2l-0.4,0.3c-0.2-0.4-0.6-0.9-1-1.2L177.1,331.5z"/>
	<path d="M186.3,334.4c0,0.1-0.1,0.2-0.3,0.2c-0.1,0.6-0.2,1.3-0.4,1.8c0.5,0.2,1,0.4,1.5,0.7l-0.3,0.6c-0.5-0.2-1-0.5-1.4-0.7
		c-0.4,1.3-1.1,2.2-2,2.9c-0.1-0.1-0.4-0.3-0.5-0.4c0.9-0.6,1.5-1.5,1.9-2.8c-0.9-0.4-1.7-0.6-2.4-0.7c-0.6,2.3-1.2,2.9-2.3,2.9
		s-1.3-0.9-1.3-1.4c0-1.4,1.4-2,3.1-2.1c0.2-0.7,0.4-1.6,0.5-2.5c-0.4,0-1.9,0.1-2.5,0.2c0,0.1-0.1,0.1-0.2,0.1l-0.1-0.7
		c0.8,0,2.4-0.1,3-0.2c0.1,0,0.1-0.1,0.2-0.1l0.6,0.3c0,0.1-0.1,0.1-0.2,0.1c-0.1,1-0.4,2-0.6,2.8c0.7,0.1,1.5,0.3,2.4,0.6
		c0.2-0.5,0.3-1.2,0.4-2L186.3,334.4z M181.8,336.1c-1.3,0-2.3,0.5-2.3,1.5c0,0.5,0.2,0.8,0.7,0.8
		C180.8,338.4,181.3,338.2,181.8,336.1z"/>
	<path d="M195.9,335.2l0.3,0c-0.1,0.5-0.6,1.7-0.9,2.2c-0.4-0.1-0.4-0.1-0.5-0.2c0.2-0.4,0.4-1,0.6-1.5h-1.2v3.6
		c0,0.7-0.3,0.7-1.8,0.7c0-0.2-0.1-0.4-0.2-0.6c0.4,0,0.7,0,0.9,0c0.4,0,0.5,0,0.5-0.2v-3.6h-1.6v0.2h-1.7v1h1.7v0.6h-1.7v1.3
		l1.9-0.3l0,0.5c-1.5,0.3-3.2,0.5-4.2,0.7c0,0.1-0.1,0.1-0.1,0.1l-0.2-0.7c0.5-0.1,1.2-0.2,2-0.3v-1.4h-1.7V337h1.7v-1h-1.7v-3.7h4
		v2.9h2.6c-0.5-0.5-1.3-1.1-2-1.4l0.4-0.4c0.3,0.2,0.7,0.4,1,0.6c0.4-0.3,0.8-0.7,1.1-1.2h-2.8v-0.5h3.3l0.1,0l0.5,0.3
		c0,0-0.1,0.1-0.1,0.1c-0.4,0.5-1,1.2-1.6,1.7c0.3,0.2,0.6,0.5,0.8,0.7l-0.2,0.2h0.8L195.9,335.2z M188.6,332.8v1.1h1.2v-1.1H188.6z
		 M188.6,334.4v1.1h1.2v-1.1H188.6z M191.5,333.9v-1.1h-1.2v1.1H191.5z M191.5,335.5v-1.1h-1.2v1.1H191.5z"/>
</g>
<g>
	<g>
		<g class="st2">
			<g>
				<path class="st4" d="M220,322h83H220z"/>
			</g>
			<g>
				<polygon class="st0" points="301,348 303,350 220,350 222,348 				"/>
			</g>
			<g>
				<polygon class="st5" points="222,348 220,350 220,322 222,324 				"/>
			</g>
			<g>
				<polygon class="st6" points="222,324 220,322 303,322 301,324 				"/>
			</g>
			<g>
				<polygon class="st0" points="301,324 303,322 303,350 301,348 				"/>
			</g>
			<g>
				<rect x="222" y="324" class="st3" width="79" height="24"/>
			</g>
		</g>
	</g>
</g>
<rect x="222" y="324" class="st10" width="79" height="24"/>
<g>
	<g>
		<g class="st2">
			<g>
				<path class="st4" d="M303,322h83H303z"/>
			</g>
			<g>
				<polygon class="st0" points="384,348 386,350 303,350 305,348 				"/>
			</g>
			<g>
				<polygon class="st5" points="305,348 303,350 303,322 305,324 				"/>
			</g>
			<g>
				<polygon class="st6" points="305,324 303,322 386,322 384,324 				"/>
			</g>
			<g>
				<polygon class="st0" points="384,324 386,322 386,350 384,348 				"/>
			</g>
			<g>
				<rect x="305" y="324" class="st3" width="79" height="24"/>
			</g>
		</g>
	</g>
</g>
<rect x="305" y="324" class="st10" width="79" height="24"/>
<g>
	<g>
		<g class="st2">
			<g>
				<path class="st4" d="M54,350h83H54z"/>
			</g>
			<g>
				<polygon class="st0" points="135,376 137,378 54,378 56,376 				"/>
			</g>
			<g>
				<polygon class="st5" points="56,376 54,378 54,350 56,352 				"/>
			</g>
			<g>
				<polygon class="st6" points="56,352 54,350 137,350 135,352 				"/>
			</g>
			<g>
				<polygon class="st0" points="135,352 137,350 137,378 135,376 				"/>
			</g>
			<g>
				<rect x="56" y="352" class="st3" width="79" height="24"/>
			</g>
		</g>
	</g>
</g>
<rect x="56" y="352" class="st10" width="79" height="24"/>
<g>
	<rect x="56" y="359.5" class="st11" width="79" height="9"/>
	<path d="M77.7,365.9c0.5-0.3,1.2-0.7,2-1.1v-4.9l0.8,0c0,0.1-0.1,0.1-0.2,0.1v8.2h-0.6v-2.8c-0.6,0.4-1.1,0.7-1.5,1
		c0,0.1,0,0.1-0.1,0.2L77.7,365.9z M78.3,361c0.4,0.6,0.9,1.3,1.1,1.8c-0.3,0.2-0.4,0.2-0.5,0.3c-0.2-0.5-0.6-1.3-1-1.8L78.3,361z
		 M86.1,363.2h-2.4c0.4,2,1.2,3.7,2.5,4.5c-0.2,0.1-0.3,0.4-0.5,0.5c-1.3-0.8-2-2.3-2.4-4.1h0c-0.3,1.6-0.9,3.2-2.3,4.1
		c-0.1-0.1-0.3-0.3-0.5-0.4c1.5-1,2.1-2.8,2.3-4.6h-2.2v-0.6h2.3c0.1-0.9,0.1-1.8,0.1-2.7l0.8,0c0,0.1-0.1,0.1-0.2,0.2
		c0,0.8,0,1.6-0.1,2.5h2.6V363.2z M84.8,360.1c0.5,0.4,1,1.1,1.3,1.5l-0.5,0.3c-0.2-0.4-0.7-1.1-1.2-1.5L84.8,360.1z"/>
	<path d="M88.6,366.4c-0.2,0.7-0.6,1.3-1.3,1.6l-0.5-0.4c0.7-0.3,1.1-0.8,1.3-1.4L88.6,366.4z M90.6,362.1c-0.1-0.1-0.2-0.3-0.3-0.4
		c-1.2,0.1-2.4,0.2-3.2,0.2c0,0.1-0.1,0.1-0.1,0.1l-0.2-0.6l0.7,0c0.3-0.4,0.6-1.1,0.8-1.5l0.7,0.2c0,0.1-0.1,0.1-0.2,0.1
		c-0.2,0.3-0.5,0.8-0.7,1.2l1.9-0.1c-0.2-0.2-0.4-0.4-0.6-0.6l0.4-0.2c0.5,0.4,1,1,1.3,1.4L90.6,362.1z M90.5,362.3v2.9
		c0,0.5-0.2,0.6-1.2,0.6c0-0.1-0.1-0.3-0.2-0.5c0.8,0,0.8,0,0.8-0.1v-0.5h-2v1.2h-0.6v-3.6H90.5z M90,362.7h-2v0.5h2V362.7z
		 M87.9,364.2h2v-0.5h-2V364.2z M89.8,367.3c0,0.2,0.1,0.2,0.6,0.2h1.7c0.4,0,0.4-0.1,0.5-0.8c0.1,0.1,0.4,0.2,0.5,0.2
		c-0.1,0.9-0.3,1.1-0.9,1.1h-1.8c-0.9,0-1.1-0.1-1.1-0.8v-1.1l0.8,0c0,0.1-0.1,0.1-0.2,0.1V367.3z M91.4,366.9
		c-0.3-0.3-0.9-0.7-1.4-1l0.4-0.3c0.5,0.2,1.2,0.6,1.5,0.9L91.4,366.9z M94.1,362.1c0.3,0,0.4-0.1,0.4-0.8c0.1,0.1,0.4,0.2,0.5,0.2
		c-0.1,0.9-0.2,1.1-0.9,1.1h-1.6c-0.8,0-1-0.2-1-0.8v-1.9l0.7,0.1c0,0.1-0.1,0.1-0.2,0.1v0.9c0.8-0.2,1.6-0.5,2-0.7l0.5,0.4
		c0,0-0.1,0-0.2,0c-0.6,0.3-1.5,0.5-2.4,0.8v0.4c0,0.2,0.1,0.3,0.5,0.3H94.1z M94.1,365.2c0.3,0,0.4-0.1,0.4-0.8
		c0.1,0.1,0.4,0.2,0.5,0.2c-0.1,0.9-0.3,1.2-0.9,1.2h-1.7c-0.8,0-1-0.2-1-0.8v-2.1l0.7,0.1c0,0.1-0.1,0.1-0.2,0.1v0.9
		c0.8-0.2,1.6-0.5,2.1-0.8l0.5,0.4c0,0-0.1,0-0.1,0c0,0,0,0-0.1,0c-0.6,0.3-1.6,0.6-2.5,0.8v0.5c0,0.2,0.1,0.3,0.5,0.3H94.1z
		 M94.7,368c-0.3-0.5-1-1.1-1.6-1.5l0.5-0.3c0.6,0.4,1.4,1,1.7,1.5L94.7,368z"/>
	<path d="M96,360.4h8v0.6h-3.8v1.1h1.9v4.1h-4.4v-4.1h1.9V361H96V360.4z M103.2,367V362l0.8,0c0,0.1-0.1,0.1-0.2,0.1v6h-0.6v-0.6
		h-6.3v0.6h-0.6V362l0.8,0c0,0.1-0.1,0.1-0.2,0.1v4.9H103.2z M98.3,362.6v1.3h1.4v-1.3H98.3z M98.3,364.4v1.3h1.4v-1.3H98.3z
		 M101.6,363.9v-1.3h-1.4v1.3H101.6z M101.6,365.6v-1.3h-1.4v1.3H101.6z"/>
	<path d="M113,361h-3.7c0,0,0,0-0.1,0c-0.1,0.3-0.2,0.8-0.3,1.2h3.7v6H112v-0.5h-6v0.5h-0.6v-6h2.8c0.1-0.4,0.2-0.8,0.3-1.2H105
		v-0.6h8.1V361z M106,362.8v4.3h1.5v-4.3H106z M109.9,363.9v-1.1h-1.8v1.1H109.9z M109.9,365.5v-1.1h-1.8v1.1H109.9z M108.1,366v1.1
		h1.8V366H108.1z M112,367.1v-4.3h-1.6v4.3H112z"/>
</g>
<g>
	<g>
		<g class="st2">
			<g>
				<path class="st4" d="M303,350h83H303z"/>
			</g>
			<g>
				<polygon class="st0" points="384,376 386,378 303,378 305,376 				"/>
			</g>
			<g>
				<polygon class="st5" points="305,376 303,378 303,350 305,352 				"/>
			</g>
			<g>
				<polygon class="st6" points="305,352 303,350 386,350 384,352 				"/>
			</g>
			<g>
				<polygon class="st0" points="384,352 386,350 386,378 384,376 				"/>
			</g>
			<g>
				<rect x="305" y="352" class="st3" width="79" height="24"/>
			</g>
		</g>
	</g>
</g>
<rect x="305" y="352" class="st7" width="79" height="24"/>
<g>
	<rect x="305" y="359.5" class="st11" width="79" height="9"/>
	<path class="st10" d="M333.8,365.2v1.9c0.6,0.2,1.3,0.3,2.2,0.3c0.4,0,3.3,0,3.8,0c-0.1,0.1-0.2,0.4-0.3,0.6H336
		c-2,0-3.1-0.3-3.8-1.6c-0.1,0.8-0.3,1.5-0.6,1.9c-0.1-0.1-0.3-0.2-0.5-0.3c0.5-0.8,0.6-2.4,0.7-4l0.7,0.1c0,0.1-0.1,0.1-0.2,0.1
		c0,0.4,0,0.7-0.1,1.1c0.2,0.7,0.5,1.1,0.8,1.5v-3.4h-1.9v-0.5h1.9v-1.3h-1.6v-0.5h1.6v-1.1l0.7,0c0,0.1-0.1,0.1-0.2,0.1v1h1.5v0.5
		h-1.5v1.3h1.7v0.5h-1.7v1.3h1.5v0.5H333.8z M338.6,362.8v-2h-2.9v-0.5h3.5v3.4h-0.6v-0.3h-2.1v2.4c0,0.3,0.1,0.3,0.5,0.3h1.6
		c0.4,0,0.5-0.2,0.5-1.3c0.1,0.1,0.4,0.2,0.5,0.2c-0.1,1.3-0.3,1.6-1,1.6H337c-0.8,0-1.1-0.2-1.1-0.9v-2.9H338.6z"/>
	<path class="st10" d="M357.2,362l0.3,0c0,0.1,0,0.1,0,0.2c-0.1,4-0.2,5.2-0.5,5.6c-0.2,0.3-0.5,0.3-0.9,0.3c-0.2,0-0.5,0-0.7,0
		c0-0.2-0.1-0.4-0.2-0.6c0.5,0,0.9,0,1.1,0c0.1,0,0.2,0,0.3-0.1c0.2-0.3,0.3-1.5,0.4-4.9h-1.3c0,1.9-0.2,4.1-1.9,5.7
		c-0.1-0.1-0.3-0.3-0.5-0.4c0.2-0.2,0.3-0.3,0.5-0.5c-1.5,0.2-3,0.4-4,0.5c0,0.1-0.1,0.1-0.1,0.1l-0.2-0.6c0.5,0,1.2-0.1,2-0.2v-0.9
		h-1.7v-0.5h1.7v-0.6h-1.7v-2.7h1.7v-0.6h-2v-0.5h2v-0.6c-0.6,0.1-1.2,0.1-1.8,0.1c0-0.1-0.1-0.3-0.2-0.5c1.3-0.1,3-0.3,3.9-0.5
		l0.4,0.5c0,0,0,0-0.1,0c0,0-0.1,0-0.1,0c-0.4,0.1-0.9,0.2-1.5,0.3c0,0-0.1,0-0.1,0.1v0.7h2v0.5h-2v0.6h1.8v2.7h-1.8v0.6h1.8v0.5
		h-1.8v0.8c0.6-0.1,1.3-0.1,1.9-0.2l0,0.4c1.2-1.4,1.3-3.2,1.3-4.7h-1.1V362h1.1v-2.1l0.7,0.1c0,0.1-0.1,0.1-0.2,0.1v1.9H357.2z
		 M350.2,363v0.7h1.2V363H350.2z M350.2,364.7h1.2v-0.7h-1.2V364.7z M353.1,363h-1.2v0.7h1.2V363z M353.1,364.7v-0.7h-1.2v0.7H353.1
		z"/>
</g>
<g>
	<rect x="180.5" y="351.5" class="st11" width="79" height="9"/>
	<path class="st10" d="M193,352l4.2,7.3h-8.5L193,352z"/>
	<path class="st10" d="M209.6,352.1c0,0-0.1,0.1-0.2,0.1c-0.5,0.7-1.5,1.5-2.3,2.1c-0.1-0.1-0.2-0.4-0.4-0.5c0.8-0.5,1.6-1.3,2.1-2
		L209.6,352.1z M208.2,360.2v-4c-0.3,0.4-0.7,0.7-1,1c-0.1-0.1-0.3-0.4-0.4-0.5c0.9-0.7,1.8-1.9,2.5-3l0.7,0.3
		c0,0.1-0.1,0.1-0.2,0.1c-0.3,0.5-0.6,0.9-0.9,1.4l0.2,0.1c0,0.1-0.1,0.1-0.2,0.1v4.5H208.2z M215.2,355v0.6h-1.4v3.8
		c0,0.8-0.3,0.8-2.1,0.8c0-0.2-0.1-0.4-0.2-0.6c0.4,0,0.8,0,1,0c0.6,0,0.6,0,0.6-0.2v-3.8H210V355H215.2z M214.8,352.4v0.6h-4.5
		v-0.6H214.8z"/>
	<path class="st10" d="M228.2,356.6c0,0.1-0.1,0.1-0.2,0.1c-0.2,1.6-0.7,2.8-2.8,3.5c-0.1-0.2-0.2-0.4-0.4-0.5
		c2-0.6,2.4-1.7,2.5-3.2L228.2,356.6z M230.5,359.1c0,0.3,0.1,0.3,0.4,0.3h1.2c0.4,0,0.4-0.2,0.5-1.4c0.1,0.1,0.4,0.2,0.6,0.3
		c-0.1,1.4-0.2,1.7-1,1.7h-1.3c-0.8,0-1-0.2-1-0.9v-2.8H225v-0.6h3.7v-1.9h-2c-0.2,0.5-0.5,1-0.8,1.4c-0.1-0.1-0.4-0.2-0.5-0.3
		c0.6-0.8,1.1-2,1.3-3l0.8,0.2c0,0.1-0.1,0.1-0.2,0.1c-0.1,0.3-0.2,0.6-0.3,1h1.7v-1.5l0.8,0c0,0.1-0.1,0.1-0.2,0.1v1.3h3.1v0.6
		h-3.1v1.9h3.7v0.6h-2.5V359.1z"/>
	<path class="st10" d="M247,352l4.2,7.3h-8.5L247,352z"/>
</g>
<g>
	<g>
		<g class="st2">
			<g>
				<path class="st4" d="M54,226h83H54z"/>
			</g>
			<g>
				<polygon class="st0" points="135,252 137,254 54,254 56,252 				"/>
			</g>
			<g>
				<polygon class="st5" points="56,252 54,254 54,226 56,228 				"/>
			</g>
			<g>
				<polygon class="st6" points="56,228 54,226 137,226 135,228 				"/>
			</g>
			<g>
				<polygon class="st0" points="135,228 137,226 137,254 135,252 				"/>
			</g>
			<g>
				<rect x="56" y="228" class="st3" width="79" height="24"/>
			</g>
		</g>
	</g>
</g>
<rect x="56" y="228" class="st10" width="79" height="24"/>
<g>
	<rect x="56" y="235.5" class="st11" width="79" height="9"/>
	<path class="st7" d="M84,238.8v-1.5c-0.4,0.3-0.9,0.6-1.3,0.8c-0.1-0.1-0.3-0.3-0.4-0.4c0.9-0.4,2-1.2,2.6-1.9l0.7,0.3
		c0,0.1-0.1,0.1-0.2,0.1c-0.3,0.3-0.6,0.6-0.9,0.8l0.3,0.1c0,0.1-0.1,0.1-0.2,0.1v1.7H84z M85.8,243.2c0,0-0.1,0.1-0.2,0.1
		c-0.7,0.4-1.8,0.7-2.7,1c-0.1-0.1-0.3-0.3-0.4-0.4c0.9-0.2,2-0.5,2.7-0.9L85.8,243.2z M83.6,242.7V239h5.9v3.7H83.6z M84.2,239.5
		v0.7h4.7v-0.7H84.2z M84.2,240.5v0.7h4.7v-0.7H84.2z M84.2,241.6v0.7h4.7v-0.7H84.2z M85,237.1l1.7-0.1c-0.2-0.4-0.3-0.8-0.4-1.2
		l0.8,0c0,0.1-0.1,0.1-0.2,0.1c0,0.4,0.2,0.7,0.4,1l3.1-0.2l0,0.5l-2.7,0.2c0.6,0.6,1.4,1,2,1c0.3,0,0.3-0.1,0.4-0.7
		c0.1,0.1,0.3,0.2,0.5,0.2c-0.1,0.8-0.3,1-0.8,1c-1.2,0-2.2-0.8-2.7-1.5l-1.9,0.1L85,237.1z M89.9,244.2c-0.6-0.3-1.6-0.7-2.6-1
		l0.5-0.3c1,0.3,2.1,0.7,2.8,1L89.9,244.2z M88.1,235.8c0.5,0.1,1.2,0.4,1.6,0.5l-0.3,0.4c-0.4-0.2-1-0.5-1.6-0.6L88.1,235.8z"/>
	<path class="st7" d="M101.9,241.5c0,0.3,0,0.4,0.3,0.4h0.9c0.2,0,0.3-0.2,0.3-1.3c0.1,0.1,0.4,0.2,0.5,0.3
		c-0.1,1.3-0.2,1.6-0.8,1.6h-1c-0.6,0-0.8-0.2-0.8-1v-2.4l-1,0.2l-0.1-0.5l1.1-0.3v-2.5l0.8,0c0,0.1-0.1,0.1-0.2,0.1v2.2
		c1.5-0.3,1.8-0.4,2.1-0.4c0,0.1,0,0.3,0.1,0.5l-2.2,0.5V241.5z M108.2,236.6l0.3,0c0,0.1,0,0.1,0,0.2c-0.1,4.8-0.3,6.3-0.7,6.8
		c-0.3,0.4-0.5,0.4-1.1,0.4c-0.3,0-0.6,0-0.9,0c0-0.2-0.1-0.4-0.2-0.6c0.5,0,1,0,1.2,0c0.2,0,0.3,0,0.4-0.2c0.3-0.4,0.5-1.9,0.6-6.1
		h-2c-0.1,2.5-0.2,5.5-2.7,7c-0.1-0.2-0.3-0.4-0.5-0.5c2.3-1.3,2.4-4.1,2.5-6.5h-1.7v-0.6H108.2z"/>
</g>
<g>
	<g>
		<g class="st2">
			<g>
				<path class="st4" d="M137,226h83H137z"/>
			</g>
			<g>
				<polygon class="st0" points="218,252 220,254 137,254 139,252 				"/>
			</g>
			<g>
				<polygon class="st5" points="139,252 137,254 137,226 139,228 				"/>
			</g>
			<g>
				<polygon class="st6" points="139,228 137,226 220,226 218,228 				"/>
			</g>
			<g>
				<polygon class="st0" points="218,228 220,226 220,254 218,252 				"/>
			</g>
			<g>
				<rect x="139" y="228" class="st3" width="79" height="24"/>
			</g>
		</g>
	</g>
</g>
<rect x="139" y="228" class="st10" width="79" height="24"/>
<g>
	<rect x="139" y="235.5" class="st11" width="79" height="9"/>
	<path class="st7" d="M165.8,236.4h7.4v7.8h-0.6v-0.6h-6.2v0.6h-0.6V236.4z M166.4,242.9h6.2V237h-6.2V242.9z M167.8,238.4h3.4v3.1
		h-3.4V238.4z M170.6,240.9v-2h-2.3v2H170.6z"/>
	<path class="st7" d="M185.3,239.4v2.9c0.7,1.1,2,1.1,3.6,1.1c1,0,2.1,0,2.8-0.1c-0.1,0.1-0.2,0.4-0.2,0.6c-0.6,0-1.6,0-2.5,0
		c-1.9,0-3.1,0-4-1.1c-0.4,0.4-0.9,0.8-1.3,1.1c0,0.1,0,0.1-0.1,0.1l-0.4-0.7c0.4-0.3,1-0.7,1.4-1.1V240h-1.3v-0.6H185.3z
		 M183.9,236c0.6,0.4,1.3,1,1.6,1.4l-0.5,0.4c-0.3-0.5-1-1.1-1.6-1.5L183.9,236z M191.6,240h-2.4c0.4,1.2,1.2,2,2.4,2.4
		c-0.1,0.1-0.3,0.3-0.4,0.5c-1.2-0.4-2-1.2-2.5-2.5c-0.3,0.8-0.9,1.7-2.4,2.4c-0.1-0.1-0.3-0.3-0.4-0.5c1.6-0.7,2.2-1.6,2.3-2.4
		h-2.4v-0.6h2.5c0-0.1,0-0.2,0-0.3v-1h-2.2v-0.6h3.6l-0.5-0.2c0.3-0.4,0.7-1.1,0.9-1.5l0.7,0.3c0,0.1-0.1,0.1-0.2,0.1
		c-0.2,0.4-0.6,1-0.9,1.4h1.6v0.6h-2.4v1c0,0.1,0,0.2,0,0.3h2.7V240z M187.3,237.6c-0.1-0.4-0.5-1.1-0.8-1.5l0.5-0.2
		c0.4,0.5,0.7,1.1,0.8,1.5L187.3,237.6z"/>
</g>
<g>
	<g>
		<g class="st2">
			<g>
				<path class="st4" d="M220,226h83H220z"/>
			</g>
			<g>
				<polygon class="st0" points="301,252 303,254 220,254 222,252 				"/>
			</g>
			<g>
				<polygon class="st5" points="222,252 220,254 220,226 222,228 				"/>
			</g>
			<g>
				<polygon class="st6" points="222,228 220,226 303,226 301,228 				"/>
			</g>
			<g>
				<polygon class="st0" points="301,228 303,226 303,254 301,252 				"/>
			</g>
			<g>
				<rect x="222" y="228" class="st3" width="79" height="24"/>
			</g>
		</g>
	</g>
</g>
<rect x="222" y="228" class="st10" width="79" height="24"/>
<g>
	<rect x="222" y="235.5" class="st11" width="79" height="9"/>
	<path class="st7" d="M253.6,236c0,0.1-0.1,0.1-0.2,0.1c-0.1,0.2-0.2,0.5-0.2,0.7h3.5v0.5H253c-0.2,0.6-0.5,1.1-0.8,1.5
		c-0.1-0.1-0.3-0.3-0.4-0.4v2.7h-1.1v1.6h1.3v0.6h-2.7v0.5h-0.5v-7.5h3.3v0.5h-1.3v1.4h1.1v0.2c0.5-0.6,0.9-1.7,1.2-2.7L253.6,236z
		 M250,236.9h-0.9v1.4h0.9V236.9z M251.2,240.6v-1.7h-2v1.7H251.2z M250,242.7v-1.6h-0.9v1.6H250z M252.1,244.2V241h1.9v3.1h-0.5
		v-0.4h-0.9v0.5H252.1z M253.4,241.5h-0.9v1.7h0.9V241.5z M255.8,238.1v2.2h-3.1v-2.2H255.8z M255.3,239.8v-1.2h-2v1.2H255.3z
		 M254.5,244.2V241h2v3.1h-0.5v-0.4h-1v0.5H254.5z M255.9,241.5h-1v1.7h1V241.5z"/>
	<path class="st7" d="M269.2,236.4v6h-2v0.7h-0.6v-6.7H269.2z M268.6,237h-1.4v2.1h1.4V237z M267.2,241.8h1.4v-2.2h-1.4V241.8z
		 M272.3,238.7h2.4v0.5h-5.3v-0.5h2.3v-1.2h-2v-0.5h2v-1.1l0.8,0c0,0.1-0.1,0.1-0.2,0.1v0.9h2v0.5h-2V238.7z M273.7,239.5
		c0,0.1-0.1,0.1-0.2,0.1v0.8h1.1v0.5h-1.1v2.5c0,0.4-0.1,0.5-0.4,0.6c-0.3,0.1-0.7,0.1-1.5,0.1c0-0.2-0.1-0.4-0.2-0.6
		c0.3,0,0.7,0,0.9,0c0.5,0,0.5,0,0.5-0.2V241h-3.6v-0.5h3.6v-0.9L273.7,239.5z M271.2,243.3c-0.2-0.5-0.7-1.1-1.2-1.6l0.5-0.3
		c0.5,0.5,1,1.1,1.2,1.6L271.2,243.3z"/>
</g>
<g>
	<g>
		<g class="st2">
			<g>
				<path class="st4" d="M303,226h83H303z"/>
			</g>
			<g>
				<polygon class="st0" points="384,252 386,254 303,254 305,252 				"/>
			</g>
			<g>
				<polygon class="st5" points="305,252 303,254 303,226 305,228 				"/>
			</g>
			<g>
				<polygon class="st6" points="305,228 303,226 386,226 384,228 				"/>
			</g>
			<g>
				<polygon class="st0" points="384,228 386,226 386,254 384,252 				"/>
			</g>
			<g>
				<rect x="305" y="228" class="st3" width="79" height="24"/>
			</g>
		</g>
	</g>
</g>
<rect x="305" y="228" class="st10" width="79" height="24"/>
<g>
	<rect x="305" y="235.5" class="st11" width="79" height="9"/>
	<path class="st7" d="M331.3,237.8v-0.5h3.2v0.5H331.3z M334.3,241v2.6h-2.1v0.4h-0.5V241H334.3z M334.3,238.6v0.5h-2.6v-0.5H334.3z
		 M331.7,240.3v-0.5h2.6v0.5H331.7z M334.2,236.1v0.5h-2.5v-0.5H334.2z M333.7,241.5h-1.5v1.6h1.5V241.5z M336.3,242.6l1.1-0.2
		l0,0.5c-1,0.2-2,0.5-2.6,0.6c0,0.1-0.1,0.1-0.1,0.1l-0.3-0.6c0.3-0.1,0.8-0.1,1.2-0.2v-2.7h-1v-0.5h2.5v0.5h-1V242.6z M339.6,238.2
		h-1.4c0.1,2.8,0.2,5.2,0.9,5.3h0c0.1,0,0.2-0.6,0.3-1.3c0.1,0.1,0.3,0.3,0.4,0.3c-0.1,1.1-0.4,1.6-0.8,1.6c-0.1,0-0.1,0-0.2,0
		c-1-0.3-1.2-2.8-1.3-5.9h-2.9v-0.6h2.9l0-1.8l0.8,0c0,0.1-0.1,0.1-0.2,0.1c0,0.6,0,1.1,0,1.7h1.4V238.2z M338.7,235.9
		c0.4,0.4,0.8,0.8,1,1.2l-0.4,0.3c-0.2-0.3-0.6-0.9-1-1.2L338.7,235.9z"/>
	<path class="st7" d="M342.1,239.4v3c0.7,1.1,2,1.1,3.7,1.1c1,0,2.1,0,2.8-0.1c-0.1,0.1-0.2,0.4-0.2,0.6c-0.6,0-1.6,0-2.5,0
		c-2,0-3.2,0-4.1-1.1c-0.4,0.4-0.8,0.8-1.2,1.1c0,0.1,0,0.1-0.1,0.1l-0.4-0.6c0.4-0.3,0.9-0.7,1.3-1.1V240h-1.2v-0.6H342.1z
		 M340.9,236c0.6,0.4,1.2,1.1,1.5,1.5l-0.5,0.4c-0.3-0.5-0.9-1.1-1.5-1.5L340.9,236z M345.2,243.2v-0.9h-2.7v-0.5h2.7v-0.6h-2v-2.6
		h2V238h-2.3v-0.5h2.3v-0.7l0.8,0c0,0.1-0.1,0.1-0.2,0.1v0.5h2.3v0.5h-2.3v0.6h2v2.6h-2v0.6h2.7v0.5h-2.7v0.9H345.2z M343.3,236.6
		v0.7h-0.5v-1.2h5.6v1.2h-0.6v-0.7H343.3z M343.8,239v0.6h1.4V239H343.8z M343.8,240.7h1.4v-0.7h-1.4V240.7z M347.3,239h-1.5v0.6
		h1.5V239z M347.3,240.7v-0.7h-1.5v0.7H347.3z"/>
	<path class="st7" d="M353.4,242.6h-1.8v1.6h-0.6v-1.6h-1.8V242h1.8v-0.8h-1.4v-3.2h1.4v-0.7h-1.7v-0.5h1.7v-1l0.7,0
		c0,0.1-0.1,0.1-0.2,0.1v0.8h1.6v0.5h-1.6v0.7h1.5v3.2h-1.5v0.8h1.8V242.6z M350.2,238.6v0.9h1v-0.9H350.2z M350.2,239.9v0.9h1v-0.9
		H350.2z M352.7,239.4v-0.9h-1v0.9H352.7z M352.7,240.8v-0.9h-1v0.9H352.7z M356.5,241.1c0.5,0.9,1,2.1,1.2,2.9l-0.6,0.2
		c0-0.2-0.1-0.4-0.2-0.7c-1.3,0.1-2.6,0.3-3.4,0.4c0,0.1-0.1,0.1-0.1,0.1l-0.2-0.7c0.2,0,0.5,0,0.7,0c0.3-0.9,0.6-2.3,0.8-3.3h-1.3
		v-0.6h4.3v0.6h-2.4c-0.2,1-0.5,2.3-0.8,3.3c0.7,0,1.5-0.1,2.3-0.2c-0.2-0.6-0.5-1.2-0.8-1.7L356.5,241.1z M357.3,236.5v0.6h-3.5
		v-0.6H357.3z"/>
</g>
<g>
</g>
<g>
</g>
<g>
</g>
<g>
</g>
<g>
</g>
<g>
</g>
<g>
</g>
<g>
</g>
<g>
</g>
<g>
</g>
<g>
</g>
<g>
</g>
<g>
</g>
<g>
</g>
<g>
</g>
<g>
</g>
<g>
</g>
<g>
</g>
<g>
</g>
<g>
</g>
<g>
</g>
<g>
</g>
<g>
</g>
<g>
</g>
<g>
</g>
</svg>
