<?xml version="1.0" encoding="utf-8"?>
<!-- Generator: Adobe Illustrator 16.0.0, SVG Export Plug-In . SVG Version: 6.00 Build 0)  -->
<!DOCTYPE svg PUBLIC "-//W3C//DTD SVG 1.1//EN" "http://www.w3.org/Graphics/SVG/1.1/DTD/svg11.dtd">
<svg version="1.1" id="レイヤー_1" xmlns="http://www.w3.org/2000/svg" xmlns:xlink="http://www.w3.org/1999/xlink" x="0px"
	 y="0px" width="440px" height="975px" viewBox="0 0 440 975" style="enable-background:new 0 0 440 975;" xml:space="preserve">
<style type="text/css">
<![CDATA[
	.st0{fill:#87CEFA;stroke:#000000;stroke-width:2;stroke-miterlimit:10;}
	.st1{fill:#90EE90;stroke:#000000;stroke-width:2;stroke-miterlimit:10;}
	.st2{fill:#FFFFCC;}
	.st3{fill:#FFFFFF;}
	.st4{fill:none;}
	.st5{fill:#CCCCCC;}
	.st6{fill:none;stroke:#000000;stroke-width:2;stroke-miterlimit:10;}
	.st7{fill:#DC0000;}
	.st8{fill:#EEEEEE;stroke:#000000;stroke-width:2;stroke-miterlimit:10;}
]]>
</style>
<rect class="st2" width="440" height="975"/>
<rect x="132" y="79" class="st8" width="44" height="72"/>
<rect x="176" y="79" class="st8" width="44" height="72"/>
<rect x="220" y="79" class="st8" width="44" height="72"/>
<rect x="264" y="79" class="st8" width="44" height="72"/>
<rect x="308" y="79" class="st8" width="44" height="72"/>
<rect x="352" y="79" class="st8" width="44" height="72"/>
<g>
	<rect x="191.5" y="86.2" class="st4" width="13" height="57.6"/>
	<path d="M192.4,90.3c0.8,0.3,1.8,0.9,2.3,1.3l-0.5,0.7c-0.5-0.4-1.4-1-2.3-1.4L192.4,90.3z M192.3,98c0.6-1,1.5-2.8,2.2-4.3
		l0.7,0.5c-0.6,1.4-1.4,3-1.9,4c0.1,0.1,0.1,0.1,0.1,0.2c0,0.1,0,0.1,0,0.1L192.3,98z M193.1,86.8c0.8,0.4,1.8,1,2.2,1.4
		c-0.3,0.4-0.4,0.5-0.5,0.7c-0.5-0.5-1.4-1.1-2.2-1.5L193.1,86.8z M204,95.8v0.7h-1.2v1.3c0,0.9-0.4,0.9-2.4,0.9
		c-0.1-0.2-0.2-0.5-0.3-0.7c0.7,0,1.4,0,1.6,0c0.2,0,0.2-0.1,0.2-0.2v-1.3h-4.9v2.2h-0.8v-2.2H195v-0.7h1.3v-3.3h2.8v-0.9h-3.9v-0.7
		h2.4v-0.9h-1.5v-0.7h1.5v-0.9h-1.9v-0.7h1.9v-1.1l1.1,0.1c0,0.1-0.1,0.2-0.2,0.2v0.9h2.3v-1.1l1.1,0.1c0,0.1-0.1,0.2-0.3,0.2v0.9h2
		v0.7h-2v0.9h1.7v0.7h-1.7v0.9h2.4v0.7h-4v0.9h3v3.3H204z M199.1,93.3h-2v0.9h2V93.3z M197.1,94.9v1h2v-1H197.1z M198.4,88.5v0.9
		h2.3v-0.9H198.4z M198.4,90.1v0.9h2.3v-0.9H198.4z M202,93.3h-2.1v0.9h2.1V93.3z M199.9,95.8h2.1v-1h-2.1V95.8z"/>
	<path d="M198.7,111.3c-0.1,0.1-0.2,0.2-0.3,0.2c-0.5,4-1.8,7.6-4,7.6c-1.1,0-2.1-1.1-2.1-3.1c0-3.1,2.4-5.7,5.9-5.7
		c3.8,0,5.4,2.4,5.4,4.9c0,3.1-1.8,4.6-4.9,5.3c-0.1-0.2-0.3-0.6-0.5-0.8c3-0.6,4.5-2,4.5-4.5c0-2.1-1.4-4.1-4.4-4.1
		c-0.1,0-0.3,0-0.4,0L198.7,111.3z M197.5,111.2c-2.6,0.3-4.3,2.5-4.3,4.8c0,1.4,0.6,2.3,1.2,2.3C196,118.2,197.2,114.7,197.5,111.2
		z"/>
	<path d="M193,132.4h10.2v10.8h-0.9v-1.1h-8.4v1.2H193V132.4z M193.9,141.2h8.4v-7.9h-8.4V141.2z"/>
</g>
<rect x="132" y="172" class="st8" width="44" height="72"/>
<rect x="176" y="172" class="st8" width="44" height="72"/>
<rect x="220" y="172" class="st8" width="44" height="72"/>
<rect x="264" y="172" class="st8" width="44" height="72"/>
<rect x="308" y="172" class="st8" width="44" height="72"/>
<rect x="352" y="172" class="st8" width="44" height="72"/>
<rect x="132" y="421" class="st8" width="44" height="72"/>
<rect x="176" y="421" class="st8" width="44" height="72"/>
<rect x="220" y="421" class="st8" width="44" height="72"/>
<rect x="264" y="421" class="st8" width="44" height="72"/>
<rect x="308" y="421" class="st8" width="44" height="72"/>
<rect x="352" y="421" class="st8" width="44" height="72"/>
<rect x="44" y="421" class="st8" width="44" height="72"/>
<rect x="88" y="421" class="st8" width="44" height="72"/>
<rect x="44" y="514" class="st8" width="44" height="72"/>
<rect x="88" y="514" class="st8" width="44" height="72"/>
<rect x="132" y="514" class="st8" width="44" height="72"/>
<rect x="176" y="514" class="st8" width="44" height="72"/>
<rect x="220" y="514" class="st8" width="44" height="72"/>
<rect x="264" y="514" class="st8" width="44" height="72"/>
<rect x="308" y="514" class="st8" width="44" height="72"/>
<rect x="352" y="514" class="st8" width="44" height="72"/>
<rect x="44" y="292" class="st0" width="44" height="72"/>
<rect x="88" y="292" class="st8" width="44" height="72"/>
<rect x="132" y="292" class="st1" width="44" height="72"/>
<rect x="176" y="292" class="st8" width="44" height="72"/>
<rect x="220" y="292" class="st8" width="44" height="72"/>
<rect x="264" y="292" class="st8" width="44" height="72"/>
<rect x="308" y="292" class="st8" width="44" height="72"/>
<rect x="352" y="292" class="st8" width="44" height="72"/>
<rect x="44" y="607" class="st8" width="44" height="72"/>
<rect x="88" y="607" class="st8" width="44" height="72"/>
<rect x="132" y="607" class="st8" width="44" height="72"/>
<rect x="176" y="607" class="st8" width="44" height="72"/>
<rect x="220" y="607" class="st8" width="44" height="72"/>
<rect x="264" y="607" class="st8" width="44" height="72"/>
<rect x="308" y="607" class="st8" width="44" height="72"/>
<rect x="352" y="607" class="st8" width="44" height="72"/>
<rect x="44" y="700" class="st8" width="44" height="72"/>
<rect x="88" y="700" class="st8" width="44" height="72"/>
<rect x="132" y="700" class="st8" width="44" height="72"/>
<rect x="176" y="700" class="st8" width="44" height="72"/>
<rect x="220" y="700" class="st8" width="44" height="72"/>
<rect x="264" y="700" class="st8" width="44" height="72"/>
<rect x="308" y="700" class="st8" width="44" height="72"/>
<rect x="352" y="700" class="st8" width="44" height="72"/>
<rect x="44" y="793" class="st8" width="44" height="72"/>
<rect x="88" y="793" class="st8" width="44" height="72"/>
<rect x="132" y="793" class="st8" width="44" height="72"/>
<rect x="176" y="793" class="st8" width="44" height="72"/>
<rect x="220" y="793" class="st8" width="44" height="72"/>
<rect x="264" y="793" class="st8" width="44" height="72"/>
<rect x="308" y="793" class="st8" width="44" height="72"/>
<rect x="352" y="793" class="st8" width="44" height="72"/>
<rect x="176" y="911" width="88" height="14"/>
<g>
	<rect x="176.1" y="912.5" class="st4" width="87.9" height="14"/>
	<path class="st5" d="M189.9,915.1h-4.2v7.1h-3.3v-7.1h-4.2v-1.4h11.6V915.1z"/>
	<path class="st5" d="M204.1,917.9c0,2.9-3,4.5-7.2,4.5c-4.5,0-7-1.9-7-4.3c0-2.5,2.8-4.4,7.2-4.4
		C201.8,913.6,204.1,915.6,204.1,917.9z M193.3,918c0,1.7,1.3,3,3.7,3c2.4,0,3.7-1.4,3.7-3.1c0-1.6-1.2-3-3.7-3
		C194.5,914.9,193.3,916.4,193.3,918z"/>
	<path class="st5" d="M213.7,915.3c-0.6-0.2-1.6-0.4-3-0.4c-1.7,0-2.5,0.5-2.5,0.9c0,0.6,0.8,0.9,2.9,1.4c2.7,0.6,3.9,1.4,3.9,2.5
		c0,1.5-2.2,2.6-6.2,2.6c-1.7,0-3.4-0.2-4.2-0.5l0.6-1.4c0.9,0.3,2.3,0.5,3.7,0.5c1.8,0,2.8-0.4,2.8-1.1c0-0.6-0.8-1-2.7-1.4
		c-2.6-0.5-4.1-1.3-4.1-2.4c0-1.4,2.2-2.5,5.8-2.5c1.6,0,2.8,0.2,3.6,0.4L213.7,915.3z"/>
	<path class="st5" d="M228.7,922.2h-3.3v-3.6h-5.8v3.6h-3.3v-8.5h3.3v3.4h5.8v-3.4h3.3V922.2z"/>
	<path class="st5" d="M230.9,913.7h3.3v8.5h-3.3V913.7z"/>
	<path class="st5" d="M244.3,917.7c1.9,0.2,3.3,1,3.3,2.1c0,0.7-0.5,1.3-1.5,1.7c-1.1,0.5-3,0.8-6.1,0.8c-1.6,0-2.8-0.1-3.6-0.1
		v-8.3c1-0.1,2.6-0.2,4.3-0.2c2,0,3.5,0.1,4.7,0.5c1,0.3,1.7,0.9,1.7,1.6C247,916.6,246.1,917.3,244.3,917.7L244.3,917.7z
		 M240.8,917.2c1.8,0,2.9-0.5,2.9-1.2c0-0.8-1.3-1.1-2.7-1.1c-0.7,0-1.1,0-1.4,0.1v2.2H240.8z M239.6,921c0.3,0,0.7,0,1.3,0
		c1.8,0,3.3-0.4,3.3-1.4c0-1-1.7-1.3-3.3-1.3h-1.2V921z"/>
	<path class="st5" d="M261.4,922.2H258l-1.2-2.2h-4.5l-1.2,2.2h-3.3l4.8-8.5h4.1L261.4,922.2z M256.3,918.7l-1-1.9
		c-0.3-0.5-0.6-1.2-0.8-1.7h-0.1c-0.2,0.5-0.5,1.2-0.7,1.7l-1,1.9H256.3z"/>
</g>
<g>
	<path class="st6" d="M396,291v-14.5c0-2.8-2.3-4.5-5-4.5H49.5c-2.8,0-5.5,1.8-5.5,4.5V292"/>
</g>
<rect x="202" y="262" class="st2" width="36" height="20"/>
<g>
	<rect x="191.6" y="264.3" class="st4" width="56.8" height="14.3"/>
	<path d="M209.7,270.7c0.4,0.4,1.6,1.7,1.9,2l-0.6,0.7c-0.2-0.4-0.8-1.2-1.3-1.8v6.2h-0.9v-6.3c-0.5,1.5-1.2,2.9-1.8,3.8
		c-0.1-0.3-0.3-0.6-0.5-0.8c0.8-1.1,1.7-3,2.2-4.6h-2v-0.9h2.2v-2.4c-0.6,0.2-1.3,0.4-1.9,0.5c0-0.2-0.2-0.5-0.3-0.7
		c1.5-0.4,3.3-0.9,4.2-1.5l0.8,0.7c-0.1,0.1-0.1,0.1-0.3,0.1c-0.4,0.2-1,0.5-1.6,0.7v2.7h1.8v0.9h-1.8V270.7z M215.7,276.7h3.8v0.8
		H211v-0.8h3.9v-1.2h-3.1v-0.8h3.1v-1H212v-4.5h2.8v-1h-3.5v-0.8h3.5v-1.2c-1,0.1-2,0.2-3,0.3c0-0.2-0.1-0.5-0.2-0.7
		c2.3-0.2,5.1-0.6,6.5-1l0.8,0.7c0,0-0.1,0.1-0.2,0.1c0,0-0.1,0-0.1,0c-0.8,0.2-1.8,0.4-2.9,0.6v1.3h3.6v0.8h-3.6v1h3v4.5h-3v1h3.2
		v0.8h-3.2V276.7z M212.8,270v1.2h2V270H212.8z M212.8,273h2v-1.2h-2V273z M217.8,270h-2.1v1.2h2.1V270z M217.8,273v-1.2h-2.1v1.2
		H217.8z"/>
	<path d="M226.2,271.8l0.2,0l0.5,0.1c0,0.1,0,0.2,0,0.3c-0.2,3.6-0.3,4.9-0.7,5.3c-0.3,0.4-0.5,0.4-1.6,0.4c-0.3,0-0.7,0-1.1,0
		c0-0.3-0.1-0.6-0.3-0.8c0.7,0.1,1.4,0.1,1.7,0.1c0.3,0,0.4,0,0.5-0.2c0.3-0.3,0.4-1.4,0.5-4.3h-2.5c-0.3,1.9-1,3.9-2.4,5.2
		c-0.1-0.2-0.4-0.5-0.7-0.6c1.8-1.6,2.3-4.7,2.4-7.1h-1.6v-4.6h5.6v4.6h-3c-0.1,0.5-0.1,1.1-0.2,1.7H226.2z M222.2,266.3v2.9h3.8
		v-2.9H222.2z M228.4,266.5l1.2,0.1c0,0.1-0.1,0.2-0.3,0.2v7.6h-0.9V266.5z M231.9,265.1l1.2,0.1c0,0.1-0.1,0.2-0.3,0.2v11.2
		c0,0.7-0.2,1-0.6,1.1c-0.4,0.2-1.2,0.2-2.5,0.2c-0.1-0.3-0.2-0.7-0.4-1c0.5,0,1,0,1.4,0c1.1,0,1.2,0,1.2-0.4V265.1z"/>
</g>
<g>
	<path class="st6" d="M396,421v-16.5c0-2.8-2.3-4.5-5-4.5H49.5c-2.8,0-5.5,1.8-5.5,4.5V422"/>
</g>
<rect x="202" y="389" class="st2" width="36" height="20"/>
<g>
	<rect x="191.6" y="392.3" class="st4" width="56.8" height="14.3"/>
	<path d="M210.8,393.3c0,0.1-0.1,0.1-0.3,0.1c-0.8,1-2.3,2.4-3.5,3.2c-0.1-0.2-0.4-0.6-0.5-0.8c1.2-0.8,2.6-2,3.3-3L210.8,393.3z
		 M208.7,405.8v-6.2c-0.5,0.6-1.1,1.1-1.6,1.6c-0.1-0.2-0.4-0.6-0.6-0.7c1.3-1.1,2.9-2.9,3.8-4.7l1.1,0.4c0,0.1-0.2,0.1-0.3,0.1
		c-0.4,0.7-0.9,1.4-1.4,2.1l0.3,0.1c0,0.1-0.1,0.2-0.3,0.2v7.1H208.7z M219.5,397.8v0.9h-2.2v5.9c0,1.2-0.4,1.2-3.3,1.2
		c0-0.3-0.2-0.6-0.3-0.9c0.6,0,1.2,0,1.6,0c0.9,0,1,0,1-0.3v-5.9h-4.9v-0.9H219.5z M219,393.7v0.9h-7v-0.9H219z"/>
	<path d="M225.8,400.2c0,0.1-0.1,0.2-0.3,0.2c-0.4,2.5-1.1,4.4-4.3,5.4c-0.1-0.2-0.4-0.6-0.6-0.8c3.1-0.9,3.7-2.6,4-5L225.8,400.2z
		 M229.3,404.2c0,0.4,0.1,0.5,0.7,0.5h1.9c0.5,0,0.6-0.3,0.7-2.2c0.2,0.2,0.6,0.3,0.9,0.4c-0.1,2.1-0.4,2.7-1.5,2.7h-2.1
		c-1.2,0-1.5-0.3-1.5-1.4v-4.3h-7.6V399h5.7v-3h-3c-0.4,0.8-0.8,1.6-1.3,2.2c-0.2-0.1-0.6-0.4-0.8-0.4c1-1.2,1.7-3.1,2.1-4.6
		l1.2,0.3c0,0.1-0.1,0.1-0.3,0.1c-0.1,0.4-0.3,1-0.5,1.5h2.7v-2.3l1.2,0.1c0,0.1-0.1,0.2-0.3,0.2v2h4.7v0.9h-4.7v3h5.8v0.9h-3.9
		V404.2z"/>
</g>
<g>
	<path class="st6" d="M396,78V62.5c0-2.8-2.3-4.5-5-4.5H137c-2.8,0-5,1.8-5,4.5V79"/>
</g>
<rect x="239" y="48" class="st2" width="50" height="20"/>
<g>
	<rect x="243.1" y="50.8" class="st4" width="42.1" height="14.3"/>
	<path d="M248.4,54.2l0.5,0.1l-0.1,0.2c-0.2,2.5-0.6,4.5-1.3,6c0.7,0.5,1.3,1.1,1.7,1.5l-0.6,0.8c-0.4-0.4-0.9-1-1.5-1.5
		c-0.7,1.3-1.7,2.3-2.8,2.9c-0.1-0.2-0.4-0.6-0.6-0.8c1.1-0.6,1.9-1.5,2.6-2.7c-0.5-0.4-1.1-0.8-1.6-1.1l-0.2,0.6l-0.8-0.4
		c0.4-1.2,0.8-3,1.2-4.8h-1.4v-0.9h1.6c0.2-1.1,0.4-2.1,0.6-3l1.1,0.1c0,0.1-0.1,0.2-0.3,0.2c-0.2,0.8-0.3,1.7-0.6,2.6h2.2
		L248.4,54.2z M245.9,55.2c-0.3,1.3-0.6,2.6-0.9,3.8c0.6,0.3,1.2,0.7,1.8,1.1c0.6-1.3,1-2.9,1.2-4.9H245.9z M254.5,53.6
		c0.9,1.1,1.9,2.7,2.2,3.7l-0.8,0.4c-0.1-0.3-0.2-0.6-0.4-1c-2.2,0.2-4.5,0.3-6,0.4c0,0.1-0.1,0.2-0.2,0.2l-0.4-1.1l1.1,0
		c0.6-1.4,1.2-3.5,1.6-5l1.2,0.3c0,0.1-0.2,0.2-0.3,0.2c-0.4,1.3-1,3.1-1.6,4.5l4.1-0.2c-0.4-0.7-0.9-1.4-1.4-2L254.5,53.6z
		 M250,64.3v-5.7h5.9v5.7H255v-0.6h-4.1v0.7H250z M255,59.5h-4.1v3.3h4.1V59.5z"/>
	<path d="M268.7,52.1c0,0.1-0.2,0.1-0.3,0.1c-0.5,0.5-1.3,1.2-2,1.7c0.3,0.4,0.6,0.8,1,1.2c0.7-0.5,1.6-1.3,2.1-1.9l0.9,0.6
		c-0.1,0.1-0.2,0.1-0.3,0.1c-0.5,0.5-1.4,1.2-2.1,1.7c0.8,0.7,1.8,1.3,2.7,1.7c-0.2,0.2-0.5,0.5-0.6,0.8c-0.7-0.3-1.4-0.7-2.1-1.2
		v0.5h-1.8v2.2h3.4v0.9h-3.4v2.4c0,0.4,0.1,0.5,0.6,0.5h1.7c0.5,0,0.5-0.3,0.6-1.8c0.2,0.2,0.6,0.3,0.9,0.4
		c-0.1,1.8-0.3,2.3-1.4,2.3h-1.9c-1.1,0-1.4-0.3-1.4-1.4v-2.4h-2.7c-0.2,1.6-1.1,3-3.9,4c-0.1-0.2-0.4-0.6-0.6-0.7
		c2.5-0.8,3.3-2,3.5-3.2h-3.3v-0.9h3.3v-2.2h-1.6v-0.4c-0.7,0.5-1.4,1-2.1,1.3c-0.1-0.2-0.4-0.5-0.6-0.7c1-0.4,2-1.1,2.9-1.9
		c-0.4-0.5-1.2-1.1-1.8-1.6l0.6-0.5c0.6,0.4,1.3,1,1.8,1.5c0.6-0.6,1.1-1.3,1.4-2.1h-3.7v-0.8h4.2l0.2-0.1c0.4,0.2,0.5,0.3,0.7,0.3
		c0,0.1-0.1,0.1-0.2,0.2c-0.6,1.6-1.7,3-2.9,4h6.9c-1.4-1.2-2.6-2.9-3.3-4.8l0.8-0.3c0.3,0.6,0.6,1.3,0.9,1.8
		c0.6-0.5,1.4-1.2,1.8-1.8L268.7,52.1z M265.3,59.5v-2.2h-2.6v2.2H265.3z"/>
	<path d="M272.7,60.1c-0.1,1.3-0.2,2.7-0.8,3.5l-0.5-0.3c0.5-0.7,0.7-2,0.7-3.3L272.7,60.1z M277.1,58.3l0.4,0.1l0,0.3
		c-0.2,3.6-0.4,4.9-0.7,5.3c-0.3,0.3-0.5,0.4-1.2,0.4c-0.3,0-0.6,0-0.9,0c0-0.2-0.1-0.6-0.2-0.8c0.5,0,1,0.1,1.2,0.1
		c0.4,0,0.6-0.1,0.8-2l-0.5,0.2c-0.1-0.5-0.5-1.3-0.9-1.9l0.5-0.2c0.3,0.5,0.7,1.3,0.8,1.8h0c0.1-0.6,0.1-1.4,0.2-2.3h-3.7v0.4h-0.8
		v-7.6h5.2v0.8h-2.1v1.3h1.8v0.8h-1.8v1.4h1.8V57h-1.8v1.4h1.6L277.1,58.3z M274.5,52.7h-1.5v1.3h1.5V52.7z M274.5,56.2v-1.4h-1.5
		v1.4H274.5z M273.1,57v1.4h1.5V57H273.1z M273.3,62.9c0-0.7-0.1-1.8-0.2-2.6l0.5-0.1c0.2,0.8,0.3,1.9,0.3,2.6L273.3,62.9z
		 M274.7,60c0.3,0.7,0.6,1.7,0.6,2.3l-0.5,0.1c-0.1-0.6-0.3-1.6-0.6-2.3L274.7,60z M284.1,57.6h-2.3c0.4,2.7,1.3,4.9,3,6
		c-0.2,0.2-0.5,0.5-0.6,0.8c-1.8-1.3-2.7-3.7-3.2-6.8h-1.4c0,2.1-0.3,4.9-1.6,6.7c-0.2-0.2-0.5-0.4-0.8-0.5c1.4-1.8,1.5-4.5,1.5-6.6
		v-5.4h5.5V57.6z M283.2,52.8h-3.7v4h3.7V52.8z"/>
</g>
<g>
	<rect x="147.5" y="86.2" class="st4" width="13" height="57.6"/>
	<path d="M159.8,91.4h-5.1c0.8,3.1,2.5,5.5,5.3,6.5c-0.2,0.2-0.5,0.6-0.6,0.8c-2.7-1.1-4.4-3.4-5.3-6.6c-0.6,2.6-2,5.1-5.4,6.6
		c-0.1-0.2-0.4-0.5-0.6-0.7c3.4-1.4,4.7-4,5.2-6.6h-5v-0.9h5.2c0.2-1.4,0.2-2.7,0.2-3.8l1.2,0.1c0,0.1-0.1,0.2-0.3,0.2
		c0,1,0,2.2-0.2,3.5h5.5V91.4z"/>
	<path d="M159.9,116v0.9h-3.1v4.2h-0.9v-4.2h-4c-0.3,1.7-1,3.2-2.9,4.3c-0.1-0.2-0.5-0.5-0.7-0.6c1.6-1,2.3-2.3,2.6-3.7h-2.8V116h3
		c0.1-0.6,0.1-1.1,0.1-1.7v-1.7h-2.6v-0.9h2.6V109l1.2,0.1c0,0.1-0.1,0.2-0.3,0.2v2.4h3.9V109l1.2,0.1c0,0.1-0.1,0.2-0.3,0.2v2.5
		h2.7v0.9h-2.7v3.4H159.9z M152.1,114.3c0,0.6,0,1.1-0.1,1.7h3.9v-3.4h-3.9V114.3z"/>
	<path d="M154.1,131.9v8.9h-4.9v1h-0.8v-9.9H154.1z M150.8,132.7h-1.7v3.2h1.7V132.7z M149.2,136.7v3.4h1.7v-3.4H149.2z
		 M153.3,135.9v-3.2h-1.7v3.2H153.3z M151.6,140.1h1.7v-3.4h-1.7V140.1z M160.1,132.9v0.8h-1.9v8.4c0,1.2-0.5,1.2-3.1,1.2
		c-0.1-0.2-0.2-0.6-0.3-0.9c0.5,0,1,0,1.4,0c1.2,0,1.2,0,1.2-0.4v-8.4h-3.1v-0.8H160.1z"/>
</g>
<g>
	<rect x="235.5" y="86.2" class="st4" width="13" height="57.6"/>
	<path d="M247.8,91.4h-5.1c0.8,3.1,2.5,5.5,5.3,6.5c-0.2,0.2-0.5,0.6-0.7,0.8c-2.7-1.1-4.4-3.4-5.3-6.6c-0.6,2.6-2,5.1-5.4,6.6
		c-0.1-0.2-0.4-0.5-0.6-0.7c3.4-1.4,4.7-4,5.2-6.6h-5v-0.9h5.2c0.2-1.4,0.2-2.7,0.2-3.8l1.2,0.1c0,0.1-0.1,0.2-0.3,0.2
		c0,1,0,2.2-0.2,3.5h5.5V91.4z"/>
	<path d="M247.5,109.7V120c0,1.1-0.6,1.1-2.6,1.1c0-0.2-0.2-0.6-0.3-0.8c0.3,0,0.7,0,0.9,0c0.4,0,0.7,0,0.8,0c0.2,0,0.3-0.1,0.3-0.3
		v-9.4h-9.1V121h-0.8v-11.4H247.5z M245,119.4h-0.8v-0.7h-4.6v0.9h-0.8v-4.4l1,0.1c0,0.1-0.1,0.2-0.2,0.2v2.5h1.9v-3.8h-3.4v-0.8
		h7.9v0.8h-3.5c0,0.1-0.1,0.1-0.2,0.1v3.7h1.9v-2.8l1,0.1c0,0.1-0.1,0.2-0.2,0.2V119.4z M240.1,113.2c-0.1-0.6-0.5-1.5-1-2.1
		l0.7-0.3c0.5,0.6,0.9,1.5,1.1,2.1L240.1,113.2z M245,111.1c0,0.1-0.1,0.1-0.3,0.1c-0.3,0.6-0.7,1.5-1.1,2c-0.1-0.1-0.5-0.2-0.7-0.3
		c0.4-0.6,0.8-1.6,1-2.2L245,111.1z"/>
	<path d="M246.3,134.4l1.2,0.1c0,0.1-0.1,0.2-0.3,0.2v8.5h-0.9v-1.1h-8.6v1.1h-0.9v-8.8l1.1,0.1c0,0.1-0.1,0.2-0.3,0.2v6.5h3.8v-9.7
		l1.2,0.1c0,0.1-0.1,0.2-0.3,0.2v9.4h3.9V134.4z"/>
</g>
<g>
	<rect x="367.5" y="86.4" class="st4" width="13" height="57.6"/>
	<path d="M374.2,94c0.4,0.8,0.8,1.4,1.4,2c1-0.5,2.2-1.3,2.9-1.8l0.8,0.6c-0.1,0.1-0.2,0.1-0.3,0.1c-0.8,0.5-1.9,1.2-2.9,1.7
		c1,0.8,2.3,1.4,3.9,1.7c-0.2,0.2-0.4,0.5-0.5,0.8c-3-0.7-5.1-2.4-6.2-5h-2v3.6c1.1-0.2,2.4-0.4,3.5-0.6l0,0.7
		c-2.1,0.4-4.3,0.8-5.6,1c0,0.1-0.1,0.2-0.2,0.2l-0.4-0.9c0.5-0.1,1.1-0.2,1.7-0.3V94h-2.3v-0.8h2.3v-5.8h8.2v0.8h-7.3v1.2h6.9v0.7
		h-6.9v1.2h6.9V92h-6.9v1.2h8.5V94H374.2z"/>
	<path d="M368.4,112.8c0.8,0.3,1.8,0.9,2.3,1.4l-0.5,0.7c-0.5-0.5-1.5-1.1-2.3-1.4L368.4,112.8z M368.3,120.5c0.6-1,1.6-2.8,2.2-4.2
		l0.7,0.5c-0.6,1.4-1.4,3-2,4c0.1,0.1,0.1,0.1,0.1,0.2c0,0.1,0,0.1-0.1,0.1L368.3,120.5z M369.1,109.3c0.8,0.4,1.8,1,2.3,1.5
		c-0.3,0.4-0.4,0.5-0.5,0.7c-0.5-0.5-1.5-1.1-2.3-1.5L369.1,109.3z M380,118.3v0.8h-4.3v2.1h-0.8v-2.1h-3.9v-0.8h3.9v-1.1h-3.2v-0.8
		h3.2v-1.1H372v-0.8h2.9v-1.2h-3.7v-0.8h3.7v-1.2h-2.8v-0.7h2.8v-1.4l1.1,0.1c0,0.1-0.1,0.1-0.2,0.2v1.2h3.1v2h1.2v0.8h-1.2v2h-3.1
		v1.1h3.5v0.8h-3.5v1.1H380z M375.7,111.3v1.2h2.2v-1.2H375.7z M375.7,113.3v1.2h2.2v-1.2H375.7z"/>
	<path d="M368.7,132.4h10.8v11.1h-0.9v-0.8h-9v0.8h-0.9V132.4z M373.5,133.2h-4v3.8h4V133.2z M369.5,137.9v3.9h4v-3.9H369.5z
		 M378.5,137v-3.8h-4.1v3.8H378.5z M374.4,141.8h4.1v-3.9h-4.1V141.8z"/>
</g>
<g>
	<rect x="323.5" y="86.2" class="st4" width="13" height="57.6"/>
	<path d="M330.4,89h4.9v6.1h-0.9v-0.8h-4v4.3h-0.9v-4.3h-3.9v0.8h-0.9V89h4.8v-2.4l1.2,0.1c0,0.1-0.1,0.2-0.3,0.2V89z M325.6,93.5
		h3.9v-3.6h-3.9V93.5z M330.4,93.5h4v-3.6h-4V93.5z"/>
	<path d="M335.9,108.5h-5.1c0.9,2.2,2.7,3.7,5.4,4.3c-0.2,0.2-0.5,0.6-0.6,0.8c-2.8-0.7-4.6-2.3-5.6-4.7c-0.6,1.9-2,3.7-5.6,4.8
		c-0.1-0.2-0.3-0.6-0.5-0.8c3.4-1.1,4.7-2.6,5.2-4.4h-5.1v-0.9h1.5v-4.3h3.9v-1.9l1.2,0.1c0,0.1-0.1,0.2-0.3,0.2v1.6h4.1v4.3h1.4
		V108.5z M326.4,107.7h2.9c0.1-0.5,0.1-1.1,0.1-1.7v-1.8h-3V107.7z M333.6,104.2h-3.2v1.8c0,0.6,0,1.1-0.1,1.7h3.3V104.2z"/>
	<path d="M327.4,121.3c0.5,0.4,1.7,1.8,2.1,2.1l-0.6,0.7c-0.3-0.4-0.9-1.2-1.5-1.9v6.1h-0.9v-6.7c-0.6,1.7-1.4,3.3-2.2,4.3
		c-0.1-0.3-0.3-0.6-0.5-0.8c1-1.1,2.1-3.2,2.6-5.1h-2.3v-0.8h2.4v-2.9l1.1,0.1c0,0.1-0.1,0.2-0.2,0.2v2.6h2.1v0.8h-2.1V121.3z
		 M336,120.1h-2.5c0.6,2.2,1.7,4.4,2.7,5.5c-0.2,0.2-0.5,0.5-0.7,0.7c-0.9-1.1-1.8-3-2.4-4.9v7.1h-0.9v-6.8c-0.8,1.9-1.8,3.8-3,4.8
		c-0.1-0.2-0.4-0.6-0.5-0.8c1.3-1.2,2.7-3.5,3.3-5.7h-2.3v-0.8h2.5v-2.9l1.1,0.1c0,0.1-0.1,0.2-0.3,0.2v2.6h2.8V120.1z"/>
	<path d="M329.4,136.3h-3.9v7h-0.9v-11.5h4.7V136.3z M328.5,132.5h-3v1.2h3V132.5z M325.5,135.6h3v-1.2h-3V135.6z M332.4,142.1h-4.1
		v0.7h-0.8v-5.4h4.9V142.1z M331.6,138.1h-3.3v1.3h3.3V138.1z M328.3,141.4h3.3V140h-3.3V141.4z M335.4,131.8v10.3
		c0,1.2-0.5,1.2-2.8,1.2c0-0.2-0.2-0.7-0.3-0.9c0.4,0,0.8,0,1.2,0c0.9,0,1,0,1-0.3v-5.8h-4v-4.5H335.4z M334.6,132.5h-3.1v1.2h3.1
		V132.5z M331.4,135.6h3.1v-1.3h-3.1V135.6z"/>
</g>
<g>
	<rect x="147.5" y="179.2" class="st4" width="13" height="57.6"/>
	<path d="M153.5,183.6l0,0.5c-1.9,0.1-3.8,0.3-5,0.4c0,0.1-0.1,0.1-0.2,0.2l-0.3-0.8l0.9,0v-1.6l0.9,0.1c0,0.1-0.1,0.1-0.2,0.2v1.4
		l1-0.1v-2h-1.8V180h4.3v1.8h-1.8v0.6h2v0.6h-2v0.7L153.5,183.6z M150.3,190.1c-0.2,0.7-0.6,1.2-1.4,1.6l-0.6-0.5
		c0.7-0.2,1.1-0.8,1.3-1.3L150.3,190.1z M149.6,180.6v0.8h2.8v-0.8H149.6z M151.1,187.7v0.5h8.9v0.5h-8.9v0.5h7.3l0.2,0l0.5,0.1
		l-0.1,0.2c-0.2,1.7-0.4,2.2-1.2,2.2c-0.3,0-0.8,0-1.4,0c0-0.2-0.1-0.4-0.2-0.6l0.1,0c-0.2-0.3-0.5-0.7-0.9-0.9l0.6-0.3
		c0.4,0.3,0.7,0.6,0.9,0.9l-0.6,0.3c0.5,0.1,0.9,0.1,1.1,0.1c0.5,0,0.6-0.3,0.7-1.5h-8v-4.7h2.8c0.2-0.3,0.4-0.6,0.5-0.9l1,0.2
		c0,0.1-0.1,0.1-0.2,0.1c-0.1,0.2-0.2,0.3-0.4,0.5h3.8v2.6H151.1z M156.8,185.6h-5.7v0.5h5.7V185.6z M151.1,187.1h5.7v-0.6h-5.7
		V187.1z M151.7,191.6c0-0.4-0.2-0.9-0.4-1.4l0.7-0.2c0.2,0.4,0.4,1,0.4,1.3L151.7,191.6z M154.1,191.4c-0.1-0.3-0.5-0.9-0.8-1.2
		l0.7-0.2c0.3,0.4,0.6,0.9,0.8,1.2L154.1,191.4z M158.6,180.2l0.5,0.2c0,0.1-0.1,0.1-0.1,0.1c-0.4,0.5-0.8,0.9-1.4,1.3
		c0.9,0.3,1.8,0.5,2.8,0.7c-0.2,0.1-0.3,0.4-0.4,0.6c-0.4-0.1-0.8-0.1-1.1-0.2v1.8h-4v-1.7c-0.3,0.1-0.7,0.2-1,0.2
		c-0.1-0.2-0.2-0.4-0.4-0.6c0.9-0.1,1.9-0.4,2.8-0.7c-0.4-0.2-0.8-0.5-1.1-0.7c-0.3,0.2-0.7,0.4-1.2,0.6c-0.1-0.2-0.3-0.4-0.5-0.4
		c1.1-0.5,1.9-1.1,2.4-1.6l0.8,0.1c0,0.1-0.1,0.1-0.2,0.1c-0.1,0.1-0.2,0.2-0.3,0.3h2.2L158.6,180.2z M158.5,182.7
		c-0.6-0.2-1.1-0.3-1.6-0.6c-0.5,0.2-1,0.4-1.6,0.6H158.5z M158,184.1v-0.8h-2.5v0.8H158z M155.6,180.7c0.3,0.3,0.7,0.5,1.2,0.8
		c0.4-0.2,0.8-0.5,1.1-0.8H155.6z"/>
	<path d="M148.4,227.9c0.8,0.3,1.9,0.9,2.4,1.3l-0.5,0.7c-0.5-0.4-1.6-1-2.4-1.4L148.4,227.9z M148.3,235.6c0.7-1,1.6-2.8,2.4-4.3
		l0.7,0.5c-0.6,1.4-1.5,3-2.1,4.1c0.1,0.1,0.1,0.1,0.1,0.2c0,0.1,0,0.1,0,0.1L148.3,235.6z M149.1,224.4c0.8,0.4,1.9,1,2.4,1.4
		l-0.5,0.7c-0.5-0.5-1.5-1.1-2.4-1.5L149.1,224.4z M159.1,224.9l0.5,0.1c0,0.1,0,0.2,0,0.3c-0.1,3-0.3,4.1-0.6,4.5
		c-0.3,0.3-0.6,0.4-1.5,0.4c-0.3,0-0.7,0-1.1,0c0-0.2-0.1-0.6-0.3-0.8c0.7,0.1,1.4,0.1,1.6,0.1c0.2,0,0.4,0,0.5-0.1
		c0.2-0.2,0.3-1.1,0.5-3.5h-3c-0.4,2-1,3.9-3.7,5c-0.1-0.2-0.4-0.5-0.5-0.7c2.3-0.9,3-2.5,3.3-4.3h-2.6v-0.8h6.7L159.1,224.9z
		 M152.5,236.3v-5.3h6.6v5.2h-0.9v-0.6h-4.8v0.6H152.5z M158.2,231.9h-4.8v3.1h4.8V231.9z"/>
</g>
<g>
	<rect x="323.5" y="299.2" class="st4" width="13" height="57.6"/>
	<path class="st7" d="M331.6,300c0,0.1-0.1,0.1-0.3,0.1c-0.1,0.3-0.2,0.7-0.3,1h5v0.8h-5.3c-0.4,0.8-0.8,1.6-1.2,2.2
		c-0.1-0.2-0.4-0.4-0.6-0.5v3.8h-1.6v2.3h1.9v0.8h-3.9v0.8h-0.8v-10.8h4.7v0.8h-1.9v2h1.6v0.2c0.7-0.9,1.3-2.4,1.7-3.8L331.6,300z
		 M326.4,301.2h-1.2v2h1.2V301.2z M328.1,306.6v-2.5h-2.9v2.5H328.1z M326.4,309.6v-2.3h-1.2v2.3H326.4z M329.4,311.7v-4.6h2.7v4.4
		h-0.7V311h-1.3v0.7H329.4z M331.4,307.9h-1.3v2.4h1.3V307.9z M334.8,303v3.2h-4.5V303H334.8z M334,305.4v-1.7h-2.9v1.7H334z
		 M332.9,311.7v-4.6h2.8v4.4H335V311h-1.4v0.7H332.9z M335,307.9h-1.4v2.4h1.4V307.9z"/>
	<path class="st7" d="M328.1,345.1v8.6h-2.9v1.1h-0.8v-9.7H328.1z M327.3,345.9h-2v3.1h2V345.9z M325.3,352.9h2v-3.1h-2V352.9z
		 M332.6,348.5h3.4v0.8h-7.7v-0.8h3.4v-1.8h-2.8v-0.8h2.8v-1.6l1.1,0.1c0,0.1-0.1,0.2-0.3,0.2v1.4h2.9v0.8h-2.9V348.5z M334.7,349.6
		c0,0.1-0.1,0.2-0.2,0.2v1.1h1.6v0.8h-1.6v3.6c0,0.5-0.1,0.8-0.5,0.9c-0.4,0.1-1.1,0.1-2.1,0.1c0-0.2-0.2-0.6-0.3-0.8
		c0.5,0,1,0,1.3,0c0.7,0,0.8,0,0.8-0.3v-3.6h-5.2v-0.8h5.2v-1.4L334.7,349.6z M331,355c-0.3-0.6-1-1.6-1.7-2.3l0.7-0.4
		c0.7,0.7,1.4,1.6,1.8,2.3L331,355z"/>
</g>
<g>
	<rect x="278.7" y="299.2" class="st4" width="13" height="57.6"/>
	<path class="st7" d="M279.8,300.5h10.8v11.2h-0.9v-0.9h-9v0.9h-0.9V300.5z M280.7,309.9h9v-8.6h-9V309.9z M282.7,303.4h4.9v4.4
		h-4.9V303.4z M286.8,307.1v-2.9h-3.3v2.9H286.8z"/>
	<path class="st7" d="M282,349.5v4.3c1,1.5,2.9,1.5,5.2,1.5c1.4,0,3.1,0,4.1-0.1c-0.1,0.2-0.3,0.6-0.3,0.9c-0.9,0-2.3,0.1-3.6,0.1
		c-2.7,0-4.5,0-5.8-1.6c-0.6,0.6-1.3,1.2-1.9,1.6c0,0.1,0,0.2-0.1,0.2l-0.5-1c0.6-0.4,1.4-1,2.1-1.6v-3.5h-1.9v-0.8H282z
		 M280.1,344.6c0.9,0.6,1.9,1.4,2.3,2.1l-0.7,0.6c-0.4-0.6-1.4-1.5-2.3-2.1L280.1,344.6z M291.1,350.4h-3.5c0.5,1.7,1.7,2.9,3.5,3.4
		c-0.2,0.2-0.4,0.5-0.6,0.7c-1.8-0.6-2.9-1.8-3.5-3.6c-0.4,1.2-1.3,2.5-3.5,3.5c-0.1-0.2-0.4-0.5-0.6-0.7c2.4-1,3.1-2.3,3.4-3.4
		h-3.5v-0.8h3.6c0-0.2,0-0.3,0-0.5v-1.5h-3.2v-0.8h5.2l-0.7-0.3c0.4-0.6,1-1.6,1.3-2.2l1,0.4c0,0.1-0.1,0.1-0.3,0.1
		c-0.3,0.6-0.9,1.5-1.4,2h2.3v0.8h-3.4v1.5c0,0.1,0,0.3,0,0.5h3.8V350.4z M284.9,346.8c-0.2-0.6-0.7-1.5-1.2-2.2l0.7-0.3
		c0.5,0.7,1.1,1.5,1.2,2.1L284.9,346.8z"/>
</g>
<g>
	<rect x="235.5" y="299.2" class="st4" width="13" height="57.6"/>
	<path class="st7" d="M235.9,302.6v-0.7h4.6v0.7H235.9z M240.2,307.2v3.8h-3v0.6h-0.8v-4.4H240.2z M240.2,303.6v0.7h-3.7v-0.7H240.2
		z M236.5,306.1v-0.7h3.7v0.7H236.5z M240.2,300.1v0.7h-3.6v-0.7H240.2z M239.5,307.9h-2.2v2.3h2.2V307.9z M243.2,309.5l1.7-0.4
		l0.1,0.7c-1.4,0.3-2.8,0.7-3.7,0.9c0,0.1-0.1,0.2-0.2,0.2l-0.4-0.9c0.5-0.1,1.1-0.2,1.7-0.4v-3.9H241V305h3.6v0.8h-1.4V309.5z
		 M247.9,303.1h-2.1c0.1,4.1,0.4,7.5,1.3,7.7h0c0.2,0,0.4-0.8,0.4-1.9c0.2,0.2,0.4,0.4,0.6,0.5c-0.2,1.6-0.5,2.3-1.1,2.3
		c-0.1,0-0.2,0-0.3-0.1c-1.4-0.4-1.7-4.1-1.8-8.6h-4.2v-0.8h4.2l0-2.6l1.2,0.1c0,0.1-0.1,0.2-0.3,0.2c0,0.8,0,1.6,0,2.4h2.1V303.1z
		 M246.7,299.7c0.5,0.5,1.1,1.2,1.4,1.7l-0.6,0.4c-0.3-0.5-0.8-1.2-1.4-1.8L246.7,299.7z"/>
	<path class="st7" d="M238.6,327.2v4.3c1,1.5,2.9,1.5,5.4,1.5c1.4,0,3.1,0,4.1-0.1c-0.1,0.2-0.2,0.6-0.3,0.9c-0.9,0-2.3,0.1-3.6,0.1
		c-2.9,0-4.7,0-5.9-1.6c-0.6,0.6-1.2,1.2-1.7,1.6c0,0.1,0,0.2-0.1,0.2l-0.5-0.9c0.6-0.4,1.2-1,1.8-1.5V328H236v-0.8H238.6z
		 M236.8,322.3c0.8,0.6,1.7,1.5,2.1,2.2l-0.7,0.5c-0.4-0.7-1.3-1.6-2.1-2.2L236.8,322.3z M243.1,332.6v-1.4h-3.9v-0.7h3.9v-0.9h-2.9
		V326h2.9v-0.9h-3.4v-0.7h3.4v-1l1.1,0.1c0,0.1-0.1,0.2-0.3,0.2v0.8h3.4v0.7h-3.4v0.9h2.9v3.7h-2.9v0.9h3.9v0.7h-3.9v1.4H243.1z
		 M240.3,323.1v1h-0.8v-1.7h8.1v1.7h-0.8v-1H240.3z M241,326.6v0.9h2.1v-0.9H241z M241,329.1h2.1v-0.9H241V329.1z M246,326.6h-2.1
		v0.9h2.1V326.6z M246,329.1v-0.9h-2.1v0.9H246z"/>
	<path class="st7" d="M241.9,354h-2.6v2.3h-0.8V354H236v-0.8h2.6v-1.1h-2.1v-4.6h2.1v-1h-2.4v-0.8h2.4v-1.5l1.1,0.1
		c0,0.1-0.1,0.2-0.2,0.2v1.2h2.4v0.8h-2.4v1h2.2v4.6h-2.2v1.1h2.6V354z M237.2,348.2v1.3h1.4v-1.3H237.2z M237.2,350.1v1.3h1.4v-1.3
		H237.2z M240.8,349.5v-1.3h-1.5v1.3H240.8z M240.8,351.4v-1.3h-1.5v1.3H240.8z M246.4,351.9c0.8,1.3,1.5,3,1.8,4.1l-0.8,0.3
		c-0.1-0.3-0.2-0.6-0.3-0.9c-1.9,0.2-3.7,0.4-5,0.5c0,0.1-0.1,0.2-0.2,0.2l-0.3-1c0.3,0,0.7,0,1.1-0.1c0.4-1.3,0.8-3.3,1.1-4.8h-1.9
		v-0.8h6.2v0.8h-3.4c-0.3,1.4-0.7,3.3-1.2,4.7c1-0.1,2.2-0.2,3.3-0.2c-0.3-0.8-0.8-1.7-1.2-2.5L246.4,351.9z M247.5,345.2v0.8h-5.1
		v-0.8H247.5z"/>
</g>
<g>
	<rect x="103.5" y="299.2" class="st4" width="13" height="57.6"/>
	<path class="st7" d="M105.7,303.6v-0.2c-0.3,0.3-0.7,0.6-1.1,0.8c-0.1-0.2-0.4-0.5-0.6-0.6c1.7-1.1,3-2.6,3.6-3.9l1.1,0.2
		c0,0.1-0.1,0.2-0.3,0.2c-0.1,0.2-0.3,0.5-0.4,0.7h3.8l0.1-0.1l0.7,0.4c0,0.1-0.1,0.1-0.2,0.1c-0.3,0.5-0.7,1.1-1.1,1.6h2.9v4.6h-5
		c0.8,0.3,1.6,0.8,2.1,1.2l-0.6,0.6c-0.5-0.5-1.5-1.1-2.4-1.4l0.4-0.4h-3.3v-0.8h7.9v-1.2h-7.5v-0.7h7.5v-1.2H105.7z M106.6,308.5
		c-0.3,1.1-0.9,2.1-1.9,2.7l-0.7-0.5c0.9-0.6,1.5-1.5,1.8-2.5L106.6,308.5z M110.3,302.8c0.3-0.4,0.7-0.9,0.9-1.4h-3.8
		c-0.3,0.5-0.7,0.9-1.2,1.4H110.3z M108.3,310.4c0,0.3,0.1,0.4,0.8,0.4h2.3c0.6,0,0.7-0.2,0.7-1.5c0.2,0.1,0.5,0.3,0.8,0.3
		c-0.1,1.6-0.4,2-1.4,2H109c-1.3,0-1.6-0.2-1.6-1.1v-2l1.1,0.1c0,0.1-0.1,0.2-0.2,0.2V310.4z M115.3,311.3c-0.4-0.8-1.5-1.9-2.4-2.7
		l0.7-0.4c0.9,0.8,2,1.9,2.5,2.7L115.3,311.3z"/>
	<path class="st7" d="M107.9,344.7c0,0.1-0.1,0.1-0.3,0.1c-0.8,0.9-2.1,2.2-3.3,3c-0.1-0.2-0.4-0.5-0.5-0.7c1.1-0.7,2.4-1.9,3-2.8
		L107.9,344.7z M106,356.3v-5.7c-0.5,0.5-1,1.1-1.5,1.5c-0.1-0.2-0.4-0.5-0.6-0.7c1.2-1,2.7-2.7,3.6-4.4l1,0.4
		c0,0.1-0.1,0.1-0.3,0.1c-0.4,0.6-0.8,1.3-1.3,1.9l0.2,0.1c0,0.1-0.1,0.1-0.3,0.2v6.6H106z M116,348.9v0.8h-2.1v5.5
		c0,1.1-0.4,1.1-3,1.1c0-0.2-0.2-0.6-0.3-0.9c0.6,0,1.1,0,1.5,0c0.8,0,0.9,0,0.9-0.3v-5.5h-4.5v-0.8H116z M115.5,345.1v0.8H109v-0.8
		H115.5z"/>
</g>
<g>
	<rect x="279.5" y="179.2" class="st4" width="13" height="57.6"/>
	<path d="M288.3,183.9c0,0.2-0.1,0.3-0.1,0.5c2.3,0.4,3.1,1.8,3.1,3.4c0,2.1-1.8,3.3-5,3.7c-0.1-0.2-0.2-0.6-0.4-0.8
		c2.7-0.3,4.4-1.2,4.4-2.9v-0.1c-0.1-1.5-1.1-2.2-2.5-2.5c-0.6,1.5-1.5,2.8-2.6,3.8c0.1,0.3,0.2,0.5,0.3,0.7l-0.8,0.5
		c-0.1-0.2-0.2-0.4-0.3-0.6c-1,0.8-1.9,1-2.5,1c-1,0-1.6-0.8-1.6-1.7c0-1.8,1.5-3.2,3.4-4c0-0.7,0-1.4,0-2.2c-2.2,0-2.4,0-2.9,0
		l0-0.9c0.7,0,1.8,0,2.9,0c0-0.6,0-1.3,0.1-1.9l1.3,0.1c0,0.1-0.1,0.2-0.3,0.3c0,0.5-0.1,1.1-0.1,1.6c1.4,0,3.9-0.2,5.2-0.5l0.1,0.9
		c-1.4,0.3-3.9,0.5-5.4,0.5c0,0.7,0,1.3,0,1.9c0.9-0.3,1.7-0.3,1.9-0.3c0.2,0,0.4,0,0.5,0c0.1-0.2,0.1-0.4,0.1-0.6L288.3,183.9z
		 M284.3,188.8c-0.2-0.8-0.3-1.8-0.4-3c-1.4,0.6-2.5,1.7-2.5,3c0,0.8,0.4,1,0.9,1C282.9,189.7,283.7,189.3,284.3,188.8z M287,185.1
		c-0.2,0-1.2,0-2.2,0.3c0,1.1,0.1,2,0.3,2.7C285.9,187.3,286.6,186.3,287,185.1z"/>
	<path d="M291.2,197.6c-1.2,0.3-2.7,0.6-4.3,0.7c0.5,1.7,1.1,2.8,2.4,3.4l-0.6,0.8c-0.7-0.5-1.5-0.8-2.9-0.9l-0.2-0.8
		c0.6,0.1,1.1,0.1,1.4,0.2c-0.4-0.5-0.8-1.5-1.1-2.7c-0.6,0-1.4,0.1-2.2,0.1c-0.8,0-2.2,0-3.1,0v-0.9c0.8,0,1.9,0,3.1,0
		c0.7,0,1.4,0,1.9-0.1c-0.2-0.7-0.3-1.7-0.4-2.7l1.4,0c0,0.2-0.1,0.2-0.3,0.3c0.1,0.7,0.2,1.5,0.3,2.3c1.5-0.1,3.1-0.4,4.3-0.8
		L291.2,197.6z M288.9,206.2c-0.6,0-1.3,0-2.4,0c-2.7,0-4.6-0.8-4.6-2.6c0-0.7,0.5-1.5,1.2-2.2l0.7,0.5c-0.6,0.5-0.9,1.1-0.9,1.6
		c0,1.3,1.7,1.7,3.7,1.7c1.1,0,1.8,0,2.5-0.1L288.9,206.2z M288.6,194.4c0.6,0.5,1.2,1.2,1.5,1.8l-0.5,0.4c-0.4-0.6-1-1.3-1.5-1.8
		L288.6,194.4z M290.4,194.1c0.6,0.5,1.2,1.2,1.5,1.8l-0.5,0.4c-0.3-0.5-0.9-1.3-1.5-1.8L290.4,194.1z"/>
	<path d="M290.8,213.2c0,0.1-0.2,0.2-0.4,0.2c-0.1,0.9-0.4,1.8-0.6,2.7c0.7,0.3,1.4,0.6,2.2,1l-0.4,0.9c-0.7-0.4-1.4-0.7-2-1
		c-0.6,1.9-1.5,3.2-2.9,4.1c-0.2-0.2-0.5-0.4-0.7-0.5c1.4-0.9,2.2-2.1,2.8-4c-1.3-0.5-2.5-0.9-3.5-1c-0.9,3.3-1.7,4.1-3.3,4.1
		s-1.9-1.2-1.9-2c0-2,2.1-3,4.4-3c0.3-1,0.5-2.3,0.7-3.7c-0.6,0.1-2.7,0.2-3.7,0.3c-0.1,0.1-0.2,0.2-0.3,0.2l-0.1-1.1
		c1.1,0,3.5-0.2,4.3-0.3c0.1,0,0.2-0.1,0.3-0.1l0.8,0.5c-0.1,0.1-0.2,0.2-0.3,0.2c-0.2,1.4-0.5,2.9-0.8,4.1c1,0.1,2.2,0.4,3.5,0.9
		c0.2-0.8,0.4-1.8,0.6-2.8L290.8,213.2z M284.3,215.6c-1.9,0-3.4,0.8-3.4,2.1c0,0.7,0.4,1.2,1,1.2
		C282.9,218.9,283.5,218.6,284.3,215.6z"/>
	<path d="M291.7,229.2l0.5,0.1c-0.2,0.7-0.8,2.4-1.3,3.2c-0.6-0.1-0.6-0.2-0.7-0.2c0.3-0.5,0.6-1.4,0.9-2.2h-1.7v5.2
		c0,1.1-0.5,1.1-2.6,1.1c0-0.2-0.2-0.6-0.3-0.9c0.5,0,1,0,1.3,0c0.6,0,0.7,0,0.7-0.3V230h-2.3v0.3h-2.5v1.5h2.5v0.8h-2.5v1.9
		l2.8-0.4l0,0.7c-2.2,0.4-4.6,0.7-6,1c0,0.1-0.1,0.2-0.2,0.2l-0.3-1c0.8-0.1,1.8-0.2,2.9-0.4v-2h-2.4v-0.8h2.4v-1.5h-2.4v-5.4h5.7
		v4.3h3.7c-0.7-0.7-1.9-1.5-2.9-2.1l0.6-0.5c0.5,0.2,1,0.6,1.5,0.9c0.5-0.5,1.1-1.1,1.5-1.7h-4.1V225h4.7l0.2-0.1l0.7,0.4
		c0,0.1-0.1,0.1-0.2,0.1c-0.5,0.8-1.4,1.8-2.3,2.4c0.4,0.3,0.8,0.7,1.1,1l-0.3,0.4h1.1L291.7,229.2z M281.1,225.7v1.6h1.7v-1.6
		H281.1z M281.1,228v1.6h1.7V228H281.1z M285.3,227.3v-1.6h-1.7v1.6H285.3z M285.3,229.6V228h-1.7v1.6H285.3z"/>
</g>
<g>
	<rect x="235.5" y="179.2" class="st4" width="13" height="57.6"/>
	<path d="M236.2,189.4h11.7v0.9h-11.7V189.4z M237.3,181.6h9.5v0.9h-9.5V181.6z"/>
	<path d="M248,200.5v0.9h-5.5v4.1c0,0.6-0.2,0.9-0.6,1c-0.5,0.1-1.3,0.2-2.6,0.2c-0.1-0.3-0.2-0.6-0.4-0.9c0.7,0,1.3,0,1.8,0
		c0.8,0,0.9,0,0.9-0.3v-4.1H236v-0.9h5.5v-2.1l0.5,0c1-0.5,2.1-1.3,3-2h-7.7v-0.9h8.6l0.2-0.1l0.8,0.5c0,0.1-0.1,0.1-0.2,0.1
		c-1.1,1-2.8,2.2-4.3,3v1.4H248z"/>
	<path d="M242.4,220.1h5.5v0.9h-11.8v-0.9h5.4v-4.3h-4.1v-0.8h4.1v-3.7h-4.7v-0.9h10.5v0.9h-4.9v3.7h4.4v0.8h-4.4V220.1z
		 M246.1,219.4c-0.5-0.7-1.6-1.8-2.5-2.5l0.7-0.5c0.9,0.7,2,1.7,2.5,2.4L246.1,219.4z"/>
	<path d="M237.5,225l1.1,0.1c0,0.1-0.1,0.2-0.3,0.2v4.2c0,2.5-0.2,5-1.9,7c-0.2-0.2-0.5-0.5-0.7-0.6c1.6-1.8,1.7-4.1,1.7-6.4V225z
		 M241.7,225.5l1.1,0.1c0,0.1-0.1,0.2-0.3,0.2v9.4h-0.9V225.5z M246.3,224.9l1.2,0.1c0,0.1-0.1,0.1-0.3,0.2v11.1h-0.9V224.9z"/>
</g>
<g>
	<rect x="191.5" y="179.2" class="st4" width="13" height="57.6"/>
	<path d="M194.9,184.4c0.4,0.5,1.5,2,1.8,2.3l-0.5,0.7c-0.2-0.4-0.8-1.3-1.3-2v6.3h-0.8v-6.4c-0.5,1.5-1.1,3-1.8,3.9
		c-0.1-0.2-0.3-0.6-0.5-0.8c0.9-1.1,1.7-3.2,2.1-5.1h-1.9v-0.8h2v-2.9l1.1,0.1c0,0.1-0.1,0.1-0.3,0.2v2.7h1.7v0.8h-1.7V184.4z
		 M197.8,183.4v1.1c0,2.1-0.2,5.2-1.6,7.3c-0.1-0.2-0.5-0.4-0.7-0.5c1.3-2,1.5-4.7,1.5-6.7v-4.2h6.6v3.1H197.8z M200.8,190.4
		c0,0.4,0.1,0.5,0.5,0.5h1.5c0.4,0,0.4-0.2,0.5-1.4c0.2,0.1,0.5,0.3,0.7,0.3c-0.1,1.4-0.3,1.8-1.1,1.8h-1.7c-1,0-1.2-0.2-1.2-1.2
		v-1.3c-1.4,0.2-1.8,0.3-2.1,0.4c0-0.2-0.1-0.3-0.1-0.7l2.3-0.4v-1.3l-1.8,0.3l-0.1-0.7l1.9-0.3v-1.2c-0.6,0.1-1.2,0.3-1.7,0.4
		c0-0.2-0.2-0.4-0.3-0.6c1.5-0.3,3.3-0.8,4.2-1.3l0.8,0.6c0,0.1-0.1,0.1-0.2,0.1c-0.5,0.2-1.2,0.5-2,0.7v1.3l2.6-0.4l0.1,0.7
		l-2.7,0.5v1.3l3.1-0.5l0.1,0.7l-3.2,0.5V190.4z M202.8,181h-4.9v1.6h4.9V181z"/>
	<path d="M197,202.6c0,0.2-0.2,0.2-0.4,0.2c-0.1,0.7-0.4,2-0.5,2.8c0.6-0.1,1.1-0.1,1.4-0.1c2,0,2.7,1.3,2.7,3.2
		c0,1-0.2,2.1-0.4,2.9c-0.4,1.3-1.2,2-2.3,2c-0.5,0-1.2-0.2-2.4-1.1c0.1-0.2,0.2-0.5,0.4-0.8c1,0.8,1.6,1,2,1c0.7,0,1.2-0.5,1.4-1.3
		c0.3-0.8,0.4-2,0.4-2.7c0-1.5-0.5-2.4-1.8-2.4c-0.4,0-0.9,0.1-1.6,0.1c-0.7,2.7-1.4,4.9-2.7,7l-0.9-0.4c1.3-2,2-4,2.6-6.5
		c-0.7,0.1-1.6,0.2-2.3,0.3l-0.1-0.9c0.6-0.1,1.7-0.2,2.6-0.3c0.2-0.9,0.4-2.1,0.6-3.3L197,202.6z M200,202.2
		c0.6,0.5,1.4,1.3,1.7,1.8l-0.5,0.4c-0.4-0.6-1.1-1.4-1.7-1.8L200,202.2z M202.9,209.8c-0.4-1.9-1.5-3.4-2.7-4.4l0.8-0.5
		c1.3,1.1,2.4,2.7,2.8,4.6L202.9,209.8z M202,201.7c0.6,0.5,1.4,1.2,1.8,1.8l-0.5,0.4c-0.4-0.6-1.1-1.4-1.7-1.8L202,201.7z"/>
	<path d="M194.4,231.3c-0.6,0.4-1.2,0.9-1.9,1.2c-0.1-0.2-0.3-0.5-0.5-0.7c2.3-1.2,4.5-3.3,5.5-5.1l1.2,0.1c0,0.1-0.1,0.2-0.3,0.2
		c1.3,1.8,3.6,3.7,5.6,4.7c-0.2,0.2-0.4,0.5-0.6,0.8c-0.6-0.3-1.2-0.7-1.8-1.1v5h-0.9v-0.5h-5.6v0.6h-0.9V231.3z M196.8,225
		c0,0.1-0.2,0.1-0.3,0.1c-0.9,1.2-2.2,2.4-3.4,3.2c-0.2-0.2-0.5-0.4-0.6-0.6c1.2-0.7,2.5-1.9,3.4-3.1L196.8,225z M201.4,231.1
		c-1.4-1-2.7-2.3-3.5-3.5c-0.7,1.1-1.9,2.4-3.3,3.5H201.4z M195.2,235h5.6v-3.1h-5.6V235z M199.9,224.5c1.3,0.9,2.8,2.2,3.6,3.1
		l-0.7,0.5c-0.7-0.9-2.2-2.2-3.5-3.2L199.9,224.5z"/>
</g>
<g>
	<rect x="279.5" y="86.2" class="st4" width="13" height="57.6"/>
	<path d="M286.7,86.9c0,0.1-0.1,0.1-0.3,0.1c-0.1,0.4-0.4,1-0.6,1.5h4.7v10.2h-0.9V98h-7.1v0.8h-0.9V88.5h3.2
		c0.2-0.6,0.5-1.3,0.6-1.8L286.7,86.9z M289.6,89.3h-7.1v2.1h7.1V89.3z M289.6,92.2h-7.1v2.1h7.1V92.2z M282.5,97.2h7.1v-2.1h-7.1
		V97.2z"/>
	<path d="M286.4,104.1h4.7v9.5h-0.9v-0.8h-8.5v0.8h-0.9v-9.5h4.7v-2.6l1.1,0.1c0,0.1-0.1,0.2-0.2,0.2V104.1z M285.5,105h-3.8v3h3.8
		V105z M281.7,108.8v3.1h3.8v-3.1H281.7z M290.2,105h-3.8v3h3.8V105z M286.4,111.9h3.8v-3.1h-3.8V111.9z"/>
	<path d="M285,117c0,0.2-0.2,0.2-0.4,0.2c-0.1,0.7-0.4,2-0.5,2.8c0.6-0.1,1.1-0.1,1.4-0.1c2,0,2.7,1.3,2.7,3.2c0,1-0.2,2.1-0.4,2.9
		c-0.4,1.3-1.2,2-2.3,2c-0.5,0-1.2-0.2-2.4-1.1c0.1-0.2,0.2-0.5,0.4-0.8c1,0.8,1.6,1,2,1c0.7,0,1.2-0.5,1.4-1.3
		c0.3-0.8,0.4-2,0.4-2.7c0-1.5-0.5-2.4-1.8-2.4c-0.4,0-0.9,0.1-1.6,0.1c-0.7,2.7-1.4,4.9-2.7,7l-0.9-0.4c1.3-2,2-4,2.6-6.5
		c-0.7,0.1-1.6,0.2-2.3,0.3l-0.1-0.9c0.6-0.1,1.7-0.2,2.6-0.3c0.2-0.9,0.4-2.1,0.6-3.3L285,117z M288,116.6c0.6,0.5,1.4,1.3,1.7,1.8
		l-0.5,0.4c-0.4-0.6-1.1-1.4-1.7-1.8L288,116.6z M290.9,124.2c-0.4-1.9-1.5-3.4-2.7-4.4l0.8-0.5c1.3,1.1,2.4,2.7,2.8,4.6
		L290.9,124.2z M290,116.1c0.6,0.5,1.4,1.2,1.8,1.8l-0.5,0.4c-0.4-0.6-1.1-1.4-1.7-1.8L290,116.1z"/>
	<path d="M288.8,141.9h3.2v0.9h-11.8v-0.9h2.1v-9.2l0.8,0.2c2.4-0.3,5-0.8,6.5-1.4l0.8,0.8c0,0-0.1,0.1-0.2,0.1c0,0-0.1,0-0.1,0
		c-1.7,0.6-4.4,1.1-6.9,1.4v2.3h8.2v0.9h-2.5V141.9z M283.1,136.9v5h4.8v-5H283.1z"/>
</g>
<rect x="58" y="609" class="st3" width="16" height="68"/>
<rect x="102" y="608" class="st3" width="16" height="68"/>
<rect x="190" y="609" class="st3" width="16" height="68"/>
<rect x="146" y="609" class="st3" width="16" height="68"/>
<g>
	<rect x="103.5" y="614.2" class="st4" width="13" height="57.6"/>
	<path d="M109.5,620.6v-3.1h-4.3v1.9h-0.8v-2.5h5.1v-0.9h-4.3v-0.7h9.6v0.7h-4.4v0.9h5.2v2.5h-0.8v-1.9h-4.3v3.1H109.5z
		 M110.3,625.4c0,0.4,0.2,0.5,1,0.5h3c0.7,0,0.8-0.2,0.9-1.6c0.2,0.1,0.5,0.2,0.8,0.3c-0.1,1.6-0.4,2-1.6,2h-3.1
		c-1.4,0-1.8-0.2-1.8-1.3v-0.5h-3.1v0.7h-0.8V621h8.9v3.9h-4.2V625.4z M105.7,620.2v-0.6h3.1v0.6H105.7z M106,618.2h2.8v0.6H106
		V618.2z M109.5,621.7h-3.1v1h3.1V621.7z M106.4,624.2h3.1v-1h-3.1V624.2z M113.6,622.6v-1h-3.3v1H113.6z M110.3,624.2h3.3v-1h-3.3
		V624.2z M111.1,618.2h2.9v0.6h-2.9V618.2z M111.1,620.2v-0.6h3.2v0.6H111.1z"/>
	<path d="M107,639.6c0.7-0.1,1.4-0.2,2.1-0.3l0.1,0.7c-1.7,0.3-3.6,0.6-4.7,0.8c0,0.1-0.1,0.2-0.2,0.2l-0.3-1l2.3-0.3v-3.8h-2.1
		v-0.8h2.1v-1.5h-1.4v-0.3c-0.1,0.2-0.3,0.3-0.4,0.4c-0.1-0.2-0.4-0.5-0.6-0.6c1.1-1.1,2-2.6,2.5-3.7l1.1,0.2c0,0.1-0.1,0.2-0.3,0.2
		l0,0.1c0.8,0.7,1.7,1.6,2.2,2.1l-0.5,0.7c-0.4-0.6-1.3-1.4-2.1-2.1c-0.4,0.7-0.8,1.5-1.4,2.2h3.3v0.8H107v1.5h1.9v0.8H107V639.6z
		 M105,639.1c0-0.7-0.3-1.7-0.6-2.5l0.6-0.2c0.3,0.8,0.5,1.8,0.6,2.4L105,639.1z M109,636.7c0,0.1-0.1,0.1-0.3,0.1
		c-0.2,0.6-0.4,1.6-0.7,2.2l-0.6-0.2c0.2-0.6,0.5-1.7,0.6-2.4L109,636.7z M116,636.3h-2.8c0.5,2.1,1.5,3.8,3,4.6
		c-0.2,0.2-0.5,0.5-0.6,0.7c-1.4-0.9-2.4-2.5-3-4.6c-0.5,1.7-1.5,3.3-3.7,4.6c-0.1-0.2-0.4-0.5-0.6-0.7c2.4-1.2,3.3-3,3.6-4.6h-2.9
		v-0.8h3c0.1-0.6,0.1-1.2,0.1-1.8v-0.8h-1.5c-0.2,0.8-0.5,1.5-0.8,2c-0.2-0.1-0.5-0.3-0.7-0.4c0.6-1,1-2.7,1.3-4.4l1,0.2
		c0,0.1-0.1,0.1-0.3,0.1c-0.1,0.5-0.2,1.1-0.3,1.6h1.3v-2.5l1.1,0.1c0,0.1-0.1,0.2-0.3,0.2v2.3h2.5v0.8H113v0.8c0,0.6,0,1.2-0.1,1.8
		h3.1V636.3z"/>
	<path d="M106.5,654.1c-0.3,0.9-0.9,1.9-1.6,2.4l-0.8-0.4c0.7-0.5,1.3-1.4,1.6-2.2L106.5,654.1z M115.9,652.7v0.8h-11.7v-0.8h5.4
		v-1.2h-4.3v-0.7h4.3v-1h-3.9v-4.9h8.9v4.9h-4.1v1h4.5v0.7h-4.5v1.2H115.9z M106.4,645.6v1.4h3.1v-1.4H106.4z M106.4,649h3.1v-1.4
		h-3.1V649z M108.2,656.4c0-0.5-0.1-1.5-0.2-2.2l0.8-0.1c0.2,0.7,0.3,1.6,0.3,2.1L108.2,656.4z M113.6,647v-1.4h-3.2v1.4H113.6z
		 M113.6,649v-1.4h-3.2v1.4H113.6z M111.4,656.4c-0.1-0.5-0.4-1.4-0.7-2.1l0.8-0.2c0.3,0.7,0.6,1.5,0.8,2.1L111.4,656.4z
		 M115.1,656.5c-0.3-0.6-1.1-1.6-1.7-2.3l0.8-0.3c0.6,0.7,1.4,1.6,1.8,2.2L115.1,656.5z"/>
	<path d="M108.1,664.3c0.3-0.7,0.6-1.8,0.8-2.5l1,0.3c0,0.1-0.1,0.1-0.3,0.1c-0.2,0.6-0.5,1.6-0.8,2.2h1.9v0.8H104v-0.8h4.6
		L108.1,664.3z M110.6,660.8v0.8h-6.3v-0.8h2.7v-1.5l1.1,0.1c0,0.1-0.1,0.2-0.3,0.2v1.3H110.6z M104.9,671.4v-4.9h5.1v4.9h-0.8v-0.7
		h-3.5v0.7H104.9z M105.9,661.9c0.3,0.7,0.5,1.5,0.6,2.1l-0.8,0.2c-0.1-0.6-0.3-1.5-0.6-2.1L105.9,661.9z M109.2,667.2h-3.5v2.6h3.5
		V667.2z M115.5,660l0.6,0.3c0,0.1-0.1,0.1-0.1,0.1c-0.5,1.1-1.2,2.5-1.9,3.9c1.4,1.3,2,2.3,2,3.2c0,2-1.4,2-2.3,2
		c-0.2,0-0.4,0-0.6,0c0-0.2-0.1-0.6-0.3-0.9c0.3,0,0.6,0,0.8,0c0.9,0,1.5,0,1.5-1.2c0-0.8-0.6-1.8-2.1-3.1c0.6-1.3,1.2-2.5,1.6-3.6
		h-2.6v10.5h-0.8V660h4L115.5,660z"/>
</g>
<g>
	<rect x="147.5" y="614.2" class="st4" width="13" height="57.6"/>
	<path d="M148.1,625.3h11.8v0.9h-11.8V625.3z M159.5,617.3v0.9h-11v-0.9h5v-2.7l1.2,0.1c0,0.1-0.1,0.2-0.3,0.2v2.4H159.5z
		 M151.1,618.9c0.7,1.8,1.1,4,1.2,5.5c-0.1,0-0.2,0-0.9,0.2c-0.1-1.5-0.5-3.7-1.2-5.5L151.1,618.9z M158,619.1
		c0,0.1-0.2,0.2-0.3,0.2c-0.4,1.7-1.1,4.3-1.7,5.7l-0.8-0.2c0.6-1.5,1.2-4.1,1.6-5.9L158,619.1z"/>
	<path d="M158.3,636.4l1.2,0.1c0,0.1-0.1,0.2-0.3,0.2v8.5h-0.9v-1.1h-8.6v1.1h-0.9v-8.8l1.1,0.1c0,0.1-0.1,0.2-0.3,0.2v6.5h3.8v-9.7
		l1.2,0.1c0,0.1-0.1,0.2-0.3,0.2v9.4h3.9V636.4z"/>
	<path d="M155.3,652.3c0,0.7-0.6,1.3-1.3,1.3c-0.7,0-1.3-0.6-1.3-1.3c0-0.7,0.6-1.3,1.3-1.3C154.8,651,155.3,651.6,155.3,652.3z"/>
	<path d="M154.4,663.5h5.5v0.8h-11.8v-0.8h5.4v-1.8h-4.3v-0.8h4.3v-1.6l1.2,0.1c0,0.1-0.1,0.2-0.3,0.2v1.4h4.6v0.8h-4.6V663.5z
		 M157.1,664.5c0,0.1-0.1,0.2-0.3,0.2v1.4h2.9v0.8h-2.9v3.2c0,1.1-0.6,1.1-3,1.1c0-0.2-0.2-0.6-0.3-0.9c0.5,0,0.9,0,1.3,0
		c1.1,0,1.1,0,1.1-0.3V667h-7.6v-0.8h7.6v-1.7L157.1,664.5z M152.1,670.1c-0.4-0.7-1.2-1.7-2-2.3l0.8-0.5c0.8,0.7,1.7,1.6,2.1,2.3
		L152.1,670.1z"/>
</g>
<rect x="58" y="423" class="st3" width="16" height="68"/>
<rect x="146" y="294" class="st3" width="16" height="68"/>
<rect x="277" y="423" class="st3" width="16" height="68"/>
<rect x="234" y="423" class="st3" width="16" height="68"/>
<rect x="190" y="423" class="st3" width="16" height="68"/>
<rect x="146" y="423" class="st3" width="16" height="68"/>
<rect x="102" y="423" class="st3" width="16" height="68"/>
<rect x="58" y="294" class="st3" width="16" height="68"/>
<rect x="366" y="294" class="st3" width="16" height="68"/>
<rect x="190" y="294" class="st3" width="16" height="68"/>
<g>
	<rect x="59.5" y="306.7" class="st4" width="13" height="42.8"/>
	<path d="M67.7,312.5h4.2v0.7H60.1v-0.7h4.1v-2.7h-3.4V309h2.6c-0.2-0.5-0.7-1.1-1.1-1.5l0.7-0.4c0.5,0.5,1,1.2,1.2,1.8l-0.2,0.1
		h3.5l-0.2-0.1c0.4-0.5,0.9-1.3,1.1-1.8l1,0.4c0,0.1-0.1,0.1-0.3,0.1c-0.2,0.4-0.6,0.9-1,1.4h2.9v0.7h-3.6V312.5z M62.6,312.4
		c-0.2-0.6-0.6-1.5-1.1-2.1l0.7-0.3c0.5,0.6,0.9,1.5,1.1,2L62.6,312.4z M62.2,319.3v-5.2h7.7v5.1H69v-0.4H63v0.5H62.2z M69,314.8H63
		v1.3H69V314.8z M63,318.1H69v-1.3H63V318.1z M65,309.8v2.7h1.8v-2.7H65z M70.7,310.3c-0.1,0.1-0.1,0.1-0.3,0.1
		c-0.3,0.6-0.9,1.4-1.3,2l-0.6-0.3c0.4-0.6,0.9-1.5,1.2-2.2L70.7,310.3z"/>
	<path d="M62.8,342.2v4.3c1,1.5,2.8,1.5,5.3,1.5c1.4,0,3.1,0,4.1-0.1c-0.1,0.2-0.2,0.6-0.3,0.9c-0.9,0-2.3,0.1-3.6,0.1
		c-2.8,0-4.6,0-5.9-1.6c-0.7,0.6-1.4,1.2-2,1.6c0,0.1,0,0.2-0.1,0.2l-0.5-0.9c0.6-0.4,1.4-1,2.1-1.6V343h-2v-0.8H62.8z M60.8,337.3
		c0.8,0.6,1.8,1.5,2.2,2.2l-0.6,0.6c-0.4-0.7-1.4-1.6-2.2-2.2L60.8,337.3z M68.1,340.3c-0.8-0.4-1.8-0.8-2.7-1.2l0.6-0.5
		c0.6,0.2,1.2,0.5,1.9,0.8c0.7-0.3,1.4-0.7,2-1.1h-5.7v-0.7h6.6l0.1,0l0.7,0.4c0,0.1-0.1,0.1-0.2,0.1c-0.7,0.6-1.7,1.2-2.7,1.7
		c0.4,0.2,0.8,0.4,1.1,0.5h1.7v5.9c0,0.9-0.3,0.9-2.2,0.9c0-0.2-0.1-0.5-0.2-0.7c0.4,0,0.7,0,1,0c0.6,0,0.6,0,0.6-0.2v-1.3h-2.4v2.2
		h-0.8v-2.2H65v2.2h-0.8v-6.8H68.1z M67.4,341H65v1.2h2.4V341z M65,344.2h2.4v-1.3H65V344.2z M70.6,342.2V341h-2.4v1.2H70.6z
		 M68.2,344.2h2.4v-1.3h-2.4V344.2z"/>
</g>
<g>
	<rect x="235.5" y="428.2" class="st4" width="13" height="57.6"/>
	<path d="M247.9,434.3h-7.1c-0.3,0.6-0.7,1.2-1.2,1.8h7.4v4.6h-0.9v-0.5h-6.5v0.6h-0.9v-3.6c-0.7,0.7-1.5,1.4-2.4,1.9
		c-0.1-0.2-0.4-0.5-0.6-0.7c1.7-0.9,3.2-2.5,4-4h-3.6v-0.8h11.7V434.3z M247.2,429.3c0,0.1-0.1,0.2-0.3,0.2v2.7h-9.8v-2.9l1.1,0.1
		c0,0.1-0.1,0.2-0.3,0.2v1.8h3.5v-2.7l1.2,0.1c0,0.1-0.1,0.2-0.3,0.2v2.5h3.6v-2.1L247.2,429.3z M246.1,439.4v-2.5h-6.5v2.5H246.1z"
		/>
	<path d="M240.4,457.4h-0.7v-0.8h-2.7v1.4h-0.7v-8.1l0.9,0.1c0,0.1-0.1,0.1-0.2,0.2v5.7h0.9v-8.5l1,0.1c0,0.1-0.1,0.1-0.2,0.2v8.2h1
		v-6l0.9,0.1c0,0.1-0.1,0.1-0.2,0.2V457.4z M246.3,451.7c0,0.1-0.1,0.1-0.2,0.2v2h2v0.8h-2v4.6h-0.8v-4.6h-2
		c-0.1,1.6-0.7,3.3-2.8,4.6c-0.1-0.2-0.4-0.5-0.6-0.6c2-1.1,2.5-2.6,2.6-4h-1.7v-0.8h1.8v-2.2l1,0.1c0,0.1-0.1,0.1-0.2,0.2v1.9h2
		v-2.2L246.3,451.7z M247.5,452c-0.1-0.3-0.3-0.6-0.6-0.9c-2.1,0.2-4.3,0.3-5.7,0.4c0,0.1-0.1,0.2-0.2,0.2l-0.3-1c0.4,0,0.8,0,1.2,0
		c0.6-1,1.2-2.4,1.6-3.4l1,0.3c0,0.1-0.1,0.1-0.3,0.1c-0.4,0.9-0.9,2-1.5,2.9c1.1,0,2.3-0.1,3.6-0.1c-0.4-0.5-0.8-0.9-1.2-1.3
		l0.6-0.4c0.9,0.8,1.9,2,2.3,2.8L247.5,452z"/>
	<path d="M243.3,466.3c0,0.7-0.6,1.3-1.3,1.3s-1.3-0.6-1.3-1.3c0-0.7,0.6-1.3,1.3-1.3C242.8,465,243.3,465.6,243.3,466.3z"/>
	<path d="M242.4,477.5h5.5v0.8h-11.8v-0.8h5.4v-1.8h-4.3v-0.8h4.3v-1.6l1.2,0.1c0,0.1-0.1,0.2-0.3,0.2v1.4h4.5v0.8h-4.5V477.5z
		 M245.1,478.5c0,0.1-0.1,0.2-0.3,0.2v1.4h2.9v0.8h-2.9v3.2c0,1.1-0.6,1.1-3,1.1c0-0.2-0.2-0.6-0.3-0.9c0.5,0,0.9,0,1.3,0
		c1.1,0,1.1,0,1.1-0.3V481h-7.6v-0.8h7.6v-1.7L245.1,478.5z M240.1,484.1c-0.4-0.7-1.2-1.7-2-2.3l0.8-0.5c0.8,0.7,1.7,1.6,2.1,2.3
		L240.1,484.1z"/>
</g>
<g>
	<rect x="191.5" y="428.2" class="st4" width="13" height="57.6"/>
	<path d="M203.9,434.3h-7.1c-0.3,0.6-0.7,1.2-1.2,1.8h7.4v4.6h-0.9v-0.5h-6.5v0.6h-0.9v-3.6c-0.7,0.7-1.5,1.4-2.4,1.9
		c-0.1-0.2-0.4-0.5-0.6-0.7c1.7-0.9,3.2-2.5,4-4h-3.6v-0.8h11.7V434.3z M203.2,429.3c0,0.1-0.1,0.2-0.3,0.2v2.7h-9.8v-2.9l1.1,0.1
		c0,0.1-0.1,0.2-0.3,0.2v1.8h3.5v-2.7l1.2,0.1c0,0.1-0.1,0.2-0.3,0.2v2.5h3.6v-2.1L203.2,429.3z M202.1,439.4v-2.5h-6.5v2.5H202.1z"
		/>
	<path d="M196.4,457.4h-0.7v-0.8h-2.7v1.4h-0.7v-8.1l0.9,0.1c0,0.1-0.1,0.1-0.2,0.2v5.7h0.9v-8.5l1,0.1c0,0.1-0.1,0.1-0.2,0.2v8.2h1
		v-6l0.9,0.1c0,0.1-0.1,0.1-0.2,0.2V457.4z M202.3,451.7c0,0.1-0.1,0.1-0.2,0.2v2h2v0.8h-2v4.6h-0.8v-4.6h-2
		c-0.1,1.6-0.7,3.3-2.8,4.6c-0.1-0.2-0.4-0.5-0.6-0.6c2-1.1,2.5-2.6,2.6-4h-1.7v-0.8h1.8v-2.2l1,0.1c0,0.1-0.1,0.1-0.2,0.2v1.9h2
		v-2.2L202.3,451.7z M203.5,452c-0.1-0.3-0.3-0.6-0.6-0.9c-2.1,0.2-4.3,0.3-5.7,0.4c0,0.1-0.1,0.2-0.2,0.2l-0.3-1c0.4,0,0.8,0,1.2,0
		c0.6-1,1.2-2.4,1.6-3.4l1,0.3c0,0.1-0.1,0.1-0.3,0.1c-0.4,0.9-0.9,2-1.5,2.9c1.1,0,2.3-0.1,3.6-0.1c-0.4-0.5-0.8-0.9-1.2-1.3
		l0.6-0.4c0.9,0.8,1.9,2,2.3,2.8L203.5,452z"/>
	<path d="M199.3,466.3c0,0.7-0.6,1.3-1.3,1.3c-0.7,0-1.3-0.6-1.3-1.3c0-0.7,0.6-1.3,1.3-1.3C198.8,465,199.3,465.6,199.3,466.3z"/>
	<path d="M203.8,475.6h-5.4v1.4h4.7v7.3c0,0.5-0.1,0.8-0.5,0.9c-0.4,0.1-1.2,0.1-2.2,0.1c-0.1-0.2-0.2-0.6-0.3-0.8
		c0.4,0,0.9,0,1.2,0c1,0,1,0,1-0.3v-6.5h-8.4v7.5h-0.9V477h4.6v-1.4h-5.3v-0.8h5.3v-1.5l1.2,0.1c0,0.1-0.1,0.2-0.3,0.2v1.2h5.4
		V475.6z M201.4,482.8h-3v2.5h-0.8v-2.5h-2.9V482h2.9v-1.4h-2.7v-0.7h1.4c-0.1-0.4-0.4-1.1-0.7-1.5l0.7-0.2c0.3,0.5,0.6,1.1,0.8,1.5
		l-0.7,0.2h2.9c-0.2-0.1-0.4-0.2-0.5-0.2c0.3-0.4,0.6-1.1,0.8-1.6l0.9,0.3c0,0.1-0.1,0.1-0.3,0.1c-0.2,0.4-0.5,1-0.8,1.4h1.8v0.7
		h-2.9v1.4h3V482.8z"/>
</g>
<g>
	<rect x="147.5" y="428.2" class="st4" width="13" height="57.6"/>
	<path d="M153.5,434.6v-3.1h-4.3v1.9h-0.8v-2.5h5.1v-0.9h-4.3v-0.7h9.6v0.7h-4.4v0.9h5.2v2.5h-0.8v-1.9h-4.3v3.1H153.5z
		 M154.3,439.4c0,0.4,0.2,0.5,1,0.5h3c0.7,0,0.8-0.2,0.9-1.6c0.2,0.1,0.5,0.2,0.8,0.3c-0.1,1.6-0.4,2-1.6,2h-3.1
		c-1.4,0-1.8-0.2-1.8-1.3v-0.5h-3.1v0.7h-0.8V435h8.9v3.9h-4.2V439.4z M149.7,434.2v-0.6h3.1v0.6H149.7z M150,432.2h2.8v0.6H150
		V432.2z M153.5,435.7h-3.1v1h3.1V435.7z M150.4,438.2h3.1v-1h-3.1V438.2z M157.6,436.6v-1h-3.3v1H157.6z M154.3,438.2h3.3v-1h-3.3
		V438.2z M155.1,432.2h2.9v0.6h-2.9V432.2z M155.1,434.2v-0.6h3.2v0.6H155.1z"/>
	<path d="M151,453.6c0.7-0.1,1.4-0.2,2.1-0.3l0.1,0.7c-1.7,0.3-3.6,0.6-4.7,0.8c0,0.1-0.1,0.2-0.2,0.2l-0.3-1l2.3-0.3v-3.8h-2.1
		v-0.8h2.1v-1.5h-1.4v-0.3c-0.1,0.2-0.3,0.3-0.4,0.4c-0.1-0.2-0.4-0.5-0.6-0.6c1.1-1.1,2-2.6,2.5-3.7l1.1,0.2c0,0.1-0.1,0.2-0.3,0.2
		l0,0.1c0.8,0.7,1.7,1.6,2.2,2.1l-0.5,0.7c-0.4-0.6-1.3-1.4-2.1-2.1c-0.4,0.7-0.8,1.5-1.4,2.2h3.3v0.8H151v1.5h1.9v0.8H151V453.6z
		 M149,453.1c0-0.7-0.3-1.7-0.6-2.5l0.6-0.2c0.3,0.8,0.5,1.8,0.6,2.4L149,453.1z M153,450.7c0,0.1-0.1,0.1-0.3,0.1
		c-0.2,0.6-0.4,1.6-0.7,2.2l-0.6-0.2c0.2-0.6,0.5-1.7,0.6-2.4L153,450.7z M160,450.3h-2.8c0.5,2.1,1.5,3.8,3,4.6
		c-0.2,0.2-0.5,0.5-0.6,0.7c-1.4-0.9-2.4-2.5-3-4.6c-0.5,1.7-1.5,3.3-3.7,4.6c-0.1-0.2-0.4-0.5-0.6-0.7c2.4-1.2,3.3-3,3.6-4.6h-2.9
		v-0.8h3c0.1-0.6,0.1-1.2,0.1-1.8v-0.8h-1.5c-0.2,0.8-0.5,1.5-0.8,2c-0.2-0.1-0.5-0.3-0.7-0.4c0.6-1,1-2.7,1.3-4.4l1,0.2
		c0,0.1-0.1,0.1-0.3,0.1c-0.1,0.5-0.2,1.1-0.3,1.6h1.3v-2.5l1.1,0.1c0,0.1-0.1,0.2-0.3,0.2v2.3h2.5v0.8H157v0.8c0,0.6,0,1.2-0.1,1.8
		h3.1V450.3z"/>
	<path d="M154.4,459.7h5v2.4h-0.9v-1.7h-9.2v1.7h-0.8v-2.4h5v-1.3l1.2,0.1c0,0.1-0.1,0.2-0.3,0.2V459.7z M149.5,470.5v-4.6h9v4.5
		h-0.9V470h-7.3v0.4H149.5z M153.5,466.6h-3.2v1.1h3.2V466.6z M150.3,469.4h3.2v-1.1h-3.2V469.4z M157.6,461.3v0.7h-7.2v-0.7H157.6z
		 M157.4,465.1h-6.9v-2.4h6.9V465.1z M151.3,463.3v1.1h5.2v-1.1H151.3z M157.6,467.7v-1.1h-3.3v1.1H157.6z M154.4,469.4h3.3v-1.1
		h-3.3V469.4z"/>
	<path d="M158.3,476.4l1.2,0.1c0,0.1-0.1,0.2-0.3,0.2v8.5h-0.9v-1.1h-8.6v1.1h-0.9v-8.8l1.1,0.1c0,0.1-0.1,0.2-0.3,0.2v6.5h3.8v-9.7
		l1.2,0.1c0,0.1-0.1,0.2-0.3,0.2v9.4h3.9V476.4z"/>
</g>
<g>
	<rect x="147.5" y="306.5" class="st4" width="13" height="42.8"/>
	<path d="M158.3,312.2c0,0.1-0.1,0.2-0.3,0.2v1.3h1.8v0.8H158v3.6c0,0.5-0.1,0.8-0.5,0.9c-0.4,0.1-1,0.1-2.1,0.1
		c0-0.2-0.2-0.6-0.3-0.8c0.5,0,0.9,0,1.2,0c0.7,0,0.8,0,0.8-0.3v-3.6h-4.6v-0.5l-1.5,0.4v4.7h-0.8v-4.5l-1.7,0.5
		c0,0.1-0.1,0.2-0.2,0.2l-0.4-1c0.6-0.1,1.4-0.3,2.3-0.5v-3.2h-1.2c-0.1,0.8-0.3,1.5-0.5,2.1c-0.1-0.1-0.4-0.3-0.6-0.4
		c0.4-1,0.6-2.8,0.8-4.5l1,0.2c0,0.1-0.1,0.1-0.3,0.1c-0.1,0.5-0.1,1.1-0.2,1.7h1V307l1.1,0.1c0,0.1-0.1,0.2-0.3,0.2v2.5h1.7v0.8
		h-1.7v3c0.6-0.1,1.2-0.3,1.7-0.4l0.1,0.5h4.4v-1.5L158.3,312.2z M156.5,311.1h3.5v0.8h-7.7v-0.8h3.3v-1.7h-2.6v-0.8h2.6V307
		l1.1,0.1c0,0.1-0.1,0.2-0.2,0.2v1.3h2.8v0.8h-2.8V311.1z M154.7,317.5c-0.3-0.6-0.9-1.5-1.6-2.2l0.7-0.4c0.6,0.6,1.3,1.5,1.6,2.1
		L154.7,317.5z"/>
	<path d="M149.7,340.7v-0.2c-0.3,0.3-0.7,0.6-1.1,0.8c-0.1-0.2-0.4-0.5-0.6-0.6c1.7-1.1,3-2.6,3.6-3.9l1.1,0.2
		c0,0.1-0.1,0.2-0.3,0.2c-0.1,0.2-0.3,0.5-0.4,0.7h3.8l0.1-0.1l0.7,0.4c0,0.1-0.1,0.1-0.2,0.1c-0.3,0.5-0.7,1.1-1.1,1.6h2.9v4.6h-5
		c0.8,0.3,1.6,0.8,2.1,1.2l-0.6,0.6c-0.5-0.5-1.5-1.1-2.4-1.4l0.4-0.4h-3.3v-0.8h7.9v-1.2h-7.5v-0.7h7.5v-1.2H149.7z M150.6,345.6
		c-0.3,1.1-0.9,2.1-1.9,2.7l-0.7-0.5c0.9-0.6,1.5-1.5,1.8-2.5L150.6,345.6z M154.3,339.9c0.3-0.4,0.7-0.9,0.9-1.4h-3.8
		c-0.3,0.5-0.7,0.9-1.2,1.4H154.3z M152.3,347.5c0,0.3,0.1,0.4,0.8,0.4h2.3c0.6,0,0.7-0.2,0.7-1.5c0.2,0.1,0.5,0.3,0.8,0.3
		c-0.1,1.6-0.4,2-1.4,2H153c-1.3,0-1.6-0.2-1.6-1.1v-2l1.1,0.1c0,0.1-0.1,0.2-0.2,0.2V347.5z M159.3,348.4c-0.4-0.8-1.5-1.9-2.4-2.7
		l0.7-0.4c0.9,0.8,2,1.9,2.5,2.7L159.3,348.4z"/>
</g>
<g>
	<rect x="191.5" y="621.6" class="st4" width="13" height="42.8"/>
	<path d="M203.9,623.8h-4.2v2h3.5v8.2h-0.9v-0.8h-8.7v0.8h-0.8v-8.3h3.1v-2h-3.8V623h11.8V623.8z M202.4,632.5v-5.8h-2.7v2.5
		c0,0.3,0.1,0.3,0.4,0.3h1.1c0.3,0,0.4-0.1,0.4-1.1c0.2,0.1,0.5,0.2,0.8,0.3c-0.1,1.2-0.3,1.5-1,1.5H200c-0.9,0-1.1-0.2-1.1-1.1
		v-2.5h-2.1v0.6c0,1.2-0.4,2.8-2.2,3.9c-0.1-0.2-0.4-0.5-0.6-0.6c1.6-1,2-2.3,2-3.4v-0.5h-2.3v5.8H202.4z M198.9,625.9v-2h-2.1v2
		H198.9z"/>
	<path d="M194.6,646.3c-0.4,1.1-1.1,2.1-1.9,2.8l-0.8-0.5c0.8-0.5,1.5-1.6,1.9-2.6L194.6,646.3z M193.6,645.5v-4.6
		c-0.3,0.2-0.6,0.5-1,0.7c-0.1-0.2-0.4-0.5-0.6-0.6c1.8-1.2,3.1-2.8,3.8-4.1l1.1,0.2c0,0.1-0.1,0.2-0.3,0.2l-0.3,0.5h3.1l0.1,0
		l0.7,0.4c0,0.1-0.1,0.1-0.2,0.1c-0.3,0.5-0.7,1.1-1.1,1.7h3.5v5.5H193.6z M197.5,640.8h-3.1v1.6h3.1V640.8z M194.5,643.1v1.7h3.1
		v-1.7H194.5z M197.9,640c0.4-0.4,0.7-0.9,1-1.4h-3.1c-0.4,0.5-0.8,0.9-1.2,1.4H197.9z M196.3,648.9c0-0.6-0.1-1.7-0.3-2.5l0.8-0.1
		c0.2,0.8,0.3,1.8,0.3,2.4L196.3,648.9z M201.7,642.4v-1.6h-3.3v1.6H201.7z M201.7,644.8v-1.7h-3.3v1.7H201.7z M199.6,648.9
		c-0.1-0.6-0.5-1.7-0.9-2.5l0.8-0.2c0.4,0.8,0.8,1.8,0.9,2.4L199.6,648.9z M203.3,649.1c-0.4-0.8-1.2-1.9-2-2.7l0.8-0.3
		c0.8,0.8,1.7,1.9,2.1,2.7L203.3,649.1z"/>
	<path d="M192.4,655.5c0.8,0.3,1.8,0.9,2.3,1.4l-0.5,0.7c-0.5-0.5-1.5-1.1-2.3-1.4L192.4,655.5z M192.3,663.2c0.6-1,1.6-2.8,2.2-4.2
		l0.7,0.5c-0.6,1.4-1.4,3-2,4c0.1,0.1,0.1,0.1,0.1,0.2c0,0.1,0,0.1-0.1,0.1L192.3,663.2z M193.1,652c0.8,0.4,1.8,1,2.3,1.5
		c-0.3,0.4-0.4,0.5-0.5,0.7c-0.5-0.5-1.5-1.1-2.3-1.5L193.1,652z M204,661v0.8h-4.3v2.1h-0.8v-2.1h-3.9V661h3.9v-1.1h-3.2v-0.8h3.2
		V658H196v-0.8h2.9V656h-3.7v-0.8h3.7V654h-2.8v-0.7h2.8v-1.4l1.1,0.1c0,0.1-0.1,0.1-0.2,0.2v1.2h3.1v1.9h1.2v0.8h-1.2v2h-3.1v1.1
		h3.5v0.8h-3.5v1.1H204z M199.7,654v1.2h2.2V654H199.7z M199.7,656v1.2h2.2V656H199.7z"/>
</g>
<g>
	<rect x="59.5" y="621.6" class="st4" width="13" height="42.8"/>
	<path d="M60.4,625.8c0.8,0.3,1.9,0.9,2.4,1.3l-0.5,0.7c-0.5-0.4-1.6-1-2.4-1.4L60.4,625.8z M60.3,633.4c0.7-1,1.6-2.8,2.4-4.3
		l0.7,0.5c-0.6,1.4-1.5,3-2.1,4.1c0.1,0.1,0.1,0.1,0.1,0.2c0,0.1,0,0.1,0,0.1L60.3,633.4z M63,624.4c-0.5-0.5-1.5-1.1-2.4-1.5
		l0.5-0.6c0.8,0.4,1.9,1,2.4,1.4L63,624.4z M70.4,626.1h1.2v2.2h-0.8v-1.5h-6.5v1.5h-0.8v-2.2h1.2v-3.6h5.7V626.1z M70.5,627.9v5.4
		c0,0.5-0.1,0.7-0.4,0.8c-0.3,0.1-0.9,0.1-1.9,0.1c0-0.2-0.1-0.5-0.3-0.7c0.7,0,1.3,0,1.5,0c0.2,0,0.2-0.1,0.2-0.2v-1.3h-4.1v2.2
		h-0.8v-6.3H70.5z M69.7,628.6h-4.1v1h4.1V628.6z M65.5,631.3h4.1v-1h-4.1V631.3z M65.6,623.3v2.8h1.5v-1.9h2.5v-0.9H65.6z
		 M69.6,626.1v-1.3h-1.8v1.3H69.6z"/>
	<path d="M61.5,652.6l1.1,0.1c0,0.1-0.1,0.2-0.3,0.2v4.2c0,2.5-0.2,5-1.9,7c-0.2-0.2-0.5-0.5-0.7-0.6c1.6-1.8,1.7-4.1,1.7-6.4V652.6
		z M65.7,653.1l1.1,0.1c0,0.1-0.1,0.2-0.3,0.2v9.4h-0.9V653.1z M70.3,652.5l1.2,0.1c0,0.1-0.1,0.1-0.3,0.2v11.1h-0.9V652.5z"/>
</g>
<g>
	<rect x="103.6" y="435.6" class="st4" width="13" height="42.8"/>
	<path d="M107.6,443.9c0.5,0.3,1.8,1.4,2.2,1.7l-0.5,0.7c-0.3-0.3-1.1-1.1-1.7-1.6v3.5h-0.9v-3.6c-0.6,1-1.4,2-2.2,2.6
		c-0.1-0.2-0.4-0.5-0.6-0.6c0.9-0.6,1.9-1.8,2.6-3h-2.3v-0.8h2.5v-1.4h-2.7v-0.8h1.6c-0.1-0.6-0.3-1.4-0.6-2l0.7-0.2
		c0.3,0.6,0.5,1.5,0.6,2.1l-0.5,0.1h2.2c-0.2-0.1-0.4-0.1-0.4-0.1c0.3-0.6,0.6-1.5,0.7-2.1l1,0.3c0,0.1-0.1,0.1-0.3,0.1
		c-0.2,0.5-0.5,1.3-0.8,1.8h1.9v0.8h-2.6c0,0-0.1,0-0.1,0v1.4h2.6v0.8h-2.6V443.9z M110.1,437.5v0.8h-5.8v-0.8h2.4v-1.5l1.1,0.1
		c0,0.1-0.1,0.2-0.2,0.2v1.2H110.1z M116.2,440.6v0.8h-1.5v6.8h-0.9v-6.8h-2.1v0.5c0,2-0.2,4.5-2.1,6.3c-0.1-0.2-0.4-0.5-0.6-0.6
		c1.7-1.6,1.9-3.9,1.9-5.7v-4.5l0.6,0.2c1.4-0.4,2.8-0.9,3.6-1.4l0.9,0.7c0,0-0.1,0.1-0.3,0c-1,0.5-2.6,1-4,1.4v2.4H116.2z"/>
	<path d="M106.8,460.3c-0.4,1.1-1.1,2.1-1.9,2.8l-0.8-0.5c0.8-0.5,1.5-1.6,1.9-2.6L106.8,460.3z M105.7,459.5v-4.6
		c-0.3,0.2-0.6,0.5-1,0.7c-0.1-0.2-0.4-0.5-0.6-0.6c1.8-1.2,3.1-2.8,3.8-4.1l1.1,0.2c0,0.1-0.1,0.2-0.3,0.2l-0.3,0.5h3.1l0.1,0
		l0.7,0.4c0,0.1-0.1,0.1-0.2,0.1c-0.3,0.5-0.7,1.1-1.1,1.7h3.5v5.5H105.7z M109.7,454.8h-3.1v1.6h3.1V454.8z M106.6,457.1v1.7h3.1
		v-1.7H106.6z M110.1,454c0.4-0.4,0.7-0.9,1-1.4h-3.1c-0.4,0.5-0.8,0.9-1.2,1.4H110.1z M108.4,462.9c0-0.6-0.1-1.7-0.3-2.5l0.8-0.1
		c0.2,0.8,0.3,1.8,0.3,2.4L108.4,462.9z M113.8,456.4v-1.6h-3.3v1.6H113.8z M113.8,458.8v-1.7h-3.3v1.7H113.8z M111.7,462.9
		c-0.1-0.6-0.5-1.7-0.9-2.5l0.8-0.2c0.4,0.8,0.8,1.8,0.9,2.4L111.7,462.9z M115.4,463.1c-0.4-0.8-1.2-1.9-2-2.7l0.8-0.3
		c0.8,0.8,1.7,1.9,2.1,2.7L115.4,463.1z"/>
	<path d="M104.5,469.5c0.8,0.3,1.8,0.9,2.3,1.4l-0.5,0.7c-0.5-0.5-1.5-1.1-2.3-1.4L104.5,469.5z M104.4,477.2c0.6-1,1.6-2.8,2.2-4.2
		l0.7,0.5c-0.6,1.4-1.4,3-2,4c0.1,0.1,0.1,0.1,0.1,0.2c0,0.1,0,0.1-0.1,0.1L104.4,477.2z M105.3,466c0.8,0.4,1.8,1,2.3,1.5
		c-0.3,0.4-0.4,0.5-0.5,0.7c-0.5-0.5-1.5-1.1-2.3-1.5L105.3,466z M116.1,475v0.8h-4.3v2.1H111v-2.1h-3.9V475h3.9v-1.1h-3.2v-0.8h3.2
		V472h-2.9v-0.8h2.9V470h-3.7v-0.8h3.7V468h-2.8v-0.7h2.8v-1.4l1.1,0.1c0,0.1-0.1,0.1-0.2,0.2v1.2h3.1v2h1.2v0.8h-1.2v2h-3.1v1.1
		h3.5v0.8h-3.5v1.1H116.1z M111.8,468v1.2h2.2V468H111.8z M111.8,470v1.2h2.2V470H111.8z"/>
</g>
<g>
	<rect x="59.5" y="435.6" class="st4" width="13" height="42.8"/>
	<path d="M71.8,443v0.8h-5.4v3.2c0,1.1-0.7,1.1-3,1.1c-0.1-0.2-0.2-0.6-0.4-0.9c0.5,0,1,0,1.3,0c1.1,0,1.1,0,1.1-0.3v-3.1h-5.3V443
		h5.3v-2.2h-3.3V440h7.6v0.8h-3.3v2.2H71.8z M61.4,438.5v2.1h-0.9v-2.9h5v-1.6l1.2,0.1c0,0.1-0.1,0.2-0.3,0.2v1.4h5v2.9h-0.9v-2.1
		H61.4z"/>
	<path d="M71.7,453.5H68c1,1.4,2.6,2.8,4.2,3.4c-0.2,0.2-0.5,0.5-0.6,0.7c-1.7-0.8-3.5-2.4-4.5-4.1H65c-1,1.6-2.5,3.1-4.6,4.2
		c-0.1-0.2-0.4-0.5-0.6-0.7c1.9-0.9,3.3-2.2,4.2-3.6h-3.7v-0.8h4.2c0.3-0.6,0.6-1.2,0.7-1.8l1.2,0.1c0,0.1-0.1,0.2-0.3,0.2
		c-0.2,0.5-0.4,0.9-0.6,1.4h6.3V453.5z M63.9,460.1c0,0.1-0.1,0.1-0.3,0.1c-0.6,0.9-1.6,1.9-2.6,2.5c-0.2-0.2-0.4-0.4-0.6-0.5
		c0.9-0.5,1.9-1.5,2.5-2.4L63.9,460.1z M70.7,459h-4.3v3.1c0,0.9-0.4,1-2.5,1c-0.1-0.2-0.2-0.5-0.3-0.8c0.5,0,1,0,1.3,0
		c0.6,0,0.6,0,0.6-0.2V459h-4.3v-0.8h9.5V459z M63.2,455.9h5.6v0.8h-5.6V455.9z M70.6,462.8c-0.5-0.7-1.6-1.8-2.6-2.6l0.7-0.4
		c0.9,0.8,2.1,1.8,2.6,2.5L70.6,462.8z"/>
	<path d="M70.2,466.5v10.1c0,0.7-0.2,1-0.7,1.1c-0.5,0.2-1.4,0.2-2.8,0.2c-0.1-0.2-0.2-0.7-0.4-0.9c0.6,0,1.2,0,1.7,0
		c1.1,0,1.2,0,1.2-0.4v-2.9h-6.4c-0.3,1.5-1,3.1-2.4,4.2c-0.1-0.2-0.5-0.5-0.6-0.6c2.2-1.9,2.5-4.6,2.5-6.7v-4H70.2z M63.1,470.5
		c0,0.7,0,1.5-0.1,2.3h6.3v-2.3H63.1z M69.3,467.4h-6.1v2.3h6.1V467.4z"/>
</g>
<g>
	<rect x="278.6" y="435.6" class="st4" width="13" height="42.8"/>
	<path d="M285.1,446.7h5.9v0.9h-11.8v-0.9h5v-10.4l1.2,0.1c0,0.1-0.1,0.2-0.3,0.2v3.8h5v0.9h-5V446.7z"/>
	<path d="M291,467.7v0.9h-5.4v0h0.2c0,0.1-0.1,0.2-0.3,0.2v1.7h4.3v4.7c0,1-0.4,1.1-2.9,1.1c0-0.3-0.2-0.6-0.3-0.9c0.9,0,1.7,0,2,0
		c0.2,0,0.3-0.1,0.3-0.3v-3.8h-3.4v6.7h-0.9v-6.7h-3.2v5h-0.9v-5.9h4v-1.9h-5.4v-0.9h5.4v-1.9l1.2,0.1c0,0.1-0.1,0.2-0.3,0.2v1.7
		H291z"/>
</g>
<g>
	<rect x="367.5" y="306.6" class="st4" width="13" height="42.8"/>
	<path d="M379.9,312.9v0.8h-1.8v4.3c0,1.1-0.6,1.1-2.7,1.1c0-0.2-0.2-0.6-0.3-0.9c0.5,0,1,0,1.3,0c0.8,0,0.8,0,0.8-0.3v-4.3H371
		c-0.1,1.9-0.7,4-2.4,5.5c-0.1-0.2-0.5-0.5-0.6-0.6c1.6-1.4,2.1-3.2,2.2-4.9h-2v-0.8h2v-4.3h2.8c0.2-0.5,0.5-1.1,0.6-1.6l1.2,0.2
		c0,0.1-0.1,0.1-0.3,0.1c-0.2,0.4-0.4,0.8-0.6,1.2h4.3v4.3H379.9z M371,312.9h6.2v-3.4H371V312.9z M374.8,312.6
		c-0.5-0.6-1.5-1.5-2.4-2.1l0.6-0.5c0.9,0.6,1.9,1.4,2.4,2.1L374.8,312.6z M373.5,318.2v-4l1.1,0.1c0,0.1-0.1,0.2-0.3,0.2v3.8H373.5
		z"/>
	<path d="M370.7,340.5v1.1c0.4,0.5,1.3,1.9,1.5,2.3l-0.5,0.7c-0.2-0.4-0.7-1.3-1.1-2v6.3h-0.8v-6.3c-0.4,1.5-1,2.9-1.6,3.8
		c-0.1-0.2-0.3-0.6-0.5-0.8c0.8-1.1,1.6-3.2,2-5.1h-1.7v-0.8h1.8v-2.9l1.1,0.1c0,0.1-0.1,0.1-0.3,0.2v2.7h1.5v0.8H370.7z
		 M379.9,339.8h-2.2c0.6,0.8,1.6,1.7,2.5,2.1c-0.2,0.1-0.4,0.4-0.6,0.6c-0.5-0.3-1-0.6-1.5-1.1v1.7H374v-1.6
		c-0.4,0.4-0.9,0.8-1.5,1.1c-0.1-0.2-0.4-0.5-0.5-0.6c1.1-0.6,1.9-1.4,2.4-2.2h-2v-0.7h2.5c0.1-0.3,0.3-0.6,0.4-0.9
		c-0.8,0.1-1.6,0.1-2.4,0.1c0-0.2-0.1-0.4-0.2-0.6c2.1-0.1,4.6-0.3,6-0.6l0.7,0.6c0,0-0.1,0-0.1,0c0,0-0.1,0-0.1,0
		c-0.7,0.1-1.7,0.3-2.8,0.4c0,0.1-0.1,0.2-0.3,0.2c-0.1,0.3-0.2,0.5-0.3,0.8h4.2V339.8z M379.6,343.7v4.3c0,0.8-0.3,0.9-2.1,0.9
		c0-0.2-0.2-0.5-0.3-0.8c0.4,0,0.7,0,1,0c0.6,0,0.6,0,0.6-0.2v-3.6h-5.5v4.5h-0.8v-5.2H379.6z M377.8,347.6H375v0.6h-0.7v-3.1h3.4
		V347.6z M377.4,340.6c-0.2-0.3-0.4-0.6-0.6-0.8h-1.5c-0.2,0.3-0.4,0.6-0.6,0.8H377.4z M377.4,342.5v-1.2h-2.7v1.2H377.4z
		 M377.1,345.8h-2v1.2h2V345.8z"/>
</g>
<rect x="130" y="14" class="st3" width="180" height="21"/>
<g>
	<rect x="140.1" y="16.2" class="st4" width="159.9" height="16.6"/>
	<path d="M168.3,17.3c0,0.1-0.2,0.1-0.4,0.1c-0.9,1.2-2.6,2.7-4,3.7c-0.1-0.2-0.4-0.7-0.6-0.9c1.3-0.9,2.9-2.3,3.7-3.5L168.3,17.3z
		 M165.8,31.6v-7c-0.6,0.7-1.2,1.3-1.8,1.8c-0.1-0.2-0.5-0.6-0.7-0.8c1.5-1.3,3.3-3.4,4.4-5.4l1.2,0.5c0,0.1-0.2,0.2-0.4,0.1
		c-0.5,0.8-1,1.6-1.6,2.4l0.3,0.1c0,0.1-0.1,0.2-0.3,0.2v8.1H165.8z M178.2,22.4v1h-2.5v6.8c0,1.3-0.5,1.4-3.7,1.4
		c0-0.3-0.2-0.7-0.4-1.1c0.7,0,1.4,0,1.9,0c1,0,1.2,0,1.2-0.4v-6.8H169v-1H178.2z M177.6,17.8v1h-8v-1H177.6z"/>
	<path d="M185.8,25.2c0,0.1-0.1,0.2-0.3,0.2c-0.4,2.8-1.2,5-4.9,6.2c-0.1-0.3-0.4-0.7-0.7-0.9c3.5-1,4.3-3,4.5-5.7L185.8,25.2z
		 M189.8,29.8c0,0.5,0.1,0.6,0.8,0.6h2.2c0.6,0,0.7-0.3,0.8-2.5c0.2,0.2,0.7,0.4,1,0.4c-0.1,2.4-0.4,3.1-1.7,3.1h-2.4
		c-1.4,0-1.7-0.3-1.7-1.6v-4.9h-8.7v-1.1h6.6v-3.4h-3.5c-0.4,0.9-0.9,1.8-1.5,2.5c-0.2-0.2-0.7-0.4-0.9-0.5c1.1-1.4,2-3.6,2.4-5.3
		l1.4,0.3c0,0.1-0.1,0.2-0.4,0.2c-0.1,0.5-0.3,1.1-0.6,1.7h3.1v-2.6l1.4,0.1c0,0.1-0.1,0.2-0.3,0.2v2.3h5.4v1h-5.4v3.4h6.6v1.1h-4.5
		V29.8z"/>
	<path d="M204.6,24.3c0.3,1.1,0.8,2,1.4,2.8c1.1-0.7,2.4-1.6,3.3-2.3l1,0.8c0,0.1-0.2,0.1-0.4,0.1c-0.9,0.7-2.2,1.5-3.4,2.2
		c1.2,1.4,2.7,2.4,4.7,2.9c-0.2,0.2-0.5,0.6-0.7,0.9c-3.5-1.1-5.7-3.6-6.9-7.2c-0.8,0.7-1.7,1.4-2.8,2l0.3,0c0,0.1-0.1,0.2-0.3,0.2
		V30l4.6-0.7l0,0.9c-2.5,0.4-5.2,0.9-6.9,1.2c0,0.1-0.1,0.2-0.2,0.2l-0.5-1.2c0.5-0.1,1.2-0.2,1.9-0.3v-3.1c-1,0.5-2,0.9-2.9,1.2
		c-0.2-0.3-0.5-0.7-0.7-0.9c2.1-0.6,4.6-1.8,6.2-3.1h-6v-0.9h6.7v-1.6h-4.9v-0.9h4.9v-1.5h-5.8v-0.9h5.8v-1.6l1.4,0.1
		c0,0.1-0.1,0.2-0.3,0.2v1.3h6v0.9h-6v1.5h5.1v0.9h-5.1v1.6h6.8v0.9H204.6z"/>
	<path d="M216.8,25.2c0,0.1-0.2,0.2-0.4,0.2c-0.8,1.8-2,3.7-3.2,4.9c-0.2-0.2-0.6-0.5-0.9-0.6c1.2-1.1,2.4-3,3.1-4.8L216.8,25.2z
		 M227.2,23.1h-6.6v7.2c0,0.7-0.2,1-0.7,1.2c-0.5,0.2-1.5,0.2-2.9,0.2c-0.1-0.3-0.2-0.8-0.4-1.1c0.7,0,1.3,0,1.8,0
		c1,0,1.1,0,1.1-0.4v-7.2h-6.6V22h14.3V23.1z M225.7,17.9V19h-11.4v-1.1H225.7z M226.4,30.2c-0.4-1.4-1.7-3.5-2.9-5l1-0.4
		c1.2,1.5,2.5,3.6,3,5L226.4,30.2z"/>
	<path d="M235.1,19.5v0.9h-6.1v-0.9H235.1z M234.5,26v4.7h-3.9v0.8h-1V26H234.5z M229.7,22.5v-0.9h4.8v0.9H229.7z M229.7,24.7v-0.9
		h4.8v0.9H229.7z M234.5,17.3v0.9h-4.7v-0.9H234.5z M233.5,26.9h-2.9v2.9h2.9V26.9z M237.4,18.3v1c0,1.4-0.4,3.1-2.1,4.2
		c-0.2-0.2-0.6-0.6-0.8-0.7c1.6-1,1.8-2.4,1.8-3.5v-2h5v4c0,0.4,0,0.4,0.3,0.4h0.9c0.3,0,0.4-0.2,0.4-1.8c0.2,0.2,0.6,0.3,0.9,0.4
		c-0.1,1.9-0.4,2.4-1.2,2.4h-1.2c-0.9,0-1.2-0.3-1.2-1.3v-3.1H237.4z M242.3,23.8L243,24c0,0.1-0.1,0.1-0.1,0.2
		c-0.5,1.9-1.5,3.4-2.8,4.6c1.1,0.8,2.4,1.5,3.8,1.8c-0.2,0.2-0.5,0.7-0.7,0.9c-1.5-0.4-2.8-1.1-4-2.1c-1.2,1-2.7,1.6-4.2,2.1
		c-0.1-0.3-0.4-0.7-0.6-0.9c1.4-0.4,2.8-1,4-1.9c-1-1-1.8-2.3-2.4-3.7l1-0.3c0.5,1.3,1.3,2.4,2.2,3.3c1-0.9,1.7-2,2.3-3.4h-6.3v-1
		h6.9L242.3,23.8z"/>
	<path d="M253.3,26.6v3.5c0.8,0.2,1.8,0.2,2.8,0.2c0.6,0,3.4,0,4.1,0c-0.2,0.3-0.4,0.8-0.4,1.1h-3.7c-3.4,0-5.9-0.6-7.4-3.5
		c-0.6,1.6-1.4,2.9-2.5,3.8c-0.2-0.2-0.6-0.5-0.8-0.7c1.8-1.3,2.7-3.7,3.1-6.7l1.4,0.2c0,0.1-0.1,0.2-0.3,0.2
		c-0.1,0.6-0.2,1.3-0.4,1.9c0.7,1.8,1.8,2.8,3.2,3.3v-7h-4.1v-1h9.4v1h-4.2v2.8h4.9v1H253.3z M247.2,19.7v2.4h-1.1v-3.4h6.1v-2
		l1.5,0.1c0,0.1-0.1,0.2-0.3,0.2v1.6h6.2v3.4h-1.1v-2.4H247.2z"/>
	<path d="M276.5,24.2h-4.7c1.3,1.2,3.2,2.1,5.1,2.6c-0.2,0.2-0.5,0.6-0.7,0.9c-0.4-0.1-0.8-0.2-1.1-0.4v4.3h-1V31h-3.2v0.6h-1v-5.3
		h3.2c-1.1-0.6-2-1.4-2.8-2.2H268c-0.8,0.8-1.7,1.6-2.8,2.2h3.3v5.2h-1V31h-3.1v0.6h-1v-4.4c-0.4,0.1-0.7,0.3-1.1,0.4
		c-0.1-0.2-0.5-0.6-0.7-0.8c2-0.7,3.6-1.6,4.9-2.7H262v-1h5.5c0.3-0.4,0.6-0.8,0.8-1.3h-5.2v-4.4h5.2v4.3l0.1-0.3l1.3,0.4
		c0,0.1-0.2,0.2-0.4,0.2c-0.2,0.4-0.4,0.8-0.7,1.2h7.7V24.2z M267.3,21v-2.6h-3.2V21H267.3z M267.4,30.1v-2.8h-3.1v2.8H267.4z
		 M275.4,17.5v4.4h-5.2v-4.4H275.4z M270.9,30.1h3.2v-2.8h-3.2V30.1z M274.3,21v-2.6h-3.2V21H274.3z"/>
</g>
<g>
</g>
<g>
</g>
<g>
</g>
<g>
</g>
<g>
</g>
<g>
</g>
<g>
</g>
<g>
</g>
<g>
</g>
<g>
</g>
<g>
</g>
<g>
</g>
<g>
</g>
<g>
</g>
<g>
</g>
<g>
</g>
<g>
</g>
<g>
</g>
</svg>
