<?xml version="1.0" encoding="utf-8"?>
<!-- Generator: Adobe Illustrator 16.0.0, SVG Export Plug-In . SVG Version: 6.00 Build 0)  -->
<!DOCTYPE svg PUBLIC "-//W3C//DTD SVG 1.1//EN" "http://www.w3.org/Graphics/SVG/1.1/DTD/svg11.dtd">
<svg version="1.1" id="レイヤー_1" xmlns="http://www.w3.org/2000/svg" xmlns:xlink="http://www.w3.org/1999/xlink" x="0px"
	 y="0px" width="440px" height="975px" viewBox="0 0 440 975" style="enable-background:new 0 0 440 975;" xml:space="preserve">
<style type="text/css">
<![CDATA[
	.st0{fill:#FFFFCC;}
	.st1{fill:#FFFFFF;}
	.st2{fill:none;}
	.st3{fill:#CCCCCC;}
	.st4{fill:#0055FF;}
	.st5{fill:none;stroke:#000000;stroke-width:2;stroke-miterlimit:10;}
	.st6{fill:#DC0000;}
	.st7{fill:#EEEEEE;stroke:#000000;stroke-width:2;stroke-miterlimit:10;}
]]>
</style>
<rect class="st0" width="440" height="975"/>
<rect x="132" y="79" class="st7" width="44" height="72"/>
<rect x="176" y="79" class="st7" width="44" height="72"/>
<rect x="220" y="79" class="st7" width="44" height="72"/>
<rect x="264" y="79" class="st7" width="44" height="72"/>
<rect x="308" y="79" class="st7" width="44" height="72"/>
<rect x="352" y="79" class="st7" width="44" height="72"/>
<g>
	<rect x="234.8" y="86.2" class="st2" width="14.3" height="57.6"/>
	<path d="M241.2,93.5l0.3,0l0.7,0.1c0,0.1,0,0.3,0,0.4c-0.1,3.5-0.3,4.8-0.7,5.3c-0.4,0.5-0.8,0.5-1.7,0.5c-0.3,0-0.6,0-1,0
		c0-0.4-0.2-0.8-0.4-1.2c0.6,0.1,1.3,0.1,1.5,0.1c0.2,0,0.4,0,0.5-0.2c0.2-0.3,0.4-1.2,0.5-3.8h-2c-0.3,1.8-1,3.7-2.4,5
		c-0.2-0.3-0.6-0.7-0.9-0.9c1.8-1.6,2.2-4.5,2.3-6.8h-1.5v-4.7h5.7v4.7h-2.9c0,0.5-0.1,1-0.2,1.5H241.2z M237.6,88.5v2.4h3.2v-2.4
		H237.6z M245,88.5c0,0.1-0.1,0.2-0.3,0.2v7.6h-1.3v-7.9L245,88.5z M246.8,86.9l1.6,0.1c0,0.1-0.1,0.2-0.3,0.2v10.8
		c0,1.5-0.6,1.7-3.4,1.7c-0.1-0.4-0.3-1-0.5-1.4c0.6,0,1.1,0,1.6,0c0.9,0,1,0,1-0.4V86.9z"/>
	<path d="M241.7,109h-4c-0.1,1.7-0.3,3.8-1.3,5.3c-0.2-0.2-0.8-0.7-1-0.8c1-1.5,1-3.7,1-5.3v-3.7h5.3V109z M242.1,101.9v1.2h-6.4
		v-1.2H242.1z M240.4,105.6h-2.7v2.2h2.7V105.6z M248.8,106v1.3h-1.5v7H246v-7h-2.1c-0.1,2.2-0.6,5-2.5,7c-0.2-0.3-0.7-0.7-1-0.9
		c2-2,2.2-4.8,2.2-6.9v-3.8l0.9,0.2c1.5-0.4,3-0.9,3.9-1.5l1.2,1.1c-0.1,0.1-0.1,0.1-0.3,0.1c-1.1,0.5-2.8,1.1-4.4,1.4v2.1H248.8z"
		/>
	<path d="M236.3,119.6c0.8,0.3,1.9,0.9,2.5,1.4l-0.8,1.1c-0.5-0.5-1.6-1.1-2.4-1.5L236.3,119.6z M235.9,127.9
		c0.7-1.1,1.6-2.9,2.3-4.6l1.1,0.8c-0.6,1.5-1.4,3.1-2,4.2c0.1,0.1,0.1,0.2,0.1,0.2c0,0.1,0,0.1-0.1,0.2L235.9,127.9z M237.1,115.8
		c0.8,0.4,1.9,1,2.4,1.5c-0.3,0.5-0.6,0.8-0.8,1.1c-0.5-0.5-1.6-1.2-2.4-1.6L237.1,115.8z M247.8,127.2h1v1.2h-10.1v-1.2h1.2v-4.4
		h7.9V127.2z M247.3,116.3v5.5h-7v-5.5H247.3z M241.1,124v3.2h1.1V124H241.1z M246,118.6v-1.1h-4.4v1.1H246z M246,120.7v-1.1h-4.4
		v1.1H246z M244.4,124h-1.1v3.2h1.1V124z M246.6,124h-1.1v3.2h1.1V124z"/>
	<path d="M240.1,137.6l0.8,0.4c0,0.1-0.1,0.1-0.1,0.2c-0.7,2.3-2.5,3.9-4.5,4.8c-0.2-0.3-0.5-0.8-0.8-1.1c1.5-0.5,2.9-1.6,3.6-3H236
		v-1.2h3.8L240.1,137.6z M243,136.8c-0.1,0-0.1,0.1-0.2,0.1c0,0.4,0.8,1.5,1.3,2c1-0.6,2-1.4,2.7-2.1l1.3,1
		c-0.1,0.1-0.2,0.1-0.4,0.1c-0.7,0.6-1.8,1.3-2.8,1.8c1.1,0.9,2.4,1.7,4,2c-0.3,0.3-0.7,0.8-0.9,1.2c-2.2-0.7-3.9-2-5.2-3.7v2.8
		c0,1.2-0.4,1.4-3,1.4c-0.1-0.4-0.3-0.9-0.4-1.2c0.5,0,1,0,1.4,0c0.7,0,0.7,0,0.7-0.3v-5.2h-4.1v-5.3h3.5c0.2-0.4,0.5-0.9,0.6-1.3
		l1.7,0.4c0,0.1-0.2,0.2-0.3,0.2c-0.1,0.2-0.3,0.5-0.5,0.8h4.8v5.3H243z M238.6,132.5v1.1h7v-1.1H238.6z M238.6,134.6v1.1h7v-1.1
		H238.6z"/>
</g>
<g>
	<path class="st5" d="M419,320v45.2c0,5.5-4.9,9.8-10.4,9.8H30.8c-5.5,0-9.8-4.3-9.8-9.8v-87c0-5.5,3.6-10.1,8.3-10.1s8.7,0,8.7,0"
		/>
</g>
<g>
	<path class="st5" d="M109,208V78.1c0-5.5,4.5-10.1,10-10.1h289.6c5.5,0,10.4,4.6,10.4,10.1V175"/>
</g>
<g>
	<path class="st5" d="M109,208v49.5c0,5.5-4.5,10.5-10,10.5H38"/>
</g>
<g>
	<rect x="189.9" y="86.2" class="st2" width="16.2" height="57.6"/>
	<path d="M205.3,89.4H199c-0.1,0.1-0.2,0.1-0.4,0.2v2.5l0.2-0.2c1.9,0.9,4.5,2.4,5.7,3.4l-1.1,1.4c-1.1-0.9-3.1-2.2-4.9-3.2v8.2H197
		V89.4h-6.1v-1.5h14.4V89.4z"/>
	<path d="M203.7,110.3l1.2,0.7c0,0.1-0.2,0.2-0.3,0.2c-1.8,2.9-5,6.4-8,8.7c1.6,0.8,3.7,0.8,5.9,0.8c1.1,0,2.6,0,3.2,0
		c-0.2,0.4-0.4,1-0.5,1.5h-3.7c-3.5,0-6-0.5-7.6-2.9c-0.5,1-1.1,2-1.7,2.7c0,0.1,0,0.1,0,0.2c0,0.1,0,0.2-0.1,0.3l-1.6-1
		c1.2-1.3,2.4-3.4,3.1-5.1l1.4,0.6c-0.1,0.3-0.3,0.6-0.4,0.9c0.2,0.4,0.5,0.8,0.8,1.2c2.6-1.8,5.3-4.7,6.9-7.1h-10.8v-1.5h5.8v-2.9
		l1.9,0.1c0,0.1-0.1,0.2-0.4,0.3v2.5h4.5L203.7,110.3z"/>
	<path d="M204.8,129l0.9,0.3c0,0.1-0.1,0.2-0.1,0.2c-0.4,1.4-0.9,3.2-1.5,5c1.4,2.1,1.6,3.2,1.6,4c0,2.5-1.3,2.6-2.4,2.6
		c-0.1,0-0.3,0-0.4,0c0-0.4-0.2-1-0.4-1.4c0.3,0,0.6,0,0.8,0c0.7,0,1.1,0,1.1-1.4c0-0.9-0.4-2-1.6-3.6c0.5-1.6,0.9-3.1,1.2-4.4h-1.7
		v12.9h-1.3v-1.2l-1.2,0.5c-0.1-0.4-0.2-1-0.4-1.6c-1.3,0.5-2.7,1-3.6,1.3c0,0.1-0.1,0.2-0.2,0.3l-0.6-1.6l0.9-0.3v-5.3h0
		c-0.6,3.5-1.8,6.2-4.4,7.6c-0.2-0.3-0.5-0.8-0.8-1.1c1.5-0.8,2.5-2.2,3.2-4l-2.7,0.4c0,0.1-0.1,0.2-0.2,0.2l-0.5-1.6l0.8-0.1
		c0.5-0.7,1-1.5,1.5-2.4c-0.6-0.8-1.4-1.6-2.2-2.3l0.7-1.1c0.2,0.1,0.3,0.3,0.5,0.4c0.5-1.1,1.1-2.4,1.4-3.5l1.6,0.6
		c0,0.1-0.2,0.2-0.4,0.2c-0.4,1-1.1,2.5-1.8,3.5c0.3,0.3,0.6,0.6,0.8,0.9c0.4-0.7,0.7-1.3,0.9-1.9l1.5,0.6c-0.1,0.1-0.2,0.2-0.4,0.2
		c-0.7,1.4-1.7,3.2-2.7,4.6l1.5-0.2c0.1-0.5,0.2-1.1,0.3-1.7l1.3,0.2v-6.2h4.2v7.1h-2.9v4.2l1.8-0.6c-0.3-0.8-0.6-1.5-0.9-2.2
		l1.2-0.4c0.7,1.3,1.3,3,1.6,4.3v-12.5h3.7L204.8,129z M198.8,130.4h-1.6v1.6h1.6V130.4z M197.1,134.9h1.6v-1.6h-1.6V134.9z"/>
</g>
<g>
	<rect x="145.9" y="86.2" class="st2" width="16.2" height="57.6"/>
	<path d="M154.4,99.4h7v1.5h-14.6v-1.5h6V86.9l2,0.1c0,0.1-0.1,0.2-0.4,0.3v4.4h5.9v1.5h-5.9V99.4z"/>
	<path d="M147.5,129.4h13.4v13.7h-1.6v-1H149v1h-1.5V129.4z M153.3,130.9H149v4.1h4.3V130.9z M149,136.5v4.1h4.3v-4.1H149z
		 M159.3,134.9v-4.1h-4.5v4.1H159.3z M154.8,140.6h4.5v-4.1h-4.5V140.6z"/>
</g>
<rect x="132" y="172" class="st7" width="44" height="72"/>
<rect x="176" y="172" class="st7" width="44" height="72"/>
<rect x="220" y="172" class="st7" width="44" height="72"/>
<rect x="264" y="172" class="st7" width="44" height="72"/>
<rect x="308" y="172" class="st7" width="44" height="72"/>
<rect x="352" y="172" class="st7" width="44" height="72"/>
<rect x="132" y="421" class="st7" width="44" height="72"/>
<rect x="176" y="421" class="st7" width="44" height="72"/>
<rect x="220" y="421" class="st7" width="44" height="72"/>
<rect x="264" y="421" class="st7" width="44" height="72"/>
<rect x="308" y="421" class="st7" width="44" height="72"/>
<rect x="352" y="421" class="st7" width="44" height="72"/>
<g>
	<rect x="277.9" y="428" class="st2" width="16.2" height="57.6"/>
	<path class="st6" d="M288.5,428.9c-0.1,0.2-0.2,0.2-0.4,0.2c-0.1,0.4-0.2,0.7-0.4,1.1h5.8v1.4h-6.4c-0.2,0.4-0.3,0.7-0.5,1.1h5.5
		v4.1h-5.6v-3.8c-0.3,0.4-0.5,0.8-0.8,1.2c-0.2-0.2-0.6-0.6-0.9-0.9v5H283v2.3h2.1v1.4h-4.7v0.9h-1.3v-13.4h6v1.4H283v2.1h1.8
		c0.8-1.1,1.5-2.8,1.9-4.4L288.5,428.9z M281.7,430.7h-1.2v2.1h1.2V430.7z M283.5,436.8v-2.6h-3v2.6H283.5z M281.7,440.5v-2.3h-1.2
		v2.3H281.7z M285.5,443.4v-5.8h3.4v5.6h-1.1v-0.7h-1.2v0.9H285.5z M287.8,438.9h-1.2v2.4h1.2V438.9z M287.8,433.8v1.6h3v-1.6H287.8
		z M289.7,443.4v-5.7h3.6v5.6h-1.2v-0.7h-1.3v0.8H289.7z M292.1,438.9h-1.3v2.4h1.3V438.9z"/>
	<path class="st6" d="M284,471.1v10.8h-3.4v1.4h-1.4v-12.2H284z M282.6,472.4h-2v3.3h2V472.4z M280.6,480.5h2v-3.4h-2V480.5z
		 M289.7,475.1h3.9v1.4h-9.3v-1.4h3.9v-1.8h-3.3v-1.3h3.3v-1.9l1.9,0.1c0,0.1-0.1,0.2-0.4,0.3v1.5h3.4v1.3h-3.4V475.1z M292.2,476.7
		c0,0.1-0.1,0.2-0.4,0.3v1.1h1.8v1.3h-1.8v4c0,1.5-0.6,1.7-3.4,1.7c-0.1-0.4-0.3-1-0.5-1.4c0.5,0,0.9,0,1.3,0c1.1,0,1.1,0,1.1-0.3
		v-4h-6v-1.3h6v-1.5L292.2,476.7z M287.1,483.4c-0.3-0.8-1.2-2-2-2.8l1.2-0.7c0.8,0.8,1.7,1.9,2.1,2.7L287.1,483.4z"/>
</g>
<g>
	<rect x="189.9" y="428.5" class="st2" width="16.2" height="57.6"/>
	<path class="st6" d="M190.6,432.9v-1.2h5.8v1.2H190.6z M196,438.3v4.8h-3.4v0.7h-1.3v-5.5H196z M196,433.9v1.2h-4.6v-1.2H196z
		 M191.3,437.2v-1.2h4.6v1.2H191.3z M195.9,429.5v1.2h-4.5v-1.2H195.9z M194.7,439.5h-2.1v2.4h2.1V439.5z M199.8,440.9l1.8-0.3
		l0.1,1.3c-1.6,0.4-3.3,0.8-4.4,1c0,0.1-0.1,0.2-0.2,0.2l-0.6-1.5c0.6-0.1,1.2-0.2,2-0.4v-4.3h-1.5v-1.3h4.4v1.3h-1.5V440.9z
		 M205.5,433.5h-2.4c0.1,4.6,0.4,8.6,1.4,8.8h0c0.2,0,0.4-1,0.5-2.2c0.2,0.3,0.7,0.7,0.9,0.8c-0.2,2-0.8,3-1.6,3
		c-2.1,0-2.5-4.6-2.7-10.4h-4.9v-1.4h4.9c0-1.1,0-2.1,0-3.2l1.9,0.1c0,0.1-0.1,0.2-0.4,0.3v2.8h2.4V433.5z M204.1,429.1
		c0.6,0.6,1.3,1.4,1.6,2l-1.1,0.6c-0.3-0.6-0.9-1.5-1.5-2.1L204.1,429.1z"/>
	<path class="st6" d="M194.2,456.1v5.2c1.1,1.8,3.2,1.8,6.1,1.8c1.8,0,4,0,5.5-0.2c-0.2,0.4-0.4,1.1-0.5,1.5c-1.2,0-3,0.1-4.7,0.1
		c-3.5,0-5.5,0-7-1.9c-0.7,0.7-1.4,1.3-2,1.8c0,0.2,0,0.2-0.2,0.3l-0.8-1.6c0.6-0.4,1.4-1.1,2.1-1.7v-3.9h-2v-1.4H194.2z M192,450.2
		c1,0.7,2.1,1.8,2.6,2.6l-1.2,0.9c-0.5-0.8-1.6-1.9-2.5-2.7L192,450.2z M199.2,462.7v-1.4h-4.4v-1.1h4.4v-0.8h-3.3v-4.7h3.3v-0.8
		h-3.8v-1.1h3.8v-1.1l1.8,0.1c0,0.1-0.1,0.2-0.4,0.3v0.7h3.9v1.1h-3.9v0.8h3.4v4.7h-3.4v0.8h4.6v1.1h-4.6v1.4H199.2z M196.4,451.3v1
		h-1.3v-2.2h10v2.2h-1.4v-1H196.4z M197.2,455.6v0.9h2v-0.9H197.2z M197.2,458.3h2v-0.9h-2V458.3z M202.8,455.6h-2v0.9h2V455.6z
		 M202.8,458.3v-0.9h-2v0.9H202.8z"/>
	<path class="st6" d="M198,482.8h-2.9v2.7h-1.4v-2.7h-3v-1.3h3v-1.1h-2.4v-5.7h2.4v-1.1h-2.8v-1.3h2.8v-1.6l1.8,0.1
		c0,0.1-0.1,0.2-0.4,0.3v1.3h2.7v1.3h-2.7v1.1h2.5v5.7h-2.5v1.1h2.9V482.8z M192.4,475.7v1.2h1.4v-1.2H192.4z M192.4,478v1.2h1.4
		V478H192.4z M196.4,477v-1.2h-1.4v1.2H196.4z M196.4,479.2V478h-1.4v1.2H196.4z M203.7,479.9c0.9,1.6,1.7,3.7,2.1,5.1l-1.4,0.6
		c-0.1-0.3-0.2-0.7-0.3-1.1c-2.1,0.2-4.3,0.5-5.7,0.6c0,0.1-0.1,0.2-0.3,0.2l-0.5-1.7c0.4,0,0.8,0,1.3-0.1c0.4-1.5,0.9-3.7,1.2-5.5
		h-2.2v-1.4h7.7v1.4h-4c-0.3,1.6-0.8,3.8-1.3,5.4c1-0.1,2.2-0.2,3.3-0.3c-0.4-0.9-0.8-1.9-1.2-2.7L203.7,479.9z M205,471.6v1.4h-6.3
		v-1.4H205z"/>
</g>
<rect x="44" y="421" class="st7" width="44" height="72"/>
<rect x="88" y="421" class="st7" width="44" height="72"/>
<g>
	<rect x="233.9" y="428.5" class="st2" width="16.2" height="57.6"/>
	<path class="st6" d="M235.5,429.9h13.4v13.9h-1.6v-1.1H237v1.1h-1.5V429.9z M237,441.3h10.3v-9.9H237V441.3z M239,433.6h6.1v5.5
		H239V433.6z M243.7,437.8v-3h-3.3v3H243.7z"/>
	<path class="st6" d="M238.4,476.9v5.2c1.1,1.8,3.3,1.8,5.8,1.8c1.8,0,4.1-0.1,5.5-0.2c-0.2,0.4-0.4,1.1-0.5,1.6
		c-1.1,0-2.7,0.1-4.2,0.1c-3.6,0-5.7,0-7.3-1.9c-0.8,0.7-1.5,1.3-2.2,1.8c0,0.2,0,0.2-0.2,0.3l-0.8-1.7c0.7-0.5,1.6-1.1,2.4-1.7
		v-3.8h-2.1v-1.4H238.4z M236,470.9c1,0.7,2.2,1.7,2.8,2.5l-1.2,1c-0.5-0.8-1.7-1.9-2.7-2.6L236,470.9z M249.4,478.3h-4.1
		c0.7,1.8,2,3,4.1,3.6c-0.3,0.3-0.8,0.9-1,1.3c-2-0.7-3.3-1.9-4.1-3.8c-0.6,1.3-1.8,2.7-4.1,3.7c-0.2-0.3-0.7-0.8-1-1.1
		c2.6-1,3.6-2.4,3.9-3.7h-4v-1.4h4.2v-2h-3.6v-1.4h1.9c-0.2-0.7-0.8-1.7-1.3-2.4l1.3-0.5c0.6,0.8,1.2,1.8,1.5,2.5l-0.9,0.4h3.7
		l-0.7-0.3c0.5-0.7,1.2-1.9,1.6-2.7l1.8,0.7c-0.1,0.1-0.2,0.2-0.4,0.2c-0.4,0.6-1,1.5-1.5,2.2h2.4v1.4h-4v2h4.5V478.3z"/>
</g>
<rect x="44" y="514" class="st7" width="44" height="72"/>
<rect x="88" y="514" class="st7" width="44" height="72"/>
<rect x="132" y="514" class="st7" width="44" height="72"/>
<rect x="176" y="514" class="st7" width="44" height="72"/>
<rect x="220" y="514" class="st7" width="44" height="72"/>
<rect x="264" y="514" class="st7" width="44" height="72"/>
<g>
	<rect x="145.9" y="521.2" class="st2" width="16.2" height="57.6"/>
	<path d="M161.3,524.4H155c-0.1,0.1-0.2,0.1-0.4,0.2v2.5l0.2-0.2c1.9,0.9,4.5,2.4,5.7,3.4l-1.1,1.4c-1.1-0.9-3.1-2.2-4.9-3.2v8.2
		H153v-12.2h-6.1v-1.5h14.4V524.4z"/>
	<path d="M159.7,545.3l1.2,0.7c0,0.1-0.2,0.2-0.3,0.2c-1.8,2.9-5,6.4-8,8.7c1.6,0.8,3.7,0.8,5.9,0.8c1.1,0,2.6,0,3.2,0
		c-0.2,0.4-0.4,1-0.5,1.5h-3.7c-3.5,0-6-0.5-7.6-2.9c-0.5,1-1.1,2-1.7,2.7c0,0.1,0,0.1,0,0.2c0,0.1,0,0.2-0.1,0.3l-1.6-1
		c1.2-1.3,2.4-3.4,3.1-5.1l1.4,0.6c-0.1,0.3-0.3,0.6-0.4,0.9c0.2,0.4,0.5,0.8,0.8,1.2c2.6-1.8,5.3-4.7,6.9-7.1h-10.8v-1.5h5.8v-2.9
		l1.9,0.1c0,0.1-0.1,0.2-0.4,0.3v2.5h4.5L159.7,545.3z"/>
	<path d="M160.8,564l0.9,0.3c0,0.1-0.1,0.2-0.1,0.2c-0.4,1.4-0.9,3.2-1.5,5c1.4,2.1,1.6,3.2,1.6,4c0,2.5-1.3,2.6-2.4,2.6
		c-0.1,0-0.3,0-0.4,0c0-0.4-0.2-1-0.4-1.4c0.3,0,0.6,0,0.8,0c0.7,0,1.1,0,1.1-1.4c0-0.9-0.4-2-1.6-3.6c0.5-1.6,0.9-3.1,1.2-4.4h-1.7
		v12.9h-1.3v-1.2l-1.2,0.5c-0.1-0.4-0.2-1-0.4-1.6c-1.3,0.5-2.7,1-3.6,1.3c0,0.1-0.1,0.2-0.2,0.3l-0.6-1.6l0.9-0.3v-5.3h0
		c-0.6,3.5-1.8,6.2-4.4,7.6c-0.2-0.3-0.5-0.8-0.8-1.1c1.5-0.8,2.5-2.2,3.2-4l-2.7,0.4c0,0.1-0.1,0.2-0.2,0.2l-0.5-1.6l0.8-0.1
		c0.5-0.7,1-1.5,1.5-2.4c-0.6-0.8-1.4-1.6-2.2-2.3l0.7-1.1c0.2,0.1,0.3,0.3,0.5,0.4c0.5-1.1,1.1-2.4,1.4-3.5l1.6,0.6
		c0,0.1-0.2,0.2-0.4,0.2c-0.4,1-1.1,2.5-1.8,3.5c0.3,0.3,0.6,0.6,0.8,0.9c0.4-0.7,0.7-1.3,0.9-1.9l1.5,0.6c-0.1,0.1-0.2,0.2-0.4,0.2
		c-0.7,1.4-1.7,3.2-2.7,4.6l1.5-0.2c0.1-0.5,0.2-1.1,0.3-1.7l1.3,0.2v-6.2h4.2v7.1h-2.9v4.2l1.8-0.6c-0.3-0.8-0.6-1.5-0.9-2.2
		l1.2-0.4c0.7,1.3,1.3,3,1.6,4.3v-12.5h3.7L160.8,564z M154.8,565.4h-1.6v1.6h1.6V565.4z M153.1,569.9h1.6v-1.6h-1.6V569.9z"/>
</g>
<g>
	<rect x="57.9" y="521.2" class="st2" width="16.2" height="57.6"/>
	<path d="M66.4,534.4h7v1.5H58.8v-1.5h6v-12.5l2,0.1c0,0.1-0.1,0.2-0.4,0.3v4.4h5.9v1.5h-5.9V534.4z"/>
	<path d="M59.5,564.4h13.4v13.7h-1.6v-1H61v1h-1.5V564.4z M65.3,565.9H61v4.1h4.3V565.9z M61,571.5v4.1h4.3v-4.1H61z M71.3,569.9
		v-4.1h-4.5v4.1H71.3z M66.8,575.6h4.5v-4.1h-4.5V575.6z"/>
</g>
<rect x="308" y="514" class="st7" width="44" height="72"/>
<rect x="352" y="514" class="st7" width="44" height="72"/>
<line class="st5" x1="419" y1="175" x2="419" y2="321"/>
<g>
	<rect x="159.4" y="13.5" class="st2" width="121.2" height="24"/>
	<path d="M175.1,24.1c0.4,1.4,1,2.6,1.8,3.7c1.4-0.9,3.2-2.1,4.3-3l1.3,1c-0.1,0.1-0.3,0.1-0.5,0.1c-1.2,0.9-2.9,2-4.5,2.8
		c1.5,1.8,3.5,3.1,6.1,3.8c-0.3,0.3-0.7,0.8-0.9,1.2c-4.6-1.4-7.5-4.7-9-9.4c-1,0.9-2.3,1.8-3.6,2.6l0.4,0.1c0,0.1-0.1,0.2-0.4,0.3
		v4.3l6-0.9l0.1,1.2c-3.3,0.6-6.8,1.2-9,1.5c0,0.2-0.1,0.3-0.3,0.3l-0.7-1.6c0.7-0.1,1.5-0.2,2.4-0.3v-4.1c-1.3,0.7-2.6,1.2-3.8,1.6
		c-0.2-0.3-0.6-0.9-0.9-1.2c2.8-0.8,6-2.3,8.2-4.1h-7.9v-1.2h8.8v-2.1h-6.4v-1.2h6.4v-2h-7.6v-1.2h7.6v-2.1l1.8,0.1
		c0,0.1-0.1,0.3-0.4,0.3v1.7h7.9v1.2h-7.9v2h6.7v1.2h-6.7v2.1h8.9v1.2H175.1z"/>
	<path d="M192.6,25.3c-0.1,0.1-0.2,0.2-0.5,0.2c-1,2.4-2.6,4.9-4.2,6.4c-0.3-0.3-0.8-0.6-1.2-0.8c1.6-1.4,3.2-3.9,4.1-6.4
		L192.6,25.3z M206.3,22.5h-8.7v9.4c0,0.9-0.2,1.4-0.9,1.6c-0.7,0.2-1.9,0.2-3.8,0.2c-0.1-0.4-0.3-1-0.5-1.4c0.9,0,1.7,0,2.4,0
		c1.4,0,1.4,0,1.4-0.5v-9.4h-8.6v-1.4h18.7V22.5z M204.4,15.8v1.4h-14.9v-1.4H204.4z M205.2,31.8c-0.6-1.8-2.2-4.6-3.8-6.6l1.3-0.6
		c1.6,2,3.3,4.7,3.9,6.5L205.2,31.8z"/>
	<path d="M218.2,17.8V19h-8v-1.2H218.2z M217.5,26.4v6.2h-5.1v1h-1.3v-7.2H217.5z M211.2,21.8v-1.2h6.3v1.2H211.2z M211.2,24.7v-1.2
		h6.3v1.2H211.2z M217.5,15v1.2h-6.1V15H217.5z M216.2,27.6h-3.8v3.8h3.8V27.6z M221.3,16.2v1.3c0,1.8-0.5,4.1-2.7,5.5
		c-0.2-0.3-0.7-0.8-1-0.9c2.1-1.3,2.4-3.1,2.4-4.6v-2.6h6.6v5.3c0,0.5,0.1,0.5,0.4,0.5h1.2c0.4,0,0.5-0.3,0.5-2.4
		c0.3,0.2,0.8,0.4,1.2,0.5c-0.1,2.5-0.5,3.1-1.6,3.1h-1.5c-1.2,0-1.6-0.4-1.6-1.8v-4H221.3z M227.8,23.4l0.9,0.4
		c0,0.1-0.1,0.2-0.2,0.2c-0.7,2.5-2,4.5-3.6,6.1c1.4,1.1,3.1,1.9,5,2.4c-0.3,0.3-0.7,0.9-0.9,1.2c-2-0.6-3.7-1.5-5.2-2.7
		c-1.6,1.3-3.5,2.2-5.5,2.7c-0.1-0.4-0.5-0.9-0.8-1.2c1.9-0.5,3.7-1.3,5.2-2.4c-1.3-1.4-2.4-3-3.1-4.9l1.3-0.4
		c0.7,1.7,1.6,3.1,2.9,4.4c1.3-1.2,2.3-2.7,3-4.4h-8.3v-1.3h9L227.8,23.4z"/>
	<path d="M243.8,27.2v4.6c1.1,0.2,2.3,0.3,3.7,0.3c0.7,0,4.4,0,5.4,0c-0.2,0.4-0.5,1-0.5,1.4h-4.9c-4.5,0-7.8-0.8-9.7-4.5
		c-0.8,2.1-1.8,3.8-3.3,4.9c-0.2-0.3-0.7-0.7-1.1-0.9c2.3-1.7,3.5-4.9,4-8.8l1.8,0.3c0,0.1-0.2,0.3-0.4,0.3
		c-0.1,0.8-0.3,1.7-0.5,2.5c0.9,2.4,2.3,3.6,4.2,4.3v-9.2H237v-1.3h12.3v1.3h-5.5v3.7h6.4v1.3H243.8z M235.7,18.1v3.2h-1.4v-4.5h8
		v-2.6l1.9,0.1c0,0.1-0.1,0.3-0.4,0.3v2.2h8.1v4.5h-1.4v-3.2H235.7z"/>
	<path d="M275.7,24h-6.1c1.7,1.5,4.2,2.8,6.7,3.4c-0.3,0.3-0.7,0.8-0.9,1.2c-0.5-0.1-1-0.3-1.5-0.5v5.7h-1.3V33h-4.1v0.8h-1.3v-6.9
		h4.2c-1.4-0.8-2.7-1.8-3.6-2.9h-3.3c-1,1.1-2.2,2.1-3.7,2.9h4.3v6.8h-1.3V33h-4.1v0.8h-1.3V28c-0.5,0.2-0.9,0.4-1.4,0.5
		c-0.2-0.3-0.6-0.8-0.9-1c2.6-0.9,4.8-2,6.4-3.5h-6v-1.3h7.2c0.4-0.5,0.8-1.1,1.1-1.7h-6.8v-5.8h6.8v5.7l0.2-0.4l1.7,0.5
		c0,0.1-0.2,0.2-0.5,0.2c-0.3,0.5-0.5,1-0.9,1.5h10.2V24z M263.7,19.9v-3.5h-4.2v3.5H263.7z M263.8,31.8v-3.6h-4.1v3.6H263.8z
		 M274.3,15.2V21h-6.9v-5.8H274.3z M268.5,31.8h4.1v-3.6h-4.1V31.8z M272.9,19.9v-3.5h-4.2v3.5H272.9z"/>
</g>
<rect x="44" y="292" class="st7" width="44" height="72"/>
<rect x="88" y="292" class="st7" width="44" height="72"/>
<rect x="132" y="292" class="st7" width="44" height="72"/>
<rect x="176" y="292" class="st7" width="44" height="72"/>
<rect x="220" y="292" class="st7" width="44" height="72"/>
<rect x="264" y="292" class="st7" width="44" height="72"/>
<g>
	<rect x="235.1" y="299.2" class="st2" width="16.2" height="57.6"/>
	<path d="M241.9,304.5c0,0.1-0.2,0.2-0.4,0.3c-0.6,3.4-1.7,7.6-4.3,10c-0.3-0.3-0.9-0.9-1.3-1.1c2.5-2.2,3.5-6.1,3.9-9.5
		L241.9,304.5z M239.4,300.9h7c0.4,5.3,1.5,10.2,4.5,12.5c-0.4,0.3-1.1,0.8-1.5,1.2c-2.9-2.5-4-7.1-4.5-12.1h-5.6V300.9z"/>
	<path d="M250.4,325.9h-5.6c1.4,2.6,3.8,5.2,6.2,6.5c-0.4,0.3-0.9,0.9-1.2,1.3c-2.1-1.4-4.2-3.7-5.7-6.2v7.9h-1.6v-7.8
		c-1.5,2.6-3.5,4.9-5.7,6.2c-0.3-0.4-0.8-1-1.1-1.3c2.4-1.3,4.8-4,6.1-6.7h-5.6v-1.5h6.2v-3.9l2,0.1c0,0.1-0.1,0.2-0.4,0.3v3.5h6.3
		V325.9z"/>
	<path d="M236.7,345.8c1,0.4,2.4,1.1,3,1.6l-0.8,1.2c-0.6-0.6-1.9-1.3-3-1.8L236.7,345.8z M236.3,355.1c0.8-1.2,2-3.3,2.8-5.2l1.2,1
		c-0.8,1.7-1.8,3.6-2.5,4.9c0.1,0.1,0.1,0.2,0.1,0.3s0,0.2-0.1,0.2L236.3,355.1z M237.6,341.4c1,0.4,2.4,1.2,3,1.7l-0.9,1.2
		c-0.6-0.6-1.9-1.4-2.9-1.9L237.6,341.4z M250,348.8h-3.5c0.8,2.7,2.3,5,4.5,6.1c-0.4,0.3-0.9,1-1.1,1.4c-2.5-1.4-4-4.1-4.9-7.5
		h-1.6c-0.2,2.5-0.8,5.5-2.6,7.5c-0.3-0.3-0.9-0.7-1.3-0.9c2.2-2.5,2.4-6.1,2.4-8.8V342h8.1V348.8z M243.5,343.5v3.8h4.9v-3.8H243.5
		z"/>
</g>
<g>
	<rect x="189.9" y="299.2" class="st2" width="16.2" height="57.6"/>
	<path d="M198.8,302.6h5.9v7.8h-1.6v-0.9h-4.3v5.2h-1.6v-5.2h-4.2v1h-1.5v-7.9h5.7v-2.8l2,0.1c0,0.1-0.1,0.2-0.4,0.3V302.6z
		 M193.1,308h4.2v-4h-4.2V308z M198.8,308h4.3v-4h-4.3V308z"/>
	<path d="M195.4,329.8l0.3,1.3c-1.5,0.6-3.1,1.3-4.2,1.7c0,0.1-0.1,0.2-0.2,0.3l-0.7-1.7c0.6-0.2,1.2-0.4,2-0.6v-4.9h-1.7v-1.4h1.7
		v-3.7l1.8,0.1c0,0.1-0.1,0.2-0.4,0.2v3.4h1.5v0.6c1-1.1,1.8-2.8,2.2-4.6l1.8,0.5c0,0.1-0.2,0.2-0.4,0.2c-0.1,0.4-0.3,0.8-0.4,1.2
		h6.8v1.3h-7.4c-0.2,0.4-0.4,0.7-0.6,1h6.5v4h-7v-3.3c-0.3,0.4-0.6,0.8-0.9,1.1c-0.2-0.2-0.4-0.4-0.7-0.6v0h-1.5v4.5L195.4,329.8z
		 M204.7,333.6h0.9v1.4h-11.3v-1.4h1.9v-4h8.5V333.6z M197.5,330.9v2.8h1.2v-2.8H197.5z M198.4,325.8v1.7h4.1v-1.7H198.4z
		 M201.1,330.9h-1.2v2.8h1.2V330.9z M203.4,330.9h-1.2v2.8h1.2V330.9z"/>
	<path d="M191.5,342.4h13.4v13.7h-1.6v-1H193v1h-1.5V342.4z M197.3,343.9H193v4.1h4.3V343.9z M193,349.5v4.1h4.3v-4.1H193z
		 M203.3,347.9v-4.1h-4.5v4.1H203.3z M198.8,353.6h4.5v-4.1h-4.5V353.6z"/>
</g>
<g>
	<rect x="145.9" y="299.2" class="st2" width="16.2" height="57.6"/>
	<path d="M161.3,305.8h-6c1,3.6,2.9,6.3,6.3,7.4c-0.4,0.3-0.9,1-1.1,1.5c-3.2-1.3-5.1-3.8-6.3-7.2c-0.8,2.9-2.6,5.6-6.4,7.2
		c-0.2-0.4-0.7-1-1.1-1.3c4.1-1.6,5.6-4.5,6.2-7.6H147v-1.6h6.1c0.1-1.5,0.1-3.1,0.1-4.5l2,0.1c0,0.2-0.1,0.3-0.4,0.3
		c0,1.3,0,2.7-0.2,4.1h6.5V305.8z"/>
	<path d="M161.3,329.8v1.4h-6.4v2.6c0,1.6-0.8,1.7-3.9,1.7c-0.1-0.4-0.4-1.1-0.6-1.5c0.7,0,1.4,0,1.9,0c1.1,0,1.2,0,1.2-0.3v-2.5
		H147v-1.4h6.4v-1.2l0.9,0c0.6-0.4,1.2-0.8,1.7-1.2h-6.1v-1.3h7.7l0.3-0.1l1.2,0.7c-0.1,0.1-0.2,0.1-0.3,0.2c-0.9,0.9-2.3,2-3.6,2.7
		v0.2H161.3z M148.7,324.5v2.4h-1.4v-3.7h2.3c-0.3-0.6-0.8-1.3-1.3-1.9l1.3-0.6c0.6,0.7,1.3,1.6,1.6,2.3l-0.4,0.2h2.8
		c-0.2-0.7-0.7-1.6-1.1-2.2l1.3-0.5c0.5,0.8,1.1,1.8,1.3,2.5l-0.6,0.2h2.4c0.6-0.8,1.2-1.8,1.6-2.5c1.6,0.6,1.7,0.6,1.8,0.7
		c-0.1,0.1-0.2,0.2-0.4,0.2c-0.3,0.5-0.8,1.1-1.3,1.7h2.4v3.7h-1.5v-2.4H148.7z"/>
	<path d="M159.5,341.9c-0.1,0.1-0.2,0.2-0.4,0.2c-0.4,0.5-1,1.2-1.6,1.8h4v1.4h-14.5v-1.4h4c-0.4-0.6-1-1.4-1.6-2l1.4-0.6
		c0.7,0.6,1.5,1.6,1.9,2.2l-0.9,0.4h5.1l-0.8-0.4c0.6-0.6,1.3-1.6,1.7-2.3L159.5,341.9z M153.7,346.6v8.2c0,1.4-0.8,1.6-2.9,1.6
		c-0.1-0.4-0.3-1-0.5-1.3c0.3,0,0.6,0,0.9,0c1.1,0,1.1,0,1.1-0.3v-1.8h-2.9v3.4h-1.4v-9.7H153.7z M152.2,347.9h-2.9v1.3h2.9V347.9z
		 M149.3,351.7h2.9v-1.4h-2.9V351.7z M157,346.8c0,0.1-0.1,0.2-0.4,0.3v6.3h-1.5v-6.6L157,346.8z M160.3,354.6
		c0,1.5-0.6,1.7-3.3,1.7c-0.1-0.4-0.3-1-0.5-1.4c0.5,0,0.9,0,1.3,0c1.1,0,1.1,0,1.1-0.3v-8.3l1.9,0.1c0,0.1-0.1,0.2-0.4,0.3V354.6z"
		/>
</g>
<g>
	<rect x="57.9" y="299.2" class="st2" width="16.2" height="57.6"/>
	<path d="M70.2,303.7c0.1,1.9,0.2,3.7,0.5,5.2c0.5-1.1,0.9-2.3,1.2-3.7l1.6,0.4c0,0.1-0.2,0.2-0.4,0.2c-0.5,1.9-1.2,3.7-2.1,5.2
		c0.3,1.4,0.8,2.3,1.2,2.3c0.3,0,0.5-0.8,0.5-2.6c0.3,0.3,0.7,0.7,1.1,0.9c-0.2,2.5-0.7,3.2-1.8,3.2c-0.9,0-1.6-0.9-2-2.3
		c-0.7,0.9-1.6,1.6-2.5,2.2c-0.2-0.3-0.7-0.7-1-1c1.2-0.7,2.2-1.7,3-2.9c-0.4-2-0.7-4.5-0.8-7.1H65v2h2.5l0.7,0v0.4
		c-0.1,3.6-0.1,4.9-0.4,5.3c-0.4,0.5-0.7,0.6-2.3,0.5c0-0.4-0.1-0.9-0.3-1.3c0.5,0.1,0.9,0.1,1.1,0.1c0.2,0,0.3,0,0.4-0.2
		c0.2-0.2,0.2-1.1,0.3-3.6H65c0,1.9-0.1,5.5-2.1,7.8c-0.2-0.3-0.8-0.8-1.1-0.9c0.9-1.1,1.4-2.4,1.6-3.8c-1.5,0.7-3,1.4-4,1.8
		c0,0.1-0.1,0.3-0.2,0.3l-0.7-1.7c0.5-0.2,1.2-0.4,1.9-0.7v-4.9h-1.6v-1.4h1.6v-3.6l1.7,0.1c0,0.1-0.1,0.2-0.4,0.2v3.2h1.5v1.4h-1.5
		v4.4l1.4-0.6l0.3,1.1c0.1-1,0.2-1.9,0.2-2.8v-4.8h5.1c0-0.9,0-1.7,0-2.6l1.8,0.1c0,0.1-0.1,0.2-0.4,0.3c0,0.7,0,1.5,0,2.2h2.3
		c-0.4-0.6-1.1-1.4-1.8-2l1-0.6c0.7,0.6,1.5,1.4,1.9,1.9l-1,0.7h1v1.4H70.2z"/>
	<path d="M73.3,344H67c-0.1,0.1-0.2,0.1-0.4,0.2v2.5l0.2-0.2c1.9,0.9,4.5,2.4,5.7,3.4l-1.1,1.4c-1.1-0.9-3.1-2.2-4.9-3.2v8.2H65V344
		h-6.1v-1.5h14.4V344z"/>
</g>
<rect x="308" y="292" class="st7" width="44" height="72"/>
<rect x="352" y="292" class="st7" width="44" height="72"/>
<g>
	<rect x="101.9" y="299.2" class="st2" width="16.2" height="57.6"/>
	<path d="M110.4,312.4h7v1.5h-14.6v-1.5h6v-12.5l2,0.1c0,0.1-0.1,0.2-0.4,0.3v4.4h5.9v1.5h-5.9V312.4z"/>
	<path d="M103.5,321.6h13.4v13.7h-1.6v-1H105v1h-1.5V321.6z M109.3,323.1H105v4.1h4.3V323.1z M105,328.7v4.1h4.3v-4.1H105z
		 M115.3,327.1v-4.1h-4.5v4.1H115.3z M110.8,332.8h4.5v-4.1h-4.5V332.8z"/>
	<path d="M115.8,350.9h-3.7v3.9c0,1.5-0.7,1.6-3.2,1.6c-0.1-0.4-0.3-1-0.4-1.3c0.6,0,1.2,0,1.6,0c0.6,0,0.7,0,0.7-0.3v-3.8H107V345
		h3.1c0.1-0.5,0.2-1,0.3-1.5h-4.9v3.3c0,2.7-0.2,6.7-1.7,9.4c-0.3-0.2-1-0.6-1.3-0.8c1.4-2.5,1.5-6.1,1.5-8.7v-4.7h13.3v1.4h-5.3
		c-0.1,0.5-0.3,1-0.5,1.5h4.2V350.9z M109.6,352.1c-0.1,0.1-0.2,0.2-0.4,0.1c-0.8,1.2-2,2.5-3.1,3.3c-0.3-0.3-0.8-0.6-1.2-0.8
		c1.1-0.7,2.3-2,3-3.2L109.6,352.1z M108.4,346.2v1.2h5.9v-1.2H108.4z M108.4,348.5v1.2h5.9v-1.2H108.4z M116.4,355.5
		c-0.6-0.9-1.9-2.3-3.1-3.3l1.2-0.7c1.2,0.9,2.5,2.3,3.2,3.2L116.4,355.5z"/>
</g>
<rect x="44" y="607" class="st7" width="44" height="72"/>
<rect x="88" y="607" class="st7" width="44" height="72"/>
<rect x="132" y="607" class="st7" width="44" height="72"/>
<rect x="176" y="607" class="st7" width="44" height="72"/>
<rect x="220" y="607" class="st7" width="44" height="72"/>
<rect x="264" y="607" class="st7" width="44" height="72"/>
<rect x="308" y="607" class="st7" width="44" height="72"/>
<rect x="352" y="607" class="st7" width="44" height="72"/>
<rect x="44" y="700" class="st7" width="44" height="72"/>
<rect x="88" y="700" class="st7" width="44" height="72"/>
<rect x="132" y="700" class="st7" width="44" height="72"/>
<rect x="176" y="700" class="st7" width="44" height="72"/>
<rect x="220" y="700" class="st7" width="44" height="72"/>
<rect x="264" y="700" class="st7" width="44" height="72"/>
<rect x="308" y="700" class="st7" width="44" height="72"/>
<rect x="352" y="700" class="st7" width="44" height="72"/>
<rect x="44" y="793" class="st7" width="44" height="72"/>
<rect x="88" y="793" class="st7" width="44" height="72"/>
<rect x="132" y="793" class="st7" width="44" height="72"/>
<rect x="176" y="793" class="st7" width="44" height="72"/>
<rect x="220" y="793" class="st7" width="44" height="72"/>
<rect x="264" y="793" class="st7" width="44" height="72"/>
<g>
	<rect x="277.9" y="800.2" class="st2" width="16.2" height="57.6"/>
	<path d="M293.4,803.3h-6.6v1.9h5.9v8.9c0,1.6-0.8,1.6-3.4,1.6c-0.1-0.4-0.3-1-0.5-1.4c0.6,0,1.2,0,1.6,0c0.8,0,0.9,0,0.9-0.4v-7.4
		h-4.4v4.6h1.6v-3.4l1.7,0.1c0,0.1-0.1,0.2-0.4,0.2v5.3h-1.3v-0.9h-4.7v1.2h-1.3v-5.9l1.6,0.1c0,0.1-0.1,0.2-0.3,0.2v3.1h1.6v-4.6
		h-4.1v9.1h-1.5v-10.5h5.6v-1.9h-6.4v-1.5h14.4V803.3z"/>
	<path d="M283.1,826.4c0.9,0.5,1.9,1.2,2.4,1.7l-0.9,1.1c-0.5-0.5-1.3-1.1-2.1-1.7c-0.5,1-1.4,1.9-2.8,2.7c-0.2-0.3-0.7-0.8-1-1
		c1.6-0.8,2.4-1.8,2.8-2.8h-2.5v-1.2h2.8c0.1-0.4,0.1-0.8,0.1-1.1h-2.4v-1.2h2.4v-1.4l1.8,0.1c0,0.1-0.1,0.2-0.4,0.3v1h2.1v1.2h-2.1
		c0,0.4,0,0.7-0.1,1.1h2.4v1.2H283.1z M293.4,826.4h-2.6c0.7,1.1,1.7,2,3,2.5c-0.3,0.3-0.7,0.8-0.9,1.2c-1.4-0.6-2.5-1.7-3.2-3.1
		c-0.5,0.9-1.2,1.8-2.6,2.5h4.1v7h-1.6V836h-7v0.5h-1.5v-7h5.3c-0.2-0.3-0.6-0.6-0.8-0.8c1.5-0.6,2.3-1.4,2.7-2.2h-2.1v-1.2h2.5
		c0.1-0.4,0.1-0.8,0.1-1.1h-2.3v-1.2h2.3v-1.4l1.8,0.1c0,0.1-0.1,0.2-0.4,0.3v1h2.6v1.2h-2.6c0,0.3,0,0.7-0.1,1.1h3.2V826.4z
		 M289.6,832.1v-1.3h-7v1.3H289.6z M282.6,834.6h7v-1.4h-7V834.6z"/>
	<path d="M289.7,851.8c0.1,0.7,0.3,1.3,0.5,1.9c0.5-0.5,0.8-1.1,1.1-1.8l1.5,0.5c0,0.1-0.1,0.2-0.3,0.2c-0.4,0.8-1,1.6-1.7,2.4
		c0.4,0.7,0.9,1.1,1.4,1.1c0.4,0,0.6-0.4,0.7-1.8c0.2,0.3,0.7,0.6,1,0.7c-0.2,1.8-0.7,2.3-1.8,2.3c-0.9,0-1.7-0.6-2.3-1.5
		c-0.8,0.6-1.7,1.1-2.7,1.5c-0.2-0.3-0.5-0.7-0.8-1c1.1-0.4,2.1-1,2.9-1.6c-0.3-0.8-0.6-1.8-0.8-2.9h-2.2c0,0.3-0.1,0.5-0.1,0.8
		c0.8,0.5,1.7,1.1,2.1,1.6l-0.8,1c-0.4-0.4-0.9-0.8-1.6-1.3c-0.3,1.3-0.9,2.5-2.1,3.4c-0.2-0.3-0.6-0.8-0.9-1c1.4-1,1.9-2.7,2-4.5
		h-1v-0.6l-0.6,0.9c-0.2-0.5-0.6-1.4-1-2.2v7.4h-1.4v-6.9c-0.4,1.5-1,2.9-1.6,3.8c-0.2-0.4-0.5-1-0.7-1.3c0.9-1.3,1.7-3.8,2.1-5.8
		h-1.8v-1.4h1.9v-3.4l1.7,0.1c0,0.1-0.1,0.2-0.4,0.3v3.1h1.6v1.4h-1.6v1.1c0.4,0.6,1.3,2,1.6,2.6v-0.3h4.4c-0.3-1.7-0.4-3.6-0.4-5.7
		c-0.1,0-0.1,0-0.2,0c-0.6,1-1.4,2.3-2.2,3.4l1.3-0.1c-0.1-0.3-0.2-0.6-0.4-0.9l0.9-0.3c0.4,0.8,0.8,1.8,0.8,2.4l-0.9,0.4
		c0-0.2-0.1-0.4-0.1-0.6c-1,0.1-2,0.3-2.7,0.3c0,0.1-0.1,0.2-0.2,0.2l-0.4-1.3l0.5,0c0.3-0.4,0.7-1,1.1-1.5
		c-0.4-0.5-1.1-1.1-1.7-1.6l0.6-0.8l0.3,0.2c0.4-0.7,0.7-1.6,0.9-2.2l1.3,0.6c0,0.1-0.2,0.2-0.4,0.1c-0.3,0.6-0.7,1.5-1.1,2.1
		c0.2,0.2,0.4,0.4,0.6,0.6c0.4-0.6,0.7-1.2,0.9-1.7l1.1,0.6c0-0.8,0-1.6,0-2.4l1.7,0.1c0,0.1-0.1,0.2-0.4,0.3c0,0.8,0,1.6,0,2.4
		l0.5-0.7c0.1,0.1,0.2,0.1,0.3,0.2c0.4-0.7,0.7-1.6,0.9-2.2l1.3,0.6c0,0.1-0.2,0.2-0.4,0.1c-0.3,0.6-0.8,1.5-1.2,2.1
		c0.2,0.2,0.4,0.4,0.6,0.6c0.4-0.6,0.7-1.2,0.9-1.7l1.2,0.6c0,0.1-0.2,0.1-0.4,0.1c-0.5,0.9-1.3,2.2-2.1,3.2l1.4-0.1
		c-0.1-0.3-0.3-0.6-0.4-0.8l0.9-0.4c0.4,0.8,0.8,1.7,0.9,2.4l-0.9,0.4c0-0.2-0.1-0.4-0.2-0.7l-1.7,0.2c0.6,0.3,1.2,0.8,1.6,1.1
		l-0.3,0.3h1.3v1.2H289.7z M289.2,848.1l0.5,0c0.3-0.4,0.6-0.8,0.9-1.3c-0.4-0.5-1-1.1-1.6-1.5c0.1,1.9,0.2,3.7,0.4,5.3h1.8
		c-0.3-0.3-0.8-0.6-1.1-0.8l0.7-0.6l-1,0.1c0,0.1-0.1,0.2-0.2,0.2L289.2,848.1z"/>
</g>
<rect x="308" y="793" class="st7" width="44" height="72"/>
<rect x="352" y="793" class="st7" width="44" height="72"/>
<g>
	<rect x="102.8" y="800.2" class="st2" width="14.3" height="57.6"/>
	<path d="M115.8,806.8h-4.6l0.3,0.1c0,0.1-0.1,0.2-0.3,0.2c-0.4,2.5-1.3,4.7-4.3,6.2c-0.2-0.2-0.8-0.7-1.1-1
		c2.8-1.4,3.6-3.2,3.9-5.5h-5.2v-1.3h11.3V806.8z M114.4,802.9h-8.6v-1.3h8.6V802.9z"/>
	<path d="M115.1,817.5v9.4h-1.4V826h-7.1v0.9h-1.4v-9.4H115.1z M113.7,824.7v-5.9h-7.1v5.9H113.7z"/>
	<path d="M107.9,830.3l0.9,0.5c0,0.1-0.1,0.1-0.1,0.2c-0.4,1.1-0.9,2.6-1.4,3.7c1.1,1.1,1.4,2,1.4,2.9c0,2.2-1.4,2.2-2.6,2.1
		c0-0.3-0.1-0.8-0.3-1.2c0.2,0,0.4,0,0.6,0c0.7,0,1.1-0.2,1.1-1.1c0-0.7-0.4-1.6-1.4-2.6c0.4-1,0.8-2.3,1.1-3.3h-1.7v11.3h-1.2
		v-12.5h3.5L107.9,830.3z M116.7,833.3H112c0,0.7-0.1,1.3-0.1,2h3.2l0.7,0.1c0,0.1,0,0.3,0,0.4c-0.1,4.4-0.3,6-0.7,6.5
		c-0.4,0.5-0.7,0.6-1.9,0.6c-0.3,0-0.7,0-1.1,0c0-0.4-0.2-0.9-0.4-1.3c0.7,0.1,1.4,0.1,1.7,0.1c0.3,0,0.4,0,0.5-0.2
		c0.3-0.3,0.4-1.6,0.5-4.9h-2.7c-0.3,2.5-1.1,4.9-3.2,6.4c-0.2-0.3-0.6-0.7-0.9-1c2.8-1.8,3-5.2,3.1-8.6h-2.2V832h3.2v-2.3l1.6,0.1
		c0,0.1-0.1,0.2-0.3,0.2v2h3.7V833.3z"/>
	<path d="M111.3,855.3h5.3v1.3h-12.8v-1.3h1.9v-8l1.7,0.1c0,0.1-0.1,0.2-0.3,0.2v7.7h2.9v-11.1l1.8,0.1c0,0.1-0.1,0.2-0.3,0.2v4.2
		h4.4v1.3h-4.4V855.3z"/>
</g>
<g>
	<rect x="314.7" y="815.3" class="st2" width="14.3" height="42.5"/>
	<path d="M316.2,816.6H328v12.2h-1.4v-0.9h-9v0.9h-1.3V816.6z M317.5,826.5h9v-8.6h-9V826.5z M319.3,819.8h5.4v4.8h-5.4V819.8z
		 M323.5,823.5v-2.6h-2.9v2.6H323.5z"/>
	<path d="M318.4,836.4v-1.4c-0.7,0.7-1.5,1.4-2.3,1.8c-0.2-0.3-0.4-0.7-0.7-1c1-0.4,2-1.2,2.7-2.1h-2.6v-1.1h1.4
		c-0.2-0.5-0.5-1.2-0.9-1.8l1-0.4c0.4,0.5,0.8,1.3,1,1.8l-0.9,0.4h1.4V830l1.5,0.1c0,0.1-0.1,0.2-0.3,0.2v2.3h2.8v1.1h-2.8v0.2
		c0.5,0.3,2,1.2,2.3,1.4l-0.7,0.9c-0.3-0.3-1-0.9-1.6-1.3v1.4H318.4z M328.6,833.9h-0.9c-0.3,2.2-0.8,4-1.6,5.5
		c0.7,1.1,1.6,2,2.7,2.6c-0.3,0.3-0.7,0.8-0.9,1.1c-1-0.6-1.9-1.5-2.5-2.5c-0.8,1.1-1.9,1.9-3.2,2.5c-0.1-0.2-0.3-0.6-0.6-0.9
		l-0.3,0.4c-0.4-0.3-0.9-0.6-1.5-1c-0.8,0.7-1.9,1.2-3.5,1.5c-0.1-0.4-0.3-0.8-0.6-1.1c1.2-0.2,2.1-0.5,2.8-1
		c-0.4-0.2-0.8-0.4-1.2-0.5l-0.2,0.3l-1.2-0.4c0.3-0.5,0.6-1.1,1-1.8h-1.4v-1.1h1.9c0.2-0.4,0.4-0.9,0.6-1.2l1.5,0.3
		c0,0.1-0.1,0.2-0.4,0.2c-0.1,0.2-0.2,0.5-0.4,0.8h3.7v1.1h-1.1c-0.2,0.8-0.5,1.4-0.9,2c0.6,0.3,1.1,0.6,1.5,0.9l-0.1,0.1
		c1.1-0.6,1.9-1.4,2.6-2.4c-0.4-1-0.8-2.1-1.1-3.3c-0.2,0.5-0.5,0.9-0.7,1.2c-0.2-0.2-0.7-0.7-1-0.9c1-1.4,1.7-3.9,2.1-6.4l1.6,0.3
		c0,0.1-0.1,0.2-0.3,0.2c-0.1,0.7-0.3,1.4-0.4,2.1h4V833.9z M317.8,839.5c0.5,0.2,1.1,0.4,1.6,0.6c0.3-0.4,0.5-0.9,0.7-1.4h-1.8
		L317.8,839.5z M320,832.2c0.4-0.5,0.8-1.3,1.1-1.8l1.3,0.5c0,0.1-0.2,0.1-0.3,0.1c-0.3,0.5-0.8,1.1-1.2,1.6L320,832.2z
		 M324.3,833.9L324.3,833.9c0.2,1.5,0.6,2.8,1,4c0.5-1.1,0.8-2.5,1-4H324.3z"/>
	<path d="M328.4,850.6h-2.6c0.8,0.9,1.8,1.6,2.8,2c-0.3,0.2-0.7,0.7-0.9,1.1c-0.7-0.3-1.4-0.8-1.9-1.3l0,0.1
		c-0.3,4.7-0.6,4.8-2.7,4.8c-0.3,0-0.6,0-1,0c0-0.4-0.2-0.9-0.4-1.2c0.7,0.1,1.4,0.1,1.6,0.1c0.2,0,0.4,0,0.5-0.2
		c0.2-0.2,0.4-1,0.5-2.8h-2.6c-0.4,1.8-1.2,3.3-4.4,4.1c-0.1-0.3-0.5-0.9-0.7-1.1c2.6-0.6,3.4-1.6,3.7-3h-2.3v-0.7
		c-0.6,0.5-1.2,0.9-1.9,1.3c-0.2-0.3-0.6-0.8-0.8-1.1c1.1-0.5,2.1-1.2,2.8-2.1h-2.6v-1.2h3.5c0.3-0.4,0.6-0.9,0.8-1.4h-3.3v-1.2h1.9
		c-0.2-0.6-0.7-1.4-1.1-2l1.1-0.4c0.5,0.6,1,1.5,1.2,2.1l-0.8,0.3h1.5c0.3-0.8,0.5-1.7,0.7-2.6l1.6,0.3c0,0.1-0.2,0.2-0.4,0.2
		c-0.2,0.7-0.3,1.4-0.6,2.1h2.6l-0.6-0.2c0.4-0.6,1-1.5,1.3-2.2l1.5,0.5c-0.1,0.1-0.2,0.1-0.3,0.1c-0.3,0.5-0.7,1.2-1.1,1.7h2.3v1.2
		h-3.4c0.2,0.5,0.5,1,0.8,1.4h3.5V850.6z M325.1,852l0.3,0.1c-0.4-0.4-0.9-0.9-1.2-1.5H320c-0.4,0.5-0.8,1-1.3,1.4h6.1L325.1,852z
		 M323.5,849.4c-0.3-0.4-0.5-0.9-0.7-1.4h-1.4c-0.2,0.5-0.4,1-0.7,1.4H323.5z"/>
</g>
<g>
	<rect x="330" y="801.2" class="st2" width="14.3" height="42.5"/>
	<path d="M338.3,802c0,0.1-0.2,0.2-0.3,0.2c-0.2,0.4-0.3,0.9-0.6,1.4h4.9v11.2h-1.4V814h-7v0.8h-1.3v-11.2h3.4
		c0.2-0.6,0.4-1.3,0.5-1.9L338.3,802z M340.9,804.8h-7v1.8h7V804.8z M340.9,807.9h-7v1.8h7V807.9z M333.9,812.8h7v-1.8h-7V812.8z"/>
	<path d="M331.5,819.8c0.9,0.3,2.1,0.9,2.8,1.3l-0.8,1.1c-0.6-0.5-1.8-1.1-2.7-1.5L331.5,819.8z M331.2,827.9
		c0.7-1.1,1.8-2.9,2.6-4.5c0.9,0.8,1,0.8,1,0.9c-0.7,1.5-1.7,3.1-2.3,4.2c0,0.1,0.1,0.2,0.1,0.2c0,0.1,0,0.2-0.1,0.2L331.2,827.9z
		 M332.3,815.9c0.9,0.4,2.1,1,2.7,1.5l-0.8,1.1c-0.6-0.5-1.7-1.2-2.7-1.6L332.3,815.9z M339.4,816.3c0,0.1-0.2,0.2-0.4,0.2
		c-0.4,1.3-1.1,2.9-1.8,4.2c1.3,0,2.8-0.1,4.2-0.1c-0.5-0.7-1-1.4-1.5-2l1.1-0.6c1.1,1.3,2.4,3,2.9,4.1l-1.2,0.7
		c-0.1-0.3-0.3-0.7-0.6-1c-2.6,0.1-5.3,0.3-7.1,0.3c0,0.1-0.1,0.2-0.2,0.2l-0.4-1.5c0.4,0,0.9,0,1.4,0c0.7-1.4,1.4-3.4,1.9-4.9
		L339.4,816.3z M335.7,829v-5.8h7v5.8h-1.3v-0.6H337v0.6H335.7z M341.3,824.4H337v2.7h4.4V824.4z"/>
	<path d="M334,835.7v-1c-0.8,0.6-1.6,1.1-2.5,1.5c-0.2-0.3-0.5-0.8-0.8-1.1c2.5-1.1,4.8-3.2,5.9-5l1.8,0.1c0,0.1-0.2,0.2-0.3,0.2
		c1.3,1.8,3.8,3.5,5.9,4.4c-0.3,0.3-0.6,0.8-0.9,1.2c-0.8-0.4-1.7-0.9-2.5-1.5v1.1H334z M331.5,838.4v-1.2h11.7v1.2h-6.7l0.3,0.1
		c-0.1,0.1-0.2,0.2-0.4,0.2c-0.4,0.8-0.9,1.8-1.4,2.7c1.6,0,3.4-0.1,5.2-0.2c-0.5-0.6-1.1-1.3-1.7-1.8l1.1-0.6
		c1.3,1.1,2.6,2.6,3.3,3.7l-1.2,0.8c-0.2-0.3-0.4-0.6-0.6-1c-3.3,0.2-6.7,0.3-8.9,0.4c0,0.1-0.1,0.2-0.2,0.2l-0.5-1.5
		c0.6,0,1.3,0,2.1,0c0.5-0.9,1-2.1,1.4-3H331.5z M340.5,834.4c-1.3-0.9-2.5-2-3.2-3c-0.7,1-1.8,2.1-3,3H340.5z"/>
</g>
<rect x="155" y="909" width="131" height="45"/>
<g>
	<rect x="155" y="910.5" class="st2" width="131" height="37"/>
	<path class="st3" d="M163.5,947.5l0.5-2c3.4,0,3.8-0.5,4.6-3.6l4.7-20.3c0.2-0.9,0.3-1.6,0.3-2.1c0-1.3-0.8-1.6-3.5-1.6l0.5-2.1
		h15.2l-0.5,2.1c-3.2,0-3.6,0.5-4.3,3.7l-2.2,9.3h0.2l12-10.6c0.6-0.5,1.1-1.1,1.1-1.5c0-0.5-0.6-0.8-2.1-0.8l0.5-2.1h11.8l-0.5,2.1
		c-2.2,0-4.6,0.6-7.4,2.9l-8.8,7.5l7.6,14.5c1.2,2.2,1.8,2.6,4.1,2.6l-0.5,2h-10l-6.9-14.5l-2,1.7l-1.6,7.2
		c-0.2,0.9-0.3,1.5-0.3,2.1c0,1.3,0.8,1.6,3.4,1.6l-0.5,2H163.5z"/>
	<path class="st3" d="M217.5,936.5c0,5.4-3.2,11.4-11.3,11.4c-4.6,0-7.4-2.7-7.4-7.3c0-4.7,3.1-11.4,11.1-11.4
		C214.8,929.2,217.5,932.3,217.5,936.5z M203.5,941.8c0,2.8,0.8,5,3.2,5c3.9,0,6-6.2,6-11.7c0-1.8-0.4-4.6-3.1-4.6
		C205.8,930.4,203.5,936.7,203.5,941.8z"/>
	<path class="st3" d="M216,947.6l0.3-1.2c2,0,2.3-0.3,2.7-2.1l2.7-11.6c0.1-0.5,0.2-0.9,0.2-1.2c0-0.8-0.5-0.9-2.1-0.9l0.3-1.2h9.1
		l-0.3,1.2c-2,0-2.3,0.3-2.7,2.1l-2.7,11.6c-0.1,0.4-0.2,0.8-0.2,1.1c0,0.8,0.6,1,2.2,1l-0.2,1.2H216z"/>
	<path class="st3" d="M230.8,947.5l0.5-2c4,0,4.5-0.5,5.3-3.6l5.7-23.6h-3.3c-2.8,0-3.5,0.5-6.4,5.9h-2.8l2.8-8.3h28.3l-1.5,8.3h-3
		c0.1-0.9,0.1-1.7,0.1-2.3c0-3.4-1.1-3.6-3.8-3.6h-3l-5.3,23.6c-0.2,0.8-0.3,1.5-0.3,2c0,1.3,0.9,1.6,4,1.6l-0.5,2H230.8z"/>
	<path class="st3" d="M275.5,936.5c0,5.4-3.2,11.4-11.3,11.4c-4.6,0-7.4-2.7-7.4-7.3c0-4.7,3.1-11.4,11.1-11.4
		C272.8,929.2,275.5,932.3,275.5,936.5z M261.5,941.8c0,2.8,0.8,5,3.2,5c3.9,0,6-6.2,6-11.7c0-1.8-0.4-4.6-3.1-4.6
		C263.8,930.4,261.5,936.7,261.5,941.8z"/>
</g>
<g>
	<path class="st5" d="M419,494c0,5.5-4.5,10-10,10H31c-5.5,0-10-4.5-10-10v-74c0-5.5,4.5-10,10-10h378c5.5,0,10,4.5,10,10V494z"/>
</g>
<g>
	<path class="st5" d="M44,783H31c-5.5,0-10-4.5-10-10V514c0-5.5,4.5-10,10-10h378c5.5,0,10,4.5,10,10v259c0,5.5-4.5,10-10,10h-13"/>
</g>
<g>
	<path class="st5" d="M396,783h13c5.5,0,10,4.5,10,10v73c0,5.5-4.5,10-10,10H31c-5.5,0-10-4.5-10-10v-73c0-5.5,4.5-10,10-10h13"/>
</g>
<rect x="409" y="175" class="st0" width="20" height="66"/>
<g>
	<rect x="410.9" y="179" class="st2" width="16.2" height="57.6"/>
	<path d="M417.2,182.8l0.8,0.2c0,0.1,0,0.2-0.1,0.3c-0.2,2.8-0.7,5-1.4,6.8c0.7,0.6,1.4,1.2,1.8,1.7l-0.9,1.2
		c-0.4-0.5-0.9-1-1.6-1.6c-0.8,1.4-1.8,2.4-3,3.1c-0.2-0.4-0.6-0.9-0.9-1.2c1.1-0.6,2.1-1.6,2.8-2.9c-0.4-0.3-0.9-0.7-1.3-1
		l-0.2,0.6l-1.2-0.7c0.4-1.4,0.8-3.3,1.3-5.3h-1.4v-1.4h1.7c0.2-1.2,0.4-2.3,0.6-3.3l1.8,0.2c0,0.1-0.1,0.2-0.4,0.2
		c-0.2,0.9-0.4,1.8-0.6,2.8h2L417.2,182.8z M414.5,184.2c-0.3,1.3-0.6,2.7-0.9,3.9c0.5,0.3,1.1,0.7,1.6,1c0.6-1.4,0.9-3,1.1-4.9
		H414.5z M424.3,182.2c1,1.3,2.1,3,2.5,4.2l-1.3,0.7c-0.1-0.3-0.2-0.7-0.4-1c-2.4,0.2-4.8,0.4-6.4,0.5c0,0.1-0.1,0.2-0.3,0.2
		l-0.6-1.7l1.3,0c0.6-1.6,1.3-3.8,1.6-5.5l1.9,0.4c0,0.1-0.2,0.2-0.4,0.2c-0.4,1.4-1.1,3.3-1.7,4.8c1.2,0,2.5-0.1,3.8-0.2
		c-0.4-0.7-0.9-1.4-1.3-2L424.3,182.2z M419,194.5v-6.7h6.9v6.6h-1.5v-0.6h-4v0.7H419z M424.4,189.3h-4v3.2h4V189.3z"/>
	<path d="M423.6,207.4h-1.7v2.2h3.7v1.4h-3.7v2.2c0,0.6,0.1,0.6,0.6,0.6h1.6c0.5,0,0.6-0.3,0.6-2c0.3,0.3,0.9,0.5,1.4,0.6
		c-0.1,2.1-0.6,2.7-1.8,2.7h-2c-1.5,0-1.9-0.4-1.9-2V211h-2.6c-0.3,1.7-1.3,3.4-4.4,4.4c-0.2-0.4-0.7-0.9-1-1.2
		c2.5-0.8,3.5-2,3.8-3.2h-3.5v-1.4h3.6v-2.2h-1.6v-0.5c-0.7,0.5-1.5,1-2.3,1.4c-0.2-0.4-0.6-0.9-0.9-1.2c1-0.4,2.1-1.1,3-1.9
		c-0.4-0.5-1.2-1.1-1.8-1.6l1-0.8c0.6,0.4,1.3,1,1.8,1.4c0.5-0.6,1-1.2,1.3-1.9H413V201h4.6l0.2-0.1c0.5,0.2,0.8,0.4,1.1,0.5
		c0,0.1-0.1,0.1-0.2,0.2c-0.6,1.7-1.6,3.2-2.9,4.3h6.8c-1.4-1.4-2.5-3.2-3.3-5.2l1.3-0.4c0.3,0.7,0.6,1.3,0.9,1.9
		c0.6-0.5,1.3-1.2,1.8-1.7l1.3,1c0,0.1-0.1,0.1-0.2,0.1c0,0-0.1,0-0.1,0c-0.5,0.5-1.3,1.2-2,1.7c0.3,0.4,0.6,0.7,0.9,1.1
		c0.8-0.6,1.6-1.3,2.1-1.9l1.3,0.9c-0.1,0.1-0.2,0.1-0.4,0.1c-0.5,0.5-1.4,1.2-2.2,1.7c0.8,0.7,1.8,1.3,2.8,1.7
		c-0.4,0.3-0.8,0.9-1.1,1.3c-0.8-0.4-1.5-0.8-2.2-1.3V207.4z M420.3,209.6v-2.2h-2.5v2.2H420.3z"/>
	<path d="M413.2,231.3c-0.1,1.5-0.3,3.1-0.9,4l-0.8-0.5c0.6-0.8,0.8-2.3,0.8-3.7L413.2,231.3z M418,229.1l0.7,0.1c0,0.1,0,0.3,0,0.4
		c-0.2,4-0.4,5.5-0.8,6c-0.3,0.4-0.6,0.5-1.6,0.5c-0.2,0-0.5,0-0.8,0c0-0.4-0.1-0.9-0.3-1.2c0.5,0.1,1,0.1,1.2,0.1
		c0.2,0,0.3,0,0.5-0.2c0.2-0.2,0.3-0.7,0.4-1.8l-0.5,0.2c-0.1-0.6-0.5-1.5-0.8-2.1l0.7-0.2c0.3,0.5,0.6,1.1,0.8,1.6h0
		c0-0.6,0.1-1.3,0.1-2.2h-3.6v0.4h-1.3v-8.9h6.1v1.2h-2.2v1.2h1.9v1.2h-1.9v1.2h1.9v1.2h-1.9v1.3h1.4L418,229.1z M413.7,234.5
		c0-0.8,0-2-0.2-3l0.7-0.1c0.2,0.9,0.2,2.2,0.2,3L413.7,234.5z M415,223h-1.3v1.2h1.3V223z M415,226.7v-1.2h-1.3v1.2H415z
		 M413.7,227.8v1.3h1.3v-1.3H413.7z M415.3,231.2c0.3,0.8,0.6,1.9,0.6,2.6l-0.8,0.2c0-0.7-0.3-1.8-0.6-2.6L415.3,231.2z
		 M426.1,228.6h-2.5c0.5,2.8,1.4,5.2,3.2,6.3c-0.3,0.3-0.8,0.8-1,1.2c-2.1-1.5-3-4.2-3.6-7.6h-1.2c0,2.4-0.4,5.5-1.8,7.5
		c-0.3-0.2-0.9-0.6-1.2-0.8c1.5-2.1,1.6-5.1,1.6-7.4v-6.2h6.4V228.6z M424.7,223.2h-3.6v4.1h3.6V223.2z"/>
</g>
<rect x="409" y="424" class="st0" width="20" height="66"/>
<g>
	<rect x="410.5" y="428.1" class="st2" width="16.2" height="57.6"/>
	<path d="M426.3,442v1.2h-9.8V442h4.2V441h-3.4v-1.2h3.4v-0.9h-3.1v-5.3h3.1v-0.8H417v-1.2h3.7v-1.1c-1,0.1-2.1,0.2-3.1,0.2
		c0-0.3-0.2-0.7-0.3-1c-0.1,0.1-0.2,0.1-0.4,0.1c-0.5,0.2-1.1,0.5-1.8,0.7v2.7h1.9v1.4h-1.9v0.7c0.4,0.4,1.8,1.9,2.1,2.3l-0.9,1.2
		c-0.2-0.4-0.7-1.2-1.2-1.9v6.6h-1.5v-6.4c-0.5,1.4-1.2,2.8-1.8,3.7c-0.1-0.4-0.5-1.1-0.7-1.4c0.9-1.1,1.8-3.1,2.3-4.8h-2.1v-1.4
		h2.4v-2.3c-0.7,0.2-1.3,0.4-2,0.5c-0.1-0.3-0.3-0.8-0.5-1.1c1.8-0.4,3.7-1.1,4.8-1.8l1.2,1.1l0-0.1c2.5-0.2,5.5-0.5,7.2-1l1.1,1.1
		c-0.1,0.1-0.2,0.1-0.4,0c-0.8,0.2-1.9,0.4-3.1,0.6v1.3h3.9v1.2h-3.9v0.8h3.2v5.3h-3.2v0.9h3.5v1.2h-3.5v1.1H426.3z M419,435.7h1.7
		v-1H419V435.7z M420.7,437.8v-1H419v1H420.7z M422.2,434.8v1h1.8v-1H422.2z M423.9,436.8h-1.8v1h1.8V436.8z"/>
	<path d="M417.6,478l0.3,0l0.8,0.1c0,0.1,0,0.3,0,0.4c-0.2,4-0.3,5.5-0.8,6c-0.4,0.5-0.9,0.6-2,0.6c-0.4,0-0.7,0-1.1,0
		c0-0.4-0.2-1-0.4-1.3c0.7,0.1,1.4,0.1,1.7,0.1c0.3,0,0.4,0,0.6-0.2c0.3-0.3,0.4-1.4,0.5-4.3H415c-0.4,2.1-1.1,4.3-2.7,5.7
		c-0.2-0.4-0.7-0.8-1-1c2.1-1.8,2.5-5.2,2.7-7.7h-1.7v-5.4h6.5v5.4h-3.3c0,0.5-0.1,1.1-0.2,1.7H417.6z M413.5,472.3v2.7h3.7v-2.7
		H413.5z M421.9,472.2c0,0.1-0.1,0.2-0.4,0.3v8.7h-1.5v-9L421.9,472.2z M424,470.5l1.9,0.1c0,0.1-0.1,0.2-0.4,0.3v12.4
		c0,1.7-0.7,2-3.9,1.9c-0.1-0.4-0.3-1.1-0.5-1.6c0.7,0,1.3,0,1.8,0c1,0,1.1,0,1.1-0.4V470.5z"/>
</g>
<rect x="408" y="610" class="st0" width="20" height="66"/>
<g>
	<rect x="410.5" y="614.2" class="st2" width="16.2" height="57.6"/>
	<path d="M413.7,623.2c-0.5,0.6-1,1.1-1.5,1.5c-0.2-0.3-0.7-0.9-1-1.2c1.5-1.2,3.3-3.3,4.4-5.3l1.7,0.7c-0.1,0.1-0.2,0.2-0.4,0.1
		c-0.4,0.8-1,1.5-1.6,2.3l0.3,0.1c0,0.1-0.1,0.2-0.4,0.3v8h-1.5V623.2z M416.6,615.4c-0.1,0.1-0.2,0.2-0.4,0.1
		c-1,1.2-2.7,2.8-4.1,3.8c-0.2-0.3-0.6-0.9-0.8-1.2c1.3-0.9,2.9-2.3,3.7-3.5L416.6,615.4z M426.2,620.3v1.4h-2.4v6.1
		c0,1.6-0.7,1.8-3.9,1.8c-0.1-0.4-0.3-1.1-0.5-1.5c0.6,0,1.2,0,1.7,0c1,0,1.1,0,1.1-0.3v-6.1h-5.2v-1.4H426.2z M425.6,615.7v1.5
		h-7.9v-1.5H425.6z"/>
	<path d="M417.6,665c0,0.1-0.2,0.2-0.4,0.2c-0.4,2.6-1.2,4.8-4.9,6.1c-0.2-0.4-0.6-1-0.9-1.3c3.4-1,4-2.8,4.3-5.2L417.6,665z
		 M421.6,669c0,0.5,0.1,0.6,0.7,0.6h1.8c0.5,0,0.6-0.3,0.7-2.4c0.3,0.3,1,0.5,1.4,0.6c-0.1,2.5-0.6,3.2-2,3.2H422c-1.6,0-2-0.5-2-2
		v-4.4h-8.4v-1.5h6.4v-3h-3.1c-0.4,0.9-0.8,1.7-1.3,2.4c-0.3-0.2-1-0.6-1.3-0.7c1.1-1.3,1.9-3.5,2.3-5.2l1.8,0.4
		c0,0.1-0.2,0.2-0.4,0.2c-0.1,0.4-0.3,0.9-0.5,1.5h2.6v-2.4l1.9,0.1c0,0.1-0.1,0.2-0.4,0.3v2h5.2v1.5h-5.2v3h6.4v1.5h-4.4V669z"/>
</g>
<rect x="409" y="800" class="st1" width="20" height="58"/>
<g>
	<rect x="412.8" y="804" class="st2" width="12.4" height="50"/>
	<path d="M416.2,809.1v3.9c0.8,1.3,2.4,1.3,4.5,1.3c1.4,0,3,0,4.1-0.1c-0.1,0.3-0.3,0.8-0.4,1.1c-0.9,0-2.3,0.1-3.5,0.1
		c-2.6,0-4.1,0-5.2-1.4c-0.5,0.5-1,1-1.5,1.4c0,0.1,0,0.2-0.1,0.2l-0.6-1.2c0.5-0.3,1.1-0.8,1.6-1.3v-2.9h-1.5v-1.1H416.2z
		 M414.6,804.7c0.7,0.5,1.6,1.4,1.9,2l-0.9,0.7c-0.3-0.6-1.2-1.4-1.9-2L414.6,804.7z M420,814.1V813h-3.3v-0.9h3.3v-0.6h-2.5V808
		h2.5v-0.6h-2.9v-0.8h2.9v-0.8l1.4,0.1c0,0.1-0.1,0.2-0.3,0.2v0.6h2.9v0.8h-2.9v0.6h2.6v3.5h-2.6v0.6h3.4v0.9h-3.4v1.1H420z
		 M417.9,805.6v0.8h-1v-1.6h7.5v1.6h-1.1v-0.8H417.9z M418.5,808.8v0.7h1.5v-0.7H418.5z M418.5,810.8h1.5v-0.7h-1.5V810.8z
		 M422.7,808.8h-1.5v0.7h1.5V808.8z M422.7,810.8v-0.7h-1.5v0.7H422.7z"/>
	<path d="M424.1,819.9l0.6,0c0,0.1,0,0.3,0,0.4c-0.1,5.1-0.2,6.8-0.6,7.4c-0.3,0.5-0.7,0.6-1.5,0.6c-0.2,0-0.5,0-0.8,0
		c0-0.3-0.1-0.8-0.3-1.1c0.5,0,1,0,1.2,0c0.2,0,0.3,0,0.4-0.2c0.3-0.3,0.4-1.8,0.5-6h-1.4c0,2.4-0.3,5.3-2.5,7.3
		c-0.2-0.2-0.6-0.6-0.9-0.7c0.1-0.1,0.2-0.2,0.3-0.3c-1.9,0.2-3.8,0.5-5,0.6c0,0.1-0.1,0.2-0.2,0.2l-0.3-1.1c0.7,0,1.6-0.1,2.6-0.2
		v-0.9h-2.2v-0.9h2.2v-0.6H414v-3.6h2.1V820h-2.5v-0.9h2.5v-0.6c-0.7,0.1-1.5,0.1-2.1,0.2c0-0.2-0.2-0.6-0.3-0.8
		c1.8-0.1,3.9-0.3,5.1-0.7l0.8,0.8c0,0-0.1,0-0.1,0c0,0-0.1,0-0.1,0c-0.5,0.1-1.2,0.3-1.9,0.3c0,0-0.1,0-0.2,0.1v0.7h2.5v0.9h-2.5
		v0.6h2.2v3.6h-2.2v0.6h2.3v0.9h-2.3v0.8c0.8-0.1,1.6-0.2,2.3-0.2v0.4c1.4-1.8,1.5-4,1.5-5.8h-1.3v-1.1h1.3v-2.7l1.3,0.1
		c0,0.1-0.1,0.2-0.3,0.2v2.5H424.1z M415,821.4v0.7h1.2v-0.7H415z M415,823.5h1.2v-0.7H415V823.5z M418.4,821.4h-1.3v0.7h1.3V821.4z
		 M418.4,823.5v-0.7h-1.3v0.7H418.4z"/>
	<path d="M417.8,834.2l0.6,0c0,0.1,0,0.2,0,0.4c-0.1,4-0.1,5.4-0.5,5.8c-0.2,0.3-0.5,0.5-1.4,0.5c-0.2,0-0.4,0-0.7,0
		c0-0.3-0.1-0.8-0.3-1c0.5,0,0.9,0,1,0c0.2,0,0.3,0,0.4-0.2c0.2-0.3,0.3-1.4,0.3-4.5H416c-0.2,2.2-0.5,4.3-1.7,5.7
		c-0.2-0.3-0.5-0.6-0.8-0.8c1.3-1.7,1.5-4.6,1.5-7.5h-1.4v-1.1h2.1v-1.9l1.4,0.1c0,0.1-0.1,0.2-0.3,0.2v1.6h2.2v1.1h-2.9
		c0,0.5,0,1,0,1.5h1.5L417.8,834.2z M424.8,833h-0.9c-0.3,1.9-0.8,3.4-1.5,4.7c0.6,1,1.5,1.7,2.5,2.2c-0.3,0.2-0.6,0.7-0.8,1
		c-1-0.5-1.8-1.3-2.4-2.2c-0.7,0.9-1.6,1.6-2.8,2.2c-0.1-0.3-0.4-0.7-0.6-0.9c1.2-0.5,2.1-1.3,2.8-2.3c-0.5-0.9-0.8-1.9-1.1-3
		c-0.2,0.4-0.4,0.8-0.7,1.1c-0.2-0.2-0.6-0.6-0.9-0.7c0.9-1.2,1.6-3.3,1.9-5.4l1.4,0.3c0,0.1-0.1,0.2-0.3,0.2
		c-0.1,0.6-0.2,1.2-0.4,1.8h3.7V833z M420.8,833l0,0.1c0.2,1.3,0.6,2.4,1.1,3.5c0.5-1,0.8-2.2,1-3.6H420.8z"/>
	<path d="M416.4,847.2v3.9c0.8,1.3,2.5,1.3,4.4,1.3c1.4,0,3,0,4.1-0.1c-0.1,0.3-0.3,0.8-0.4,1.2c-0.8,0-2,0.1-3.2,0.1
		c-2.7,0-4.3,0-5.5-1.4c-0.6,0.5-1.2,1-1.6,1.4c0,0.1,0,0.2-0.1,0.2l-0.6-1.3c0.5-0.3,1.2-0.8,1.8-1.3v-2.9h-1.6v-1.1H416.4z
		 M414.6,842.7c0.8,0.5,1.7,1.3,2.1,1.9l-0.9,0.7c-0.4-0.6-1.3-1.4-2-1.9L414.6,842.7z M424.7,848.2h-3c0.5,1.3,1.5,2.3,3.1,2.7
		c-0.3,0.2-0.6,0.7-0.7,1c-1.5-0.5-2.5-1.5-3.1-2.8c-0.4,1-1.3,2-3.1,2.8c-0.1-0.2-0.5-0.6-0.8-0.8c2-0.8,2.7-1.8,3-2.8h-3v-1h3.1
		v-1.5h-2.7v-1h1.4c-0.2-0.5-0.6-1.2-1-1.8l1-0.4c0.5,0.6,0.9,1.4,1.1,1.9l-0.7,0.3h2.8l-0.5-0.2c0.4-0.5,0.9-1.4,1.2-2l1.3,0.5
		c0,0.1-0.2,0.1-0.3,0.1c-0.3,0.5-0.7,1.1-1.1,1.6h1.8v1h-3v1.5h3.4V848.2z"/>
</g>
<g>
	<rect x="321.9" y="428.5" class="st2" width="16.2" height="57.6"/>
	<path class="st6" d="M323.3,429.7H337v14.3h-1.6v-0.7h-10.6v0.7h-1.5V429.7z M324.8,441.8h10.6v-10.6h-10.6V441.8z M334.8,433.7
		v1.3h-2.2v4.7c0,1.4-0.6,1.6-3.2,1.5c-0.1-0.4-0.2-0.9-0.4-1.3c0.5,0,1,0,1.3,0c0.8,0,0.9,0,0.9-0.3V435h-5.7v-1.3h5.7v-2l1.8,0.1
		c0,0.1-0.1,0.2-0.4,0.3v1.7H334.8z M328.4,439c-0.3-0.8-1.1-2-1.8-2.9l1.1-0.6c0.8,0.8,1.6,2,1.9,2.8L328.4,439z"/>
	<path class="st6" d="M327.9,471.2c-0.1,0.1-0.2,0.2-0.4,0.2c-0.4,1.1-0.9,2.1-1.4,3.2l0.5,0.1c0,0.1-0.1,0.2-0.4,0.2v10.6h-1.5
		v-8.7c-0.5,0.8-1.1,1.5-1.6,2.2c-0.1-0.4-0.5-1.1-0.7-1.5c1.5-1.6,2.9-4.3,3.8-6.9L327.9,471.2z M337.5,475.6h-3.8
		c0.9,2.4,2.5,4.9,4.2,6.2c-0.4,0.3-0.9,0.8-1.1,1.2c-1.5-1.4-2.9-3.8-3.9-6.3v4.6h2.4v1.4h-2.4v3h-1.5v-3H329v-1.4h2.3v-4.5
		c-1,2.5-2.4,4.9-4,6.3c-0.3-0.4-0.8-0.9-1.1-1.2c1.7-1.3,3.3-3.8,4.3-6.3H327v-1.5h4.4v-3.4l1.9,0.1c0,0.1-0.1,0.2-0.4,0.3v3h4.7
		V475.6z"/>
</g>
<g>
	<rect x="189.9" y="800.7" class="st2" width="16.2" height="57.6"/>
	<path d="M194,809.7V808c-0.8,0.7-1.7,1.4-2.5,1.8c-0.2-0.3-0.6-0.7-0.9-1c0.9-0.4,2.1-1.1,2.8-1.8h-2.1V804h2.6v-0.7h-3.1v-1.1h3.1
		v-1l1.7,0.1c0,0.1-0.1,0.2-0.4,0.2v0.7h3.2v1.1h-3.2v0.7h2.7v1.7c1-1,1.8-2.7,2.2-4.4l1.6,0.4c0,0.1-0.2,0.2-0.4,0.2
		c-0.1,0.4-0.3,0.9-0.5,1.3h4.4v1.2h-1.1c-0.3,1.2-0.8,2.1-1.5,3c0.8,0.6,1.6,1.1,2.7,1.4c-0.3,0.3-0.7,0.8-0.8,1.2
		c-1.1-0.4-2-1-2.8-1.7c-0.9,0.8-2,1.3-3.2,1.7c-0.2-0.3-0.6-0.8-0.8-1.1c1.2-0.3,2.3-0.9,3.1-1.6c-0.5-0.6-0.9-1.2-1.2-1.8
		c-0.3,0.4-0.6,0.8-0.9,1.2c-0.2-0.3-0.6-0.7-0.9-0.9v1.3h-2.5c0.7,0.3,2.2,1.1,2.6,1.3l-0.7,0.9c-0.4-0.3-1.3-0.9-2-1.3v1.7H194z
		 M198.8,813.5v1.1h6.6v1.2h-14.7v-1.2h2.5V812l1.8,0.1c0,0.1-0.1,0.2-0.4,0.3v2.3h2.6v-3.3h-5.5v-1.2h12.6v1.2h-5.6v1h4.4v1.2
		H198.8z M192.7,804.9v1.2h1.3v-1.2H192.7z M196.7,804.9h-1.4v1.2h1.4V804.9z M200.5,804.3c0.3,0.7,0.8,1.4,1.3,2.1
		c0.5-0.6,0.8-1.3,1-2.1H200.5z"/>
	<path d="M194.2,832.5l2-0.5c0,0.1,0,0.1,0.2,1.3c-1.9,0.6-3.9,1.2-5.2,1.6c0,0.1-0.1,0.2-0.2,0.3l-0.5-1.6c0.6-0.1,1.4-0.3,2.2-0.6
		V829h-1.9v-1.4h1.9v-3.2h-2V823h5.4v1.4h-1.9v3.2h1.8v1.4h-1.8V832.5z M201.5,835.1h4.3v1.4h-10.3v-1.4h4.6v-2.1h-3.5v-1.4h3.5
		v-1.6h-3.5v-7.2h8.5v7.2h-3.6v1.6h3.8v1.4h-3.8V835.1z M198,824.2v1.7h2.1v-1.7H198z M198,828.8h2.1v-1.7H198V828.8z M203.7,825.8
		v-1.7h-2.2v1.7H203.7z M203.7,828.8v-1.7h-2.2v1.7H203.7z"/>
	<path d="M205.4,850.1h-3c0.9,1,2,1.8,3.2,2.3c-0.3,0.3-0.8,0.8-1,1.2c-0.8-0.4-1.6-0.9-2.2-1.5l0,0.1c-0.3,5.4-0.6,5.5-3,5.5
		c-0.3,0-0.7,0-1.1,0c0-0.4-0.2-1-0.4-1.4c0.8,0.1,1.6,0.1,1.9,0.1c0.3,0,0.4,0,0.6-0.2c0.3-0.3,0.4-1.1,0.6-3.2h-3
		c-0.5,2.1-1.4,3.8-5,4.7c-0.1-0.4-0.5-1-0.8-1.3c2.9-0.7,3.9-1.8,4.3-3.5h-2.6v-0.8c-0.7,0.5-1.4,1-2.2,1.4c-0.2-0.4-0.7-0.9-1-1.2
		c1.3-0.6,2.4-1.4,3.2-2.4h-2.9v-1.4h4c0.3-0.5,0.6-1.1,0.9-1.6h-3.8v-1.3h2.1c-0.2-0.7-0.8-1.6-1.2-2.2l1.3-0.5
		c0.6,0.7,1.2,1.7,1.4,2.4l-0.9,0.3h1.7c0.4-1,0.6-2,0.8-3l1.9,0.4c0,0.1-0.2,0.2-0.4,0.2c-0.2,0.8-0.4,1.6-0.7,2.4h3l-0.7-0.3
		c0.5-0.7,1.1-1.7,1.4-2.5l1.7,0.6c-0.1,0.1-0.2,0.2-0.4,0.2c-0.3,0.6-0.8,1.4-1.3,2h2.7v1.3h-3.9c0.3,0.6,0.5,1.1,0.9,1.6h4V850.1z
		 M201.6,851.7l0.4,0.1c-0.5-0.5-1-1.1-1.4-1.7h-4.9c-0.4,0.6-0.9,1.1-1.4,1.6h7L201.6,851.7z M199.7,848.7
		c-0.3-0.5-0.5-1.1-0.8-1.6h-1.6c-0.2,0.6-0.5,1.1-0.8,1.6H199.7z"/>
</g>
<g>
	<rect x="146.8" y="800.7" class="st2" width="14.3" height="57.6"/>
	<path d="M152.3,807c0.4,1.1,1.1,2.1,1.9,2.9c0.8-0.8,1.4-1.8,1.9-3l1.6,0.5c-0.1,0.1-0.2,0.2-0.4,0.2c-0.5,1.2-1.2,2.3-2.1,3.2
		c1.4,1.1,3.3,1.8,5.6,2.2c-0.3,0.3-0.7,0.9-0.9,1.3c-2.4-0.4-4.3-1.3-5.7-2.5c-1.5,1.2-3.4,2-5.7,2.5c-0.2-0.3-0.5-0.9-0.8-1.2
		c2.2-0.4,4.1-1.2,5.5-2.3c-0.9-1-1.6-2.1-2.1-3.4L152.3,807z M153,805.2c-0.1,0.1-0.2,0.1-0.4,0.1c-1,1.2-2.5,2.4-3.8,3.3
		c-0.2-0.3-0.7-0.8-1-1c1.3-0.7,2.8-1.9,3.6-3L153,805.2z M160.4,802.9v1.3h-12.5v-1.3h5.5v-1.8l1.7,0.1c0,0.1-0.1,0.2-0.3,0.2v1.4
		H160.4z M159.4,808.4c-0.7-0.9-2.4-2.3-3.7-3.2l1.1-0.8c1.3,0.9,3,2.1,3.8,3.1L159.4,808.4z"/>
	<path d="M150.9,821.2v4.6c0.9,1.5,2.8,1.5,5.3,1.5c1.6,0,3.5,0,4.8-0.1c-0.2,0.3-0.4,0.9-0.4,1.3c-1,0-2.6,0.1-4.1,0.1
		c-3.1,0-4.8,0-6.1-1.7c-0.7,0.6-1.4,1.2-2,1.6c0,0.1,0,0.2-0.2,0.3l-0.7-1.4c0.6-0.4,1.4-1,2.1-1.5v-3.4h-2v-1.2H150.9z M148.8,816
		c0.9,0.6,2,1.6,2.5,2.2l-1,1c-0.4-0.7-1.5-1.7-2.4-2.4L148.8,816z M153.5,824.3v2.3h-1.2v-7.3h3.7c-0.8-0.4-1.6-0.7-2.4-1l0.9-0.7
		c0.6,0.2,1.2,0.4,1.8,0.7c0.5-0.3,1.1-0.6,1.6-1h-5.5v-1h6.8l0.2-0.1l1,0.6c-0.1,0.1-0.2,0.1-0.3,0.1c-0.7,0.6-1.6,1.3-2.6,1.8
		c0.4,0.2,0.7,0.4,1,0.5h1.8v6.1c0,1.1-0.5,1.3-2.4,1.3c0-0.3-0.2-0.8-0.4-1.1c0.4,0,0.7,0,0.9,0c0.5,0,0.6,0,0.6-0.2v-1h-2.1v2.2
		h-1.2v-2.2H153.5z M155.5,820.2h-2.1v1h2.1V820.2z M153.5,823.3h2.1v-1.1h-2.1V823.3z M158.9,821.3v-1h-2.1v1H158.9z M156.7,823.3
		h2.1v-1.1h-2.1V823.3z"/>
	<path d="M160.5,837.1h-2.5c-0.1,0-0.1,0.1-0.3,0.1c-0.4,1.3-1,2.4-1.8,3.3c1.5,0.6,3,1.2,3.9,1.8l-1,1.1c-1-0.6-2.5-1.3-4.1-1.9
		c-1.5,1-3.4,1.6-5.8,1.9c-0.1-0.3-0.5-0.9-0.7-1.2c2-0.2,3.7-0.6,5-1.4c-0.7-0.3-1.5-0.5-2.2-0.7l-0.2,0.5l-1.4-0.3
		c0.4-0.8,1-2,1.5-3.1h-3.2v-1.3h3.8c0.4-0.8,0.7-1.7,1-2.4l1.7,0.3c0,0.1-0.1,0.2-0.4,0.2c-0.2,0.6-0.5,1.2-0.8,1.9h7.5V837.1z
		 M149.6,833.1v2h-1.3v-3.2h5.2v-1.7l1.8,0.1c0,0.1-0.1,0.2-0.3,0.2v1.3h5.3v3.2h-1.4v-2H149.6z M152.5,837.1
		c-0.3,0.7-0.6,1.3-0.9,1.9c0.9,0.3,1.9,0.6,2.9,0.9c0.8-0.7,1.4-1.7,1.8-2.9H152.5z"/>
	<path d="M154.8,854.2v2.1h5.4v1.2h-12.1v-1.2h5.3v-2.1h-4.1v-1.2h4.1v-2H150V850c-0.5,0.4-1.1,0.7-1.7,1.1
		c-0.2-0.3-0.5-0.8-0.8-1.1c2.4-1.3,4.8-3.5,5.9-5.4l1.8,0.1c0,0.1-0.2,0.2-0.3,0.2c1.4,1.8,3.8,3.8,6,4.8c-0.3,0.3-0.6,0.8-0.9,1.2
		c-0.5-0.3-1.1-0.6-1.6-1v1.1h-3.6v2h4.2v1.2H154.8z M158.2,849.9c-1.6-1.2-3.2-2.6-4.1-3.9c-0.8,1.2-2.3,2.7-4,3.9H158.2z"/>
</g>
<g>
	<rect x="58.8" y="800.2" class="st2" width="14.3" height="57.6"/>
	<path d="M61.9,803.4v2.7c0,2.2-0.2,5.5-1.4,7.7c-0.2-0.2-0.8-0.6-1.1-0.7c1.1-2,1.2-4.9,1.2-7v-3.9h5.3v-1.5l1.7,0.1
		c0,0.1-0.1,0.2-0.3,0.2v1.2h5.3v1.2H61.9z M67.9,810.5v1.8h4.7v1.1H61.9v-1.1h4.7v-1.8h-3.7v-1.1h3.7v-5.4l1.6,0.1
		c0,0.1-0.1,0.2-0.3,0.2v3.6c1-0.8,1.6-2.1,1.9-3.7l1.4,0.2c0,0.1-0.1,0.2-0.3,0.2c-0.1,0.5-0.2,1-0.4,1.4c0.8,0.6,1.7,1.4,2.2,1.9
		l-0.8,0.9c-0.4-0.5-1.1-1.2-1.8-1.8c-0.4,0.7-0.9,1.2-1.5,1.7c-0.1-0.2-0.4-0.4-0.7-0.6v1.3h3.9v1.1H67.9z M65.8,808.5
		c-0.3-0.4-0.8-0.9-1.3-1.5c-0.4,0.7-0.9,1.3-1.5,1.8c-0.2-0.2-0.6-0.6-0.9-0.7c1.2-0.8,1.8-2.2,2-4l1.5,0.2c0,0.1-0.1,0.2-0.3,0.2
		c-0.1,0.5-0.2,1-0.4,1.5c0.6,0.5,1.3,1.2,1.7,1.7L65.8,808.5z"/>
	<path d="M67.3,816.6h5.3v1.2H62v2.8c0,2.2-0.2,5.6-1.4,7.7c-0.2-0.2-0.8-0.6-1.1-0.7c1.2-2,1.3-4.9,1.3-7v-4h5.2v-1.4l1.7,0.1
		c0,0.1-0.1,0.2-0.3,0.2V816.6z M70.6,818.1c0,0.1-0.1,0.2-0.3,0.2v0.8h2.2v1.1h-2.2v2.3H68v1h3.8v2.9c0,1.3-0.6,1.3-2.6,1.3
		c-0.1-0.4-0.2-0.8-0.4-1.1c0.4,0,0.7,0,1,0c0.6,0,0.7,0,0.7-0.2v-1.7H68v3.6h-1.3v-3.6h-2.3v3.2h-1.3v-4.3h3.6v-1h-2.3v-2.3h-2
		v-1.1h2V818l1.6,0.1c0,0.1-0.1,0.2-0.3,0.2v0.8H69V818L70.6,818.1z M69,821.5v-1.2h-3.3v1.2H69z"/>
	<path d="M72.6,839.5h-4.7c1.3,0.9,3.2,1.7,5.1,2.1c-0.3,0.3-0.7,0.8-0.9,1.1c-1.9-0.5-3.9-1.5-5.3-2.7v2.9h-1.3V840
		c-1.3,1.2-3.3,2.2-5.1,2.6c-0.2-0.3-0.5-0.8-0.8-1.1c1.8-0.4,3.8-1.1,5-2.1h-4.7v-1.1h5.7v-1.1l1.7,0.1c0,0.1-0.1,0.2-0.3,0.2v0.8
		h5.8V839.5z M63.2,836l-1.3-0.4c0.4-0.4,0.8-0.9,1.2-1.5H60v-1.1h4c0.3-0.4,0.6-0.9,0.9-1.2l1.5,0.4c-0.1,0.1-0.2,0.2-0.4,0.1
		c-0.2,0.2-0.3,0.4-0.5,0.7h6.9v1.1h-2.7c-0.4,0.7-0.8,1.2-1.4,1.7c1.3,0.4,2.5,0.7,3.4,1.1l-0.8,0.9c-0.9-0.4-2.3-0.8-3.9-1.3
		c-1.3,0.6-3.3,1-6.2,1.2c-0.1-0.3-0.3-0.8-0.4-1c2.1-0.1,3.6-0.3,4.8-0.6c-0.6-0.2-1.2-0.3-1.8-0.4L63.2,836z M61.6,831.8v1h-1.2
		v-2.1h5.1v-1l1.7,0.1c0,0.1-0.1,0.2-0.3,0.2v0.7H72v2.1h-1.3v-1H61.6z M64.1,834.9c0.9,0.2,1.8,0.4,2.7,0.6
		c0.6-0.4,1.1-0.8,1.4-1.4h-3.5L64.1,834.9z"/>
	<path d="M71.9,846.6v9.1c0,1.6-0.7,1.6-3.4,1.6c-0.1-0.4-0.3-1-0.4-1.3c0.6,0,1.1,0,1.6,0h0.6c0.3,0,0.4-0.1,0.4-0.3v-7.8h-3.9
		c0,0.5-0.1,1.1-0.2,1.6c1.3,1.2,3,2.8,3.8,3.8l-1.1,0.9c-0.6-0.9-1.9-2.2-3.1-3.3c-0.5,1.3-1.5,2.6-3.3,3.6c-0.2-0.3-0.6-0.8-1-1
		c2.9-1.5,3.4-3.7,3.5-5.5h-3.6v9.5h-1.3v-10.8h4.9v-2.4l1.7,0.1c0,0.1-0.1,0.2-0.3,0.3v2.1H71.9z"/>
</g>
<g>
	<rect x="234.5" y="800.7" class="st2" width="14.3" height="57.6"/>
	<path d="M238.1,809.6c0,0.5,0.1,0.6,0.4,0.6h1c0.3,0,0.4-0.3,0.4-1.9c0.3,0.2,0.8,0.5,1.2,0.5c-0.1,2-0.4,2.7-1.5,2.7h-1.4
		c-1.2,0-1.5-0.4-1.5-1.9v-3.1l-1.4,0.3l-0.2-1.2l1.7-0.4v-3.7l1.6,0.1c0,0.1-0.1,0.2-0.3,0.2v3.1c1.5-0.3,2.3-0.4,3-0.6
		c0.1,0.3,0.1,0.7,0.2,1.2l-3.2,0.7V809.6z M247.5,802.3l0.7,0.1c0,0.1,0,0.3,0,0.5c-0.2,7.3-0.4,9.7-1,10.5
		c-0.4,0.6-0.9,0.8-2.1,0.8c-0.4,0-0.7,0-1.1,0c0-0.4-0.2-1-0.4-1.4c0.8,0.1,1.5,0.1,1.8,0.1c0.3,0,0.4-0.1,0.6-0.3
		c0.4-0.5,0.7-2.9,0.9-8.9h-2.6c-0.1,3.9-0.4,8.3-4.1,10.7c-0.2-0.3-0.6-0.8-1-1.1c3.4-2,3.7-5.9,3.7-9.7h-2.4v-1.3h6.7L247.5,802.3
		z"/>
	<path d="M237.4,824c-0.5,0.6-1,1.2-1.5,1.7c-0.2-0.3-0.6-0.8-0.8-1.1c1.2-1.1,2.4-3,3.2-4.8l1.5,0.5c-0.1,0.1-0.2,0.2-0.4,0.1
		c-0.3,0.6-0.6,1.3-1,1.9l0.5,0.2c0,0.1-0.1,0.2-0.3,0.2v6h-1.3V824z M244.4,816.1c0,0.1-0.2,0.2-0.3,0.2c-0.1,0.3-0.2,0.5-0.3,0.7
		h4.5v1.1h-2.8c0.3,0.5,0.6,0.9,0.8,1.3l-1.2,0.4c-0.2-0.5-0.6-1.2-1-1.8h-0.9c-0.4,0.7-1,1.3-1.5,1.8c-0.3-0.2-0.7-0.5-1-0.7
		c0.3-0.3,0.7-0.6,1-1h-2.2c0.3,0.5,0.5,1,0.6,1.4l-1.2,0.4c-0.1-0.5-0.4-1.2-0.8-1.9h-0.5c-0.4,0.7-0.8,1.4-1.3,1.9
		c-0.3-0.2-0.7-0.5-1-0.7c0.8-0.9,1.6-2.3,2.1-3.7l1.5,0.4c-0.1,0.1-0.2,0.2-0.3,0.2c-0.1,0.2-0.2,0.5-0.3,0.7h3.5v1.1
		c0.5-0.7,1-1.6,1.3-2.5L244.4,816.1z M246.4,820c0,0.1-0.1,0.2-0.3,0.2v1.4h2.2v1.2h-2.2v4.4c0,1.4-0.6,1.5-3.1,1.5
		c-0.1-0.4-0.3-0.9-0.4-1.3c0.5,0,1,0,1.4,0c0.8,0,0.9,0,0.9-0.3v-4.4h-5.1v-1.2h5.1v-1.7L246.4,820z M242,826.8
		c-0.3-0.7-1-1.8-1.7-2.6l1-0.6c0.7,0.8,1.5,1.8,1.8,2.6L242,826.8z"/>
	<path d="M248.2,840h-4.7c1.3,0.9,3.2,1.7,5.1,2.1c-0.3,0.3-0.7,0.8-0.9,1.1c-1.9-0.5-3.9-1.5-5.3-2.7v2.9h-1.3v-2.8
		c-1.3,1.2-3.3,2.2-5.1,2.6c-0.2-0.3-0.5-0.8-0.8-1.1c1.8-0.4,3.8-1.1,5-2.1h-4.7v-1.1h5.7v-1.1l1.7,0.1c0,0.1-0.1,0.2-0.3,0.2v0.8
		h5.8V840z M238.9,836.5l-1.3-0.4c0.4-0.4,0.8-0.9,1.2-1.5h-3.2v-1.1h4c0.3-0.4,0.6-0.9,0.9-1.2l1.5,0.4c-0.1,0.1-0.2,0.2-0.4,0.1
		c-0.2,0.2-0.3,0.4-0.5,0.7h6.9v1.1h-2.7c-0.3,0.7-0.8,1.2-1.4,1.7c1.3,0.4,2.5,0.7,3.4,1.1l-0.8,0.9c-0.9-0.4-2.3-0.8-3.9-1.3
		c-1.3,0.6-3.3,1-6.2,1.2c-0.1-0.3-0.3-0.8-0.4-1c2.1-0.1,3.6-0.3,4.8-0.6c-0.6-0.2-1.2-0.3-1.8-0.4L238.9,836.5z M237.3,832.3v1
		h-1.2v-2.1h5.1v-1l1.7,0.1c0,0.1-0.1,0.2-0.3,0.2v0.7h5.2v2.1h-1.3v-1H237.3z M239.8,835.4c0.9,0.2,1.8,0.4,2.7,0.6
		c0.6-0.4,1.1-0.8,1.4-1.4h-3.5L239.8,835.4z"/>
	<path d="M247.6,847.1v9.1c0,1.6-0.7,1.6-3.4,1.6c-0.1-0.4-0.3-1-0.4-1.3c0.6,0,1.1,0,1.6,0h0.6c0.3,0,0.4-0.1,0.4-0.3v-7.8h-3.9
		c0,0.5-0.1,1.1-0.2,1.6c1.3,1.2,3,2.8,3.8,3.8l-1.1,0.9c-0.6-0.9-1.9-2.2-3.1-3.3c-0.5,1.3-1.5,2.6-3.3,3.6c-0.2-0.3-0.6-0.8-1-1
		c2.9-1.5,3.4-3.7,3.5-5.5h-3.6v9.5h-1.3v-10.8h4.9v-2.4l1.7,0.1c0,0.1-0.1,0.2-0.3,0.3v2.1H247.6z"/>
</g>
<g>
	<rect x="95.2" y="521.7" class="st2" width="14.3" height="59.2"/>
	<path d="M107.9,527.1c-0.1,0.1-0.1,0.1-0.2,0.2c-1.2,4.3-3.4,6.3-7.6,7.5c-0.2-0.3-0.6-0.8-0.8-1.1c3.7-0.9,6-2.8,6.8-5.7h-8.9
		v-1.3h9.5l0.2-0.1L107.9,527.1z M106.4,524.4h-8v-1.3h8V524.4z"/>
	<path d="M100.2,540.1c0.4,0.9,0.8,2.2,1,3l-1.1,0.3c-0.2-0.9-0.6-2.1-1-3L100.2,540.1z M108.5,540.3c0,0.1-0.2,0.2-0.3,0.2
		c-1.1,4.1-3.2,6.6-6.5,7.9c-0.2-0.2-0.5-0.7-0.8-0.9c3.2-1.2,5.2-3.5,6.1-7.6L108.5,540.3z M103.6,539.5c0.3,0.9,0.6,2.2,0.7,3.1
		l-1.1,0.2c-0.1-0.9-0.4-2.2-0.7-3.1L103.6,539.5z"/>
	<path d="M97.3,556.6c1.3,0.3,2.8,0.8,3.7,1.3l-0.6,1.2c-0.9-0.4-2.5-1-3.7-1.3L97.3,556.6z M97.9,563.3c4.4-1.4,7.5-3.8,9.4-8
		c0.3,0.3,0.9,0.7,1.2,0.9c-1.9,4.1-5.2,6.7-9.4,8.1c0,0.1,0,0.3-0.2,0.4L97.9,563.3z M98.9,553.2c1.3,0.4,2.7,0.9,3.7,1.4l-0.7,1.2
		c-1-0.5-2.4-1.1-3.6-1.4L98.9,553.2z"/>
	<path d="M108.6,576.4v1.1h-9.6v-1.1h5.6c0.2-1.3,0.5-3.8,0.7-5.1h-5.2v-1.1h5.5l0.2-0.1l0.9,0.4c0,0.1-0.1,0.1-0.2,0.2
		c-0.2,1.4-0.6,4.3-0.8,5.7H108.6z"/>
</g>
<g>
	<rect x="110.5" y="521.7" class="st2" width="14.3" height="28.3"/>
	<path d="M118.1,533.2h6.1v1.3h-12.8v-1.3h5.2v-10.9l1.8,0.1c0,0.1-0.1,0.2-0.3,0.3v3.9h5.2v1.3h-5.2V533.2z"/>
	<path d="M112,537.4h11.7v12h-1.4v-0.9h-9v0.9H112V537.4z M117.1,538.7h-3.8v3.6h3.8V538.7z M113.3,543.6v3.6h3.8v-3.6H113.3z
		 M122.3,542.3v-3.6h-3.9v3.6H122.3z M118.4,547.2h3.9v-3.6h-3.9V547.2z"/>
</g>
<g>
	<rect x="183.2" y="549.5" class="st2" width="14.3" height="29.3"/>
	<path d="M196.8,553h-7.5c-0.2,0.5-0.4,0.9-0.7,1.4h6.5v7.1c0,1.5-0.7,1.6-3.2,1.6c0-0.4-0.2-1-0.4-1.3c0.4,0,0.8,0,1.2,0
		c1,0,1.1,0,1.1-0.3v-1.2h-5.3v2.8h-1.3v-6.4c-0.6,0.8-1.4,1.6-2.2,2.2c-0.2-0.3-0.7-0.8-0.9-1.1c1.7-1.2,2.9-2.9,3.8-4.8h-3.4v-1.3
		h4c0.2-0.6,0.4-1.2,0.6-1.8l1.7,0.4c0,0.1-0.2,0.2-0.4,0.2c-0.1,0.4-0.3,0.8-0.4,1.2h7V553z M193.7,556.8v-1.2h-5.3v1.2H193.7z
		 M188.5,559.1h5.3v-1.2h-5.3V559.1z"/>
	<path d="M191.4,565.8c0,0.1-0.1,0.2-0.4,0.3l0,0.5c0.2,2.1,1,8.2,6.2,10.6c-0.4,0.3-0.8,0.8-1,1.1c-3.5-1.7-5.1-4.9-5.8-7.7
		c-0.7,2.7-2.2,5.8-5.5,7.7c-0.2-0.3-0.7-0.7-1.1-1c5.7-3,5.7-9.7,5.8-11.6L191.4,565.8z"/>
</g>
<g>
	<rect x="198.5" y="520.1" class="st2" width="14.3" height="58.7"/>
	<path d="M204.8,527.5l0.3,0l0.7,0.1c0,0.1,0,0.3,0,0.4c-0.1,3.5-0.3,4.8-0.7,5.3c-0.4,0.5-0.8,0.5-1.7,0.5c-0.3,0-0.6,0-1,0
		c0-0.4-0.2-0.8-0.4-1.2c0.6,0.1,1.3,0.1,1.5,0.1c0.2,0,0.4,0,0.5-0.2c0.2-0.3,0.4-1.2,0.5-3.8h-2c-0.3,1.8-1,3.7-2.4,5
		c-0.2-0.3-0.6-0.7-0.9-0.9c1.8-1.6,2.2-4.5,2.3-6.8H200v-4.7h5.7v4.7h-2.9c0,0.5-0.1,1-0.2,1.5H204.8z M201.2,522.4v2.4h3.2v-2.4
		H201.2z M208.6,522.4c0,0.1-0.1,0.2-0.3,0.2v7.6H207v-7.9L208.6,522.4z M210.4,520.9l1.6,0.1c0,0.1-0.1,0.2-0.3,0.2V532
		c0,1.5-0.6,1.7-3.4,1.7c-0.1-0.4-0.3-1-0.5-1.4c0.6,0,1.1,0,1.6,0c0.9,0,1,0,1-0.4V520.9z"/>
	<path d="M205.3,543.3h-4c-0.1,1.7-0.3,3.8-1.3,5.3c-0.2-0.2-0.8-0.7-1-0.8c1-1.5,1.1-3.7,1.1-5.3v-3.7h5.3V543.3z M205.7,536.2v1.2
		h-6.4v-1.2H205.7z M204.1,539.9h-2.7v2.2h2.7V539.9z M212.5,540.3v1.3H211v7h-1.3v-7h-2.1c-0.1,2.2-0.6,5-2.5,7
		c-0.2-0.3-0.7-0.7-1-0.9c2-2,2.2-4.8,2.2-6.9v-3.8l0.9,0.2c1.5-0.4,3-0.9,3.9-1.5l1.2,1.1c-0.1,0.1-0.1,0.1-0.3,0.1
		c-1.1,0.5-2.8,1.1-4.4,1.4v2.1H212.5z"/>
	<path d="M200,554.2c0.8,0.3,1.9,0.9,2.5,1.4l-0.8,1.1c-0.5-0.5-1.6-1.1-2.4-1.5L200,554.2z M199.5,562.5c0.7-1.1,1.6-2.9,2.3-4.6
		l1.1,0.8c-0.6,1.5-1.4,3.1-2,4.2c0.1,0.1,0.1,0.2,0.1,0.2s0,0.1-0.1,0.2L199.5,562.5z M200.7,550.4c0.8,0.4,1.9,1,2.4,1.5
		c-0.3,0.5-0.6,0.8-0.8,1.1c-0.5-0.5-1.6-1.2-2.4-1.6L200.7,550.4z M211.5,561.9h1v1.2h-10.1v-1.2h1.2v-4.4h7.9V561.9z M211,551v5.5
		h-7V551H211z M204.8,558.7v3.2h1.1v-3.2H204.8z M209.7,553.2v-1.1h-4.4v1.1H209.7z M209.7,555.4v-1.1h-4.4v1.1H209.7z M208,558.7
		h-1.1v3.2h1.1V558.7z M210.2,558.7H209v3.2h1.1V558.7z"/>
	<path d="M203.7,572.6l0.8,0.4c0,0.1-0.1,0.1-0.1,0.2c-0.7,2.3-2.5,3.9-4.5,4.8c-0.2-0.3-0.5-0.8-0.8-1.1c1.5-0.5,2.9-1.6,3.6-3
		h-3.1v-1.2h3.8L203.7,572.6z M206.7,571.8c-0.1,0-0.1,0.1-0.2,0.1c0,0.3,0.8,1.5,1.3,2c1-0.6,2-1.4,2.7-2.1l1.3,1
		c-0.1,0.1-0.2,0.1-0.4,0.1c-0.7,0.6-1.8,1.3-2.8,1.8c1.1,0.9,2.4,1.7,4,2c-0.3,0.3-0.7,0.8-0.9,1.2c-2.2-0.7-3.9-2-5.2-3.7v2.8
		c0,1.2-0.4,1.4-3,1.4c-0.1-0.4-0.3-0.9-0.4-1.2c0.5,0,1,0,1.4,0c0.7,0,0.7,0,0.7-0.3v-5.2H201v-5.3h3.5c0.2-0.4,0.5-0.9,0.6-1.3
		l1.7,0.4c0,0.1-0.2,0.2-0.3,0.2c-0.1,0.2-0.3,0.5-0.5,0.8h4.8v5.3H206.7z M202.3,567.5v1.1h7v-1.1H202.3z M202.3,569.6v1.1h7v-1.1
		H202.3z"/>
</g>
<g>
	<rect x="227.2" y="550" class="st2" width="14.3" height="29.3"/>
	<path d="M230.1,555.3v-1.5c-0.4,0.4-0.8,0.8-1.1,1c-0.2-0.2-0.7-0.6-1-0.8c1.1-0.8,2.3-2.2,3-3.6l1.5,0.5c0,0.1-0.2,0.2-0.3,0.1
		c-0.2,0.3-0.4,0.6-0.5,0.9h8.8v1.2H239v2.1h1.9v1.2H239v2.1h1.7v1.2h-12.3v-1.2h1.7v-2.1h-1.9v-1.2H230.1z M231,560.7
		c-0.4,1.1-1,2.2-1.7,2.9l-1.3-0.5c0.7-0.6,1.3-1.7,1.7-2.7L231,560.7z M231.3,553.2v2.1h1.3v-2.1H231.3z M231.3,556.5v2.1h1.3v-2.1
		H231.3z M232.5,563.4c0-0.7-0.1-1.8-0.3-2.7l1.2-0.1c0.2,0.8,0.3,1.9,0.3,2.6L232.5,563.4z M235.2,553.2h-1.4v2.1h1.4V553.2z
		 M235.2,556.5h-1.4v2.1h1.4V556.5z M235.9,563.4c-0.1-0.7-0.4-1.8-0.8-2.7l1.2-0.2c0.4,0.8,0.7,1.9,0.9,2.6L235.9,563.4z
		 M237.7,555.3v-2.1h-1.4v2.1H237.7z M237.7,558.7v-2.1h-1.4v2.1H237.7z M239.7,563.6c-0.3-0.8-1.1-2-1.8-2.9l1.3-0.4
		c0.7,0.9,1.5,2,1.9,2.8L239.7,563.6z"/>
	<path d="M235.4,566.3c0,0.1-0.1,0.2-0.4,0.3l0,0.5c0.2,2.1,1,8.2,6.2,10.6c-0.4,0.3-0.8,0.8-1,1.1c-3.5-1.7-5.1-4.9-5.8-7.7
		c-0.7,2.7-2.2,5.8-5.5,7.7c-0.2-0.3-0.7-0.7-1.1-1c5.7-3,5.7-9.7,5.8-11.6L235.4,566.3z"/>
</g>
<g>
	<rect x="242.5" y="520.7" class="st2" width="14.3" height="58.7"/>
	<path d="M248.8,528l0.3,0l0.7,0.1c0,0.1,0,0.3,0,0.4c-0.1,3.5-0.3,4.8-0.7,5.3c-0.4,0.5-0.8,0.5-1.7,0.5c-0.3,0-0.6,0-1,0
		c0-0.3-0.2-0.8-0.3-1.2c0.6,0.1,1.3,0.1,1.5,0.1c0.2,0,0.4,0,0.5-0.2c0.2-0.3,0.4-1.2,0.5-3.8h-2c-0.3,1.8-1,3.7-2.4,5
		c-0.2-0.3-0.6-0.7-0.9-0.9c1.8-1.6,2.2-4.5,2.3-6.8H244v-4.7h5.7v4.7h-2.9c0,0.5-0.1,1-0.2,1.5H248.8z M245.2,522.9v2.4h3.2v-2.4
		H245.2z M252.6,522.9c0,0.1-0.1,0.2-0.3,0.2v7.6H251v-7.9L252.6,522.9z M254.4,521.4l1.6,0.1c0,0.1-0.1,0.2-0.3,0.2v10.8
		c0,1.5-0.6,1.7-3.4,1.7c-0.1-0.4-0.3-1-0.5-1.4c0.6,0,1.1,0,1.6,0c0.9,0,1,0,1-0.4V521.4z"/>
	<path d="M249.3,543.9h-4c-0.1,1.7-0.3,3.8-1.3,5.3c-0.2-0.2-0.8-0.7-1-0.8c1-1.5,1.1-3.7,1.1-5.3v-3.7h5.3V543.9z M249.7,536.7v1.2
		h-6.4v-1.2H249.7z M248.1,540.5h-2.7v2.2h2.7V540.5z M256.5,540.8v1.3H255v7h-1.3v-7h-2.1c-0.1,2.2-0.6,5-2.5,7
		c-0.2-0.3-0.7-0.7-1-0.9c2-2,2.2-4.8,2.2-6.9v-3.8l0.9,0.2c1.5-0.4,3-0.9,3.9-1.5l1.2,1.1c-0.1,0.1-0.1,0.1-0.3,0.1
		c-1.1,0.5-2.8,1.1-4.4,1.4v2.1H256.5z"/>
	<path d="M244,554.8c0.8,0.3,1.9,0.9,2.5,1.4l-0.8,1.1c-0.5-0.5-1.6-1.1-2.4-1.5L244,554.8z M243.5,563c0.7-1.1,1.6-2.9,2.3-4.6
		l1.1,0.8c-0.6,1.5-1.4,3.1-2,4.2c0.1,0.1,0.1,0.2,0.1,0.2c0,0.1,0,0.1-0.1,0.2L243.5,563z M244.7,551c0.8,0.4,1.9,1,2.4,1.5
		c-0.3,0.5-0.6,0.8-0.8,1.1c-0.5-0.5-1.6-1.2-2.4-1.6L244.7,551z M255.5,562.4h1v1.2h-10.1v-1.2h1.2v-4.4h7.9V562.4z M255,551.5v5.5
		h-7v-5.5H255z M248.8,559.2v3.2h1.1v-3.2H248.8z M253.7,553.7v-1.1h-4.4v1.1H253.7z M253.7,555.9v-1.1h-4.4v1.1H253.7z M252,559.2
		h-1.1v3.2h1.1V559.2z M254.2,559.2H253v3.2h1.1V559.2z"/>
	<path d="M247.7,573.1l0.8,0.3c0,0.1-0.1,0.1-0.1,0.2c-0.7,2.3-2.5,3.9-4.5,4.8c-0.2-0.3-0.5-0.8-0.8-1.1c1.5-0.5,2.9-1.6,3.6-3
		h-3.1v-1.2h3.8L247.7,573.1z M250.7,572.3c-0.1,0-0.1,0.1-0.2,0.1c0,0.4,0.8,1.5,1.3,2c1-0.6,2-1.4,2.7-2.1l1.3,1
		c-0.1,0.1-0.2,0.1-0.4,0.1c-0.7,0.6-1.8,1.3-2.8,1.8c1.1,0.9,2.4,1.7,4,2c-0.3,0.3-0.7,0.8-0.9,1.2c-2.2-0.7-3.9-2-5.2-3.7v2.8
		c0,1.2-0.4,1.4-3,1.4c-0.1-0.4-0.3-0.9-0.4-1.2c0.5,0,1,0,1.4,0c0.7,0,0.7,0,0.7-0.3v-5.2H245V567h3.5c0.2-0.4,0.5-0.9,0.6-1.3
		l1.7,0.4c0,0.1-0.2,0.2-0.3,0.2c-0.1,0.2-0.3,0.5-0.5,0.8h4.8v5.3H250.7z M246.3,568v1.1h7V568H246.3z M246.3,570.1v1.1h7v-1.1
		H246.3z"/>
</g>
<g>
	<rect x="145.9" y="707.5" class="st2" width="16.2" height="57.6"/>
	<path class="st4" d="M161.3,710.7H155c-0.1,0.1-0.2,0.1-0.4,0.2v2.5l0.2-0.2c1.9,0.9,4.5,2.4,5.7,3.4l-1.1,1.4
		c-1.1-0.9-3.1-2.2-4.9-3.2v8.2H153v-12.2h-6.1v-1.5h14.4V710.7z"/>
	<path class="st4" d="M159.7,731.6l1.2,0.7c0,0.1-0.2,0.2-0.3,0.2c-1.8,2.9-5,6.4-8,8.7c1.6,0.8,3.7,0.8,5.9,0.8c1.1,0,2.6,0,3.2,0
		c-0.2,0.4-0.4,1-0.5,1.5h-3.7c-3.5,0-6-0.5-7.6-2.9c-0.5,1-1.1,2-1.7,2.7c0,0.1,0,0.1,0,0.2c0,0.1,0,0.2-0.1,0.3l-1.6-1
		c1.2-1.3,2.4-3.4,3.1-5.1l1.4,0.6c-0.1,0.3-0.3,0.6-0.4,0.9c0.2,0.4,0.5,0.8,0.8,1.2c2.6-1.8,5.3-4.7,6.9-7.1h-10.8v-1.5h5.8v-2.9
		l1.9,0.1c0,0.1-0.1,0.2-0.4,0.3v2.5h4.5L159.7,731.6z"/>
	<path class="st4" d="M160.8,750.3l0.9,0.3c0,0.1-0.1,0.2-0.1,0.2c-0.4,1.4-0.9,3.2-1.5,5c1.4,2.1,1.6,3.2,1.6,4
		c0,2.5-1.3,2.6-2.4,2.6c-0.1,0-0.3,0-0.4,0c0-0.4-0.2-1-0.4-1.4c0.3,0,0.6,0,0.8,0c0.7,0,1.1,0,1.1-1.4c0-0.9-0.4-2-1.6-3.6
		c0.5-1.6,0.9-3.1,1.2-4.4h-1.7v12.9h-1.3v-1.2l-1.2,0.5c-0.1-0.4-0.2-1-0.4-1.6c-1.3,0.5-2.7,1-3.6,1.3c0,0.1-0.1,0.2-0.2,0.3
		l-0.6-1.6l0.9-0.3v-5.3h0c-0.6,3.5-1.8,6.2-4.4,7.6c-0.2-0.3-0.5-0.8-0.8-1.1c1.5-0.8,2.5-2.2,3.2-4l-2.7,0.4
		c0,0.1-0.1,0.2-0.2,0.2l-0.5-1.6l0.8-0.1c0.5-0.7,1-1.5,1.5-2.4c-0.6-0.8-1.4-1.6-2.2-2.3l0.7-1.1c0.2,0.1,0.3,0.3,0.5,0.4
		c0.5-1.1,1.1-2.4,1.4-3.5l1.6,0.6c0,0.1-0.2,0.2-0.4,0.2c-0.4,1-1.1,2.5-1.8,3.5c0.3,0.3,0.6,0.6,0.8,0.9c0.4-0.7,0.7-1.3,0.9-1.9
		l1.5,0.6c-0.1,0.1-0.2,0.2-0.4,0.2c-0.7,1.4-1.7,3.2-2.7,4.6l1.5-0.2c0.1-0.5,0.2-1.1,0.3-1.7l1.3,0.2v-6.2h4.2v7.1h-2.9v4.2
		l1.8-0.6c-0.3-0.8-0.6-1.5-0.9-2.2l1.2-0.4c0.7,1.3,1.3,3,1.6,4.3v-12.5h3.7L160.8,750.3z M154.8,751.6h-1.6v1.6h1.6V751.6z
		 M153.1,756.1h1.6v-1.6h-1.6V756.1z"/>
</g>
<g>
	<rect x="57.9" y="707.5" class="st2" width="16.2" height="57.6"/>
	<path class="st4" d="M66.4,720.7h7v1.5H58.8v-1.5h6v-12.5l2,0.1c0,0.1-0.1,0.2-0.4,0.3v4.4h5.9v1.5h-5.9V720.7z"/>
	<path class="st4" d="M59.5,750.7h13.4v13.7h-1.6v-1H61v1h-1.5V750.7z M65.3,752.1H61v4.1h4.3V752.1z M61,757.7v4.1h4.3v-4.1H61z
		 M71.3,756.2v-4.1h-4.5v4.1H71.3z M66.8,761.9h4.5v-4.1h-4.5V761.9z"/>
</g>
<g>
	<rect x="183.2" y="735.7" class="st2" width="14.3" height="29.3"/>
	<path class="st4" d="M196.8,739.2h-7.5c-0.2,0.5-0.4,0.9-0.7,1.4h6.5v7.1c0,1.5-0.7,1.6-3.2,1.6c0-0.4-0.2-1-0.4-1.3
		c0.4,0,0.8,0,1.2,0c1,0,1.1,0,1.1-0.3v-1.2h-5.3v2.8h-1.3v-6.4c-0.6,0.8-1.4,1.6-2.2,2.2c-0.2-0.3-0.7-0.8-0.9-1.1
		c1.7-1.2,2.9-2.9,3.8-4.8h-3.4V738h4c0.2-0.6,0.4-1.2,0.6-1.8l1.7,0.4c0,0.1-0.2,0.2-0.4,0.2c-0.1,0.4-0.3,0.8-0.4,1.2h7V739.2z
		 M193.7,743v-1.2h-5.3v1.2H193.7z M188.5,745.4h5.3v-1.2h-5.3V745.4z"/>
	<path class="st4" d="M191.4,752c0,0.1-0.1,0.2-0.4,0.3l0,0.5c0.2,2.1,1,8.2,6.2,10.6c-0.4,0.3-0.8,0.8-1,1.1
		c-3.5-1.7-5.1-4.9-5.8-7.7c-0.7,2.7-2.2,5.8-5.5,7.7c-0.2-0.3-0.7-0.7-1.1-1c5.7-3,5.7-9.7,5.8-11.6L191.4,752z"/>
</g>
<g>
	<rect x="198.5" y="706.4" class="st2" width="14.3" height="58.7"/>
	<path class="st4" d="M204.8,713.7l0.3,0l0.7,0.1c0,0.1,0,0.3,0,0.4c-0.1,3.5-0.3,4.8-0.7,5.3c-0.4,0.5-0.8,0.5-1.7,0.5
		c-0.3,0-0.6,0-1,0c0-0.4-0.2-0.8-0.4-1.2c0.6,0.1,1.3,0.1,1.5,0.1c0.2,0,0.4,0,0.5-0.2c0.2-0.3,0.4-1.2,0.5-3.8h-2
		c-0.3,1.8-1,3.7-2.4,5c-0.2-0.3-0.6-0.7-0.9-0.9c1.8-1.6,2.2-4.5,2.3-6.8H200v-4.7h5.7v4.7h-2.9c0,0.5-0.1,1-0.2,1.5H204.8z
		 M201.2,708.7v2.4h3.2v-2.4H201.2z M208.6,708.7c0,0.1-0.1,0.2-0.3,0.2v7.6H207v-7.9L208.6,708.7z M210.4,707.1l1.6,0.1
		c0,0.1-0.1,0.2-0.3,0.2v10.8c0,1.5-0.6,1.7-3.4,1.7c-0.1-0.4-0.3-1-0.5-1.4c0.6,0,1.1,0,1.6,0c0.9,0,1,0,1-0.4V707.1z"/>
	<path class="st4" d="M205.3,729.6h-4c-0.1,1.7-0.3,3.8-1.3,5.3c-0.2-0.2-0.8-0.7-1-0.8c1-1.5,1.1-3.7,1.1-5.3V725h5.3V729.6z
		 M205.7,722.4v1.2h-6.4v-1.2H205.7z M204.1,726.2h-2.7v2.2h2.7V726.2z M212.5,726.6v1.3H211v7h-1.3v-7h-2.1c-0.1,2.2-0.6,5-2.5,7
		c-0.2-0.3-0.7-0.7-1-0.9c2-2,2.2-4.8,2.2-6.9v-3.8l0.9,0.2c1.5-0.4,3-0.9,3.9-1.5l1.2,1.1c-0.1,0.1-0.1,0.1-0.3,0.1
		c-1.1,0.5-2.8,1.1-4.4,1.4v2.1H212.5z"/>
	<path class="st4" d="M200,740.5c0.8,0.3,1.9,0.9,2.5,1.4l-0.8,1.1c-0.5-0.5-1.6-1.1-2.4-1.5L200,740.5z M199.5,748.8
		c0.7-1.1,1.6-2.9,2.3-4.6l1.1,0.8c-0.6,1.5-1.4,3.1-2,4.2c0.1,0.1,0.1,0.2,0.1,0.2s0,0.1-0.1,0.2L199.5,748.8z M200.7,736.7
		c0.8,0.4,1.9,1,2.4,1.5c-0.3,0.5-0.6,0.8-0.8,1.1c-0.5-0.5-1.6-1.2-2.4-1.6L200.7,736.7z M211.5,748.2h1v1.2h-10.1v-1.2h1.2v-4.4
		h7.9V748.2z M211,737.2v5.5h-7v-5.5H211z M204.8,744.9v3.2h1.1v-3.2H204.8z M209.7,739.5v-1.1h-4.4v1.1H209.7z M209.7,741.6v-1.1
		h-4.4v1.1H209.7z M208,744.9h-1.1v3.2h1.1V744.9z M210.2,744.9H209v3.2h1.1V744.9z"/>
	<path class="st4" d="M203.7,758.9l0.8,0.4c0,0.1-0.1,0.1-0.1,0.2c-0.7,2.3-2.5,3.9-4.5,4.8c-0.2-0.3-0.5-0.8-0.8-1.1
		c1.5-0.5,2.9-1.6,3.6-3h-3.1v-1.2h3.8L203.7,758.9z M206.7,758c-0.1,0-0.1,0.1-0.2,0.1c0,0.3,0.8,1.5,1.3,2c1-0.6,2-1.4,2.7-2.1
		l1.3,1c-0.1,0.1-0.2,0.1-0.4,0.1c-0.7,0.6-1.8,1.3-2.8,1.8c1.1,0.9,2.4,1.7,4,2c-0.3,0.3-0.7,0.8-0.9,1.2c-2.2-0.7-3.9-2-5.2-3.7
		v2.8c0,1.2-0.4,1.4-3,1.4c-0.1-0.4-0.3-0.9-0.4-1.2c0.5,0,1,0,1.4,0c0.7,0,0.7,0,0.7-0.3V758H201v-5.3h3.5c0.2-0.4,0.5-0.9,0.6-1.3
		l1.7,0.4c0,0.1-0.2,0.2-0.3,0.2c-0.1,0.2-0.3,0.5-0.5,0.8h4.8v5.3H206.7z M202.3,753.8v1.1h7v-1.1H202.3z M202.3,755.8v1.1h7v-1.1
		H202.3z"/>
</g>
<g>
	<rect x="227.2" y="736.3" class="st2" width="14.3" height="29.3"/>
	<path class="st4" d="M230.1,741.6v-1.5c-0.4,0.4-0.8,0.8-1.1,1c-0.2-0.2-0.7-0.6-1-0.8c1.1-0.8,2.3-2.2,3-3.6l1.5,0.5
		c0,0.1-0.2,0.2-0.3,0.1c-0.2,0.3-0.4,0.6-0.5,0.9h8.8v1.2H239v2.1h1.9v1.2H239v2.1h1.7v1.2h-12.3v-1.2h1.7v-2.1h-1.9v-1.2H230.1z
		 M231,746.9c-0.4,1.1-1,2.2-1.7,2.9l-1.3-0.5c0.7-0.6,1.3-1.7,1.7-2.7L231,746.9z M231.3,739.5v2.1h1.3v-2.1H231.3z M231.3,742.8
		v2.1h1.3v-2.1H231.3z M232.5,749.7c0-0.7-0.1-1.8-0.3-2.7l1.2-0.1c0.2,0.8,0.3,1.9,0.3,2.6L232.5,749.7z M235.2,739.5h-1.4v2.1h1.4
		V739.5z M235.2,742.8h-1.4v2.1h1.4V742.8z M235.9,749.7c-0.1-0.7-0.4-1.8-0.8-2.7l1.2-0.2c0.4,0.8,0.7,1.9,0.9,2.6L235.9,749.7z
		 M237.7,741.6v-2.1h-1.4v2.1H237.7z M237.7,744.9v-2.1h-1.4v2.1H237.7z M239.7,749.8c-0.3-0.8-1.1-2-1.8-2.9l1.3-0.4
		c0.7,0.9,1.5,2,1.9,2.8L239.7,749.8z"/>
	<path class="st4" d="M235.4,752.6c0,0.1-0.1,0.2-0.4,0.3l0,0.5c0.2,2.1,1,8.2,6.2,10.6c-0.4,0.3-0.8,0.8-1,1.1
		c-3.5-1.7-5.1-4.9-5.8-7.7c-0.7,2.7-2.2,5.8-5.5,7.7c-0.2-0.3-0.7-0.7-1.1-1c5.7-3,5.7-9.7,5.8-11.6L235.4,752.6z"/>
</g>
<g>
	<rect x="242.5" y="706.9" class="st2" width="14.3" height="58.7"/>
	<path class="st4" d="M248.8,714.3l0.3,0l0.7,0.1c0,0.1,0,0.3,0,0.4c-0.1,3.5-0.3,4.8-0.7,5.3c-0.4,0.5-0.8,0.5-1.7,0.5
		c-0.3,0-0.6,0-1,0c0-0.3-0.2-0.8-0.3-1.2c0.6,0.1,1.3,0.1,1.5,0.1c0.2,0,0.4,0,0.5-0.2c0.2-0.3,0.4-1.2,0.5-3.8h-2
		c-0.3,1.8-1,3.7-2.4,5c-0.2-0.3-0.6-0.7-0.9-0.9c1.8-1.6,2.2-4.5,2.3-6.8H244V708h5.7v4.7h-2.9c0,0.5-0.1,1-0.2,1.5H248.8z
		 M245.2,709.2v2.4h3.2v-2.4H245.2z M252.6,709.2c0,0.1-0.1,0.2-0.3,0.2v7.6H251v-7.9L252.6,709.2z M254.4,707.7l1.6,0.1
		c0,0.1-0.1,0.2-0.3,0.2v10.8c0,1.5-0.6,1.7-3.4,1.7c-0.1-0.4-0.3-1-0.5-1.4c0.6,0,1.1,0,1.6,0c0.9,0,1,0,1-0.4V707.7z"/>
	<path class="st4" d="M249.3,730.1h-4c-0.1,1.7-0.3,3.8-1.3,5.3c-0.2-0.2-0.8-0.7-1-0.8c1-1.5,1.1-3.7,1.1-5.3v-3.7h5.3V730.1z
		 M249.7,723v1.2h-6.4V723H249.7z M248.1,726.7h-2.7v2.2h2.7V726.7z M256.5,727.1v1.3H255v7h-1.3v-7h-2.1c-0.1,2.2-0.6,5-2.5,7
		c-0.2-0.3-0.7-0.7-1-0.9c2-2,2.2-4.8,2.2-6.9v-3.8l0.9,0.2c1.5-0.4,3-0.9,3.9-1.5l1.2,1.1c-0.1,0.1-0.1,0.1-0.3,0.1
		c-1.1,0.5-2.8,1.1-4.4,1.4v2.1H256.5z"/>
	<path class="st4" d="M244,741c0.8,0.3,1.9,0.9,2.5,1.4l-0.8,1.1c-0.5-0.5-1.6-1.1-2.4-1.5L244,741z M243.5,749.3
		c0.7-1.1,1.6-2.9,2.3-4.6l1.1,0.8c-0.6,1.5-1.4,3.1-2,4.2c0.1,0.1,0.1,0.2,0.1,0.2c0,0.1,0,0.1-0.1,0.2L243.5,749.3z M244.7,737.2
		c0.8,0.4,1.9,1,2.4,1.5c-0.3,0.5-0.6,0.8-0.8,1.1c-0.5-0.5-1.6-1.2-2.4-1.6L244.7,737.2z M255.5,748.7h1v1.2h-10.1v-1.2h1.2v-4.4
		h7.9V748.7z M255,737.8v5.5h-7v-5.5H255z M248.8,745.5v3.2h1.1v-3.2H248.8z M253.7,740v-1.1h-4.4v1.1H253.7z M253.7,742.2V741h-4.4
		v1.1H253.7z M252,745.5h-1.1v3.2h1.1V745.5z M254.2,745.5H253v3.2h1.1V745.5z"/>
	<path class="st4" d="M247.7,759.4l0.8,0.3c0,0.1-0.1,0.1-0.1,0.2c-0.7,2.3-2.5,3.9-4.5,4.8c-0.2-0.3-0.5-0.8-0.8-1.1
		c1.5-0.5,2.9-1.6,3.6-3h-3.1v-1.2h3.8L247.7,759.4z M250.7,758.5c-0.1,0-0.1,0.1-0.2,0.1c0,0.4,0.8,1.5,1.3,2c1-0.6,2-1.4,2.7-2.1
		l1.3,1c-0.1,0.1-0.2,0.1-0.4,0.1c-0.7,0.6-1.8,1.3-2.8,1.8c1.1,0.9,2.4,1.7,4,2c-0.3,0.3-0.7,0.8-0.9,1.2c-2.2-0.7-3.9-2-5.2-3.7
		v2.8c0,1.2-0.4,1.4-3,1.4c-0.1-0.4-0.3-0.9-0.4-1.2c0.5,0,1,0,1.4,0c0.7,0,0.7,0,0.7-0.3v-5.2H245v-5.3h3.5
		c0.2-0.4,0.5-0.9,0.6-1.3l1.7,0.4c0,0.1-0.2,0.2-0.3,0.2c-0.1,0.2-0.3,0.5-0.5,0.8h4.8v5.3H250.7z M246.3,754.3v1.1h7v-1.1H246.3z
		 M246.3,756.4v1.1h7v-1.1H246.3z"/>
</g>
<rect x="397" y="707" class="st1" width="20" height="58"/>
<g>
	<rect x="400.8" y="711" class="st2" width="12.4" height="50"/>
	<path d="M403.4,713.2c0.5,0.9,1,2.3,1.2,3.2l-1.1,0.3c-0.2-0.8-0.7-2.3-1.1-3.2L403.4,713.2z M412.3,713.4c0,0.1-0.2,0.2-0.3,0.2
		c-1.2,4.3-3.2,6.8-7,8.4c-0.2-0.2-0.6-0.7-0.8-0.9c3.6-1.5,5.5-3.8,6.6-8.2L412.3,713.4z M407.2,712.5c0.3,0.9,0.5,2.4,0.6,3.4
		l-1.2,0.2c-0.1-1-0.3-2.4-0.6-3.4L407.2,712.5z"/>
	<path d="M406.5,724.6l1.6,0.1c0,0.1-0.1,0.2-0.3,0.3v9.8h-1.3V724.6z"/>
	<path d="M412.4,739.2c0,0.1-0.1,0.1-0.2,0.2c-1.1,1.6-2.9,3.4-4.6,4.7c0.8,0.6,1.7,1.5,2.3,2.1l-1,0.9c-1.3-1.5-3.5-3.3-5.4-4.5
		l0.8-0.9c0.8,0.4,1.7,1,2.4,1.6c1.4-1,2.9-2.4,3.7-3.6H402v-1.1h9.2l0.2-0.1L412.4,739.2z"/>
	<path d="M403.2,750.6c1.2,0.4,2.7,1,3.5,1.6l-0.6,1.1c-0.9-0.6-2.3-1.2-3.5-1.7L403.2,750.6z M402.9,758.8c4.1-1.3,6.9-3.6,8.4-7
		c0.3,0.3,0.8,0.5,1.1,0.7c-1.5,3.3-4.4,5.8-8.4,7.2c0,0.1-0.1,0.2-0.2,0.3L402.9,758.8z"/>
</g>
<rect x="397" y="520" class="st1" width="20" height="58"/>
<g>
	<rect x="400.8" y="524" class="st2" width="12.4" height="50"/>
	<path d="M411.8,526.1c0,0.1-0.1,0.1-0.2,0.2c-0.5,4.6-2,7.2-6.1,8.8c-0.2-0.3-0.6-0.7-0.9-0.9c3.8-1.5,5.2-3.8,5.6-7.3H404v3.2
		h-1.2v-4.3h7.8l0.1-0.1L411.8,526.1z"/>
	<path d="M403.2,538.3c1.2,0.4,2.7,1,3.5,1.6l-0.6,1.1c-0.9-0.6-2.3-1.2-3.5-1.7L403.2,538.3z M402.9,546.5c4.1-1.3,6.9-3.6,8.4-7
		c0.3,0.3,0.8,0.5,1.1,0.7c-1.5,3.3-4.4,5.8-8.4,7.2c0,0.1-0.1,0.2-0.2,0.3L402.9,546.5z"/>
	<path d="M412.4,552.2c0,0.1-0.1,0.1-0.2,0.2c-1.1,1.6-2.9,3.4-4.6,4.7c0.8,0.6,1.7,1.5,2.3,2.1l-1,0.9c-1.3-1.5-3.5-3.3-5.4-4.5
		l0.8-0.9c0.8,0.4,1.7,1,2.4,1.6c1.4-1,2.9-2.4,3.7-3.6H402v-1.1h9.2l0.2-0.1L412.4,552.2z"/>
	<path d="M403.2,563.6c1.2,0.4,2.7,1,3.5,1.6l-0.6,1.1c-0.9-0.6-2.3-1.2-3.5-1.7L403.2,563.6z M402.9,571.8c4.1-1.3,6.9-3.6,8.4-7
		c0.3,0.3,0.8,0.5,1.1,0.7c-1.5,3.3-4.4,5.8-8.4,7.2c0,0.1-0.1,0.2-0.2,0.3L402.9,571.8z"/>
</g>
<rect x="397" y="299" class="st1" width="20" height="58"/>
<g>
	<rect x="400.8" y="303" class="st2" width="12.4" height="50"/>
	<path d="M404.1,310.7l1.2-0.5l0.2,1c-1.2,0.6-2.5,1.1-3.4,1.5c0,0.1-0.1,0.2-0.2,0.2l-0.5-1.3c0.4-0.1,1-0.3,1.5-0.6v-3.7h-1.3
		v-1.1h1.3v-2.8l1.3,0.1c0,0.1-0.1,0.2-0.3,0.2v2.5h1.2v1.1h-1.2V310.7z M407.4,312.5c0,0.7,0.1,0.8,0.9,0.8h2.7
		c0.7,0,0.8-0.3,0.9-1.6c0.3,0.2,0.7,0.4,1,0.4c-0.2,1.7-0.5,2.2-1.8,2.2h-2.8c-1.5,0-1.9-0.4-1.9-1.8v-3.6l-1.1,0.5l-0.4-1l1.5-0.6
		v-3.2l1.4,0.1c0,0.1-0.1,0.2-0.3,0.2v2.4l1.3-0.6v-3.3l1.3,0.1c0,0.1-0.1,0.2-0.3,0.2v2.6l1.5-0.6l0.3-0.2l0.9,0.3
		c0,0-0.1,0.1-0.2,0.2c0,2.3,0,4-0.1,4.4c-0.1,0.9-0.7,1-1.8,1c0-0.3-0.1-0.7-0.3-1c0.3,0,0.6,0,0.7,0c0.2,0,0.3,0,0.3-0.3
		c0-0.2,0.1-1.4,0.1-3.3l-1.5,0.6v4.5h-1.1v-4l-1.3,0.6V312.5z"/>
	<path d="M404.3,324.6c-0.4,1-1,2-1.7,2.7l-1.1-0.6c0.7-0.5,1.3-1.5,1.7-2.4L404.3,324.6z M411.3,319.6v4.1h-8.3v-4.1h3.5V316
		l1.4,0.1c0,0.1-0.1,0.2-0.3,0.2v1h4.5v1.1h-4.5v1.3H411.3z M410.2,322.7v-2h-6v2H410.2z M405.5,327.2c0-0.6-0.1-1.7-0.3-2.5
		l1.1-0.1c0.2,0.8,0.3,1.8,0.3,2.4L405.5,327.2z M408.5,327.1c-0.1-0.6-0.5-1.6-0.8-2.4l1-0.2c0.4,0.7,0.8,1.7,0.9,2.4L408.5,327.1z
		 M411.8,327.3c-0.3-0.7-1.1-1.8-1.8-2.6l1-0.4c0.7,0.8,1.5,1.8,1.9,2.6L411.8,327.3z"/>
	<path d="M405.1,330.9l0.7,0.4c0,0.1-0.1,0.1-0.2,0.1c-0.3,0.9-0.7,1.7-1.2,2.5c0.1,0.1,0.2,0.3,0.4,0.4c0.3-0.4,0.6-0.9,0.7-1.2
		l0.8,0.6c-0.1,0.1-0.2,0.1-0.3,0.1c-0.2,0.3-0.5,0.8-0.8,1.1c0.3,0.4,0.6,0.7,0.7,0.9l-0.7,0.8c-0.2-0.4-0.6-1-1-1.5v4.8h-1v-4.2
		c-0.4,0.5-0.8,0.9-1.2,1.3c-0.1-0.3-0.4-0.8-0.6-1c1.1-0.9,2.3-2.4,2.9-4h-2.6v-1h1.5v-2.2l1.3,0.1c0,0.1-0.1,0.2-0.3,0.2v1.9h0.7
		L405.1,330.9z M412.8,331.5h-2.9v1h2.5v6.4c0,0.9-0.4,1.2-1.8,1.2c0-0.3-0.2-0.7-0.4-1c0.4,0,0.8,0,0.9,0s0.2,0,0.2-0.2v-1.3h-1.4
		v2.4h-1.1v-2.4h-1.4v2.4h-1.1v-7.5h2.4v-1h-2.9v-1h2.9v-1.7l1.4,0.1c0,0.1-0.1,0.2-0.3,0.2v1.4h1.8c-0.4-0.3-1-0.8-1.5-1l0.6-0.6
		c0.6,0.3,1.3,0.7,1.7,1.1l-0.5,0.6h0.8V331.5z M408.8,333.4h-1.4v1.1h1.4V333.4z M407.5,336.6h1.4v-1.1h-1.4V336.6z M411.3,333.4
		h-1.4v1.1h1.4V333.4z M409.9,336.6h1.4v-1.1h-1.4V336.6z"/>
	<path d="M408,351h4.7v1.1h-11V351h1.6v-5.6l1.5,0.1c0,0.1-0.1,0.2-0.3,0.2v5.3h2.2v-7.7h-4.6v-1.1h10.1v1.1H408v3h3.7v1.1H408V351z
		"/>
</g>
<g>
	<rect x="57.9" y="428.5" class="st2" width="16.2" height="57.6"/>
	<path d="M72.1,433.1c-0.1,0.1-0.2,0.1-0.4,0.1c-0.4,0.7-0.9,1.6-1.4,2.2h3.2v1.2H58.8v-1.2h2.8c-0.2-0.7-0.7-1.7-1.2-2.4l1.2-0.5
		c0.6,0.7,1.1,1.8,1.3,2.5l-1,0.4h1.8v-2.9h-4v-1.3h3.1c-0.3-0.5-0.7-1.2-1.2-1.7l1.3-0.6c0.6,0.6,1.2,1.5,1.5,2.1l-0.3,0.1H68
		c-0.1,0-0.2-0.1-0.3-0.1c0.5-0.6,1.1-1.5,1.4-2.2l1.8,0.7c-0.1,0.1-0.2,0.2-0.4,0.2c-0.3,0.4-0.7,1-1.2,1.5h3.3v1.3h-4.3v2.9h1.6
		l-0.9-0.4c0.5-0.7,1.1-1.8,1.4-2.6L72.1,433.1z M61.4,444v-6.4h9.6v6.3h-1.6v-0.5h-6.5v0.5H61.4z M69.4,438.7h-6.5v1.2h6.5V438.7z
		 M62.8,442.2h6.5V441h-6.5V442.2z M65.2,432.4v2.9h1.7v-2.9H65.2z"/>
	<path d="M62.3,476.9v5.2c1.1,1.8,3.2,1.8,6,1.8c1.8,0,4,0,5.5-0.2c-0.2,0.4-0.4,1.1-0.5,1.5c-1.2,0-3,0.1-4.7,0.1
		c-3.5,0-5.5,0-7-1.9c-0.8,0.7-1.6,1.3-2.3,1.8c0,0.2,0,0.2-0.2,0.3l-0.8-1.6c0.7-0.4,1.6-1.1,2.4-1.7v-3.9h-2.2v-1.4H62.3z
		 M60,470.9c1,0.7,2.2,1.8,2.8,2.6l-1.1,1.1c-0.5-0.8-1.7-1.9-2.7-2.7L60,470.9z M65.3,480.4v2.6h-1.4v-8.4h4.2
		c-0.9-0.4-1.9-0.8-2.7-1.2l1-0.8c0.6,0.2,1.4,0.5,2.1,0.8c0.6-0.3,1.3-0.7,1.8-1.1H64v-1.2h7.8l0.2-0.1l1.1,0.7
		c-0.1,0.1-0.2,0.1-0.3,0.2c-0.8,0.7-1.9,1.5-3,2.1c0.4,0.2,0.8,0.4,1.1,0.6h2v7c0,1.3-0.5,1.5-2.8,1.5c0-0.4-0.2-0.9-0.4-1.2
		c0.4,0,0.8,0,1.1,0c0.6,0,0.7,0,0.7-0.3v-1.2h-2.4v2.5h-1.4v-2.5H65.3z M67.7,475.7h-2.4v1.2h2.4V475.7z M65.3,479.3h2.4V478h-2.4
		V479.3z M71.5,476.9v-1.2h-2.4v1.2H71.5z M69.1,479.3h2.4V478h-2.4V479.3z"/>
</g>
<g>
</g>
<g>
</g>
<g>
</g>
<g>
</g>
<g>
</g>
<g>
</g>
<g>
</g>
<g>
</g>
<g>
</g>
<g>
</g>
<g>
</g>
<g>
</g>
<g>
</g>
<g>
</g>
<g>
</g>
<g>
</g>
<g>
</g>
<g>
</g>
</svg>
