<svg xmlns="http://www.w3.org/2000/svg" width="60" height="60" viewBox="0 0 60 60">
<path d="M32 52C31.3782 52.3077 30.6938 52.4677 30 52.4677C29.3062 52.4677 28.6218 52.3077 28 52L2.59 39.54C2.43259 39.4768 2.26168 39.4547 2.09337 39.4757C1.92505 39.4968 1.76485 39.5603 1.62783 39.6603C1.49082 39.7603 1.3815 39.8935 1.31016 40.0474C1.23881 40.2013 1.20779 40.3708 1.22 40.54L1.61 44.93C1.62455 45.1008 1.68278 45.2651 1.77909 45.4069C1.87541 45.5488 2.00658 45.6635 2.16 45.74L24.94 56.74C25.3865 57.6975 26.097 58.5076 26.988 59.0753C27.879 59.6429 28.9135 59.9444 29.97 59.9444C31.0265 59.9444 32.061 59.6429 32.952 59.0753C33.843 58.5076 34.5535 57.6975 35 56.74L57.78 45.74C57.9334 45.6635 58.0646 45.5488 58.1609 45.4069C58.2572 45.2651 58.3155 45.1008 58.33 44.93L58.73 40.54C58.7422 40.3708 58.7112 40.2013 58.6399 40.0474C58.5685 39.8935 58.4592 39.7603 58.3222 39.6603C58.1852 39.5603 58.025 39.4968 57.8566 39.4757C57.6883 39.4547 57.5174 39.4768 57.36 39.54L32 52Z" fill="#0070AE"/>
<path d="M55.09 34.28C44.94 38.05 35.81 35.53 30.4 44.61C30.3551 44.6824 30.2926 44.7421 30.2182 44.7835C30.1438 44.8249 30.0601 44.8466 29.975 44.8466C29.8898 44.8466 29.8061 44.8249 29.7318 44.7835C29.6574 44.7421 29.5948 44.6824 29.55 44.61C24.13 35.53 15 38.05 4.84997 34.28C4.60651 34.18 4.33343 34.18 4.08997 34.28L2.52997 35C2.35538 35.0795 2.20736 35.2076 2.10357 35.369C1.99977 35.5303 1.94458 35.7181 1.94458 35.91C1.94458 36.1019 1.99977 36.2897 2.10357 36.451C2.20736 36.6124 2.35538 36.7405 2.52997 36.82L28.13 48.25C28.7058 48.507 29.3294 48.6399 29.96 48.6399C30.5906 48.6399 31.2141 48.507 31.79 48.25L57.4 36.83C57.5746 36.7505 57.7226 36.6224 57.8264 36.461C57.9302 36.2997 57.9854 36.1119 57.9854 35.92C57.9854 35.7281 57.9302 35.5403 57.8264 35.379C57.7226 35.2176 57.5746 35.0895 57.4 35.01L55.84 34.3C55.602 34.1962 55.3331 34.1891 55.09 34.28V34.28Z" fill="#1B8600"/>
<path d="M32.5601 4.86999C31.8851 5.64327 31.1602 6.37149 30.3901 7.04999C30.0718 7.32054 29.6678 7.46909 29.2501 7.46909C28.8324 7.46909 28.4283 7.32054 28.1101 7.04999C27.3367 6.37159 26.6085 5.64338 25.9301 4.86999C25.6583 4.55426 25.5089 4.15154 25.5089 3.73499C25.5089 3.31844 25.6583 2.91572 25.9301 2.59999C26.6085 1.8266 27.3367 1.09839 28.1101 0.41999C28.4283 0.149439 28.8324 0.00088501 29.2501 0.00088501C29.6678 0.00088501 30.0718 0.149439 30.3901 0.41999C31.1602 1.09849 31.8851 1.82671 32.5601 2.59999C32.8318 2.91572 32.9812 3.31844 32.9812 3.73499C32.9812 4.15154 32.8318 4.55426 32.5601 4.86999V4.86999Z" fill="#DCD51E"/>
<path d="M49.3301 12.43C48.6465 13.1985 47.9186 13.9264 47.1501 14.61C46.8301 14.8768 46.4267 15.023 46.0101 15.023C45.5934 15.023 45.19 14.8768 44.8701 14.61C44.0991 13.929 43.371 13.201 42.6901 12.43C42.4214 12.1109 42.274 11.7071 42.274 11.29C42.274 10.8728 42.4214 10.4691 42.6901 10.15C43.3745 9.39173 44.1024 8.67385 44.8701 8C45.19 7.73317 45.5934 7.58704 46.0101 7.58704C46.4267 7.58704 46.8301 7.73317 47.1501 8C47.9162 8.68608 48.644 9.41385 49.3301 10.18C49.5891 10.4977 49.7306 10.8951 49.7306 11.305C49.7306 11.7149 49.5891 12.1123 49.3301 12.43Z" fill="#DCD51E"/>
<path d="M38.4001 15.59C37.7225 16.3609 36.9978 17.0889 36.2301 17.77C35.9101 18.0368 35.5067 18.183 35.0901 18.183C34.6734 18.183 34.27 18.0368 33.9501 17.77C33.1767 17.0916 32.4485 16.3634 31.7701 15.59C31.4995 15.2718 31.351 14.8677 31.351 14.45C31.351 14.0323 31.4995 13.6282 31.7701 13.31C32.4698 12.54 33.2144 11.8121 34.0001 11.13C34.32 10.8632 34.7234 10.717 35.1401 10.717C35.5567 10.717 35.9601 10.8632 36.2801 11.13C37.0454 11.8136 37.77 12.5415 38.4501 13.31C38.7137 13.6341 38.8535 14.0415 38.8443 14.4592C38.8351 14.8769 38.6777 15.2777 38.4001 15.59V15.59Z" fill="#C84800"/>
<path d="M14.22 24.52C13.5425 25.2909 12.8177 26.0189 12.05 26.7C11.73 26.9668 11.3266 27.113 10.91 27.113C10.4934 27.113 10.09 26.9668 9.77 26.7C8.99662 26.0216 8.2684 25.2934 7.59 24.52C7.31945 24.2018 7.1709 23.7977 7.1709 23.38C7.1709 22.9623 7.31945 22.5582 7.59 22.24C8.27098 21.469 8.99904 20.741 9.77 20.06C10.0884 19.7939 10.4901 19.6482 10.905 19.6482C11.3199 19.6482 11.7216 19.7939 12.04 20.06C12.811 20.741 13.539 21.469 14.22 22.24C14.4906 22.5582 14.6391 22.9623 14.6391 23.38C14.6391 23.7977 14.4906 24.2018 14.22 24.52V24.52Z" fill="#C84800"/>
<path d="M28.86 33.52C28.1765 34.2885 27.4486 35.0164 26.68 35.7C26.36 35.9668 25.9566 36.113 25.54 36.113C25.1234 36.113 24.72 35.9668 24.4 35.7C23.629 35.019 22.901 34.291 22.22 33.52C21.9495 33.2018 21.8009 32.7977 21.8009 32.38C21.8009 31.9623 21.9495 31.5582 22.22 31.24C22.9036 30.4714 23.6315 29.7435 24.4 29.06C24.72 28.7932 25.1234 28.647 25.54 28.647C25.9566 28.647 26.36 28.7932 26.68 29.06C27.4462 29.7461 28.1739 30.4738 28.86 31.24C29.1268 31.56 29.273 31.9634 29.273 32.38C29.273 32.7966 29.1268 33.2 28.86 33.52V33.52Z" fill="#DCD51E"/>
<path d="M29.0001 20.59C27.5354 22.3229 25.93 23.9318 24.2001 25.4C23.8737 25.6613 23.4681 25.8036 23.0501 25.8036C22.632 25.8036 22.2264 25.6613 21.9001 25.4C20.1646 23.9345 18.5556 22.3255 17.0901 20.59C16.8288 20.2636 16.6864 19.858 16.6864 19.44C16.6864 19.0219 16.8288 18.6163 17.0901 18.29C18.5583 16.5601 20.1671 14.9546 21.9001 13.49C22.224 13.2234 22.6305 13.0777 23.0501 13.0777C23.4696 13.0777 23.8761 13.2234 24.2001 13.49C25.9274 14.9573 27.5327 16.5626 29.0001 18.29C29.2666 18.614 29.4123 19.0205 29.4123 19.44C29.4123 19.8595 29.2666 20.266 29.0001 20.59V20.59Z" fill="#DCD51E"/>
<path d="M44.62 29.39C43.1579 31.1221 41.5522 32.7278 39.82 34.19C39.4961 34.4565 39.0896 34.6023 38.67 34.6023C38.2505 34.6023 37.844 34.4565 37.52 34.19C35.7871 32.7254 34.1783 31.1199 32.71 29.39C32.4488 29.0636 32.3064 28.6581 32.3064 28.24C32.3064 27.8219 32.4488 27.4163 32.71 27.09C34.1756 25.3545 35.7846 23.7455 37.52 22.28C37.8464 22.0187 38.252 21.8763 38.67 21.8763C39.0881 21.8763 39.4937 22.0187 39.82 22.28C41.5524 23.7456 43.158 25.3546 44.62 27.09C44.8866 27.414 45.0323 27.8205 45.0323 28.24C45.0323 28.6595 44.8866 29.066 44.62 29.39Z" fill="#C84800"/>
</svg>
