<svg xmlns="http://www.w3.org/2000/svg" width="32" height="32" viewBox="0 0 23.1 25.6">
<path fill="#e6b31b" d="M21.8,9.9c-0.8-0.8-1.9-1.3-3.1-1.3h-0.4V6.7c0-1.8-0.8-3.5-2-4.7c-1.2-1.2-2.9-2-4.7-2C9.7,0,8,0.8,6.8,2c-1.2,1.2-2,2.9-2,4.7v1.9H4.4c-1.2,0-2.3,0.5-3.1,1.3C0.5,10.7,0,11.8,0,13v8.2c0,1.2,0.5,2.3,1.3,3.1c0.8,0.8,1.9,1.3,3.1,1.3h14.3c1.2,0,2.3-0.5,3.1-1.3c0.8-0.8,1.3-1.9,1.3-3.1V13C23.1,11.8,22.6,10.7,21.8,9.9z M7.7,6.7c0-1.1,0.4-2,1.1-2.7c0.7-0.7,1.6-1.1,2.7-1.1s2,0.4,2.7,1.1c0.7,0.7,1.1,1.6,1.1,2.7v1.9H7.7V6.7z M19.8,22.3c-0.3,0.3-0.6,0.4-1.1,0.4H4.4c-0.4,0-0.8-0.2-1.1-0.4c-0.3-0.3-0.4-0.6-0.4-1.1V13c0-0.4,0.2-0.8,0.4-1.1c0.3-0.3,0.6-0.4,1.1-0.4h14.3c0.4,0,0.8,0.2,1.1,0.4c0.3,0.3,0.4,0.6,0.4,1.1v8.2C20.2,21.6,20,22,19.8,22.3z"/>
<path fill="#e6b31b" d="M11.6,14c-1.2,0-2.1,0.9-2.1,2.1c0,0.9,0.5,1.6,1.2,1.9l-0.5,3h1.3h1.3l-0.5-3c0.7-0.3,1.2-1.1,1.2-1.9C13.6,14.9,12.7,14,11.6,14z"/>
</svg>
