<?xml version="1.0" encoding="utf-8"?>
<!-- Generator: Adobe Illustrator 16.0.0, SVG Export Plug-In . SVG Version: 6.00 Build 0)  -->
<!DOCTYPE svg PUBLIC "-//W3C//DTD SVG 1.1//EN" "http://www.w3.org/Graphics/SVG/1.1/DTD/svg11.dtd">
<svg version="1.1" id="レイヤー_1" xmlns="http://www.w3.org/2000/svg" xmlns:xlink="http://www.w3.org/1999/xlink" x="0px"
	 y="0px" width="205px" height="61.7px" viewBox="0 0 205 61.7" style="enable-background:new 0 0 205 61.7;" xml:space="preserve">
<style type="text/css">
<![CDATA[
	.st0{fill:#FFFFFF;stroke:#000000;stroke-miterlimit:10;}
	.st1{fill:none;stroke:#000000;stroke-miterlimit:10;}
	.st2{fill:none;}
	.st3{fill:#FFBB99;stroke:#000000;stroke-miterlimit:10;}
	.st4{fill:#DDFFDD;stroke:#000000;stroke-miterlimit:10;}
]]>
</style>
<line class="st1" x1="82.1" y1="0.4" x2="75.2" y2="4.5"/>
<line class="st1" x1="82.1" y1="0.4" x2="89" y2="4.5"/>
<line class="st1" x1="89" y1="4.5" x2="83.8" y2="7.5"/>
<line class="st1" x1="75.2" y1="4.5" x2="80.3" y2="7.5"/>
<rect x="70.2" y="8.1" class="st3" width="64.7" height="30"/>
<g>
	<rect x="70.2" y="14.5" class="st2" width="54.7" height="17.2"/>
	<path d="M85.3,18.9l-5.9,11.4h-1.8l6.3-11.8h-7.6v-1.4h9V18.9z"/>
	<path d="M95.4,17v1.6h-0.1c-0.5-0.2-1.1-0.4-1.7-0.4c-1.3,0-2.3,0.4-3.1,1.2s-1.2,2-1.4,3.4c1.1-0.7,2.2-1,3.2-1
		c1.3,0,2.3,0.4,3.1,1.1c0.8,0.7,1.2,1.7,1.2,3.1c0,1.3-0.4,2.4-1.3,3.3s-1.9,1.3-3.2,1.3c-1.5,0-2.7-0.5-3.5-1.6
		c-0.8-1-1.2-2.5-1.2-4.5c0-2.4,0.6-4.3,1.7-5.7c1.1-1.3,2.7-2,4.8-2C94.4,16.8,95,16.9,95.4,17z M89.1,24c0,0.5,0,0.8,0,0.9
		c0,1.4,0.3,2.5,0.8,3.2s1.3,1.1,2.3,1.1c0.9,0,1.6-0.3,2.1-0.8s0.8-1.3,0.8-2.3c0-0.8-0.2-1.5-0.7-2s-1.3-0.8-2.4-0.8
		C90.9,23.2,90,23.5,89.1,24z"/>
	<path d="M99,29.8V28h0.1c1.1,0.7,2.3,1.1,3.6,1.1c0.9,0,1.7-0.3,2.3-0.8c0.6-0.5,0.9-1.3,0.9-2.2c0-1.7-1.2-2.6-3.6-2.6
		c-0.7,0-1.6,0.1-2.7,0.4v-6.8h7.9v1.4h-6.3v3.8c0.8-0.1,1.3-0.1,1.6-0.1c1.6,0,2.8,0.3,3.6,1s1.2,1.7,1.2,3c0,1.3-0.4,2.4-1.3,3.2
		c-0.9,0.8-2,1.2-3.5,1.2C101.4,30.6,100.1,30.3,99,29.8z"/>
	<path d="M118.1,30.3h-7v-1.2h2.8V20H111v-1.1c1.1,0,1.8-0.2,2.3-0.5s0.7-0.8,0.8-1.4h1.2v12.1h2.7V30.3z"/>
</g>
<line class="st1" x1="122.9" y1="0.4" x2="116" y2="4.5"/>
<line class="st1" x1="122.9" y1="0.4" x2="129.8" y2="4.5"/>
<line class="st1" x1="129.8" y1="4.5" x2="124.6" y2="7.5"/>
<line class="st1" x1="116" y1="4.5" x2="121.2" y2="7.5"/>
<rect x="139.8" y="8.1" class="st4" width="64.7" height="30"/>
<g>
	<rect x="139.8" y="14.5" class="st2" width="55" height="17.2"/>
	<path d="M155.2,18.9l-5.9,11.4h-1.8l6.3-11.8h-7.6v-1.4h9V18.9z"/>
	<path d="M157.7,29.8V28h0.1c1.1,0.7,2.3,1.1,3.6,1.1c0.9,0,1.7-0.3,2.3-0.8s0.9-1.3,0.9-2.2c0-1.7-1.2-2.6-3.6-2.6
		c-0.7,0-1.6,0.1-2.7,0.4v-6.8h7.9v1.4h-6.3v3.8c0.8-0.1,1.3-0.1,1.6-0.1c1.6,0,2.8,0.3,3.6,1s1.2,1.7,1.2,3c0,1.3-0.4,2.4-1.3,3.2
		s-2,1.2-3.5,1.2C160,30.6,158.8,30.3,157.7,29.8z"/>
	<path d="M172.9,30.6c-1.6,0-2.7-0.6-3.4-1.7s-1.1-2.9-1.1-5.2s0.4-4.1,1.1-5.2s1.9-1.7,3.4-1.7c1.5,0,2.7,0.6,3.4,1.7
		s1.1,2.9,1.1,5.2c0,2.4-0.4,4.1-1.1,5.2S174.5,30.6,172.9,30.6z M172.9,18.1c-1,0-1.7,0.4-2.2,1.2s-0.7,2.2-0.7,4.4
		c0,2.1,0.2,3.5,0.7,4.3s1.2,1.2,2.2,1.2s1.7-0.4,2.2-1.2s0.7-2.3,0.7-4.4c0-2.1-0.2-3.5-0.7-4.3S173.9,18.1,172.9,18.1z"/>
	<path d="M179.8,29.7V28h0.1c1.2,0.8,2.4,1.2,3.7,1.2c0.9,0,1.7-0.3,2.3-0.8s0.8-1.2,0.8-2.1c0-0.8-0.2-1.5-0.7-1.9
		s-1.3-0.6-2.4-0.6h-0.8v-1.4h0.6c0.9,0,1.7-0.2,2.2-0.6s0.8-1,0.8-1.7c0-0.6-0.2-1.1-0.7-1.4s-1.1-0.5-1.9-0.5
		c-1.2,0-2.4,0.4-3.5,1.2h-0.1v-1.7c1.2-0.6,2.4-0.8,3.7-0.8c1.4,0,2.4,0.3,3.2,0.9s1.1,1.3,1.1,2.3c0,0.7-0.3,1.4-0.7,1.9
		s-1.1,0.9-1.9,1.1v0.1c1.9,0.3,2.9,1.5,2.9,3.3c0,1.2-0.4,2.2-1.3,3s-2,1.2-3.4,1.2C182.4,30.6,181.1,30.3,179.8,29.7z"/>
</g>
<rect x="0.5" y="8.1" class="st3" width="64.7" height="30"/>
<g>
	<rect x="9.8" y="14.5" class="st2" width="55.3" height="17.2"/>
	<path d="M25.3,18.9l-5.9,11.4h-1.8l6.3-11.8h-7.6v-1.4h9V18.9z"/>
	<path d="M35.4,17v1.6h-0.1c-0.5-0.2-1.1-0.4-1.7-0.4c-1.3,0-2.3,0.4-3.1,1.2s-1.2,2-1.4,3.4c1.1-0.7,2.2-1,3.2-1
		c1.3,0,2.3,0.4,3.1,1.1s1.2,1.7,1.2,3.1c0,1.3-0.4,2.4-1.3,3.3s-1.9,1.3-3.2,1.3c-1.5,0-2.7-0.5-3.5-1.6s-1.2-2.5-1.2-4.5
		c0-2.4,0.6-4.3,1.7-5.7s2.7-2,4.8-2C34.4,16.8,35,16.9,35.4,17z M29.1,24c0,0.5,0,0.8,0,0.9c0,1.4,0.3,2.5,0.8,3.2s1.3,1.1,2.3,1.1
		c0.9,0,1.6-0.3,2.1-0.8s0.8-1.3,0.8-2.3c0-0.8-0.2-1.5-0.7-2s-1.3-0.8-2.4-0.8C30.9,23.2,30,23.5,29.1,24z"/>
	<path d="M43.1,30.6c-1.6,0-2.7-0.6-3.4-1.7s-1.1-2.9-1.1-5.2s0.4-4.1,1.1-5.2s1.9-1.7,3.4-1.7c1.5,0,2.7,0.6,3.4,1.7
		s1.1,2.9,1.1,5.2c0,2.4-0.4,4.1-1.1,5.2S44.6,30.6,43.1,30.6z M43.1,18.1c-1,0-1.7,0.4-2.2,1.2s-0.7,2.2-0.7,4.4
		c0,2.1,0.2,3.5,0.7,4.3s1.2,1.2,2.2,1.2s1.7-0.4,2.2-1.2s0.7-2.3,0.7-4.4c0-2.1-0.2-3.5-0.7-4.3S44.1,18.1,43.1,18.1z"/>
	<path d="M58.1,30.3h-7v-1.2h2.8V20H51v-1.1c1.1,0,1.8-0.2,2.3-0.5s0.7-0.8,0.8-1.4h1.2v12.1h2.7V30.3z"/>
</g>
<line class="st1" x1="194.8" y1="8" x2="194.8" y2="38"/>
<line class="st1" x1="9.8" y1="8" x2="9.8" y2="38"/>
<rect x="89.8" y="38.5" class="st0" width="26" height="9"/>
<g>
	<rect x="89.8" y="39.1" class="st2" width="26.1" height="7.1"/>
	<path d="M97.7,40.2l-2.3,5.9h-0.7l-2.3-5.9h0.8l1.9,4.9l1.9-4.9H97.7z"/>
	<path d="M103.2,40.2l-2.3,5.9h-0.7l-2.3-5.9h0.8l1.9,4.9l1.9-4.9H103.2z"/>
	<path d="M108.6,40.2l-2.3,5.9h-0.7l-2.3-5.9h0.8l1.9,4.9l1.9-4.9H108.6z"/>
	<path d="M113.1,40.8h-3v1.8h2.7v0.6h-2.7v2.9h-0.7v-5.9h3.7V40.8z"/>
</g>
<line class="st1" x1="124.8" y1="8" x2="124.8" y2="38"/>
<g>
	<rect x="70.2" y="48.5" class="st2" width="64.6" height="9.6"/>
	<path d="M81.1,57.3h-1.2l-2.4-3H76v3h-0.9V50h2.1c1,0,1.7,0.2,2.1,0.6c0.4,0.4,0.6,0.9,0.6,1.5c0,1-0.5,1.7-1.5,2.1L81.1,57.3z
		 M76,50.7v2.9h1.1c0.7,0,1.2-0.1,1.5-0.4S79,52.5,79,52c0-0.8-0.6-1.3-1.7-1.3H76z"/>
	<path d="M87.8,56.8c-1.1,0.5-1.9,0.7-2.6,0.7c-1.2,0-2.1-0.3-2.7-1c-0.6-0.7-1-1.6-1-2.8c0-1.2,0.3-2.1,1-2.8s1.6-1,2.7-1
		c0.8,0,1.7,0.2,2.6,0.7v1.1h-0.1c-0.8-0.6-1.7-1-2.7-1c-0.8,0-1.4,0.3-1.9,0.8c-0.5,0.5-0.7,1.3-0.7,2.2c0,1,0.2,1.7,0.7,2.3
		c0.5,0.5,1.1,0.8,2,0.8c0.6,0,1.2-0.1,1.7-0.4v-1.9h-1.9v-0.8h2.8V56.8z"/>
	<path d="M93.3,49.9v0.9h-0.1c-0.3-0.1-0.6-0.2-1-0.2c-0.7,0-1.3,0.2-1.7,0.7s-0.7,1.1-0.8,1.9c0.6-0.4,1.2-0.6,1.8-0.6
		c0.7,0,1.3,0.2,1.7,0.6c0.4,0.4,0.7,1,0.7,1.7c0,0.7-0.2,1.3-0.7,1.8s-1.1,0.7-1.8,0.7c-0.8,0-1.5-0.3-1.9-0.9
		c-0.5-0.6-0.7-1.4-0.7-2.5c0-1.4,0.3-2.4,0.9-3.1c0.6-0.7,1.5-1.1,2.6-1.1C92.8,49.8,93.1,49.9,93.3,49.9z M89.8,53.8
		c0,0.3,0,0.4,0,0.5c0,0.8,0.2,1.4,0.5,1.8s0.7,0.6,1.3,0.6c0.5,0,0.9-0.2,1.2-0.5s0.4-0.7,0.4-1.3c0-0.5-0.1-0.8-0.4-1.1
		s-0.7-0.4-1.3-0.4C90.9,53.4,90.3,53.5,89.8,53.8z"/>
	<path d="M99.7,57.3h-3.9v-0.7h1.5v-5.1h-1.5V51c0.6,0,1-0.1,1.3-0.3s0.4-0.4,0.4-0.8h0.7v6.7h1.5V57.3z"/>
	<path d="M106.5,55.2h-1.1v2.1h-0.9v-2.1H101v-1l3.6-4.2h0.8v4.5h1.1V55.2z M104.6,54.5V51l-2.9,3.4H104.6z"/>
	<path d="M110.6,54.5h-3v-0.8h3V54.5z"/>
	<path d="M117,57.3l-0.8-2.1h-3.2l-0.8,2.1h-0.9l2.7-7.4h1.2l2.7,7.4H117z M116,54.5l-1.3-3.6l-1.3,3.6H116z"/>
	<path d="M121.8,54.5h-3v-0.8h3V54.5z"/>
	<path d="M129.9,57.3H129V51l-2.1,4.3h-0.5l-2.1-4.3v6.3h-0.8V50h1.2l2.1,4.2l2.1-4.2h1.2V57.3z"/>
</g>
<g>
</g>
<g>
</g>
<g>
</g>
<g>
</g>
<g>
</g>
<g>
</g>
<g>
</g>
<g>
</g>
<g>
</g>
<g>
</g>
<g>
</g>
<g>
</g>
<g>
</g>
<g>
</g>
<g>
</g>
<g>
</g>
<g>
</g>
<g>
</g>
</svg>
