<svg xmlns="http://www.w3.org/2000/svg" width="48" height="48" viewBox="0 0 48 48">
<path d="M8.6184 7.41598C8.22077 7.47932 7.72119 7.80657 7.50708 8.14438L2.29717 16.463C2.08306 16.8113 1.95052 17.4236 2.02189 17.8248L6.02873 43.5406C6.08991 43.9417 6.45695 44.364 6.84438 44.459L8.53683 44.9024C8.92426 45.0079 9.19954 44.7546 9.14857 44.3429L5.886 17.7403C5.83502 17.3286 5.94717 16.6952 6.12049 16.3363L10.3109 7.78546C10.4944 7.41598 10.3109 7.16262 9.92343 7.22596L8.6184 7.41598Z" fill="#0A91ED"/>
<path d="M16.9161 4.16856C16.4981 4.19984 16.0158 4.52305 15.8443 4.8984L11.6752 13.8755C11.5037 14.2508 11.3965 14.8764 11.4394 15.283L14.4296 44.9043C14.4725 45.3109 14.8476 45.6862 15.2549 45.7384L17.0662 45.9678C17.4842 46.0199 17.8057 45.7279 17.7842 45.3213L16.198 15.2726C16.1766 14.866 16.2409 14.2091 16.3481 13.8233L18.7381 4.74201C18.8453 4.3458 18.5881 4.05387 18.1701 4.07472L16.9375 4.15813L16.9161 4.16856Z" fill="#1AC1B5"/>
<path d="M38.5546 7.42653C39.002 7.48987 39.564 7.81713 39.8049 8.15494L45.666 16.463C45.9069 16.8113 46.056 17.4236 45.9757 17.8248L41.468 43.5406C41.3992 43.9417 40.9863 44.364 40.5504 44.459L38.6464 44.9024C38.2105 45.0079 37.9009 44.7546 37.9582 44.3429L41.6286 17.7403C41.6859 17.3286 41.5598 16.6952 41.3648 16.3363L36.6506 7.78546C36.4442 7.41598 36.6506 7.16262 37.0865 7.22596L38.5546 7.41598V7.42653Z" fill="#805AC9"/>
<path d="M31.0839 4.16856C31.5019 4.19984 31.9842 4.52305 32.1557 4.8984L36.3248 13.8755C36.4963 14.2508 36.6035 14.8764 36.5606 15.283L33.5704 44.9043C33.5275 45.3109 33.1524 45.6862 32.7451 45.7384L30.9338 45.9678C30.5158 46.0199 30.1943 45.7279 30.2158 45.3213L31.802 15.2726C31.8234 14.866 31.7591 14.2091 31.6519 13.8233L29.2619 4.74201C29.1547 4.3458 29.4119 4.05387 29.8299 4.07472L31.0624 4.15813L31.0839 4.16856Z" fill="#FA7D64"/>
<path d="M23.3869 1.9787C22.9883 1.9787 22.6408 2.3176 22.6102 2.73064L21.9459 12.6013C21.9152 13.0143 21.905 13.6921 21.905 14.1051L22.3649 46.2694C22.3649 46.6824 22.7022 47.0213 23.1007 47.0213H24.7869C25.1855 47.0213 25.5125 46.6824 25.5227 46.2694L26.095 14.1051C26.095 13.6921 26.0848 13.0143 26.0439 12.6118L25.2468 2.74124C25.2162 2.32819 24.8585 1.98929 24.4599 1.98929H23.3664L23.3869 1.9787Z" fill="#FFD616"/>
</svg>
