<?xml version="1.0" encoding="utf-8"?>
<!-- Generator: Adobe Illustrator 16.0.0, SVG Export Plug-In . SVG Version: 6.00 Build 0)  -->
<!DOCTYPE svg PUBLIC "-//W3C//DTD SVG 1.1//EN" "http://www.w3.org/Graphics/SVG/1.1/DTD/svg11.dtd">
<svg version="1.1" id="レイヤー_1" xmlns="http://www.w3.org/2000/svg" xmlns:xlink="http://www.w3.org/1999/xlink" x="0px"
	 y="0px" width="205px" height="61.7px" viewBox="0 0 205 61.7" style="enable-background:new 0 0 205 61.7;" xml:space="preserve">
<style type="text/css">
<![CDATA[
	.st0{fill:#FFFFFF;stroke:#000000;stroke-miterlimit:10;}
	.st1{fill:none;stroke:#000000;stroke-miterlimit:10;}
	.st2{fill:none;}
	.st3{fill:#FFBB99;stroke:#000000;stroke-miterlimit:10;}
	.st4{fill:#DDFFDD;stroke:#000000;stroke-miterlimit:10;}
]]>
</style>
<line class="st1" x1="122.9" y1="0.4" x2="116" y2="4.5"/>
<line class="st1" x1="122.9" y1="0.4" x2="129.8" y2="4.5"/>
<line class="st1" x1="129.8" y1="4.5" x2="124.7" y2="7.5"/>
<line class="st1" x1="116" y1="4.5" x2="121.2" y2="7.5"/>
<rect x="70.2" y="8.1" class="st3" width="64.7" height="30"/>
<g>
	<rect x="70.3" y="9.4" class="st2" width="64.5" height="26.6"/>
	<path d="M90.2,13.8l-6,11.4h-1.8l6.4-11.8h-7.7V12h9.1V13.8z"/>
	<path d="M100.4,11.9v1.6h-0.1c-0.5-0.2-1.1-0.4-1.7-0.4c-1.3,0-2.4,0.4-3.1,1.2c-0.8,0.8-1.2,2-1.4,3.4c1.1-0.7,2.2-1,3.3-1
		c1.3,0,2.4,0.4,3.2,1.1s1.2,1.7,1.2,3.1c0,1.3-0.4,2.4-1.3,3.3s-2,1.3-3.3,1.3c-1.5,0-2.7-0.5-3.5-1.6c-0.8-1-1.3-2.5-1.3-4.5
		c0-2.4,0.6-4.3,1.7-5.7c1.1-1.3,2.7-2,4.8-2C99.5,11.7,100,11.8,100.4,11.9z M94,18.9c0,0.5,0,0.8,0,0.9c0,1.4,0.3,2.5,0.8,3.2
		s1.3,1.1,2.3,1.1c0.9,0,1.6-0.3,2.1-0.8c0.5-0.6,0.8-1.3,0.8-2.3c0-0.8-0.2-1.5-0.7-2s-1.3-0.8-2.4-0.8C95.9,18.1,95,18.4,94,18.9z
		"/>
	<path d="M112.9,13.8l-6,11.4h-1.8l6.4-11.8h-7.7V12h9.1V13.8z"/>
	<path d="M115.3,24.7v-1.8h0.1c1.2,0.8,2.5,1.2,3.7,1.2c1,0,1.7-0.3,2.3-0.8c0.6-0.5,0.9-1.2,0.9-2.1c0-0.8-0.3-1.5-0.7-1.9
		s-1.3-0.6-2.4-0.6h-0.8v-1.4h0.6c1,0,1.7-0.2,2.3-0.6s0.8-1,0.8-1.7c0-0.6-0.2-1.1-0.7-1.4s-1.1-0.5-2-0.5c-1.2,0-2.4,0.4-3.6,1.2
		h-0.1v-1.7c1.2-0.6,2.4-0.8,3.7-0.8c1.4,0,2.5,0.3,3.2,0.9s1.1,1.3,1.1,2.3c0,0.7-0.3,1.4-0.8,1.9c-0.5,0.6-1.1,0.9-1.9,1.1V18
		c2,0.3,2.9,1.5,2.9,3.3c0,1.2-0.4,2.2-1.3,3s-2.1,1.2-3.5,1.2C117.8,25.5,116.5,25.2,115.3,24.7z"/>
	<path d="M77.8,35H77c-0.9-1.1-1.4-2.3-1.4-3.6c0-1.3,0.5-2.5,1.4-3.6h0.8v0c-0.4,0.4-0.8,0.9-1.1,1.4c-0.3,0.7-0.5,1.4-0.5,2.1
		c0,0.8,0.2,1.5,0.5,2.2C77,34.1,77.3,34.6,77.8,35L77.8,35z"/>
	<path d="M82.9,31.5c0,0.7-0.1,1.2-0.3,1.6c-0.2,0.4-0.6,0.8-1,1c-0.5,0.3-1.1,0.5-1.8,0.7l-0.2-0.6c0.8-0.2,1.5-0.5,2-0.9
		c0.5-0.4,0.7-1,0.7-1.8v-0.4h-3.6v-0.6h7.3v0.6h-3V31.5z M84.4,29.1h-5.3v-0.5h5.3V29.1z M85.2,28.8L84.8,29
		c-0.2-0.4-0.4-0.8-0.6-1.1l0.4-0.2C84.8,28.1,85,28.4,85.2,28.8z M86.3,28.5l-0.5,0.2c-0.2-0.4-0.4-0.8-0.6-1.1l0.4-0.2
		C85.9,27.8,86.1,28.1,86.3,28.5z"/>
	<path d="M89.4,28.4c0,1.5-0.3,2.8-0.7,3.7c-0.4,1-1.1,1.8-1.9,2.5l-0.4-0.4c0.3-0.3,0.6-0.5,0.8-0.8s0.4-0.6,0.6-0.9s0.3-0.7,0.5-1
		s0.2-0.8,0.3-1.3s0.1-1.1,0.1-1.8H89.4z M94.5,34.1l-0.5,0.4c-0.4-0.4-0.8-1-1.2-1.7c-0.4-0.7-0.6-1.5-0.8-2.3
		c-0.2-0.9-0.2-1.6-0.2-2.2h0.7v0.1c0,1.1,0.2,2.2,0.5,3.2C93.2,32.5,93.7,33.4,94.5,34.1z"/>
	<path d="M101.1,29.4l-2.7,5.1h-0.8l2.8-5.3h-3.4v-0.6h4V29.4z"/>
	<path d="M106.3,32.7h-0.9v1.7h-0.7v-1.7h-2.9v-0.8l2.9-3.4h0.7v3.6h0.9V32.7z M104.7,32.2v-2.8l-2.4,2.8H104.7z"/>
	<path d="M109.2,34.6c-0.7,0-1.2-0.2-1.5-0.7s-0.5-1.3-0.5-2.3s0.2-1.8,0.5-2.3c0.3-0.5,0.8-0.7,1.5-0.7c0.7,0,1.2,0.2,1.5,0.7
		s0.5,1.3,0.5,2.3c0,1.1-0.2,1.8-0.5,2.3S109.8,34.6,109.2,34.6z M109.2,29c-0.5,0-0.8,0.2-1,0.5c-0.2,0.4-0.3,1-0.3,1.9
		c0,0.9,0.1,1.6,0.3,1.9c0.2,0.4,0.5,0.5,1,0.5c0.5,0,0.8-0.2,1-0.5s0.3-1,0.3-1.9c0-0.9-0.1-1.6-0.3-1.9
		C109.9,29.2,109.6,29,109.2,29z"/>
	<path d="M114.2,34.6c-0.7,0-1.2-0.2-1.5-0.7s-0.5-1.3-0.5-2.3s0.2-1.8,0.5-2.3c0.3-0.5,0.8-0.7,1.5-0.7c0.7,0,1.2,0.2,1.5,0.7
		s0.5,1.3,0.5,2.3c0,1.1-0.2,1.8-0.5,2.3S114.9,34.6,114.2,34.6z M114.2,29c-0.5,0-0.8,0.2-1,0.5c-0.2,0.4-0.3,1-0.3,1.9
		c0,0.9,0.1,1.6,0.3,1.9c0.2,0.4,0.5,0.5,1,0.5c0.5,0,0.8-0.2,1-0.5s0.3-1,0.3-1.9c0-0.9-0.1-1.6-0.3-1.9
		C115,29.2,114.6,29,114.2,29z"/>
	<path d="M119.4,34.9l-0.4-0.3c0.2-0.2,0.4-0.6,0.7-1.1c0.2-0.5,0.3-1.2,0.4-2.1h-0.9v-0.5h0.9v-2.2h-0.7v-0.5h4v0.5h-0.7v2.2h0.7
		v0.5h-0.7v3.5H122v-3.5h-1.3C120.6,32.9,120.2,34,119.4,34.9z M120.6,28.7v2.2h1.3v-2.2H120.6z M123.3,34.9l-0.3-0.4
		c0.6-0.3,1.2-0.7,1.8-1.2c0.6-0.5,1-0.9,1.3-1.2l0.5,0.4c-0.4,0.5-1,0.9-1.6,1.4C124.4,34.3,123.8,34.6,123.3,34.9z M123.7,29.9
		l-0.3-0.4c0.4-0.2,0.8-0.5,1.3-0.8c0.5-0.3,0.8-0.6,1.1-0.9l0.5,0.3C125.5,28.9,124.6,29.5,123.7,29.9z M123.7,32.1l-0.3-0.5
		c1-0.5,1.9-1.1,2.6-1.8l0.5,0.4C125.7,30.9,124.8,31.5,123.7,32.1z"/>
	<path d="M129.5,31.4c0,1.3-0.5,2.6-1.4,3.6h-0.8v0c0.4-0.4,0.8-0.9,1.1-1.4c0.3-0.7,0.5-1.4,0.5-2.2c0-0.8-0.2-1.5-0.5-2.1
		c-0.3-0.6-0.6-1.1-1.1-1.4v0h0.8C129,28.8,129.5,30,129.5,31.4z"/>
</g>
<line class="st1" x1="192.6" y1="0.4" x2="185.7" y2="4.5"/>
<line class="st1" x1="192.6" y1="0.4" x2="199.5" y2="4.5"/>
<line class="st1" x1="199.5" y1="4.5" x2="194.3" y2="7.5"/>
<line class="st1" x1="185.7" y1="4.5" x2="190.8" y2="7.5"/>
<rect x="139.8" y="8.1" class="st3" width="64.7" height="30"/>
<g>
	<rect x="139.8" y="14.5" class="st2" width="55" height="17.2"/>
	<path d="M155.2,18.9l-5.9,11.4h-1.8l6.3-11.8h-7.6V17h9V18.9z"/>
	<path d="M165.2,17v1.6h-0.1c-0.5-0.2-1.1-0.4-1.7-0.4c-1.3,0-2.3,0.4-3.1,1.2s-1.2,2-1.4,3.4c1.1-0.7,2.2-1,3.2-1
		c1.3,0,2.3,0.4,3.1,1.1s1.2,1.7,1.2,3.1c0,1.3-0.4,2.4-1.3,3.3s-1.9,1.3-3.2,1.3c-1.5,0-2.7-0.5-3.5-1.6s-1.2-2.5-1.2-4.5
		c0-2.4,0.6-4.3,1.7-5.7s2.7-2,4.8-2C164.3,16.8,164.8,16.9,165.2,17z M158.9,24c0,0.5,0,0.8,0,0.9c0,1.4,0.3,2.5,0.8,3.2
		s1.3,1.1,2.3,1.1c0.9,0,1.6-0.3,2.1-0.8s0.8-1.3,0.8-2.3c0-0.8-0.2-1.5-0.7-2s-1.3-0.8-2.4-0.8C160.8,23.2,159.8,23.5,158.9,24z"/>
	<path d="M168.8,29.8V28h0.1c1.1,0.7,2.3,1.1,3.6,1.1c0.9,0,1.7-0.3,2.3-0.8s0.9-1.3,0.9-2.2c0-1.7-1.2-2.6-3.6-2.6
		c-0.7,0-1.6,0.1-2.7,0.4V17h7.9v1.4H171v3.8c0.8-0.1,1.3-0.1,1.6-0.1c1.6,0,2.8,0.3,3.6,1s1.2,1.7,1.2,3c0,1.3-0.4,2.4-1.3,3.2
		s-2,1.2-3.5,1.2C171.2,30.6,170,30.3,168.8,29.8z"/>
	<path d="M179.8,29.7V28h0.1c1.2,0.8,2.4,1.2,3.7,1.2c0.9,0,1.7-0.3,2.3-0.8s0.8-1.2,0.8-2.1c0-0.8-0.2-1.5-0.7-1.9
		s-1.3-0.6-2.4-0.6h-0.8v-1.4h0.6c0.9,0,1.7-0.2,2.2-0.6s0.8-1,0.8-1.7c0-0.6-0.2-1.1-0.7-1.4s-1.1-0.5-1.9-0.5
		c-1.2,0-2.4,0.4-3.5,1.2h-0.1v-1.7c1.2-0.6,2.4-0.8,3.7-0.8c1.4,0,2.4,0.3,3.2,0.9s1.1,1.3,1.1,2.3c0,0.7-0.3,1.4-0.7,1.9
		s-1.1,0.9-1.9,1.1v0.1c1.9,0.3,2.9,1.5,2.9,3.3c0,1.2-0.4,2.2-1.3,3s-2,1.2-3.4,1.2C182.4,30.6,181.1,30.3,179.8,29.7z"/>
</g>
<rect x="0.5" y="8.1" class="st4" width="64.7" height="30"/>
<g>
	<rect x="9.8" y="14.5" class="st2" width="55.3" height="17.2"/>
	<path d="M25.3,18.9l-5.9,11.4h-1.8l6.3-11.8h-7.6V17h9V18.9z"/>
	<path d="M35.4,17v1.6h-0.1c-0.5-0.2-1.1-0.4-1.7-0.4c-1.3,0-2.3,0.4-3.1,1.2s-1.2,2-1.4,3.4c1.1-0.7,2.2-1,3.2-1
		c1.3,0,2.3,0.4,3.1,1.1s1.2,1.7,1.2,3.1c0,1.3-0.4,2.4-1.3,3.3s-1.9,1.3-3.2,1.3c-1.5,0-2.7-0.5-3.5-1.6s-1.2-2.5-1.2-4.5
		c0-2.4,0.6-4.3,1.7-5.7s2.7-2,4.8-2C34.4,16.8,35,16.9,35.4,17z M29.1,24c0,0.5,0,0.8,0,0.9c0,1.4,0.3,2.5,0.8,3.2s1.3,1.1,2.3,1.1
		c0.9,0,1.6-0.3,2.1-0.8s0.8-1.3,0.8-2.3c0-0.8-0.2-1.5-0.7-2s-1.3-0.8-2.4-0.8C30.9,23.2,30,23.5,29.1,24z"/>
	<path d="M43.1,30.6c-1.6,0-2.7-0.6-3.4-1.7s-1.1-2.9-1.1-5.2s0.4-4.1,1.1-5.2s1.9-1.7,3.4-1.7c1.5,0,2.7,0.6,3.4,1.7
		s1.1,2.9,1.1,5.2c0,2.4-0.4,4.1-1.1,5.2S44.6,30.6,43.1,30.6z M43.1,18.1c-1,0-1.7,0.4-2.2,1.2s-0.7,2.2-0.7,4.4
		c0,2.1,0.2,3.5,0.7,4.3s1.2,1.2,2.2,1.2s1.7-0.4,2.2-1.2s0.7-2.3,0.7-4.4c0-2.1-0.2-3.5-0.7-4.3S44.1,18.1,43.1,18.1z"/>
	<path d="M50,29.7V28h0.1c1.2,0.8,2.4,1.2,3.7,1.2c0.9,0,1.7-0.3,2.3-0.8s0.8-1.2,0.8-2.1c0-0.8-0.2-1.5-0.7-1.9s-1.3-0.6-2.4-0.6
		H53v-1.4h0.6c0.9,0,1.7-0.2,2.2-0.6s0.8-1,0.8-1.7c0-0.6-0.2-1.1-0.7-1.4s-1.1-0.5-1.9-0.5c-1.2,0-2.4,0.4-3.5,1.2h-0.1v-1.7
		c1.2-0.6,2.4-0.8,3.7-0.8c1.4,0,2.4,0.3,3.2,0.9s1.1,1.3,1.1,2.3c0,0.7-0.2,1.4-0.7,1.9s-1.1,0.9-1.9,1.1v0.1
		c1.9,0.3,2.9,1.5,2.9,3.3c0,1.2-0.4,2.2-1.3,3s-2,1.2-3.4,1.2C52.6,30.6,51.3,30.3,50,29.7z"/>
</g>
<line class="st1" x1="194.8" y1="8" x2="194.8" y2="38"/>
<line class="st1" x1="9.8" y1="8" x2="9.8" y2="38"/>
<rect x="158.8" y="38.5" class="st0" width="26" height="9"/>
<g>
	<rect x="158.8" y="39.1" class="st2" width="26.1" height="7.1"/>
	<path d="M166.7,40.2l-2.3,5.9h-0.7l-2.3-5.9h0.8l1.9,4.9l1.9-4.9H166.7z"/>
	<path d="M172.2,40.2l-2.3,5.9h-0.7l-2.3-5.9h0.8l1.9,4.9l1.9-4.9H172.2z"/>
	<path d="M177.6,40.2l-2.3,5.9h-0.7l-2.3-5.9h0.8l1.9,4.9l1.9-4.9H177.6z"/>
	<path d="M182.1,40.8h-3v1.8h2.7v0.6h-2.7v2.9h-0.7v-5.9h3.7V40.8z"/>
</g>
<rect x="89.8" y="38.5" class="st0" width="26" height="9"/>
<g>
	<rect x="89.8" y="39.1" class="st2" width="26.1" height="7.1"/>
	<path d="M97.7,40.2l-2.3,5.9h-0.7l-2.3-5.9h0.8l1.9,4.9l1.9-4.9H97.7z"/>
	<path d="M103.2,40.2l-2.3,5.9h-0.7l-2.3-5.9h0.8l1.9,4.9l1.9-4.9H103.2z"/>
	<path d="M108.6,40.2l-2.3,5.9h-0.7l-2.3-5.9h0.8l1.9,4.9l1.9-4.9H108.6z"/>
	<path d="M113.1,40.8h-3v1.8h2.7v0.6h-2.7v2.9h-0.7v-5.9h3.7V40.8z"/>
</g>
<g>
	<rect x="70.2" y="48.5" class="st2" width="64.6" height="9.6"/>
	<path d="M81.1,57.3h-1.2l-2.4-3H76v3h-0.9V50h2.1c1,0,1.7,0.2,2.1,0.6c0.4,0.4,0.6,0.9,0.6,1.5c0,1-0.5,1.7-1.5,2.1L81.1,57.3z
		 M76,50.7v2.9h1.1c0.7,0,1.2-0.1,1.5-0.4S79,52.5,79,52c0-0.8-0.6-1.3-1.7-1.3H76z"/>
	<path d="M87.8,56.8c-1.1,0.5-1.9,0.7-2.6,0.7c-1.2,0-2.1-0.3-2.7-1c-0.7-0.7-1-1.6-1-2.8c0-1.2,0.3-2.1,1-2.8s1.6-1,2.7-1
		c0.8,0,1.7,0.2,2.6,0.7v1.1h-0.1c-0.8-0.6-1.7-1-2.7-1c-0.8,0-1.4,0.3-1.9,0.8c-0.5,0.5-0.7,1.3-0.7,2.2c0,1,0.2,1.7,0.7,2.3
		c0.5,0.5,1.1,0.8,2,0.8c0.6,0,1.2-0.1,1.7-0.4v-1.9H85v-0.8h2.8V56.8z"/>
	<path d="M93.3,49.9v0.9h-0.1c-0.3-0.1-0.6-0.2-1-0.2c-0.7,0-1.3,0.2-1.7,0.7s-0.7,1.1-0.8,1.9c0.6-0.4,1.2-0.6,1.8-0.6
		c0.7,0,1.3,0.2,1.7,0.6c0.4,0.4,0.7,1,0.7,1.7c0,0.7-0.2,1.3-0.7,1.8s-1.1,0.7-1.8,0.7c-0.8,0-1.5-0.3-1.9-0.9
		c-0.5-0.6-0.7-1.4-0.7-2.5c0-1.4,0.3-2.4,0.9-3.1c0.6-0.7,1.5-1.1,2.6-1.1C92.8,49.8,93.1,49.9,93.3,49.9z M89.9,53.8
		c0,0.3,0,0.4,0,0.5c0,0.8,0.2,1.4,0.5,1.8s0.7,0.6,1.3,0.6c0.5,0,0.9-0.2,1.2-0.5s0.4-0.7,0.4-1.3c0-0.5-0.1-0.8-0.4-1.1
		s-0.7-0.4-1.3-0.4C90.9,53.4,90.4,53.5,89.9,53.8z"/>
	<path d="M99.7,57.3h-3.9v-0.7h1.5v-5.1h-1.5V51c0.6,0,1-0.1,1.3-0.3s0.4-0.4,0.4-0.8h0.7v6.7h1.5V57.3z"/>
	<path d="M106.4,51l-3.3,6.3h-1l3.5-6.6h-4.2V50h5V51z"/>
	<path d="M110.7,54.5h-3v-0.8h3V54.5z"/>
	<path d="M112.2,57.3V50h2.2c0.3,0,0.6,0,0.8,0c0.2,0,0.5,0.1,0.7,0.1c0.2,0.1,0.5,0.2,0.6,0.3s0.3,0.3,0.4,0.5s0.1,0.4,0.1,0.7
		c0,0.7-0.3,1.2-1,1.5v0c0.5,0.1,0.9,0.3,1.2,0.7s0.4,0.7,0.4,1.2c0,0.7-0.3,1.3-0.8,1.7c-0.5,0.4-1.2,0.6-2.2,0.6H112.2z
		 M113.2,50.7V53h1.3c0.6,0,1.1-0.1,1.3-0.3s0.4-0.5,0.4-0.9c0-0.3-0.1-0.5-0.3-0.7s-0.7-0.3-1.5-0.3H113.2z M113.2,53.7v2.8h1.3
		c0.9,0,1.6-0.1,1.9-0.4c0.3-0.3,0.5-0.6,0.5-1c0-0.3-0.1-0.5-0.2-0.7s-0.3-0.4-0.5-0.5c-0.2-0.1-0.7-0.2-1.4-0.2H113.2z"/>
	<path d="M121.8,54.5h-3v-0.8h3V54.5z"/>
	<path d="M129.9,57.3H129V51l-2.1,4.3h-0.5l-2.1-4.3v6.3h-0.8V50h1.2l2.1,4.2l2.1-4.2h1.2V57.3z"/>
</g>
<g>
	<rect x="139.8" y="48.5" class="st2" width="64.6" height="9.6"/>
	<path d="M150.8,57.3h-1.2l-2.4-3h-1.5v3h-0.9V50h2.1c1,0,1.7,0.2,2.1,0.6c0.4,0.4,0.6,0.9,0.6,1.5c0,1-0.5,1.7-1.5,2.1L150.8,57.3z
		 M145.6,50.7v2.9h1.1c0.7,0,1.2-0.1,1.5-0.4s0.4-0.7,0.4-1.2c0-0.8-0.6-1.3-1.7-1.3H145.6z"/>
	<path d="M157.4,56.8c-1.1,0.5-1.9,0.7-2.6,0.7c-1.2,0-2.1-0.3-2.7-1c-0.6-0.7-1-1.6-1-2.8c0-1.2,0.3-2.1,1-2.8s1.6-1,2.7-1
		c0.8,0,1.7,0.2,2.6,0.7v1.1h-0.1c-0.8-0.6-1.7-1-2.7-1c-0.8,0-1.4,0.3-1.9,0.8c-0.5,0.5-0.7,1.3-0.7,2.2c0,1,0.2,1.7,0.7,2.3
		c0.5,0.5,1.1,0.8,2,0.8c0.6,0,1.2-0.1,1.7-0.4v-1.9h-1.9v-0.8h2.8V56.8z"/>
	<path d="M163,49.9v0.9h-0.1c-0.3-0.1-0.6-0.2-1-0.2c-0.7,0-1.3,0.2-1.7,0.7s-0.7,1.1-0.8,1.9c0.6-0.4,1.2-0.6,1.8-0.6
		c0.7,0,1.3,0.2,1.7,0.6c0.4,0.4,0.7,1,0.7,1.7c0,0.7-0.2,1.3-0.7,1.8s-1.1,0.7-1.8,0.7c-0.8,0-1.5-0.3-1.9-0.9
		c-0.5-0.6-0.7-1.4-0.7-2.5c0-1.4,0.3-2.4,0.9-3.1c0.6-0.7,1.5-1.1,2.6-1.1C162.5,49.8,162.7,49.9,163,49.9z M159.5,53.8
		c0,0.3,0,0.4,0,0.5c0,0.8,0.2,1.4,0.5,1.8s0.7,0.6,1.3,0.6c0.5,0,0.9-0.2,1.2-0.5s0.4-0.7,0.4-1.3c0-0.5-0.1-0.8-0.4-1.1
		s-0.7-0.4-1.3-0.4C160.5,53.4,160,53.5,159.5,53.8z"/>
	<path d="M169.4,57.3h-3.9v-0.7h1.5v-5.1h-1.5V51c0.6,0,1-0.1,1.3-0.3s0.4-0.4,0.4-0.8h0.7v6.7h1.5V57.3z"/>
	<path d="M176.2,55.2h-1.1v2.1h-0.9v-2.1h-3.5v-1l3.6-4.2h0.8v4.5h1.1V55.2z M174.2,54.5V51l-2.9,3.4H174.2z"/>
	<path d="M180.3,54.5h-3v-0.8h3V54.5z"/>
	<path d="M186.7,57.3l-0.8-2.1h-3.2l-0.8,2.1h-0.9l2.7-7.4h1.2l2.7,7.4H186.7z M185.7,54.5l-1.3-3.6l-1.3,3.6H185.7z"/>
	<path d="M191.5,54.5h-3v-0.8h3V54.5z"/>
	<path d="M199.5,57.3h-0.9V51l-2.1,4.3H196l-2.1-4.3v6.3H193V50h1.2l2.1,4.2l2.1-4.2h1.2V57.3z"/>
</g>
<g>
</g>
<g>
</g>
<g>
</g>
<g>
</g>
<g>
</g>
<g>
</g>
<g>
</g>
<g>
</g>
<g>
</g>
<g>
</g>
<g>
</g>
<g>
</g>
<g>
</g>
<g>
</g>
<g>
</g>
<g>
</g>
<g>
</g>
<g>
</g>
</svg>
