<?xml version="1.0" encoding="utf-8"?>
<!-- Generator: Adobe Illustrator 16.0.0, SVG Export Plug-In . SVG Version: 6.00 Build 0)  -->
<!DOCTYPE svg PUBLIC "-//W3C//DTD SVG 1.1//EN" "http://www.w3.org/Graphics/SVG/1.1/DTD/svg11.dtd">
<svg version="1.1" id="レイヤー_1" xmlns="http://www.w3.org/2000/svg" xmlns:xlink="http://www.w3.org/1999/xlink" x="0px"
	 y="0px" width="205px" height="49.6px" viewBox="0 0 205 49.6" style="enable-background:new 0 0 205 49.6;" xml:space="preserve">
<style type="text/css">
<![CDATA[
	.st0{fill:#FFFFFF;stroke:#000000;stroke-miterlimit:10;}
	.st1{fill:none;stroke:#000000;stroke-miterlimit:10;}
	.st2{fill:none;}
	.st3{fill:#BBEEEE;stroke:#000000;stroke-miterlimit:10;}
	.st4{fill:#FFBB99;stroke:#000000;stroke-miterlimit:10;}
]]>
</style>
<line class="st1" x1="151.8" y1="0.4" x2="144.8" y2="4.5"/>
<line class="st1" x1="151.8" y1="0.4" x2="158.6" y2="4.5"/>
<line class="st1" x1="158.6" y1="4.5" x2="153.5" y2="7.5"/>
<line class="st1" x1="144.8" y1="4.5" x2="150" y2="7.5"/>
<rect x="70.2" y="8.1" class="st4" width="64.7" height="30"/>
<g>
	<rect x="79.8" y="14.5" class="st2" width="55" height="17.2"/>
	<path d="M95.1,18.9l-5.9,11.4h-1.8l6.3-11.8h-7.6V17h9V18.9z"/>
	<path d="M105.2,17v1.6h-0.1c-0.5-0.2-1.1-0.4-1.7-0.4c-1.3,0-2.3,0.4-3.1,1.2s-1.2,2-1.4,3.4c1.1-0.7,2.2-1,3.2-1
		c1.3,0,2.3,0.4,3.1,1.1s1.2,1.7,1.2,3.1c0,1.3-0.4,2.4-1.3,3.3s-1.9,1.3-3.2,1.3c-1.5,0-2.7-0.5-3.5-1.6s-1.2-2.5-1.2-4.5
		c0-2.4,0.6-4.3,1.7-5.7s2.7-2,4.8-2C104.3,16.8,104.8,16.9,105.2,17z M98.9,24c0,0.5,0,0.8,0,0.9c0,1.4,0.3,2.5,0.8,3.2
		s1.3,1.1,2.3,1.1c0.9,0,1.6-0.3,2.1-0.8s0.8-1.3,0.8-2.3c0-0.8-0.2-1.5-0.7-2s-1.3-0.8-2.4-0.8C100.8,23.2,99.8,23.5,98.9,24z"/>
	<path d="M112.9,30.6c-1.6,0-2.7-0.6-3.4-1.7s-1.1-2.9-1.1-5.2s0.4-4.1,1.1-5.2s1.9-1.7,3.4-1.7c1.5,0,2.7,0.6,3.4,1.7
		s1.1,2.9,1.1,5.2c0,2.4-0.4,4.1-1.1,5.2S114.5,30.6,112.9,30.6z M112.9,18.1c-1,0-1.7,0.4-2.2,1.2s-0.7,2.2-0.7,4.4
		c0,2.1,0.2,3.5,0.7,4.3s1.2,1.2,2.2,1.2s1.7-0.4,2.2-1.2s0.7-2.3,0.7-4.4c0-2.1-0.2-3.5-0.7-4.3S113.9,18.1,112.9,18.1z"/>
	<path d="M119.8,29.7V28h0.1c1.2,0.8,2.4,1.2,3.7,1.2c0.9,0,1.7-0.3,2.3-0.8s0.8-1.2,0.8-2.1c0-0.8-0.2-1.5-0.7-1.9
		s-1.3-0.6-2.4-0.6h-0.8v-1.4h0.6c0.9,0,1.7-0.2,2.2-0.6s0.8-1,0.8-1.7c0-0.6-0.2-1.1-0.7-1.4s-1.1-0.5-1.9-0.5
		c-1.2,0-2.4,0.4-3.5,1.2h-0.1v-1.7c1.2-0.6,2.4-0.8,3.7-0.8c1.4,0,2.4,0.3,3.2,0.9s1.1,1.3,1.1,2.3c0,0.7-0.3,1.4-0.7,1.9
		s-1.1,0.9-1.9,1.1v0.1c1.9,0.3,2.9,1.5,2.9,3.3c0,1.2-0.4,2.2-1.3,3s-2,1.2-3.4,1.2C122.4,30.6,121.1,30.3,119.8,29.7z"/>
</g>
<line class="st1" x1="192.6" y1="0.4" x2="185.7" y2="4.5"/>
<line class="st1" x1="192.6" y1="0.4" x2="199.5" y2="4.5"/>
<line class="st1" x1="199.5" y1="4.5" x2="194.3" y2="7.5"/>
<line class="st1" x1="185.7" y1="4.5" x2="190.8" y2="7.5"/>
<rect x="139.8" y="8.1" class="st4" width="64.7" height="30"/>
<g>
	<rect x="139.8" y="14.5" class="st2" width="55" height="17.2"/>
	<path d="M155.2,18.9l-5.9,11.4h-1.8l6.3-11.8h-7.6V17h9V18.9z"/>
	<path d="M165.2,17v1.6h-0.1c-0.5-0.2-1.1-0.4-1.7-0.4c-1.3,0-2.3,0.4-3.1,1.2s-1.2,2-1.4,3.4c1.1-0.7,2.2-1,3.2-1
		c1.3,0,2.3,0.4,3.1,1.1s1.2,1.7,1.2,3.1c0,1.3-0.4,2.4-1.3,3.3s-1.9,1.3-3.2,1.3c-1.5,0-2.7-0.5-3.5-1.6s-1.2-2.5-1.2-4.5
		c0-2.4,0.6-4.3,1.7-5.7s2.7-2,4.8-2C164.3,16.8,164.8,16.9,165.2,17z M158.9,24c0,0.5,0,0.8,0,0.9c0,1.4,0.3,2.5,0.8,3.2
		s1.3,1.1,2.3,1.1c0.9,0,1.6-0.3,2.1-0.8s0.8-1.3,0.8-2.3c0-0.8-0.2-1.5-0.7-2s-1.3-0.8-2.4-0.8C160.8,23.2,159.8,23.5,158.9,24z"/>
	<path d="M168.8,29.8V28h0.1c1.1,0.7,2.3,1.1,3.6,1.1c0.9,0,1.7-0.3,2.3-0.8s0.9-1.3,0.9-2.2c0-1.7-1.2-2.6-3.6-2.6
		c-0.7,0-1.6,0.1-2.7,0.4V17h7.9v1.4H171v3.8c0.8-0.1,1.3-0.1,1.6-0.1c1.6,0,2.8,0.3,3.6,1s1.2,1.7,1.2,3c0,1.3-0.4,2.4-1.3,3.2
		s-2,1.2-3.5,1.2C171.2,30.6,170,30.3,168.8,29.8z"/>
	<path d="M179.8,29.7V28h0.1c1.2,0.8,2.4,1.2,3.7,1.2c0.9,0,1.7-0.3,2.3-0.8s0.8-1.2,0.8-2.1c0-0.8-0.2-1.5-0.7-1.9
		s-1.3-0.6-2.4-0.6h-0.8v-1.4h0.6c0.9,0,1.7-0.2,2.2-0.6s0.8-1,0.8-1.7c0-0.6-0.2-1.1-0.7-1.4s-1.1-0.5-1.9-0.5
		c-1.2,0-2.4,0.4-3.5,1.2h-0.1v-1.7c1.2-0.6,2.4-0.8,3.7-0.8c1.4,0,2.4,0.3,3.2,0.9s1.1,1.3,1.1,2.3c0,0.7-0.3,1.4-0.7,1.9
		s-1.1,0.9-1.9,1.1v0.1c1.9,0.3,2.9,1.5,2.9,3.3c0,1.2-0.4,2.2-1.3,3s-2,1.2-3.4,1.2C182.4,30.6,181.1,30.3,179.8,29.7z"/>
</g>
<rect x="0.5" y="8.1" class="st3" width="64.7" height="30"/>
<g>
	<rect x="9.8" y="14.5" class="st2" width="55.3" height="17.2"/>
	<path d="M25.3,18.9l-5.9,11.4h-1.8l6.3-11.8h-7.6V17h9V18.9z"/>
	<path d="M36.5,30.3h-8.9v-1.7c0.9-0.8,2-1.7,3.2-2.8s2-2,2.6-2.8s0.9-1.6,0.9-2.4c0-0.7-0.2-1.3-0.7-1.7s-1.1-0.6-1.9-0.6
		c-1.2,0-2.4,0.4-3.5,1.1h-0.1v-1.7c1.2-0.6,2.4-0.8,3.7-0.8c1.3,0,2.4,0.3,3.2,1s1.2,1.5,1.2,2.6c0,0.6-0.1,1.2-0.3,1.7
		s-0.5,1.1-0.9,1.6s-0.9,1.1-1.5,1.6s-1.9,1.8-4,3.5h7.3V30.3z"/>
	<path d="M39,29.8V28h0.1c1.1,0.7,2.3,1.1,3.6,1.1c0.9,0,1.7-0.3,2.3-0.8s0.9-1.3,0.9-2.2c0-1.7-1.2-2.6-3.6-2.6
		c-0.7,0-1.6,0.1-2.7,0.4V17h7.9v1.4h-6.3v3.8c0.8-0.1,1.3-0.1,1.6-0.1c1.6,0,2.8,0.3,3.6,1s1.2,1.7,1.2,3c0,1.3-0.4,2.4-1.3,3.2
		s-2,1.2-3.5,1.2C41.4,30.6,40.1,30.3,39,29.8z"/>
	<path d="M50.2,29.8V28h0.1c1.1,0.7,2.3,1.1,3.6,1.1c0.9,0,1.7-0.3,2.3-0.8S57,27,57,26.1c0-1.7-1.2-2.6-3.6-2.6
		c-0.7,0-1.6,0.1-2.7,0.4V17h7.9v1.4h-6.3v3.8c0.8-0.1,1.3-0.1,1.6-0.1c1.6,0,2.8,0.3,3.6,1s1.2,1.7,1.2,3c0,1.3-0.4,2.4-1.3,3.2
		s-2,1.2-3.5,1.2C52.5,30.6,51.3,30.3,50.2,29.8z"/>
</g>
<line class="st1" x1="194.8" y1="8" x2="194.8" y2="38"/>
<line class="st1" x1="9.8" y1="8" x2="9.8" y2="38"/>
<rect x="158.8" y="38.5" class="st0" width="26" height="9"/>
<g>
	<rect x="158.8" y="39.1" class="st2" width="26.1" height="7.1"/>
	<path d="M166.7,40.2l-2.3,5.9h-0.7l-2.3-5.9h0.8l1.9,4.9l1.9-4.9H166.7z"/>
	<path d="M172.2,40.2l-2.3,5.9h-0.7l-2.3-5.9h0.8l1.9,4.9l1.9-4.9H172.2z"/>
	<path d="M177.6,40.2l-2.3,5.9h-0.7l-2.3-5.9h0.8l1.9,4.9l1.9-4.9H177.6z"/>
	<path d="M182.1,40.8h-3v1.8h2.7v0.6h-2.7v2.9h-0.7v-5.9h3.7V40.8z"/>
</g>
<line class="st1" x1="79.8" y1="8" x2="79.8" y2="38"/>
<rect x="19.8" y="38.5" class="st0" width="26" height="9"/>
<g>
	<rect x="19.8" y="39.1" class="st2" width="26.1" height="7.1"/>
	<path d="M26.1,46.6h-0.8L25.2,46h0.7c0.2,0,0.3-0.1,0.3-0.3v-2.1c-0.3,0.1-0.7,0.2-1.1,0.3L25,43.4c0.3,0,0.7-0.1,1.2-0.2v-1.7
		h-0.9V41h0.9v-1.5h0.6V41h0.8v0.5h-0.8v1.5c0.3-0.1,0.6-0.2,0.8-0.2l0.1,0.4c-0.2,0.1-0.5,0.2-0.9,0.3V46c0,0.2-0.1,0.3-0.2,0.4
		S26.2,46.6,26.1,46.6z M27.3,45.4l-0.1-0.5c0.3,0,0.5-0.1,0.8-0.1v-4.7c1.8-0.1,3-0.3,3.8-0.6L32,40c-0.3,0.1-0.8,0.2-1.5,0.3
		l0,1.1c0,0.2,0,0.4,0,0.6h1.8v0.5h-1.8c0.1,1.1,0.3,1.9,0.6,2.5s0.6,0.9,0.7,0.9c0.1,0,0.2-0.1,0.2-0.3c0-0.1,0.1-0.4,0.1-0.9
		l0.5,0.1c0,0.8-0.1,1.4-0.2,1.6s-0.3,0.3-0.5,0.3c-0.4,0-0.8-0.4-1.2-1.1s-0.7-1.7-0.8-3h-1.4v2.3c0.6-0.1,1-0.2,1.3-0.3l0.1,0.5
		C29.6,45,28.7,45.2,27.3,45.4z M27.4,46.3v-0.5h3.1v0.5H27.4z M28.6,40.5V42H30c0-0.5,0-1,0-1.6C29.4,40.5,28.9,40.5,28.6,40.5z"/>
	<path d="M34.1,46.6h-1l-0.1-0.5h0.7c0.1,0,0.2,0,0.2-0.1s0.1-0.1,0.1-0.2v-2.1c-0.5,0.1-0.8,0.2-1.1,0.3l-0.1-0.5
		c0.2,0,0.6-0.1,1.2-0.3v-1.7h-1V41h1v-1.5h0.6V41h0.6v0.5h-0.6V43c0.4-0.1,0.6-0.2,0.8-0.3l0.1,0.5c-0.2,0.1-0.5,0.2-0.9,0.4V46
		c0,0.2-0.1,0.3-0.2,0.4S34.3,46.6,34.1,46.6z M38.5,42.4h-1.7v1.1c0,1.3-0.4,2.3-1.3,3.1l-0.4-0.3c0.4-0.3,0.7-0.8,0.8-1.2
		s0.3-1.1,0.3-1.7V42h2.9v3.7c0,0.1,0,0.1,0.1,0.2s0.1,0.1,0.1,0.1s0.1,0,0.3,0c0.2,0,0.3,0,0.4-0.1s0.1-0.2,0.1-0.4s0-0.4,0-0.6
		l0-0.2l0.5,0.1v1.1c0,0.2-0.1,0.4-0.2,0.5s-0.4,0.2-0.9,0.2c-0.3,0-0.5,0-0.6-0.1s-0.2-0.1-0.3-0.2s-0.1-0.2-0.1-0.4V42.4z
		 M35.6,41.1v-0.5h1.9v-1.1h0.6v1.1h2.1v0.5H35.6z"/>
</g>
<line class="st1" x1="53.3" y1="0.4" x2="46.3" y2="4.5"/>
<line class="st1" x1="53.3" y1="0.4" x2="60.2" y2="4.5"/>
<line class="st1" x1="60.2" y1="4.5" x2="55" y2="7.5"/>
<line class="st1" x1="46.3" y1="4.5" x2="51.5" y2="7.5"/>
<g>
</g>
<g>
</g>
<g>
</g>
<g>
</g>
<g>
</g>
<g>
</g>
<g>
</g>
<g>
</g>
<g>
</g>
<g>
</g>
<g>
</g>
<g>
</g>
<g>
</g>
<g>
</g>
<g>
</g>
<g>
</g>
<g>
</g>
<g>
</g>
</svg>
