<?xml version="1.0" encoding="utf-8"?>
<!-- Generator: Adobe Illustrator 16.0.0, SVG Export Plug-In . SVG Version: 6.00 Build 0)  -->
<!DOCTYPE svg PUBLIC "-//W3C//DTD SVG 1.1//EN" "http://www.w3.org/Graphics/SVG/1.1/DTD/svg11.dtd">
<svg version="1.1" id="レイヤー_1" xmlns="http://www.w3.org/2000/svg" xmlns:xlink="http://www.w3.org/1999/xlink" x="0px"
	 y="0px" width="205px" height="49.6px" viewBox="0 0 205 49.6" style="enable-background:new 0 0 205 49.6;" xml:space="preserve">
<style type="text/css">
<![CDATA[
	.st0{fill:#FFFFFF;stroke:#000000;stroke-miterlimit:10;}
	.st1{fill:none;stroke:#000000;stroke-miterlimit:10;stroke-dasharray:1,1;}
	.st2{fill:none;stroke:#000000;stroke-miterlimit:10;}
	.st3{fill:none;}
	.st4{fill:#FFBB99;stroke:#000000;stroke-miterlimit:10;}
	.st5{fill:#DDFFDD;stroke:#000000;stroke-miterlimit:10;}
]]>
</style>
<line class="st2" x1="82.1" y1="0.4" x2="75.2" y2="4.5"/>
<line class="st2" x1="82.1" y1="0.4" x2="89" y2="4.5"/>
<line class="st2" x1="89" y1="4.5" x2="83.8" y2="7.5"/>
<line class="st2" x1="75.2" y1="4.5" x2="80.3" y2="7.5"/>
<rect x="70.2" y="8.1" class="st4" width="64.7" height="30"/>
<g>
	<rect x="70.2" y="14.5" class="st3" width="54.7" height="17.2"/>
	<path d="M85.3,18.9l-5.9,11.4h-1.8l6.3-11.8h-7.6v-1.4h9V18.9z"/>
	<path d="M95.4,17v1.6h-0.1c-0.5-0.2-1.1-0.4-1.7-0.4c-1.3,0-2.3,0.4-3.1,1.2s-1.2,2-1.4,3.4c1.1-0.7,2.2-1,3.2-1
		c1.3,0,2.3,0.4,3.1,1.1c0.8,0.7,1.2,1.7,1.2,3.1c0,1.3-0.4,2.4-1.3,3.3s-1.9,1.3-3.2,1.3c-1.5,0-2.7-0.5-3.5-1.6
		c-0.8-1-1.2-2.5-1.2-4.5c0-2.4,0.6-4.3,1.7-5.7c1.1-1.3,2.7-2,4.8-2C94.4,16.8,95,16.9,95.4,17z M89.1,24c0,0.5,0,0.8,0,0.9
		c0,1.4,0.3,2.5,0.8,3.2s1.3,1.1,2.3,1.1c0.9,0,1.6-0.3,2.1-0.8s0.8-1.3,0.8-2.3c0-0.8-0.2-1.5-0.7-2s-1.3-0.8-2.4-0.8
		C90.9,23.2,90,23.5,89.1,24z"/>
	<path d="M100.9,23.3v-0.1c-1.4-0.8-2.1-1.7-2.1-3c0-1,0.4-1.8,1.2-2.5s1.8-1,3.1-1c1.3,0,2.3,0.3,3.1,0.9s1.2,1.4,1.2,2.4
		c0,0.6-0.2,1.2-0.6,1.8c-0.4,0.6-0.9,1-1.6,1.3v0.1c1.7,0.7,2.6,1.8,2.6,3.3c0,1.1-0.4,2.1-1.3,2.8s-2,1.1-3.3,1.1
		c-1.4,0-2.5-0.4-3.4-1.1s-1.3-1.7-1.3-2.8C98.4,25.1,99.3,24,100.9,23.3z M102,23.6c-1.2,0.7-1.9,1.7-1.9,3c0,0.8,0.3,1.5,0.8,2.1
		s1.3,0.8,2.2,0.8c0.9,0,1.6-0.2,2.1-0.7s0.8-1.1,0.8-1.9c0-0.5-0.1-1-0.4-1.3s-0.6-0.6-1.1-0.8C104.2,24.4,103.3,24.1,102,23.6z
		 M105.8,20.1c0-0.6-0.2-1.2-0.7-1.6s-1.1-0.6-2-0.6c-0.8,0-1.4,0.2-1.9,0.6c-0.5,0.4-0.7,0.9-0.7,1.5c0,0.7,0.3,1.2,0.9,1.7
		s1.5,0.8,2.8,1.2C105.2,22.2,105.8,21.3,105.8,20.1z"/>
	<path d="M118.8,30.3H110v-1.7c0.9-0.8,2-1.7,3.2-2.8c1.2-1.1,2-2,2.6-2.8s0.9-1.6,0.9-2.4c0-0.7-0.2-1.3-0.7-1.7
		c-0.5-0.4-1.1-0.6-1.9-0.6c-1.2,0-2.4,0.4-3.5,1.1h-0.1v-1.7c1.2-0.6,2.4-0.8,3.7-0.8c1.3,0,2.4,0.3,3.2,1s1.2,1.5,1.2,2.6
		c0,0.6-0.1,1.2-0.3,1.7c-0.2,0.5-0.5,1.1-0.9,1.6s-0.9,1.1-1.5,1.6s-1.9,1.8-4,3.5h7.3V30.3z"/>
</g>
<line class="st2" x1="122.9" y1="0.4" x2="116" y2="4.5"/>
<line class="st2" x1="122.9" y1="0.4" x2="129.8" y2="4.5"/>
<line class="st2" x1="129.8" y1="4.5" x2="124.6" y2="7.5"/>
<line class="st2" x1="116" y1="4.5" x2="121.2" y2="7.5"/>
<rect x="139.8" y="8.1" class="st4" width="64.7" height="30"/>
<g>
	<rect x="139.8" y="14.5" class="st3" width="55" height="17.2"/>
	<path d="M155.2,18.9l-5.9,11.4h-1.8l6.3-11.8h-7.6v-1.4h9V18.9z"/>
	<path d="M165.2,17v1.6h-0.1c-0.5-0.2-1.1-0.4-1.7-0.4c-1.3,0-2.3,0.4-3.1,1.2s-1.2,2-1.4,3.4c1.1-0.7,2.2-1,3.2-1
		c1.3,0,2.3,0.4,3.1,1.1s1.2,1.7,1.2,3.1c0,1.3-0.4,2.4-1.3,3.3s-1.9,1.3-3.2,1.3c-1.5,0-2.7-0.5-3.5-1.6s-1.2-2.5-1.2-4.5
		c0-2.4,0.6-4.3,1.7-5.7s2.7-2,4.8-2C164.3,16.8,164.8,16.9,165.2,17z M158.9,24c0,0.5,0,0.8,0,0.9c0,1.4,0.3,2.5,0.8,3.2
		s1.3,1.1,2.3,1.1c0.9,0,1.6-0.3,2.1-0.8s0.8-1.3,0.8-2.3c0-0.8-0.2-1.5-0.7-2s-1.3-0.8-2.4-0.8C160.8,23.2,159.8,23.5,158.9,24z"/>
	<path d="M176.4,17v1.6h-0.1c-0.5-0.2-1.1-0.4-1.7-0.4c-1.3,0-2.3,0.4-3.1,1.2s-1.2,2-1.4,3.4c1.1-0.7,2.2-1,3.2-1
		c1.3,0,2.3,0.4,3.1,1.1s1.2,1.7,1.2,3.1c0,1.3-0.4,2.4-1.3,3.3s-1.9,1.3-3.2,1.3c-1.5,0-2.7-0.5-3.5-1.6s-1.2-2.5-1.2-4.5
		c0-2.4,0.6-4.3,1.7-5.7s2.7-2,4.8-2C175.5,16.8,176,16.9,176.4,17z M170.1,24c0,0.5,0,0.8,0,0.9c0,1.4,0.3,2.5,0.8,3.2
		s1.3,1.1,2.3,1.1c0.9,0,1.6-0.3,2.1-0.8s0.8-1.3,0.8-2.3c0-0.8-0.2-1.5-0.7-2s-1.3-0.8-2.4-0.8C172,23.2,171,23.5,170.1,24z"/>
	<path d="M188.7,30.3h-8.9v-1.7c0.9-0.8,2-1.7,3.2-2.8s2-2,2.6-2.8s0.9-1.6,0.9-2.4c0-0.7-0.2-1.3-0.7-1.7s-1.1-0.6-1.9-0.6
		c-1.2,0-2.4,0.4-3.5,1.1h-0.1v-1.7c1.2-0.6,2.4-0.8,3.7-0.8c1.3,0,2.4,0.3,3.2,1s1.2,1.5,1.2,2.6c0,0.6-0.1,1.2-0.3,1.7
		s-0.5,1.1-0.9,1.6s-0.9,1.1-1.5,1.6s-1.9,1.8-4,3.5h7.3V30.3z"/>
</g>
<rect x="0.5" y="8.1" class="st5" width="64.7" height="30"/>
<g>
	<rect x="9.8" y="14.5" class="st3" width="55.3" height="17.2"/>
	<path d="M25.3,18.9l-5.9,11.4h-1.8l6.3-11.8h-7.6v-1.4h9V18.9z"/>
	<path d="M35.4,17v1.6h-0.1c-0.5-0.2-1.1-0.4-1.7-0.4c-1.3,0-2.3,0.4-3.1,1.2s-1.2,2-1.4,3.4c1.1-0.7,2.2-1,3.2-1
		c1.3,0,2.3,0.4,3.1,1.1s1.2,1.7,1.2,3.1c0,1.3-0.4,2.4-1.3,3.3s-1.9,1.3-3.2,1.3c-1.5,0-2.7-0.5-3.5-1.6s-1.2-2.5-1.2-4.5
		c0-2.4,0.6-4.3,1.7-5.7s2.7-2,4.8-2C34.4,16.8,35,16.9,35.4,17z M29.1,24c0,0.5,0,0.8,0,0.9c0,1.4,0.3,2.5,0.8,3.2s1.3,1.1,2.3,1.1
		c0.9,0,1.6-0.3,2.1-0.8s0.8-1.3,0.8-2.3c0-0.8-0.2-1.5-0.7-2s-1.3-0.8-2.4-0.8C30.9,23.2,30,23.5,29.1,24z"/>
	<path d="M43.1,30.6c-1.6,0-2.7-0.6-3.4-1.7s-1.1-2.9-1.1-5.2s0.4-4.1,1.1-5.2s1.9-1.7,3.4-1.7c1.5,0,2.7,0.6,3.4,1.7
		s1.1,2.9,1.1,5.2c0,2.4-0.4,4.1-1.1,5.2S44.6,30.6,43.1,30.6z M43.1,18.1c-1,0-1.7,0.4-2.2,1.2s-0.7,2.2-0.7,4.4
		c0,2.1,0.2,3.5,0.7,4.3s1.2,1.2,2.2,1.2s1.7-0.4,2.2-1.2s0.7-2.3,0.7-4.4c0-2.1-0.2-3.5-0.7-4.3S44.1,18.1,43.1,18.1z"/>
	<path d="M58.8,30.3H50v-1.7c0.9-0.8,2-1.7,3.2-2.8s2-2,2.6-2.8s0.9-1.6,0.9-2.4c0-0.7-0.2-1.3-0.7-1.7s-1.1-0.6-1.9-0.6
		c-1.2,0-2.4,0.4-3.5,1.1h-0.1v-1.7c1.2-0.6,2.4-0.8,3.7-0.8c1.3,0,2.4,0.3,3.2,1s1.2,1.5,1.2,2.6c0,0.6-0.1,1.2-0.3,1.7
		s-0.5,1.1-0.9,1.6s-0.9,1.1-1.5,1.6s-1.9,1.8-4,3.5h7.3V30.3z"/>
</g>
<line class="st2" x1="194.8" y1="8" x2="194.8" y2="38"/>
<line class="st2" x1="9.8" y1="8" x2="9.8" y2="38"/>
<rect x="89.8" y="38.5" class="st0" width="26" height="9"/>
<g>
	<rect x="89.8" y="39.1" class="st3" width="26.1" height="7.1"/>
	<path d="M97.7,40.2l-2.3,5.9h-0.7l-2.3-5.9h0.8l1.9,4.9l1.9-4.9H97.7z"/>
	<path d="M103.2,40.2l-2.3,5.9h-0.7l-2.3-5.9h0.8l1.9,4.9l1.9-4.9H103.2z"/>
	<path d="M108.6,40.2l-2.3,5.9h-0.7l-2.3-5.9h0.8l1.9,4.9l1.9-4.9H108.6z"/>
	<path d="M113.1,40.8h-3v1.8h2.7v0.6h-2.7v2.9h-0.7v-5.9h3.7V40.8z"/>
</g>
<g>
	<g>
		<line class="st2" x1="124.8" y1="8" x2="124.8" y2="9"/>
		<line class="st1" x1="124.8" y1="10" x2="124.8" y2="37"/>
		<line class="st2" x1="124.8" y1="38" x2="124.8" y2="38"/>
	</g>
</g>
<rect x="158.8" y="38.5" class="st0" width="26" height="9"/>
<g>
	<rect x="158.8" y="39.1" class="st3" width="26.1" height="7.1"/>
	<path d="M166.7,40.2l-2.3,5.9h-0.7l-2.3-5.9h0.8l1.9,4.9l1.9-4.9H166.7z"/>
	<path d="M172.2,40.2l-2.3,5.9h-0.7l-2.3-5.9h0.8l1.9,4.9l1.9-4.9H172.2z"/>
	<path d="M177.6,40.2l-2.3,5.9h-0.7l-2.3-5.9h0.8l1.9,4.9l1.9-4.9H177.6z"/>
	<path d="M182.1,40.8h-3v1.8h2.7v0.6h-2.7v2.9h-0.7v-5.9h3.7V40.8z"/>
</g>
<g>
</g>
<g>
</g>
<g>
</g>
<g>
</g>
<g>
</g>
<g>
</g>
<g>
</g>
<g>
</g>
<g>
</g>
<g>
</g>
<g>
</g>
<g>
</g>
<g>
</g>
<g>
</g>
<g>
</g>
<g>
</g>
<g>
</g>
<g>
</g>
</svg>
